<svg width="2160" height="2160" viewBox="0 0 2160 2160" fill="none" xmlns="http://www.w3.org/2000/svg">
<rect width="2160" height="2160" fill="#131313"/>
<path d="M1007.19 1034.21L1027.71 981.15H1014.62L1004.72 1008.74C1003.21 1012.98 1001.62 1017.4 1000.21 1021.65H999.586C998.26 1017.4 996.668 1012.98 995.165 1008.74L985.438 981.15H971.82L992.335 1034.21H1007.19Z" fill="white"/>
<path d="M1041.95 1025.36C1037.35 1025.36 1035.76 1023.33 1035.76 1020.76C1035.76 1018.47 1037.88 1016.87 1041.42 1016.87H1050.44V1018.11C1050.44 1022.36 1047.08 1025.36 1041.95 1025.36ZM1050.44 1034.21H1062.46V1008.21C1062.46 997.509 1057.16 991.319 1044.42 991.319C1031.42 991.319 1026.3 997.597 1025.23 1006.35L1036.55 1007.94C1037.35 1003.08 1039.91 1001.31 1043.89 1001.31C1048.49 1001.31 1050.44 1003.79 1050.44 1008.3V1010.07H1039.56C1028.51 1010.07 1024 1015.28 1024 1022.89C1024 1031.11 1029.48 1035.09 1036.73 1035.09C1043.8 1035.09 1048.4 1031.11 1050.26 1023.95H1050.44V1034.21Z" fill="white"/>
<path d="M1079.23 980H1067.12V1034.21H1079.23V980Z" fill="white"/>
<path d="M1110.57 1034.21H1122.6V992.291H1110.57V1016.87C1110.57 1021.74 1107.74 1024.57 1102.88 1024.57C1097.84 1024.57 1095.89 1021.21 1095.89 1016.87V992.291H1083.78V1020.32C1083.78 1029.43 1087.67 1035.44 1096.78 1035.44C1103.5 1035.44 1108.45 1032.08 1110.39 1022.53H1110.57V1034.21Z" fill="white"/>
<path d="M1147.2 1001.13C1152.59 1001.13 1155.33 1003.96 1155.69 1009.53H1138C1138.8 1003.61 1141.89 1001.13 1147.2 1001.13ZM1147.37 1035.36C1158.87 1035.36 1164.35 1029.52 1166.39 1021.91L1155.95 1019C1154.98 1022.27 1153.12 1025.01 1147.55 1025.01C1141.89 1025.01 1138.71 1022.36 1137.91 1016.34H1166.56C1166.74 1014.04 1166.74 1012.63 1166.74 1010.77C1166.74 999.365 1160.46 991.142 1147.55 991.142C1133.93 991.142 1125.89 999.631 1125.89 1014.13C1125.89 1028.1 1134.73 1035.36 1147.37 1035.36Z" fill="white"/>
<path d="M978.383 1060.8H993.681V1101.83H1006.41V1060.8H1021.62V1048.78H978.383V1060.8Z" fill="white"/>
<path d="M1040.54 1068.76C1045.94 1068.76 1048.68 1071.59 1049.03 1077.16H1031.35C1032.14 1071.24 1035.24 1068.76 1040.54 1068.76ZM1040.72 1102.98C1052.22 1102.98 1057.7 1097.15 1059.73 1089.54L1049.3 1086.62C1048.33 1089.89 1046.47 1092.64 1040.9 1092.64C1035.24 1092.64 1032.06 1089.98 1031.26 1083.97H1059.91C1060.09 1081.67 1060.09 1080.26 1060.09 1078.4C1060.09 1066.99 1053.81 1058.77 1040.9 1058.77C1027.28 1058.77 1019.23 1067.26 1019.23 1081.76C1019.23 1095.73 1028.08 1102.98 1040.72 1102.98Z" fill="white"/>
<path d="M1092.14 1078.13L1103.81 1076.45C1102.13 1065.22 1096.65 1058.77 1083.47 1058.77C1070.3 1058.77 1061.72 1066.99 1061.72 1081.14C1061.72 1095.64 1070.47 1103.07 1083.74 1103.07C1096.3 1103.07 1102.4 1096.08 1103.81 1085.12L1092.23 1082.91C1091.17 1088.21 1089.04 1092.02 1083.47 1092.02C1077.81 1092.02 1074.1 1088.3 1074.1 1080.79C1074.1 1073.09 1077.99 1069.73 1083.38 1069.73C1088.78 1069.73 1091.17 1073.27 1092.14 1078.13Z" fill="white"/>
<path d="M1119.21 1077.25C1119.21 1072.47 1122.04 1069.65 1126.9 1069.65C1131.94 1069.65 1133.89 1072.92 1133.89 1077.25V1101.83H1145.91V1073.8C1145.91 1064.78 1142.11 1058.77 1133 1058.77C1126.28 1058.77 1121.24 1062.04 1119.3 1071.68H1119.21V1047.63H1107.09V1101.83H1119.21V1077.25Z" fill="white"/>
<path d="M1162.64 1077.25C1162.64 1072.47 1165.47 1069.65 1170.34 1069.65C1175.38 1069.65 1177.32 1072.92 1177.32 1077.25V1101.83H1189.35V1073.8C1189.35 1064.78 1185.55 1058.77 1176.44 1058.77C1169.72 1058.77 1164.68 1062.04 1162.73 1071.68H1162.64V1059.92H1150.53V1101.83H1162.64V1077.25Z" fill="white"/>
<path d="M1214.13 1103.07C1227.57 1103.07 1235.79 1094.67 1235.79 1080.88C1235.79 1066.9 1227.3 1058.77 1214.13 1058.77C1200.86 1058.77 1192.37 1066.9 1192.37 1080.88C1192.37 1094.67 1200.6 1103.07 1214.13 1103.07ZM1214.13 1069.73C1220.23 1069.73 1223.77 1074.07 1223.77 1080.79C1223.77 1087.6 1220.32 1092.02 1214.04 1092.02C1207.85 1092.02 1204.49 1087.6 1204.49 1080.79C1204.49 1074.07 1207.94 1069.73 1214.13 1069.73Z" fill="white"/>
<path d="M1251.07 1047.63H1238.96V1101.83H1251.07V1047.63Z" fill="white"/>
<path d="M1275.94 1103.07C1289.38 1103.07 1297.6 1094.67 1297.6 1080.88C1297.6 1066.9 1289.11 1058.77 1275.94 1058.77C1262.67 1058.77 1254.18 1066.9 1254.18 1080.88C1254.18 1094.67 1262.41 1103.07 1275.94 1103.07ZM1275.94 1069.73C1282.04 1069.73 1285.57 1074.07 1285.57 1080.79C1285.57 1087.6 1282.12 1092.02 1275.85 1092.02C1269.66 1092.02 1266.3 1087.6 1266.3 1080.79C1266.3 1074.07 1269.75 1069.73 1275.94 1069.73Z" fill="white"/>
<path d="M1317.94 1069.65C1323.25 1069.65 1325.55 1071.68 1325.55 1075.04C1325.55 1078.22 1323.6 1080.34 1318.03 1080.34C1312.46 1080.34 1310.6 1078.13 1310.6 1075.04C1310.6 1071.86 1312.46 1069.65 1317.94 1069.65ZM1318.47 1106.52C1308.57 1106.52 1306.63 1105.55 1306.63 1102.89C1306.63 1101.21 1308.39 1099.71 1311.84 1099.71H1327.32C1330.15 1099.71 1331.12 1100.95 1331.12 1102.54C1331.12 1105.28 1329 1106.52 1318.47 1106.52ZM1318.74 1115.1C1334.75 1115.19 1340.4 1110.41 1340.4 1102.54C1340.4 1095.64 1336.6 1091.31 1326.96 1091.31C1322.54 1091.31 1317.5 1091.75 1312.55 1091.75C1310.34 1091.75 1309.45 1091.22 1309.45 1089.81C1309.45 1089.28 1309.72 1088.75 1310.07 1088.04L1310.69 1087.07C1312.82 1087.6 1315.2 1087.86 1317.94 1087.86C1329.26 1087.86 1335.72 1084.41 1335.72 1077.52C1335.72 1072.65 1332.27 1070.79 1327.85 1069.91L1327.94 1069.82C1330.5 1069.91 1332.53 1070 1334.39 1070H1339.17V1059.92H1318.21C1306.71 1059.92 1299.82 1065.14 1299.82 1074.16C1299.82 1080.7 1303.44 1085.03 1309.9 1086.89L1306.54 1087.95C1302.38 1089.1 1300.52 1091.58 1300.52 1093.96C1300.52 1096.97 1302.73 1099.18 1308.04 1099.62C1301.32 1100.42 1297.61 1103.16 1297.61 1106.78C1297.61 1111.91 1302.12 1115.19 1318.74 1115.1Z" fill="white"/>
<path d="M1346.48 1116.07C1357 1116.07 1362.48 1111.82 1366.46 1101.57L1382.73 1059.92H1369.73L1365.49 1075.57C1364.43 1079.46 1363.19 1083.71 1361.86 1088.13H1361.15C1359.83 1083.71 1358.41 1079.2 1357.26 1075.3L1352.31 1059.92H1339.14L1354.96 1101.13C1353.11 1105.37 1350.99 1105.99 1346.65 1105.99C1344.88 1105.99 1343.12 1105.72 1341.26 1105.37L1339.84 1115.54C1341.97 1115.8 1343.65 1116.07 1346.48 1116.07Z" fill="white"/>
<path d="M1020.37 1155.59V1149.49H995.695V1132.07H1023.46V1125.97H989.328V1179.03H995.695V1155.59H1020.37Z" fill="white"/>
<path d="M1047.51 1180C1060.42 1180 1068.2 1171.69 1068.2 1158.34C1068.2 1144.9 1059.72 1136.94 1047.51 1136.94C1035.31 1136.94 1026.82 1144.9 1026.82 1158.34C1026.82 1171.69 1034.51 1180 1047.51 1180ZM1047.51 1142.6C1056.53 1142.6 1062.1 1148.61 1062.1 1158.25C1062.1 1167.89 1056.8 1174.34 1047.42 1174.34C1038.05 1174.34 1032.92 1167.89 1032.92 1158.25C1032.92 1148.61 1038.49 1142.6 1047.51 1142.6Z" fill="white"/>
<path d="M1102.96 1179.03H1108.97V1137.91H1102.96V1162.4C1102.96 1170.01 1098.09 1174.43 1090.31 1174.43C1081.91 1174.43 1079.35 1168.51 1079.35 1162.4V1137.91H1073.25V1163.82C1073.25 1172.57 1076.87 1180 1088.19 1180C1095.53 1180 1101.1 1176.02 1102.87 1168.06H1102.96V1179.03Z" fill="white"/>
<path d="M1123.31 1154.53C1123.31 1146.93 1128.09 1142.51 1135.96 1142.51C1144.36 1142.51 1146.92 1148.43 1146.92 1154.53V1179.03H1153.02V1153.21C1153.02 1144.36 1149.4 1136.94 1138.08 1136.94C1130.65 1136.94 1125.17 1140.92 1123.4 1148.96H1123.31V1137.91H1117.21V1179.03H1123.31V1154.53Z" fill="white"/>
<path d="M1177.62 1174.43C1168.51 1174.43 1164.18 1168.68 1164.18 1158.6C1164.18 1148.34 1168.78 1142.42 1177.62 1142.42C1186.29 1142.42 1191.77 1148.7 1191.77 1158.25V1158.78C1191.77 1168.86 1186.29 1174.43 1177.62 1174.43ZM1191.77 1179.03H1197.87V1124.82H1191.77V1150.55H1191.68C1190.09 1142.42 1185.23 1136.85 1175.5 1136.94C1164.62 1136.85 1158.08 1145.16 1158.08 1158.51C1158.08 1171.69 1164.18 1180 1175.77 1180C1184.96 1180 1190 1174.61 1191.68 1166.56H1191.77V1179.03Z" fill="white"/>
<path d="M1219.14 1174.7C1212.69 1174.7 1210.39 1171.25 1210.39 1167.89C1210.39 1163.55 1213.57 1161.25 1219.32 1161.25H1232.94V1163.91C1232.94 1170.1 1227.72 1174.7 1219.14 1174.7ZM1232.94 1179.03H1238.95V1153.38C1238.95 1142.86 1234.09 1137.03 1223.03 1137.03C1212.95 1137.03 1207.12 1142.15 1205.7 1152.06L1211.54 1153.03C1212.78 1145.43 1216.31 1142.33 1222.86 1142.33C1230.29 1142.33 1232.94 1146.31 1232.94 1153.56V1156.3H1218.7C1209.06 1156.3 1204.38 1161.61 1204.38 1168.42C1204.38 1176.11 1209.5 1179.91 1217.82 1179.91C1225.07 1179.91 1230.9 1176.2 1232.85 1168.42H1232.94V1179.03Z" fill="white"/>
<path d="M1249.12 1167C1249.12 1174.61 1252.83 1180 1261.06 1180C1264.51 1180 1266.81 1179.56 1269.55 1178.67L1268.66 1173.1C1266.27 1173.81 1264.42 1174.16 1262.12 1174.16C1257.17 1174.16 1255.22 1171.6 1255.22 1166.47V1143.3H1269.1V1137.91H1255.22V1126.15H1249.12V1137.91H1242.49V1143.3H1249.12V1167Z" fill="white"/>
<path d="M1281.87 1130.84V1124.82H1274.45V1130.84H1281.87ZM1281.25 1179.03V1137.91H1275.15V1179.03H1281.25Z" fill="white"/>
<path d="M1308.37 1180C1321.28 1180 1329.06 1171.69 1329.06 1158.34C1329.06 1144.9 1320.57 1136.94 1308.37 1136.94C1296.17 1136.94 1287.68 1144.9 1287.68 1158.34C1287.68 1171.69 1295.37 1180 1308.37 1180ZM1308.37 1142.6C1317.39 1142.6 1322.96 1148.61 1322.96 1158.25C1322.96 1167.89 1317.65 1174.34 1308.28 1174.34C1298.91 1174.34 1293.78 1167.89 1293.78 1158.25C1293.78 1148.61 1299.35 1142.6 1308.37 1142.6Z" fill="white"/>
<path d="M1340.64 1154.53C1340.64 1146.93 1345.42 1142.51 1353.29 1142.51C1361.69 1142.51 1364.25 1148.43 1364.25 1154.53V1179.03H1370.36V1153.21C1370.36 1144.36 1366.73 1136.94 1355.41 1136.94C1347.98 1136.94 1342.5 1140.92 1340.73 1148.96H1340.64V1137.91H1334.54V1179.03H1340.64V1154.53Z" fill="white"/>
<path d="M888.703 1114.52L888.703 1114.52C880.712 1122.66 872.724 1130.8 864.739 1138.95C864.385 1139.31 864.031 1139.67 863.677 1140.03C862.615 1141.12 861.554 1142.2 860.482 1143.27L860.482 1143.27C859.649 1144.12 858.657 1144.79 857.562 1145.26C856.468 1145.72 855.293 1145.96 854.105 1145.96C852.917 1145.97 851.741 1145.73 850.643 1145.28C849.544 1144.83 848.547 1144.16 847.707 1143.32L847.707 1143.32C839.899 1135.67 832.09 1128.01 824.28 1120.36L824.192 1120.45L824.28 1120.36C822.192 1118.32 821.151 1115.94 821.136 1113.55C821.121 1111.17 822.132 1108.77 824.175 1106.7C836.276 1094.4 848.366 1082.09 860.444 1069.77C868.346 1061.72 876.248 1053.66 884.148 1045.61C885.039 1044.7 885.927 1043.79 886.814 1042.88C888.441 1041.21 890.067 1039.54 891.712 1037.89C896.021 1033.58 902.538 1033.55 906.912 1037.83L906.999 1037.74L906.912 1037.83C914.072 1044.83 921.227 1051.84 928.378 1058.85L928.379 1058.85C930.133 1060.53 931.245 1062.77 931.525 1065.18L931.525 1065.18L931.526 1065.19C931.566 1065.4 931.621 1065.61 931.689 1065.82L931.697 1067.3C931.679 1067.39 931.662 1067.47 931.644 1067.55C931.262 1069.35 930.884 1071.13 929.686 1072.55C928.36 1074.11 926.94 1075.58 925.513 1077.05C913.246 1089.54 900.977 1102.03 888.703 1114.52ZM865.397 1112.73L855.777 1103.21L868.327 1090.66C869.54 1091.87 870.757 1093.09 871.98 1094.31C873.895 1096.23 875.824 1098.16 877.775 1100.11L877.865 1100.2L877.953 1100.11L910.783 1066.67L910.871 1066.58L910.781 1066.49L899.53 1055.48L899.44 1055.39L899.353 1055.48L842.906 1113.02L842.821 1113.1L842.905 1113.19L853.771 1124.58L853.86 1124.68L853.951 1124.59L865.398 1112.91L865.485 1112.82L865.397 1112.73ZM840.077 1085.56L809.705 1054.83L809.617 1054.74L809.528 1054.83L798.59 1065.77L798.501 1065.86L798.59 1065.94L828.484 1095.82L815.635 1108.67C815.557 1108.47 815.45 1108.29 815.317 1108.13L815.318 1108.13L815.309 1108.12C804.255 1097.05 793.193 1085.99 782.123 1074.93C776.792 1069.6 776.792 1062.02 782.123 1056.7L782.123 1056.7L791.242 1047.58L800.36 1038.47C800.36 1038.47 800.36 1038.47 800.36 1038.47C805.683 1033.15 813.397 1033.23 818.672 1038.61C822.344 1042.35 826.032 1046.08 829.72 1049.81C831.655 1051.76 833.591 1053.72 835.524 1055.68C840.739 1060.96 845.912 1066.21 851.101 1071.47L852.302 1072.68L852.302 1072.68L852.305 1072.69C852.348 1072.73 852.389 1072.77 852.427 1072.82L840.077 1085.56Z" fill="white" stroke="#131313" stroke-width="0.25"/>
</svg>
