<svg width="2160" height="2160" viewBox="0 0 2160 2160" fill="none" xmlns="http://www.w3.org/2000/svg">
<rect width="2160" height="2160" fill="#0E1316"/>
<path d="M1137.34 1043.63C1129.93 1043.53 1122.63 1043.43 1115.22 1043.33C1114.67 1043.33 1114.12 1043.33 1113.67 1043.33C1111.79 1043.23 1111.68 1043.13 1111.46 1041.52C1110.91 1038.91 1110.47 1036.39 1109.8 1033.78C1109.14 1030.97 1108.03 1028.25 1106.6 1025.74C1105.6 1023.93 1104.49 1022.12 1103.17 1020.51C1097.86 1014.18 1090.45 1012.06 1081.82 1014.78C1076.96 1016.29 1073.31 1019.4 1070.32 1023.22C1067 1027.65 1064.9 1032.47 1063.35 1037.6C1061.58 1043.33 1060.59 1049.26 1059.93 1055.2C1058.38 1069.37 1058.49 1083.65 1059.37 1097.82C1059.93 1106.57 1061.25 1115.22 1064.02 1123.56C1065.23 1127.38 1066.78 1131 1068.99 1134.42C1070.76 1137.24 1072.98 1139.75 1075.74 1141.86C1078.84 1144.17 1082.38 1145.68 1086.36 1146.18C1091.33 1146.89 1095.76 1145.78 1099.52 1142.77C1102.17 1140.65 1104.05 1138.14 1105.71 1135.43C1108.59 1130.5 1110.25 1125.27 1111.35 1119.84C1112.35 1114.92 1111.57 1115.72 1116.99 1115.62C1131.48 1115.42 1145.86 1115.32 1160.34 1115.12C1161.01 1115.12 1161.67 1115.12 1162.34 1115.12C1163 1115.12 1163.33 1115.52 1163.33 1116.02C1163.33 1116.63 1163.33 1117.23 1163.22 1117.83C1161.56 1129.39 1158.35 1140.55 1153.05 1151.11C1149.06 1158.95 1144.09 1166.29 1137.67 1172.63C1127.83 1182.38 1116 1189.22 1101.51 1191.63C1073.53 1196.25 1050.08 1189.32 1032.06 1168.81C1024.54 1160.26 1019.34 1150.41 1015.47 1140.15C1011.37 1129.39 1008.83 1118.33 1007.17 1107.07C1005.4 1094.51 1004.96 1081.84 1005.84 1069.17C1007.17 1049.67 1011.15 1030.56 1019.89 1012.57C1023.65 1004.62 1028.41 997.184 1034.49 990.548C1043.45 980.595 1054.51 973.255 1068.22 969.736C1085.14 965.413 1101.73 966.016 1117.77 972.954C1128.05 977.377 1136.35 984.114 1143.2 992.358C1151.72 1002.71 1157.14 1014.48 1160.34 1027.04C1161.67 1032.07 1162.56 1037.1 1162.89 1042.23C1163 1043.73 1162.78 1043.93 1161.12 1043.93C1153.27 1043.93 1145.3 1043.93 1137.45 1043.93C1137.34 1043.83 1137.34 1043.73 1137.34 1043.63Z" fill="#F6EBDE"/>
<path d="M996.23 1078.52C996.451 1086.67 996.119 1095.21 995.345 1103.76C994.018 1118.34 991.474 1132.61 985.944 1146.49C983.622 1152.22 980.857 1157.75 977.208 1162.88C973.447 1168.31 968.913 1173.03 963.273 1176.85C956.084 1181.78 947.9 1184.49 938.942 1185.2C930.205 1185.9 921.579 1185.1 913.284 1182.58C902.004 1179.26 892.824 1173.03 885.415 1164.59C878.447 1156.64 873.692 1147.7 870.042 1138.14C866.503 1128.79 864.181 1119.04 862.743 1109.29C860.973 1097.53 860.199 1085.76 860.642 1073.9C861.305 1056.71 864.181 1039.92 870.816 1023.83C874.798 1014.08 880.217 1004.93 887.737 996.986C898.133 986.027 911.183 979.492 926.887 977.381C933.191 976.576 939.384 976.476 945.688 977.682C954.425 979.291 961.835 983.111 968.249 988.742C973.337 993.366 977.208 998.695 980.525 1004.43C985.281 1012.87 988.378 1021.82 990.7 1031.07C993.354 1041.73 994.903 1052.48 995.677 1063.34C996.009 1068.17 996.23 1073.09 996.23 1078.52Z" fill="#F6EBDE"/>
<path d="M1216.42 1140.86C1216.2 1141.66 1215.87 1142.27 1215.76 1142.97C1214.65 1149.81 1213.54 1156.64 1212.33 1163.48C1211.33 1169.61 1210.34 1175.75 1209.23 1181.88C1209.01 1183.39 1208.9 1183.49 1207.24 1183.59C1200.27 1184.09 1193.42 1184.59 1186.45 1185.1C1180.92 1185.5 1175.5 1185.8 1169.97 1186.2C1169.75 1186.2 1169.42 1186.3 1169.2 1186.3C1167.87 1186.4 1167.43 1186 1167.65 1184.9C1168.42 1180.67 1169.2 1176.45 1170.08 1172.23C1172.07 1161.67 1174.06 1151.11 1176.16 1140.46C1178.15 1130.1 1180.15 1119.75 1182.14 1109.39C1184.13 1099.14 1186.01 1088.98 1188 1078.73C1189.99 1068.57 1191.87 1058.52 1193.86 1048.36C1195.85 1038.11 1197.84 1027.95 1199.83 1017.7C1201.82 1007.74 1203.7 997.691 1205.69 987.737C1206.13 985.425 1206.58 983.012 1207.02 980.699C1207.35 979.091 1207.68 978.89 1209.34 978.99C1220.51 979.795 1231.57 980.699 1242.63 982.006C1249.38 982.811 1256.23 983.515 1262.98 984.218C1264.86 984.419 1264.86 984.52 1265.19 986.129C1267.85 998.696 1270.5 1011.16 1273.15 1023.73C1276.14 1037.81 1279.13 1051.88 1282.22 1065.86C1285.21 1079.63 1288.31 1093.51 1291.29 1107.28C1294.83 1123.16 1298.37 1139.05 1301.91 1154.94C1303.02 1159.86 1304.23 1164.69 1305.34 1169.61C1305.45 1170.12 1305.56 1170.52 1305.56 1171.02C1305.67 1172.13 1305.45 1172.53 1304.12 1172.73C1300.91 1173.23 1297.6 1173.74 1294.39 1174.14C1285.21 1175.34 1275.92 1176.55 1266.74 1177.66C1265.86 1177.76 1264.86 1177.86 1263.98 1177.86C1262.65 1177.96 1262.32 1177.76 1262.1 1176.55C1261.32 1172.43 1260.55 1168.31 1259.66 1164.18C1258.11 1156.04 1256.57 1148 1255.02 1139.85C1254.69 1138.45 1254.57 1138.35 1252.92 1138.35C1248.49 1138.55 1243.96 1138.85 1239.53 1139.15C1232.46 1139.55 1225.38 1139.95 1218.3 1140.36C1217.64 1140.66 1217.08 1140.76 1216.42 1140.86Z" fill="#F6EBDE"/>
<path d="M810.872 1121.25C811.756 1113.01 812.531 1104.87 813.415 1096.62C814.189 1089.28 815.185 1081.94 816.18 1074.6C817.065 1067.46 817.95 1060.33 818.834 1053.29C819.83 1045.45 820.714 1037.6 821.71 1029.76C822.373 1024.53 822.926 1019.31 823.59 1014.08C824.254 1008.85 824.806 1003.62 825.47 998.394C825.581 997.79 825.691 997.187 825.802 996.584C825.912 995.78 826.465 995.377 827.35 995.176C829.009 994.875 830.668 994.674 832.437 994.372C842.391 992.964 852.455 991.557 862.408 990.149C862.961 990.049 863.404 990.049 863.957 990.049C864.399 990.049 864.62 990.35 864.62 990.753C864.62 991.557 864.51 992.462 864.399 993.266C862.63 1003.92 860.86 1014.48 859.091 1025.14C857.432 1035.19 855.662 1045.14 853.893 1055.2C852.234 1065.15 850.575 1075.01 848.805 1084.96C847.146 1094.61 845.377 1104.26 843.718 1113.91C842.059 1123.47 840.4 1133.02 838.631 1142.57C837.082 1151.01 835.534 1159.56 833.986 1168C833.765 1169.31 833.543 1169.51 832.216 1169.31C828.456 1168.81 824.696 1168.21 820.936 1167.6C810.319 1165.79 799.812 1163.88 789.195 1161.97C788.974 1161.97 788.642 1161.87 788.421 1161.87C785.435 1161.27 785.435 1161.27 784.882 1158.55C782.007 1143.47 779.131 1128.49 776.256 1113.41C773.491 1099.44 770.726 1085.46 767.851 1071.49C764.643 1055.6 761.326 1039.82 758.118 1024.03C757.234 1019.81 756.238 1015.59 755.353 1011.36C755.132 1010.56 755.132 1009.75 755.022 1008.85C754.911 1008.45 755.243 1008.15 755.575 1008.05C756.57 1007.74 757.565 1007.54 758.671 1007.34C769.841 1005.23 781.011 1003.12 792.181 1001.01C792.402 1001.01 792.734 1000.91 792.955 1000.91C793.951 1000.81 794.393 1001.01 794.504 1002.01C795.057 1005.33 795.499 1008.65 795.941 1011.97C796.937 1018.8 797.822 1025.74 798.817 1032.58C799.702 1039.11 800.586 1045.65 801.471 1052.08C802.356 1058.92 803.351 1065.86 804.236 1072.69C804.9 1078.12 805.674 1083.65 806.227 1089.08C807.001 1096.22 807.664 1103.36 808.439 1110.5C808.881 1115.02 809.213 1119.54 809.544 1124.07C811.646 1123.87 809.876 1122.06 810.872 1121.25Z" fill="#F6EBDE"/>
<path d="M1357.21 1132.41C1357.54 1132.51 1357.76 1132.61 1358.09 1132.61C1364.84 1131.81 1371.58 1131.1 1378.44 1130.3C1386.51 1129.29 1394.59 1128.19 1402.66 1127.18C1403.66 1127.08 1404.1 1127.48 1403.99 1128.39C1403.77 1130.9 1403.43 1133.42 1403.1 1135.83C1402.33 1141.86 1401.66 1147.89 1400.89 1153.93C1400.67 1155.74 1400.56 1155.84 1398.57 1156.24C1391.05 1157.75 1383.42 1159.15 1375.9 1160.56C1361.63 1163.18 1347.36 1165.69 1332.99 1168.2C1328.89 1168.91 1324.69 1169.51 1320.6 1170.21C1319.49 1170.41 1319.16 1170.11 1319.05 1169.11C1319.05 1168.2 1319.05 1167.2 1319.05 1166.19C1319.05 1110.09 1319.05 1053.89 1319.05 997.787C1319.05 997.083 1319.05 996.379 1319.05 995.675C1319.05 993.464 1319.27 993.263 1321.82 993.665C1332.32 995.273 1342.72 996.882 1353.22 998.692C1357.32 999.395 1356.87 998.893 1356.87 1002.71C1356.87 1044.54 1356.87 1086.26 1356.87 1128.09C1356.87 1129.7 1356.54 1131.1 1357.21 1132.41Z" fill="#F6EBDE"/>
<path d="M904.215 1079.63C904.325 1070.48 904.547 1061.43 905.653 1052.39C906.537 1045.65 907.754 1038.91 910.298 1032.48C911.735 1028.86 913.394 1025.44 916.048 1022.42C918.703 1019.31 922.02 1017.2 926.444 1016.39C930.757 1015.59 934.518 1016.59 937.835 1019.01C940.268 1020.82 942.038 1023.23 943.586 1025.74C946.13 1030.07 947.678 1034.79 948.895 1039.52C950.775 1047.06 951.77 1054.8 952.323 1062.54C953.319 1076.92 952.434 1091.19 951.217 1105.47C950.554 1113.51 949.227 1121.56 946.683 1129.4C945.688 1132.41 944.471 1135.23 942.923 1138.05C941.927 1139.75 940.711 1141.26 939.273 1142.77C934.739 1147.29 928.767 1147.5 923.79 1145.49C920.693 1144.28 918.371 1142.17 916.38 1139.75C913.726 1136.44 911.956 1132.72 910.519 1128.9C908.528 1123.47 907.311 1117.84 906.427 1112.21C904.657 1101.25 904.436 1090.39 904.215 1079.63Z" fill="#0E1316"/>
<path d="M1235.89 1022.31C1239.65 1047.55 1243.63 1072.78 1248.27 1097.92C1247.5 1098.12 1247.06 1098.22 1246.72 1098.22C1239.09 1098.32 1231.46 1098.52 1223.94 1098.62C1222.84 1098.62 1222.5 1098.32 1222.61 1097.42C1222.95 1095.3 1223.28 1093.19 1223.61 1091.08C1225.82 1077.61 1228.25 1064.24 1230.36 1050.77C1231.9 1040.81 1233.23 1030.96 1234.67 1021.01C1236.11 1020.6 1235.33 1022.01 1235.89 1022.31Z" fill="#0E1316"/>
</svg>
