<svg width="2160" height="2160" viewBox="0 0 2160 2160" fill="none" xmlns="http://www.w3.org/2000/svg">
<rect width="2160" height="2160" fill="#0E1316"/>
<path d="M1137.34 1043.63C1129.93 1043.53 1122.63 1043.43 1115.22 1043.33C1114.67 1043.33 1114.12 1043.33 1113.67 1043.33C1111.79 1043.23 1111.68 1043.13 1111.46 1041.52C1110.91 1038.91 1110.47 1036.39 1109.8 1033.78C1109.14 1030.97 1108.03 1028.25 1106.6 1025.74C1105.6 1023.93 1104.49 1022.12 1103.17 1020.51C1097.86 1014.18 1090.45 1012.06 1081.82 1014.78C1076.96 1016.29 1073.31 1019.4 1070.32 1023.22C1067 1027.65 1064.9 1032.47 1063.35 1037.6C1061.58 1043.33 1060.59 1049.26 1059.93 1055.2C1058.38 1069.37 1058.49 1083.65 1059.37 1097.82C1059.93 1106.57 1061.25 1115.22 1064.02 1123.56C1065.23 1127.38 1066.78 1131 1068.99 1134.42C1070.76 1137.24 1072.98 1139.75 1075.74 1141.86C1078.84 1144.17 1082.38 1145.68 1086.36 1146.18C1091.33 1146.89 1095.76 1145.78 1099.52 1142.77C1102.17 1140.65 1104.05 1138.14 1105.71 1135.43C1108.59 1130.5 1110.25 1125.27 1111.35 1119.84C1112.35 1114.92 1111.57 1115.72 1116.99 1115.62C1131.48 1115.42 1145.86 1115.32 1160.34 1115.12C1161.01 1115.12 1161.67 1115.12 1162.34 1115.12C1163 1115.12 1163.33 1115.52 1163.33 1116.02C1163.33 1116.63 1163.33 1117.23 1163.22 1117.83C1161.56 1129.39 1158.35 1140.55 1153.05 1151.11C1149.06 1158.95 1144.09 1166.29 1137.67 1172.63C1127.83 1182.38 1116 1189.22 1101.51 1191.63C1073.53 1196.25 1050.08 1189.32 1032.06 1168.81C1024.54 1160.26 1019.34 1150.41 1015.47 1140.15C1011.37 1129.39 1008.83 1118.33 1007.17 1107.07C1005.4 1094.51 1004.96 1081.84 1005.84 1069.17C1007.17 1049.67 1011.15 1030.56 1019.89 1012.57C1023.65 1004.62 1028.41 997.184 1034.49 990.548C1043.45 980.595 1054.51 973.255 1068.22 969.736C1085.14 965.413 1101.73 966.016 1117.77 972.954C1128.05 977.377 1136.35 984.114 1143.2 992.358C1151.72 1002.71 1157.14 1014.48 1160.34 1027.04C1161.67 1032.07 1162.56 1037.1 1162.89 1042.23C1163 1043.73 1162.78 1043.93 1161.12 1043.93C1153.27 1043.93 1145.3 1043.93 1137.45 1043.93C1137.34 1043.83 1137.34 1043.73 1137.34 1043.63Z" fill="#F6EBDE"/>
<path d="M996.23 1078.52C996.451 1086.67 996.119 1095.21 995.345 1103.76C994.018 1118.34 991.474 1132.61 985.944 1146.49C983.622 1152.22 980.857 1157.75 977.208 1162.88C973.447 1168.31 968.913 1173.03 963.273 1176.85C956.084 1181.78 947.9 1184.49 938.942 1185.2C930.205 1185.9 921.579 1185.1 913.284 1182.58C902.004 1179.26 892.824 1173.03 885.415 1164.59C878.447 1156.64 873.692 1147.7 870.042 1138.14C866.503 1128.79 864.181 1119.04 862.743 1109.29C860.973 1097.53 860.199 1085.76 860.642 1073.9C861.305 1056.71 864.181 1039.92 870.816 1023.83C874.798 1014.08 880.217 1004.93 887.737 996.986C898.133 986.027 911.183 979.492 926.887 977.381C933.191 976.576 939.384 976.476 945.688 977.682C954.425 979.291 961.835 983.111 968.249 988.742C973.337 993.366 977.208 998.695 980.525 1004.43C985.281 1012.87 988.378 1021.82 990.7 1031.07C993.354 1041.73 994.903 1052.48 995.677 1063.34C996.009 1068.17 996.23 1073.09 996.23 1078.52Z" fill="#F6EBDE"/>
<path d="M1216.42 1140.86C1216.2 1141.66 1215.87 1142.27 1215.76 1142.97C1214.65 1149.81 1213.54 1156.64 1212.33 1163.48C1211.33 1169.61 1210.34 1175.75 1209.23 1181.88C1209.01 1183.39 1208.9 1183.49 1207.24 1183.59C1200.27 1184.09 1193.42 1184.59 1186.45 1185.1C1180.92 1185.5 1175.5 1185.8 1169.97 1186.2C1169.75 1186.2 1169.42 1186.3 1169.2 1186.3C1167.87 1186.4 1167.43 1186 1167.65 1184.9C1168.42 1180.67 1169.2 1176.45 1170.08 1172.23C1172.07 1161.67 1174.06 1151.11 1176.16 1140.46C1178.15 1130.1 1180.15 1119.75 1182.14 1109.39C1184.13 1099.14 1186.01 1088.98 1188 1078.73C1189.99 1068.57 1191.87 1058.52 1193.86 1048.36C1195.85 1038.11 1197.84 1027.95 1199.83 1017.7C1201.82 1007.74 1203.7 997.691 1205.69 987.737C1206.13 985.425 1206.58 983.012 1207.02 980.699C1207.35 979.091 1207.68 978.89 1209.34 978.99C1220.51 979.795 1231.57 980.699 1242.63 982.006C1249.38 982.811 1256.23 983.515 1262.98 984.218C1264.86 984.419 1264.86 984.52 1265.19 986.129C1267.85 998.696 1270.5 1011.16 1273.15 1023.73C1276.14 1037.81 1279.13 1051.88 1282.22 1065.86C1285.21 1079.63 1288.31 1093.51 1291.29 1107.28C1294.83 1123.16 1298.37 1139.05 1301.91 1154.94C1303.02 1159.86 1304.23 1164.69 1305.34 1169.61C1305.45 1170.12 1305.56 1170.52 1305.56 1171.02C1305.67 1172.13 1305.45 1172.53 1304.12 1172.73C1300.91 1173.23 1297.6 1173.74 1294.39 1174.14C1285.21 1175.34 1275.92 1176.55 1266.74 1177.66C1265.86 1177.76 1264.86 1177.86 1263.98 1177.86C1262.65 1177.96 1262.32 1177.76 1262.1 1176.55C1261.32 1172.43 1260.55 1168.31 1259.66 1164.18C1258.11 1156.04 1256.57 1148 1255.02 1139.85C1254.69 1138.45 1254.57 1138.35 1252.92 1138.35C1248.49 1138.55 1243.96 1138.85 1239.53 1139.15C1232.46 1139.55 1225.38 1139.95 1218.3 1140.36C1217.64 1140.66 1217.08 1140.76 1216.42 1140.86Z" fill="#F6EBDE"/>
<path d="M810.872 1121.25C811.756 1113.01 812.531 1104.87 813.415 1096.62C814.189 1089.28 815.185 1081.94 816.18 1074.6C817.065 1067.46 817.95 1060.33 818.834 1053.29C819.83 1045.45 820.714 1037.6 821.71 1029.76C822.373 1024.53 822.926 1019.31 823.59 1014.08C824.254 1008.85 824.806 1003.62 825.47 998.394C825.581 997.79 825.691 997.187 825.802 996.584C825.912 995.78 826.465 995.377 827.35 995.176C829.009 994.875 830.668 994.674 832.437 994.372C842.391 992.964 852.455 991.557 862.408 990.149C862.961 990.049 863.404 990.049 863.957 990.049C864.399 990.049 864.62 990.35 864.62 990.753C864.62 991.557 864.51 992.462 864.399 993.266C862.63 1003.92 860.86 1014.48 859.091 1025.14C857.432 1035.19 855.662 1045.14 853.893 1055.2C852.234 1065.15 850.575 1075.01 848.805 1084.96C847.146 1094.61 845.377 1104.26 843.718 1113.91C842.059 1123.47 840.4 1133.02 838.631 1142.57C837.082 1151.01 835.534 1159.56 833.986 1168C833.765 1169.31 833.543 1169.51 832.216 1169.31C828.456 1168.81 824.696 1168.21 820.936 1167.6C810.319 1165.79 799.812 1163.88 789.195 1161.97C788.974 1161.97 788.642 1161.87 788.421 1161.87C785.435 1161.27 785.435 1161.27 784.882 1158.55C782.007 1143.47 779.131 1128.49 776.256 1113.41C773.491 1099.44 770.726 1085.46 767.851 1071.49C764.643 1055.6 761.326 1039.82 758.118 1024.03C757.234 1019.81 756.238 1015.59 755.353 1011.36C755.132 1010.56 755.132 1009.75 755.022 1008.85C754.911 1008.45 755.243 1008.15 755.575 1008.05C756.57 1007.74 757.565 1007.54 758.671 1007.34C769.841 1005.23 781.011 1003.12 792.181 1001.01C792.402 1001.01 792.734 1000.91 792.955 1000.91C793.951 1000.81 794.393 1001.01 794.504 1002.01C795.057 1005.33 795.499 1008.65 795.941 1011.97C796.937 1018.8 797.822 1025.74 798.817 1032.58C799.702 1039.11 800.586 1045.65 801.471 1052.08C802.356 1058.92 803.351 1065.86 804.236 1072.69C804.9 1078.12 805.674 1083.65 806.227 1089.08C807.001 1096.22 807.664 1103.36 808.439 1110.5C808.881 1115.02 809.213 1119.54 809.544 1124.07C811.646 1123.87 809.876 1122.06 810.872 1121.25Z" fill="#F6EBDE"/>
<path d="M1357.21 1132.41C1357.54 1132.51 1357.76 1132.61 1358.09 1132.61C1364.84 1131.81 1371.58 1131.1 1378.44 1130.3C1386.51 1129.29 1394.59 1128.19 1402.66 1127.18C1403.66 1127.08 1404.1 1127.48 1403.99 1128.39C1403.77 1130.9 1403.43 1133.42 1403.1 1135.83C1402.33 1141.86 1401.66 1147.89 1400.89 1153.93C1400.67 1155.74 1400.56 1155.84 1398.57 1156.24C1391.05 1157.75 1383.42 1159.15 1375.9 1160.56C1361.63 1163.18 1347.36 1165.69 1332.99 1168.2C1328.89 1168.91 1324.69 1169.51 1320.6 1170.21C1319.49 1170.41 1319.16 1170.11 1319.05 1169.11C1319.05 1168.2 1319.05 1167.2 1319.05 1166.19C1319.05 1110.09 1319.05 1053.89 1319.05 997.787C1319.05 997.083 1319.05 996.379 1319.05 995.675C1319.05 993.464 1319.27 993.263 1321.82 993.665C1332.32 995.273 1342.72 996.882 1353.22 998.692C1357.32 999.395 1356.87 998.893 1356.87 1002.71C1356.87 1044.54 1356.87 1086.26 1356.87 1128.09C1356.87 1129.7 1356.54 1131.1 1357.21 1132.41Z" fill="#F6EBDE"/>
<path d="M904.215 1079.63C904.325 1070.48 904.547 1061.43 905.653 1052.39C906.537 1045.65 907.754 1038.91 910.298 1032.48C911.735 1028.86 913.394 1025.44 916.048 1022.42C918.703 1019.31 922.02 1017.2 926.444 1016.39C930.757 1015.59 934.518 1016.59 937.835 1019.01C940.268 1020.82 942.038 1023.23 943.586 1025.74C946.13 1030.07 947.678 1034.79 948.895 1039.52C950.775 1047.06 951.77 1054.8 952.323 1062.54C953.319 1076.92 952.434 1091.19 951.217 1105.47C950.554 1113.51 949.227 1121.56 946.683 1129.4C945.688 1132.41 944.471 1135.23 942.923 1138.05C941.927 1139.75 940.711 1141.26 939.273 1142.77C934.739 1147.29 928.767 1147.5 923.79 1145.49C920.693 1144.28 918.371 1142.17 916.38 1139.75C913.726 1136.44 911.956 1132.72 910.519 1128.9C908.528 1123.47 907.311 1117.84 906.427 1112.21C904.657 1101.25 904.436 1090.39 904.215 1079.63Z" fill="#131313"/>
<path d="M1235.89 1022.31C1239.65 1047.55 1243.63 1072.78 1248.27 1097.92C1247.5 1098.12 1247.06 1098.22 1246.72 1098.22C1239.09 1098.32 1231.46 1098.52 1223.94 1098.62C1222.84 1098.62 1222.5 1098.32 1222.61 1097.42C1222.95 1095.3 1223.28 1093.19 1223.61 1091.08C1225.82 1077.61 1228.25 1064.24 1230.36 1050.77C1231.9 1040.81 1233.23 1030.96 1234.67 1021.01C1236.11 1020.6 1235.33 1022.01 1235.89 1022.31Z" fill="#131313"/>
<path d="M810.031 1225.18C802.808 1225.18 795.881 1228.05 790.774 1233.16C785.666 1238.27 782.797 1245.19 782.797 1252.42C782.792 1255.78 783.411 1259.11 784.623 1262.25C784.623 1262.25 792.177 1301.02 799.882 1304.46C808.168 1308.16 814.233 1304.02 814.233 1304.02C819.318 1301.82 821.697 1294.94 822.493 1292.03C822.665 1291.42 822.782 1290.8 822.844 1290.18C823.162 1286.58 826.367 1278.57 826.367 1278.57L834.446 1264.35L834.763 1263.84C836.42 1260.26 837.275 1256.36 837.269 1252.42C837.269 1248.84 836.565 1245.3 835.196 1241.99C833.827 1238.69 831.821 1235.69 829.291 1233.16C826.762 1230.63 823.759 1228.62 820.455 1227.25C817.15 1225.89 813.608 1225.18 810.031 1225.18Z" fill="url(#paint0_linear_1436_361)"/>
<path d="M784.264 1262.07C783.051 1258.93 782.43 1255.6 782.434 1252.24C782.434 1245.01 785.303 1238.09 790.411 1232.98C795.519 1227.87 802.448 1225 809.671 1225C813.248 1225 816.79 1225.7 820.095 1227.07C823.399 1228.44 826.401 1230.45 828.93 1232.98C831.459 1235.51 833.465 1238.51 834.834 1241.81C836.202 1245.12 836.906 1248.66 836.906 1252.24C836.906 1256.32 834.507 1262.85 832.891 1266.32" stroke="#212B32" stroke-width="4" stroke-miterlimit="10"/>
<path d="M792.578 1256.87C792.561 1256.57 792.555 1256.26 792.555 1255.95C792.555 1251.49 794.33 1247.2 797.489 1244.04C800.648 1240.88 804.933 1239.1 809.402 1239.1C813.871 1239.1 818.157 1240.88 821.317 1244.04C824.477 1247.2 826.252 1251.48 826.252 1255.95C826.257 1259.3 825.26 1262.58 823.389 1265.36" stroke="#212B32" stroke-width="4" stroke-miterlimit="10"/>
<path d="M799.586 1263.04C800.608 1261.52 802.088 1260.38 803.811 1259.77C805.533 1259.16 807.405 1259.12 809.152 1259.65C810.899 1260.19 812.429 1261.27 813.515 1262.74C814.602 1264.2 815.189 1265.98 815.189 1267.81C815.18 1268.43 815.109 1269.04 814.978 1269.64" stroke="#212B32" stroke-width="4" stroke-miterlimit="10"/>
<path d="M814.99 1269.52C813.318 1274.17 807.868 1284.38 802.261 1288.72H802.244C801.714 1289.12 801.049 1289.31 800.385 1289.24C799.722 1289.17 799.11 1288.85 798.675 1288.34C798.277 1287.88 797.922 1287.39 797.614 1286.86C795.336 1282.99 796.444 1278.88 796.715 1277.96" stroke="#212B32" stroke-width="4" stroke-miterlimit="10"/>
<path d="M833.039 1265.99L826.013 1278.39C826.013 1278.39 822.809 1286.42 822.487 1289.99C822.433 1290.62 822.321 1291.24 822.153 1291.85C821.353 1294.76 818.978 1301.64 813.893 1303.84C813.073 1304.24 805.038 1308.03 799.542 1304.28C797.374 1302.81 795.905 1300.36 795.601 1299.86C793.594 1296.53 792.684 1292.16 792.684 1292.16" stroke="#212B32" stroke-width="4" stroke-miterlimit="10"/>
<path d="M1181 1277.07C1181 1277.07 1183.55 1275.37 1187.4 1272.93C1197.15 1266.76 1215.23 1255.82 1221.16 1255.64L1226.03 1256.13L1231.89 1259.04L1234.81 1260.25L1238.21 1260.01L1241.13 1258.3L1243.81 1256.84L1249.17 1255.87L1255.01 1256.84L1261.8 1259.77L1267.4 1262.45L1279.57 1269.02L1289.55 1276.32L1288.82 1279.73L1280.56 1292.39L1271.79 1300.66L1263.52 1306.26L1255.24 1310.64L1246.72 1313.05L1234.07 1315L1223.11 1313.05L1208.51 1306.97L1201.45 1301.37L1194.15 1296.01L1181 1277.07Z" fill="url(#paint1_linear_1436_361)"/>
<path d="M1183.88 1279.93C1183.56 1279.47 1183.33 1278.95 1183.22 1278.4C1183.11 1277.86 1183.1 1277.29 1183.21 1276.74C1183.32 1276.19 1183.54 1275.67 1183.86 1275.21C1184.17 1274.74 1184.58 1274.35 1185.05 1274.04L1187.83 1272.27C1197.3 1266.27 1214.66 1255.75 1221.07 1255.02C1221.36 1254.99 1221.66 1254.99 1221.95 1255.02L1225.69 1255.4C1226.2 1255.44 1226.69 1255.58 1227.14 1255.8L1232.17 1258.31C1232.26 1258.35 1232.34 1258.39 1232.43 1258.43L1234.3 1259.21C1234.91 1259.46 1235.56 1259.57 1236.21 1259.52L1237.66 1259.42C1238.3 1259.37 1238.91 1259.18 1239.47 1258.86L1241.55 1257.65L1243.63 1256.51C1244.02 1256.3 1244.45 1256.15 1244.89 1256.07L1248.87 1255.35C1249.34 1255.27 1249.82 1255.27 1250.3 1255.35L1254.92 1256.12C1255.25 1256.17 1255.58 1256.27 1255.88 1256.4L1262.24 1259.12L1267.83 1261.8L1279.75 1268.24C1279.92 1268.33 1280.08 1268.43 1280.24 1268.54L1287.8 1274.07C1288.45 1274.55 1288.94 1275.2 1289.23 1275.96C1289.51 1276.71 1289.58 1277.53 1289.41 1278.32C1289.3 1278.82 1289.1 1279.3 1288.82 1279.73L1281.24 1291.32C1281.06 1291.6 1280.85 1291.85 1280.61 1292.07L1272.45 1299.78C1272.29 1299.93 1272.11 1300.06 1271.93 1300.18L1264.12 1305.46C1263.99 1305.55 1263.86 1305.62 1263.72 1305.7L1256.02 1309.77C1255.77 1309.9 1255.5 1310.01 1255.22 1310.09L1247.37 1312.33C1247.21 1312.38 1247.03 1312.42 1246.86 1312.44L1235.15 1314.24C1234.7 1314.32 1234.23 1314.32 1233.78 1314.24L1223.96 1312.5C1223.66 1312.44 1223.37 1312.36 1223.09 1312.24L1209.44 1306.55C1209.09 1306.4 1208.76 1306.21 1208.46 1305.97L1201.85 1300.74L1195.11 1295.8C1194.74 1295.53 1194.42 1295.19 1194.15 1294.81L1183.88 1279.93Z" stroke="#212B32" stroke-width="4" stroke-miterlimit="10"/>
<path d="M1185.88 1277.12C1185.14 1276.22 1217.99 1268.68 1217.99 1268.68C1217.99 1268.68 1236.7 1276.75 1253.58 1268.13L1286.24 1277.3C1286.24 1277.3 1271.19 1298.22 1240.55 1300.42C1240.55 1300.43 1208.26 1304.46 1185.88 1277.12Z" stroke="#212B32" stroke-width="4" stroke-miterlimit="10"/>
<path d="M1100.17 1278.23C1100.17 1278.23 1092.38 1272.11 1087.33 1279.24C1087.33 1279.24 1084.01 1283.64 1086.2 1288.89C1086.27 1289.05 1086.35 1289.21 1086.44 1289.36C1087.07 1290.52 1089.79 1295.03 1093.86 1295.62C1093.86 1295.62 1105.12 1298.36 1110.48 1284.92C1110.65 1284.5 1110.75 1284.06 1110.8 1283.61C1111.02 1281.35 1111.33 1274.4 1107.03 1270.73C1106.83 1270.56 1106.64 1270.38 1106.47 1270.19C1105.41 1269 1100.9 1264.3 1095.64 1264.3C1094.85 1264.3 1092.23 1263.37 1087.04 1264.7C1086.72 1264.79 1086.42 1264.9 1086.13 1265.04C1084.31 1265.88 1082.6 1266.93 1081.03 1268.16C1081.03 1268.16 1075.76 1272.91 1074.72 1275.14C1074.72 1275.14 1071.08 1281.81 1071.53 1284.26C1071.53 1284.26 1071.38 1290.27 1071.83 1292.42C1071.83 1292.42 1073.6 1298.36 1074.27 1299.11C1074.74 1299.62 1077.47 1303.31 1080.02 1305.86C1080.83 1306.72 1081.75 1307.45 1082.77 1308.04C1082.93 1308.12 1083.09 1308.21 1083.24 1308.31C1084.38 1309.1 1089.93 1312.71 1096.65 1313.25C1101.11 1313.63 1105.6 1313.01 1109.79 1311.44C1109.79 1311.44 1120.82 1307.66 1126.71 1298.45C1126.71 1298.45 1135.74 1283.92 1132.91 1272.61C1132.76 1272.01 1133.24 1255.28 1120.67 1250.25C1119.92 1249.95 1108.73 1238.01 1096.95 1236.35C1086.29 1234.84 1073.41 1238.65 1071.04 1239.4C1070.79 1239.48 1070.54 1239.58 1070.3 1239.7C1068.16 1240.77 1056.84 1246.6 1053.28 1252.06C1049.36 1258.1 1043.48 1264.6 1041.65 1269.74C1039.82 1274.87 1036.98 1282.58 1036.98 1286.36C1036.98 1290.13 1036.68 1303.89 1037.45 1306C1038.22 1308.12 1044.55 1323.07 1045.91 1323.83C1047.27 1324.59 1052.71 1333.35 1053.61 1333.63C1054.52 1333.92 1056.03 1335.6 1056.49 1335.6C1056.86 1335.6 1061.72 1332.74 1063.44 1331.72C1063.84 1331.49 1064.2 1331.2 1064.52 1330.86C1066.65 1328.63 1075.16 1319.62 1075.82 1317.77C1076.48 1315.92 1078.62 1309.44 1079.06 1308.06C1079.1 1307.93 1079.15 1307.8 1079.21 1307.68C1079.43 1307.17 1080.11 1305.18 1077.64 1304.21C1077 1303.97 1076.32 1303.87 1075.64 1303.91C1074.96 1303.95 1074.29 1304.13 1073.69 1304.44C1070.74 1305.92 1064.38 1309.51 1062.44 1313.89C1062.26 1314.3 1062.02 1314.68 1061.73 1315.02C1059.94 1317.15 1053.8 1324.75 1053.16 1330.16" fill="url(#paint2_linear_1436_361)"/>
<path d="M1099.94 1278.62C1099.94 1278.62 1092.15 1272.5 1087.1 1279.62C1087.1 1279.62 1083.78 1284.03 1085.97 1289.27C1086.04 1289.44 1086.12 1289.61 1086.2 1289.76C1086.84 1290.93 1089.56 1295.44 1093.63 1296.02C1093.63 1296.02 1104.88 1298.76 1110.25 1285.33C1110.42 1284.91 1110.52 1284.47 1110.56 1284.02C1110.79 1281.76 1111.09 1274.8 1106.8 1271.13C1106.6 1270.97 1106.41 1270.79 1106.24 1270.6C1105.18 1269.41 1100.67 1264.71 1095.41 1264.71C1094.62 1264.71 1092 1263.78 1086.81 1265.11C1086.48 1265.19 1086.17 1265.3 1085.87 1265.45C1084.06 1266.29 1082.35 1267.33 1080.77 1268.56C1080.77 1268.56 1075.5 1273.32 1074.47 1275.54C1074.47 1275.54 1070.83 1282.22 1071.27 1284.67C1071.27 1284.67 1071.13 1290.68 1071.57 1292.83C1071.57 1292.83 1073.36 1298.77 1074.02 1299.51C1074.49 1300.03 1077.22 1303.71 1079.78 1306.26C1080.58 1307.12 1081.5 1307.86 1082.52 1308.45C1082.68 1308.52 1082.84 1308.61 1082.99 1308.72C1084.13 1309.51 1089.68 1313.12 1096.4 1313.66C1100.86 1314.04 1105.35 1313.42 1109.55 1311.85C1109.55 1311.85 1120.57 1308.07 1126.47 1298.85C1126.47 1298.85 1135.49 1284.33 1132.66 1273.01C1132.51 1272.41 1133 1255.68 1120.42 1250.65C1119.67 1250.35 1108.49 1238.42 1096.7 1236.75C1086.05 1235.25 1073.16 1239.06 1070.8 1239.8C1070.54 1239.88 1070.3 1239.98 1070.06 1240.1C1067.91 1241.17 1056.59 1247.01 1053.04 1252.47C1049.11 1258.51 1043.24 1265.01 1041.41 1270.14C1039.58 1275.28 1036.74 1282.99 1036.74 1286.76C1036.74 1290.54 1036.44 1304.29 1037.2 1306.41C1037.97 1308.53 1044.31 1323.48 1045.67 1324.23C1047.03 1324.98 1052.47 1333.75 1053.37 1334.03C1054.28 1334.32 1055.79 1336 1056.24 1336C1056.62 1336 1061.48 1333.14 1063.2 1332.12C1063.59 1331.89 1063.94 1331.61 1064.26 1331.28C1066.39 1329.04 1074.9 1320.03 1075.56 1318.19C1076.22 1316.34 1078.36 1309.86 1078.8 1308.47C1078.84 1308.35 1078.89 1308.22 1078.94 1308.09C1079.16 1307.59 1079.85 1305.6 1077.38 1304.63C1076.74 1304.39 1076.06 1304.28 1075.38 1304.32C1074.7 1304.36 1074.03 1304.54 1073.43 1304.86C1070.48 1306.33 1064.12 1309.93 1062.18 1314.31C1062 1314.72 1061.76 1315.1 1061.47 1315.44C1059.67 1317.56 1053.53 1325.17 1052.89 1330.58" stroke="#212B32" stroke-width="4" stroke-miterlimit="10"/>
<path d="M925.729 1325.46C949.88 1325.46 969.458 1305.88 969.458 1281.73C969.458 1257.58 949.88 1238 925.729 1238C901.578 1238 882 1257.58 882 1281.73C882 1305.88 901.578 1325.46 925.729 1325.46Z" fill="url(#paint3_linear_1436_361)"/>
<path d="M926.301 1238V1325.46" stroke="black" stroke-width="3"/>
<path d="M925.73 1325.46C957.292 1304.16 951.778 1258.91 925.73 1238" stroke="black" stroke-width="3"/>
<path d="M925.729 1325.46C894.136 1304.16 899.655 1258.91 925.729 1238" stroke="black" stroke-width="3"/>
<mask id="mask0_1436_361" style="mask-type:alpha" maskUnits="userSpaceOnUse" x="882" y="1238" width="88" height="88">
<path d="M925.729 1325.46C949.88 1325.46 969.458 1305.88 969.458 1281.73C969.458 1257.58 949.88 1238 925.729 1238C901.578 1238 882 1257.58 882 1281.73C882 1305.88 901.578 1325.46 925.729 1325.46Z" fill="url(#paint4_linear_1436_361)"/>
</mask>
<g mask="url(#mask0_1436_361)">
<path d="M969.458 1244.08C948.164 1275.68 902.914 1270.16 882 1244.08" stroke="black" stroke-width="3"/>
<path d="M882.762 1319.38C904.056 1287.78 949.306 1293.3 970.22 1319.38" stroke="black" stroke-width="3"/>
<path d="M925.728 1238C864.317 1244.47 872.683 1323.37 925.728 1325.08" stroke="black" stroke-width="3"/>
<path d="M925.73 1325.08C987.142 1318.61 978.776 1239.71 925.73 1238" stroke="black" stroke-width="3"/>
<path d="M882 1281.16H969.078" stroke="black" stroke-width="3"/>
</g>
<path d="M1401.3 1264.75L1399.54 1256.17C1399.54 1256.17 1392.46 1254.38 1391.75 1254.32L1388.3 1233.3L1386.24 1232.29L1378.62 1240.74L1371.8 1249.33L1369.54 1252.23L1365.93 1253.83C1365.93 1253.83 1362.33 1254.66 1360.1 1255.17C1360.04 1255.18 1360.01 1255.19 1359.95 1255.2L1359.85 1254.65L1359.95 1255.2C1359.19 1255.38 1358.61 1255.52 1358.46 1255.54C1357.84 1255.66 1348.5 1257.4 1348.5 1257.4L1341.15 1258.94C1341.15 1258.94 1331.5 1260.74 1330.92 1260.85L1326.92 1263.63L1328.21 1274.77L1330.58 1284.92L1334.49 1287.47L1338.27 1286.76L1340.83 1286.32L1344.49 1298.42L1349.38 1312.36L1362.81 1310.17L1363.37 1308.76L1355.11 1283.78L1358.46 1283.18L1368.85 1281.24L1371.84 1280.52L1376.76 1282.72L1387.11 1288.9L1396.18 1294.07L1397.9 1294.07L1398.97 1292.31L1395.66 1273.75L1394.94 1270.2L1401.3 1264.75Z" fill="url(#paint5_linear_1436_361)"/>
<path d="M1331.45 1260.97C1332.06 1260.85 1341.68 1259.06 1341.68 1259.06L1349.03 1257.53C1349.03 1257.53 1358.37 1255.78 1358.99 1255.67C1359.14 1255.64 1359.78 1255.49 1360.63 1255.3C1362.86 1254.78 1366.46 1253.95 1366.46 1253.95L1370.07 1252.36L1372.33 1249.45L1379.15 1240.86L1386.77 1232.41L1388.83 1233.43L1392.28 1254.44L1396.21 1273.81L1399.52 1292.37L1398.45 1294.13L1396.73 1294.13L1387.66 1288.95L1377.31 1282.78L1372.39 1280.58L1369.4 1281.3L1359.02 1283.24L1338.8 1286.85L1335.02 1287.56L1331.1 1285.01L1328.73 1274.87L1327.45 1263.72L1331.45 1260.97Z" fill="url(#paint6_linear_1436_361)" stroke="#1F2B33" stroke-width="4" stroke-miterlimit="10"/>
<path d="M1360.38 1254.77L1362.91 1268.33L1365.27 1281.78" fill="url(#paint7_linear_1436_361)"/>
<path d="M1360.38 1254.77L1362.91 1268.33L1365.27 1281.78" stroke="#1F2B33" stroke-width="4" stroke-miterlimit="10"/>
<path d="M1341.35 1286.41L1345.01 1298.51L1349.9 1312.45L1363.33 1310.26L1363.89 1308.85L1355.71 1283.95L1341.35 1286.41Z" fill="url(#paint8_linear_1436_361)" stroke="#1F2B33" stroke-width="4" stroke-miterlimit="10"/>
<path d="M1392.28 1254.44C1392.96 1254.47 1400.07 1256.29 1400.07 1256.29L1401.83 1264.87L1395.58 1270.55L1392.28 1254.44Z" fill="url(#paint9_linear_1436_361)" stroke="#1F2B33" stroke-width="4" stroke-miterlimit="10"/>
<defs>
<linearGradient id="paint0_linear_1436_361" x1="782.797" y1="1265.59" x2="837.269" y2="1265.59" gradientUnits="userSpaceOnUse">
<stop stop-color="#F4EADC"/>
<stop offset="1" stop-color="#8CCD3E"/>
</linearGradient>
<linearGradient id="paint1_linear_1436_361" x1="1181" y1="1285.33" x2="1289.55" y2="1285.33" gradientUnits="userSpaceOnUse">
<stop stop-color="#F4EADC"/>
<stop offset="1" stop-color="#69B1F9"/>
</linearGradient>
<linearGradient id="paint2_linear_1436_361" x1="1036.92" y1="1285.82" x2="1133.47" y2="1285.82" gradientUnits="userSpaceOnUse">
<stop stop-color="#F4EADC"/>
<stop offset="1" stop-color="#EE7146"/>
</linearGradient>
<linearGradient id="paint3_linear_1436_361" x1="882" y1="1281.73" x2="969.458" y2="1281.73" gradientUnits="userSpaceOnUse">
<stop stop-color="#F5E9D9"/>
<stop offset="1" stop-color="#FF7CFE"/>
</linearGradient>
<linearGradient id="paint4_linear_1436_361" x1="882" y1="1281.73" x2="969.458" y2="1281.73" gradientUnits="userSpaceOnUse">
<stop stop-color="#F5E9D9"/>
<stop offset="1" stop-color="#FF7DFE"/>
</linearGradient>
<linearGradient id="paint5_linear_1436_361" x1="1329.14" y1="1279.7" x2="1401.57" y2="1266.17" gradientUnits="userSpaceOnUse">
<stop stop-color="#F5E9D9"/>
<stop offset="1" stop-color="#F9D54A"/>
</linearGradient>
<linearGradient id="paint6_linear_1436_361" x1="1328.8" y1="1275.18" x2="1394.35" y2="1262.94" gradientUnits="userSpaceOnUse">
<stop stop-color="#F5E9D9"/>
<stop offset="1" stop-color="#F9D54A"/>
</linearGradient>
<linearGradient id="paint7_linear_1436_361" x1="1362.75" y1="1268.29" x2="1362.9" y2="1268.26" gradientUnits="userSpaceOnUse">
<stop stop-color="#F5E9D9"/>
<stop offset="1" stop-color="#F9D54A"/>
</linearGradient>
<linearGradient id="paint8_linear_1436_361" x1="1343.88" y1="1299.91" x2="1361.61" y2="1296.6" gradientUnits="userSpaceOnUse">
<stop stop-color="#F5E9D9"/>
<stop offset="1" stop-color="#F9D54A"/>
</linearGradient>
<linearGradient id="paint9_linear_1436_361" x1="1393.79" y1="1262.52" x2="1401.14" y2="1261.15" gradientUnits="userSpaceOnUse">
<stop stop-color="#F5E9D9"/>
<stop offset="1" stop-color="#F9D54A"/>
</linearGradient>
</defs>
</svg>
