<svg width="2160" height="2160" viewBox="0 0 2160 2160" fill="none" xmlns="http://www.w3.org/2000/svg">
<rect width="2160" height="2160" fill="#131313"/>
<path d="M810.79 1120.8C798.9 1120.8 789.674 1118.13 783.114 1112.8C776.636 1107.47 773.355 1099.85 773.273 1089.92H789.633C789.715 1096.16 791.56 1100.62 795.168 1103.33C798.859 1106.04 804.23 1107.39 811.282 1107.39C817.022 1107.39 821.41 1106.32 824.444 1104.19C827.478 1101.98 828.995 1098.82 828.995 1094.72C828.995 1091.28 827.683 1088.65 825.059 1086.85C822.517 1085.04 817.843 1083.44 811.036 1082.05L803.656 1080.57C784.877 1077.05 775.488 1068.19 775.488 1054.01C775.488 1046.46 778.358 1040.47 784.098 1036.05C789.838 1031.54 797.793 1029.28 807.961 1029.28C819.524 1029.28 828.257 1031.74 834.161 1036.66C840.148 1041.58 843.305 1048.47 843.633 1057.33H827.519C827.191 1052.32 825.51 1048.63 822.476 1046.26C819.524 1043.88 814.767 1042.69 808.207 1042.69C803.123 1042.69 799.228 1043.63 796.522 1045.52C793.815 1047.4 792.462 1050.07 792.462 1053.51C792.462 1057.04 793.692 1059.75 796.153 1061.63C798.695 1063.52 803.164 1065.12 809.56 1066.43L817.187 1067.91C827.437 1069.96 834.817 1073.03 839.328 1077.13C843.92 1081.15 846.216 1086.72 846.216 1093.86C846.216 1102.39 843.1 1109.03 836.867 1113.79C830.635 1118.46 821.943 1120.8 810.79 1120.8Z" fill="white"/>
<path d="M911.005 1118.83H893.292L874.842 1089.31L865.247 1098.9V1118.83H849.994V1031.25H865.247V1081.68L891.078 1055.36H909.529L885.543 1079.34L911.005 1118.83Z" fill="white"/>
<path d="M926.878 1047.12H911.625V1032.6H926.878V1047.12ZM927.001 1118.83H911.502V1055.36H927.001V1118.83Z" fill="white"/>
<path d="M950.069 1118.83H934.571V1031.25H950.069V1118.83Z" fill="white"/>
<path d="M973.138 1118.83H957.639V1031.25H973.138V1118.83Z" fill="white"/>
<path d="M1005.68 1120.55C987.145 1120.55 977.468 1113.25 976.648 1098.66H991.778C992.188 1102.59 993.459 1105.38 995.591 1107.02C997.805 1108.66 1001.25 1109.48 1005.92 1109.48C1014.29 1109.48 1018.47 1106.94 1018.47 1101.85C1018.47 1099.56 1017.57 1097.8 1015.76 1096.57C1013.96 1095.34 1010.72 1094.31 1006.05 1093.49L998.789 1092.26C984.93 1089.96 978.001 1083.57 978.001 1073.07C978.001 1067.09 980.297 1062.41 984.889 1059.05C989.482 1055.6 995.96 1053.88 1004.32 1053.88C1022.45 1053.88 1031.8 1061.06 1032.37 1075.41H1017.73C1017.57 1071.64 1016.38 1068.97 1014.16 1067.41C1011.95 1065.77 1008.67 1064.95 1004.32 1064.95C996.944 1064.95 993.254 1067.41 993.254 1072.33C993.254 1074.47 994.074 1076.15 995.714 1077.38C997.354 1078.52 1000.06 1079.43 1003.83 1080.08L1011.83 1081.31C1019.54 1082.71 1025.11 1084.92 1028.56 1087.96C1032.08 1090.99 1033.85 1095.21 1033.85 1100.62C1033.85 1107.02 1031.39 1111.94 1026.47 1115.39C1021.55 1118.83 1014.62 1120.55 1005.68 1120.55Z" fill="white"/>
<rect x="1105.98" y="1008.12" width="280.515" height="134.138" fill="#1A49BA"/>
<path d="M1066.15 1128.6C1075.99 1137.7 1089.46 1142.25 1106.56 1142.25C1123.78 1142.25 1137.25 1137.77 1146.97 1128.79C1156.69 1119.68 1161.55 1106.77 1161.55 1090.04V1008.12H1136.64H1076.49H1051.58V1090.04C1051.58 1106.52 1056.44 1119.38 1066.15 1128.6Z" fill="#1A49BA"/>
<path d="M1106.56 1119.89C1095.16 1119.89 1086.18 1116.86 1079.62 1110.79C1073.15 1104.64 1069.91 1096.07 1069.91 1085.08V1030.47H1086.51V1085.21C1086.51 1091.85 1088.23 1096.89 1091.68 1100.34C1095.12 1103.78 1100.08 1105.5 1106.56 1105.5C1113.04 1105.5 1118 1103.78 1121.45 1100.34C1124.89 1096.89 1126.61 1091.85 1126.61 1085.21V1030.47H1143.22V1085.08C1143.22 1096.24 1139.98 1104.85 1133.5 1110.91C1127.02 1116.9 1118.04 1119.89 1106.56 1119.89Z" fill="white"/>
<path d="M1304.76 1087.21C1304.76 1097.22 1301.81 1105.25 1295.9 1111.32C1290 1117.39 1282.21 1120.42 1272.53 1120.42C1262.85 1120.42 1255.06 1117.39 1249.16 1111.32C1243.17 1105.33 1240.18 1097.3 1240.18 1087.21C1240.18 1077.13 1243.17 1069.09 1249.16 1063.1C1255.06 1057.03 1262.85 1054 1272.53 1054C1282.21 1054 1290 1056.99 1295.9 1062.98C1301.81 1068.97 1304.76 1077.04 1304.76 1087.21ZM1260.35 1102.34C1263.3 1105.87 1267.36 1107.63 1272.53 1107.63C1277.7 1107.63 1281.71 1105.87 1284.58 1102.34C1287.54 1098.73 1289.01 1093.69 1289.01 1087.21C1289.01 1080.73 1287.54 1075.73 1284.58 1072.2C1281.71 1068.6 1277.7 1066.79 1272.53 1066.79C1267.36 1066.79 1263.3 1068.56 1260.35 1072.08C1257.48 1075.61 1256.05 1080.65 1256.05 1087.21C1256.05 1093.77 1257.48 1098.82 1260.35 1102.34Z" fill="white"/>
<path d="M1188.46 1054C1195.35 1054 1200.76 1056.01 1204.7 1060.03C1208.71 1063.96 1210.72 1069.58 1210.72 1076.88V1118.95H1195.22V1079.46C1195.22 1071.43 1191.25 1067.41 1183.29 1067.41C1179.36 1067.41 1175.99 1068.84 1173.21 1071.71C1170.5 1074.5 1169.15 1078.4 1169.15 1083.4V1118.95H1153.65V1055.48H1168.66V1064.58C1173.49 1057.53 1180.09 1054 1188.46 1054Z" fill="white"/>
<path d="M1233.9 1118.94H1218.4V1055.47H1233.9V1118.94Z" fill="white"/>
<path d="M1344.37 1054C1351.26 1054 1356.67 1056.01 1360.61 1060.03C1364.63 1063.96 1366.64 1069.58 1366.64 1076.88V1118.95H1351.14V1079.46C1351.14 1071.43 1347.16 1067.41 1339.21 1067.41C1335.27 1067.41 1331.91 1068.84 1329.12 1071.71C1326.41 1074.5 1325.06 1078.4 1325.06 1083.4V1118.95H1309.56V1055.48H1324.57V1064.58C1329.41 1057.53 1336.01 1054 1344.37 1054Z" fill="white"/>
<path d="M1218.52 1032.72H1233.78V1047.23H1221.52C1219.87 1047.23 1218.52 1045.89 1218.52 1044.23V1032.72Z" fill="white"/>
</svg>
