<svg width="2160" height="2160" viewBox="0 0 2160 2160" fill="none" xmlns="http://www.w3.org/2000/svg">
<rect width="2160" height="2160" fill="#131313"/>
<path d="M884.2 1126.76C883.88 1136.84 881.32 1140.04 877.96 1140.04C875.4 1140.04 873.8 1138.12 873.8 1130.28V1083.08C873.8 1065.8 864.2 1057 848.68 1057C832.52 1057 821 1066.92 821 1078.76C821 1084.68 824.04 1088.68 829.8 1088.68C834.92 1088.68 837.64 1085.64 837.64 1081.32C837.64 1077.64 835.4 1075.56 835.4 1071.88C835.4 1066.6 839.88 1063.4 846.12 1063.4C853.96 1063.4 858.44 1068.2 858.44 1081.96V1091.24C840.2 1099.4 817 1108.36 817 1128.52C817 1138.92 823.4 1147.4 834.76 1147.4C846.28 1147.4 854.76 1138.6 858.44 1123.56V1126.44C858.44 1141.32 863.88 1147.4 873 1147.4C883.56 1147.4 887.4 1138.92 887.88 1126.76H884.2ZM841 1135.24C835.4 1135.24 832.36 1130.92 832.36 1124.2C832.36 1110.92 845.48 1103.24 858.44 1096.52V1115.4C854.28 1129.32 847.4 1135.24 841 1135.24Z" fill="#E6E6E6"/>
<path d="M909.444 1015.24L907.044 1013L882.724 1024.84L884.324 1028.36C893.924 1023.56 893.924 1025.64 893.924 1035.88V1128.36C893.924 1138.6 892.324 1141 882.564 1141V1144.84H920.644V1141C910.884 1141 909.444 1138.6 909.444 1128.36V1015.24Z" fill="#E6E6E6"/>
<path d="M945.506 1015.24L943.106 1013L918.786 1024.84L920.386 1028.36C929.986 1023.56 929.986 1025.64 929.986 1035.88V1128.36C929.986 1138.6 928.386 1141 918.626 1141V1144.84H956.706V1141C946.946 1141 945.506 1138.6 945.506 1128.36V1015.24Z" fill="#E6E6E6"/>
<path d="M961.781 1136.52C970.421 1144.04 981.941 1147.24 991.061 1147.24C1013.14 1147.24 1025.14 1128.52 1025.14 1098.6C1025.14 1072.2 1015.7 1057.16 1001.46 1057.16C991.541 1057.16 984.021 1063.24 978.101 1072.2H977.461V1015.24L975.221 1013L963.381 1019.08L951.061 1025.16L952.821 1028.52C962.101 1023.88 961.781 1025.96 961.781 1036.36V1136.52ZM977.461 1080.04C981.461 1073.48 986.901 1068.2 993.301 1068.2C1002.42 1068.2 1008.34 1078.76 1008.34 1101.32C1008.34 1125.64 1002.26 1139.88 991.061 1139.88C984.821 1139.88 980.021 1135.56 977.461 1131.56V1080.04Z" fill="#E6E6E6"/>
<path d="M1062.23 1147.4C1083.83 1147.4 1096.63 1127.56 1096.63 1101.8C1096.63 1075.56 1082.87 1057.16 1062.23 1057.16C1040.47 1057.16 1027.83 1077 1027.83 1102.76C1027.83 1129 1041.43 1147.4 1062.23 1147.4ZM1064.63 1140.36C1050.55 1140.36 1043.83 1115.08 1043.83 1093.32C1043.83 1079.24 1048.47 1064.2 1059.83 1064.2C1073.91 1064.2 1080.47 1089.48 1080.47 1111.24C1080.47 1125.32 1075.99 1140.36 1064.63 1140.36Z" fill="#E6E6E6"/>
<path d="M1172.16 1134.76C1162.24 1138.6 1162.08 1136.52 1162.08 1125.8V1015.24L1160 1013L1135.52 1025.16L1137.12 1028.52C1146.72 1023.88 1146.56 1025.8 1146.56 1036.2V1066.12C1143.04 1060.52 1136.48 1057.16 1128.48 1057.16C1110.88 1057.16 1099.36 1077 1099.36 1105C1099.36 1130.28 1108.8 1147.4 1124.16 1147.4C1134.56 1147.4 1141.76 1141 1145.92 1131.56H1146.56V1144.68L1149.92 1147.4L1173.6 1138.44L1172.16 1134.76ZM1130.88 1136.2C1120.32 1136.2 1115.84 1121.48 1115.84 1101.16C1115.84 1081.16 1120.64 1065.48 1131.84 1065.48C1141.76 1065.48 1146.56 1078.28 1146.56 1093.96V1123.56C1142.56 1130.92 1137.92 1136.2 1130.88 1136.2Z" fill="#E6E6E6"/>
<path d="M1189.57 1041.48C1195.49 1041.48 1199.81 1037.32 1199.81 1031.72C1199.81 1025.96 1195.49 1021.8 1189.57 1021.8C1183.49 1021.8 1179.17 1025.96 1179.17 1031.72C1179.17 1037.32 1183.49 1041.48 1189.57 1041.48ZM1198.53 1059.24L1195.81 1056.84L1172.29 1066.28L1173.73 1069.96C1183.01 1066.12 1183.17 1068.36 1183.17 1079.08V1128.36C1183.17 1138.6 1181.57 1141 1171.81 1141V1144.84H1209.89V1141C1200.13 1141 1198.53 1138.6 1198.53 1128.36V1059.24Z" fill="#E6E6E6"/>
<path d="M1263.71 1110.6C1259.87 1129.96 1251.55 1135.56 1244.35 1135.56C1231.07 1135.56 1224.35 1120.2 1224.35 1098.44V1098.12H1266.59C1266.59 1074.76 1257.79 1057.16 1239.07 1057.16C1220.03 1057.16 1208.83 1078.6 1208.83 1103.88C1208.83 1130.28 1220.19 1147.4 1238.27 1147.4C1253.31 1147.4 1264.19 1136.36 1267.55 1110.6H1263.71ZM1239.07 1063.88C1248.51 1063.88 1251.23 1076.2 1251.23 1091.56H1224.51C1225.47 1075.56 1229.47 1063.88 1239.07 1063.88Z" fill="#E6E6E6"/>
<path d="M1297.41 1147.4C1309.73 1147.4 1320.45 1139.88 1320.45 1124.04C1320.45 1111.88 1313.57 1105 1299.17 1093.64C1287.97 1084.84 1283.81 1081.32 1283.81 1074.6C1283.81 1068.2 1287.97 1063.88 1294.37 1063.88C1305.09 1063.88 1312.13 1073.8 1314.05 1086.28H1317.57L1316.93 1058.28H1313.25L1312.29 1061.8C1311.81 1063.72 1310.21 1064.52 1308.13 1062.6C1305.25 1060.2 1300.29 1057.16 1293.09 1057.16C1280.45 1057.16 1270.85 1065.8 1270.85 1079.08C1270.85 1088.2 1275.49 1094.44 1289.09 1105.16C1303.97 1117.16 1307.33 1120.2 1307.33 1127.4C1307.33 1135.56 1303.33 1140.68 1295.81 1140.68C1284.77 1140.68 1275.65 1130.12 1273.25 1111.08H1269.73L1270.85 1145.64H1274.37L1275.65 1142.44C1276.61 1140.52 1277.89 1140.04 1279.97 1141.64C1283.33 1144.04 1289.25 1147.4 1297.41 1147.4Z" fill="#E6E6E6"/>
<path d="M1334.05 1147.4C1339.17 1147.4 1343.49 1143.24 1343.49 1137.96C1343.49 1132.84 1339.17 1128.52 1334.05 1128.52C1328.77 1128.52 1324.61 1132.84 1324.61 1137.96C1324.61 1143.24 1328.77 1147.4 1334.05 1147.4Z" fill="#E6E6E6"/>
</svg>
