<svg width="1080" height="1080" viewBox="0 0 1080 1080" fill="none" xmlns="http://www.w3.org/2000/svg">
<path fill-rule="evenodd" clip-rule="evenodd" d="M0 0H1080V1080H0V0ZM740 173.164C739.964 295.52 739.964 417.945 739.964 540.336V907.753C739.964 908.557 739.966 909.362 739.967 910.168C739.975 915.41 739.983 920.671 739.643 925.905C738.357 945.105 727.001 960.116 705.932 963.712C702.861 964.235 699.79 964.445 696.719 964.514C691.648 964.619 686.613 964.654 681.542 964.654H398.535C397.353 964.654 396.171 964.659 394.989 964.663C394.989 964.663 394.989 964.663 394.989 964.663C389.672 964.684 384.361 964.705 379.073 964.305C359.575 962.804 344.791 951.773 341.077 931.63C339.92 925.252 339.97 918.825 340.021 912.41V912.408C340.022 912.245 340.023 912.081 340.024 911.918C340.033 910.773 340.041 909.629 340.041 908.486C340.005 727.204 340.005 545.921 340.005 364.639C340.005 298.592 340.005 232.579 340.041 166.531V166.117C340.041 166.116 340.041 166.116 340.041 166.116C340.04 159.343 340.04 152.572 341.719 145.935C345.719 130.366 357.575 119.683 373.859 117.065C377.109 116.542 380.358 116.227 383.608 116.227C396 116.123 408.355 116.088 420.747 116.088C424.854 116.088 426.639 117.903 426.782 121.952C427.068 130.575 429.925 137.976 437.46 143.107C441.673 145.97 446.494 147.087 451.494 147.471C453.851 147.645 456.243 147.645 458.636 147.645H622.369C626.94 147.645 631.511 147.506 635.939 146.109C645.153 143.142 650.688 136.998 652.509 127.678C652.902 125.688 653.152 123.663 653.223 121.638C653.33 118.113 655.044 116.123 658.651 116.123C662.392 116.123 666.134 116.092 669.878 116.061C669.879 116.061 669.879 116.061 669.879 116.061C680.54 115.974 691.21 115.887 701.861 116.507C708.967 116.926 715.645 119.09 721.752 122.86C730.965 128.55 736.072 136.963 738.572 147.087C739.464 150.787 739.786 154.523 739.857 158.328C739.964 163.285 740 168.207 740 173.164Z" fill="#101010"/>
<path d="M703 209C704.105 209 705 208.105 705 207C705 205.895 704.105 205 703 205C701.895 205 701 205.895 701 207C701 208.105 701.895 209 703 209Z" fill="white"/>
<path d="M713 207C713 208.105 712.105 209 711 209C709.895 209 709 208.105 709 207C709 205.895 709.895 205 711 205C712.105 205 713 205.895 713 207Z" fill="white"/>
<path d="M721 207C721 208.105 720.105 209 719 209C717.895 209 717 208.105 717 207C717 205.895 717.895 205 719 205C720.105 205 721 205.895 721 207Z" fill="white"/>
<path d="M424.462 207.214C424.462 208.096 423.598 208.276 422.176 208.546C419.872 208.996 418.378 209.626 418.378 211.642C418.378 213.19 419.53 214.27 421.402 214.27C422.824 214.27 423.868 213.712 424.444 212.902H424.48C424.66 213.802 425.128 214.162 426.136 214.162C426.496 214.162 426.802 214.126 427.234 213.964V213.064C426.496 213.136 426.352 212.794 426.352 212.146V207.772C426.352 205.324 424.84 204.55 422.806 204.55C420.034 204.55 418.9 205.936 418.81 207.7H420.646C420.736 206.512 421.294 206.044 422.806 206.044C424.066 206.044 424.462 206.548 424.462 207.214ZM421.816 212.776C420.79 212.776 420.286 212.308 420.286 211.462C420.286 210.526 420.97 210.076 422.536 209.734C423.418 209.554 424.156 209.338 424.462 209.122V210.508C424.462 212.002 423.382 212.776 421.816 212.776ZM428.195 201.13V214H430.103V201.13H428.195ZM431.654 201.13V214H433.562V201.13H431.654ZM439.811 204.55C438.389 204.55 437.489 205.216 437.003 205.918H436.967V201.13H435.077V214H436.967V212.938H437.003C437.489 213.568 438.389 214.27 439.811 214.27C442.169 214.27 443.915 212.434 443.915 209.41C443.915 206.386 442.169 204.55 439.811 204.55ZM439.487 212.722C437.939 212.722 436.985 211.444 436.985 209.41C436.985 207.358 437.939 206.098 439.487 206.098C441.143 206.098 442.025 207.61 442.025 209.41C442.025 211.21 441.143 212.722 439.487 212.722ZM449.197 214.27C446.317 214.27 444.571 212.272 444.571 209.41C444.571 206.548 446.317 204.55 449.197 204.55C452.077 204.55 453.823 206.548 453.823 209.41C453.823 212.272 452.077 214.27 449.197 214.27ZM449.197 212.722C450.997 212.722 451.933 211.3 451.933 209.41C451.933 207.502 450.997 206.098 449.197 206.098C447.397 206.098 446.461 207.502 446.461 209.41C446.461 211.3 447.397 212.722 449.197 212.722ZM461.411 201.13V205.918H461.375C460.889 205.216 459.989 204.55 458.567 204.55C456.209 204.55 454.463 206.386 454.463 209.41C454.463 212.434 456.209 214.27 458.567 214.27C459.989 214.27 460.889 213.568 461.375 212.938H461.411V214H463.301V201.13H461.411ZM458.891 212.722C457.235 212.722 456.353 211.21 456.353 209.41C456.353 207.61 457.235 206.098 458.891 206.098C460.439 206.098 461.393 207.358 461.393 209.41C461.393 211.444 460.439 212.722 458.891 212.722ZM465.851 203.254C466.409 203.254 466.931 202.894 466.931 202.246C466.931 201.598 466.409 201.256 465.851 201.256C465.329 201.256 464.789 201.598 464.789 202.246C464.789 202.894 465.329 203.254 465.851 203.254ZM464.915 204.802V214H466.805V204.802H464.915ZM472.614 212.722C470.94 212.722 469.95 211.444 469.95 209.896H477.006C477.006 206.62 475.548 204.55 472.578 204.55C469.806 204.55 468.06 206.422 468.06 209.41C468.06 212.29 469.806 214.27 472.668 214.27C475.026 214.27 476.394 212.938 476.862 211.192H474.972C474.81 211.75 474.18 212.722 472.614 212.722ZM472.578 206.044C474.108 206.044 475.116 207.07 475.116 208.492H469.95C469.95 207.07 471.048 206.044 472.578 206.044ZM482.1 208.438C480.768 208.132 479.742 208.06 479.742 207.124C479.742 206.476 480.354 206.044 481.488 206.044C482.964 206.044 483.324 206.782 483.45 207.502H485.286C485.16 205.9 483.972 204.55 481.47 204.55C479.166 204.55 477.834 205.756 477.834 207.268C477.834 209.356 479.814 209.644 481.272 209.986C482.622 210.31 483.72 210.4 483.72 211.552C483.72 212.128 483.162 212.776 481.848 212.776C479.904 212.776 479.472 211.93 479.382 210.94H477.546C477.636 212.884 478.914 214.27 481.884 214.27C484.116 214.27 485.628 213.172 485.628 211.408C485.628 209.212 483.792 208.834 482.1 208.438ZM491.628 204.55C490.08 204.55 489.126 205.27 488.64 205.99H488.604V201.13H486.714V214H488.604V208.402C488.604 207.034 489.594 206.152 490.98 206.152C492.294 206.152 492.816 206.944 492.816 208.186V214H494.724V207.646C494.724 205.54 493.374 204.55 491.628 204.55ZM500.34 212.722C498.666 212.722 497.676 211.444 497.676 209.896H504.732C504.732 206.62 503.274 204.55 500.304 204.55C497.532 204.55 495.786 206.422 495.786 209.41C495.786 212.29 497.532 214.27 500.394 214.27C502.752 214.27 504.12 212.938 504.588 211.192H502.698C502.536 211.75 501.906 212.722 500.34 212.722ZM500.304 206.044C501.834 206.044 502.842 207.07 502.842 208.492H497.676C497.676 207.07 498.774 206.044 500.304 206.044ZM511.41 207.214C511.41 208.096 510.546 208.276 509.124 208.546C506.82 208.996 505.326 209.626 505.326 211.642C505.326 213.19 506.478 214.27 508.35 214.27C509.772 214.27 510.816 213.712 511.392 212.902H511.428C511.608 213.802 512.076 214.162 513.084 214.162C513.444 214.162 513.75 214.126 514.182 213.964V213.064C513.444 213.136 513.3 212.794 513.3 212.146V207.772C513.3 205.324 511.788 204.55 509.754 204.55C506.982 204.55 505.848 205.936 505.758 207.7H507.594C507.684 206.512 508.242 206.044 509.754 206.044C511.014 206.044 511.41 206.548 511.41 207.214ZM508.764 212.776C507.738 212.776 507.234 212.308 507.234 211.462C507.234 210.526 507.918 210.076 509.484 209.734C510.366 209.554 511.104 209.338 511.41 209.122V210.508C511.41 212.002 510.33 212.776 508.764 212.776ZM515.143 201.13V214H517.051V201.13H515.143ZM523.098 206.35V204.802H521.37V201.904H519.462V204.802H518.13V206.35H519.462V211.498C519.462 213.442 520.29 214.126 521.802 214.126C522.306 214.126 522.72 214.072 523.098 213.982V212.434C521.874 212.506 521.37 212.38 521.37 211.336V206.35H523.098ZM529.206 204.55C527.658 204.55 526.704 205.27 526.218 205.99H526.182V201.13H524.292V214H526.182V208.402C526.182 207.034 527.172 206.152 528.558 206.152C529.872 206.152 530.394 206.944 530.394 208.186V214H532.302V207.646C532.302 205.54 530.952 204.55 529.206 204.55Z" fill="white"/>
<path d="M422.176 208.546L422.148 208.399L422.147 208.399L422.176 208.546ZM424.444 212.902V212.752H424.367L424.322 212.815L424.444 212.902ZM424.48 212.902L424.627 212.873L424.603 212.752H424.48V212.902ZM427.234 213.964L427.287 214.104L427.384 214.068V213.964H427.234ZM427.234 213.064H427.384V212.899L427.219 212.915L427.234 213.064ZM418.81 207.7L418.66 207.692L418.652 207.85H418.81V207.7ZM420.646 207.7V207.85H420.785L420.796 207.711L420.646 207.7ZM422.536 209.734L422.506 209.587L422.504 209.587L422.536 209.734ZM424.462 209.122H424.612V208.833L424.375 208.999L424.462 209.122ZM424.312 207.214C424.312 207.408 424.265 207.553 424.183 207.669C424.099 207.787 423.97 207.887 423.787 207.974C423.415 208.153 422.866 208.262 422.148 208.399L422.204 208.693C422.908 208.56 423.502 208.444 423.917 208.245C424.128 208.143 424.304 208.016 424.427 207.843C424.551 207.669 424.612 207.461 424.612 207.214H424.312ZM422.147 208.399C420.994 208.624 420.017 208.898 419.327 209.384C418.623 209.88 418.228 210.588 418.228 211.642H418.528C418.528 210.68 418.88 210.065 419.499 209.629C420.132 209.184 421.054 208.918 422.205 208.693L422.147 208.399ZM418.228 211.642C418.228 212.455 418.532 213.154 419.088 213.649C419.644 214.142 420.438 214.42 421.402 214.42V214.12C420.494 214.12 419.776 213.858 419.288 213.424C418.8 212.992 418.528 212.377 418.528 211.642H418.228ZM421.402 214.42C422.864 214.42 423.958 213.845 424.566 212.989L424.322 212.815C423.778 213.579 422.784 214.12 421.402 214.12V214.42ZM424.444 213.052H424.48V212.752H424.444V213.052ZM424.333 212.931C424.427 213.401 424.601 213.756 424.907 213.989C425.21 214.22 425.617 214.312 426.136 214.312V214.012C425.647 214.012 425.316 213.924 425.088 213.75C424.863 213.578 424.713 213.303 424.627 212.873L424.333 212.931ZM426.136 214.312C426.511 214.312 426.835 214.274 427.287 214.104L427.181 213.824C426.769 213.978 426.481 214.012 426.136 214.012V214.312ZM427.384 213.964V213.064H427.084V213.964H427.384ZM427.219 212.915C426.868 212.949 426.713 212.879 426.633 212.78C426.541 212.668 426.502 212.471 426.502 212.146H426.202C426.202 212.469 426.235 212.767 426.4 212.97C426.576 213.186 426.862 213.251 427.249 213.213L427.219 212.915ZM426.502 212.146V207.772H426.202V212.146H426.502ZM426.502 207.772C426.502 206.515 426.112 205.661 425.435 205.125C424.764 204.596 423.838 204.4 422.806 204.4V204.7C423.808 204.7 424.655 204.891 425.249 205.361C425.836 205.824 426.202 206.581 426.202 207.772H426.502ZM422.806 204.4C421.396 204.4 420.38 204.753 419.703 205.351C419.025 205.951 418.707 206.78 418.66 207.692L418.96 207.708C419.003 206.856 419.297 206.11 419.902 205.576C420.507 205.04 421.444 204.7 422.806 204.7V204.4ZM418.81 207.85H420.646V207.55H418.81V207.85ZM420.796 207.711C420.839 207.137 420.993 206.773 421.285 206.545C421.584 206.311 422.059 206.194 422.806 206.194V205.894C422.041 205.894 421.481 206.011 421.1 206.308C420.713 206.611 420.543 207.075 420.496 207.689L420.796 207.711ZM422.806 206.194C423.42 206.194 423.794 206.318 424.012 206.495C424.224 206.668 424.312 206.912 424.312 207.214H424.612C424.612 206.85 424.502 206.509 424.201 206.263C423.906 206.022 423.452 205.894 422.806 205.894V206.194ZM421.816 212.626C421.323 212.626 420.982 212.513 420.765 212.323C420.552 212.137 420.436 211.855 420.436 211.462H420.136C420.136 211.915 420.272 212.29 420.567 212.549C420.859 212.805 421.283 212.926 421.816 212.926V212.626ZM420.436 211.462C420.436 211.04 420.586 210.739 420.913 210.496C421.253 210.244 421.789 210.051 422.568 209.881L422.504 209.587C421.717 209.759 421.128 209.962 420.734 210.255C420.328 210.556 420.136 210.948 420.136 211.462H420.436ZM422.566 209.881C423.01 209.79 423.42 209.69 423.76 209.585C424.095 209.481 424.375 209.367 424.549 209.245L424.375 208.999C424.243 209.093 424.001 209.195 423.67 209.298C423.344 209.4 422.944 209.498 422.506 209.587L422.566 209.881ZM424.312 209.122V210.508H424.612V209.122H424.312ZM424.312 210.508C424.312 211.216 424.058 211.738 423.631 212.086C423.2 212.438 422.576 212.626 421.816 212.626V212.926C422.622 212.926 423.321 212.727 423.821 212.318C424.326 211.906 424.612 211.294 424.612 210.508H424.312ZM428.195 201.13V200.98H428.045V201.13H428.195ZM428.195 214H428.045V214.15H428.195V214ZM430.103 214V214.15H430.253V214H430.103ZM430.103 201.13H430.253V200.98H430.103V201.13ZM428.045 201.13V214H428.345V201.13H428.045ZM428.195 214.15H430.103V213.85H428.195V214.15ZM430.253 214V201.13H429.953V214H430.253ZM430.103 200.98H428.195V201.28H430.103V200.98ZM431.654 201.13V200.98H431.504V201.13H431.654ZM431.654 214H431.504V214.15H431.654V214ZM433.562 214V214.15H433.712V214H433.562ZM433.562 201.13H433.712V200.98H433.562V201.13ZM431.504 201.13V214H431.804V201.13H431.504ZM431.654 214.15H433.562V213.85H431.654V214.15ZM433.712 214V201.13H433.412V214H433.712ZM433.562 200.98H431.654V201.28H433.562V200.98ZM437.003 205.918V206.068H437.081L437.126 206.003L437.003 205.918ZM436.967 205.918H436.817V206.068H436.967V205.918ZM436.967 201.13H437.117V200.98H436.967V201.13ZM435.077 201.13V200.98H434.927V201.13H435.077ZM435.077 214H434.927V214.15H435.077V214ZM436.967 214V214.15H437.117V214H436.967ZM436.967 212.938V212.788H436.817V212.938H436.967ZM437.003 212.938L437.122 212.846L437.077 212.788H437.003V212.938ZM439.811 204.4C438.335 204.4 437.391 205.094 436.879 205.833L437.126 206.003C437.587 205.338 438.442 204.7 439.811 204.7V204.4ZM437.003 205.768H436.967V206.068H437.003V205.768ZM437.117 205.918V201.13H436.817V205.918H437.117ZM436.967 200.98H435.077V201.28H436.967V200.98ZM434.927 201.13V214H435.227V201.13H434.927ZM435.077 214.15H436.967V213.85H435.077V214.15ZM437.117 214V212.938H436.817V214H437.117ZM436.967 213.088H437.003V212.788H436.967V213.088ZM436.884 213.03C437.392 213.688 438.333 214.42 439.811 214.42V214.12C438.445 214.12 437.586 213.448 437.122 212.846L436.884 213.03ZM439.811 214.42C441.031 214.42 442.099 213.944 442.86 213.073C443.62 212.203 444.065 210.95 444.065 209.41H443.765C443.765 210.894 443.337 212.071 442.634 212.875C441.933 213.678 440.949 214.12 439.811 214.12V214.42ZM444.065 209.41C444.065 207.87 443.62 206.617 442.86 205.747C442.099 204.876 441.031 204.4 439.811 204.4V204.7C440.949 204.7 441.933 205.142 442.634 205.945C443.337 206.749 443.765 207.926 443.765 209.41H444.065ZM439.487 212.572C438.759 212.572 438.178 212.274 437.775 211.739C437.369 211.199 437.135 210.406 437.135 209.41H436.835C436.835 210.448 437.078 211.311 437.535 211.919C437.996 212.531 438.667 212.872 439.487 212.872V212.572ZM437.135 209.41C437.135 208.405 437.369 207.612 437.775 207.075C438.178 206.542 438.758 206.248 439.487 206.248V205.948C438.667 205.948 437.997 206.284 437.536 206.894C437.078 207.5 436.835 208.363 436.835 209.41H437.135ZM439.487 206.248C440.262 206.248 440.853 206.599 441.254 207.166C441.659 207.737 441.875 208.532 441.875 209.41H442.175C442.175 208.488 441.949 207.627 441.499 206.992C441.046 206.353 440.367 205.948 439.487 205.948V206.248ZM441.875 209.41C441.875 210.288 441.659 211.083 441.254 211.654C440.853 212.221 440.262 212.572 439.487 212.572V212.872C440.367 212.872 441.046 212.467 441.499 211.828C441.949 211.193 442.175 210.332 442.175 209.41H441.875ZM449.197 214.12C447.793 214.12 446.679 213.634 445.914 212.811C445.148 211.987 444.721 210.811 444.721 209.41H444.421C444.421 210.871 444.867 212.125 445.694 213.015C446.522 213.907 447.721 214.42 449.197 214.42V214.12ZM444.721 209.41C444.721 208.009 445.148 206.833 445.914 206.009C446.679 205.186 447.793 204.7 449.197 204.7V204.4C447.721 204.4 446.522 204.913 445.694 205.805C444.867 206.695 444.421 207.949 444.421 209.41H444.721ZM449.197 204.7C450.601 204.7 451.715 205.186 452.48 206.009C453.246 206.833 453.673 208.009 453.673 209.41H453.973C453.973 207.949 453.527 206.695 452.7 205.805C451.872 204.913 450.673 204.4 449.197 204.4V204.7ZM453.673 209.41C453.673 210.811 453.246 211.987 452.48 212.811C451.715 213.634 450.601 214.12 449.197 214.12V214.42C450.673 214.42 451.872 213.907 452.7 213.015C453.527 212.125 453.973 210.871 453.973 209.41H453.673ZM449.197 212.872C450.141 212.872 450.87 212.497 451.358 211.867C451.844 211.241 452.083 210.378 452.083 209.41H451.783C451.783 210.332 451.554 211.125 451.121 211.683C450.692 212.236 450.053 212.572 449.197 212.572V212.872ZM452.083 209.41C452.083 208.434 451.844 207.57 451.358 206.946C450.869 206.318 450.14 205.948 449.197 205.948V206.248C450.053 206.248 450.693 206.58 451.122 207.131C451.554 207.686 451.783 208.478 451.783 209.41H452.083ZM449.197 205.948C448.253 205.948 447.525 206.318 447.036 206.946C446.55 207.57 446.311 208.434 446.311 209.41H446.611C446.611 208.478 446.84 207.686 447.272 207.131C447.701 206.58 448.34 206.248 449.197 206.248V205.948ZM446.311 209.41C446.311 210.378 446.55 211.241 447.035 211.867C447.524 212.497 448.253 212.872 449.197 212.872V212.572C448.341 212.572 447.702 212.236 447.272 211.683C446.84 211.125 446.611 210.332 446.611 209.41H446.311ZM461.411 201.13V200.98H461.261V201.13H461.411ZM461.411 205.918V206.068H461.561V205.918H461.411ZM461.375 205.918L461.252 206.003L461.297 206.068H461.375V205.918ZM461.375 212.938V212.788H461.301L461.256 212.846L461.375 212.938ZM461.411 212.938H461.561V212.788H461.411V212.938ZM461.411 214H461.261V214.15H461.411V214ZM463.301 214V214.15H463.451V214H463.301ZM463.301 201.13H463.451V200.98H463.301V201.13ZM461.261 201.13V205.918H461.561V201.13H461.261ZM461.411 205.768H461.375V206.068H461.411V205.768ZM461.499 205.833C460.987 205.094 460.043 204.4 458.567 204.4V204.7C459.936 204.7 460.791 205.338 461.252 206.003L461.499 205.833ZM458.567 204.4C457.347 204.4 456.279 204.876 455.518 205.747C454.758 206.617 454.313 207.87 454.313 209.41H454.613C454.613 207.926 455.041 206.749 455.744 205.945C456.445 205.142 457.429 204.7 458.567 204.7V204.4ZM454.313 209.41C454.313 210.95 454.758 212.203 455.518 213.073C456.279 213.944 457.347 214.42 458.567 214.42V214.12C457.429 214.12 456.445 213.678 455.744 212.875C455.041 212.071 454.613 210.894 454.613 209.41H454.313ZM458.567 214.42C460.045 214.42 460.986 213.688 461.494 213.03L461.256 212.846C460.792 213.448 459.933 214.12 458.567 214.12V214.42ZM461.375 213.088H461.411V212.788H461.375V213.088ZM461.261 212.938V214H461.561V212.938H461.261ZM461.411 214.15H463.301V213.85H461.411V214.15ZM463.451 214V201.13H463.151V214H463.451ZM463.301 200.98H461.411V201.28H463.301V200.98ZM458.891 212.572C458.116 212.572 457.525 212.221 457.124 211.654C456.719 211.083 456.503 210.288 456.503 209.41H456.203C456.203 210.332 456.429 211.193 456.879 211.828C457.332 212.467 458.011 212.872 458.891 212.872V212.572ZM456.503 209.41C456.503 208.532 456.719 207.737 457.124 207.166C457.525 206.599 458.116 206.248 458.891 206.248V205.948C458.011 205.948 457.332 206.353 456.879 206.992C456.429 207.627 456.203 208.488 456.203 209.41H456.503ZM458.891 206.248C459.62 206.248 460.2 206.542 460.603 207.075C461.009 207.612 461.243 208.405 461.243 209.41H461.543C461.543 208.363 461.3 207.5 460.842 206.894C460.381 206.284 459.711 205.948 458.891 205.948V206.248ZM461.243 209.41C461.243 210.406 461.009 211.199 460.603 211.739C460.2 212.274 459.619 212.572 458.891 212.572V212.872C459.711 212.872 460.382 212.531 460.843 211.919C461.3 211.311 461.543 210.448 461.543 209.41H461.243ZM464.915 204.802V204.652H464.765V204.802H464.915ZM464.915 214H464.765V214.15H464.915V214ZM466.805 214V214.15H466.955V214H466.805ZM466.805 204.802H466.955V204.652H466.805V204.802ZM465.851 203.404C466.161 203.404 466.467 203.304 466.697 203.107C466.931 202.908 467.081 202.614 467.081 202.246H466.781C466.781 202.526 466.67 202.736 466.503 202.879C466.333 203.024 466.099 203.104 465.851 203.104V203.404ZM467.081 202.246C467.081 201.878 466.931 201.588 466.696 201.393C466.464 201.2 466.159 201.106 465.851 201.106V201.406C466.101 201.406 466.335 201.483 466.504 201.623C466.67 201.761 466.781 201.966 466.781 202.246H467.081ZM465.851 201.106C465.273 201.106 464.639 201.49 464.639 202.246H464.939C464.939 201.706 465.384 201.406 465.851 201.406V201.106ZM464.639 202.246C464.639 202.998 465.269 203.404 465.851 203.404V203.104C465.389 203.104 464.939 202.79 464.939 202.246H464.639ZM464.765 204.802V214H465.065V204.802H464.765ZM464.915 214.15H466.805V213.85H464.915V214.15ZM466.955 214V204.802H466.655V214H466.955ZM466.805 204.652H464.915V204.952H466.805V204.652ZM469.95 209.896V209.746H469.8V209.896H469.95ZM477.006 209.896V210.046H477.156V209.896H477.006ZM476.862 211.192L477.007 211.231L477.058 211.042H476.862V211.192ZM474.972 211.192V211.042H474.86L474.828 211.15L474.972 211.192ZM475.116 208.492V208.642H475.266V208.492H475.116ZM469.95 208.492H469.8V208.642H469.95V208.492ZM472.614 212.572C471.818 212.572 471.194 212.269 470.767 211.79C470.338 211.308 470.1 210.639 470.1 209.896H469.8C469.8 210.701 470.058 211.445 470.542 211.989C471.029 212.536 471.736 212.872 472.614 212.872V212.572ZM469.95 210.046H477.006V209.746H469.95V210.046ZM477.156 209.896C477.156 208.239 476.788 206.864 476.023 205.901C475.255 204.933 474.101 204.4 472.578 204.4V204.7C474.025 204.7 475.086 205.202 475.789 206.088C476.496 206.979 476.856 208.277 476.856 209.896H477.156ZM472.578 204.4C471.157 204.4 469.985 204.881 469.17 205.757C468.356 206.633 467.91 207.887 467.91 209.41H468.21C468.21 207.945 468.638 206.769 469.39 205.962C470.14 205.155 471.227 204.7 472.578 204.7V204.4ZM467.91 209.41C467.91 210.88 468.356 212.134 469.181 213.022C470.007 213.911 471.201 214.42 472.668 214.42V214.12C471.274 214.12 470.163 213.639 469.401 212.818C468.637 211.996 468.21 210.82 468.21 209.41H467.91ZM472.668 214.42C473.877 214.42 474.842 214.078 475.567 213.503C476.291 212.929 476.766 212.13 477.007 211.231L476.717 211.153C476.49 212 476.047 212.74 475.381 213.268C474.715 213.796 473.818 214.12 472.668 214.12V214.42ZM476.862 211.042H474.972V211.342H476.862V211.042ZM474.828 211.15C474.681 211.657 474.101 212.572 472.614 212.572V212.872C474.26 212.872 474.94 211.843 475.116 211.234L474.828 211.15ZM472.578 206.194C473.309 206.194 473.904 206.438 474.316 206.842C474.728 207.245 474.966 207.817 474.966 208.492H475.266C475.266 207.745 475.001 207.093 474.526 206.628C474.051 206.163 473.378 205.894 472.578 205.894V206.194ZM475.116 208.342H469.95V208.642H475.116V208.342ZM470.1 208.492C470.1 207.163 471.121 206.194 472.578 206.194V205.894C470.975 205.894 469.8 206.977 469.8 208.492H470.1ZM482.1 208.438L482.134 208.292L482.134 208.292L482.1 208.438ZM483.45 207.502L483.302 207.528L483.324 207.652H483.45V207.502ZM485.286 207.502V207.652H485.448L485.436 207.49L485.286 207.502ZM481.272 209.986L481.307 209.84L481.306 209.84L481.272 209.986ZM479.382 210.94L479.531 210.926L479.519 210.79H479.382V210.94ZM477.546 210.94V210.79H477.389L477.396 210.947L477.546 210.94ZM482.134 208.292C481.966 208.253 481.803 208.218 481.648 208.185C481.492 208.152 481.343 208.121 481.203 208.089C480.921 208.025 480.678 207.96 480.478 207.878C480.279 207.797 480.134 207.703 480.039 207.586C479.947 207.473 479.892 207.328 479.892 207.124H479.592C479.592 207.388 479.665 207.603 479.807 207.776C479.946 207.946 480.141 208.064 480.365 208.156C480.588 208.248 480.852 208.317 481.137 208.381C481.28 208.414 481.43 208.446 481.585 208.479C481.741 208.512 481.901 208.546 482.067 208.584L482.134 208.292ZM479.892 207.124C479.892 206.855 480.016 206.631 480.271 206.467C480.533 206.299 480.937 206.194 481.488 206.194V205.894C480.905 205.894 480.437 206.005 480.109 206.215C479.775 206.429 479.592 206.745 479.592 207.124H479.892ZM481.488 206.194C482.202 206.194 482.618 206.372 482.872 206.612C483.128 206.854 483.242 207.181 483.302 207.528L483.598 207.476C483.533 207.103 483.403 206.701 483.078 206.394C482.752 206.085 482.251 205.894 481.488 205.894V206.194ZM483.45 207.652H485.286V207.352H483.45V207.652ZM485.436 207.49C485.37 206.655 485.026 205.878 484.367 205.312C483.708 204.745 482.748 204.4 481.47 204.4V204.7C482.694 204.7 483.579 205.03 484.171 205.539C484.763 206.048 485.076 206.747 485.137 207.514L485.436 207.49ZM481.47 204.4C480.293 204.4 479.349 204.708 478.695 205.224C478.039 205.742 477.684 206.464 477.684 207.268H477.984C477.984 206.56 478.295 205.923 478.881 205.46C479.47 204.995 480.343 204.7 481.47 204.7V204.4ZM477.684 207.268C477.684 207.815 477.814 208.253 478.04 208.606C478.265 208.958 478.579 209.216 478.934 209.413C479.634 209.802 480.522 209.964 481.238 210.132L481.306 209.84C480.564 209.666 479.733 209.513 479.079 209.151C478.756 208.971 478.484 208.744 478.293 208.445C478.102 208.146 477.984 207.765 477.984 207.268H477.684ZM481.237 210.132C481.589 210.216 481.888 210.277 482.188 210.351C482.479 210.422 482.731 210.497 482.939 210.594C483.146 210.691 483.301 210.806 483.405 210.953C483.508 211.099 483.57 211.289 483.57 211.552H483.87C483.87 211.239 483.795 210.986 483.65 210.78C483.506 210.577 483.302 210.433 483.066 210.323C482.83 210.213 482.555 210.132 482.26 210.06C481.974 209.989 481.631 209.918 481.307 209.84L481.237 210.132ZM483.57 211.552C483.57 212.011 483.118 212.626 481.848 212.626V212.926C483.206 212.926 483.87 212.245 483.87 211.552H483.57ZM481.848 212.626C480.895 212.626 480.345 212.418 480.022 212.119C479.699 211.821 479.575 211.407 479.531 210.926L479.233 210.954C479.279 211.463 479.416 211.967 479.818 212.339C480.219 212.711 480.858 212.926 481.848 212.926V212.626ZM479.382 210.79H477.546V211.09H479.382V210.79ZM477.396 210.947C477.443 211.951 477.798 212.827 478.539 213.449C479.277 214.069 480.378 214.42 481.884 214.42V214.12C480.421 214.12 479.398 213.778 478.732 213.219C478.068 212.662 477.739 211.873 477.696 210.933L477.396 210.947ZM481.884 214.42C483.023 214.42 483.993 214.14 484.683 213.62C485.377 213.097 485.778 212.338 485.778 211.408H485.478C485.478 212.242 485.123 212.914 484.503 213.381C483.879 213.851 482.977 214.12 481.884 214.12V214.42ZM485.778 211.408C485.778 210.837 485.659 210.376 485.445 209.999C485.232 209.623 484.93 209.34 484.578 209.121C483.882 208.686 482.972 208.488 482.134 208.292L482.066 208.584C482.921 208.784 483.774 208.973 484.419 209.375C484.738 209.574 485 209.823 485.184 210.147C485.368 210.471 485.478 210.881 485.478 211.408H485.778ZM488.64 205.99V206.14H488.719L488.764 206.074L488.64 205.99ZM488.604 205.99H488.454V206.14H488.604V205.99ZM488.604 201.13H488.754V200.98H488.604V201.13ZM486.714 201.13V200.98H486.564V201.13H486.714ZM486.714 214H486.564V214.15H486.714V214ZM488.604 214V214.15H488.754V214H488.604ZM492.816 214H492.666V214.15H492.816V214ZM494.724 214V214.15H494.874V214H494.724ZM491.628 204.4C490.027 204.4 489.028 205.147 488.515 205.906L488.764 206.074C489.224 205.393 490.132 204.7 491.628 204.7V204.4ZM488.64 205.84H488.604V206.14H488.64V205.84ZM488.754 205.99V201.13H488.454V205.99H488.754ZM488.604 200.98H486.714V201.28H488.604V200.98ZM486.564 201.13V214H486.864V201.13H486.564ZM486.714 214.15H488.604V213.85H486.714V214.15ZM488.754 214V208.402H488.454V214H488.754ZM488.754 208.402C488.754 207.756 488.986 207.235 489.374 206.874C489.763 206.512 490.318 206.302 490.98 206.302V206.002C490.255 206.002 489.622 206.233 489.17 206.654C488.716 207.076 488.454 207.68 488.454 208.402H488.754ZM490.98 206.302C491.605 206.302 492.016 206.489 492.275 206.799C492.538 207.115 492.666 207.582 492.666 208.186H492.966C492.966 207.548 492.832 206.998 492.506 206.607C492.175 206.211 491.668 206.002 490.98 206.002V206.302ZM492.666 208.186V214H492.966V208.186H492.666ZM492.816 214.15H494.724V213.85H492.816V214.15ZM494.874 214V207.646H494.574V214H494.874ZM494.874 207.646C494.874 206.559 494.524 205.742 493.932 205.198C493.342 204.655 492.528 204.4 491.628 204.4V204.7C492.473 204.7 493.208 204.94 493.729 205.419C494.248 205.896 494.574 206.627 494.574 207.646H494.874ZM497.676 209.896V209.746H497.526V209.896H497.676ZM504.732 209.896V210.046H504.882V209.896H504.732ZM504.588 211.192L504.733 211.231L504.783 211.042H504.588V211.192ZM502.698 211.192V211.042H502.585L502.554 211.15L502.698 211.192ZM502.842 208.492V208.642H502.992V208.492H502.842ZM497.676 208.492H497.526V208.642H497.676V208.492ZM500.34 212.572C499.544 212.572 498.919 212.269 498.492 211.79C498.063 211.308 497.826 210.639 497.826 209.896H497.526C497.526 210.701 497.783 211.445 498.268 211.989C498.754 212.536 499.462 212.872 500.34 212.872V212.572ZM497.676 210.046H504.732V209.746H497.676V210.046ZM504.882 209.896C504.882 208.239 504.513 206.864 503.749 205.901C502.98 204.933 501.827 204.4 500.304 204.4V204.7C501.751 204.7 502.811 205.202 503.514 206.088C504.221 206.979 504.582 208.277 504.582 209.896H504.882ZM500.304 204.4C498.883 204.4 497.711 204.881 496.896 205.757C496.081 206.633 495.636 207.887 495.636 209.41H495.936C495.936 207.945 496.364 206.769 497.115 205.962C497.866 205.155 498.953 204.7 500.304 204.7V204.4ZM495.636 209.41C495.636 210.88 496.082 212.134 496.907 213.022C497.733 213.911 498.927 214.42 500.394 214.42V214.12C498.999 214.12 497.889 213.639 497.127 212.818C496.363 211.996 495.936 210.82 495.936 209.41H495.636ZM500.394 214.42C501.602 214.42 502.568 214.078 503.293 213.503C504.017 212.929 504.492 212.13 504.733 211.231L504.443 211.153C504.216 212 503.773 212.74 503.106 213.268C502.441 213.796 501.543 214.12 500.394 214.12V214.42ZM504.588 211.042H502.698V211.342H504.588V211.042ZM502.554 211.15C502.407 211.657 501.826 212.572 500.34 212.572V212.872C501.985 212.872 502.665 211.843 502.842 211.234L502.554 211.15ZM500.304 206.194C501.035 206.194 501.63 206.438 502.042 206.842C502.453 207.245 502.692 207.817 502.692 208.492H502.992C502.992 207.745 502.726 207.093 502.252 206.628C501.777 206.163 501.103 205.894 500.304 205.894V206.194ZM502.842 208.342H497.676V208.642H502.842V208.342ZM497.826 208.492C497.826 207.163 498.847 206.194 500.304 206.194V205.894C498.701 205.894 497.526 206.977 497.526 208.492H497.826ZM509.124 208.546L509.096 208.399L509.095 208.399L509.124 208.546ZM511.392 212.902V212.752H511.314L511.269 212.815L511.392 212.902ZM511.428 212.902L511.575 212.873L511.551 212.752H511.428V212.902ZM514.182 213.964L514.234 214.104L514.332 214.068V213.964H514.182ZM514.182 213.064H514.332V212.899L514.167 212.915L514.182 213.064ZM505.758 207.7L505.608 207.692L505.6 207.85H505.758V207.7ZM507.594 207.7V207.85H507.733L507.743 207.711L507.594 207.7ZM509.484 209.734L509.454 209.587L509.452 209.587L509.484 209.734ZM511.41 209.122H511.56V208.833L511.323 208.999L511.41 209.122ZM511.26 207.214C511.26 207.408 511.213 207.553 511.13 207.669C511.046 207.787 510.918 207.887 510.735 207.974C510.363 208.153 509.814 208.262 509.096 208.399L509.152 208.693C509.855 208.56 510.449 208.444 510.865 208.245C511.076 208.143 511.252 208.016 511.375 207.843C511.499 207.669 511.56 207.461 511.56 207.214H511.26ZM509.095 208.399C507.942 208.624 506.964 208.898 506.274 209.384C505.571 209.88 505.176 210.588 505.176 211.642H505.476C505.476 210.68 505.828 210.065 506.447 209.629C507.08 209.184 508.001 208.918 509.152 208.693L509.095 208.399ZM505.176 211.642C505.176 212.455 505.48 213.154 506.036 213.649C506.591 214.142 507.385 214.42 508.35 214.42V214.12C507.442 214.12 506.724 213.858 506.235 213.424C505.748 212.992 505.476 212.377 505.476 211.642H505.176ZM508.35 214.42C509.812 214.42 510.905 213.845 511.514 212.989L511.269 212.815C510.726 213.579 509.732 214.12 508.35 214.12V214.42ZM511.392 213.052H511.428V212.752H511.392V213.052ZM511.281 212.931C511.375 213.401 511.549 213.756 511.854 213.989C512.157 214.22 512.565 214.312 513.084 214.312V214.012C512.594 214.012 512.264 213.924 512.036 213.75C511.811 213.578 511.661 213.303 511.575 212.873L511.281 212.931ZM513.084 214.312C513.459 214.312 513.783 214.274 514.234 214.104L514.129 213.824C513.717 213.978 513.429 214.012 513.084 214.012V214.312ZM514.332 213.964V213.064H514.032V213.964H514.332ZM514.167 212.915C513.816 212.949 513.661 212.879 513.58 212.78C513.489 212.668 513.45 212.471 513.45 212.146H513.15C513.15 212.469 513.183 212.767 513.348 212.97C513.524 213.186 513.81 213.251 514.196 213.213L514.167 212.915ZM513.45 212.146V207.772H513.15V212.146H513.45ZM513.45 207.772C513.45 206.515 513.06 205.661 512.382 205.125C511.712 204.596 510.785 204.4 509.754 204.4V204.7C510.756 204.7 511.603 204.891 512.196 205.361C512.783 205.824 513.15 206.581 513.15 207.772H513.45ZM509.754 204.4C508.344 204.4 507.328 204.753 506.651 205.351C505.972 205.951 505.654 206.78 505.608 207.692L505.908 207.708C505.951 206.856 506.245 206.11 506.849 205.576C507.455 205.04 508.392 204.7 509.754 204.7V204.4ZM505.758 207.85H507.594V207.55H505.758V207.85ZM507.743 207.711C507.787 207.137 507.941 206.773 508.233 206.545C508.532 206.311 509.007 206.194 509.754 206.194V205.894C508.989 205.894 508.429 206.011 508.048 206.308C507.661 206.611 507.491 207.075 507.444 207.689L507.743 207.711ZM509.754 206.194C510.368 206.194 510.741 206.318 510.959 206.495C511.171 206.668 511.26 206.912 511.26 207.214H511.56C511.56 206.85 511.45 206.509 511.149 206.263C510.854 206.022 510.4 205.894 509.754 205.894V206.194ZM508.764 212.626C508.271 212.626 507.93 212.513 507.713 212.323C507.5 212.137 507.384 211.855 507.384 211.462H507.084C507.084 211.915 507.22 212.29 507.515 212.549C507.807 212.805 508.231 212.926 508.764 212.926V212.626ZM507.384 211.462C507.384 211.04 507.533 210.739 507.861 210.496C508.201 210.244 508.736 210.051 509.516 209.881L509.452 209.587C508.665 209.759 508.076 209.962 507.682 210.255C507.276 210.556 507.084 210.948 507.084 211.462H507.384ZM509.514 209.881C509.958 209.79 510.368 209.69 510.707 209.585C511.042 209.481 511.323 209.367 511.496 209.245L511.323 208.999C511.191 209.093 510.949 209.195 510.618 209.298C510.292 209.4 509.892 209.498 509.454 209.587L509.514 209.881ZM511.26 209.122V210.508H511.56V209.122H511.26ZM511.26 210.508C511.26 211.216 511.006 211.738 510.579 212.086C510.148 212.438 509.524 212.626 508.764 212.626V212.926C509.569 212.926 510.268 212.727 510.769 212.318C511.274 211.906 511.56 211.294 511.56 210.508H511.26ZM515.143 201.13V200.98H514.993V201.13H515.143ZM515.143 214H514.993V214.15H515.143V214ZM517.051 214V214.15H517.201V214H517.051ZM517.051 201.13H517.201V200.98H517.051V201.13ZM514.993 201.13V214H515.293V201.13H514.993ZM515.143 214.15H517.051V213.85H515.143V214.15ZM517.201 214V201.13H516.901V214H517.201ZM517.051 200.98H515.143V201.28H517.051V200.98ZM523.098 206.35V206.5H523.248V206.35H523.098ZM523.098 204.802H523.248V204.652H523.098V204.802ZM521.37 204.802H521.22V204.952H521.37V204.802ZM521.37 201.904H521.52V201.754H521.37V201.904ZM519.462 201.904V201.754H519.312V201.904H519.462ZM519.462 204.802V204.952H519.612V204.802H519.462ZM518.13 204.802V204.652H517.98V204.802H518.13ZM518.13 206.35H517.98V206.5H518.13V206.35ZM519.462 206.35H519.612V206.2H519.462V206.35ZM523.098 213.982L523.133 214.128L523.248 214.1V213.982H523.098ZM523.098 212.434H523.248V212.275L523.09 212.284L523.098 212.434ZM521.37 206.35V206.2H521.22V206.35H521.37ZM523.248 206.35V204.802H522.948V206.35H523.248ZM523.098 204.652H521.37V204.952H523.098V204.652ZM521.52 204.802V201.904H521.22V204.802H521.52ZM521.37 201.754H519.462V202.054H521.37V201.754ZM519.312 201.904V204.802H519.612V201.904H519.312ZM519.462 204.652H518.13V204.952H519.462V204.652ZM517.98 204.802V206.35H518.28V204.802H517.98ZM518.13 206.5H519.462V206.2H518.13V206.5ZM519.312 206.35V211.498H519.612V206.35H519.312ZM519.312 211.498C519.312 212.487 519.522 213.19 519.957 213.645C520.393 214.101 521.027 214.276 521.802 214.276V213.976C521.066 213.976 520.53 213.809 520.174 213.437C519.816 213.064 519.612 212.453 519.612 211.498H519.312ZM521.802 214.276C522.318 214.276 522.744 214.221 523.133 214.128L523.064 213.836C522.697 213.923 522.295 213.976 521.802 213.976V214.276ZM523.248 213.982V212.434H522.948V213.982H523.248ZM523.09 212.284C522.786 212.302 522.533 212.307 522.324 212.29C522.115 212.273 521.961 212.234 521.848 212.172C521.641 212.059 521.52 211.838 521.52 211.336H521.22C521.22 211.878 521.352 212.242 521.703 212.435C521.869 212.526 522.07 212.57 522.3 212.589C522.53 212.608 522.799 212.602 523.107 212.584L523.09 212.284ZM521.52 211.336V206.35H521.22V211.336H521.52ZM521.37 206.5H523.098V206.2H521.37V206.5ZM526.218 205.99V206.14H526.298L526.342 206.074L526.218 205.99ZM526.182 205.99H526.032V206.14H526.182V205.99ZM526.182 201.13H526.332V200.98H526.182V201.13ZM524.292 201.13V200.98H524.142V201.13H524.292ZM524.292 214H524.142V214.15H524.292V214ZM526.182 214V214.15H526.332V214H526.182ZM530.394 214H530.244V214.15H530.394V214ZM532.302 214V214.15H532.452V214H532.302ZM529.206 204.4C527.605 204.4 526.606 205.147 526.094 205.906L526.342 206.074C526.802 205.393 527.711 204.7 529.206 204.7V204.4ZM526.218 205.84H526.182V206.14H526.218V205.84ZM526.332 205.99V201.13H526.032V205.99H526.332ZM526.182 200.98H524.292V201.28H526.182V200.98ZM524.142 201.13V214H524.442V201.13H524.142ZM524.292 214.15H526.182V213.85H524.292V214.15ZM526.332 214V208.402H526.032V214H526.332ZM526.332 208.402C526.332 207.756 526.565 207.235 526.953 206.874C527.341 206.512 527.897 206.302 528.558 206.302V206.002C527.833 206.002 527.201 206.233 526.748 206.654C526.294 207.076 526.032 207.68 526.032 208.402H526.332ZM528.558 206.302C529.184 206.302 529.595 206.489 529.854 206.799C530.117 207.115 530.244 207.582 530.244 208.186H530.544C530.544 207.548 530.41 206.998 530.084 206.607C529.753 206.211 529.246 206.002 528.558 206.002V206.302ZM530.244 208.186V214H530.544V208.186H530.244ZM530.394 214.15H532.302V213.85H530.394V214.15ZM532.452 214V207.646H532.152V214H532.452ZM532.452 207.646C532.452 206.559 532.103 205.742 531.51 205.198C530.92 204.655 530.106 204.4 529.206 204.4V204.7C530.052 204.7 530.786 204.94 531.307 205.419C531.826 205.896 532.152 206.627 532.152 207.646H532.452Z" fill="white"/>
<circle cx="380" cy="207" r="25" fill="black"/>
<path d="M367.212 209.771C367.192 210.371 367.032 210.562 366.821 210.562C366.66 210.562 366.56 210.448 366.56 209.981V207.171C366.56 206.143 365.958 205.619 364.986 205.619C363.973 205.619 363.251 206.21 363.251 206.914C363.251 207.267 363.441 207.505 363.802 207.505C364.123 207.505 364.294 207.324 364.294 207.067C364.294 206.848 364.153 206.724 364.153 206.505C364.153 206.19 364.434 206 364.825 206C365.317 206 365.597 206.286 365.597 207.105V207.657C364.454 208.143 363 208.676 363 209.876C363 210.495 363.401 211 364.113 211C364.835 211 365.367 210.476 365.597 209.581V209.752C365.597 210.638 365.938 211 366.51 211C367.172 211 367.413 210.495 367.443 209.771H367.212ZM364.504 210.276C364.153 210.276 363.963 210.019 363.963 209.619C363.963 208.829 364.785 208.371 365.597 207.971V209.095C365.337 209.924 364.905 210.276 364.504 210.276Z" fill="#E6E6E6"/>
<path d="M368.794 203.133L368.644 203L367.119 203.705L367.22 203.914C367.821 203.629 367.821 203.752 367.821 204.362V209.867C367.821 210.476 367.721 210.619 367.109 210.619V210.848H369.496V210.619C368.885 210.619 368.794 210.476 368.794 209.867V203.133Z" fill="#E6E6E6"/>
<path d="M371.055 203.133L370.904 203L369.38 203.705L369.48 203.914C370.082 203.629 370.082 203.752 370.082 204.362V209.867C370.082 210.476 369.982 210.619 369.37 210.619V210.848H371.757V210.619C371.145 210.619 371.055 210.476 371.055 209.867V203.133Z" fill="#E6E6E6"/>
<path d="M372.075 210.352C372.616 210.8 373.338 210.99 373.91 210.99C375.294 210.99 376.046 209.876 376.046 208.095C376.046 206.524 375.454 205.629 374.562 205.629C373.94 205.629 373.469 205.99 373.098 206.524H373.058V203.133L372.917 203L372.175 203.362L371.403 203.724L371.513 203.924C372.095 203.648 372.075 203.771 372.075 204.39V210.352ZM373.058 206.99C373.308 206.6 373.649 206.286 374.05 206.286C374.622 206.286 374.993 206.914 374.993 208.257C374.993 209.705 374.612 210.552 373.91 210.552C373.519 210.552 373.218 210.295 373.058 210.057V206.99Z" fill="#E6E6E6"/>
<path d="M378.371 211C379.724 211 380.527 209.819 380.527 208.286C380.527 206.724 379.664 205.629 378.371 205.629C377.007 205.629 376.214 206.81 376.214 208.343C376.214 209.905 377.067 211 378.371 211ZM378.521 210.581C377.638 210.581 377.217 209.076 377.217 207.781C377.217 206.943 377.508 206.048 378.22 206.048C379.103 206.048 379.514 207.552 379.514 208.848C379.514 209.686 379.233 210.581 378.521 210.581Z" fill="#E6E6E6"/>
<path d="M385.261 210.248C384.639 210.476 384.629 210.352 384.629 209.714V203.133L384.499 203L382.964 203.724L383.065 203.924C383.666 203.648 383.656 203.762 383.656 204.381V206.162C383.436 205.829 383.025 205.629 382.523 205.629C381.42 205.629 380.698 206.81 380.698 208.476C380.698 209.981 381.29 211 382.252 211C382.904 211 383.355 210.619 383.616 210.057H383.656V210.838L383.867 211L385.351 210.467L385.261 210.248ZM382.674 210.333C382.012 210.333 381.731 209.457 381.731 208.248C381.731 207.057 382.032 206.124 382.734 206.124C383.355 206.124 383.656 206.886 383.656 207.819V209.581C383.406 210.019 383.115 210.333 382.674 210.333Z" fill="#E6E6E6"/>
<path d="M386.352 204.695C386.723 204.695 386.994 204.448 386.994 204.114C386.994 203.771 386.723 203.524 386.352 203.524C385.971 203.524 385.7 203.771 385.7 204.114C385.7 204.448 385.971 204.695 386.352 204.695ZM386.914 205.752L386.743 205.61L385.269 206.171L385.359 206.39C385.941 206.162 385.951 206.295 385.951 206.933V209.867C385.951 210.476 385.851 210.619 385.239 210.619V210.848H387.626V210.619C387.014 210.619 386.914 210.476 386.914 209.867V205.752Z" fill="#E6E6E6"/>
<path d="M390.999 208.81C390.758 209.962 390.237 210.295 389.786 210.295C388.953 210.295 388.532 209.381 388.532 208.086V208.067H391.18C391.18 206.676 390.628 205.629 389.455 205.629C388.261 205.629 387.559 206.905 387.559 208.41C387.559 209.981 388.271 211 389.405 211C390.347 211 391.029 210.343 391.24 208.81H390.999ZM389.455 206.029C390.046 206.029 390.217 206.762 390.217 207.676H388.542C388.602 206.724 388.853 206.029 389.455 206.029Z" fill="#E6E6E6"/>
<path d="M393.112 211C393.884 211 394.556 210.552 394.556 209.61C394.556 208.886 394.124 208.476 393.222 207.8C392.52 207.276 392.259 207.067 392.259 206.667C392.259 206.286 392.52 206.029 392.921 206.029C393.593 206.029 394.034 206.619 394.155 207.362H394.375L394.335 205.695H394.104L394.044 205.905C394.014 206.019 393.914 206.067 393.783 205.952C393.603 205.81 393.292 205.629 392.841 205.629C392.048 205.629 391.447 206.143 391.447 206.933C391.447 207.476 391.738 207.848 392.59 208.486C393.523 209.2 393.733 209.381 393.733 209.81C393.733 210.295 393.483 210.6 393.011 210.6C392.319 210.6 391.748 209.971 391.597 208.838H391.377L391.447 210.895H391.667L391.748 210.705C391.808 210.59 391.888 210.562 392.018 210.657C392.229 210.8 392.6 211 393.112 211Z" fill="#E6E6E6"/>
<path d="M395.408 211C395.729 211 396 210.752 396 210.438C396 210.133 395.729 209.876 395.408 209.876C395.077 209.876 394.817 210.133 394.817 210.438C394.817 210.752 395.077 211 395.408 211Z" fill="#E6E6E6"/>
<rect x="360" y="166" width="83" height="2" fill="#D9D9D9"/>
<rect opacity="0.35" x="453" y="166" width="83" height="2" fill="#D9D9D9"/>
<rect opacity="0.35" x="545" y="166" width="83" height="2" fill="#D9D9D9"/>
<rect opacity="0.35" x="638" y="166" width="83" height="2" fill="#D9D9D9"/>
</svg>
