<svg xmlns="http://www.w3.org/2000/svg" xmlns:xlink="http://www.w3.org/1999/xlink" width="25" height="127" fill="none" xmlns:v="https://vecta.io/nano"><g fill="#cecece"><path d="M6.072 119.619H.42v1.416h5.652c1.296 0 1.884.648 1.884 1.968 0 1.308-.588 1.956-1.884 1.956H.42v1.428h5.652c1.872 0 3.108-.996 3.108-3.384s-1.236-3.384-3.108-3.384zm-1.452-3.133L9 119.39v-1.668l-3.348-2.04v-.012L9 113.618v-1.668l-4.404 2.904-4.176-2.688v1.548l3.168 1.956v.012L.42 117.626v1.548l4.2-2.688zM9 109.777v-3.372c0-2.376-1.524-3.78-4.284-3.78S.42 104.077.42 106.441v3.336H9zm-7.368-1.428v-1.836c0-1.92 1.44-2.46 3.084-2.46s3.072.54 3.072 2.46v1.836H1.632zm6.516-8.968c0 1.115-.852 1.776-1.884 1.776v-4.704c-2.184 0-3.564.972-3.564 2.952 0 1.847 1.248 3.011 3.24 3.011 1.92 0 3.24-1.164 3.24-3.072 0-1.572-.888-2.484-2.052-2.796v1.26c.372.108 1.02.528 1.02 1.572zm-4.452.024c0-1.02.684-1.692 1.632-1.692v3.444c-.948 0-1.632-.732-1.632-1.752z"/><use xlink:href="#B"/><use xlink:href="#C"/><use xlink:href="#D"/><use xlink:href="#E"/><use xlink:href="#F"/><path d="M2.724 67.381c0 .804.528 1.308 1.296 1.632v.024H2.868v1.26H9v-1.26H5.868c-1.308 0-2.124-.972-1.92-2.184v-.024H2.76c-.024.18-.036.336-.036.552z"/><use xlink:href="#B" y="-31.375"/><path d="M2.7 56.147c0 .96.456 1.56.888 1.884v.024h-.72v1.272h8.22v-1.272h-2.82v-.024c.456-.324.912-.924.912-1.884 0-1.56-1.224-2.724-3.24-2.724S2.7 54.587 2.7 56.147zm5.448.24c0 1.02-.852 1.656-2.208 1.656-1.368 0-2.208-.636-2.208-1.656 0-1.104 1.008-1.692 2.208-1.692s2.208.588 2.208 1.692z"/><use xlink:href="#F" y="-23.335"/><path d="M5.112 42.738v-1.26c-1.392.156-2.412 1.2-2.412 2.796 0 1.824 1.32 3.012 3.24 3.012s3.24-1.188 3.24-3.024c0-1.596-1.044-2.688-2.46-2.784v1.26c.684.048 1.428.444 1.428 1.524 0 1.248-1.056 1.764-2.208 1.764s-2.208-.528-2.208-1.764c0-1.08.756-1.476 1.38-1.524z"/><use xlink:href="#C" y="-49.575"/><path d="M4.476 35.273c.588 0 .708.576.888 1.524.3 1.536.72 2.532 2.064 2.532 1.032 0 1.752-.768 1.752-2.016 0-.948-.372-1.644-.912-2.028v-.024c.6-.12.84-.432.84-1.104 0-.24-.024-.444-.132-.732h-.6c.048.492-.18.588-.612.588H4.848c-1.632 0-2.148 1.008-2.148 2.364 0 1.848.924 2.604 2.1 2.664v-1.224c-.792-.06-1.104-.432-1.104-1.44 0-.84.336-1.104.78-1.104zm3.708 1.764c0 .684-.312 1.02-.876 1.02-.624 0-.924-.456-1.152-1.5-.12-.588-.264-1.08-.408-1.284h.924c.996 0 1.512.72 1.512 1.764z"/><path d="M.42 33.144H9v-1.272H.42v1.272z"/><use xlink:href="#C" y="-59.479"/><path d="M8.064 29.305H9v-5.124H7.968v3.504h-.024l-4.236-3.372h-.84v4.776H3.9v-3.084h.024l4.14 3.3z"/><use xlink:href="#C" y="-66.933"/><use xlink:href="#E" y="-60.71"/><use xlink:href="#D" y="-72.945"/><use xlink:href="#C" y="-83.118"/><path d="M2.7 2.138c0 1.056.48 1.692.96 2.016v.024h-.792v1.26H9v-1.26H5.268c-.912 0-1.5-.624-1.5-1.596 0-.864.528-1.212 1.356-1.212H9V.098H4.764C3.36.098 2.7.998 2.7 2.138zm10.72 124.789l8.58-2.928v-1.548l-8.58-2.928v1.512l7.02 2.184v.012l-7.02 2.184v1.512z"/><use xlink:href="#G"/><use xlink:href="#B" x="13" y="21.118"/><path d="M15.868 107.788H19.6c.912 0 1.5.624 1.5 1.596 0 .864-.528 1.212-1.356 1.212h-3.876v1.272h4.236c1.404 0 2.064-.9 2.064-2.04 0-1.056-.48-1.692-.96-2.016v-.024H22v-1.26h-6.132v1.26zm1.608-5.689c.588 0 .708.576.888 1.524.3 1.536.72 2.532 2.064 2.532 1.032 0 1.752-.768 1.752-2.016 0-.948-.372-1.644-.912-2.028v-.024c.6-.12.84-.432.84-1.104 0-.24-.024-.444-.132-.732h-.6c.048.492-.18.588-.612.588h-2.916c-1.632 0-2.148 1.008-2.148 2.364 0 1.848.924 2.604 2.1 2.664v-1.224c-.792-.06-1.104-.432-1.104-1.44 0-.84.336-1.104.78-1.104zm3.708 1.764c0 .684-.312 1.02-.876 1.02-.624 0-.924-.456-1.152-1.5-.12-.588-.264-1.08-.408-1.284h.924c.996 0 1.512.72 1.512 1.764z"/><path d="M13.42 99.97H22v-1.272h-8.58v1.272zM22 96.018v-3.372c0-2.376-1.524-3.78-4.284-3.78s-4.296 1.452-4.296 3.816v3.336H22zm-7.368-1.428v-1.836c0-1.92 1.44-2.46 3.084-2.46s3.072.54 3.072 2.46v1.836h-6.156z"/><use xlink:href="#F" x="13" y="12.012"/><use xlink:href="#B" x="13" y="-13.76"/><use xlink:href="#G" y="-42.391"/><path d="M15.868 70.548h.72v.024c-.432.324-.888.888-.888 1.86 0 1.536 1.056 2.688 3 2.688 1.932 0 3-1.152 3-2.688 0-.972-.456-1.536-.912-1.86v-.024h.744c1.104 0 1.584.54 1.584 1.596 0 .996-.408 1.428-.948 1.548v1.272c1.032-.132 1.956-1.104 1.956-2.868 0-1.74-.78-2.808-2.544-2.808h-5.712v1.26zm4.8 1.644c0 1.104-.84 1.668-1.968 1.668-1.14 0-1.968-.564-1.968-1.668 0-1.02.672-1.632 1.968-1.632s1.968.612 1.968 1.632zM15.7 65.273c0 1.056.48 1.692.96 2.016v.024h-.792v1.26H22v-1.26h-3.732c-.912 0-1.5-.624-1.5-1.596 0-.864.528-1.212 1.356-1.212H22v-1.272h-4.236c-1.404 0-2.064.9-2.064 2.04z"/></g><defs ><path id="B" d="M5.292 93.417c-.204.888-.252 1.572-.876 1.572-.432 0-.72-.408-.72-1.164 0-.984.492-1.224.972-1.308v-1.224c-1.068.084-1.968.876-1.968 2.544 0 1.536.804 2.424 1.812 2.424 1.392 0 1.584-1.32 1.812-2.292.216-.9.276-1.632 1.044-1.632.384 0 .816.372.816 1.248 0 1.296-.564 1.584-1.224 1.644v1.224c1.296-.06 2.22-.912 2.22-2.892 0-1.488-.732-2.496-1.908-2.496-1.464 0-1.716 1.224-1.98 2.352z"/><path id="C" d="M1.836 89.993c0-.372-.24-.72-.672-.72s-.66.348-.66.72c0 .348.228.708.66.708s.672-.36.672-.708zm1.032.624H9v-1.26H2.868v1.26z"/><path id="D" d="M2.868 84.308h.72v.024c-.432.324-.888.888-.888 1.86 0 1.536 1.056 2.688 3 2.688 1.932 0 3-1.152 3-2.688 0-.972-.456-1.536-.912-1.86v-.024h.744c1.104 0 1.584.54 1.584 1.596 0 .996-.408 1.428-.948 1.548v1.272c1.032-.132 1.956-1.104 1.956-2.868 0-1.74-.78-2.808-2.544-2.808H2.868v1.26zm4.8 1.644c0 1.104-.84 1.668-1.968 1.668-1.14 0-1.968-.564-1.968-1.668 0-1.02.672-1.632 1.968-1.632s1.968.612 1.968 1.632z"/><path id="E" d="M2.7 79.033c0 1.056.48 1.692.96 2.016v.024h-.792v1.26H9v-1.26H5.268c-.912 0-1.5-.624-1.5-1.596 0-.864.528-1.212 1.356-1.212H9v-1.272H4.764c-1.404 0-2.064.9-2.064 2.04z"/><path id="F" d="M8.148 73.609c0 1.116-.852 1.776-1.884 1.776v-4.704c-2.184 0-3.564.972-3.564 2.952 0 1.848 1.248 3.012 3.24 3.012 1.92 0 3.24-1.164 3.24-3.072 0-1.572-.888-2.484-2.052-2.796v1.26c.372.108 1.02.528 1.02 1.572zm-4.452.024c0-1.02.684-1.692 1.632-1.692v3.444c-.948 0-1.632-.732-1.632-1.752z"/><path id="G" d="M14.836 118.624c0-.372-.24-.72-.672-.72s-.66.348-.66.72c0 .348.228.708.66.708s.672-.36.672-.708zm1.032.624H22v-1.26h-6.132v1.26z"/></defs></svg>