<svg width="96" height="96" viewBox="0 0 96 96" fill="none" xmlns="http://www.w3.org/2000/svg">
<circle cx="48.0273" cy="48.0254" r="47.5" fill="#131313"/>
<g style="mix-blend-mode:difference">
<path d="M27.976 44.0079H28.8685C28.741 42.9129 27.916 42.0504 26.5585 42.0504C25.0135 42.0504 24.0385 43.2279 24.0385 44.8404C24.0385 46.4604 25.0135 47.6379 26.5585 47.6379C27.9235 47.6379 28.7485 46.7754 28.8685 45.5679H27.976C27.916 46.2204 27.5335 46.8729 26.536 46.8729C25.381 46.8729 24.9235 45.9054 24.9235 44.8404C24.9235 43.7829 25.381 42.8154 26.536 42.8154C27.526 42.8154 27.8785 43.4679 27.976 44.0079ZM32.3672 46.2579L32.8022 47.5254H33.7097L31.7447 42.1629H30.8072L28.8347 47.5254H29.7422L30.1772 46.2579H32.3672ZM30.4247 45.5154L31.2722 42.9804H31.2872L32.1272 45.5154H30.4247ZM34.0704 47.5254H34.9629V43.5129H34.9779L37.4004 47.5254H38.3904V42.1629H37.4979V46.1904H37.4829L35.0679 42.1629H34.0704V47.5254ZM39.4661 43.0704C39.4661 43.3554 39.2861 43.5879 39.0086 43.6404V44.0679C39.6611 43.9629 39.9311 43.3404 39.9311 42.7929C39.9311 42.3729 39.7586 42.1029 39.4211 42.1029C39.1511 42.1029 38.9336 42.2829 38.9336 42.6054C38.9336 42.9579 39.1736 43.1229 39.4661 43.0704ZM42.0139 47.5254H42.9064V42.9204H44.6164V42.1629H40.2964V42.9204H42.0139V47.5254ZM46.3537 47.5254H47.2462V45.4554H48.5587C49.8487 45.4554 49.3462 47.3004 49.5937 47.5254H50.5312V47.4729C50.2462 47.3829 50.6962 45.2829 49.4587 45.0504V45.0354C50.0737 44.8854 50.4562 44.4504 50.4562 43.7004C50.4562 42.7254 49.7437 42.1629 48.6412 42.1629H46.3537V47.5254ZM47.2462 42.9204H48.4537C49.0012 42.9204 49.5712 43.0329 49.5712 43.8054C49.5712 44.5854 49.0012 44.6904 48.4537 44.6904H47.2462V42.9204ZM51.9302 44.3754V42.9204H54.9152V42.1629H51.0377V47.5254H54.9902V46.7679H51.9302V45.1404H54.5477V44.3754H51.9302ZM55.1554 42.1629L56.9854 47.5254H57.9529L59.7829 42.1629H58.8379L57.4729 46.5504H57.4654L56.1004 42.1629H55.1554ZM61.0272 44.3754V42.9204H64.0122V42.1629H60.1347V47.5254H64.0872V46.7679H61.0272V45.1404H63.6447V44.3754H61.0272ZM67.8434 46.2579L68.2784 47.5254H69.1859L67.2209 42.1629H66.2834L64.3109 47.5254H65.2184L65.6534 46.2579H67.8434ZM65.9009 45.5154L66.7484 42.9804H66.7634L67.6034 45.5154H65.9009ZM69.5466 42.1629V47.5254H73.1166V46.7679H70.4391V42.1629H69.5466ZM35.7151 53.8454V50.1629H34.8301V53.8454C34.8301 54.4454 34.7101 54.8729 34.0426 54.8729C33.3676 54.8729 33.2626 54.4454 33.2626 53.8454V53.5979H32.4151V53.8454C32.4151 54.7679 32.7751 55.6379 34.0651 55.6379C35.3551 55.6379 35.7151 54.7679 35.7151 53.8454ZM40.5729 53.6954V50.1629H39.6879V53.6954C39.6879 54.5054 39.2829 54.8729 38.4579 54.8729C37.6404 54.8729 37.2354 54.5054 37.2354 53.6954V50.1629H36.3429V53.6954C36.3429 54.8654 36.9654 55.6379 38.4579 55.6379C39.9504 55.6379 40.5729 54.8654 40.5729 53.6954ZM43.3615 52.3304C42.6115 52.1429 42.109 52.0379 42.109 51.4529C42.109 51.0554 42.4915 50.8154 43.129 50.8154C43.8715 50.8154 44.2615 51.1454 44.344 51.7679H45.2365C45.1615 50.6654 44.3065 50.0504 43.129 50.0504C41.959 50.0504 41.224 50.5829 41.224 51.5354C41.224 52.5554 42.1315 52.8779 42.9715 53.0879C44.029 53.3504 44.4865 53.4704 44.4865 54.1079C44.4865 54.5204 44.179 54.8729 43.384 54.8729C42.424 54.8729 41.959 54.4229 41.914 53.7404H41.0215C41.074 54.9554 42.0715 55.6379 43.384 55.6379C44.734 55.6379 45.379 54.9254 45.379 54.0704C45.379 52.8704 44.509 52.6229 43.3615 52.3304ZM47.0934 55.5254H47.9859V50.9204H49.6959V50.1629H45.3759V50.9204H47.0934V55.5254ZM51.0282 50.1629L52.9332 53.3954V55.5254H53.8257V53.3954L55.7307 50.1629H54.7782L53.3832 52.6529H53.3682L51.9807 50.1629H51.0282ZM56.9804 52.3754V50.9204H59.9654V50.1629H56.0879V55.5254H60.0404V54.7679H56.9804V53.1404H59.5979V52.3754H56.9804ZM62.028 55.5254H62.9205V50.9204H64.6305V50.1629H60.3105V50.9204H62.028V55.5254Z" fill="white"/>
</g>
</svg>
