<svg xmlns="http://www.w3.org/2000/svg" fill="none" width="95" height="96" viewBox="0 0 95 96"><circle fill="#131313" cx="47.5" cy="48.025" r="47.5"/><path d="M27.449 44.008h.892c-.127-1.095-.952-1.958-2.31-1.958-1.545 0-2.52 1.178-2.52 2.79 0 1.62.975 2.798 2.52 2.798 1.365 0 2.19-.863 2.31-2.07h-.892c-.06.652-.443 1.305-1.44 1.305-1.155 0-1.613-.968-1.613-2.033 0-1.057.458-2.025 1.613-2.025.99 0 1.342.653 1.44 1.193Zm4.39 2.25.436 1.267h.907l-1.965-5.362h-.937l-1.973 5.362h.908l.435-1.267h2.19Zm-1.942-.743.848-2.535h.015l.84 2.535h-1.703Zm3.646 2.01h.892v-4.012h.015l2.423 4.012h.99v-5.362h-.892v4.027h-.015l-2.416-4.027h-.997v5.362Zm5.396-4.455a.56.56 0 0 1-.458.57v.428c.653-.105.923-.728.923-1.275 0-.42-.173-.69-.51-.69-.27 0-.488.18-.488.502 0 .353.24.518.533.465Zm2.547 4.455h.893V42.92h1.71v-.757h-4.32v.757h1.718v4.605Zm4.34 0h.893v-2.07h1.312c1.29 0 .788 1.845 1.035 2.07h.938v-.052c-.285-.09.165-2.19-1.073-2.423v-.015c.615-.15.998-.585.998-1.335 0-.975-.713-1.537-1.815-1.537h-2.288v5.362Zm.893-4.605h1.207c.548 0 1.118.113 1.118.885 0 .78-.57.885-1.118.885H46.72v-1.77Zm4.684 1.455V42.92h2.985v-.757H50.51v5.362h3.953v-.757h-3.06V45.14h2.617v-.765h-2.617Zm3.225-2.212 1.83 5.362h.968l1.83-5.362h-.946l-1.364 4.387h-.008l-1.365-4.387h-.945Zm5.872 2.212V42.92h2.985v-.757h-3.878v5.362h3.953v-.757H60.5V45.14h2.617v-.765H60.5Zm6.816 1.883.435 1.267h.908l-1.965-5.362h-.938l-1.972 5.362h.907l.435-1.267h2.19Zm-1.942-.743.847-2.535h.015l.84 2.535h-1.702Zm3.645-3.352v5.362h3.57v-.757h-2.677v-4.605h-.893ZM35.876 52.33c-.75-.187-1.253-.292-1.253-.877 0-.398.383-.638 1.02-.638.743 0 1.133.33 1.215.953h.893c-.075-1.103-.93-1.718-2.108-1.718-1.17 0-1.905.533-1.905 1.485 0 1.02.908 1.343 1.748 1.553 1.057.262 1.515.382 1.515 1.02 0 .412-.308.765-1.103.765-.96 0-1.425-.45-1.47-1.133h-.892c.052 1.215 1.05 1.898 2.362 1.898 1.35 0 1.995-.713 1.995-1.568 0-1.2-.87-1.447-2.017-1.74Zm4.993 3.308c1.613 0 2.633-1.185 2.633-2.798 0-1.612-1.02-2.79-2.633-2.79-1.62 0-2.632 1.178-2.632 2.79 0 1.613 1.012 2.798 2.632 2.798Zm0-.765c-1.23 0-1.747-.945-1.747-2.033 0-1.08.517-2.025 1.747-2.025s1.74.945 1.74 2.025c0 1.088-.51 2.033-1.74 2.033Zm3.192.652h.892v-2.07h1.313c1.29 0 .787 1.845 1.035 2.07h.937v-.052c-.285-.09.165-2.19-1.072-2.423v-.015c.615-.15.997-.585.997-1.335 0-.975-.712-1.537-1.815-1.537h-2.287v5.362Zm.892-4.605h1.208c.547 0 1.117.113 1.117.885 0 .78-.57.885-1.117.885h-1.208v-1.77Zm3.792 4.605h.892v-2.07h1.313c1.29 0 .787 1.845 1.035 2.07h.937v-.052c-.285-.09.165-2.19-1.072-2.423v-.015c.615-.15.997-.585.997-1.335 0-.975-.712-1.537-1.815-1.537h-2.287v5.362Zm.892-4.605h1.208c.547 0 1.117.113 1.117.885 0 .78-.57.885-1.117.885h-1.208v-1.77Zm3.255-.757 1.905 3.232v2.13h.893v-2.13l1.905-3.232h-.953l-1.395 2.49h-.015l-1.387-2.49h-.953Zm6.69 3.12c.27 0 .48-.188.48-.488a.467.467 0 0 0-.48-.487.469.469 0 0 0-.487.487c0 .3.21.488.488.488Zm0 2.302c.27 0 .48-.187.48-.487a.467.467 0 0 0-.48-.488.469.469 0 0 0-.487.488c0 .3.21.487.488.487Zm2.19-5.76c-.548.758-1.028 1.92-1.028 3.323 0 1.357.48 2.542 1.027 3.3h.69c-.472-.908-.855-1.943-.855-3.3 0-1.388.383-2.415.855-3.323h-.69Z" fill="#fff" style="mix-blend-mode:difference"/></svg>