<svg width="285" height="114" viewBox="0 0 285 114" fill="none" xmlns="http://www.w3.org/2000/svg">
<path d="M0 10C0 4.47715 4.47715 0 10 0H275C280.523 0 285 4.47715 285 10V85C285 90.5228 280.523 95 275 95H10C4.47715 95 0 90.5228 0 85V10Z" fill="#131313"/>
<path d="M15.732 25H19.104C21.48 25 22.884 23.476 22.884 20.716C22.884 17.956 21.432 16.42 19.068 16.42H15.732V25ZM17.16 17.632H18.996C20.916 17.632 21.456 19.072 21.456 20.716C21.456 22.36 20.916 23.788 18.996 23.788H17.16V17.632ZM27.4489 18.868V22.6C27.4489 23.512 26.8249 24.1 25.8529 24.1C24.9889 24.1 24.6409 23.572 24.6409 22.744V18.868H23.3689V23.104C23.3689 24.508 24.2689 25.168 25.4089 25.168C26.4649 25.168 27.1009 24.688 27.4249 24.208H27.4489V25H28.7089V18.868H27.4489ZM32.1411 24.148C31.0251 24.148 30.3651 23.296 30.3651 22.264H35.0691C35.0691 20.08 34.0971 18.7 32.1171 18.7C30.2691 18.7 29.1051 19.948 29.1051 21.94C29.1051 23.86 30.2691 25.18 32.1771 25.18C33.7491 25.18 34.6611 24.292 34.9731 23.128H33.7131C33.6051 23.5 33.1851 24.148 32.1411 24.148ZM32.1171 19.696C33.1371 19.696 33.8091 20.38 33.8091 21.328H30.3651C30.3651 20.38 31.0971 19.696 32.1171 19.696ZM42.0255 19.9V18.868H40.8735V16.936H39.6015V18.868H38.7135V19.9H39.6015V23.332C39.6015 24.628 40.1535 25.084 41.1615 25.084C41.4975 25.084 41.7735 25.048 42.0255 24.988V23.956C41.2095 24.004 40.8735 23.92 40.8735 23.224V19.9H42.0255ZM45.1626 25.18C43.2426 25.18 42.0786 23.848 42.0786 21.94C42.0786 20.032 43.2426 18.7 45.1626 18.7C47.0826 18.7 48.2466 20.032 48.2466 21.94C48.2466 23.848 47.0826 25.18 45.1626 25.18ZM45.1626 24.148C46.3626 24.148 46.9866 23.2 46.9866 21.94C46.9866 20.668 46.3626 19.732 45.1626 19.732C43.9626 19.732 43.3386 20.668 43.3386 21.94C43.3386 23.2 43.9626 24.148 45.1626 24.148ZM55.99 20.476C55.99 21.064 55.414 21.184 54.466 21.364C52.93 21.664 51.934 22.084 51.934 23.428C51.934 24.46 52.702 25.18 53.95 25.18C54.898 25.18 55.594 24.808 55.978 24.268H56.002C56.122 24.868 56.434 25.108 57.106 25.108C57.346 25.108 57.55 25.084 57.838 24.976V24.376C57.346 24.424 57.25 24.196 57.25 23.764V20.848C57.25 19.216 56.242 18.7 54.886 18.7C53.038 18.7 52.282 19.624 52.222 20.8H53.446C53.506 20.008 53.878 19.696 54.886 19.696C55.726 19.696 55.99 20.032 55.99 20.476ZM54.226 24.184C53.542 24.184 53.206 23.872 53.206 23.308C53.206 22.684 53.662 22.384 54.706 22.156C55.294 22.036 55.786 21.892 55.99 21.748V22.672C55.99 23.668 55.27 24.184 54.226 24.184ZM61.8715 25H63.2995V18.58H63.3235L67.1995 25H68.7835V16.42H67.3555V22.864H67.3315L63.4675 16.42H61.8715V25ZM72.5156 25.18C70.5956 25.18 69.4316 23.848 69.4316 21.94C69.4316 20.032 70.5956 18.7 72.5156 18.7C74.4356 18.7 75.5996 20.032 75.5996 21.94C75.5996 23.848 74.4356 25.18 72.5156 25.18ZM72.5156 24.148C73.7156 24.148 74.3396 23.2 74.3396 21.94C74.3396 20.668 73.7156 19.732 72.5156 19.732C71.3156 19.732 70.6916 20.668 70.6916 21.94C70.6916 23.2 71.3156 24.148 72.5156 24.148ZM79.2904 18.7C78.2344 18.7 77.5984 19.18 77.2744 19.66H77.2504V18.868H75.9904V25H77.2504V21.268C77.2504 20.356 77.8744 19.768 78.8464 19.768C79.7104 19.768 80.0584 20.296 80.0584 21.124V25H81.3304V20.764C81.3304 19.36 80.4304 18.7 79.2904 18.7ZM81.8346 21.364V22.54H85.0626V21.364H81.8346ZM85.7444 25H89.1164C91.4924 25 92.8964 23.476 92.8964 20.716C92.8964 17.956 91.4444 16.42 89.0804 16.42H85.7444V25ZM87.1724 17.632H89.0084C90.9284 17.632 91.4684 19.072 91.4684 20.716C91.4684 22.36 90.9284 23.788 89.0084 23.788H87.1724V17.632ZM94.1373 17.836C94.5093 17.836 94.8573 17.596 94.8573 17.164C94.8573 16.732 94.5093 16.504 94.1373 16.504C93.7893 16.504 93.4293 16.732 93.4293 17.164C93.4293 17.596 93.7893 17.836 94.1373 17.836ZM93.5133 18.868V25H94.7733V18.868H93.5133ZM98.2263 21.292C97.3383 21.088 96.6543 21.04 96.6543 20.416C96.6543 19.984 97.0623 19.696 97.8183 19.696C98.8023 19.696 99.0423 20.188 99.1263 20.668H100.35C100.266 19.6 99.4743 18.7 97.8063 18.7C96.2703 18.7 95.3823 19.504 95.3823 20.512C95.3823 21.904 96.7023 22.096 97.6743 22.324C98.5743 22.54 99.3063 22.6 99.3063 23.368C99.3063 23.752 98.9343 24.184 98.0583 24.184C96.7623 24.184 96.4743 23.62 96.4143 22.96H95.1903C95.2503 24.256 96.1023 25.18 98.0823 25.18C99.5703 25.18 100.578 24.448 100.578 23.272C100.578 21.808 99.3543 21.556 98.2263 21.292ZM105.26 21.112H106.52C106.364 19.72 105.32 18.7 103.724 18.7C101.9 18.7 100.712 20.02 100.712 21.94C100.712 23.86 101.9 25.18 103.736 25.18C105.332 25.18 106.424 24.136 106.52 22.72H105.26C105.212 23.404 104.816 24.148 103.736 24.148C102.488 24.148 101.972 23.092 101.972 21.94C101.972 20.788 102.5 19.732 103.736 19.732C104.816 19.732 105.212 20.488 105.26 21.112ZM106.896 16.42V25H108.168V16.42H106.896ZM111.672 25.18C109.752 25.18 108.588 23.848 108.588 21.94C108.588 20.032 109.752 18.7 111.672 18.7C113.592 18.7 114.756 20.032 114.756 21.94C114.756 23.848 113.592 25.18 111.672 25.18ZM111.672 24.148C112.872 24.148 113.496 23.2 113.496 21.94C113.496 20.668 112.872 19.732 111.672 19.732C110.472 19.732 109.848 20.668 109.848 21.94C109.848 23.2 110.472 24.148 111.672 24.148ZM117.798 21.292C116.91 21.088 116.226 21.04 116.226 20.416C116.226 19.984 116.634 19.696 117.39 19.696C118.374 19.696 118.614 20.188 118.698 20.668H119.922C119.838 19.6 119.046 18.7 117.378 18.7C115.842 18.7 114.954 19.504 114.954 20.512C114.954 21.904 116.274 22.096 117.246 22.324C118.146 22.54 118.878 22.6 118.878 23.368C118.878 23.752 118.506 24.184 117.63 24.184C116.334 24.184 116.046 23.62 115.986 22.96H114.762C114.822 24.256 115.674 25.18 117.654 25.18C119.142 25.18 120.15 24.448 120.15 23.272C120.15 21.808 118.926 21.556 117.798 21.292ZM124.546 18.868V22.6C124.546 23.512 123.922 24.1 122.95 24.1C122.086 24.1 121.738 23.572 121.738 22.744V18.868H120.466V23.104C120.466 24.508 121.366 25.168 122.506 25.168C123.562 25.168 124.198 24.688 124.522 24.208H124.546V25H125.806V18.868H124.546ZM129.442 18.724C128.638 18.724 128.134 19.252 127.81 20.02H127.786V18.868H126.526V25H127.786V21.868C127.786 20.56 128.758 19.744 129.97 19.948H129.994V18.76C129.814 18.736 129.658 18.724 129.442 18.724ZM132.836 24.148C131.72 24.148 131.06 23.296 131.06 22.264H135.764C135.764 20.08 134.792 18.7 132.812 18.7C130.964 18.7 129.8 19.948 129.8 21.94C129.8 23.86 130.964 25.18 132.872 25.18C134.444 25.18 135.356 24.292 135.668 23.128H134.408C134.3 23.5 133.88 24.148 132.836 24.148ZM132.812 19.696C133.832 19.696 134.504 20.38 134.504 21.328H131.06C131.06 20.38 131.792 19.696 132.812 19.696ZM144.917 22.972L145.613 25H147.065L143.921 16.42H142.421L139.265 25H140.717L141.413 22.972H144.917ZM141.809 21.784L143.165 17.728H143.189L144.533 21.784H141.809ZM151.307 18.868V19.588H151.283C150.959 19.156 150.395 18.7 149.423 18.7C147.887 18.7 146.735 19.756 146.735 21.7C146.735 23.632 147.887 24.7 149.423 24.7C150.395 24.7 150.959 24.244 151.283 23.788H151.307V24.532C151.307 25.636 150.767 26.116 149.711 26.116C148.715 26.116 148.283 25.708 148.163 25.168H146.891C147.023 26.2 147.995 27.124 149.759 27.124C151.499 27.124 152.567 26.344 152.567 24.58V18.868H151.307ZM149.663 23.668C148.559 23.668 147.995 22.828 147.995 21.7C147.995 20.56 148.559 19.732 149.663 19.732C150.683 19.732 151.295 20.404 151.295 21.7C151.295 22.996 150.683 23.668 149.663 23.668ZM156.198 18.724C155.394 18.724 154.89 19.252 154.566 20.02H154.542V18.868H153.282V25H154.542V21.868C154.542 20.56 155.514 19.744 156.726 19.948H156.75V18.76C156.57 18.736 156.414 18.724 156.198 18.724ZM159.592 24.148C158.476 24.148 157.816 23.296 157.816 22.264H162.52C162.52 20.08 161.548 18.7 159.568 18.7C157.72 18.7 156.556 19.948 156.556 21.94C156.556 23.86 157.72 25.18 159.628 25.18C161.2 25.18 162.112 24.292 162.424 23.128H161.164C161.056 23.5 160.636 24.148 159.592 24.148ZM159.568 19.696C160.588 19.696 161.26 20.38 161.26 21.328H157.816C157.816 20.38 158.548 19.696 159.568 19.696ZM165.616 24.148C164.5 24.148 163.84 23.296 163.84 22.264H168.544C168.544 20.08 167.572 18.7 165.592 18.7C163.744 18.7 162.58 19.948 162.58 21.94C162.58 23.86 163.744 25.18 165.652 25.18C167.224 25.18 168.136 24.292 168.448 23.128H167.188C167.08 23.5 166.66 24.148 165.616 24.148ZM165.592 19.696C166.612 19.696 167.284 20.38 167.284 21.328H163.84C163.84 20.38 164.572 19.696 165.592 19.696ZM175.696 18.7C174.748 18.7 174.148 19.168 173.692 19.756H173.668C173.416 19.096 172.9 18.7 172.036 18.7C171.112 18.7 170.536 19.18 170.212 19.66H170.188V18.868H168.928V25H170.188V21.268C170.188 20.356 170.728 19.768 171.568 19.768C172.444 19.768 172.612 20.296 172.612 21.124V25H173.884V21.268C173.884 20.356 174.412 19.768 175.264 19.768C176.128 19.768 176.296 20.296 176.296 21.124V25H177.568V20.764C177.568 19.444 176.932 18.7 175.696 18.7ZM180.969 24.148C179.853 24.148 179.193 23.296 179.193 22.264H183.897C183.897 20.08 182.925 18.7 180.945 18.7C179.097 18.7 177.933 19.948 177.933 21.94C177.933 23.86 179.097 25.18 181.005 25.18C182.577 25.18 183.489 24.292 183.801 23.128H182.541C182.433 23.5 182.013 24.148 180.969 24.148ZM180.945 19.696C181.965 19.696 182.637 20.38 182.637 21.328H179.193C179.193 20.38 179.925 19.696 180.945 19.696ZM187.581 18.7C186.525 18.7 185.889 19.18 185.565 19.66H185.541V18.868H184.281V25H185.541V21.268C185.541 20.356 186.165 19.768 187.137 19.768C188.001 19.768 188.349 20.296 188.349 21.124V25H189.621V20.764C189.621 19.36 188.721 18.7 187.581 18.7ZM193.104 19.9V18.868H191.952V16.936H190.68V18.868H189.792V19.9H190.68V23.332C190.68 24.628 191.232 25.084 192.24 25.084C192.576 25.084 192.852 25.048 193.104 24.988V23.956C192.288 24.004 191.952 23.92 191.952 23.224V19.9H193.104ZM194.388 25.084C194.388 25.54 194.1 25.912 193.656 25.996V26.68C194.7 26.512 195.132 25.516 195.132 24.64C195.132 23.968 194.856 23.536 194.316 23.536C193.884 23.536 193.536 23.824 193.536 24.34C193.536 24.904 193.92 25.168 194.388 25.084ZM199.532 16.42V25H200.96V16.42H199.532ZM209.694 21.112H210.954C210.798 19.72 209.754 18.7 208.158 18.7C206.334 18.7 205.146 20.02 205.146 21.94C205.146 23.86 206.334 25.18 208.17 25.18C209.766 25.18 210.858 24.136 210.954 22.72H209.694C209.646 23.404 209.25 24.148 208.17 24.148C206.922 24.148 206.406 23.092 206.406 21.94C206.406 20.788 206.934 19.732 208.17 19.732C209.25 19.732 209.646 20.488 209.694 21.112ZM215.131 20.476C215.131 21.064 214.555 21.184 213.607 21.364C212.071 21.664 211.075 22.084 211.075 23.428C211.075 24.46 211.843 25.18 213.091 25.18C214.039 25.18 214.735 24.808 215.119 24.268H215.143C215.263 24.868 215.575 25.108 216.247 25.108C216.487 25.108 216.691 25.084 216.979 24.976V24.376C216.487 24.424 216.391 24.196 216.391 23.764V20.848C216.391 19.216 215.383 18.7 214.027 18.7C212.179 18.7 211.423 19.624 211.363 20.8H212.587C212.647 20.008 213.019 19.696 214.027 19.696C214.867 19.696 215.131 20.032 215.131 20.476ZM213.367 24.184C212.683 24.184 212.347 23.872 212.347 23.308C212.347 22.684 212.803 22.384 213.847 22.156C214.435 22.036 214.927 21.892 215.131 21.748V22.672C215.131 23.668 214.411 24.184 213.367 24.184ZM220.536 18.7C219.48 18.7 218.844 19.18 218.52 19.66H218.496V18.868H217.236V25H218.496V21.268C218.496 20.356 219.12 19.768 220.092 19.768C220.956 19.768 221.304 20.296 221.304 21.124V25H222.576V20.764C222.576 19.36 221.676 18.7 220.536 18.7ZM223.734 17.872C223.734 18.328 223.446 18.7 223.002 18.784V19.468C224.046 19.3 224.478 18.304 224.478 17.428C224.478 16.756 224.202 16.324 223.662 16.324C223.23 16.324 222.882 16.612 222.882 17.128C222.882 17.692 223.266 17.956 223.734 17.872ZM228.017 19.9V18.868H226.865V16.936H225.593V18.868H224.705V19.9H225.593V23.332C225.593 24.628 226.145 25.084 227.153 25.084C227.489 25.084 227.765 25.048 228.017 24.988V23.956C227.201 24.004 226.865 23.92 226.865 23.224V19.9H228.017ZM235.013 18.724C234.209 18.724 233.705 19.252 233.381 20.02H233.357V18.868H232.097V25H233.357V21.868C233.357 20.56 234.329 19.744 235.541 19.948H235.565V18.76C235.385 18.736 235.229 18.724 235.013 18.724ZM238.407 24.148C237.291 24.148 236.631 23.296 236.631 22.264H241.335C241.335 20.08 240.363 18.7 238.383 18.7C236.535 18.7 235.371 19.948 235.371 21.94C235.371 23.86 236.535 25.18 238.443 25.18C240.015 25.18 240.927 24.292 241.239 23.128H239.979C239.871 23.5 239.451 24.148 238.407 24.148ZM238.383 19.696C239.403 19.696 240.075 20.38 240.075 21.328H236.631C236.631 20.38 237.363 19.696 238.383 19.696ZM240.979 18.868L243.151 25H244.579L246.751 18.868H245.419L243.871 23.668H243.859L242.311 18.868H240.979ZM249.436 24.148C248.32 24.148 247.66 23.296 247.66 22.264H252.364C252.364 20.08 251.392 18.7 249.412 18.7C247.564 18.7 246.4 19.948 246.4 21.94C246.4 23.86 247.564 25.18 249.472 25.18C251.044 25.18 251.956 24.292 252.268 23.128H251.008C250.9 23.5 250.48 24.148 249.436 24.148ZM249.412 19.696C250.432 19.696 251.104 20.38 251.104 21.328H247.66C247.66 20.38 248.392 19.696 249.412 19.696ZM256.456 20.476C256.456 21.064 255.88 21.184 254.932 21.364C253.396 21.664 252.4 22.084 252.4 23.428C252.4 24.46 253.168 25.18 254.416 25.18C255.364 25.18 256.06 24.808 256.444 24.268H256.468C256.588 24.868 256.9 25.108 257.572 25.108C257.812 25.108 258.016 25.084 258.304 24.976V24.376C257.812 24.424 257.716 24.196 257.716 23.764V20.848C257.716 19.216 256.708 18.7 255.352 18.7C253.504 18.7 252.748 19.624 252.688 20.8H253.912C253.972 20.008 254.344 19.696 255.352 19.696C256.192 19.696 256.456 20.032 256.456 20.476ZM254.692 24.184C254.008 24.184 253.672 23.872 253.672 23.308C253.672 22.684 254.128 22.384 255.172 22.156C255.76 22.036 256.252 21.892 256.456 21.748V22.672C256.456 23.668 255.736 24.184 254.692 24.184ZM258.584 16.42V25H259.856V16.42H258.584ZM19.308 32.476C19.308 33.064 18.732 33.184 17.784 33.364C16.248 33.664 15.252 34.084 15.252 35.428C15.252 36.46 16.02 37.18 17.268 37.18C18.216 37.18 18.912 36.808 19.296 36.268H19.32C19.44 36.868 19.752 37.108 20.424 37.108C20.664 37.108 20.868 37.084 21.156 36.976V36.376C20.664 36.424 20.568 36.196 20.568 35.764V32.848C20.568 31.216 19.56 30.7 18.204 30.7C16.356 30.7 15.6 31.624 15.54 32.8H16.764C16.824 32.008 17.196 31.696 18.204 31.696C19.044 31.696 19.308 32.032 19.308 32.476ZM17.544 36.184C16.86 36.184 16.524 35.872 16.524 35.308C16.524 34.684 16.98 34.384 18.024 34.156C18.612 34.036 19.104 33.892 19.308 33.748V34.672C19.308 35.668 18.588 36.184 17.544 36.184ZM24.713 30.7C23.657 30.7 23.021 31.18 22.697 31.66H22.673V30.868H21.413V37H22.673V33.268C22.673 32.356 23.297 31.768 24.269 31.768C25.133 31.768 25.481 32.296 25.481 33.124V37H26.753V32.764C26.753 31.36 25.853 30.7 24.713 30.7ZM32.72 30.868H31.376L29.804 35.56H29.78L28.064 30.868H26.708L28.928 36.376C29.156 36.952 28.988 37.432 28.76 37.708C28.484 38.044 28.088 38.08 27.56 38.008H27.452V38.968C27.692 39.028 27.992 39.088 28.352 39.088C29.528 39.088 29.924 38.332 30.272 37.384L32.72 30.868ZM43.0734 30.7C42.1254 30.7 41.5254 31.168 41.0694 31.756H41.0454C40.7934 31.096 40.2774 30.7 39.4134 30.7C38.4894 30.7 37.9134 31.18 37.5894 31.66H37.5654V30.868H36.3054V37H37.5654V33.268C37.5654 32.356 38.1054 31.768 38.9454 31.768C39.8214 31.768 39.9894 32.296 39.9894 33.124V37H41.2614V33.268C41.2614 32.356 41.7894 31.768 42.6414 31.768C43.5054 31.768 43.6734 32.296 43.6734 33.124V37H44.9454V32.764C44.9454 31.444 44.3094 30.7 43.0734 30.7ZM48.394 37.18C46.474 37.18 45.31 35.848 45.31 33.94C45.31 32.032 46.474 30.7 48.394 30.7C50.314 30.7 51.478 32.032 51.478 33.94C51.478 35.848 50.314 37.18 48.394 37.18ZM48.394 36.148C49.594 36.148 50.218 35.2 50.218 33.94C50.218 32.668 49.594 31.732 48.394 31.732C47.194 31.732 46.57 32.668 46.57 33.94C46.57 35.2 47.194 36.148 48.394 36.148ZM54.7848 30.724C53.9808 30.724 53.4768 31.252 53.1528 32.02H53.1288V30.868H51.8688V37H53.1288V33.868C53.1288 32.56 54.1008 31.744 55.3128 31.948H55.3368V30.76C55.1568 30.736 55.0008 30.724 54.7848 30.724ZM58.1789 36.148C57.0629 36.148 56.4029 35.296 56.4029 34.264H61.1069C61.1069 32.08 60.1349 30.7 58.1549 30.7C56.3069 30.7 55.1429 31.948 55.1429 33.94C55.1429 35.86 56.3069 37.18 58.2149 37.18C59.7869 37.18 60.6989 36.292 61.0109 35.128H59.7509C59.6429 35.5 59.2229 36.148 58.1789 36.148ZM58.1549 31.696C59.1749 31.696 59.8469 32.38 59.8469 33.328H56.4029C56.4029 32.38 57.1349 31.696 58.1549 31.696ZM69.2528 28.42V31.612H69.2288C68.9048 31.144 68.3048 30.7 67.3568 30.7C65.7848 30.7 64.6208 31.924 64.6208 33.94C64.6208 35.956 65.7848 37.18 67.3568 37.18C68.3048 37.18 68.9048 36.712 69.2288 36.292H69.2528V37H70.5128V28.42H69.2528ZM67.5728 36.148C66.4688 36.148 65.8808 35.14 65.8808 33.94C65.8808 32.74 66.4688 31.732 67.5728 31.732C68.6048 31.732 69.2408 32.572 69.2408 33.94C69.2408 35.296 68.6048 36.148 67.5728 36.148ZM73.9502 36.148C72.8342 36.148 72.1742 35.296 72.1742 34.264H76.8782C76.8782 32.08 75.9062 30.7 73.9262 30.7C72.0782 30.7 70.9142 31.948 70.9142 33.94C70.9142 35.86 72.0782 37.18 73.9862 37.18C75.5582 37.18 76.4702 36.292 76.7822 35.128H75.5222C75.4142 35.5 74.9942 36.148 73.9502 36.148ZM73.9262 31.696C74.9462 31.696 75.6182 32.38 75.6182 33.328H72.1742C72.1742 32.38 72.9062 31.696 73.9262 31.696ZM80.073 31.9V30.868H78.921V28.936H77.649V30.868H76.761V31.9H77.649V35.332C77.649 36.628 78.201 37.084 79.209 37.084C79.545 37.084 79.821 37.048 80.073 36.988V35.956C79.257 36.004 78.921 35.92 78.921 35.224V31.9H80.073ZM84.2519 32.476C84.2519 33.064 83.6759 33.184 82.7279 33.364C81.1919 33.664 80.1959 34.084 80.1959 35.428C80.1959 36.46 80.9639 37.18 82.2119 37.18C83.1599 37.18 83.8559 36.808 84.2399 36.268H84.2639C84.3839 36.868 84.6959 37.108 85.3679 37.108C85.6079 37.108 85.8119 37.084 86.0999 36.976V36.376C85.6079 36.424 85.5119 36.196 85.5119 35.764V32.848C85.5119 31.216 84.5039 30.7 83.1479 30.7C81.2999 30.7 80.5439 31.624 80.4839 32.8H81.7079C81.7679 32.008 82.1399 31.696 83.1479 31.696C83.9879 31.696 84.2519 32.032 84.2519 32.476ZM82.4879 36.184C81.8039 36.184 81.4679 35.872 81.4679 35.308C81.4679 34.684 81.9239 34.384 82.9679 34.156C83.5559 34.036 84.0479 33.892 84.2519 33.748V34.672C84.2519 35.668 83.5319 36.184 82.4879 36.184ZM87.0648 29.836C87.4368 29.836 87.7848 29.596 87.7848 29.164C87.7848 28.732 87.4368 28.504 87.0648 28.504C86.7168 28.504 86.3568 28.732 86.3568 29.164C86.3568 29.596 86.7168 29.836 87.0648 29.836ZM86.4408 30.868V37H87.7008V30.868H86.4408ZM88.4321 28.42V37H89.7041V28.42H88.4321ZM93.0996 33.292C92.2116 33.088 91.5276 33.04 91.5276 32.416C91.5276 31.984 91.9356 31.696 92.6916 31.696C93.6756 31.696 93.9156 32.188 93.9996 32.668H95.2236C95.1396 31.6 94.3476 30.7 92.6796 30.7C91.1436 30.7 90.2556 31.504 90.2556 32.512C90.2556 33.904 91.5756 34.096 92.5476 34.324C93.4476 34.54 94.1796 34.6 94.1796 35.368C94.1796 35.752 93.8076 36.184 92.9316 36.184C91.6356 36.184 91.3476 35.62 91.2876 34.96H90.0636C90.1236 36.256 90.9756 37.18 92.9556 37.18C94.4436 37.18 95.4516 36.448 95.4516 35.272C95.4516 33.808 94.2276 33.556 93.0996 33.292ZM102.977 32.476C102.977 33.064 102.401 33.184 101.453 33.364C99.9172 33.664 98.9212 34.084 98.9212 35.428C98.9212 36.46 99.6892 37.18 100.937 37.18C101.885 37.18 102.581 36.808 102.965 36.268H102.989C103.109 36.868 103.421 37.108 104.093 37.108C104.333 37.108 104.537 37.084 104.825 36.976V36.376C104.333 36.424 104.237 36.196 104.237 35.764V32.848C104.237 31.216 103.229 30.7 101.873 30.7C100.025 30.7 99.2692 31.624 99.2092 32.8H100.433C100.493 32.008 100.865 31.696 101.873 31.696C102.713 31.696 102.977 32.032 102.977 32.476ZM101.213 36.184C100.529 36.184 100.193 35.872 100.193 35.308C100.193 34.684 100.649 34.384 101.693 34.156C102.281 34.036 102.773 33.892 102.977 33.748V34.672C102.977 35.668 102.257 36.184 101.213 36.184ZM108.238 30.7C107.29 30.7 106.69 31.144 106.366 31.612H106.342V28.42H105.082V37H106.342V36.292H106.366C106.69 36.712 107.29 37.18 108.238 37.18C109.81 37.18 110.974 35.956 110.974 33.94C110.974 31.924 109.81 30.7 108.238 30.7ZM108.022 36.148C106.99 36.148 106.354 35.296 106.354 33.94C106.354 32.572 106.99 31.732 108.022 31.732C109.126 31.732 109.714 32.74 109.714 33.94C109.714 35.14 109.126 36.148 108.022 36.148ZM114.136 37.18C112.216 37.18 111.052 35.848 111.052 33.94C111.052 32.032 112.216 30.7 114.136 30.7C116.056 30.7 117.22 32.032 117.22 33.94C117.22 35.848 116.056 37.18 114.136 37.18ZM114.136 36.148C115.336 36.148 115.96 35.2 115.96 33.94C115.96 32.668 115.336 31.732 114.136 31.732C112.936 31.732 112.312 32.668 112.312 33.94C112.312 35.2 112.936 36.148 114.136 36.148ZM121.642 30.868V34.6C121.642 35.512 121.018 36.1 120.046 36.1C119.182 36.1 118.834 35.572 118.834 34.744V30.868H117.562V35.104C117.562 36.508 118.462 37.168 119.602 37.168C120.658 37.168 121.294 36.688 121.618 36.208H121.642V37H122.902V30.868H121.642ZM126.551 31.9V30.868H125.399V28.936H124.127V30.868H123.239V31.9H124.127V35.332C124.127 36.628 124.679 37.084 125.687 37.084C126.023 37.084 126.299 37.048 126.551 36.988V35.956C125.735 36.004 125.399 35.92 125.399 35.224V31.9H126.551ZM133.368 31.9V30.868H132.216V28.936H130.944V30.868H130.056V31.9H130.944V35.332C130.944 36.628 131.496 37.084 132.504 37.084C132.84 37.084 133.116 37.048 133.368 36.988V35.956C132.552 36.004 132.216 35.92 132.216 35.224V31.9H133.368ZM137.08 30.7C136.048 30.7 135.412 31.18 135.088 31.66H135.064V28.42H133.804V37H135.064V33.268C135.064 32.356 135.724 31.768 136.648 31.768C137.524 31.768 137.872 32.296 137.872 33.124V37H139.144V32.764C139.144 31.36 138.244 30.7 137.08 30.7ZM140.524 29.836C140.896 29.836 141.244 29.596 141.244 29.164C141.244 28.732 140.896 28.504 140.524 28.504C140.176 28.504 139.816 28.732 139.816 29.164C139.816 29.596 140.176 29.836 140.524 29.836ZM139.9 30.868V37H141.16V30.868H139.9ZM144.613 33.292C143.725 33.088 143.041 33.04 143.041 32.416C143.041 31.984 143.449 31.696 144.205 31.696C145.189 31.696 145.429 32.188 145.513 32.668H146.737C146.653 31.6 145.861 30.7 144.193 30.7C142.657 30.7 141.769 31.504 141.769 32.512C141.769 33.904 143.089 34.096 144.061 34.324C144.961 34.54 145.693 34.6 145.693 35.368C145.693 35.752 145.321 36.184 144.445 36.184C143.149 36.184 142.861 35.62 142.801 34.96H141.577C141.637 36.256 142.489 37.18 144.469 37.18C145.957 37.18 146.965 36.448 146.965 35.272C146.965 33.808 145.741 33.556 144.613 33.292ZM153.699 30.724C152.895 30.724 152.391 31.252 152.067 32.02H152.043V30.868H150.783V37H152.043V33.868C152.043 32.56 153.015 31.744 154.227 31.948H154.251V30.76C154.071 30.736 153.915 30.724 153.699 30.724ZM157.093 36.148C155.977 36.148 155.317 35.296 155.317 34.264H160.021C160.021 32.08 159.049 30.7 157.069 30.7C155.221 30.7 154.057 31.948 154.057 33.94C154.057 35.86 155.221 37.18 157.129 37.18C158.701 37.18 159.613 36.292 159.925 35.128H158.665C158.557 35.5 158.137 36.148 157.093 36.148ZM157.069 31.696C158.089 31.696 158.761 32.38 158.761 33.328H155.317C155.317 32.38 156.049 31.696 157.069 31.696ZM164.713 28.42V31.612H164.689C164.365 31.144 163.765 30.7 162.817 30.7C161.245 30.7 160.081 31.924 160.081 33.94C160.081 35.956 161.245 37.18 162.817 37.18C163.765 37.18 164.365 36.712 164.689 36.292H164.713V37H165.973V28.42H164.713ZM163.033 36.148C161.929 36.148 161.341 35.14 161.341 33.94C161.341 32.74 161.929 31.732 163.033 31.732C164.065 31.732 164.701 32.572 164.701 33.94C164.701 35.296 164.065 36.148 163.033 36.148ZM169.41 36.148C168.294 36.148 167.634 35.296 167.634 34.264H172.338C172.338 32.08 171.366 30.7 169.386 30.7C167.538 30.7 166.374 31.948 166.374 33.94C166.374 35.86 167.538 37.18 169.446 37.18C171.018 37.18 171.93 36.292 172.242 35.128H170.982C170.874 35.5 170.454 36.148 169.41 36.148ZM169.386 31.696C170.406 31.696 171.078 32.38 171.078 33.328H167.634C167.634 32.38 168.366 31.696 169.386 31.696ZM175.374 33.292C174.486 33.088 173.802 33.04 173.802 32.416C173.802 31.984 174.21 31.696 174.966 31.696C175.95 31.696 176.19 32.188 176.274 32.668H177.498C177.414 31.6 176.622 30.7 174.954 30.7C173.418 30.7 172.53 31.504 172.53 32.512C172.53 33.904 173.85 34.096 174.822 34.324C175.722 34.54 176.454 34.6 176.454 35.368C176.454 35.752 176.082 36.184 175.206 36.184C173.91 36.184 173.622 35.62 173.562 34.96H172.338C172.398 36.256 173.25 37.18 175.23 37.18C176.718 37.18 177.726 36.448 177.726 35.272C177.726 33.808 176.502 33.556 175.374 33.292ZM178.798 29.836C179.17 29.836 179.518 29.596 179.518 29.164C179.518 28.732 179.17 28.504 178.798 28.504C178.45 28.504 178.09 28.732 178.09 29.164C178.09 29.596 178.45 29.836 178.798 29.836ZM178.174 30.868V37H179.434V30.868H178.174ZM184.483 30.868V31.588H184.459C184.135 31.156 183.571 30.7 182.599 30.7C181.063 30.7 179.911 31.756 179.911 33.7C179.911 35.632 181.063 36.7 182.599 36.7C183.571 36.7 184.135 36.244 184.459 35.788H184.483V36.532C184.483 37.636 183.943 38.116 182.887 38.116C181.891 38.116 181.459 37.708 181.339 37.168H180.067C180.199 38.2 181.171 39.124 182.935 39.124C184.675 39.124 185.743 38.344 185.743 36.58V30.868H184.483ZM182.839 35.668C181.735 35.668 181.171 34.828 181.171 33.7C181.171 32.56 181.735 31.732 182.839 31.732C183.859 31.732 184.471 32.404 184.471 33.7C184.471 34.996 183.859 35.668 182.839 35.668ZM189.758 30.7C188.702 30.7 188.066 31.18 187.742 31.66H187.718V30.868H186.458V37H187.718V33.268C187.718 32.356 188.342 31.768 189.314 31.768C190.178 31.768 190.526 32.296 190.526 33.124V37H191.798V32.764C191.798 31.36 190.898 30.7 189.758 30.7ZM199.104 30.7C198.144 30.7 197.544 31.156 197.22 31.588H197.196V30.868H195.924V39.088H197.196V36.268H197.22C197.544 36.724 198.144 37.18 199.104 37.18C200.664 37.18 201.828 35.956 201.828 33.94C201.828 31.924 200.664 30.7 199.104 30.7ZM198.864 36.148C197.844 36.148 197.208 35.296 197.208 33.94C197.208 32.572 197.844 31.732 198.864 31.732C199.968 31.732 200.556 32.74 200.556 33.94C200.556 35.14 199.968 36.148 198.864 36.148ZM205.181 30.724C204.377 30.724 203.873 31.252 203.549 32.02H203.525V30.868H202.265V37H203.525V33.868C203.525 32.56 204.497 31.744 205.709 31.948H205.733V30.76C205.553 30.736 205.397 30.724 205.181 30.724ZM208.623 37.18C206.703 37.18 205.539 35.848 205.539 33.94C205.539 32.032 206.703 30.7 208.623 30.7C210.543 30.7 211.707 32.032 211.707 33.94C211.707 35.848 210.543 37.18 208.623 37.18ZM208.623 36.148C209.823 36.148 210.447 35.2 210.447 33.94C210.447 32.668 209.823 31.732 208.623 31.732C207.423 31.732 206.799 32.668 206.799 33.94C206.799 35.2 207.423 36.148 208.623 36.148ZM212.746 29.836C213.106 29.836 213.466 29.596 213.466 29.164C213.466 28.732 213.106 28.504 212.746 28.504C212.398 28.504 212.038 28.732 212.038 29.164C212.038 29.596 212.398 29.836 212.746 29.836ZM212.122 30.868V37.3C212.122 37.996 211.906 38.044 211.09 37.996V38.956C211.438 39.04 211.702 39.088 212.074 39.088C213.082 39.088 213.382 38.416 213.382 37.288V30.868H212.122ZM216.896 36.148C215.78 36.148 215.12 35.296 215.12 34.264H219.824C219.824 32.08 218.852 30.7 216.872 30.7C215.024 30.7 213.86 31.948 213.86 33.94C213.86 35.86 215.024 37.18 216.932 37.18C218.504 37.18 219.416 36.292 219.728 35.128H218.468C218.36 35.5 217.94 36.148 216.896 36.148ZM216.872 31.696C217.892 31.696 218.564 32.38 218.564 33.328H215.12C215.12 32.38 215.852 31.696 216.872 31.696ZM224.432 33.112H225.692C225.536 31.72 224.492 30.7 222.896 30.7C221.072 30.7 219.884 32.02 219.884 33.94C219.884 35.86 221.072 37.18 222.908 37.18C224.504 37.18 225.596 36.136 225.692 34.72H224.432C224.384 35.404 223.988 36.148 222.908 36.148C221.66 36.148 221.144 35.092 221.144 33.94C221.144 32.788 221.672 31.732 222.908 31.732C223.988 31.732 224.384 32.488 224.432 33.112ZM228.972 31.9V30.868H227.82V28.936H226.548V30.868H225.66V31.9H226.548V35.332C226.548 36.628 227.1 37.084 228.108 37.084C228.444 37.084 228.72 37.048 228.972 36.988V35.956C228.156 36.004 227.82 35.92 227.82 35.224V31.9H228.972ZM230.185 37.096C230.617 37.096 230.953 36.796 230.953 36.316C230.953 35.848 230.617 35.536 230.185 35.536C229.741 35.536 229.405 35.848 229.405 36.316C229.405 36.796 229.741 37.096 230.185 37.096ZM241.619 30.58C241.619 29.2 240.599 28.42 238.835 28.42H235.151V37H239.039C240.815 37 241.955 36.148 241.955 34.492C241.955 33.208 241.187 32.548 240.287 32.392V32.368C240.995 32.128 241.619 31.636 241.619 30.58ZM236.579 31.972V29.632H238.871C239.723 29.632 240.191 30.052 240.191 30.808C240.191 31.564 239.807 31.972 238.787 31.972H236.579ZM236.579 33.04H239.087C239.987 33.04 240.527 33.532 240.527 34.408C240.527 35.212 240.155 35.788 238.931 35.788H236.579V33.04ZM246.411 30.868V34.6C246.411 35.512 245.787 36.1 244.815 36.1C243.951 36.1 243.603 35.572 243.603 34.744V30.868H242.331V35.104C242.331 36.508 243.231 37.168 244.371 37.168C245.427 37.168 246.063 36.688 246.387 36.208H246.411V37H247.671V30.868H246.411ZM251.319 31.9V30.868H250.167V28.936H248.895V30.868H248.007V31.9H248.895V35.332C248.895 36.628 249.447 37.084 250.455 37.084C250.791 37.084 251.067 37.048 251.319 36.988V35.956C250.503 36.004 250.167 35.92 250.167 35.224V31.9H251.319ZM255.916 29.836C256.288 29.836 256.636 29.596 256.636 29.164C256.636 28.732 256.288 28.504 255.916 28.504C255.568 28.504 255.208 28.732 255.208 29.164C255.208 29.596 255.568 29.836 255.916 29.836ZM255.292 30.868V37H256.552V30.868H255.292ZM260.245 29.452V28.42C259.993 28.372 259.717 28.336 259.405 28.336C258.397 28.336 257.845 28.792 257.845 30.088V30.868H256.969V31.9H257.845V37H259.117V31.9H260.245V30.868H259.117V30.196C259.117 29.5 259.429 29.416 260.245 29.452ZM21.012 42.868H19.668L18.096 47.56H18.072L16.356 42.868H15L17.22 48.376C17.448 48.952 17.28 49.432 17.052 49.708C16.776 50.044 16.38 50.08 15.852 50.008H15.744V50.968C15.984 51.028 16.284 51.088 16.644 51.088C17.82 51.088 18.216 50.332 18.564 49.384L21.012 42.868ZM23.7511 49.18C21.8311 49.18 20.6671 47.848 20.6671 45.94C20.6671 44.032 21.8311 42.7 23.7511 42.7C25.6711 42.7 26.8351 44.032 26.8351 45.94C26.8351 47.848 25.6711 49.18 23.7511 49.18ZM23.7511 48.148C24.9511 48.148 25.5751 47.2 25.5751 45.94C25.5751 44.668 24.9511 43.732 23.7511 43.732C22.5511 43.732 21.9271 44.668 21.9271 45.94C21.9271 47.2 22.5511 48.148 23.7511 48.148ZM31.2579 42.868V46.6C31.2579 47.512 30.6339 48.1 29.6619 48.1C28.7979 48.1 28.4499 47.572 28.4499 46.744V42.868H27.1779V47.104C27.1779 48.508 28.0779 49.168 29.2179 49.168C30.2739 49.168 30.9099 48.688 31.2339 48.208H31.2579V49H32.5179V42.868H31.2579ZM35.3653 42.868L37.2493 49H38.5093L39.8173 44.32H39.8413L41.1613 49H42.4333L44.3053 42.868H42.9733L41.7373 47.524H41.7133L40.4533 42.868H39.2173L37.9693 47.524H37.9453L36.6973 42.868H35.3653ZM47.9701 44.476C47.9701 45.064 47.3941 45.184 46.4461 45.364C44.9101 45.664 43.9141 46.084 43.9141 47.428C43.9141 48.46 44.6821 49.18 45.9301 49.18C46.8781 49.18 47.5741 48.808 47.9581 48.268H47.9821C48.1021 48.868 48.4141 49.108 49.0861 49.108C49.3261 49.108 49.5301 49.084 49.8181 48.976V48.376C49.3261 48.424 49.2301 48.196 49.2301 47.764V44.848C49.2301 43.216 48.2221 42.7 46.8661 42.7C45.0181 42.7 44.2621 43.624 44.2021 44.8H45.4261C45.4861 44.008 45.8581 43.696 46.8661 43.696C47.7061 43.696 47.9701 44.032 47.9701 44.476ZM46.2061 48.184C45.5221 48.184 45.1861 47.872 45.1861 47.308C45.1861 46.684 45.6421 46.384 46.6861 46.156C47.2741 46.036 47.7661 45.892 47.9701 45.748V46.672C47.9701 47.668 47.2501 48.184 46.2061 48.184ZM53.3751 42.7C52.3191 42.7 51.6831 43.18 51.3591 43.66H51.3351V42.868H50.0751V49H51.3351V45.268C51.3351 44.356 51.9591 43.768 52.9311 43.768C53.7951 43.768 54.1431 44.296 54.1431 45.124V49H55.4151V44.764C55.4151 43.36 54.5151 42.7 53.3751 42.7ZM58.8981 43.9V42.868H57.7461V40.936H56.4741V42.868H55.5861V43.9H56.4741V47.332C56.4741 48.628 57.0261 49.084 58.0341 49.084C58.3701 49.084 58.6461 49.048 58.8981 48.988V47.956C58.0821 48.004 57.7461 47.92 57.7461 47.224V43.9H58.8981ZM64.965 43.9V42.868H63.8131V40.936H62.541V42.868H61.653V43.9H62.541V47.332C62.541 48.628 63.0931 49.084 64.1011 49.084C64.437 49.084 64.713 49.048 64.965 48.988V47.956C64.149 48.004 63.8131 47.92 63.8131 47.224V43.9H64.965ZM68.1022 49.18C66.1822 49.18 65.0182 47.848 65.0182 45.94C65.0182 44.032 66.1822 42.7 68.1022 42.7C70.0222 42.7 71.1862 44.032 71.1862 45.94C71.1862 47.848 70.0222 49.18 68.1022 49.18ZM68.1022 48.148C69.3022 48.148 69.9262 47.2 69.9262 45.94C69.9262 44.668 69.3022 43.732 68.1022 43.732C66.9022 43.732 66.2782 44.668 66.2782 45.94C66.2782 47.2 66.9022 48.148 68.1022 48.148ZM74.2803 40.42V49H75.5403V46.78L76.3923 45.976L78.3243 49H79.8363L77.2563 45.148L79.5843 42.868H78.0363L75.5403 45.328V40.42H74.2803ZM83.2409 42.7C82.1849 42.7 81.5489 43.18 81.2249 43.66H81.2009V42.868H79.9409V49H81.2009V45.268C81.2009 44.356 81.8249 43.768 82.7969 43.768C83.6609 43.768 84.0089 44.296 84.0089 45.124V49H85.2809V44.764C85.2809 43.36 84.3809 42.7 83.2409 42.7ZM88.7131 49.18C86.7931 49.18 85.6291 47.848 85.6291 45.94C85.6291 44.032 86.7931 42.7 88.7131 42.7C90.6331 42.7 91.7971 44.032 91.7971 45.94C91.7971 47.848 90.6331 49.18 88.7131 49.18ZM88.7131 48.148C89.9131 48.148 90.5371 47.2 90.5371 45.94C90.5371 44.668 89.9131 43.732 88.7131 43.732C87.5131 43.732 86.8891 44.668 86.8891 45.94C86.8891 47.2 87.5131 48.148 88.7131 48.148ZM91.4596 42.868L93.3436 49H94.6036L95.9116 44.32H95.9356L97.2556 49H98.5276L100.4 42.868H99.0676L97.8316 47.524H97.8076L96.5476 42.868H95.3116L94.0636 47.524H94.0396L92.7916 42.868H91.4596ZM110.027 42.7C109.079 42.7 108.479 43.168 108.023 43.756H107.999C107.747 43.096 107.231 42.7 106.367 42.7C105.443 42.7 104.867 43.18 104.543 43.66H104.519V42.868H103.259V49H104.519V45.268C104.519 44.356 105.059 43.768 105.899 43.768C106.775 43.768 106.943 44.296 106.943 45.124V49H108.215V45.268C108.215 44.356 108.743 43.768 109.595 43.768C110.459 43.768 110.627 44.296 110.627 45.124V49H111.899V44.764C111.899 43.444 111.263 42.7 110.027 42.7ZM115.347 49.18C113.427 49.18 112.263 47.848 112.263 45.94C112.263 44.032 113.427 42.7 115.347 42.7C117.267 42.7 118.431 44.032 118.431 45.94C118.431 47.848 117.267 49.18 115.347 49.18ZM115.347 48.148C116.547 48.148 117.171 47.2 117.171 45.94C117.171 44.668 116.547 43.732 115.347 43.732C114.147 43.732 113.523 44.668 113.523 45.94C113.523 47.2 114.147 48.148 115.347 48.148ZM121.738 42.724C120.934 42.724 120.43 43.252 120.106 44.02H120.082V42.868H118.822V49H120.082V45.868C120.082 44.56 121.054 43.744 122.266 43.948H122.29V42.76C122.11 42.736 121.954 42.724 121.738 42.724ZM125.132 48.148C124.016 48.148 123.356 47.296 123.356 46.264H128.06C128.06 44.08 127.088 42.7 125.108 42.7C123.26 42.7 122.096 43.948 122.096 45.94C122.096 47.86 123.26 49.18 125.168 49.18C126.74 49.18 127.652 48.292 127.964 47.128H126.704C126.596 47.5 126.176 48.148 125.132 48.148ZM125.108 43.696C126.128 43.696 126.8 44.38 126.8 45.328H123.356C123.356 44.38 124.088 43.696 125.108 43.696ZM134.855 44.476C134.855 45.064 134.279 45.184 133.331 45.364C131.795 45.664 130.799 46.084 130.799 47.428C130.799 48.46 131.567 49.18 132.815 49.18C133.763 49.18 134.459 48.808 134.843 48.268H134.867C134.987 48.868 135.299 49.108 135.971 49.108C136.211 49.108 136.415 49.084 136.703 48.976V48.376C136.211 48.424 136.115 48.196 136.115 47.764V44.848C136.115 43.216 135.107 42.7 133.751 42.7C131.903 42.7 131.147 43.624 131.087 44.8H132.311C132.371 44.008 132.743 43.696 133.751 43.696C134.591 43.696 134.855 44.032 134.855 44.476ZM133.091 48.184C132.407 48.184 132.071 47.872 132.071 47.308C132.071 46.684 132.527 46.384 133.571 46.156C134.159 46.036 134.651 45.892 134.855 45.748V46.672C134.855 47.668 134.135 48.184 133.091 48.184ZM140.116 42.7C139.168 42.7 138.568 43.144 138.244 43.612H138.22V40.42H136.96V49H138.22V48.292H138.244C138.568 48.712 139.168 49.18 140.116 49.18C141.688 49.18 142.852 47.956 142.852 45.94C142.852 43.924 141.688 42.7 140.116 42.7ZM139.9 48.148C138.868 48.148 138.232 47.296 138.232 45.94C138.232 44.572 138.868 43.732 139.9 43.732C141.004 43.732 141.592 44.74 141.592 45.94C141.592 47.14 141.004 48.148 139.9 48.148ZM146.014 49.18C144.094 49.18 142.93 47.848 142.93 45.94C142.93 44.032 144.094 42.7 146.014 42.7C147.934 42.7 149.098 44.032 149.098 45.94C149.098 47.848 147.934 49.18 146.014 49.18ZM146.014 48.148C147.214 48.148 147.838 47.2 147.838 45.94C147.838 44.668 147.214 43.732 146.014 43.732C144.814 43.732 144.19 44.668 144.19 45.94C144.19 47.2 144.814 48.148 146.014 48.148ZM153.521 42.868V46.6C153.521 47.512 152.897 48.1 151.925 48.1C151.061 48.1 150.713 47.572 150.713 46.744V42.868H149.441V47.104C149.441 48.508 150.341 49.168 151.481 49.168C152.537 49.168 153.173 48.688 153.497 48.208H153.521V49H154.781V42.868H153.521ZM158.429 43.9V42.868H157.277V40.936H156.005V42.868H155.117V43.9H156.005V47.332C156.005 48.628 156.557 49.084 157.565 49.084C157.901 49.084 158.177 49.048 158.429 48.988V47.956C157.613 48.004 157.277 47.92 157.277 47.224V43.9H158.429ZM164.496 43.9V42.868H163.344V40.936H162.072V42.868H161.184V43.9H162.072V47.332C162.072 48.628 162.624 49.084 163.632 49.084C163.968 49.084 164.244 49.048 164.496 48.988V47.956C163.68 48.004 163.344 47.92 163.344 47.224V43.9H164.496ZM168.208 42.7C167.176 42.7 166.54 43.18 166.216 43.66H166.192V40.42H164.932V49H166.192V45.268C166.192 44.356 166.852 43.768 167.776 43.768C168.652 43.768 169 44.296 169 45.124V49H170.272V44.764C170.272 43.36 169.372 42.7 168.208 42.7ZM173.656 48.148C172.54 48.148 171.88 47.296 171.88 46.264H176.584C176.584 44.08 175.612 42.7 173.632 42.7C171.784 42.7 170.62 43.948 170.62 45.94C170.62 47.86 171.784 49.18 173.692 49.18C175.264 49.18 176.176 48.292 176.488 47.128H175.228C175.12 47.5 174.7 48.148 173.656 48.148ZM173.632 43.696C174.652 43.696 175.324 44.38 175.324 45.328H171.88C171.88 44.38 172.612 43.696 173.632 43.696ZM182.851 42.7C181.891 42.7 181.291 43.156 180.967 43.588H180.943V42.868H179.671V51.088H180.943V48.268H180.967C181.291 48.724 181.891 49.18 182.851 49.18C184.411 49.18 185.575 47.956 185.575 45.94C185.575 43.924 184.411 42.7 182.851 42.7ZM182.611 48.148C181.591 48.148 180.955 47.296 180.955 45.94C180.955 44.572 181.591 43.732 182.611 43.732C183.715 43.732 184.303 44.74 184.303 45.94C184.303 47.14 183.715 48.148 182.611 48.148ZM188.927 42.724C188.123 42.724 187.619 43.252 187.295 44.02H187.271V42.868H186.011V49H187.271V45.868C187.271 44.56 188.243 43.744 189.455 43.948H189.479V42.76C189.299 42.736 189.143 42.724 188.927 42.724ZM192.369 49.18C190.449 49.18 189.285 47.848 189.285 45.94C189.285 44.032 190.449 42.7 192.369 42.7C194.289 42.7 195.453 44.032 195.453 45.94C195.453 47.848 194.289 49.18 192.369 49.18ZM192.369 48.148C193.569 48.148 194.193 47.2 194.193 45.94C194.193 44.668 193.569 43.732 192.369 43.732C191.169 43.732 190.545 44.668 190.545 45.94C190.545 47.2 191.169 48.148 192.369 48.148ZM200.068 45.112H201.328C201.172 43.72 200.128 42.7 198.532 42.7C196.708 42.7 195.52 44.02 195.52 45.94C195.52 47.86 196.708 49.18 198.544 49.18C200.14 49.18 201.232 48.136 201.328 46.72H200.068C200.02 47.404 199.624 48.148 198.544 48.148C197.296 48.148 196.78 47.092 196.78 45.94C196.78 44.788 197.308 43.732 198.544 43.732C199.624 43.732 200.02 44.488 200.068 45.112ZM204.393 48.148C203.277 48.148 202.617 47.296 202.617 46.264H207.321C207.321 44.08 206.349 42.7 204.369 42.7C202.521 42.7 201.357 43.948 201.357 45.94C201.357 47.86 202.521 49.18 204.429 49.18C206.001 49.18 206.913 48.292 207.225 47.128H205.965C205.857 47.5 205.437 48.148 204.393 48.148ZM204.369 43.696C205.389 43.696 206.061 44.38 206.061 45.328H202.617C202.617 44.38 203.349 43.696 204.369 43.696ZM210.357 45.292C209.469 45.088 208.785 45.04 208.785 44.416C208.785 43.984 209.193 43.696 209.949 43.696C210.933 43.696 211.173 44.188 211.257 44.668H212.481C212.397 43.6 211.605 42.7 209.937 42.7C208.401 42.7 207.513 43.504 207.513 44.512C207.513 45.904 208.833 46.096 209.805 46.324C210.705 46.54 211.437 46.6 211.437 47.368C211.437 47.752 211.065 48.184 210.189 48.184C208.893 48.184 208.605 47.62 208.545 46.96H207.321C207.381 48.256 208.233 49.18 210.213 49.18C211.701 49.18 212.709 48.448 212.709 47.272C212.709 45.808 211.485 45.556 210.357 45.292ZM215.748 45.292C214.86 45.088 214.176 45.04 214.176 44.416C214.176 43.984 214.584 43.696 215.34 43.696C216.324 43.696 216.564 44.188 216.648 44.668H217.872C217.788 43.6 216.996 42.7 215.328 42.7C213.792 42.7 212.904 43.504 212.904 44.512C212.904 45.904 214.224 46.096 215.196 46.324C216.096 46.54 216.828 46.6 216.828 47.368C216.828 47.752 216.456 48.184 215.58 48.184C214.284 48.184 213.996 47.62 213.936 46.96H212.712C212.772 48.256 213.624 49.18 215.604 49.18C217.092 49.18 218.1 48.448 218.1 47.272C218.1 45.808 216.876 45.556 215.748 45.292ZM219.219 49.084C219.219 49.54 218.931 49.912 218.487 49.996V50.68C219.531 50.512 219.963 49.516 219.963 48.64C219.963 47.968 219.687 47.536 219.147 47.536C218.715 47.536 218.367 47.824 218.367 48.34C218.367 48.904 218.751 49.168 219.219 49.084ZM230.033 42.7C229.085 42.7 228.485 43.168 228.029 43.756H228.005C227.753 43.096 227.237 42.7 226.373 42.7C225.449 42.7 224.873 43.18 224.549 43.66H224.525V42.868H223.265V49H224.525V45.268C224.525 44.356 225.065 43.768 225.905 43.768C226.781 43.768 226.949 44.296 226.949 45.124V49H228.221V45.268C228.221 44.356 228.749 43.768 229.601 43.768C230.465 43.768 230.633 44.296 230.633 45.124V49H231.905V44.764C231.905 43.444 231.269 42.7 230.033 42.7ZM237.888 42.868H236.544L234.972 47.56H234.948L233.232 42.868H231.876L234.096 48.376C234.324 48.952 234.156 49.432 233.928 49.708C233.652 50.044 233.256 50.08 232.728 50.008H232.62V50.968C232.86 51.028 233.16 51.088 233.52 51.088C234.696 51.088 235.092 50.332 235.44 49.384L237.888 42.868ZM243.639 42.724C242.835 42.724 242.331 43.252 242.007 44.02H241.983V42.868H240.723V49H241.983V45.868C241.983 44.56 242.955 43.744 244.167 43.948H244.191V42.76C244.011 42.736 243.855 42.724 243.639 42.724ZM247.081 49.18C245.161 49.18 243.997 47.848 243.997 45.94C243.997 44.032 245.161 42.7 247.081 42.7C249.001 42.7 250.165 44.032 250.165 45.94C250.165 47.848 249.001 49.18 247.081 49.18ZM247.081 48.148C248.281 48.148 248.905 47.2 248.905 45.94C248.905 44.668 248.281 43.732 247.081 43.732C245.881 43.732 245.257 44.668 245.257 45.94C245.257 47.2 245.881 48.148 247.081 48.148ZM250.58 40.42V49H251.852V40.42H250.58ZM255.307 48.148C254.191 48.148 253.531 47.296 253.531 46.264H258.235C258.235 44.08 257.263 42.7 255.283 42.7C253.435 42.7 252.271 43.948 252.271 45.94C252.271 47.86 253.435 49.18 255.343 49.18C256.915 49.18 257.827 48.292 258.139 47.128H256.879C256.771 47.5 256.351 48.148 255.307 48.148ZM255.283 43.696C256.303 43.696 256.975 44.38 256.975 45.328H253.531C253.531 44.38 254.263 43.696 255.283 43.696ZM259.257 49.084C259.257 49.54 258.969 49.912 258.525 49.996V50.68C259.569 50.512 260.001 49.516 260.001 48.64C260.001 47.968 259.725 47.536 259.185 47.536C258.753 47.536 258.405 47.824 258.405 48.34C258.405 48.904 258.789 49.168 259.257 49.084ZM18.528 55.9V54.868H17.376V52.936H16.104V54.868H15.216V55.9H16.104V59.332C16.104 60.628 16.656 61.084 17.664 61.084C18 61.084 18.276 61.048 18.528 60.988V59.956C17.712 60.004 17.376 59.92 17.376 59.224V55.9H18.528ZM22.2398 54.7C21.2078 54.7 20.5718 55.18 20.2478 55.66H20.2237V52.42H18.9637V61H20.2237V57.268C20.2237 56.356 20.8838 55.768 21.8077 55.768C22.6838 55.768 23.0318 56.296 23.0318 57.124V61H24.3038V56.764C24.3038 55.36 23.4038 54.7 22.2398 54.7ZM27.6879 60.148C26.5719 60.148 25.9119 59.296 25.9119 58.264H30.6159C30.6159 56.08 29.6439 54.7 27.6639 54.7C25.8159 54.7 24.6519 55.948 24.6519 57.94C24.6519 59.86 25.8159 61.18 27.7239 61.18C29.2959 61.18 30.2079 60.292 30.5199 59.128H29.2599C29.1519 59.5 28.7319 60.148 27.6879 60.148ZM27.6639 55.696C28.6839 55.696 29.3559 56.38 29.3559 57.328H25.9119C25.9119 56.38 26.6439 55.696 27.6639 55.696ZM37.3536 55.9V54.868H36.2016V52.936H34.9296V54.868H34.0416V55.9H34.9296V59.332C34.9296 60.628 35.4816 61.084 36.4896 61.084C36.8256 61.084 37.1016 61.048 37.3536 60.988V59.956C36.5376 60.004 36.2016 59.92 36.2016 59.224V55.9H37.3536ZM40.4427 60.148C39.3267 60.148 38.6667 59.296 38.6667 58.264H43.3707C43.3707 56.08 42.3987 54.7 40.4187 54.7C38.5707 54.7 37.4067 55.948 37.4067 57.94C37.4067 59.86 38.5707 61.18 40.4787 61.18C42.0507 61.18 42.9627 60.292 43.2747 59.128H42.0147C41.9067 59.5 41.4867 60.148 40.4427 60.148ZM40.4187 55.696C41.4387 55.696 42.1107 56.38 42.1107 57.328H38.6667C38.6667 56.38 39.3987 55.696 40.4187 55.696ZM47.4626 56.476C47.4626 57.064 46.8866 57.184 45.9386 57.364C44.4026 57.664 43.4066 58.084 43.4066 59.428C43.4066 60.46 44.1746 61.18 45.4226 61.18C46.3706 61.18 47.0666 60.808 47.4506 60.268H47.4746C47.5946 60.868 47.9066 61.108 48.5786 61.108C48.8186 61.108 49.0226 61.084 49.3106 60.976V60.376C48.8186 60.424 48.7226 60.196 48.7226 59.764V56.848C48.7226 55.216 47.7146 54.7 46.3586 54.7C44.5106 54.7 43.7546 55.624 43.6946 56.8H44.9186C44.9786 56.008 45.3506 55.696 46.3586 55.696C47.1986 55.696 47.4626 56.032 47.4626 56.476ZM45.6986 60.184C45.0146 60.184 44.6786 59.872 44.6786 59.308C44.6786 58.684 45.1346 58.384 46.1786 58.156C46.7666 58.036 47.2586 57.892 47.4626 57.748V58.672C47.4626 59.668 46.7426 60.184 45.6986 60.184ZM56.3356 54.7C55.3876 54.7 54.7876 55.168 54.3316 55.756H54.3076C54.0556 55.096 53.5396 54.7 52.6756 54.7C51.7516 54.7 51.1756 55.18 50.8516 55.66H50.8276V54.868H49.5676V61H50.8276V57.268C50.8276 56.356 51.3676 55.768 52.2076 55.768C53.0836 55.768 53.2516 56.296 53.2516 57.124V61H54.5236V57.268C54.5236 56.356 55.0516 55.768 55.9036 55.768C56.7676 55.768 56.9356 56.296 56.9356 57.124V61H58.2076V56.764C58.2076 55.444 57.5716 54.7 56.3356 54.7ZM59.6282 61.084C59.6282 61.54 59.3402 61.912 58.8962 61.996V62.68C59.9402 62.512 60.3722 61.516 60.3722 60.64C60.3722 59.968 60.0962 59.536 59.5562 59.536C59.1242 59.536 58.7762 59.824 58.7762 60.34C58.7762 60.904 59.1602 61.168 59.6282 61.084ZM68.1046 56.476C68.1046 57.064 67.5286 57.184 66.5806 57.364C65.0446 57.664 64.0486 58.084 64.0486 59.428C64.0486 60.46 64.8166 61.18 66.0646 61.18C67.0126 61.18 67.7086 60.808 68.0926 60.268H68.1166C68.2366 60.868 68.5486 61.108 69.2206 61.108C69.4606 61.108 69.6646 61.084 69.9526 60.976V60.376C69.4606 60.424 69.3646 60.196 69.3646 59.764V56.848C69.3646 55.216 68.3566 54.7 67.0006 54.7C65.1526 54.7 64.3966 55.624 64.3366 56.8H65.5606C65.6206 56.008 65.9926 55.696 67.0006 55.696C67.8406 55.696 68.1046 56.032 68.1046 56.476ZM66.3406 60.184C65.6566 60.184 65.3206 59.872 65.3206 59.308C65.3206 58.684 65.7766 58.384 66.8206 58.156C67.4086 58.036 67.9006 57.892 68.1046 57.748V58.672C68.1046 59.668 67.3846 60.184 66.3406 60.184ZM73.5096 54.7C72.4536 54.7 71.8176 55.18 71.4936 55.66H71.4696V54.868H70.2096V61H71.4696V57.268C71.4696 56.356 72.0936 55.768 73.0656 55.768C73.9296 55.768 74.2776 56.296 74.2776 57.124V61H75.5496V56.764C75.5496 55.36 74.6496 54.7 73.5096 54.7ZM80.5297 52.42V55.612H80.5057C80.1817 55.144 79.5817 54.7 78.6337 54.7C77.0617 54.7 75.8977 55.924 75.8977 57.94C75.8977 59.956 77.0617 61.18 78.6337 61.18C79.5817 61.18 80.1817 60.712 80.5057 60.292H80.5297V61H81.7897V52.42H80.5297ZM78.8497 60.148C77.7457 60.148 77.1577 59.14 77.1577 57.94C77.1577 56.74 77.7457 55.732 78.8497 55.732C79.8817 55.732 80.5177 56.572 80.5177 57.94C80.5177 59.296 79.8817 60.148 78.8497 60.148ZM88.8689 55.9V54.868H87.7169V52.936H86.4449V54.868H85.5569V55.9H86.4449V59.332C86.4449 60.628 86.9969 61.084 88.0049 61.084C88.3409 61.084 88.6169 61.048 88.8689 60.988V59.956C88.0529 60.004 87.7169 59.92 87.7169 59.224V55.9H88.8689ZM92.5806 54.7C91.5486 54.7 90.9126 55.18 90.5886 55.66H90.5646V52.42H89.3046V61H90.5646V57.268C90.5646 56.356 91.2246 55.768 92.1486 55.768C93.0246 55.768 93.3726 56.296 93.3726 57.124V61H94.6446V56.764C94.6446 55.36 93.7446 54.7 92.5806 54.7ZM98.0288 60.148C96.9128 60.148 96.2528 59.296 96.2528 58.264H100.957C100.957 56.08 99.9848 54.7 98.0048 54.7C96.1568 54.7 94.9928 55.948 94.9928 57.94C94.9928 59.86 96.1568 61.18 98.0648 61.18C99.6368 61.18 100.549 60.292 100.861 59.128H99.6008C99.4928 59.5 99.0728 60.148 98.0288 60.148ZM98.0048 55.696C99.0248 55.696 99.6968 56.38 99.6968 57.328H96.2528C96.2528 56.38 96.9848 55.696 98.0048 55.696ZM107.526 61.18C105.606 61.18 104.442 59.848 104.442 57.94C104.442 56.032 105.606 54.7 107.526 54.7C109.446 54.7 110.61 56.032 110.61 57.94C110.61 59.848 109.446 61.18 107.526 61.18ZM107.526 60.148C108.726 60.148 109.35 59.2 109.35 57.94C109.35 56.668 108.726 55.732 107.526 55.732C106.326 55.732 105.702 56.668 105.702 57.94C105.702 59.2 106.326 60.148 107.526 60.148ZM110.249 54.868L112.421 61H113.849L116.021 54.868H114.689L113.141 59.668H113.129L111.581 54.868H110.249ZM118.706 60.148C117.59 60.148 116.93 59.296 116.93 58.264H121.634C121.634 56.08 120.662 54.7 118.682 54.7C116.834 54.7 115.67 55.948 115.67 57.94C115.67 59.86 116.834 61.18 118.742 61.18C120.314 61.18 121.226 60.292 121.538 59.128H120.278C120.17 59.5 119.75 60.148 118.706 60.148ZM118.682 55.696C119.702 55.696 120.374 56.38 120.374 57.328H116.93C116.93 56.38 117.662 55.696 118.682 55.696ZM124.934 54.724C124.13 54.724 123.626 55.252 123.302 56.02H123.278V54.868H122.018V61H123.278V57.868C123.278 56.56 124.25 55.744 125.462 55.948H125.486V54.76C125.306 54.736 125.15 54.724 124.934 54.724ZM129.312 56.476C129.312 57.064 128.736 57.184 127.788 57.364C126.252 57.664 125.256 58.084 125.256 59.428C125.256 60.46 126.024 61.18 127.272 61.18C128.22 61.18 128.916 60.808 129.3 60.268H129.324C129.444 60.868 129.756 61.108 130.428 61.108C130.668 61.108 130.872 61.084 131.16 60.976V60.376C130.668 60.424 130.572 60.196 130.572 59.764V56.848C130.572 55.216 129.564 54.7 128.208 54.7C126.36 54.7 125.604 55.624 125.544 56.8H126.768C126.828 56.008 127.2 55.696 128.208 55.696C129.048 55.696 129.312 56.032 129.312 56.476ZM127.548 60.184C126.864 60.184 126.528 59.872 126.528 59.308C126.528 58.684 126.984 58.384 128.028 58.156C128.616 58.036 129.108 57.892 129.312 57.748V58.672C129.312 59.668 128.592 60.184 127.548 60.184ZM131.441 52.42V61H132.713V52.42H131.441ZM133.387 52.42V61H134.659V52.42H133.387ZM142.008 54.7C141.048 54.7 140.448 55.156 140.124 55.588H140.1V54.868H138.828V63.088H140.1V60.268H140.124C140.448 60.724 141.048 61.18 142.008 61.18C143.568 61.18 144.732 59.956 144.732 57.94C144.732 55.924 143.568 54.7 142.008 54.7ZM141.768 60.148C140.748 60.148 140.112 59.296 140.112 57.94C140.112 56.572 140.748 55.732 141.768 55.732C142.872 55.732 143.46 56.74 143.46 57.94C143.46 59.14 142.872 60.148 141.768 60.148ZM148.085 54.724C147.281 54.724 146.777 55.252 146.453 56.02H146.429V54.868H145.169V61H146.429V57.868C146.429 56.56 147.401 55.744 148.613 55.948H148.637V54.76C148.457 54.736 148.301 54.724 148.085 54.724ZM151.527 61.18C149.607 61.18 148.443 59.848 148.443 57.94C148.443 56.032 149.607 54.7 151.527 54.7C153.447 54.7 154.611 56.032 154.611 57.94C154.611 59.848 153.447 61.18 151.527 61.18ZM151.527 60.148C152.727 60.148 153.351 59.2 153.351 57.94C153.351 56.668 152.727 55.732 151.527 55.732C150.327 55.732 149.703 56.668 149.703 57.94C149.703 59.2 150.327 60.148 151.527 60.148ZM155.65 53.836C156.01 53.836 156.37 53.596 156.37 53.164C156.37 52.732 156.01 52.504 155.65 52.504C155.302 52.504 154.942 52.732 154.942 53.164C154.942 53.596 155.302 53.836 155.65 53.836ZM155.026 54.868V61.3C155.026 61.996 154.81 62.044 153.994 61.996V62.956C154.342 63.04 154.606 63.088 154.978 63.088C155.986 63.088 156.286 62.416 156.286 61.288V54.868H155.026ZM159.8 60.148C158.684 60.148 158.024 59.296 158.024 58.264H162.728C162.728 56.08 161.756 54.7 159.776 54.7C157.928 54.7 156.764 55.948 156.764 57.94C156.764 59.86 157.928 61.18 159.836 61.18C161.408 61.18 162.32 60.292 162.632 59.128H161.372C161.264 59.5 160.844 60.148 159.8 60.148ZM159.776 55.696C160.796 55.696 161.468 56.38 161.468 57.328H158.024C158.024 56.38 158.756 55.696 159.776 55.696ZM167.336 57.112H168.596C168.44 55.72 167.396 54.7 165.8 54.7C163.976 54.7 162.788 56.02 162.788 57.94C162.788 59.86 163.976 61.18 165.812 61.18C167.408 61.18 168.5 60.136 168.596 58.72H167.336C167.288 59.404 166.892 60.148 165.812 60.148C164.564 60.148 164.048 59.092 164.048 57.94C164.048 56.788 164.576 55.732 165.812 55.732C166.892 55.732 167.288 56.488 167.336 57.112ZM171.876 55.9V54.868H170.724V52.936H169.452V54.868H168.564V55.9H169.452V59.332C169.452 60.628 170.004 61.084 171.012 61.084C171.348 61.084 171.624 61.048 171.876 60.988V59.956C171.06 60.004 170.724 59.92 170.724 59.224V55.9H171.876ZM176.446 53.836C176.818 53.836 177.166 53.596 177.166 53.164C177.166 52.732 176.818 52.504 176.446 52.504C176.098 52.504 175.738 52.732 175.738 53.164C175.738 53.596 176.098 53.836 176.446 53.836ZM175.822 54.868V61H177.082V54.868H175.822ZM181.183 54.7C180.127 54.7 179.491 55.18 179.167 55.66H179.143V54.868H177.883V61H179.143V57.268C179.143 56.356 179.767 55.768 180.739 55.768C181.603 55.768 181.951 56.296 181.951 57.124V61H183.223V56.764C183.223 55.36 182.323 54.7 181.183 54.7ZM191.569 54.868V55.588H191.545C191.221 55.156 190.657 54.7 189.685 54.7C188.149 54.7 186.997 55.756 186.997 57.7C186.997 59.632 188.149 60.7 189.685 60.7C190.657 60.7 191.221 60.244 191.545 59.788H191.569V60.532C191.569 61.636 191.029 62.116 189.973 62.116C188.977 62.116 188.545 61.708 188.425 61.168H187.153C187.285 62.2 188.257 63.124 190.021 63.124C191.761 63.124 192.829 62.344 192.829 60.58V54.868H191.569ZM189.925 59.668C188.821 59.668 188.257 58.828 188.257 57.7C188.257 56.56 188.821 55.732 189.925 55.732C190.945 55.732 191.557 56.404 191.557 57.7C191.557 58.996 190.945 59.668 189.925 59.668ZM196.256 60.148C195.14 60.148 194.48 59.296 194.48 58.264H199.184C199.184 56.08 198.212 54.7 196.232 54.7C194.384 54.7 193.22 55.948 193.22 57.94C193.22 59.86 194.384 61.18 196.292 61.18C197.864 61.18 198.776 60.292 199.088 59.128H197.828C197.72 59.5 197.3 60.148 196.256 60.148ZM196.232 55.696C197.252 55.696 197.924 56.38 197.924 57.328H194.48C194.48 56.38 195.212 55.696 196.232 55.696ZM202.868 54.7C201.812 54.7 201.176 55.18 200.852 55.66H200.828V54.868H199.568V61H200.828V57.268C200.828 56.356 201.452 55.768 202.424 55.768C203.288 55.768 203.636 56.296 203.636 57.124V61H204.908V56.764C204.908 55.36 204.008 54.7 202.868 54.7ZM208.292 60.148C207.176 60.148 206.516 59.296 206.516 58.264H211.22C211.22 56.08 210.248 54.7 208.268 54.7C206.42 54.7 205.256 55.948 205.256 57.94C205.256 59.86 206.42 61.18 208.328 61.18C209.9 61.18 210.812 60.292 211.124 59.128H209.864C209.756 59.5 209.336 60.148 208.292 60.148ZM208.268 55.696C209.288 55.696 209.96 56.38 209.96 57.328H206.516C206.516 56.38 207.248 55.696 208.268 55.696ZM214.52 54.724C213.716 54.724 213.212 55.252 212.888 56.02H212.864V54.868H211.604V61H212.864V57.868C212.864 56.56 213.836 55.744 215.048 55.948H215.072V54.76C214.892 54.736 214.736 54.724 214.52 54.724ZM218.898 56.476C218.898 57.064 218.322 57.184 217.374 57.364C215.838 57.664 214.842 58.084 214.842 59.428C214.842 60.46 215.61 61.18 216.858 61.18C217.806 61.18 218.502 60.808 218.886 60.268H218.91C219.03 60.868 219.342 61.108 220.014 61.108C220.254 61.108 220.458 61.084 220.746 60.976V60.376C220.254 60.424 220.158 60.196 220.158 59.764V56.848C220.158 55.216 219.15 54.7 217.794 54.7C215.946 54.7 215.19 55.624 215.13 56.8H216.354C216.414 56.008 216.786 55.696 217.794 55.696C218.634 55.696 218.898 56.032 218.898 56.476ZM217.134 60.184C216.45 60.184 216.114 59.872 216.114 59.308C216.114 58.684 216.57 58.384 217.614 58.156C218.202 58.036 218.694 57.892 218.898 57.748V58.672C218.898 59.668 218.178 60.184 217.134 60.184ZM221.027 52.42V61H222.299V52.42H221.027ZM226.3 57.364V58.54H229.528V57.364H226.3ZM236.156 57.292C235.268 57.088 234.584 57.04 234.584 56.416C234.584 55.984 234.992 55.696 235.748 55.696C236.732 55.696 236.972 56.188 237.056 56.668H238.28C238.196 55.6 237.404 54.7 235.736 54.7C234.2 54.7 233.312 55.504 233.312 56.512C233.312 57.904 234.632 58.096 235.604 58.324C236.504 58.54 237.236 58.6 237.236 59.368C237.236 59.752 236.864 60.184 235.988 60.184C234.692 60.184 234.404 59.62 234.344 58.96H233.12C233.18 60.256 234.032 61.18 236.012 61.18C237.5 61.18 238.508 60.448 238.508 59.272C238.508 57.808 237.284 57.556 236.156 57.292ZM242.148 54.7C241.116 54.7 240.48 55.18 240.156 55.66H240.132V52.42H238.872V61H240.132V57.268C240.132 56.356 240.792 55.768 241.716 55.768C242.592 55.768 242.94 56.296 242.94 57.124V61H244.212V56.764C244.212 55.36 243.312 54.7 242.148 54.7ZM247.644 61.18C245.724 61.18 244.56 59.848 244.56 57.94C244.56 56.032 245.724 54.7 247.644 54.7C249.564 54.7 250.728 56.032 250.728 57.94C250.728 59.848 249.564 61.18 247.644 61.18ZM247.644 60.148C248.844 60.148 249.468 59.2 249.468 57.94C249.468 56.668 248.844 55.732 247.644 55.732C246.444 55.732 245.82 56.668 245.82 57.94C245.82 59.2 246.444 60.148 247.644 60.148ZM253.879 61.18C251.959 61.18 250.795 59.848 250.795 57.94C250.795 56.032 251.959 54.7 253.879 54.7C255.799 54.7 256.963 56.032 256.963 57.94C256.963 59.848 255.799 61.18 253.879 61.18ZM253.879 60.148C255.079 60.148 255.703 59.2 255.703 57.94C255.703 56.668 255.079 55.732 253.879 55.732C252.679 55.732 252.055 56.668 252.055 57.94C252.055 59.2 252.679 60.148 253.879 60.148ZM260.164 55.9V54.868H259.012V52.936H257.74V54.868H256.852V55.9H257.74V59.332C257.74 60.628 258.292 61.084 259.3 61.084C259.636 61.084 259.912 61.048 260.164 60.988V59.956C259.348 60.004 259.012 59.92 259.012 59.224V55.9H260.164ZM22.368 66.7C21.42 66.7 20.82 67.168 20.364 67.756H20.34C20.088 67.096 19.572 66.7 18.708 66.7C17.784 66.7 17.208 67.18 16.884 67.66H16.86V66.868H15.6V73H16.86V69.268C16.86 68.356 17.4 67.768 18.24 67.768C19.116 67.768 19.284 68.296 19.284 69.124V73H20.556V69.268C20.556 68.356 21.084 67.768 21.936 67.768C22.8 67.768 22.968 68.296 22.968 69.124V73H24.24V68.764C24.24 67.444 23.604 66.7 22.368 66.7ZM27.6406 72.148C26.5246 72.148 25.8646 71.296 25.8646 70.264H30.5686C30.5686 68.08 29.5966 66.7 27.6166 66.7C25.7686 66.7 24.6046 67.948 24.6046 69.94C24.6046 71.86 25.7686 73.18 27.6766 73.18C29.2486 73.18 30.1606 72.292 30.4726 71.128H29.2126C29.1046 71.5 28.6846 72.148 27.6406 72.148ZM27.6166 67.696C28.6366 67.696 29.3086 68.38 29.3086 69.328H25.8646C25.8646 68.38 26.5966 67.696 27.6166 67.696ZM36.4657 68.476C36.4657 69.064 35.8897 69.184 34.9417 69.364C33.4057 69.664 32.4097 70.084 32.4097 71.428C32.4097 72.46 33.1777 73.18 34.4257 73.18C35.3737 73.18 36.0697 72.808 36.4537 72.268H36.4777C36.5977 72.868 36.9097 73.108 37.5817 73.108C37.8217 73.108 38.0257 73.084 38.3137 72.976V72.376C37.8217 72.424 37.7257 72.196 37.7257 71.764V68.848C37.7257 67.216 36.7177 66.7 35.3617 66.7C33.5137 66.7 32.7577 67.624 32.6977 68.8H33.9217C33.9817 68.008 34.3537 67.696 35.3617 67.696C36.2017 67.696 36.4657 68.032 36.4657 68.476ZM34.7017 72.184C34.0177 72.184 33.6817 71.872 33.6817 71.308C33.6817 70.684 34.1377 70.384 35.1817 70.156C35.7697 70.036 36.2617 69.892 36.4657 69.748V70.672C36.4657 71.668 35.7457 72.184 34.7017 72.184ZM41.8706 66.7C40.8146 66.7 40.1786 67.18 39.8546 67.66H39.8306V66.868H38.5706V73H39.8306V69.268C39.8306 68.356 40.4546 67.768 41.4266 67.768C42.2906 67.768 42.6386 68.296 42.6386 69.124V73H43.9106V68.764C43.9106 67.36 43.0106 66.7 41.8706 66.7ZM49.1 72.148C47.984 72.148 47.324 71.296 47.324 70.264H52.028C52.028 68.08 51.056 66.7 49.076 66.7C47.228 66.7 46.064 67.948 46.064 69.94C46.064 71.86 47.228 73.18 49.136 73.18C50.708 73.18 51.62 72.292 51.932 71.128H50.672C50.564 71.5 50.144 72.148 49.1 72.148ZM49.076 67.696C50.096 67.696 50.768 68.38 50.768 69.328H47.324C47.324 68.38 48.056 67.696 49.076 67.696ZM59.1799 66.7C58.2319 66.7 57.6319 67.168 57.1759 67.756H57.1519C56.8999 67.096 56.3839 66.7 55.5199 66.7C54.5959 66.7 54.0199 67.18 53.6959 67.66H53.6719V66.868H52.4119V73H53.6719V69.268C53.6719 68.356 54.2119 67.768 55.0519 67.768C55.9279 67.768 56.0959 68.296 56.0959 69.124V73H57.3679V69.268C57.3679 68.356 57.8959 67.768 58.7479 67.768C59.6119 67.768 59.7799 68.296 59.7799 69.124V73H61.0519V68.764C61.0519 67.444 60.4159 66.7 59.1799 66.7ZM65.4485 68.476C65.4485 69.064 64.8725 69.184 63.9245 69.364C62.3885 69.664 61.3925 70.084 61.3925 71.428C61.3925 72.46 62.1605 73.18 63.4085 73.18C64.3565 73.18 65.0525 72.808 65.4365 72.268H65.4605C65.5805 72.868 65.8925 73.108 66.5645 73.108C66.8045 73.108 67.0085 73.084 67.2965 72.976V72.376C66.8045 72.424 66.7085 72.196 66.7085 71.764V68.848C66.7085 67.216 65.7005 66.7 64.3445 66.7C62.4965 66.7 61.7405 67.624 61.6805 68.8H62.9045C62.9645 68.008 63.3365 67.696 64.3445 67.696C65.1845 67.696 65.4485 68.032 65.4485 68.476ZM63.6845 72.184C63.0005 72.184 62.6645 71.872 62.6645 71.308C62.6645 70.684 63.1205 70.384 64.1645 70.156C64.7525 70.036 65.2445 69.892 65.4485 69.748V70.672C65.4485 71.668 64.7285 72.184 63.6845 72.184ZM68.2614 65.836C68.6334 65.836 68.9814 65.596 68.9814 65.164C68.9814 64.732 68.6334 64.504 68.2614 64.504C67.9134 64.504 67.5534 64.732 67.5534 65.164C67.5534 65.596 67.9134 65.836 68.2614 65.836ZM67.6374 66.868V73H68.8974V66.868H67.6374ZM69.6287 64.42V73H70.9007V64.42H69.6287ZM72.3762 73.084C72.3762 73.54 72.0882 73.912 71.6442 73.996V74.68C72.6882 74.512 73.1202 73.516 73.1202 72.64C73.1202 71.968 72.8442 71.536 72.3042 71.536C71.8722 71.536 71.5242 71.824 71.5242 72.34C71.5242 72.904 71.9082 73.168 72.3762 73.084ZM79.2321 68.476C79.2321 69.064 78.6561 69.184 77.7081 69.364C76.1721 69.664 75.1761 70.084 75.1761 71.428C75.1761 72.46 75.9441 73.18 77.1921 73.18C78.1401 73.18 78.8361 72.808 79.2201 72.268H79.2441C79.3641 72.868 79.6761 73.108 80.3481 73.108C80.5881 73.108 80.7921 73.084 81.0801 72.976V72.376C80.5881 72.424 80.4921 72.196 80.4921 71.764V68.848C80.4921 67.216 79.4841 66.7 78.1281 66.7C76.2801 66.7 75.5241 67.624 75.4641 68.8H76.6881C76.7481 68.008 77.1201 67.696 78.1281 67.696C78.9681 67.696 79.2321 68.032 79.2321 68.476ZM77.4681 72.184C76.7841 72.184 76.4481 71.872 76.4481 71.308C76.4481 70.684 76.9041 70.384 77.9481 70.156C78.5361 70.036 79.0281 69.892 79.2321 69.748V70.672C79.2321 71.668 78.5121 72.184 77.4681 72.184ZM84.637 66.7C83.581 66.7 82.945 67.18 82.621 67.66H82.597V66.868H81.337V73H82.597V69.268C82.597 68.356 83.221 67.768 84.193 67.768C85.057 67.768 85.405 68.296 85.405 69.124V73H86.677V68.764C86.677 67.36 85.777 66.7 84.637 66.7ZM91.6572 64.42V67.612H91.6332C91.3092 67.144 90.7092 66.7 89.7612 66.7C88.1892 66.7 87.0252 67.924 87.0252 69.94C87.0252 71.956 88.1892 73.18 89.7612 73.18C90.7092 73.18 91.3092 72.712 91.6332 72.292H91.6572V73H92.9172V64.42H91.6572ZM89.9772 72.148C88.8732 72.148 88.2852 71.14 88.2852 69.94C88.2852 68.74 88.8732 67.732 89.9772 67.732C91.0092 67.732 91.6452 68.572 91.6452 69.94C91.6452 71.296 91.0092 72.148 89.9772 72.148ZM95.4718 64.42V73H96.7438V64.42H95.4718ZM100.199 72.148C99.0833 72.148 98.4233 71.296 98.4233 70.264H103.127C103.127 68.08 102.155 66.7 100.175 66.7C98.3273 66.7 97.1633 67.948 97.1633 69.94C97.1633 71.86 98.3273 73.18 100.235 73.18C101.807 73.18 102.719 72.292 103.031 71.128H101.771C101.663 71.5 101.243 72.148 100.199 72.148ZM100.175 67.696C101.195 67.696 101.867 68.38 101.867 69.328H98.4233C98.4233 68.38 99.1553 67.696 100.175 67.696ZM106.322 67.9V66.868H105.17V64.936H103.898V66.868H103.01V67.9H103.898V71.332C103.898 72.628 104.45 73.084 105.458 73.084C105.794 73.084 106.07 73.048 106.322 72.988V71.956C105.506 72.004 105.17 71.92 105.17 71.224V67.9H106.322ZM107.513 65.872C107.513 66.328 107.225 66.7 106.781 66.784V67.468C107.825 67.3 108.257 66.304 108.257 65.428C108.257 64.756 107.981 64.324 107.441 64.324C107.009 64.324 106.661 64.612 106.661 65.128C106.661 65.692 107.045 65.956 107.513 65.872ZM110.899 69.292C110.011 69.088 109.327 69.04 109.327 68.416C109.327 67.984 109.735 67.696 110.491 67.696C111.475 67.696 111.715 68.188 111.799 68.668H113.023C112.939 67.6 112.147 66.7 110.479 66.7C108.943 66.7 108.055 67.504 108.055 68.512C108.055 69.904 109.375 70.096 110.347 70.324C111.247 70.54 111.979 70.6 111.979 71.368C111.979 71.752 111.607 72.184 110.731 72.184C109.435 72.184 109.147 71.62 109.087 70.96H107.863C107.923 72.256 108.775 73.18 110.755 73.18C112.243 73.18 113.251 72.448 113.251 71.272C113.251 69.808 112.027 69.556 110.899 69.292ZM118.695 66.7C117.663 66.7 117.027 67.18 116.703 67.66H116.679V64.42H115.419V73H116.679V69.268C116.679 68.356 117.339 67.768 118.263 67.768C119.139 67.768 119.487 68.296 119.487 69.124V73H120.759V68.764C120.759 67.36 119.859 66.7 118.695 66.7ZM125.14 68.476C125.14 69.064 124.564 69.184 123.616 69.364C122.08 69.664 121.084 70.084 121.084 71.428C121.084 72.46 121.852 73.18 123.1 73.18C124.048 73.18 124.744 72.808 125.128 72.268H125.152C125.272 72.868 125.584 73.108 126.256 73.108C126.496 73.108 126.7 73.084 126.988 72.976V72.376C126.496 72.424 126.4 72.196 126.4 71.764V68.848C126.4 67.216 125.392 66.7 124.036 66.7C122.188 66.7 121.432 67.624 121.372 68.8H122.596C122.656 68.008 123.028 67.696 124.036 67.696C124.876 67.696 125.14 68.032 125.14 68.476ZM123.376 72.184C122.692 72.184 122.356 71.872 122.356 71.308C122.356 70.684 122.812 70.384 123.856 70.156C124.444 70.036 124.936 69.892 125.14 69.748V70.672C125.14 71.668 124.42 72.184 123.376 72.184ZM126.527 66.868L128.699 73H130.127L132.299 66.868H130.967L129.419 71.668H129.407L127.859 66.868H126.527ZM134.984 72.148C133.868 72.148 133.208 71.296 133.208 70.264H137.912C137.912 68.08 136.94 66.7 134.96 66.7C133.112 66.7 131.948 67.948 131.948 69.94C131.948 71.86 133.112 73.18 135.02 73.18C136.592 73.18 137.504 72.292 137.816 71.128H136.556C136.448 71.5 136.028 72.148 134.984 72.148ZM134.96 67.696C135.98 67.696 136.652 68.38 136.652 69.328H133.208C133.208 68.38 133.94 67.696 134.96 67.696ZM143.809 68.476C143.809 69.064 143.233 69.184 142.285 69.364C140.749 69.664 139.753 70.084 139.753 71.428C139.753 72.46 140.521 73.18 141.769 73.18C142.717 73.18 143.413 72.808 143.797 72.268H143.821C143.941 72.868 144.253 73.108 144.925 73.108C145.165 73.108 145.369 73.084 145.657 72.976V72.376C145.165 72.424 145.069 72.196 145.069 71.764V68.848C145.069 67.216 144.061 66.7 142.705 66.7C140.857 66.7 140.101 67.624 140.041 68.8H141.265C141.325 68.008 141.697 67.696 142.705 67.696C143.545 67.696 143.809 68.032 143.809 68.476ZM142.045 72.184C141.361 72.184 141.025 71.872 141.025 71.308C141.025 70.684 141.481 70.384 142.525 70.156C143.113 70.036 143.605 69.892 143.809 69.748V70.672C143.809 71.668 143.089 72.184 142.045 72.184ZM151.944 69.112H153.204C153.048 67.72 152.004 66.7 150.408 66.7C148.584 66.7 147.396 68.02 147.396 69.94C147.396 71.86 148.584 73.18 150.42 73.18C152.016 73.18 153.108 72.136 153.204 70.72H151.944C151.896 71.404 151.5 72.148 150.42 72.148C149.172 72.148 148.656 71.092 148.656 69.94C148.656 68.788 149.184 67.732 150.42 67.732C151.5 67.732 151.896 68.488 151.944 69.112ZM156.832 66.7C155.8 66.7 155.164 67.18 154.84 67.66H154.816V64.42H153.556V73H154.816V69.268C154.816 68.356 155.476 67.768 156.4 67.768C157.276 67.768 157.624 68.296 157.624 69.124V73H158.896V68.764C158.896 67.36 157.996 66.7 156.832 66.7ZM163.276 68.476C163.276 69.064 162.7 69.184 161.752 69.364C160.216 69.664 159.22 70.084 159.22 71.428C159.22 72.46 159.988 73.18 161.236 73.18C162.184 73.18 162.88 72.808 163.264 72.268H163.288C163.408 72.868 163.72 73.108 164.392 73.108C164.632 73.108 164.836 73.084 165.124 72.976V72.376C164.632 72.424 164.536 72.196 164.536 71.764V68.848C164.536 67.216 163.528 66.7 162.172 66.7C160.324 66.7 159.568 67.624 159.508 68.8H160.732C160.792 68.008 161.164 67.696 162.172 67.696C163.012 67.696 163.276 68.032 163.276 68.476ZM161.512 72.184C160.828 72.184 160.492 71.872 160.492 71.308C160.492 70.684 160.948 70.384 161.992 70.156C162.58 70.036 163.072 69.892 163.276 69.748V70.672C163.276 71.668 162.556 72.184 161.512 72.184ZM168.192 67.9V66.868H167.04V64.936H165.768V66.868H164.88V67.9H165.768V71.332C165.768 72.628 166.32 73.084 167.328 73.084C167.664 73.084 167.94 73.048 168.192 72.988V71.956C167.376 72.004 167.04 71.92 167.04 71.224V67.9H168.192ZM177.11 71.968V70.792L173.258 69.292V69.268L177.11 67.756V66.568L172.214 68.62V69.928L177.11 71.968ZM179.297 67.216C179.297 66.4 179.717 65.716 181.025 65.716C182.009 65.716 182.441 66.244 182.441 66.928C182.441 67.78 181.865 68.14 181.001 68.14H180.305V69.244H181.049C181.901 69.244 182.729 69.496 182.729 70.636C182.729 71.512 182.249 71.992 181.001 71.992C179.585 71.992 179.069 71.272 179.069 70.156H177.725C177.725 72.064 178.913 73.18 181.097 73.18C182.897 73.18 184.109 72.304 184.109 70.672C184.109 69.688 183.713 68.944 182.585 68.62V68.596C183.377 68.26 183.833 67.708 183.833 66.82C183.833 65.356 182.537 64.528 181.073 64.528C178.997 64.528 177.941 65.668 177.941 67.216H179.297Z" fill="white"/>
<path d="M263.698 104.058C263.716 105.864 261.519 106.766 260.262 105.469L247.931 92.7418C246.947 91.7259 247.3 90.0371 248.608 89.4999L260.77 84.5069C262.079 83.9697 263.516 84.9236 263.53 86.338L263.698 104.058Z" fill="#131313"/>
</svg>
