<svg xmlns="http://www.w3.org/2000/svg" width="59" height="61" fill="none" xmlns:v="https://vecta.io/nano"><path d="M29.54 60.199c18.092 0 29.46-12.771 29.46-29.96S47.632.199 29.54.199 0 13.051 0 30.239s11.448 29.96 29.54 29.96zm0-3.454c-15.691 0-25.297-11.807-25.297-26.506 0-14.779 9.607-26.586 25.297-26.586 15.611 0 25.217 11.807 25.217 26.586 0 14.699-9.607 26.506-25.217 26.506zm8.406-31.406h7.125c-.801-7.309-6.404-13.173-15.691-13.173-10.407 0-16.251 7.55-16.251 18.072 0 10.602 6.164 17.992 16.892 17.992 9.126 0 14.57-5.863 15.05-13.253h-7.125c-.32 2.49-1.921 6.908-8.326 6.908-7.125 0-9.286-5.301-9.286-11.647 0-6.426 2.161-11.727 9.286-11.727 6.404 0 8.005 4.659 8.326 6.827z" fill="#cecece"/></svg>