<svg xmlns="http://www.w3.org/2000/svg" xmlns:xlink="http://www.w3.org/1999/xlink" width="929" height="183" fill="none" xmlns:v="https://vecta.io/nano"><g fill="#cecece"><path d="M910.072 171.819h-5.652v1.416h5.652c1.296 0 1.884.648 1.884 1.968 0 1.308-.588 1.956-1.884 1.956h-5.652v1.428h5.652c1.872 0 3.108-.996 3.108-3.384s-1.236-3.384-3.108-3.384zm-1.452-3.133l4.38 2.904v-1.668l-3.348-2.04v-.012l3.348-2.052v-1.668l-4.404 2.904-4.176-2.688v1.548l3.168 1.956v.012l-3.168 1.944v1.548l4.2-2.688zm4.38-6.708v-3.372c0-2.376-1.524-3.78-4.284-3.78s-4.296 1.452-4.296 3.816v3.336H913zm-7.368-1.428v-1.836c0-1.92 1.44-2.46 3.084-2.46s3.072.54 3.072 2.46v1.836h-6.156z"/><use xlink:href="#B"/><use xlink:href="#C"/><use xlink:href="#D"/><use xlink:href="#E"/><use xlink:href="#F"/><use xlink:href="#B" y="-25.772"/><path d="M906.724 119.581c0 .804.528 1.308 1.296 1.632v.024h-1.152v1.26H913v-1.26h-3.132c-1.308 0-2.124-.972-1.92-2.184v-.024h-1.188c-.024.18-.036.336-.036.552z"/><use xlink:href="#C" y="-31.375"/><path d="M906.7 108.347c0 .96.456 1.56.888 1.884v.024h-.72v1.272h8.22v-1.272h-2.82v-.024c.456-.324.912-.924.912-1.884 0-1.56-1.224-2.724-3.24-2.724s-3.24 1.164-3.24 2.724zm5.448.24c0 1.02-.852 1.656-2.208 1.656-1.368 0-2.208-.636-2.208-1.656 0-1.104 1.008-1.692 2.208-1.692s2.208.588 2.208 1.692z"/><use xlink:href="#B" y="-49.107"/><path d="M909.112 94.939v-1.26c-1.392.156-2.412 1.2-2.412 2.796 0 1.824 1.32 3.012 3.24 3.012s3.24-1.188 3.24-3.024c0-1.596-1.044-2.688-2.46-2.784v1.26c.684.048 1.428.444 1.428 1.524 0 1.248-1.056 1.764-2.208 1.764s-2.208-.528-2.208-1.764c0-1.08.756-1.476 1.38-1.524z"/><use xlink:href="#D" y="-49.575"/><path d="M908.476 87.473c.588 0 .708.576.888 1.524.3 1.536.72 2.532 2.064 2.532 1.032 0 1.752-.768 1.752-2.016 0-.948-.372-1.644-.912-2.028v-.024c.6-.12.84-.432.84-1.104 0-.24-.024-.444-.132-.732h-.6c.048.492-.18.588-.612.588h-2.916c-1.632 0-2.148 1.008-2.148 2.364 0 1.848.924 2.604 2.1 2.664v-1.224c-.792-.06-1.104-.432-1.104-1.44 0-.84.336-1.104.78-1.104zm3.708 1.764c0 .684-.312 1.02-.876 1.02-.624 0-.924-.456-1.152-1.5-.12-.588-.264-1.08-.408-1.284h.924c.996 0 1.512.72 1.512 1.764z"/><path d="M904.42 85.344H913v-1.272h-8.58v1.272z"/><use xlink:href="#D" y="-59.479"/><path d="M912.064 81.505H913v-5.124h-1.032v3.504h-.024l-4.236-3.372h-.84v4.776h1.032v-3.084h.024l4.14 3.3z"/><use xlink:href="#D" y="-66.933"/><use xlink:href="#F" y="-60.71"/><use xlink:href="#E" y="-72.945"/><use xlink:href="#D" y="-83.118"/><use xlink:href="#F" y="-76.895"/><path d="M917.42 179.127l8.58-2.928v-1.548l-8.58-2.928v1.512l7.02 2.184v.012l-7.02 2.184v1.512z"/><use xlink:href="#G"/><use xlink:href="#C" x="13" y="21.118"/><path d="M919.868 159.988h3.732c.912 0 1.5.624 1.5 1.596 0 .864-.528 1.212-1.356 1.212h-3.876v1.272h4.236c1.404 0 2.064-.9 2.064-2.04 0-1.056-.48-1.692-.96-2.016v-.024H926v-1.26h-6.132v1.26zm1.608-5.689c.588 0 .708.576.888 1.524.3 1.536.72 2.532 2.064 2.532 1.032 0 1.752-.767 1.752-2.015 0-.948-.372-1.645-.912-2.029v-.023c.6-.12.84-.432.84-1.104 0-.24-.024-.444-.132-.732h-.6c.048.492-.18.587-.612.587h-2.916c-1.632 0-2.148 1.009-2.148 2.365 0 1.848.924 2.604 2.1 2.664v-1.224c-.792-.06-1.104-.432-1.104-1.44 0-.84.336-1.105.78-1.105zm3.708 1.765c0 .684-.312 1.019-.876 1.019-.624 0-.924-.456-1.152-1.5-.12-.588-.264-1.08-.408-1.284h.924c.996 0 1.512.721 1.512 1.765z"/><path d="M917.42 152.171H926v-1.272h-8.58v1.272zm8.58-3.953v-3.372c0-2.376-1.524-3.78-4.284-3.78s-4.296 1.452-4.296 3.816v3.336H926zm-7.368-1.428v-1.836c0-1.92 1.44-2.46 3.084-2.46s3.072.54 3.072 2.46v1.836h-6.156z"/><use xlink:href="#B" x="13" y="-13.76"/><use xlink:href="#C" x="13" y="-13.76"/><use xlink:href="#G" y="-42.391"/><use xlink:href="#E" x="13" y="-13.76"/><path d="M919.7 117.473c0 1.056.48 1.692.96 2.016v.024h-.792v1.26H926v-1.26h-3.732c-.912 0-1.5-.624-1.5-1.596 0-.864.528-1.212 1.356-1.212H926v-1.272h-4.236c-1.404 0-2.064.9-2.064 2.04z"/><path d="M64.764 178.79H0V0h64.764c49.261 0 79.518 32.007 79.518 89.52s-30.257 89.27-79.518 89.27zm0-158.786H22.505v138.781h42.259c45.51 0 57.013-34.257 57.013-69.265s-11.503-69.515-57.013-69.515zM188.44 178.79h-22.505V0h72.516c35.258 0 59.013 19.004 59.013 50.761 0 25.756-12.252 40.009-32.007 45.01v.5c26.857 5.236 28.955 38.996 30.339 61.281.666 10.706 1.167 18.764 4.169 19.737v1.501H275.71c-2.251-2.178-2.415-9.184-2.622-18.03-.505-21.621-1.267-54.236-33.386-54.236H188.44v72.266zM233.2 20.004h-44.76v66.515h44.76c18.504 0 41.759-2.251 41.759-33.257S251.704 20.004 233.2 20.004z" fill-rule="evenodd"/><path d="M455.644 119.276V0h-22.505v119.276c0 29.007-15.003 43.01-46.01 43.01s-46.01-14.003-46.01-43.01V0h-22.505v119.276c0 36.509 20.754 63.014 68.515 63.014s68.515-26.505 68.515-63.014zm25.557 59.514V0h22.505v76.017h95.521V0h22.505v178.79h-22.505V96.021h-95.521v82.769h-22.505zM697.823 0v178.79h22.505V0h-22.505zm73.901 178.79h-22.505V0h27.506l89.27 147.283h.5V0H889v178.79h-27.506l-89.27-146.783h-.5V178.79zm-119.035-25.899a5 5 0 0 0-5 5v16.791a5 5 0 0 0 5 5h16.792a5 5 0 0 0 5-5v-16.791a5 5 0 0 0-5-5h-16.792z"/></g><defs ><path id="B" d="M912.148 151.581c0 1.116-.852 1.776-1.884 1.776v-4.704c-2.184 0-3.564.972-3.564 2.952 0 1.848 1.248 3.012 3.24 3.012 1.92 0 3.24-1.164 3.24-3.072 0-1.572-.888-2.484-2.052-2.796v1.26c.372.108 1.02.528 1.02 1.572zm-4.452.024c0-1.02.684-1.692 1.632-1.692v3.444c-.948 0-1.632-.732-1.632-1.752z"/><path id="C" d="M909.292 145.617c-.204.888-.252 1.572-.876 1.572-.432 0-.72-.408-.72-1.164 0-.984.492-1.224.972-1.308v-1.224c-1.068.084-1.968.876-1.968 2.544 0 1.536.804 2.424 1.812 2.424 1.392 0 1.584-1.32 1.812-2.292.216-.9.276-1.632 1.044-1.632.384 0 .816.372.816 1.248 0 1.296-.564 1.584-1.224 1.644v1.224c1.296-.06 2.22-.912 2.22-2.892 0-1.488-.732-2.496-1.908-2.496-1.464 0-1.716 1.224-1.98 2.352z"/><path id="D" d="M905.836 142.193c0-.372-.24-.72-.672-.72s-.66.348-.66.72c0 .348.228.708.66.708s.672-.36.672-.708zm1.032.624H913v-1.26h-6.132v1.26z"/><path id="E" d="M906.868 136.508h.72v.024c-.432.324-.888.888-.888 1.86 0 1.536 1.056 2.688 3 2.688 1.932 0 3-1.152 3-2.688 0-.972-.456-1.536-.912-1.86v-.024h.744c1.104 0 1.584.54 1.584 1.596 0 .996-.408 1.428-.948 1.548v1.272c1.032-.132 1.956-1.104 1.956-2.868 0-1.74-.78-2.808-2.544-2.808h-5.712v1.26zm4.8 1.644c0 1.104-.84 1.668-1.968 1.668-1.14 0-1.968-.564-1.968-1.668 0-1.02.672-1.632 1.968-1.632s1.968.612 1.968 1.632z"/><path id="F" d="M906.7 131.233c0 1.056.48 1.692.96 2.016v.024h-.792v1.26H913v-1.26h-3.732c-.912 0-1.5-.624-1.5-1.596 0-.864.528-1.212 1.356-1.212H913v-1.272h-4.236c-1.404 0-2.064.9-2.064 2.04z"/><path id="G" d="M918.836 170.824c0-.372-.24-.72-.672-.72s-.66.348-.66.72c0 .348.228.708.66.708s.672-.36.672-.708zm1.032.624H926v-1.26h-6.132v1.26z"/></defs></svg>