<svg width="172" height="39" viewBox="0 0 172 39" fill="none" xmlns="http://www.w3.org/2000/svg">
<path d="M28.7852 17.965H30.5702C30.3152 15.775 28.6652 14.05 25.9502 14.05C22.8602 14.05 20.9102 16.405 20.9102 19.63C20.9102 22.87 22.8602 25.225 25.9502 25.225C28.6802 25.225 30.3302 23.5 30.5702 21.085H28.7852C28.6652 22.39 27.9002 23.695 25.9052 23.695C23.5952 23.695 22.6802 21.76 22.6802 19.63C22.6802 17.515 23.5952 15.58 25.9052 15.58C27.8852 15.58 28.5902 16.885 28.7852 17.965ZM36.1514 25.225C39.3764 25.225 41.4164 22.855 41.4164 19.63C41.4164 16.405 39.3764 14.05 36.1514 14.05C32.9114 14.05 30.8864 16.405 30.8864 19.63C30.8864 22.855 32.9114 25.225 36.1514 25.225ZM36.1514 23.695C33.6914 23.695 32.6564 21.805 32.6564 19.63C32.6564 17.47 33.6914 15.58 36.1514 15.58C38.6114 15.58 39.6314 17.47 39.6314 19.63C39.6314 21.805 38.6114 23.695 36.1514 23.695ZM42.2343 25H44.0193V16.975H44.0493L48.8943 25H50.8743V14.275H49.0893V22.33H49.0593L44.2293 14.275H42.2343V25ZM54.5911 25H56.3761V15.79H59.7961V14.275H51.1561V15.79H54.5911V25ZM65.3066 22.465L66.1766 25H67.9916L64.0616 14.275H62.1866L58.2416 25H60.0566L60.9266 22.465H65.3066ZM61.4216 20.98L63.1166 15.91H63.1466L64.8266 20.98H61.4216ZM75.3116 17.965H77.0966C76.8416 15.775 75.1916 14.05 72.4766 14.05C69.3866 14.05 67.4366 16.405 67.4366 19.63C67.4366 22.87 69.3866 25.225 72.4766 25.225C75.2066 25.225 76.8566 23.5 77.0966 21.085H75.3116C75.1916 22.39 74.4266 23.695 72.4316 23.695C70.1216 23.695 69.2066 21.76 69.2066 19.63C69.2066 17.515 70.1216 15.58 72.4316 15.58C74.4116 15.58 75.1166 16.885 75.3116 17.965ZM80.3008 25H82.0858V15.79H85.5058V14.275H76.8658V15.79H80.3008V25ZM94.4983 23.815C95.8183 23.815 97.2583 22.96 97.2583 20.155C97.2583 16.945 95.0233 14.29 91.2283 14.29C87.5383 14.29 84.9133 17.125 84.9133 20.53C84.9133 24.235 87.4333 26.605 91.0783 26.605C92.1583 26.605 93.1933 26.47 94.1833 25.96L93.7633 25C92.8783 25.36 92.0083 25.45 91.0783 25.45C88.1983 25.45 86.1433 23.485 86.1433 20.53C86.1433 17.875 88.1833 15.445 91.2283 15.445C94.2433 15.445 96.0733 17.5 96.0733 20.2C96.0733 21.865 95.4883 22.675 94.6033 22.675C93.8833 22.675 93.5533 22.135 93.6883 21.115L94.1683 17.35H92.8033L92.6533 18.46H92.6233C92.3533 17.8 91.6483 17.245 90.6583 17.245C89.1433 17.245 87.8983 18.58 87.8983 20.65C87.8983 22.615 88.9933 23.755 90.3583 23.755C91.3933 23.755 91.9933 23.305 92.3833 22.6H92.4133C92.8183 23.365 93.5383 23.815 94.4983 23.815ZM90.6733 22.51C89.6683 22.51 89.2483 21.745 89.2483 20.725C89.2483 19.42 89.8633 18.49 90.9583 18.49C91.7833 18.49 92.3833 19.075 92.3833 20.275C92.3833 21.535 91.8283 22.51 90.6733 22.51ZM98.0484 25H102.263C105.233 25 106.988 23.095 106.988 19.645C106.988 16.195 105.173 14.275 102.218 14.275H98.0484V25ZM99.8334 15.79H102.128C104.528 15.79 105.203 17.59 105.203 19.645C105.203 21.7 104.528 23.485 102.128 23.485H99.8334V15.79ZM107.819 25H109.604V20.86H112.229C114.809 20.86 113.804 24.55 114.299 25H116.174V24.895C115.604 24.715 116.504 20.515 114.029 20.05V20.02C115.259 19.72 116.024 18.85 116.024 17.35C116.024 15.4 114.599 14.275 112.394 14.275H107.819V25ZM109.604 15.79H112.019C113.114 15.79 114.254 16.015 114.254 17.56C114.254 19.12 113.114 19.33 112.019 19.33H109.604V15.79ZM125.315 21.34V14.275H123.545V21.34C123.545 22.96 122.735 23.695 121.085 23.695C119.45 23.695 118.64 22.96 118.64 21.34V14.275H116.855V21.34C116.855 23.68 118.1 25.225 121.085 25.225C124.07 25.225 125.315 23.68 125.315 21.34ZM126.41 14.275V25H128.195V20.245H133.265V25H135.05V14.275H133.265V18.715H128.195V14.275H126.41ZM137.09 25.12C137.63 25.12 138.05 24.745 138.05 24.145C138.05 23.56 137.63 23.17 137.09 23.17C136.535 23.17 136.115 23.56 136.115 24.145C136.115 24.745 136.535 25.12 137.09 25.12ZM139.009 14.275V25H140.794V14.275H139.009ZM142.041 25H143.826V16.975H143.856L148.701 25H150.681V14.275H148.896V22.33H148.866L144.036 14.275H142.041V25Z" fill="#131313"/>
</svg>
