<svg width="99" height="13" viewBox="0 0 99 13" fill="none" xmlns="http://www.w3.org/2000/svg">
<path d="M6.37502 6.14H7.95002C7.75502 4.4 6.45002 3.125 4.45502 3.125C2.17502 3.125 0.69002 4.775 0.69002 7.175C0.69002 9.575 2.17502 11.225 4.47002 11.225C6.46502 11.225 7.83002 9.92 7.95002 8.15H6.37502C6.31502 9.005 5.82002 9.935 4.47002 9.935C2.91002 9.935 2.26502 8.615 2.26502 7.175C2.26502 5.735 2.92502 4.415 4.47002 4.415C5.82002 4.415 6.31502 5.36 6.37502 6.14ZM11.8405 11.225C9.44053 11.225 7.98553 9.56 7.98553 7.175C7.98553 4.79 9.44053 3.125 11.8405 3.125C14.2405 3.125 15.6955 4.79 15.6955 7.175C15.6955 9.56 14.2405 11.225 11.8405 11.225ZM11.8405 9.935C13.3405 9.935 14.1205 8.75 14.1205 7.175C14.1205 5.585 13.3405 4.415 11.8405 4.415C10.3405 4.415 9.56053 5.585 9.56053 7.175C9.56053 8.75 10.3405 9.935 11.8405 9.935ZM20.3091 3.125C18.9891 3.125 18.1941 3.725 17.7891 4.325H17.7591V3.335H16.1841V11H17.7591V6.335C17.7591 5.195 18.5391 4.46 19.7541 4.46C20.8341 4.46 21.2691 5.12 21.2691 6.155V11H22.8591V5.705C22.8591 3.95 21.7341 3.125 20.3091 3.125ZM27.2128 4.625V3.335H25.7728V0.919999H24.1828V3.335H23.0728V4.625H24.1828V8.915C24.1828 10.535 24.8728 11.105 26.1328 11.105C26.5528 11.105 26.8978 11.06 27.2128 10.985V9.695C26.1928 9.755 25.7728 9.65 25.7728 8.78V4.625H27.2128ZM32.4365 5.345C32.4365 6.08 31.7165 6.23 30.5315 6.455C28.6115 6.83 27.3665 7.355 27.3665 9.035C27.3665 10.325 28.3265 11.225 29.8865 11.225C31.0715 11.225 31.9415 10.76 32.4215 10.085H32.4515C32.6015 10.835 32.9915 11.135 33.8315 11.135C34.1315 11.135 34.3865 11.105 34.7465 10.97V10.22C34.1315 10.28 34.0115 9.995 34.0115 9.455V5.81C34.0115 3.77 32.7515 3.125 31.0565 3.125C28.7465 3.125 27.8015 4.28 27.7265 5.75H29.2565C29.3315 4.76 29.7965 4.37 31.0565 4.37C32.1065 4.37 32.4365 4.79 32.4365 5.345ZM30.2315 9.98C29.3765 9.98 28.9565 9.59 28.9565 8.885C28.9565 8.105 29.5265 7.73 30.8315 7.445C31.5665 7.295 32.1815 7.115 32.4365 6.935V8.09C32.4365 9.335 31.5365 9.98 30.2315 9.98ZM40.3477 6.14H41.9227C41.7277 4.4 40.4227 3.125 38.4277 3.125C36.1477 3.125 34.6627 4.775 34.6627 7.175C34.6627 9.575 36.1477 11.225 38.4427 11.225C40.4377 11.225 41.8027 9.92 41.9227 8.15H40.3477C40.2877 9.005 39.7927 9.935 38.4427 9.935C36.8827 9.935 36.2377 8.615 36.2377 7.175C36.2377 5.735 36.8977 4.415 38.4427 4.415C39.7927 4.415 40.2877 5.36 40.3477 6.14ZM46.0232 4.625V3.335H44.5832V0.919999H42.9932V3.335H41.8832V4.625H42.9932V8.915C42.9932 10.535 43.6832 11.105 44.9432 11.105C45.3632 11.105 45.7082 11.06 46.0232 10.985V9.695C45.0032 9.755 44.5832 9.65 44.5832 8.78V4.625H46.0232ZM55.9129 9.815C57.2329 9.815 58.6729 8.96 58.6729 6.155C58.6729 2.945 56.4379 0.289999 52.6429 0.289999C48.9529 0.289999 46.3279 3.125 46.3279 6.53C46.3279 10.235 48.8479 12.605 52.4929 12.605C53.5729 12.605 54.6079 12.47 55.5979 11.96L55.1779 11C54.2929 11.36 53.4229 11.45 52.4929 11.45C49.6129 11.45 47.5579 9.485 47.5579 6.53C47.5579 3.875 49.5979 1.445 52.6429 1.445C55.6579 1.445 57.4879 3.5 57.4879 6.2C57.4879 7.865 56.9029 8.675 56.0179 8.675C55.2979 8.675 54.9679 8.135 55.1029 7.115L55.5829 3.35H54.2179L54.0679 4.46H54.0379C53.7679 3.8 53.0629 3.245 52.0729 3.245C50.5579 3.245 49.3129 4.58 49.3129 6.65C49.3129 8.615 50.4079 9.755 51.7729 9.755C52.8079 9.755 53.4079 9.305 53.7979 8.6H53.8279C54.2329 9.365 54.9529 9.815 55.9129 9.815ZM52.0879 8.51C51.0829 8.51 50.6629 7.745 50.6629 6.725C50.6629 5.42 51.2779 4.49 52.3729 4.49C53.1979 4.49 53.7979 5.075 53.7979 6.275C53.7979 7.535 53.2429 8.51 52.0879 8.51ZM64.8001 0.274999V4.265H64.7701C64.3651 3.68 63.6151 3.125 62.4301 3.125C60.4651 3.125 59.0101 4.655 59.0101 7.175C59.0101 9.695 60.4651 11.225 62.4301 11.225C63.6151 11.225 64.3651 10.64 64.7701 10.115H64.8001V11H66.3751V0.274999H64.8001ZM62.7001 9.935C61.3201 9.935 60.5851 8.675 60.5851 7.175C60.5851 5.675 61.3201 4.415 62.7001 4.415C63.9901 4.415 64.7851 5.465 64.7851 7.175C64.7851 8.87 63.9901 9.935 62.7001 9.935ZM70.9269 3.155C69.9219 3.155 69.2919 3.815 68.8869 4.775H68.8569V3.335H67.2819V11H68.8569V7.085C68.8569 5.45 70.0719 4.43 71.5869 4.685H71.6169V3.2C71.3919 3.17 71.1969 3.155 70.9269 3.155ZM77.0686 3.335V8C77.0686 9.14 76.2886 9.875 75.0736 9.875C73.9936 9.875 73.5586 9.215 73.5586 8.18V3.335H71.9686V8.63C71.9686 10.385 73.0936 11.21 74.5186 11.21C75.8386 11.21 76.6336 10.61 77.0386 10.01H77.0686V11H78.6436V3.335H77.0686ZM83.6389 3.125C82.3489 3.125 81.5539 3.725 81.1489 4.325H81.1189V0.274999H79.5439V11H81.1189V6.335C81.1189 5.195 81.9439 4.46 83.0989 4.46C84.1939 4.46 84.6289 5.12 84.6289 6.155V11H86.2189V5.705C86.2189 3.95 85.0939 3.125 83.6389 3.125ZM87.8841 11.12C88.4241 11.12 88.8441 10.745 88.8441 10.145C88.8441 9.56 88.4241 9.17 87.8841 9.17C87.3291 9.17 86.9091 9.56 86.9091 10.145C86.9091 10.745 87.3291 11.12 87.8841 11.12ZM90.4935 2.045C90.9585 2.045 91.3935 1.745 91.3935 1.205C91.3935 0.665 90.9585 0.38 90.4935 0.38C90.0585 0.38 89.6085 0.665 89.6085 1.205C89.6085 1.745 90.0585 2.045 90.4935 2.045ZM89.7135 3.335V11H91.2885V3.335H89.7135ZM96.4147 3.125C95.0947 3.125 94.2997 3.725 93.8947 4.325H93.8647V3.335H92.2897V11H93.8647V6.335C93.8647 5.195 94.6447 4.46 95.8597 4.46C96.9397 4.46 97.3747 5.12 97.3747 6.155V11H98.9647V5.705C98.9647 3.95 97.8397 3.125 96.4147 3.125Z" fill="#131313"/>
</svg>
