<svg width="1260" height="710" viewBox="0 0 1260 710" fill="none" xmlns="http://www.w3.org/2000/svg">
<path d="M0 0H1260V710H0V0Z" fill="white"/>
<path d="M0 0H465V710H0V0Z" fill="#46B07A"/>
<path d="M24.3419 646V642.86H26.2819V640.9H24.3419V632.18H22.0219L15.4819 640.7V642.86H22.0219V646H24.3419ZM22.0219 635.06V640.9H17.5419L22.0219 635.06ZM28.9629 637.08C28.9629 635.18 29.7429 633.86 31.8029 633.86C33.5829 633.86 34.1229 635 34.1229 636.14C34.1229 638.1 32.5029 638.76 29.9629 640.44C27.8429 641.78 26.3829 643.56 26.3829 646H36.3029V644.04H29.4029V644C30.5429 641.18 36.4429 640.44 36.4429 636.04C36.4429 633.4 34.4229 631.88 31.8629 631.88C28.3229 631.88 26.7229 634.1 26.7229 637.08H28.9629V637.08ZM40.6989 639.84C43.0189 639.84 44.0589 638.02 44.0589 635.86C44.0589 633.72 43.0189 631.88 40.6989 631.88C38.4189 631.88 37.3389 633.72 37.3389 635.86C37.3389 638.02 38.4189 639.84 40.6989 639.84ZM49.6189 632.18H48.0189L40.7589 646H42.3589L49.6189 632.18V632.18ZM40.6989 638.32C39.5989 638.32 39.1189 637.38 39.1189 635.86C39.1189 634.34 39.5989 633.42 40.6989 633.42C41.7989 633.42 42.2789 634.34 42.2789 635.86C42.2789 637.38 41.7989 638.32 40.6989 638.32ZM49.6789 646.3C51.9989 646.3 53.0389 644.46 53.0389 642.32C53.0389 640.16 51.9989 638.34 49.6789 638.34C47.3989 638.34 46.3189 640.16 46.3189 642.32C46.3189 644.46 47.3989 646.3 49.6789 646.3ZM49.6789 644.76C48.5989 644.76 48.0989 643.84 48.0989 642.32C48.0989 640.8 48.5989 639.86 49.6789 639.86C50.7789 639.86 51.2589 640.8 51.2589 642.32C51.2589 643.84 50.7789 644.76 49.6789 644.76ZM68.0449 646.3C71.9449 646.3 73.6049 643.02 73.6049 639.1C73.6049 635.18 71.9449 631.88 68.0449 631.88C64.1449 631.88 62.4849 635.18 62.4849 639.1C62.4849 643.02 64.1449 646.3 68.0449 646.3ZM68.0449 644.32C65.6049 644.32 64.7849 641.98 64.7849 639.1C64.7849 636.22 65.6049 633.86 68.0449 633.86C70.4849 633.86 71.2849 636.22 71.2849 639.1C71.2849 641.98 70.4849 644.32 68.0449 644.32ZM77.3629 639.84C79.6829 639.84 80.7229 638.02 80.7229 635.86C80.7229 633.72 79.6829 631.88 77.3629 631.88C75.0829 631.88 74.0029 633.72 74.0029 635.86C74.0029 638.02 75.0829 639.84 77.3629 639.84ZM86.2829 632.18H84.6829L77.4219 646H79.0219L86.2819 632.18H86.2829ZM77.3629 638.32C76.2629 638.32 75.7829 637.38 75.7829 635.86C75.7829 634.34 76.2629 633.42 77.3629 633.42C78.4629 633.42 78.9429 634.34 78.9429 635.86C78.9429 637.38 78.4629 638.32 77.3629 638.32ZM86.3429 646.3C88.6629 646.3 89.7029 644.46 89.7029 642.32C89.7029 640.16 88.6629 638.34 86.3429 638.34C84.0629 638.34 82.9829 640.16 82.9829 642.32C82.9829 644.46 84.0629 646.3 86.3429 646.3ZM86.3429 644.76C85.2629 644.76 84.7629 643.84 84.7629 642.32C84.7629 640.8 85.2629 639.86 86.3429 639.86C87.4429 639.86 87.9229 640.8 87.9229 642.32C87.9229 643.84 87.4429 644.76 86.3429 644.76ZM101.529 637.08C101.529 635.18 102.309 633.86 104.369 633.86C106.149 633.86 106.689 635 106.689 636.14C106.689 638.1 105.069 638.76 102.529 640.44C100.409 641.78 98.9489 643.56 98.9489 646H108.869V644.04H101.969V644C103.109 641.18 109.009 640.44 109.009 636.04C109.009 633.4 106.989 631.88 104.429 631.88C100.889 631.88 99.2889 634.1 99.2889 637.08H101.529ZM112.917 632.18C112.777 633.88 112.057 635.12 109.557 635.12V636.78C110.717 636.78 111.637 636.78 112.457 635.98V646H114.777V632.18H112.917V632.18ZM119.262 639.84C121.582 639.84 122.622 638.02 122.622 635.86C122.622 633.72 121.582 631.88 119.262 631.88C116.982 631.88 115.902 633.72 115.902 635.86C115.902 638.02 116.982 639.84 119.262 639.84ZM128.182 632.18H126.582L119.322 646H120.922L128.182 632.18V632.18ZM119.262 638.32C118.162 638.32 117.682 637.38 117.682 635.86C117.682 634.34 118.162 633.42 119.262 633.42C120.362 633.42 120.842 634.34 120.842 635.86C120.842 637.38 120.362 638.32 119.262 638.32ZM128.242 646.3C130.562 646.3 131.602 644.46 131.602 642.32C131.602 640.16 130.562 638.34 128.242 638.34C125.962 638.34 124.882 640.16 124.882 642.32C124.882 644.46 125.962 646.3 128.242 646.3ZM128.242 644.76C127.162 644.76 126.662 643.84 126.662 642.32C126.662 640.8 127.162 639.86 128.242 639.86C129.342 639.86 129.822 640.8 129.822 642.32C129.822 643.84 129.342 644.76 128.242 644.76ZM143.249 636.36C143.249 635 143.949 633.86 146.129 633.86C147.769 633.86 148.489 634.74 148.489 635.88C148.489 637.3 147.529 637.9 146.089 637.9H144.929V639.74H146.169C147.589 639.74 148.969 640.16 148.969 642.06C148.969 643.52 148.169 644.32 146.089 644.32C143.729 644.32 142.869 643.12 142.869 641.26H140.629C140.629 644.44 142.609 646.3 146.249 646.3C149.249 646.3 151.269 644.84 151.269 642.12C151.269 640.48 150.609 639.24 148.729 638.7V638.66C150.049 638.1 150.809 637.18 150.809 635.7C150.809 633.26 148.649 631.88 146.209 631.88C142.749 631.88 140.989 633.78 140.989 636.36H143.249V636.36ZM155.031 632.18C154.891 633.88 154.171 635.12 151.671 635.12V636.78C152.831 636.78 153.751 636.78 154.571 635.98V646H156.891V632.18H155.031V632.18ZM161.376 639.84C163.696 639.84 164.736 638.02 164.736 635.86C164.736 633.72 163.696 631.88 161.376 631.88C159.096 631.88 158.016 633.72 158.016 635.86C158.016 638.02 159.096 639.84 161.376 639.84ZM170.296 632.18H168.696L161.436 646H163.036L170.296 632.18ZM161.376 638.32C160.276 638.32 159.796 637.38 159.796 635.86C159.796 634.34 160.276 633.42 161.376 633.42C162.476 633.42 162.956 634.34 162.956 635.86C162.956 637.38 162.476 638.32 161.376 638.32ZM170.356 646.3C172.676 646.3 173.716 644.46 173.716 642.32C173.716 640.16 172.676 638.34 170.356 638.34C168.076 638.34 166.996 640.16 166.996 642.32C166.996 644.46 168.076 646.3 170.356 646.3ZM170.356 644.76C169.276 644.76 168.776 643.84 168.776 642.32C168.776 640.8 169.276 639.86 170.356 639.86C171.456 639.86 171.936 640.8 171.936 642.32C171.936 643.84 171.456 644.76 170.356 644.76ZM15.4219 654.18V656.14H22.6619V656.18C20.2019 658.36 17.4819 663.44 17.4819 668H19.9219C19.9219 663.6 22.0419 658.56 25.1819 655.94V654.18H15.4219V654.18ZM30.6589 668.3C34.5589 668.3 36.2189 665.02 36.2189 661.1C36.2189 657.18 34.5589 653.88 30.6589 653.88C26.7589 653.88 25.0989 657.18 25.0989 661.1C25.0989 665.02 26.7589 668.3 30.6589 668.3ZM30.6589 666.32C28.2189 666.32 27.3989 663.98 27.3989 661.1C27.3989 658.22 28.2189 655.86 30.6589 655.86C33.0989 655.86 33.8989 658.22 33.8989 661.1C33.8989 663.98 33.0989 666.32 30.6589 666.32V666.32ZM37.9269 668.14C37.9269 668.9 37.4469 669.52 36.7069 669.66V670.8C38.4469 670.52 39.1669 668.86 39.1669 667.4C39.1669 666.28 38.7069 665.56 37.8069 665.56C37.0869 665.56 36.5069 666.04 36.5069 666.9C36.5069 667.84 37.1469 668.28 37.9269 668.14V668.14ZM46.1529 654.18C46.0129 655.88 45.2929 657.12 42.7929 657.12V658.78C43.9529 658.78 44.8729 658.78 45.6929 657.98V668H48.0129V654.18H46.1529ZM49.0979 654.18V656.14H56.3379V656.18C53.8779 658.36 51.1579 663.44 51.1579 668H53.5979C53.5979 663.6 55.7179 658.56 58.8579 655.94V654.18H49.0979V654.18ZM61.0949 660.66V660.62C61.1349 658.1 61.7149 655.78 64.2149 655.78C65.6749 655.78 66.3949 656.62 66.5349 657.68H68.8549C68.5749 655.6 66.8349 653.88 64.2349 653.88C60.7549 653.88 58.7749 656.42 58.7749 661.14C58.7749 665.28 60.1949 668.3 64.2349 668.3C67.3349 668.3 69.2349 666.18 69.2349 663.46C69.2349 660.74 67.3749 658.86 64.6549 658.86C63.0549 658.86 61.7749 659.54 61.0949 660.66V660.66ZM64.1549 666.4C62.3149 666.4 61.2149 665.26 61.2149 663.62C61.2149 661.92 62.4349 660.76 64.2749 660.76C65.8549 660.76 66.9749 661.82 66.9749 663.58C66.9749 665.26 65.9349 666.4 64.1549 666.4V666.4ZM71.1529 668.14C71.1529 668.9 70.6729 669.52 69.9329 669.66V670.8C71.6729 670.52 72.3929 668.86 72.3929 667.4C72.3929 666.28 71.9329 665.56 71.0329 665.56C70.3129 665.56 69.7329 666.04 69.7329 666.9C69.7329 667.84 70.3729 668.28 71.1529 668.14ZM79.3799 654.18C79.2399 655.88 78.5199 657.12 76.0199 657.12V658.78C77.1799 658.78 78.0999 658.78 78.9199 657.98V668H81.2399V654.18H79.3799ZM85.0439 659.08C85.0439 657.18 85.8239 655.86 87.8839 655.86C89.6639 655.86 90.2039 657 90.2039 658.14C90.2039 660.1 88.5839 660.76 86.0439 662.44C83.9239 663.78 82.4639 665.56 82.4639 668H92.3839V666.04H85.4839V666C86.6239 663.18 92.5239 662.44 92.5239 658.04C92.5239 655.4 90.5039 653.88 87.9439 653.88C84.4039 653.88 82.8039 656.1 82.8039 659.08H85.0439V659.08ZM95.5919 659.08C95.5919 657.18 96.3719 655.86 98.4319 655.86C100.212 655.86 100.752 657 100.752 658.14C100.752 660.1 99.1319 660.76 96.5919 662.44C94.4719 663.78 93.0119 665.56 93.0119 668H102.932V666.04H96.0319V666C97.1719 663.18 103.072 662.44 103.072 658.04C103.072 655.4 101.052 653.88 98.4919 653.88C94.9519 653.88 93.3519 656.1 93.3519 659.08H95.5919V659.08ZM25.8219 681.62L26.1619 679.9H24.2819L25.0419 676.18H23.3019L22.5619 679.9H20.3619L21.1219 676.18H19.4019L18.6419 679.9H16.6619L16.3219 681.62H18.3019L17.7219 684.52H15.9019L15.5819 686.24H17.3619L16.6019 690H18.3219L19.0819 686.24H21.2819L20.5219 690H22.2419L23.0019 686.24H25.1019L25.4219 684.52H23.3619L23.9419 681.62H25.8219V681.62ZM21.6219 684.52H19.4419L20.0219 681.62H22.2019L21.6219 684.52ZM34.9289 690V686.86H36.8689V684.9H34.9289V676.18H32.6089L26.0689 684.7V686.86H32.6089V690H34.9289ZM32.6089 679.06V684.9H28.1289L32.6089 679.06ZM39.5489 682.66V682.62C39.5889 680.1 40.1689 677.78 42.6689 677.78C44.1289 677.78 44.8489 678.62 44.9889 679.68H47.3089C47.0289 677.6 45.2889 675.88 42.6889 675.88C39.2089 675.88 37.2289 678.42 37.2289 683.14C37.2289 687.28 38.6489 690.3 42.6889 690.3C45.7889 690.3 47.6889 688.18 47.6889 685.46C47.6889 682.74 45.8289 680.86 43.1089 680.86C41.5089 680.86 40.2289 681.54 39.5489 682.66V682.66ZM42.6089 688.4C40.7689 688.4 39.6689 687.26 39.6689 685.62C39.6689 683.92 40.8889 682.76 42.7289 682.76C44.3089 682.76 45.4289 683.82 45.4289 685.58C45.4289 687.26 44.3889 688.4 42.6089 688.4V688.4ZM59.5429 679.3C59.5429 677 57.8429 675.7 54.9029 675.7H48.7629V690H55.2429C58.2029 690 60.1029 688.58 60.1029 685.82C60.1029 683.68 58.8229 682.58 57.3229 682.32V682.28C58.5029 681.88 59.5429 681.06 59.5429 679.3V679.3ZM51.1429 681.62V677.72H54.9629C56.3829 677.72 57.1629 678.42 57.1629 679.68C57.1629 680.94 56.5229 681.62 54.8229 681.62H51.1429V681.62ZM51.1429 683.4H55.3229C56.8229 683.4 57.7229 684.22 57.7229 685.68C57.7229 687.02 57.1029 687.98 55.0629 687.98H51.1429V683.4V683.4ZM66.1299 690.3C70.0299 690.3 71.6899 687.02 71.6899 683.1C71.6899 679.18 70.0299 675.88 66.1299 675.88C62.2299 675.88 60.5699 679.18 60.5699 683.1C60.5699 687.02 62.2299 690.3 66.1299 690.3ZM66.1299 688.32C63.6899 688.32 62.8699 685.98 62.8699 683.1C62.8699 680.22 63.6899 677.86 66.1299 677.86C68.5699 677.86 69.3699 680.22 69.3699 683.1C69.3699 685.98 68.5699 688.32 66.1299 688.32ZM71.5399 676.18V678.14H78.7799V678.18C76.3199 680.36 73.5999 685.44 73.5999 690H76.0399C76.0399 685.6 78.1599 680.56 81.2999 677.94V676.18H71.5399V676.18ZM90.3279 686.62L91.4879 690H93.9079L88.6679 675.7H86.1679L80.9079 690H83.3279L84.4879 686.62H90.3279ZM85.1479 684.64L87.4079 677.88H87.4479L89.6879 684.64H85.1479ZM325.917 38.3C330.217 38.3 332.937 35.14 332.937 30.84C332.937 26.54 330.217 23.4 325.917 23.4C321.597 23.4 318.897 26.54 318.897 30.84C318.897 35.14 321.597 38.3 325.917 38.3ZM325.917 36.26C322.637 36.26 321.257 33.74 321.257 30.84C321.257 27.96 322.637 25.44 325.917 25.44C329.197 25.44 330.557 27.96 330.557 30.84C330.557 33.74 329.197 36.26 325.917 36.26ZM343.987 28.62H346.367C346.027 25.7 343.827 23.4 340.207 23.4C336.087 23.4 333.487 26.54 333.487 30.84C333.487 35.16 336.087 38.3 340.207 38.3C343.847 38.3 346.047 36 346.367 32.78H343.987C343.827 34.52 342.807 36.26 340.147 36.26C337.067 36.26 335.847 33.68 335.847 30.84C335.847 28.02 337.067 25.44 340.147 25.44C342.787 25.44 343.727 27.18 343.987 28.62ZM349.709 29.6V25.72H357.669V23.7H347.329V38H357.869V35.98H349.709V31.64H356.689V29.6H349.709V29.6ZM367.486 34.62L368.646 38H371.066L365.826 23.7H363.326L358.066 38H360.486L361.646 34.62H367.486V34.62ZM362.306 32.64L364.566 25.88H364.606L366.846 32.64H362.306ZM371.627 38H374.007V27.3H374.047L380.507 38H383.147V23.7H380.767V34.44H380.727L374.287 23.7H371.627V38V38ZM397.761 28.16H400.141C399.701 25.42 397.701 23.4 393.981 23.4C389.861 23.4 387.261 26.54 387.261 30.84C387.261 35.16 389.581 38.3 393.721 38.3C395.881 38.3 397.221 37.48 398.181 36.04H398.221L398.741 38H400.381V30.5H393.921V32.42H397.961C397.941 34.7 396.141 36.26 393.881 36.26C390.621 36.26 389.641 33.54 389.641 30.84C389.641 28.16 390.901 25.44 393.961 25.44C396.081 25.44 397.401 26.46 397.761 28.16V28.16ZM401.806 38H404.186V32.48H407.686C411.126 32.48 409.786 37.4 410.446 38H412.946V37.86C412.186 37.62 413.386 32.02 410.086 31.4V31.36C411.726 30.96 412.746 29.8 412.746 27.8C412.746 25.2 410.846 23.7 407.906 23.7H401.806V38ZM404.186 25.72H407.406C408.866 25.72 410.386 26.02 410.386 28.08C410.386 30.16 408.866 30.44 407.406 30.44H404.186V25.72ZM416.276 29.6V25.72H424.236V23.7H413.896V38H424.436V35.98H416.276V31.64H423.256V29.6H416.276V29.6ZM427.957 29.6V25.72H435.917V23.7H425.577V38H436.117V35.98H427.957V31.64H434.937V29.6H427.957V29.6ZM437.257 38H439.637V27.3H439.677L446.137 38H448.777V23.7H446.397V34.44H446.357L439.917 23.7H437.257V38V38ZM465.002 0H1260V335H465.002V0Z" fill="#112824"/>
<path d="M1116.08 38.0004H1118.46V25.7204H1123.02V23.7004H1111.5V25.7204H1116.08V38.0004ZM1123.89 23.7004V38.0004H1126.27V23.7004H1123.89ZM1127.93 38.0004H1130.25V27.1604H1130.29L1134.07 38.0004H1135.97L1139.75 27.1604H1139.79V38.0004H1142.11V23.7004H1139.03L1135.05 34.7004H1135.01L1131.01 23.7004H1127.93V38.0004ZM1154.53 27.3004C1154.53 25.0004 1152.83 23.7004 1149.89 23.7004H1143.75V38.0004H1150.23C1153.19 38.0004 1155.09 36.5804 1155.09 33.8204C1155.09 31.6804 1153.81 30.5804 1152.31 30.3204V30.2804C1153.49 29.8804 1154.53 29.0604 1154.53 27.3004V27.3004ZM1146.13 29.6204V25.7204H1149.95C1151.37 25.7204 1152.15 26.4204 1152.15 27.6804C1152.15 28.9404 1151.51 29.6204 1149.81 29.6204H1146.13V29.6204ZM1146.13 31.4004H1150.31C1151.81 31.4004 1152.71 32.2204 1152.71 33.6804C1152.71 35.0204 1152.09 35.9804 1150.05 35.9804H1146.13V31.4004V31.4004ZM1158.4 29.6004V25.7204H1166.36V23.7004H1156.02V38.0004H1166.56V35.9804H1158.4V31.6404H1165.38V29.6004H1158.4ZM1167.7 38.0004H1170.08V32.4804H1173.58C1177.02 32.4804 1175.68 37.4004 1176.34 38.0004H1178.84V37.8604C1178.08 37.6204 1179.28 32.0204 1175.98 31.4004V31.3604C1177.62 30.9604 1178.64 29.8004 1178.64 27.8004C1178.64 25.2004 1176.74 23.7004 1173.8 23.7004H1167.7V38.0004V38.0004ZM1170.08 25.7204H1173.3C1174.76 25.7204 1176.28 26.0204 1176.28 28.0804C1176.28 30.1604 1174.76 30.4404 1173.3 30.4404H1170.08V25.7204ZM1192.76 28.1604H1195.14C1194.7 25.4204 1192.7 23.4004 1188.98 23.4004C1184.86 23.4004 1182.26 26.5404 1182.26 30.8404C1182.26 35.1604 1184.58 38.3004 1188.72 38.3004C1190.88 38.3004 1192.22 37.4804 1193.18 36.0404H1193.22L1193.74 38.0004H1195.38V30.5004H1188.92V32.4204H1192.96C1192.94 34.7004 1191.14 36.2604 1188.88 36.2604C1185.62 36.2604 1184.64 33.5404 1184.64 30.8404C1184.64 28.1604 1185.9 25.4404 1188.96 25.4404C1191.08 25.4404 1192.4 26.4604 1192.76 28.1604V28.1604ZM1196.8 38.0004H1199.18V32.4804H1202.68C1206.12 32.4804 1204.78 37.4004 1205.44 38.0004H1207.94V37.8604C1207.18 37.6204 1208.38 32.0204 1205.08 31.4004V31.3604C1206.72 30.9604 1207.74 29.8004 1207.74 27.8004C1207.74 25.2004 1205.84 23.7004 1202.9 23.7004H1196.8V38.0004V38.0004ZM1199.18 25.7204H1202.4C1203.86 25.7204 1205.38 26.0204 1205.38 28.0804C1205.38 30.1604 1203.86 30.4404 1202.4 30.4404H1199.18V25.7204ZM1211.27 29.6004V25.7204H1219.23V23.7004H1208.89V38.0004H1219.43V35.9804H1211.27V31.6404H1218.25V29.6004H1211.27V29.6004ZM1222.95 29.6004V25.7204H1230.91V23.7004H1220.57V38.0004H1231.11V35.9804H1222.95V31.6404H1229.93V29.6004H1222.95V29.6004ZM1232.26 38.0004H1234.64V27.3004H1234.68L1241.14 38.0004H1243.78V23.7004H1241.4V34.4404H1241.36L1234.92 23.7004H1232.26V38.0004ZM488.818 264.52V264.56C488.778 267.08 488.198 269.4 485.698 269.4C484.238 269.4 483.518 268.56 483.378 267.5H481.058C481.338 269.58 483.078 271.3 485.678 271.3C489.158 271.3 491.138 268.76 491.138 264.04C491.138 259.9 489.718 256.88 485.678 256.88C482.578 256.88 480.678 259 480.678 261.72C480.678 264.44 482.538 266.32 485.258 266.32C486.858 266.32 488.138 265.64 488.818 264.52ZM485.758 258.78C487.598 258.78 488.698 259.92 488.698 261.56C488.698 263.26 487.478 264.42 485.638 264.42C484.058 264.42 482.938 263.36 482.938 261.6C482.938 259.92 483.978 258.78 485.758 258.78ZM494.834 264.84C497.154 264.84 498.194 263.02 498.194 260.86C498.194 258.72 497.154 256.88 494.834 256.88C492.554 256.88 491.474 258.72 491.474 260.86C491.474 263.02 492.554 264.84 494.834 264.84ZM503.754 257.18H502.154L494.894 271H496.494L503.754 257.18ZM494.834 263.32C493.734 263.32 493.254 262.38 493.254 260.86C493.254 259.34 493.734 258.42 494.834 258.42C495.934 258.42 496.414 259.34 496.414 260.86C496.414 262.38 495.934 263.32 494.834 263.32ZM503.814 271.3C506.134 271.3 507.174 269.46 507.174 267.32C507.174 265.16 506.134 263.34 503.814 263.34C501.534 263.34 500.454 265.16 500.454 267.32C500.454 269.46 501.534 271.3 503.814 271.3ZM503.814 269.76C502.734 269.76 502.234 268.84 502.234 267.32C502.234 265.8 502.734 264.86 503.814 264.86C504.914 264.86 505.394 265.8 505.394 267.32C505.394 268.84 504.914 269.76 503.814 269.76ZM522.181 271.3C526.081 271.3 527.741 268.02 527.741 264.1C527.741 260.18 526.081 256.88 522.181 256.88C518.281 256.88 516.621 260.18 516.621 264.1C516.621 268.02 518.281 271.3 522.181 271.3ZM522.181 269.32C519.741 269.32 518.921 266.98 518.921 264.1C518.921 261.22 519.741 258.86 522.181 258.86C524.621 258.86 525.421 261.22 525.421 264.1C525.421 266.98 524.621 269.32 522.181 269.32ZM531.498 264.84C533.818 264.84 534.858 263.02 534.858 260.86C534.858 258.72 533.818 256.88 531.498 256.88C529.218 256.88 528.138 258.72 528.138 260.86C528.138 263.02 529.218 264.84 531.498 264.84ZM540.418 257.18H538.818L531.558 271H533.158L540.418 257.18V257.18ZM531.498 263.32C530.398 263.32 529.918 262.38 529.918 260.86C529.918 259.34 530.398 258.42 531.498 258.42C532.598 258.42 533.078 259.34 533.078 260.86C533.078 262.38 532.598 263.32 531.498 263.32ZM540.478 271.3C542.798 271.3 543.838 269.46 543.838 267.32C543.838 265.16 542.798 263.34 540.478 263.34C538.198 263.34 537.118 265.16 537.118 267.32C537.118 269.46 538.198 271.3 540.478 271.3ZM540.478 269.76C539.398 269.76 538.898 268.84 538.898 267.32C538.898 265.8 539.398 264.86 540.478 264.86C541.578 264.86 542.058 265.8 542.058 267.32C542.058 268.84 541.578 269.76 540.478 269.76ZM555.665 262.08C555.665 260.18 556.445 258.86 558.505 258.86C560.285 258.86 560.825 260 560.825 261.14C560.825 263.1 559.205 263.76 556.665 265.44C554.545 266.78 553.085 268.56 553.085 271H563.005V269.04H556.105V269C557.245 266.18 563.145 265.44 563.145 261.04C563.145 258.4 561.125 256.88 558.565 256.88C555.025 256.88 553.425 259.1 553.425 262.08H555.665V262.08ZM567.401 264.84C569.721 264.84 570.761 263.02 570.761 260.86C570.761 258.72 569.721 256.88 567.401 256.88C565.121 256.88 564.041 258.72 564.041 260.86C564.041 263.02 565.121 264.84 567.401 264.84ZM576.321 257.18H574.721L567.461 271H569.061L576.321 257.18ZM567.401 263.32C566.301 263.32 565.821 262.38 565.821 260.86C565.821 259.34 566.301 258.42 567.401 258.42C568.501 258.42 568.981 259.34 568.981 260.86C568.981 262.38 568.501 263.32 567.401 263.32ZM576.381 271.3C578.701 271.3 579.741 269.46 579.741 267.32C579.741 265.16 578.701 263.34 576.381 263.34C574.101 263.34 573.021 265.16 573.021 267.32C573.021 269.46 574.101 271.3 576.381 271.3ZM576.381 269.76C575.301 269.76 574.801 268.84 574.801 267.32C574.801 265.8 575.301 264.86 576.381 264.86C577.481 264.86 577.961 265.8 577.961 267.32C577.961 268.84 577.481 269.76 576.381 269.76ZM589.008 267.1C589.008 269.9 591.328 271.3 594.348 271.3C597.368 271.3 599.708 269.9 599.708 267.1C599.708 265.2 598.428 264.22 597.128 263.64V263.6C598.088 263.08 599.028 262.22 599.028 260.66C599.028 258.28 597.048 256.88 594.348 256.88C591.648 256.88 589.668 258.28 589.668 260.66C589.668 262.22 590.588 263.08 591.568 263.6V263.64C590.248 264.22 589.008 265.2 589.008 267.1V267.1ZM594.348 262.78C592.808 262.78 591.848 262.1 591.848 260.76C591.848 259.44 592.808 258.72 594.348 258.72C595.888 258.72 596.848 259.44 596.848 260.76C596.848 262.1 595.888 262.78 594.348 262.78ZM594.348 269.4C592.488 269.4 591.308 268.48 591.308 266.96C591.308 265.46 592.488 264.54 594.348 264.54C596.228 264.54 597.388 265.46 597.388 266.96C597.388 268.48 596.228 269.4 594.348 269.4ZM608.862 271V267.86H610.802V265.9H608.862V257.18H606.542L600.002 265.7V267.86H606.542V271H608.862V271ZM606.542 260.06V265.9H602.062L606.542 260.06ZM613.655 264.84C615.975 264.84 617.015 263.02 617.015 260.86C617.015 258.72 615.975 256.88 613.655 256.88C611.375 256.88 610.295 258.72 610.295 260.86C610.295 263.02 611.375 264.84 613.655 264.84ZM622.575 257.18H620.975L613.715 271H615.315L622.575 257.18ZM613.655 263.32C612.555 263.32 612.075 262.38 612.075 260.86C612.075 259.34 612.555 258.42 613.655 258.42C614.755 258.42 615.235 259.34 615.235 260.86C615.235 262.38 614.755 263.32 613.655 263.32ZM622.635 271.3C624.955 271.3 625.995 269.46 625.995 267.32C625.995 265.16 624.955 263.34 622.635 263.34C620.355 263.34 619.275 265.16 619.275 267.32C619.275 269.46 620.355 271.3 622.635 271.3ZM622.635 269.76C621.555 269.76 621.055 268.84 621.055 267.32C621.055 265.8 621.555 264.86 622.635 264.86C623.735 264.86 624.215 265.8 624.215 267.32C624.215 268.84 623.735 269.76 622.635 269.76ZM483.978 279.18C483.838 280.88 483.118 282.12 480.618 282.12V283.78C481.778 283.78 482.698 283.78 483.518 282.98V293H485.838V279.18H483.978V279.18ZM486.923 279.18V281.14H494.163V281.18C491.703 283.36 488.983 288.44 488.983 293H491.423C491.423 288.6 493.543 283.56 496.683 280.94V279.18H486.923ZM497.122 293.14C497.122 293.9 496.642 294.52 495.902 294.66V295.8C497.642 295.52 498.362 293.86 498.362 292.4C498.362 291.28 497.902 290.56 497.002 290.56C496.282 290.56 495.702 291.04 495.702 291.9C495.702 292.84 496.342 293.28 497.122 293.14V293.14ZM510.708 293V289.86H512.648V287.9H510.708V279.18H508.388L501.848 287.7V289.86H508.388V293H510.708V293ZM508.388 282.06V287.9H503.908L508.388 282.06ZM518.568 293.3C522.468 293.3 524.128 290.02 524.128 286.1C524.128 282.18 522.468 278.88 518.568 278.88C514.668 278.88 513.008 282.18 513.008 286.1C513.008 290.02 514.668 293.3 518.568 293.3ZM518.568 291.32C516.128 291.32 515.308 288.98 515.308 286.1C515.308 283.22 516.128 280.86 518.568 280.86C521.008 280.86 521.808 283.22 521.808 286.1C521.808 288.98 521.008 291.32 518.568 291.32ZM525.836 293.14C525.836 293.9 525.356 294.52 524.616 294.66V295.8C526.356 295.52 527.076 293.86 527.076 292.4C527.076 291.28 526.616 290.56 525.716 290.56C524.996 290.56 524.416 291.04 524.416 291.9C524.416 292.84 525.056 293.28 525.836 293.14ZM533.042 283.36C533.042 282 533.742 280.86 535.922 280.86C537.562 280.86 538.282 281.74 538.282 282.88C538.282 284.3 537.322 284.9 535.882 284.9H534.722V286.74H535.962C537.382 286.74 538.762 287.16 538.762 289.06C538.762 290.52 537.962 291.32 535.882 291.32C533.522 291.32 532.662 290.12 532.662 288.26H530.422C530.422 291.44 532.402 293.3 536.042 293.3C539.042 293.3 541.062 291.84 541.062 289.12C541.062 287.48 540.402 286.24 538.522 285.7V285.66C539.842 285.1 540.602 284.18 540.602 282.7C540.602 280.26 538.442 278.88 536.002 278.88C532.542 278.88 530.782 280.78 530.782 283.36H533.042V283.36ZM543.925 285.66V285.62C543.965 283.1 544.545 280.78 547.045 280.78C548.505 280.78 549.225 281.62 549.365 282.68H551.685C551.405 280.6 549.665 278.88 547.065 278.88C543.585 278.88 541.605 281.42 541.605 286.14C541.605 290.28 543.025 293.3 547.065 293.3C550.165 293.3 552.065 291.18 552.065 288.46C552.065 285.74 550.205 283.86 547.485 283.86C545.885 283.86 544.605 284.54 543.925 285.66V285.66ZM546.985 291.4C545.145 291.4 544.045 290.26 544.045 288.62C544.045 286.92 545.265 285.76 547.105 285.76C548.685 285.76 549.805 286.82 549.805 288.58C549.805 290.26 548.765 291.4 546.985 291.4V291.4ZM490.818 306.62L491.158 304.9H489.278L490.038 301.18H488.298L487.558 304.9H485.358L486.118 301.18H484.398L483.638 304.9H481.658L481.318 306.62H483.298L482.718 309.52H480.898L480.578 311.24H482.358L481.598 315H483.318L484.078 311.24H486.278L485.518 315H487.238L487.998 311.24H490.098L490.418 309.52H488.358L488.938 306.62H490.818ZM486.618 309.52H484.438L485.018 306.62H487.198L486.618 309.52ZM494.955 301.18C494.815 302.88 494.095 304.12 491.595 304.12V305.78C492.755 305.78 493.675 305.78 494.495 304.98V315H496.815V301.18H494.955V301.18ZM501.46 301.18C501.32 302.88 500.6 304.12 498.1 304.12V305.78C499.26 305.78 500.18 305.78 501 304.98V315H503.32V301.18H501.46V301.18ZM507.125 306.08C507.125 304.18 507.905 302.86 509.965 302.86C511.745 302.86 512.285 304 512.285 305.14C512.285 307.1 510.665 307.76 508.125 309.44C506.005 310.78 504.545 312.56 504.545 315H514.465V313.04H507.565V313C508.705 310.18 514.605 309.44 514.605 305.04C514.605 302.4 512.585 300.88 510.025 300.88C506.485 300.88 504.885 303.1 504.885 306.08H507.125V306.08ZM515.054 311.1C515.054 313.9 517.374 315.3 520.394 315.3C523.414 315.3 525.754 313.9 525.754 311.1C525.754 309.2 524.474 308.22 523.174 307.64V307.6C524.134 307.08 525.074 306.22 525.074 304.66C525.074 302.28 523.094 300.88 520.394 300.88C517.694 300.88 515.714 302.28 515.714 304.66C515.714 306.22 516.634 307.08 517.614 307.6V307.64C516.294 308.22 515.054 309.2 515.054 311.1V311.1ZM520.394 306.78C518.854 306.78 517.894 306.1 517.894 304.76C517.894 303.44 518.854 302.72 520.394 302.72C521.934 302.72 522.894 303.44 522.894 304.76C522.894 306.1 521.934 306.78 520.394 306.78ZM520.394 313.4C518.534 313.4 517.354 312.48 517.354 310.96C517.354 309.46 518.534 308.54 520.394 308.54C522.274 308.54 523.434 309.46 523.434 310.96C523.434 312.48 522.274 313.4 520.394 313.4ZM528.591 306.08C528.591 304.18 529.371 302.86 531.431 302.86C533.211 302.86 533.751 304 533.751 305.14C533.751 307.1 532.131 307.76 529.591 309.44C527.471 310.78 526.011 312.56 526.011 315H535.931V313.04H529.031V313C530.171 310.18 536.071 309.44 536.071 305.04C536.071 302.4 534.051 300.88 531.491 300.88C527.951 300.88 526.351 303.1 526.351 306.08H528.591V306.08ZM544.792 315V311.86H546.732V309.9H544.792V301.18H542.472L535.932 309.7V311.86H542.472V315H544.792V315ZM542.472 304.06V309.9H537.992L542.472 304.06Z" fill="white"/>
<path d="M465 335H940V710H465V335Z" fill="#A1C7A9"/>
<path d="M819.091 360.48C817.091 359.98 815.751 359.7 815.751 358.14C815.751 357.08 816.771 356.44 818.471 356.44C820.451 356.44 821.491 357.32 821.711 358.98H824.091C823.891 356.04 821.611 354.4 818.471 354.4C815.351 354.4 813.391 355.82 813.391 358.36C813.391 361.08 815.811 361.94 818.051 362.5C820.871 363.2 822.091 363.52 822.091 365.22C822.091 366.32 821.271 367.26 819.151 367.26C816.591 367.26 815.351 366.06 815.231 364.24H812.851C812.991 367.48 815.651 369.3 819.151 369.3C822.751 369.3 824.471 367.4 824.471 365.12C824.471 361.92 822.151 361.26 819.091 360.48V360.48ZM825.527 369H827.907V363.28H831.607C834.347 363.28 836.327 361.98 836.327 358.98C836.327 355.98 834.347 354.7 831.607 354.7H825.527V369ZM827.907 356.72H831.507C833.107 356.72 833.947 357.42 833.947 358.98C833.947 360.56 833.107 361.24 831.507 361.24H827.907V356.72ZM837.11 369H839.49V363.48H842.99C846.43 363.48 845.09 368.4 845.75 369H848.25V368.86C847.49 368.62 848.69 363.02 845.39 362.4V362.36C847.03 361.96 848.05 360.8 848.05 358.8C848.05 356.2 846.15 354.7 843.21 354.7H837.11V369V369ZM839.49 356.72H842.71C844.17 356.72 845.69 357.02 845.69 359.08C845.69 361.16 844.17 361.44 842.71 361.44H839.49V356.72ZM849.241 354.7V369H851.621V354.7H849.241V354.7ZM853.284 369H855.664V358.3H855.704L862.164 369H864.804V354.7H862.424V365.44H862.384L855.944 354.7H853.284V369V369ZM876.506 359.16H878.886C878.446 356.42 876.446 354.4 872.726 354.4C868.606 354.4 866.006 357.54 866.006 361.84C866.006 366.16 868.326 369.3 872.466 369.3C874.626 369.3 875.966 368.48 876.926 367.04H876.966L877.486 369H879.126V361.5H872.666V363.42H876.706C876.686 365.7 874.886 367.26 872.626 367.26C869.366 367.26 868.386 364.54 868.386 361.84C868.386 359.16 869.646 356.44 872.706 356.44C874.826 356.44 876.146 357.46 876.506 359.16V359.16ZM883.559 369H885.939V363.48H889.439C892.879 363.48 891.539 368.4 892.199 369H894.699V368.86C893.939 368.62 895.139 363.02 891.839 362.4V362.36C893.479 361.96 894.499 360.8 894.499 358.8C894.499 356.2 892.599 354.7 889.659 354.7H883.559V369V369ZM885.939 356.72H889.159C890.619 356.72 892.139 357.02 892.139 359.08C892.139 361.16 890.619 361.44 889.159 361.44H885.939V356.72ZM904.029 365.62L905.189 369H907.609L902.369 354.7H899.869L894.609 369H897.029L898.189 365.62H904.029V365.62ZM898.849 363.64L901.109 356.88H901.149L903.389 363.64H898.849ZM908.21 354.7V369H910.59V354.7H908.21V354.7ZM912.253 369H914.633V358.3H914.673L921.133 369H923.773V354.7H921.393V365.44H921.353L914.913 354.7H912.253V369V369ZM483.978 632.18C483.838 633.88 483.118 635.12 480.618 635.12V636.78C481.778 636.78 482.698 636.78 483.518 635.98V646H485.838V632.18H483.978V632.18ZM492.823 636.68C491.383 636.68 490.363 637.14 489.643 637.88V637.84L490.383 634.14H496.603V632.18H488.643L487.143 639.72H489.483C490.143 638.9 491.123 638.52 492.203 638.52C493.883 638.52 494.983 639.4 494.983 641.28C494.983 643.28 493.783 644.32 492.083 644.32C490.163 644.32 489.343 643.16 489.203 641.92H486.903C486.983 644.3 488.823 646.3 492.203 646.3C495.083 646.3 497.303 644.38 497.303 641.3C497.303 638.6 495.483 636.68 492.823 636.68V636.68ZM500.675 639.84C502.995 639.84 504.035 638.02 504.035 635.86C504.035 633.72 502.995 631.88 500.675 631.88C498.395 631.88 497.315 633.72 497.315 635.86C497.315 638.02 498.395 639.84 500.675 639.84ZM509.595 632.18H507.995L500.735 646H502.335L509.595 632.18ZM500.675 638.32C499.575 638.32 499.095 637.38 499.095 635.86C499.095 634.34 499.575 633.42 500.675 633.42C501.775 633.42 502.255 634.34 502.255 635.86C502.255 637.38 501.775 638.32 500.675 638.32ZM509.655 646.3C511.975 646.3 513.015 644.46 513.015 642.32C513.015 640.16 511.975 638.34 509.655 638.34C507.375 638.34 506.295 640.16 506.295 642.32C506.295 644.46 507.375 646.3 509.655 646.3ZM509.655 644.76C508.575 644.76 508.075 643.84 508.075 642.32C508.075 640.8 508.575 639.86 509.655 639.86C510.755 639.86 511.235 640.8 511.235 642.32C511.235 643.84 510.755 644.76 509.655 644.76ZM528.022 646.3C531.922 646.3 533.582 643.02 533.582 639.1C533.582 635.18 531.922 631.88 528.022 631.88C524.122 631.88 522.462 635.18 522.462 639.1C522.462 643.02 524.122 646.3 528.022 646.3ZM528.022 644.32C525.582 644.32 524.762 641.98 524.762 639.1C524.762 636.22 525.582 633.86 528.022 633.86C530.462 633.86 531.262 636.22 531.262 639.1C531.262 641.98 530.462 644.32 528.022 644.32ZM537.339 639.84C539.659 639.84 540.699 638.02 540.699 635.86C540.699 633.72 539.659 631.88 537.339 631.88C535.059 631.88 533.979 633.72 533.979 635.86C533.979 638.02 535.059 639.84 537.339 639.84ZM546.259 632.18H544.659L537.399 646H538.999L546.259 632.18ZM537.339 638.32C536.239 638.32 535.759 637.38 535.759 635.86C535.759 634.34 536.239 633.42 537.339 633.42C538.439 633.42 538.919 634.34 538.919 635.86C538.919 637.38 538.439 638.32 537.339 638.32ZM546.319 646.3C548.639 646.3 549.679 644.46 549.679 642.32C549.679 640.16 548.639 638.34 546.319 638.34C544.039 638.34 542.959 640.16 542.959 642.32C542.959 644.46 544.039 646.3 546.319 646.3ZM546.319 644.76C545.239 644.76 544.739 643.84 544.739 642.32C544.739 640.8 545.239 639.86 546.319 639.86C547.419 639.86 547.899 640.8 547.899 642.32C547.899 643.84 547.419 644.76 546.319 644.76ZM562.346 632.18C562.206 633.88 561.486 635.12 558.986 635.12V636.78C560.146 636.78 561.066 636.78 561.886 635.98V646H564.206V632.18H562.346ZM568.011 637.08C568.011 635.18 568.791 633.86 570.851 633.86C572.631 633.86 573.171 635 573.171 636.14C573.171 638.1 571.551 638.76 569.011 640.44C566.891 641.78 565.431 643.56 565.431 646H575.351V644.04H568.451V644C569.591 641.18 575.491 640.44 575.491 636.04C575.491 633.4 573.471 631.88 570.911 631.88C567.371 631.88 565.771 634.1 565.771 637.08H568.011V637.08ZM579.746 639.84C582.066 639.84 583.106 638.02 583.106 635.86C583.106 633.72 582.066 631.88 579.746 631.88C577.466 631.88 576.386 633.72 576.386 635.86C576.386 638.02 577.466 639.84 579.746 639.84ZM588.666 632.18H587.066L579.806 646H581.406L588.666 632.18ZM579.746 638.32C578.646 638.32 578.166 637.38 578.166 635.86C578.166 634.34 578.646 633.42 579.746 633.42C580.846 633.42 581.326 634.34 581.326 635.86C581.326 637.38 580.846 638.32 579.746 638.32ZM588.726 646.3C591.046 646.3 592.086 644.46 592.086 642.32C592.086 640.16 591.046 638.34 588.726 638.34C586.446 638.34 585.366 640.16 585.366 642.32C585.366 644.46 586.446 646.3 588.726 646.3ZM588.726 644.76C587.646 644.76 587.146 643.84 587.146 642.32C587.146 640.8 587.646 639.86 588.726 639.86C589.826 639.86 590.306 640.8 590.306 642.32C590.306 643.84 589.826 644.76 588.726 644.76ZM603.913 637.08C603.913 635.18 604.693 633.86 606.753 633.86C608.533 633.86 609.073 635 609.073 636.14C609.073 638.1 607.453 638.76 604.913 640.44C602.793 641.78 601.333 643.56 601.333 646H611.253V644.04H604.353V644C605.493 641.18 611.393 640.44 611.393 636.04C611.393 633.4 609.373 631.88 606.813 631.88C603.273 631.88 601.673 634.1 601.673 637.08H603.913ZM614.461 637.08C614.461 635.18 615.241 633.86 617.301 633.86C619.081 633.86 619.621 635 619.621 636.14C619.621 638.1 618.001 638.76 615.461 640.44C613.341 641.78 611.881 643.56 611.881 646H621.801V644.04H614.901V644C616.041 641.18 621.941 640.44 621.941 636.04C621.941 633.4 619.921 631.88 617.361 631.88C613.821 631.88 612.221 634.1 612.221 637.08H614.461ZM626.196 639.84C628.516 639.84 629.556 638.02 629.556 635.86C629.556 633.72 628.516 631.88 626.196 631.88C623.916 631.88 622.836 633.72 622.836 635.86C622.836 638.02 623.916 639.84 626.196 639.84ZM635.116 632.18H633.516L626.256 646H627.856L635.116 632.18ZM626.196 638.32C625.096 638.32 624.616 637.38 624.616 635.86C624.616 634.34 625.096 633.42 626.196 633.42C627.296 633.42 627.776 634.34 627.776 635.86C627.776 637.38 627.296 638.32 626.196 638.32ZM635.176 646.3C637.496 646.3 638.536 644.46 638.536 642.32C638.536 640.16 637.496 638.34 635.176 638.34C632.896 638.34 631.816 640.16 631.816 642.32C631.816 644.46 632.896 646.3 635.176 646.3ZM635.176 644.76C634.096 644.76 633.596 643.84 633.596 642.32C633.596 640.8 634.096 639.86 635.176 639.86C636.276 639.86 636.756 640.8 636.756 642.32C636.756 643.84 636.276 644.76 635.176 644.76ZM483.978 654.18C483.838 655.88 483.118 657.12 480.618 657.12V658.78C481.778 658.78 482.698 658.78 483.518 657.98V668H485.838V654.18H483.978V654.18ZM489.583 660.66V660.62C489.623 658.1 490.203 655.78 492.703 655.78C494.163 655.78 494.883 656.62 495.023 657.68H497.343C497.063 655.6 495.323 653.88 492.723 653.88C489.243 653.88 487.263 656.42 487.263 661.14C487.263 665.28 488.683 668.3 492.723 668.3C495.823 668.3 497.723 666.18 497.723 663.46C497.723 660.74 495.863 658.86 493.143 658.86C491.543 658.86 490.263 659.54 489.583 660.66V660.66ZM492.643 666.4C490.803 666.4 489.703 665.26 489.703 663.62C489.703 661.92 490.923 660.76 492.763 660.76C494.343 660.76 495.463 661.82 495.463 663.58C495.463 665.26 494.423 666.4 492.643 666.4V666.4ZM501.558 654.18C501.418 655.88 500.698 657.12 498.198 657.12V658.78C499.358 658.78 500.278 658.78 501.098 657.98V668H503.418V654.18H501.558V654.18ZM506.302 668.14C506.302 668.9 505.822 669.52 505.082 669.66V670.8C506.822 670.52 507.542 668.86 507.542 667.4C507.542 666.28 507.082 665.56 506.182 665.56C505.462 665.56 504.882 666.04 504.882 666.9C504.882 667.84 505.522 668.28 506.302 668.14V668.14ZM514.529 654.18C514.389 655.88 513.669 657.12 511.169 657.12V658.78C512.329 658.78 513.249 658.78 514.069 657.98V668H516.389V654.18H514.529V654.18ZM525.873 661.52V661.56C525.833 664.08 525.253 666.4 522.753 666.4C521.293 666.4 520.573 665.56 520.433 664.5H518.113C518.393 666.58 520.133 668.3 522.733 668.3C526.213 668.3 528.193 665.76 528.193 661.04C528.193 656.9 526.773 653.88 522.733 653.88C519.633 653.88 517.733 656 517.733 658.72C517.733 661.44 519.593 663.32 522.313 663.32C523.913 663.32 525.193 662.64 525.873 661.52V661.52ZM522.813 655.78C524.653 655.78 525.753 656.92 525.753 658.56C525.753 660.26 524.533 661.42 522.693 661.42C521.113 661.42 519.993 660.36 519.993 658.6C519.993 656.92 521.033 655.78 522.813 655.78V655.78ZM536.89 661.52V661.56C536.85 664.08 536.27 666.4 533.77 666.4C532.31 666.4 531.59 665.56 531.45 664.5H529.13C529.41 666.58 531.15 668.3 533.75 668.3C537.23 668.3 539.21 665.76 539.21 661.04C539.21 656.9 537.79 653.88 533.75 653.88C530.65 653.88 528.75 656 528.75 658.72C528.75 661.44 530.61 663.32 533.33 663.32C534.93 663.32 536.21 662.64 536.89 661.52V661.52ZM533.83 655.78C535.67 655.78 536.77 656.92 536.77 658.56C536.77 660.26 535.55 661.42 533.71 661.42C532.13 661.42 531.01 660.36 531.01 658.6C531.01 656.92 532.05 655.78 533.83 655.78V655.78ZM541.013 668.14C541.013 668.9 540.533 669.52 539.793 669.66V670.8C541.533 670.52 542.253 668.86 542.253 667.4C542.253 666.28 541.793 665.56 540.893 665.56C540.173 665.56 539.593 666.04 539.593 666.9C539.593 667.84 540.233 668.28 541.013 668.14ZM549.24 654.18C549.1 655.88 548.38 657.12 545.88 657.12V658.78C547.04 658.78 547.96 658.78 548.78 657.98V668H551.1V654.18H549.24V654.18ZM554.844 660.66V660.62C554.884 658.1 555.464 655.78 557.964 655.78C559.424 655.78 560.144 656.62 560.284 657.68H562.604C562.324 655.6 560.584 653.88 557.984 653.88C554.504 653.88 552.524 656.42 552.524 661.14C552.524 665.28 553.944 668.3 557.984 668.3C561.084 668.3 562.984 666.18 562.984 663.46C562.984 660.74 561.124 658.86 558.404 658.86C556.804 658.86 555.524 659.54 554.844 660.66V660.66ZM557.904 666.4C556.064 666.4 554.964 665.26 554.964 663.62C554.964 661.92 556.184 660.76 558.024 660.76C559.604 660.76 560.724 661.82 560.724 663.58C560.724 665.26 559.684 666.4 557.904 666.4V666.4ZM571.503 661.52V661.56C571.463 664.08 570.883 666.4 568.383 666.4C566.923 666.4 566.203 665.56 566.063 664.5H563.743C564.023 666.58 565.763 668.3 568.363 668.3C571.843 668.3 573.823 665.76 573.823 661.04C573.823 656.9 572.403 653.88 568.363 653.88C565.263 653.88 563.363 656 563.363 658.72C563.363 661.44 565.223 663.32 567.943 663.32C569.543 663.32 570.823 662.64 571.503 661.52V661.52ZM568.443 655.78C570.283 655.78 571.383 656.92 571.383 658.56C571.383 660.26 570.163 661.42 568.323 661.42C566.743 661.42 565.623 660.36 565.623 658.6C565.623 656.92 566.663 655.78 568.443 655.78V655.78ZM490.818 681.62L491.158 679.9H489.278L490.038 676.18H488.298L487.558 679.9H485.358L486.118 676.18H484.398L483.638 679.9H481.658L481.318 681.62H483.298L482.718 684.52H480.898L480.578 686.24H482.358L481.598 690H483.318L484.078 686.24H486.278L485.518 690H487.238L487.998 686.24H490.098L490.418 684.52H488.358L488.938 681.62H490.818ZM486.618 684.52H484.438L485.018 681.62H487.198L486.618 684.52ZM500.398 686.62L501.558 690H503.978L498.738 675.7H496.238L490.978 690H493.398L494.558 686.62H500.398V686.62ZM495.218 684.64L497.478 677.88H497.518L499.758 684.64H495.218ZM507.3 676.18C507.16 677.88 506.44 679.12 503.94 679.12V680.78C505.1 680.78 506.02 680.78 506.84 679.98V690H509.16V676.18H507.3V676.18ZM521.005 680.62H523.385C523.045 677.7 520.845 675.4 517.225 675.4C513.105 675.4 510.505 678.54 510.505 682.84C510.505 687.16 513.105 690.3 517.225 690.3C520.865 690.3 523.065 688 523.385 684.78H521.005C520.845 686.52 519.825 688.26 517.165 688.26C514.085 688.26 512.865 685.68 512.865 682.84C512.865 680.02 514.085 677.44 517.165 677.44C519.805 677.44 520.745 679.18 521.005 680.62V680.62ZM523.546 676.18V678.14H530.786V678.18C528.326 680.36 525.606 685.44 525.606 690H528.046C528.046 685.6 530.166 680.56 533.306 677.94V676.18H523.546V676.18ZM542.335 686.62L543.495 690H545.915L540.675 675.7H538.175L532.915 690H535.335L536.495 686.62H542.335V686.62ZM537.155 684.64L539.415 677.88H539.455L541.695 684.64H537.155ZM554.077 683.52V683.56C554.037 686.08 553.457 688.4 550.957 688.4C549.497 688.4 548.777 687.56 548.637 686.5H546.317C546.597 688.58 548.337 690.3 550.937 690.3C554.417 690.3 556.397 687.76 556.397 683.04C556.397 678.9 554.977 675.88 550.937 675.88C547.837 675.88 545.937 678 545.937 680.72C545.937 683.44 547.797 685.32 550.517 685.32C552.117 685.32 553.397 684.64 554.077 683.52V683.52ZM551.017 677.78C552.857 677.78 553.957 678.92 553.957 680.56C553.957 682.26 552.737 683.42 550.897 683.42C549.317 683.42 548.197 682.36 548.197 680.6C548.197 678.92 549.237 677.78 551.017 677.78V677.78Z" fill="#112824"/>
<path d="M940 335H1260V525H940V335Z" fill="#C0E1DD"/>
<path d="M1154.55 354.7V356.72H1162.17V356.76L1154.15 366.98V369H1165.27V366.98H1157.05V366.94L1165.07 356.72V354.7H1154.55V354.7ZM1166.39 354.7V369H1168.77V354.7H1166.39ZM1180.49 359.16H1182.87C1182.43 356.42 1180.43 354.4 1176.71 354.4C1172.59 354.4 1169.99 357.54 1169.99 361.84C1169.99 366.16 1172.31 369.3 1176.45 369.3C1178.61 369.3 1179.95 368.48 1180.91 367.04H1180.95L1181.47 369H1183.11V361.5H1176.65V363.42H1180.69C1180.67 365.7 1178.87 367.26 1176.61 367.26C1173.35 367.26 1172.37 364.54 1172.37 361.84C1172.37 359.16 1173.63 356.44 1176.69 356.44C1178.81 356.44 1180.13 357.46 1180.49 359.16ZM1194.5 359.16H1196.88C1196.44 356.42 1194.44 354.4 1190.72 354.4C1186.6 354.4 1184 357.54 1184 361.84C1184 366.16 1186.32 369.3 1190.46 369.3C1192.62 369.3 1193.96 368.48 1194.92 367.04H1194.96L1195.48 369H1197.12V361.5H1190.66V363.42H1194.7C1194.68 365.7 1192.88 367.26 1190.62 367.26C1187.36 367.26 1186.38 364.54 1186.38 361.84C1186.38 359.16 1187.64 356.44 1190.7 356.44C1192.82 356.44 1194.14 357.46 1194.5 359.16ZM1209.62 364.12V354.7H1207.26V364.12C1207.26 366.28 1206.18 367.26 1203.98 367.26C1201.8 367.26 1200.72 366.28 1200.72 364.12V354.7H1198.34V364.12C1198.34 367.24 1200 369.3 1203.98 369.3C1207.96 369.3 1209.62 367.24 1209.62 364.12V364.12ZM1211.08 369H1213.46V363.48H1216.96C1220.4 363.48 1219.06 368.4 1219.72 369H1222.22V368.86C1221.46 368.62 1222.66 363.02 1219.36 362.4V362.36C1221 361.96 1222.02 360.8 1222.02 358.8C1222.02 356.2 1220.12 354.7 1217.18 354.7H1211.08V369V369ZM1213.46 356.72H1216.68C1218.14 356.72 1219.66 357.02 1219.66 359.08C1219.66 361.16 1218.14 361.44 1216.68 361.44H1213.46V356.72ZM1231.55 365.62L1232.71 369H1235.13L1229.89 354.7H1227.39L1222.13 369H1224.55L1225.71 365.62H1231.55V365.62ZM1226.37 363.64L1228.63 356.88H1228.67L1230.91 363.64H1226.37ZM1237.66 369H1240.04V356.72H1244.6V354.7H1233.08V356.72H1237.66V369V369ZM958.978 447.18C958.838 448.88 958.118 450.12 955.618 450.12V451.78C956.778 451.78 957.698 451.78 958.518 450.98V461H960.838V447.18H958.978V447.18ZM964.463 451.36C964.463 450 965.163 448.86 967.343 448.86C968.983 448.86 969.703 449.74 969.703 450.88C969.703 452.3 968.743 452.9 967.303 452.9H966.143V454.74H967.383C968.803 454.74 970.183 455.16 970.183 457.06C970.183 458.52 969.383 459.32 967.303 459.32C964.943 459.32 964.083 458.12 964.083 456.26H961.843C961.843 459.44 963.823 461.3 967.463 461.3C970.463 461.3 972.483 459.84 972.483 457.12C972.483 455.48 971.823 454.24 969.943 453.7V453.66C971.263 453.1 972.023 452.18 972.023 450.7C972.023 448.26 969.863 446.88 967.423 446.88C963.963 446.88 962.203 448.78 962.203 451.36H964.463V451.36ZM976.144 454.84C978.464 454.84 979.504 453.02 979.504 450.86C979.504 448.72 978.464 446.88 976.144 446.88C973.864 446.88 972.784 448.72 972.784 450.86C972.784 453.02 973.864 454.84 976.144 454.84ZM985.064 447.18H983.464L976.204 461H977.804L985.064 447.18ZM976.144 453.32C975.044 453.32 974.564 452.38 974.564 450.86C974.564 449.34 975.044 448.42 976.144 448.42C977.244 448.42 977.724 449.34 977.724 450.86C977.724 452.38 977.244 453.32 976.144 453.32ZM985.124 461.3C987.444 461.3 988.484 459.46 988.484 457.32C988.484 455.16 987.444 453.34 985.124 453.34C982.844 453.34 981.764 455.16 981.764 457.32C981.764 459.46 982.844 461.3 985.124 461.3ZM985.124 459.76C984.044 459.76 983.544 458.84 983.544 457.32C983.544 455.8 984.044 454.86 985.124 454.86C986.224 454.86 986.704 455.8 986.704 457.32C986.704 458.84 986.224 459.76 985.124 459.76ZM1003.49 461.3C1007.39 461.3 1009.05 458.02 1009.05 454.1C1009.05 450.18 1007.39 446.88 1003.49 446.88C999.591 446.88 997.931 450.18 997.931 454.1C997.931 458.02 999.591 461.3 1003.49 461.3ZM1003.49 459.32C1001.05 459.32 1000.23 456.98 1000.23 454.1C1000.23 451.22 1001.05 448.86 1003.49 448.86C1005.93 448.86 1006.73 451.22 1006.73 454.1C1006.73 456.98 1005.93 459.32 1003.49 459.32ZM1012.81 454.84C1015.13 454.84 1016.17 453.02 1016.17 450.86C1016.17 448.72 1015.13 446.88 1012.81 446.88C1010.53 446.88 1009.45 448.72 1009.45 450.86C1009.45 453.02 1010.53 454.84 1012.81 454.84ZM1021.73 447.18H1020.13L1012.87 461H1014.47L1021.73 447.18ZM1012.81 453.32C1011.71 453.32 1011.23 452.38 1011.23 450.86C1011.23 449.34 1011.71 448.42 1012.81 448.42C1013.91 448.42 1014.39 449.34 1014.39 450.86C1014.39 452.38 1013.91 453.32 1012.81 453.32ZM1021.79 461.3C1024.11 461.3 1025.15 459.46 1025.15 457.32C1025.15 455.16 1024.11 453.34 1021.79 453.34C1019.51 453.34 1018.43 455.16 1018.43 457.32C1018.43 459.46 1019.51 461.3 1021.79 461.3V461.3ZM1021.79 459.76C1020.71 459.76 1020.21 458.84 1020.21 457.32C1020.21 455.8 1020.71 454.86 1021.79 454.86C1022.89 454.86 1023.37 455.8 1023.37 457.32C1023.37 458.84 1022.89 459.76 1021.79 459.76ZM1036.98 452.08C1036.98 450.18 1037.76 448.86 1039.82 448.86C1041.6 448.86 1042.14 450 1042.14 451.14C1042.14 453.1 1040.52 453.76 1037.98 455.44C1035.86 456.78 1034.4 458.56 1034.4 461H1044.32V459.04H1037.42V459C1038.56 456.18 1044.46 455.44 1044.46 451.04C1044.46 448.4 1042.44 446.88 1039.88 446.88C1036.34 446.88 1034.74 449.1 1034.74 452.08H1036.98V452.08ZM1048.71 454.84C1051.03 454.84 1052.07 453.02 1052.07 450.86C1052.07 448.72 1051.03 446.88 1048.71 446.88C1046.43 446.88 1045.35 448.72 1045.35 450.86C1045.35 453.02 1046.43 454.84 1048.71 454.84ZM1057.63 447.18H1056.03L1048.77 461H1050.37L1057.63 447.18ZM1048.71 453.32C1047.61 453.32 1047.13 452.38 1047.13 450.86C1047.13 449.34 1047.61 448.42 1048.71 448.42C1049.81 448.42 1050.29 449.34 1050.29 450.86C1050.29 452.38 1049.81 453.32 1048.71 453.32ZM1057.69 461.3C1060.01 461.3 1061.05 459.46 1061.05 457.32C1061.05 455.16 1060.01 453.34 1057.69 453.34C1055.41 453.34 1054.33 455.16 1054.33 457.32C1054.33 459.46 1055.41 461.3 1057.69 461.3ZM1057.69 459.76C1056.61 459.76 1056.11 458.84 1056.11 457.32C1056.11 455.8 1056.61 454.86 1057.69 454.86C1058.79 454.86 1059.27 455.8 1059.27 457.32C1059.27 458.84 1058.79 459.76 1057.69 459.76ZM1073.72 447.18C1073.58 448.88 1072.86 450.12 1070.36 450.12V451.78C1071.52 451.78 1072.44 451.78 1073.26 450.98V461H1075.58V447.18H1073.72V447.18ZM1079.38 452.08C1079.38 450.18 1080.16 448.86 1082.22 448.86C1084 448.86 1084.54 450 1084.54 451.14C1084.54 453.1 1082.92 453.76 1080.38 455.44C1078.26 456.78 1076.8 458.56 1076.8 461H1086.72V459.04H1079.82V459C1080.96 456.18 1086.86 455.44 1086.86 451.04C1086.86 448.4 1084.84 446.88 1082.28 446.88C1078.74 446.88 1077.14 449.1 1077.14 452.08H1079.38V452.08ZM1091.12 454.84C1093.44 454.84 1094.48 453.02 1094.48 450.86C1094.48 448.72 1093.44 446.88 1091.12 446.88C1088.84 446.88 1087.76 448.72 1087.76 450.86C1087.76 453.02 1088.84 454.84 1091.12 454.84ZM1100.04 447.18H1098.44L1091.18 461H1092.78L1100.04 447.18ZM1091.12 453.32C1090.02 453.32 1089.54 452.38 1089.54 450.86C1089.54 449.34 1090.02 448.42 1091.12 448.42C1092.22 448.42 1092.7 449.34 1092.7 450.86C1092.7 452.38 1092.22 453.32 1091.12 453.32ZM1100.1 461.3C1102.42 461.3 1103.46 459.46 1103.46 457.32C1103.46 455.16 1102.42 453.34 1100.1 453.34C1097.82 453.34 1096.74 455.16 1096.74 457.32C1096.74 459.46 1097.82 461.3 1100.1 461.3ZM1100.1 459.76C1099.02 459.76 1098.52 458.84 1098.52 457.32C1098.52 455.8 1099.02 454.86 1100.1 454.86C1101.2 454.86 1101.68 455.8 1101.68 457.32C1101.68 458.84 1101.2 459.76 1100.1 459.76ZM958.978 469.18C958.838 470.88 958.118 472.12 955.618 472.12V473.78C956.778 473.78 957.698 473.78 958.518 472.98V483H960.838V469.18H958.978V469.18ZM970.323 476.52V476.56C970.283 479.08 969.703 481.4 967.203 481.4C965.743 481.4 965.023 480.56 964.883 479.5H962.563C962.843 481.58 964.583 483.3 967.183 483.3C970.663 483.3 972.643 480.76 972.643 476.04C972.643 471.9 971.223 468.88 967.183 468.88C964.083 468.88 962.183 471 962.183 473.72C962.183 476.44 964.043 478.32 966.763 478.32C968.363 478.32 969.643 477.64 970.323 476.52V476.52ZM967.263 470.78C969.103 470.78 970.203 471.92 970.203 473.56C970.203 475.26 968.983 476.42 967.143 476.42C965.563 476.42 964.443 475.36 964.443 473.6C964.443 471.92 965.483 470.78 967.263 470.78V470.78ZM975.464 474.08C975.464 472.18 976.244 470.86 978.304 470.86C980.084 470.86 980.624 472 980.624 473.14C980.624 475.1 979.004 475.76 976.464 477.44C974.344 478.78 972.884 480.56 972.884 483H982.804V481.04H975.904V481C977.044 478.18 982.944 477.44 982.944 473.04C982.944 470.4 980.924 468.88 978.364 468.88C974.824 468.88 973.224 471.1 973.224 474.08H975.464V474.08ZM985.033 483.14C985.033 483.9 984.553 484.52 983.813 484.66V485.8C985.553 485.52 986.273 483.86 986.273 482.4C986.273 481.28 985.813 480.56 984.913 480.56C984.193 480.56 983.613 481.04 983.613 481.9C983.613 482.84 984.253 483.28 985.033 483.14ZM992.419 474.08C992.419 472.18 993.199 470.86 995.259 470.86C997.039 470.86 997.579 472 997.579 473.14C997.579 475.1 995.959 475.76 993.419 477.44C991.299 478.78 989.839 480.56 989.839 483H999.759V481.04H992.859V481C993.999 478.18 999.899 477.44 999.899 473.04C999.899 470.4 997.879 468.88 995.319 468.88C991.779 468.88 990.179 471.1 990.179 474.08H992.419V474.08ZM1002.97 474.08C1002.97 472.18 1003.75 470.86 1005.81 470.86C1007.59 470.86 1008.13 472 1008.13 473.14C1008.13 475.1 1006.51 475.76 1003.97 477.44C1001.85 478.78 1000.39 480.56 1000.39 483H1010.31V481.04H1003.41V481C1004.55 478.18 1010.45 477.44 1010.45 473.04C1010.45 470.4 1008.43 468.88 1005.87 468.88C1002.33 468.88 1000.73 471.1 1000.73 474.08H1002.97V474.08ZM1016.64 473.68C1015.2 473.68 1014.18 474.14 1013.46 474.88V474.84L1014.2 471.14H1020.42V469.18H1012.46L1010.96 476.72H1013.3C1013.96 475.9 1014.94 475.52 1016.02 475.52C1017.7 475.52 1018.8 476.4 1018.8 478.28C1018.8 480.28 1017.6 481.32 1015.9 481.32C1013.98 481.32 1013.16 480.16 1013.02 478.92H1010.72C1010.8 481.3 1012.64 483.3 1016.02 483.3C1018.9 483.3 1021.12 481.38 1021.12 478.3C1021.12 475.6 1019.3 473.68 1016.64 473.68V473.68ZM1023.12 483.14C1023.12 483.9 1022.64 484.52 1021.9 484.66V485.8C1023.64 485.52 1024.36 483.86 1024.36 482.4C1024.36 481.28 1023.9 480.56 1023 480.56C1022.28 480.56 1021.7 481.04 1021.7 481.9C1021.7 482.84 1022.34 483.28 1023.12 483.14ZM1030.51 474.08C1030.51 472.18 1031.29 470.86 1033.35 470.86C1035.13 470.86 1035.67 472 1035.67 473.14C1035.67 475.1 1034.05 475.76 1031.51 477.44C1029.39 478.78 1027.93 480.56 1027.93 483H1037.85V481.04H1030.95V481C1032.09 478.18 1037.99 477.44 1037.99 473.04C1037.99 470.4 1035.97 468.88 1033.41 468.88C1029.87 468.88 1028.27 471.1 1028.27 474.08H1030.51V474.08ZM1041.06 474.08C1041.06 472.18 1041.84 470.86 1043.9 470.86C1045.68 470.86 1046.22 472 1046.22 473.14C1046.22 475.1 1044.6 475.76 1042.06 477.44C1039.94 478.78 1038.48 480.56 1038.48 483H1048.4V481.04H1041.5V481C1042.64 478.18 1048.54 477.44 1048.54 473.04C1048.54 470.4 1046.52 468.88 1043.96 468.88C1040.42 468.88 1038.82 471.1 1038.82 474.08H1041.06V474.08ZM1052.45 469.18C1052.31 470.88 1051.59 472.12 1049.09 472.12V473.78C1050.25 473.78 1051.17 473.78 1051.99 472.98V483H1054.31V469.18H1052.45V469.18ZM965.818 496.62L966.158 494.9H964.278L965.038 491.18H963.298L962.558 494.9H960.358L961.118 491.18H959.398L958.638 494.9H956.658L956.318 496.62H958.298L957.718 499.52H955.898L955.578 501.24H957.358L956.598 505H958.318L959.078 501.24H961.278L960.518 505H962.238L962.998 501.24H965.098L965.418 499.52H963.358L963.938 496.62H965.818ZM961.618 499.52H959.438L960.018 496.62H962.198L961.618 499.52ZM977.194 495.62H979.574C979.234 492.7 977.034 490.4 973.414 490.4C969.294 490.4 966.694 493.54 966.694 497.84C966.694 502.16 969.294 505.3 973.414 505.3C977.054 505.3 979.254 503 979.574 499.78H977.194C977.034 501.52 976.014 503.26 973.354 503.26C970.274 503.26 969.054 500.68 969.054 497.84C969.054 495.02 970.274 492.44 973.354 492.44C975.994 492.44 976.934 494.18 977.194 495.62ZM985.636 505.3C989.536 505.3 991.196 502.02 991.196 498.1C991.196 494.18 989.536 490.88 985.636 490.88C981.736 490.88 980.076 494.18 980.076 498.1C980.076 502.02 981.736 505.3 985.636 505.3ZM985.636 503.32C983.196 503.32 982.376 500.98 982.376 498.1C982.376 495.22 983.196 492.86 985.636 492.86C988.076 492.86 988.876 495.22 988.876 498.1C988.876 500.98 988.076 503.32 985.636 503.32ZM994.733 496.6V492.72H1002.7V490.7H992.353V505H1002.9V502.98H994.733V498.64H1001.72V496.6H994.733V496.6ZM1006.8 491.18C1006.66 492.88 1005.94 494.12 1003.44 494.12V495.78C1004.6 495.78 1005.52 495.78 1006.34 494.98V505H1008.66V491.18H1006.8V491.18ZM1010.54 505H1016.16C1020.12 505 1022.46 502.46 1022.46 497.86C1022.46 493.26 1020.04 490.7 1016.1 490.7H1010.54V505V505ZM1012.92 492.72H1015.98C1019.18 492.72 1020.08 495.12 1020.08 497.86C1020.08 500.6 1019.18 502.98 1015.98 502.98H1012.92V492.72ZM1023.57 505H1029.19C1033.15 505 1035.49 502.46 1035.49 497.86C1035.49 493.26 1033.07 490.7 1029.13 490.7H1023.57V505V505ZM1025.95 492.72H1029.01C1032.21 492.72 1033.11 495.12 1033.11 497.86C1033.11 500.6 1032.21 502.98 1029.01 502.98H1025.95V492.72Z" fill="#112824"/>
<path d="M940 525H1260V710H940V525Z" fill="#FBFFFF"/>
<path d="M1203.07 558.999H1208.69C1212.65 558.999 1214.99 556.459 1214.99 551.859C1214.99 547.259 1212.57 544.699 1208.63 544.699H1203.07V558.999ZM1205.45 546.719H1208.51C1211.71 546.719 1212.61 549.119 1212.61 551.859C1212.61 554.599 1211.71 556.979 1208.51 556.979H1205.45V546.719ZM1218.48 550.599V546.719H1226.44V544.699H1216.1V558.999H1226.64V556.979H1218.48V552.639H1225.46V550.599H1218.48ZM1226.76 544.699L1230.32 558.999H1232.84L1235.76 547.799H1235.8L1238.74 558.999H1241.24L1244.82 544.699H1242.38L1239.94 555.779H1239.9L1237 544.699H1234.56L1231.68 555.779H1231.64L1229.2 544.699H1226.76V544.699ZM958.143 637.079C958.143 635.179 958.922 633.859 960.982 633.859C962.762 633.859 963.302 634.999 963.302 636.139C963.302 638.099 961.683 638.759 959.143 640.439C957.023 641.779 955.562 643.559 955.562 645.999H965.482V644.039H958.583V643.999C959.723 641.179 965.622 640.439 965.622 636.039C965.622 633.399 963.602 631.879 961.042 631.879C957.502 631.879 955.903 634.099 955.903 637.079H958.143ZM969.878 639.839C972.198 639.839 973.237 638.019 973.237 635.859C973.237 633.719 972.198 631.879 969.878 631.879C967.598 631.879 966.518 633.719 966.518 635.859C966.518 638.019 967.598 639.839 969.878 639.839ZM978.797 632.179H977.198L969.938 645.999H971.537L978.797 632.179ZM969.878 638.319C968.778 638.319 968.297 637.379 968.297 635.859C968.297 634.339 968.778 633.419 969.878 633.419C970.978 633.419 971.458 634.339 971.458 635.859C971.458 637.379 970.978 638.319 969.878 638.319ZM978.857 646.299C981.177 646.299 982.218 644.459 982.218 642.319C982.218 640.159 981.177 638.339 978.857 638.339C976.577 638.339 975.497 640.159 975.497 642.319C975.497 644.459 976.577 646.299 978.857 646.299ZM978.857 644.759C977.777 644.759 977.278 643.839 977.278 642.319C977.278 640.799 977.777 639.859 978.857 639.859C979.957 639.859 980.438 640.799 980.438 642.319C980.438 643.839 979.957 644.759 978.857 644.759ZM997.224 646.299C1001.12 646.299 1002.78 643.019 1002.78 639.099C1002.78 635.179 1001.12 631.879 997.224 631.879C993.324 631.879 991.664 635.179 991.664 639.099C991.664 643.019 993.324 646.299 997.224 646.299ZM997.224 644.319C994.784 644.319 993.964 641.979 993.964 639.099C993.964 636.219 994.784 633.859 997.224 633.859C999.664 633.859 1000.46 636.219 1000.46 639.099C1000.46 641.979 999.664 644.319 997.224 644.319ZM1006.54 639.839C1008.86 639.839 1009.9 638.019 1009.9 635.859C1009.9 633.719 1008.86 631.879 1006.54 631.879C1004.26 631.879 1003.18 633.719 1003.18 635.859C1003.18 638.019 1004.26 639.839 1006.54 639.839ZM1015.46 632.179H1013.86L1006.6 645.999H1008.2L1015.46 632.179V632.179ZM1006.54 638.319C1005.44 638.319 1004.96 637.379 1004.96 635.859C1004.96 634.339 1005.44 633.419 1006.54 633.419C1007.64 633.419 1008.12 634.339 1008.12 635.859C1008.12 637.379 1007.64 638.319 1006.54 638.319ZM1015.52 646.299C1017.84 646.299 1018.88 644.459 1018.88 642.319C1018.88 640.159 1017.84 638.339 1015.52 638.339C1013.24 638.339 1012.16 640.159 1012.16 642.319C1012.16 644.459 1013.24 646.299 1015.52 646.299ZM1015.52 644.759C1014.44 644.759 1013.94 643.839 1013.94 642.319C1013.94 640.799 1014.44 639.859 1015.52 639.859C1016.62 639.859 1017.1 640.799 1017.1 642.319C1017.1 643.839 1016.62 644.759 1015.52 644.759ZM1033.89 646.299C1037.79 646.299 1039.45 643.019 1039.45 639.099C1039.45 635.179 1037.79 631.879 1033.89 631.879C1029.99 631.879 1028.33 635.179 1028.33 639.099C1028.33 643.019 1029.99 646.299 1033.89 646.299ZM1033.89 644.319C1031.45 644.319 1030.63 641.979 1030.63 639.099C1030.63 636.219 1031.45 633.859 1033.89 633.859C1036.33 633.859 1037.13 636.219 1037.13 639.099C1037.13 641.979 1036.33 644.319 1033.89 644.319ZM1043.2 639.839C1045.52 639.839 1046.56 638.019 1046.56 635.859C1046.56 633.719 1045.52 631.879 1043.2 631.879C1040.92 631.879 1039.84 633.719 1039.84 635.859C1039.84 638.019 1040.92 639.839 1043.2 639.839ZM1052.12 632.179H1050.52L1043.26 645.999H1044.86L1052.12 632.179ZM1043.2 638.319C1042.1 638.319 1041.62 637.379 1041.62 635.859C1041.62 634.339 1042.1 633.419 1043.2 633.419C1044.3 633.419 1044.78 634.339 1044.78 635.859C1044.78 637.379 1044.3 638.319 1043.2 638.319ZM1052.18 646.299C1054.5 646.299 1055.54 644.459 1055.54 642.319C1055.54 640.159 1054.5 638.339 1052.18 638.339C1049.9 638.339 1048.82 640.159 1048.82 642.319C1048.82 644.459 1049.9 646.299 1052.18 646.299ZM1052.18 644.759C1051.1 644.759 1050.6 643.839 1050.6 642.319C1050.6 640.799 1051.1 639.859 1052.18 639.859C1053.28 639.859 1053.76 640.799 1053.76 642.319C1053.76 643.839 1053.28 644.759 1052.18 644.759ZM1070.55 646.299C1074.45 646.299 1076.11 643.019 1076.11 639.099C1076.11 635.179 1074.45 631.879 1070.55 631.879C1066.65 631.879 1064.99 635.179 1064.99 639.099C1064.99 643.019 1066.65 646.299 1070.55 646.299ZM1070.55 644.319C1068.11 644.319 1067.29 641.979 1067.29 639.099C1067.29 636.219 1068.11 633.859 1070.55 633.859C1072.99 633.859 1073.79 636.219 1073.79 639.099C1073.79 641.979 1072.99 644.319 1070.55 644.319ZM1079.87 639.839C1082.19 639.839 1083.23 638.019 1083.23 635.859C1083.23 633.719 1082.19 631.879 1079.87 631.879C1077.59 631.879 1076.51 633.719 1076.51 635.859C1076.51 638.019 1077.59 639.839 1079.87 639.839ZM1088.79 632.179H1087.19L1079.93 645.999H1081.53L1088.79 632.179ZM1079.87 638.319C1078.77 638.319 1078.29 637.379 1078.29 635.859C1078.29 634.339 1078.77 633.419 1079.87 633.419C1080.97 633.419 1081.45 634.339 1081.45 635.859C1081.45 637.379 1080.97 638.319 1079.87 638.319ZM1088.85 646.299C1091.17 646.299 1092.21 644.459 1092.21 642.319C1092.21 640.159 1091.17 638.339 1088.85 638.339C1086.57 638.339 1085.49 640.159 1085.49 642.319C1085.49 644.459 1086.57 646.299 1088.85 646.299ZM1088.85 644.759C1087.77 644.759 1087.27 643.839 1087.27 642.319C1087.27 640.799 1087.77 639.859 1088.85 639.859C1089.95 639.859 1090.43 640.799 1090.43 642.319C1090.43 643.839 1089.95 644.759 1088.85 644.759ZM958.143 659.079C958.143 657.179 958.922 655.859 960.982 655.859C962.762 655.859 963.302 656.999 963.302 658.139C963.302 660.099 961.683 660.759 959.143 662.439C957.023 663.779 955.562 665.559 955.562 667.999H965.482V666.039H958.583V665.999C959.723 663.179 965.622 662.439 965.622 658.039C965.622 655.399 963.602 653.879 961.042 653.879C957.502 653.879 955.903 656.099 955.903 659.079H958.143V659.079ZM971.812 658.679C970.372 658.679 969.352 659.139 968.632 659.879V659.839L969.372 656.139H975.591V654.179H967.632L966.132 661.719H968.471C969.131 660.899 970.112 660.519 971.192 660.519C972.872 660.519 973.971 661.399 973.971 663.279C973.971 665.279 972.771 666.319 971.071 666.319C969.151 666.319 968.332 665.159 968.192 663.919H965.891C965.971 666.299 967.812 668.299 971.192 668.299C974.072 668.299 976.292 666.379 976.292 663.299C976.292 660.599 974.472 658.679 971.812 658.679V658.679ZM979.55 654.179C979.41 655.879 978.69 657.119 976.19 657.119V658.779C977.35 658.779 978.271 658.779 979.091 657.979V667.999H981.411V654.179H979.55V654.179ZM984.296 668.139C984.296 668.899 983.816 669.519 983.076 669.659V670.799C984.816 670.519 985.536 668.859 985.536 667.399C985.536 666.279 985.075 665.559 984.175 665.559C983.455 665.559 982.875 666.039 982.875 666.899C982.875 667.839 983.516 668.279 984.296 668.139ZM991.682 659.079C991.682 657.179 992.461 655.859 994.521 655.859C996.301 655.859 996.841 656.999 996.841 658.139C996.841 660.099 995.222 660.759 992.682 662.439C990.562 663.779 989.102 665.559 989.102 667.999H999.021V666.039H992.122V665.999C993.262 663.179 999.161 662.439 999.161 658.039C999.161 655.399 997.141 653.879 994.581 653.879C991.041 653.879 989.442 656.099 989.442 659.079H991.682V659.079ZM1005.35 658.679C1003.91 658.679 1002.89 659.139 1002.17 659.879V659.839L1002.91 656.139H1009.13V654.179H1001.17L999.671 661.719H1002.01C1002.67 660.899 1003.65 660.519 1004.73 660.519C1006.41 660.519 1007.51 661.399 1007.51 663.279C1007.51 665.279 1006.31 666.319 1004.61 666.319C1002.69 666.319 1001.87 665.159 1001.73 663.919H999.43C999.51 666.299 1001.35 668.299 1004.73 668.299C1007.61 668.299 1009.83 666.379 1009.83 663.299C1009.83 660.599 1008.01 658.679 1005.35 658.679V658.679ZM1015.93 658.679C1014.49 658.679 1013.47 659.139 1012.75 659.879V659.839L1013.49 656.139H1019.71V654.179H1011.75L1010.25 661.719H1012.59C1013.25 660.899 1014.23 660.519 1015.31 660.519C1016.99 660.519 1018.09 661.399 1018.09 663.279C1018.09 665.279 1016.89 666.319 1015.19 666.319C1013.27 666.319 1012.45 665.159 1012.31 663.919H1010.01C1010.09 666.299 1011.93 668.299 1015.31 668.299C1018.19 668.299 1020.41 666.379 1020.41 663.299C1020.41 660.599 1018.59 658.679 1015.93 658.679V658.679ZM1022.42 668.139C1022.42 668.899 1021.94 669.519 1021.2 669.659V670.799C1022.94 670.519 1023.66 668.859 1023.66 667.399C1023.66 666.279 1023.2 665.559 1022.3 665.559C1021.58 665.559 1021 666.039 1021 666.899C1021 667.839 1021.64 668.279 1022.42 668.139ZM1029.81 659.079C1029.81 657.179 1030.59 655.859 1032.65 655.859C1034.43 655.859 1034.97 656.999 1034.97 658.139C1034.97 660.099 1033.35 660.759 1030.81 662.439C1028.69 663.779 1027.23 665.559 1027.23 667.999H1037.15V666.039H1030.25V665.999C1031.39 663.179 1037.29 662.439 1037.29 658.039C1037.29 655.399 1035.27 653.879 1032.71 653.879C1029.17 653.879 1027.57 656.099 1027.57 659.079H1029.81V659.079ZM1043.48 658.679C1042.04 658.679 1041.02 659.139 1040.3 659.879V659.839L1041.04 656.139H1047.26V654.179H1039.3L1037.8 661.719H1040.14C1040.8 660.899 1041.78 660.519 1042.86 660.519C1044.54 660.519 1045.64 661.399 1045.64 663.279C1045.64 665.279 1044.44 666.319 1042.74 666.319C1040.82 666.319 1040 665.159 1039.86 663.919H1037.56C1037.64 666.299 1039.48 668.299 1042.86 668.299C1045.74 668.299 1047.96 666.379 1047.96 663.299C1047.96 660.599 1046.14 658.679 1043.48 658.679V658.679ZM1057.08 667.999V664.859H1059.02V662.899H1057.08V654.179H1054.76L1048.22 662.699V664.859H1054.76V667.999H1057.08V667.999ZM1054.76 657.059V662.899H1050.28L1054.76 657.059ZM965.823 681.619L966.162 679.899H964.283L965.042 676.179H963.302L962.562 679.899H960.362L961.122 676.179H959.403L958.643 679.899H956.662L956.323 681.619H958.302L957.722 684.519H955.903L955.583 686.239H957.362L956.602 689.999H958.323L959.083 686.239H961.283L960.523 689.999H962.242L963.003 686.239H965.102L965.422 684.519H963.362L963.943 681.619H965.823ZM961.622 684.519H959.443L960.023 681.619H962.203L961.622 684.519ZM969.521 681.879V677.719H977.141V675.699H967.141V689.999H969.521V683.919H975.701V681.879H969.521V681.879ZM988.841 679.299C988.841 676.999 987.141 675.699 984.201 675.699H978.06V689.999H984.541C987.501 689.999 989.401 688.579 989.401 685.819C989.401 683.679 988.119 682.579 986.62 682.319V682.279C987.8 681.879 988.841 681.059 988.841 679.299V679.299ZM980.44 681.619V677.719H984.26C985.68 677.719 986.461 678.419 986.461 679.679C986.461 680.939 985.82 681.619 984.12 681.619H980.44V681.619ZM980.44 683.399H984.62C986.119 683.399 987.02 684.219 987.02 685.679C987.02 687.019 986.399 687.979 984.359 687.979H980.44V683.399V683.399ZM992.706 681.879V677.719H1000.32V675.699H990.326V689.999H992.706V683.919H998.886V681.879H992.706V681.879ZM1003.62 681.879V677.719H1011.24V675.699H1001.24V689.999H1003.62V683.919H1009.8V681.879H1003.62V681.879ZM1014.54 681.879V677.719H1022.16V675.699H1012.16V689.999H1014.54V683.919H1020.72V681.879H1014.54V681.879ZM1025.46 681.599V677.719H1033.42V675.699H1023.08V689.999H1033.62V687.979H1025.46V683.639H1032.44V681.599H1025.46V681.599Z" fill="#112824"/>
</svg>
