<svg width="82" height="82" viewBox="0 0 82 82" fill="none" xmlns="http://www.w3.org/2000/svg">
<circle cx="41" cy="41" r="41" fill="#0D2521"/>
<path d="M20.7916 45L21.9516 45L21.9516 39.58L21.9716 39.58L23.8616 45L24.8116 45L26.7016 39.58L26.7216 39.58L26.7216 45L27.8816 45L27.8816 37.85L26.3416 37.85L24.3516 43.35L24.3316 43.35L22.3316 37.85L20.7916 37.85L20.7916 45ZM32.191 45.15C34.341 45.15 35.701 43.57 35.701 41.42C35.701 39.27 34.341 37.7 32.191 37.7C30.031 37.7 28.681 39.27 28.681 41.42C28.681 43.57 30.031 45.15 32.191 45.15ZM32.191 44.13C30.551 44.13 29.861 42.87 29.861 41.42C29.861 39.98 30.551 38.72 32.191 38.72C33.831 38.72 34.511 39.98 34.511 41.42C34.511 42.87 33.831 44.13 32.191 44.13ZM36.4463 45L39.2563 45C41.2363 45 42.4063 43.73 42.4063 41.43C42.4063 39.13 41.1963 37.85 39.2263 37.85L36.4463 37.85L36.4463 45ZM37.6363 38.86L39.1663 38.86C40.7663 38.86 41.2163 40.06 41.2163 41.43C41.2163 42.8 40.7663 43.99 39.1663 43.99L37.6363 43.99L37.6363 38.86ZM44.3504 40.8L44.3504 38.86L48.3304 38.86L48.3304 37.85L43.1604 37.85L43.1604 45L48.4304 45L48.4304 43.99L44.3504 43.99L44.3504 41.82L47.8404 41.82L47.8404 40.8L44.3504 40.8ZM49.2006 45L50.3906 45L50.3906 42.24L52.1406 42.24C53.8606 42.24 53.1906 44.7 53.5206 45L54.7706 45L54.7706 44.93C54.3906 44.81 54.9906 42.01 53.3406 41.7L53.3406 41.68C54.1606 41.48 54.6706 40.9 54.6706 39.9C54.6706 38.6 53.7206 37.85 52.2506 37.85L49.2006 37.85L49.2006 45ZM50.3906 38.86L52.0006 38.86C52.7306 38.86 53.4906 39.01 53.4906 40.04C53.4906 41.08 52.7306 41.22 52.0006 41.22L50.3906 41.22L50.3906 38.86ZM55.4459 45L56.6359 45L56.6359 39.65L56.6559 39.65L59.8859 45L61.2059 45L61.2059 37.85L60.0159 37.85L60.0159 43.22L59.9959 43.22L56.7759 37.85L55.4459 37.85L55.4459 45Z" fill="#A0C6A8"/>
</svg>
