<svg width="83" height="83" viewBox="0 0 83 83" fill="none" xmlns="http://www.w3.org/2000/svg">
<circle cx="41.5" cy="41.5" r="41.5" fill="#0D2521"/>
<path d="M28.3548 36.24C27.3548 35.99 26.6848 35.85 26.6848 35.07C26.6848 34.54 27.1948 34.22 28.0448 34.22C29.0348 34.22 29.5548 34.66 29.6648 35.49L30.8548 35.49C30.7548 34.02 29.6148 33.2 28.0448 33.2C26.4848 33.2 25.5048 33.91 25.5048 35.18C25.5048 36.54 26.7148 36.97 27.8348 37.25C29.2448 37.6 29.8548 37.76 29.8548 38.61C29.8548 39.16 29.4448 39.63 28.3848 39.63C27.1048 39.63 26.4848 39.03 26.4248 38.12L25.2348 38.12C25.3048 39.74 26.6348 40.65 28.3848 40.65C30.1848 40.65 31.0448 39.7 31.0448 38.56C31.0448 36.96 29.8848 36.63 28.3548 36.24ZM31.7729 40.5L32.9329 40.5L32.9329 35.08L32.9529 35.08L34.8429 40.5L35.7929 40.5L37.6829 35.08L37.7029 35.08L37.7029 40.5L38.8629 40.5L38.8629 33.35L37.3229 33.35L35.3329 38.85L35.3129 38.85L33.3129 33.35L31.7729 33.35L31.7729 40.5ZM44.0141 38.81L44.5941 40.5L45.8041 40.5L43.1841 33.35L41.9341 33.35L39.3041 40.5L40.5141 40.5L41.0941 38.81L44.0141 38.81ZM41.4241 37.82L42.5541 34.44L42.5741 34.44L43.6941 37.82L41.4241 37.82ZM46.285 40.5L47.475 40.5L47.475 37.74L49.225 37.74C50.945 37.74 50.275 40.2 50.605 40.5L51.855 40.5L51.855 40.43C51.475 40.31 52.075 37.51 50.425 37.2L50.425 37.18C51.245 36.98 51.755 36.4 51.755 35.4C51.755 34.1 50.805 33.35 49.335 33.35L46.285 33.35L46.285 40.5ZM47.475 34.36L49.085 34.36C49.815 34.36 50.575 34.51 50.575 35.54C50.575 36.58 49.815 36.72 49.085 36.72L47.475 36.72L47.475 34.36ZM54.2931 40.5L55.4831 40.5L55.4831 34.36L57.7631 34.36L57.7631 33.35L52.0031 33.35L52.0031 34.36L54.2931 34.36L54.2931 40.5ZM26.5341 50.5L25.4141 49.14C25.8141 48.5 26.0441 47.74 26.1341 47.06L25.1441 47.06C25.0741 47.5 24.9441 47.94 24.7541 48.34L23.4441 46.76C24.3841 46.22 24.9241 45.72 24.9241 44.91C24.9241 44.07 24.2441 43.19 23.0941 43.2C21.8641 43.21 21.2641 44.07 21.2641 44.91C21.2641 45.58 21.6041 46.06 22.1041 46.67C21.3541 47.11 20.6041 47.68 20.6041 48.74C20.6041 49.83 21.3841 50.65 22.8441 50.65C23.6341 50.65 24.2741 50.36 24.7641 49.92L25.2441 50.5L26.5341 50.5ZM23.0941 44.19C23.6241 44.19 23.9041 44.55 23.9041 44.98C23.9041 45.5 23.5441 45.82 22.9541 46.18C22.5741 45.74 22.2841 45.38 22.2841 44.98C22.2841 44.55 22.5741 44.19 23.0941 44.19ZM22.9141 49.66C22.1041 49.66 21.6841 49.18 21.6841 48.64C21.6841 48.1 21.9841 47.65 22.5841 47.25L24.1541 49.17C23.8241 49.47 23.4141 49.66 22.9141 49.66ZM28.5991 43.35L28.5991 50.5L29.7891 50.5L29.7891 47.33L33.1691 47.33L33.1691 50.5L34.3591 50.5L34.3591 43.35L33.1691 43.35L33.1691 46.31L29.7891 46.31L29.7891 43.35L28.5991 43.35ZM40.9215 48.06L40.9215 43.35L39.7415 43.35L39.7415 48.06C39.7415 49.14 39.2015 49.63 38.1015 49.63C37.0115 49.63 36.4715 49.14 36.4715 48.06L36.4715 43.35L35.2815 43.35L35.2815 48.06C35.2815 49.62 36.1115 50.65 38.1015 50.65C40.0915 50.65 40.9215 49.62 40.9215 48.06ZM41.8514 50.5L43.0114 50.5L43.0114 45.08L43.0314 45.08L44.9214 50.5L45.8714 50.5L47.7614 45.08L47.7814 45.08L47.7814 50.5L48.9414 50.5L48.9414 43.35L47.4014 43.35L45.4114 48.85L45.3914 48.85L43.3914 43.35L41.8514 43.35L41.8514 50.5ZM54.0927 48.81L54.6727 50.5L55.8827 50.5L53.2627 43.35L52.0127 43.35L49.3827 50.5L50.5927 50.5L51.1727 48.81L54.0927 48.81ZM51.5027 47.82L52.6327 44.44L52.6527 44.44L53.7727 47.82L51.5027 47.82ZM56.3635 50.5L57.5535 50.5L57.5535 45.15L57.5735 45.15L60.8035 50.5L62.1235 50.5L62.1235 43.35L60.9335 43.35L60.9335 48.72L60.9135 48.72L57.6935 43.35L56.3635 43.35L56.3635 50.5Z" fill="#A0C6A8"/>
</svg>
