<svg width="90" height="90" viewBox="0 0 90 90" fill="none" xmlns="http://www.w3.org/2000/svg">
<circle cx="45" cy="45" r="45" fill="#0D2521"/>
<path d="M26.6219 43.65C26.6219 42.5 25.7719 41.85 24.3019 41.85L21.2319 41.85L21.2319 49L24.4719 49C25.9519 49 26.9019 48.29 26.9019 46.91C26.9019 45.84 26.2619 45.29 25.5119 45.16L25.5119 45.14C26.1019 44.94 26.6219 44.53 26.6219 43.65ZM22.4219 44.81L22.4219 42.86L24.3319 42.86C25.0419 42.86 25.4319 43.21 25.4319 43.84C25.4319 44.47 25.1119 44.81 24.2619 44.81L22.4219 44.81ZM22.4219 45.7L24.5119 45.7C25.2619 45.7 25.7119 46.11 25.7119 46.84C25.7119 47.51 25.4019 47.99 24.3819 47.99L22.4219 47.99L22.4219 45.7ZM30.8051 49.15C32.9551 49.15 34.3151 47.57 34.3151 45.42C34.3151 43.27 32.9551 41.7 30.8051 41.7C28.6451 41.7 27.2951 43.27 27.2951 45.42C27.2951 47.57 28.6451 49.15 30.8051 49.15ZM30.8051 48.13C29.1651 48.13 28.4751 46.87 28.4751 45.42C28.4751 43.98 29.1651 42.72 30.8051 42.72C32.4451 42.72 33.1251 43.98 33.1251 45.42C33.1251 46.87 32.4451 48.13 30.8051 48.13ZM40.6004 46.56L40.6004 41.85L39.4204 41.85L39.4204 46.56C39.4204 47.64 38.8804 48.13 37.7804 48.13C36.6904 48.13 36.1504 47.64 36.1504 46.56L36.1504 41.85L34.9604 41.85L34.9604 46.56C34.9604 48.12 35.7904 49.15 37.7804 49.15C39.7704 49.15 40.6004 48.12 40.6004 46.56ZM43.4103 49L44.6003 49L44.6003 42.86L46.8803 42.86L46.8803 41.85L41.1203 41.85L41.1203 42.86L43.4103 42.86L43.4103 49ZM47.5124 41.85L47.5124 49L48.7024 49L48.7024 41.85L47.5124 41.85ZM56.5327 45.42C56.5327 43.27 55.1727 41.7 53.0227 41.7C50.8627 41.7 49.5127 43.27 49.5127 45.42C49.5127 47.57 50.8627 49.15 53.0227 49.15C53.7827 49.15 54.4527 48.95 54.9927 48.6L55.8227 49.43L56.5227 48.73L55.7227 47.93C56.2427 47.28 56.5327 46.41 56.5327 45.42ZM53.0227 48.13C51.3827 48.13 50.6927 46.87 50.6927 45.42C50.6927 43.98 51.3827 42.72 53.0227 42.72C54.6627 42.72 55.3427 43.98 55.3427 45.42C55.3427 46.06 55.2127 46.66 54.9227 47.13L53.9627 46.16L53.2627 46.86L54.2327 47.83C53.9027 48.02 53.5027 48.13 53.0227 48.13ZM62.818 46.56L62.818 41.85L61.638 41.85L61.638 46.56C61.638 47.64 61.098 48.13 59.998 48.13C58.908 48.13 58.368 47.64 58.368 46.56L58.368 41.85L57.178 41.85L57.178 46.56C57.178 48.12 58.008 49.15 59.998 49.15C61.988 49.15 62.818 48.12 62.818 46.56ZM64.9379 44.8L64.9379 42.86L68.9179 42.86L68.9179 41.85L63.7479 41.85L63.7479 49L69.0179 49L69.0179 47.99L64.9379 47.99L64.9379 45.82L68.4279 45.82L68.4279 44.8L64.9379 44.8Z" fill="#A0C6A8"/>
</svg>
