<svg width="67" height="67" viewBox="0 0 67 67" fill="none" xmlns="http://www.w3.org/2000/svg">
<circle cx="33.5" cy="33.5" r="33.5" fill="#0D2521"/>
<path d="M24.0953 37.65C26.2453 37.65 27.6053 36.07 27.6053 33.92C27.6053 31.77 26.2453 30.2 24.0953 30.2C21.9353 30.2 20.5853 31.77 20.5853 33.92C20.5853 36.07 21.9353 37.65 24.0953 37.65ZM24.0953 36.63C22.4553 36.63 21.7653 35.37 21.7653 33.92C21.7653 32.48 22.4553 31.22 24.0953 31.22C25.7353 31.22 26.4153 32.48 26.4153 33.92C26.4153 35.37 25.7353 36.63 24.0953 36.63ZM28.3506 37.5L29.5406 37.5L29.5406 34.64L31.3906 34.64C32.7606 34.64 33.7506 33.99 33.7506 32.49C33.7506 30.99 32.7606 30.35 31.3906 30.35L28.3506 30.35L28.3506 37.5ZM29.5406 31.36L31.3406 31.36C32.1406 31.36 32.5606 31.71 32.5606 32.49C32.5606 33.28 32.1406 33.62 31.3406 33.62L29.5406 33.62L29.5406 31.36ZM35.532 33.3L35.532 31.36L39.512 31.36L39.512 30.35L34.342 30.35L34.342 37.5L39.612 37.5L39.612 36.49L35.532 36.49L35.532 34.32L39.022 34.32L39.022 33.3L35.532 33.3ZM40.3823 37.5L41.5723 37.5L41.5723 32.15L41.5923 32.15L44.8223 37.5L46.1423 37.5L46.1423 30.35L44.9523 30.35L44.9523 35.72L44.9323 35.72L41.7123 30.35L40.3823 30.35L40.3823 37.5Z" fill="#A0C6A8"/>
</svg>
