<svg width="83" height="83" viewBox="0 0 83 83" fill="none" xmlns="http://www.w3.org/2000/svg">
<circle cx="41.5" cy="41.5" r="41.5" fill="#0D2521"/>
<path d="M25.7564 40.81L26.9464 40.81C26.7764 39.35 25.6764 38.2 23.8664 38.2C21.8064 38.2 20.5064 39.77 20.5064 41.92C20.5064 44.08 21.8064 45.65 23.8664 45.65C25.6864 45.65 26.7864 44.5 26.9464 42.89L25.7564 42.89C25.6764 43.76 25.1664 44.63 23.8364 44.63C22.2964 44.63 21.6864 43.34 21.6864 41.92C21.6864 40.51 22.2964 39.22 23.8364 39.22C25.1564 39.22 25.6264 40.09 25.7564 40.81ZM30.8672 45.65C33.0172 45.65 34.3772 44.07 34.3772 41.92C34.3772 39.77 33.0172 38.2 30.8672 38.2C28.7072 38.2 27.3572 39.77 27.3572 41.92C27.3572 44.07 28.7072 45.65 30.8672 45.65ZM30.8672 44.63C29.2272 44.63 28.5372 43.37 28.5372 41.92C28.5372 40.48 29.2272 39.22 30.8672 39.22C32.5072 39.22 33.1872 40.48 33.1872 41.92C33.1872 43.37 32.5072 44.63 30.8672 44.63ZM35.1225 45.5L36.3125 45.5L36.3125 40.15L36.3325 40.15L39.5625 45.5L40.8825 45.5L40.8825 38.35L39.6925 38.35L39.6925 43.72L39.6725 43.72L36.4525 38.35L35.1225 38.35L35.1225 45.5ZM46.9338 40.81L48.1238 40.81C47.9538 39.35 46.8537 38.2 45.0438 38.2C42.9838 38.2 41.6837 39.77 41.6837 41.92C41.6837 44.08 42.9837 45.65 45.0437 45.65C46.8638 45.65 47.9638 44.5 48.1238 42.89L46.9338 42.89C46.8537 43.76 46.3437 44.63 45.0138 44.63C43.4738 44.63 42.8638 43.34 42.8638 41.92C42.8638 40.51 43.4738 39.22 45.0138 39.22C46.3338 39.22 46.8038 40.09 46.9338 40.81ZM48.8245 38.35L48.8245 45.5L50.0145 45.5L50.0145 38.35L48.8245 38.35ZM53.7852 41.24C52.7852 40.99 52.1152 40.85 52.1152 40.07C52.1152 39.54 52.6252 39.22 53.4752 39.22C54.4652 39.22 54.9852 39.66 55.0952 40.49L56.2852 40.49C56.1852 39.02 55.0452 38.2 53.4752 38.2C51.9152 38.2 50.9352 38.91 50.9352 40.18C50.9352 41.54 52.1452 41.97 53.2652 42.25C54.6752 42.6 55.2852 42.76 55.2852 43.61C55.2852 44.16 54.8752 44.63 53.8152 44.63C52.5352 44.63 51.9152 44.03 51.8552 43.12L50.6652 43.12C50.7352 44.74 52.0652 45.65 53.8152 45.65C55.6152 45.65 56.4752 44.7 56.4752 43.56C56.4752 41.96 55.3152 41.63 53.7852 41.24ZM58.3934 41.3L58.3934 39.36L62.3734 39.36L62.3734 38.35L57.2034 38.35L57.2034 45.5L62.4734 45.5L62.4734 44.49L58.3934 44.49L58.3934 42.32L61.8834 42.32L61.8834 41.3L58.3934 41.3Z" fill="#A0C6A8"/>
</svg>
