<svg width="73" height="73" viewBox="0 0 73 73" fill="none" xmlns="http://www.w3.org/2000/svg">
<circle cx="36.5" cy="36.5" r="36.5" fill="#0D2521"/>
<path d="M25.8347 35.58L27.0247 35.58C26.8047 34.21 25.8047 33.2 23.9447 33.2C21.8847 33.2 20.5847 34.77 20.5847 36.92C20.5847 39.08 21.7447 40.65 23.8147 40.65C24.8947 40.65 25.5647 40.24 26.0447 39.52L26.0647 39.52L26.3247 40.5L27.1447 40.5L27.1447 36.75L23.9147 36.75L23.9147 37.71L25.9347 37.71C25.9247 38.85 25.0247 39.63 23.8947 39.63C22.2647 39.63 21.7747 38.27 21.7747 36.92C21.7747 35.58 22.4047 34.22 23.9347 34.22C24.9947 34.22 25.6547 34.73 25.8347 35.58ZM28.0571 40.5L29.2471 40.5L29.2471 37.74L30.9971 37.74C32.7171 37.74 32.0471 40.2 32.3771 40.5L33.6271 40.5L33.6271 40.43C33.2471 40.31 33.8471 37.51 32.1971 37.2L32.1971 37.18C33.0171 36.98 33.5271 36.4 33.5271 35.4C33.5271 34.1 32.5771 33.35 31.1071 33.35L28.0571 33.35L28.0571 40.5ZM29.2471 34.36L30.8571 34.36C31.5871 34.36 32.3471 34.51 32.3471 35.54C32.3471 36.58 31.5871 36.72 30.8571 36.72L29.2471 36.72L29.2471 34.36ZM35.4924 36.3L35.4924 34.36L39.4724 34.36L39.4724 33.35L34.3024 33.35L34.3024 40.5L39.5724 40.5L39.5724 39.49L35.4924 39.49L35.4924 37.32L38.9824 37.32L38.9824 36.3L35.4924 36.3ZM41.5326 36.3L41.5326 34.36L45.5126 34.36L45.5126 33.35L40.3426 33.35L40.3426 40.5L45.6126 40.5L45.6126 39.49L41.5326 39.49L41.5326 37.32L45.0226 37.32L45.0226 36.3L41.5326 36.3ZM46.3829 40.5L47.5729 40.5L47.5729 35.15L47.5929 35.15L50.8229 40.5L52.1429 40.5L52.1429 33.35L50.9529 33.35L50.9529 38.72L50.9329 38.72L47.7129 33.35L46.3829 33.35L46.3829 40.5Z" fill="#A0C6A8"/>
</svg>
