<svg width="67" height="67" viewBox="0 0 67 67" fill="none" xmlns="http://www.w3.org/2000/svg">
<circle cx="33.5" cy="33.5" r="33.5" fill="#0D2521"/>
<path d="M26.4406 32.15C26.4406 31 25.5906 30.35 24.1206 30.35L21.0506 30.35L21.0506 37.5L24.2906 37.5C25.7706 37.5 26.7206 36.79 26.7206 35.41C26.7206 34.34 26.0806 33.79 25.3306 33.66L25.3306 33.64C25.9206 33.44 26.4406 33.03 26.4406 32.15ZM22.2406 33.31L22.2406 31.36L24.1506 31.36C24.8606 31.36 25.2506 31.71 25.2506 32.34C25.2506 32.97 24.9306 33.31 24.0806 33.31L22.2406 33.31ZM22.2406 34.2L24.3306 34.2C25.0806 34.2 25.5306 34.61 25.5306 35.34C25.5306 36.01 25.2206 36.49 24.2006 36.49L22.2406 36.49L22.2406 34.2ZM30.6238 37.65C32.7738 37.65 34.1338 36.07 34.1338 33.92C34.1338 31.77 32.7738 30.2 30.6238 30.2C28.4638 30.2 27.1138 31.77 27.1138 33.92C27.1138 36.07 28.4638 37.65 30.6238 37.65ZM30.6238 36.63C28.9838 36.63 28.2938 35.37 28.2938 33.92C28.2938 32.48 28.9838 31.22 30.6238 31.22C32.2638 31.22 32.9438 32.48 32.9438 33.92C32.9438 35.37 32.2638 36.63 30.6238 36.63ZM34.8791 30.35L34.8791 37.5L39.6391 37.5L39.6391 36.49L36.0691 36.49L36.0691 30.35L34.8791 30.35ZM40.2553 37.5L43.0653 37.5C45.0453 37.5 46.2153 36.23 46.2153 33.93C46.2153 31.63 45.0053 30.35 43.0353 30.35L40.2553 30.35L40.2553 37.5ZM41.4453 31.36L42.9753 31.36C44.5753 31.36 45.0253 32.56 45.0253 33.93C45.0253 35.3 44.5753 36.49 42.9753 36.49L41.4453 36.49L41.4453 31.36Z" fill="#A0C6A8"/>
</svg>
