<svg xmlns="http://www.w3.org/2000/svg" fill="none" width="2160" height="2160" viewBox="0 0 2160 2160"><path d="M0 0h2160v2160H0z" fill="#0D2521"/><path d="M855.539 1105.26c0-27.75 21.797-49.26 49.963-49.26 16.702 0 31.28 7.5 40.197 19.67.991 1.42.708 2.69-.708 3.4l-9.483 5.38c-1.415.71-2.547.57-3.538-.85-6.086-7.64-15.569-12.46-26.468-12.46-18.966 0-33.969 14.87-33.969 34.12 0 19.24 15.003 34.11 33.969 34.11 14.862 0 27.317-9.06 31.846-22.23.566-1.69-.283-2.83-2.123-2.83h-19.674c-1.557 0-2.547-.99-2.547-2.54v-8.5c0-1.69.99-2.54 2.547-2.54h37.083c1.557 0 2.548.7 2.69 2.12 0 1.13.141 2.55.141 3.68-.708 27.32-22.221 47.98-49.963 47.98-28.166 0-49.963-21.37-49.963-49.25Zm111.962 47.69c-1.557 0-2.548-.85-2.548-2.4v-60.87c0-1.55.991-2.54 2.548-2.54h9.766c1.557 0 2.548.99 2.548 2.54v4.25c0 2.26 1.132 2.55 2.689.85 3.821-4.39 9.766-7.93 17.546-8.78 1.7-.14 2.55.71 2.55 2.27v9.62c0 1.42-.85 2.41-2.4 2.55-12.176.57-19.819 6.23-19.819 20.52v29.73c0 1.55-.991 2.4-2.548 2.4h-10.332v-.14Zm38.059-32.84c0-19.53 15.43-34.11 35.95-34.11 19.25 0 33.97 12.88 35.67 30.58.28 1.98.28 3.82.14 5.23 0 1.56-.99 2.13-2.55 2.13h-50.38c-1.7 0-2.69 1.13-2.13 2.69 2.13 8.2 9.77 14.43 19.11 14.43 6.37 0 12.32-2.97 16-7.22.84-1.27 1.98-1.55 3.39-.99l9.34 3.97c1.56.7 1.99 1.98.99 3.25-6.22 8.49-16.41 14.3-29.58 14.3-21.37-.14-35.95-15.29-35.95-34.26Zm51.52-8.2c1.84 0 2.97-1.14 1.98-2.55-3.11-5.52-9.34-10.19-17.55-10.19-7.5 0-13.87 3.96-17.26 9.76-1.14 1.56-.29 2.83 1.55 2.83h31.28v.15Zm26.2 8.2c0-19.53 15.43-34.11 35.95-34.11 19.25 0 33.97 12.88 35.67 30.58.28 1.98.28 3.82.14 5.23 0 1.56-.99 2.13-2.55 2.13h-50.38c-1.7 0-2.69 1.13-2.13 2.69 2.13 8.2 9.77 14.43 19.11 14.43 6.37 0 12.31-2.97 15.99-7.22.85-1.27 1.99-1.55 3.4-.99l9.34 3.97c1.56.7 1.98 1.98.99 3.25-6.22 8.49-16.41 14.3-29.58 14.3-21.51-.14-35.95-15.29-35.95-34.26Zm51.38-8.2c1.84 0 2.97-1.14 1.98-2.55-3.11-5.52-9.34-10.19-17.55-10.19-7.5 0-13.87 3.96-17.27 9.76-1.13 1.56-.28 2.83 1.56 2.83h31.28v.15Zm31.15 41.04c-1.56 0-2.55-.85-2.55-2.4v-60.87c0-1.55.99-2.54 2.55-2.54H1176c1.55 0 2.54.99 2.54 2.54v.71c0 2.12.99 2.69 2.55 1.42 4.25-3.82 9.91-5.81 16.7-5.81 14.72 0 24.35 9.06 24.35 26.47v38.22c0 1.55-.85 2.4-2.41 2.4h-10.33c-1.56 0-2.41-.85-2.41-2.4v-35.95c0-12.03-5.8-15.86-13.73-15.86-8.49 0-14.86 5.52-14.86 16.85v34.82c0 1.55-.99 2.4-2.55 2.4h-10.04Zm75.43.01c-1.56 0-2.55-.85-2.55-2.55v-90.44c0-1.7.99-2.55 2.55-2.55h50.95c1.7 0 2.55.85 2.55 2.55v9.2c0 1.7-.85 2.55-2.55 2.55h-34.96c-1.7 0-2.55.84-2.55 2.54v21.09c0 1.7.85 2.55 2.55 2.55h29.58c1.7 0 2.55.99 2.55 2.55v9.2c0 1.55-.85 2.55-2.55 2.55h-29.58c-1.7 0-2.55.84-2.55 2.54v35.53c0 1.7-.85 2.55-2.55 2.55h-10.89v.14Zm53.49-32.85c0-19.53 15.43-34.11 35.96-34.11 20.38 0 35.95 14.72 35.95 34.11 0 19.54-15.43 34.26-35.95 34.26-20.53-.14-35.96-14.72-35.96-34.26Zm56.76 0c0-11.74-9.34-20.8-20.8-20.8-11.61 0-20.81 8.92-20.81 20.8 0 12.04 9.2 20.95 20.81 20.95 11.46-.14 20.8-9.06 20.8-20.95Z" fill="#fff"/><path d="M1368.77 1152.96c-2.12 0-2.69-1.42-1.42-3.11l23.36-28.31c.99-1.28.99-2.27 0-3.54l-23.36-27.74c-1.41-1.7-.56-3.12 1.56-3.12h13.73c1.27 0 2.12.57 2.97 1.56l14.3 18.4c.99 1.28 2.4 1.42 3.39 0l14.44-18.4c.71-.99 1.7-1.56 2.97-1.56h13.73c2.13 0 2.83 1.42 1.56 3.12l-23.35 28.02c-.99 1.28-.99 2.27 0 3.54l23.35 28.31c1.27 1.7.57 3.11-1.42 3.11h-13.72c-1.28 0-2.13-.56-2.98-1.55l-14.29-18.4c-1.13-1.42-2.41-1.42-3.54 0l-14.44 18.4c-.71.99-1.7 1.55-2.97 1.55h-13.87v-.28Z" fill="#fff"/><path d="m734.118 1123.23 31.383 31.65c17.49-17.49 17.875-45.75.385-63.24l-31.768-31.76c-17.49 17.49-17.49 45.86 0 63.35Z" fill="#2CBF67"/><path d="m765.708 1091.64 31.589-31.76c17.49 17.49 17.49 45.86 0 63.35L765.529 1155c-17.311-17.49-17.311-45.87.179-63.36Z" fill="#1F593F"/></svg>