<svg xmlns="http://www.w3.org/2000/svg" width="1920" height="1080" fill="none" stroke="#e4e5e6" xmlns:v="https://vecta.io/nano"><path stroke-opacity=".075" d="M0 2.5h1920M0 7.5h1920M0 12.5h1920M0 17.5h1920M0 22.5h1920M0 27.5h1920M0 32.5h1920M0 37.5h1920M0 42.5h1920M0 47.5h1920M0 52.5h1920M0 57.5h1920M0 62.5h1920M0 67.5h1920M0 72.5h1920M0 77.5h1920M0 82.5h1920M0 87.5h1920M0 92.5h1920M0 97.5h1920m-1920 5h1920m-1920 5h1920m-1920 5h1920m-1920 5h1920m-1920 5h1920m-1920 5h1920m-1920 5h1920m-1920 5h1920m-1920 5h1920m-1920 5h1920m-1920 5h1920m-1920 5h1920m-1920 5h1920m-1920 5h1920m-1920 5h1920m-1920 5h1920m-1920 5h1920m-1920 5h1920m-1920 5h1920m-1920 5h1920m-1920 5h1920m-1920 5h1920m-1920 5h1920m-1920 5h1920m-1920 5h1920m-1920 5h1920m-1920 5h1920m-1920 5h1920m-1920 5h1920m-1920 5h1920m-1920 5h1920m-1920 5h1920m-1920 5h1920m-1920 5h1920m-1920 5h1920m-1920 5h1920m-1920 5h1920m-1920 5h1920m-1920 5h1920m-1920 5h1920m-1920 5h1920m-1920 5h1920m-1920 5h1920m-1920 5h1920m-1920 5h1920m-1920 5h1920m-1920 5h1920m-1920 5h1920m-1920 5h1920m-1920 5h1920m-1920 5h1920m-1920 5h1920m-1920 5h1920m-1920 5h1920m-1920 5h1920m-1920 5h1920m-1920 5h1920m-1920 5h1920m-1920 5h1920m-1920 5h1920m-1920 5h1920m-1920 5h1920m-1920 5h1920m-1920 5h1920m-1920 5h1920m-1920 5h1920m-1920 5h1920m-1920 5h1920m-1920 5h1920m-1920 5h1920m-1920 5h1920m-1920 5h1920m-1920 5h1920m-1920 5h1920m-1920 5h1920m-1920 5h1920m-1920 5h1920m-1920 5h1920m-1920 5h1920m-1920 5h1920m-1920 5h1920m-1920 5h1920m-1920 5h1920m-1920 5h1920m-1920 5h1920m-1920 5h1920m-1920 5h1920m-1920 5h1920m-1920 5h1920m-1920 5h1920m-1920 5h1920m-1920 5h1920m-1920 5h1920m-1920 5h1920m-1920 5h1920m-1920 5h1920m-1920 5h1920m-1920 5h1920m-1920 5h1920m-1920 5h1920m-1920 5h1920m-1920 5h1920m-1920 5h1920m-1920 5h1920m-1920 5h1920m-1920 5h1920m-1920 5h1920m-1920 5h1920m-1920 5h1920m-1920 5h1920m-1920 5h1920m-1920 5h1920m-1920 5h1920m-1920 5h1920m-1920 5h1920m-1920 5h1920m-1920 5h1920m-1920 5h1920m-1920 5h1920m-1920 5h1920m-1920 5h1920m-1920 5h1920m-1920 5h1920m-1920 5h1920m-1920 5h1920m-1920 5h1920m-1920 5h1920m-1920 5h1920m-1920 5h1920m-1920 5h1920m-1920 5h1920m-1920 5h1920m-1920 5h1920m-1920 5h1920m-1920 5h1920m-1920 5h1920m-1920 5h1920m-1920 5h1920m-1920 5h1920m-1920 5h1920m-1920 5h1920m-1920 5h1920m-1920 5h1920m-1920 5h1920m-1920 5h1920m-1920 5h1920m-1920 5h1920m-1920 5h1920m-1920 5h1920m-1920 5h1920m-1920 5h1920m-1920 5h1920m-1920 5h1920m-1920 5h1920m-1920 5h1920m-1920 5h1920m-1920 5h1920m-1920 5h1920m-1920 5h1920m-1920 5h1920m-1920 5h1920m-1920 5h1920m-1920 5h1920m-1920 5h1920m-1920 5h1920m-1920 5h1920m-1920 5h1920m-1920 5h1920m-1920 5h1920m-1920 5h1920m-1920 5h1920m-1920 5h1920m-1920 5h1920m-1920 5h1920m-1920 5h1920m-1920 5h1920m-1920 5h1920m-1920 5h1920m-1920 5h1920m-1920 5h1920m-1920 5h1920m-1920 5h1920m-1920 5h1920m-1920 5h1920m-1920 5h1920m-1920 5h1920m-1920 5h1920m-1920 5h1920m-1920 5h1920m-1920 5h1920m-1920 5h1920m-1920 5h1920m-1920 5h1920m-1920 5h1920m-1920 5h1920m-1920 5h1920"/><path stroke-opacity=".075" d="M2.5 1080V0m5 1080V0m5 1080V0m5 1080V0m5 1080V0m5 1080V0m5 1080V0m5 1080V0m5 1080V0m5 1080V0m5 1080V0m5 1080V0m5 1080V0m5 1080V0m5 1080V0m5 1080V0m5 1080V0m5 1080V0m5 1080V0m5 1080V0m5 1080V0m5 1080V0m5 1080V0m5 1080V0m5 1080V0m5 1080V0m5 1080V0m5 1080V0m5 1080V0m5 1080V0m5 1080V0m5 1080V0m5 1080V0m5 1080V0m5 1080V0m5 1080V0m5 1080V0m5 1080V0m5 1080V0m5 1080V0m5 1080V0m5 1080V0m5 1080V0m5 1080V0m5 1080V0m5 1080V0m5 1080V0m5 1080V0m5 1080V0m5 1080V0m5 1080V0m5 1080V0m5 1080V0m5 1080V0m5 1080V0m5 1080V0m5 1080V0m5 1080V0m5 1080V0m5 1080V0m5 1080V0m5 1080V0m5 1080V0m5 1080V0m5 1080V0m5 1080V0m5 1080V0m5 1080V0m5 1080V0m5 1080V0m5 1080V0m5 1080V0m5 1080V0m5 1080V0m5 1080V0m5 1080V0m5 1080V0m5 1080V0m5 1080V0m5 1080V0m5 1080V0m5 1080V0m5 1080V0m5 1080V0m5 1080V0m5 1080V0m5 1080V0m5 1080V0m5 1080V0m5 1080V0m5 1080V0m5 1080V0m5 1080V0m5 1080V0m5 1080V0m5 1080V0m5 1080V0m5 1080V0m5 1080V0m5 1080V0m5 1080V0m5 1080V0m5 1080V0m5 1080V0m5 1080V0m5 1080V0m5 1080V0m5 1080V0m5 1080V0m5 1080V0m5 1080V0m5 1080V0m5 1080V0m5 1080V0m5 1080V0m5 1080V0m5 1080V0m5 1080V0m5 1080V0m5 1080V0m5 1080V0m5 1080V0m5 1080V0m5 1080V0m5 1080V0m5 1080V0m5 1080V0m5 1080V0m5 1080V0m5 1080V0m5 1080V0m5 1080V0m5 1080V0m5 1080V0m5 1080V0m5 1080V0m5 1080V0m5 1080V0m5 1080V0m5 1080V0m5 1080V0m5 1080V0m5 1080V0m5 1080V0m5 1080V0m5 1080V0m5 1080V0m5 1080V0m5 1080V0m5 1080V0m5 1080V0m5 1080V0m5 1080V0m5 1080V0m5 1080V0m5 1080V0m5 1080V0m5 1080V0m5 1080V0m5 1080V0m5 1080V0m5 1080V0m5 1080V0m5 1080V0m5 1080V0m5 1080V0m5 1080V0m5 1080V0m5 1080V0m5 1080V0m5 1080V0m5 1080V0m5 1080V0m5 1080V0m5 1080V0m5 1080V0m5 1080V0m5 1080V0m5 1080V0m5 1080V0m5 1080V0m5 1080V0m5 1080V0m5 1080V0m5 1080V0m5 1080V0m5 1080V0m5 1080V0m5 1080V0m5 1080V0m5 1080V0m5 1080V0m5 1080V0m5 1080V0m5 1080V0m5 1080V0m5 1080V0m5 1080V0m5 1080V0m5 1080V0m5 1080V0m5 1080V0m5 1080V0m5 1080V0m5 1080V0m5 1080V0m5 1080V0m5 1080V0m5 1080V0m5 1080V0m5 1080V0m5 1080V0m5 1080V0m5 1080V0m5 1080V0m5 1080V0m5 1080V0m5 1080V0m5 1080V0m5 1080V0m5 1080V0m5 1080V0m5 1080V0m5 1080V0m5 1080V0m5 1080V0m5 1080V0m5 1080V0m5 1080V0m5 1080V0m5 1080V0m5 1080V0m5 1080V0m5 1080V0m5 1080V0m5 1080V0m5 1080V0m5 1080V0m5 1080V0m5 1080V0m5 1080V0m5 1080V0m5 1080V0m5 1080V0m5 1080V0m5 1080V0m5 1080V0m5 1080V0m5 1080V0m5 1080V0m5 1080V0m5 1080V0m5 1080V0m5 1080V0m5 1080V0m5 1080V0m5 1080V0m5 1080V0m5 1080V0m5 1080V0m5 1080V0m5 1080V0m5 1080V0m5 1080V0m5 1080V0m5 1080V0m5 1080V0m5 1080V0m5 1080V0m5 1080V0m5 1080V0m5 1080V0m5 1080V0m5 1080V0m5 1080V0m5 1080V0m5 1080V0m5 1080V0m5 1080V0m5 1080V0m5 1080V0m5 1080V0m5 1080V0m5 1080V0m5 1080V0m5 1080V0m5 1080V0m5 1080V0m5 1080V0m5 1080V0m5 1080V0m5 1080V0m5 1080V0m5 1080V0m5 1080V0m5 1080V0m5 1080V0m5 1080V0m5 1080V0m5 1080V0m5 1080V0m5 1080V0m5 1080V0m5 1080V0m5 1080V0m5 1080V0m5 1080V0m5 1080V0m5 1080V0m5 1080V0m5 1080V0m5 1080V0m5 1080V0m5 1080V0m5 1080V0m5 1080V0m5 1080V0m5 1080V0m5 1080V0m5 1080V0m5 1080V0m5 1080V0m5 1080V0m5 1080V0m5 1080V0m5 1080V0m5 1080V0m5 1080V0m5 1080V0m5 1080V0m5 1080V0m5 1080V0m5 1080V0m5 1080V0m5 1080V0m5 1080V0m5 1080V0m5 1080V0m5 1080V0m5 1080V0m5 1080V0m5 1080V0m5 1080V0m5 1080V0m5 1080V0m5 1080V0m5 1080V0m5 1080V0m5 1080V0m5 1080V0m5 1080V0m5 1080V0m5 1080V0m5 1080V0m5 1080V0m5 1080V0m5 1080V0m5 1080V0m5 1080V0m5 1080V0m5 1080V0m5 1080V0m5 1080V0m5 1080V0m5 1080V0m5 1080V0m5 1080V0m5 1080V0m5 1080V0m5 1080V0m5 1080V0m5 1080V0m5 1080V0m5 1080V0m5 1080V0m5 1080V0m5 1080V0m5 1080V0m5 1080V0m5 1080V0m5 1080V0m5 1080V0m5 1080V0m5 1080V0"/></svg>