<svg width="1920" height="1080" viewBox="0 0 1920 1080" fill="none" xmlns="http://www.w3.org/2000/svg">
<line x1="0.5" y1="2.18557e-08" x2="0.499953" y2="1080" stroke="white" stroke-opacity="0.15"/>
<line x1="10.5" y1="2.18557e-08" x2="10.5" y2="1080" stroke="white" stroke-opacity="0.15"/>
<line x1="20.5" y1="2.18557e-08" x2="20.5" y2="1080" stroke="white" stroke-opacity="0.15"/>
<line x1="30.5" y1="2.18557e-08" x2="30.5" y2="1080" stroke="white" stroke-opacity="0.15"/>
<line x1="40.5" y1="2.18557e-08" x2="40.5" y2="1080" stroke="white" stroke-opacity="0.15"/>
<line x1="50.5" y1="2.18557e-08" x2="50.5" y2="1080" stroke="white" stroke-opacity="0.15"/>
<line x1="60.5" y1="2.18557e-08" x2="60.5" y2="1080" stroke="white" stroke-opacity="0.15"/>
<line x1="70.5" y1="2.18557e-08" x2="70.5" y2="1080" stroke="white" stroke-opacity="0.15"/>
<line x1="80.5" y1="2.18557e-08" x2="80.5" y2="1080" stroke="white" stroke-opacity="0.15"/>
<line x1="90.5" y1="2.18557e-08" x2="90.5" y2="1080" stroke="white" stroke-opacity="0.15"/>
<line x1="100.5" y1="2.18557e-08" x2="100.5" y2="1080" stroke="white" stroke-opacity="0.15"/>
<line x1="110.5" y1="2.18557e-08" x2="110.5" y2="1080" stroke="white" stroke-opacity="0.15"/>
<line x1="120.5" y1="2.18557e-08" x2="120.5" y2="1080" stroke="white" stroke-opacity="0.15"/>
<line x1="130.5" y1="2.18557e-08" x2="130.5" y2="1080" stroke="white" stroke-opacity="0.15"/>
<line x1="140.5" y1="2.18557e-08" x2="140.5" y2="1080" stroke="white" stroke-opacity="0.15"/>
<line x1="150.5" y1="2.18557e-08" x2="150.5" y2="1080" stroke="white" stroke-opacity="0.15"/>
<line x1="160.5" y1="2.18557e-08" x2="160.5" y2="1080" stroke="white" stroke-opacity="0.15"/>
<line x1="170.5" y1="2.18557e-08" x2="170.5" y2="1080" stroke="white" stroke-opacity="0.15"/>
<line x1="180.5" y1="2.18557e-08" x2="180.5" y2="1080" stroke="white" stroke-opacity="0.15"/>
<line x1="190.5" y1="2.18557e-08" x2="190.5" y2="1080" stroke="white" stroke-opacity="0.15"/>
<line x1="200.5" y1="2.18557e-08" x2="200.5" y2="1080" stroke="white" stroke-opacity="0.15"/>
<line x1="210.5" y1="2.18557e-08" x2="210.5" y2="1080" stroke="white" stroke-opacity="0.15"/>
<line x1="220.5" y1="2.18557e-08" x2="220.5" y2="1080" stroke="white" stroke-opacity="0.15"/>
<line x1="230.5" y1="2.18557e-08" x2="230.5" y2="1080" stroke="white" stroke-opacity="0.15"/>
<line x1="240.5" y1="2.18557e-08" x2="240.5" y2="1080" stroke="white" stroke-opacity="0.15"/>
<line x1="250.5" y1="2.18557e-08" x2="250.5" y2="1080" stroke="white" stroke-opacity="0.15"/>
<line x1="260.5" y1="2.18557e-08" x2="260.5" y2="1080" stroke="white" stroke-opacity="0.15"/>
<line x1="270.5" y1="2.18557e-08" x2="270.5" y2="1080" stroke="white" stroke-opacity="0.15"/>
<line x1="280.5" y1="2.18557e-08" x2="280.5" y2="1080" stroke="white" stroke-opacity="0.15"/>
<line x1="290.5" y1="2.18557e-08" x2="290.5" y2="1080" stroke="white" stroke-opacity="0.15"/>
<line x1="300.5" y1="2.18557e-08" x2="300.5" y2="1080" stroke="white" stroke-opacity="0.15"/>
<line x1="310.5" y1="2.18557e-08" x2="310.5" y2="1080" stroke="white" stroke-opacity="0.15"/>
<line x1="320.5" y1="2.18557e-08" x2="320.5" y2="1080" stroke="white" stroke-opacity="0.15"/>
<line x1="330.5" y1="2.18557e-08" x2="330.5" y2="1080" stroke="white" stroke-opacity="0.15"/>
<line x1="340.5" y1="2.18557e-08" x2="340.5" y2="1080" stroke="white" stroke-opacity="0.15"/>
<line x1="350.5" y1="2.18557e-08" x2="350.5" y2="1080" stroke="white" stroke-opacity="0.15"/>
<line x1="360.5" y1="2.18557e-08" x2="360.5" y2="1080" stroke="white" stroke-opacity="0.15"/>
<line x1="370.5" y1="2.18557e-08" x2="370.5" y2="1080" stroke="white" stroke-opacity="0.15"/>
<line x1="380.5" y1="2.18557e-08" x2="380.5" y2="1080" stroke="white" stroke-opacity="0.15"/>
<line x1="390.5" y1="2.18557e-08" x2="390.5" y2="1080" stroke="white" stroke-opacity="0.15"/>
<line x1="400.5" y1="2.18557e-08" x2="400.5" y2="1080" stroke="white" stroke-opacity="0.15"/>
<line x1="410.5" y1="2.18557e-08" x2="410.5" y2="1080" stroke="white" stroke-opacity="0.15"/>
<line x1="420.5" y1="2.18557e-08" x2="420.5" y2="1080" stroke="white" stroke-opacity="0.15"/>
<line x1="430.5" y1="2.18557e-08" x2="430.5" y2="1080" stroke="white" stroke-opacity="0.15"/>
<line x1="440.5" y1="2.18557e-08" x2="440.5" y2="1080" stroke="white" stroke-opacity="0.15"/>
<line x1="450.5" y1="2.18557e-08" x2="450.5" y2="1080" stroke="white" stroke-opacity="0.15"/>
<line x1="460.5" y1="2.18557e-08" x2="460.5" y2="1080" stroke="white" stroke-opacity="0.15"/>
<line x1="470.5" y1="2.18557e-08" x2="470.5" y2="1080" stroke="white" stroke-opacity="0.15"/>
<line x1="480.5" y1="2.18557e-08" x2="480.5" y2="1080" stroke="white" stroke-opacity="0.15"/>
<line x1="490.5" y1="2.18557e-08" x2="490.5" y2="1080" stroke="white" stroke-opacity="0.15"/>
<line x1="500.5" y1="2.18557e-08" x2="500.5" y2="1080" stroke="white" stroke-opacity="0.15"/>
<line x1="510.5" y1="2.18557e-08" x2="510.5" y2="1080" stroke="white" stroke-opacity="0.15"/>
<line x1="520.5" y1="2.18557e-08" x2="520.5" y2="1080" stroke="white" stroke-opacity="0.15"/>
<line x1="530.5" y1="2.18557e-08" x2="530.5" y2="1080" stroke="white" stroke-opacity="0.15"/>
<line x1="540.5" y1="2.18557e-08" x2="540.5" y2="1080" stroke="white" stroke-opacity="0.15"/>
<line x1="550.5" y1="2.18557e-08" x2="550.5" y2="1080" stroke="white" stroke-opacity="0.15"/>
<line x1="560.5" y1="2.18557e-08" x2="560.5" y2="1080" stroke="white" stroke-opacity="0.15"/>
<line x1="570.5" y1="2.18557e-08" x2="570.5" y2="1080" stroke="white" stroke-opacity="0.15"/>
<line x1="580.5" y1="2.18557e-08" x2="580.5" y2="1080" stroke="white" stroke-opacity="0.15"/>
<line x1="590.5" y1="2.18557e-08" x2="590.5" y2="1080" stroke="white" stroke-opacity="0.15"/>
<line x1="600.5" y1="2.18557e-08" x2="600.5" y2="1080" stroke="white" stroke-opacity="0.15"/>
<line x1="610.5" y1="2.18557e-08" x2="610.5" y2="1080" stroke="white" stroke-opacity="0.15"/>
<line x1="620.5" y1="2.18557e-08" x2="620.5" y2="1080" stroke="white" stroke-opacity="0.15"/>
<line x1="630.5" y1="2.18557e-08" x2="630.5" y2="1080" stroke="white" stroke-opacity="0.15"/>
<line x1="640.5" y1="2.18557e-08" x2="640.5" y2="1080" stroke="white" stroke-opacity="0.15"/>
<line x1="650.5" y1="2.18557e-08" x2="650.5" y2="1080" stroke="white" stroke-opacity="0.15"/>
<line x1="660.5" y1="2.18557e-08" x2="660.5" y2="1080" stroke="white" stroke-opacity="0.15"/>
<line x1="670.5" y1="2.18557e-08" x2="670.5" y2="1080" stroke="white" stroke-opacity="0.15"/>
<line x1="680.5" y1="2.18557e-08" x2="680.5" y2="1080" stroke="white" stroke-opacity="0.15"/>
<line x1="690.5" y1="2.18557e-08" x2="690.5" y2="1080" stroke="white" stroke-opacity="0.15"/>
<line x1="700.5" y1="2.18557e-08" x2="700.5" y2="1080" stroke="white" stroke-opacity="0.15"/>
<line x1="710.5" y1="2.18557e-08" x2="710.5" y2="1080" stroke="white" stroke-opacity="0.15"/>
<line x1="720.5" y1="2.18557e-08" x2="720.5" y2="1080" stroke="white" stroke-opacity="0.15"/>
<line x1="730.5" y1="2.18557e-08" x2="730.5" y2="1080" stroke="white" stroke-opacity="0.15"/>
<line x1="740.5" y1="2.18557e-08" x2="740.5" y2="1080" stroke="white" stroke-opacity="0.15"/>
<line x1="750.5" y1="2.18557e-08" x2="750.5" y2="1080" stroke="white" stroke-opacity="0.15"/>
<line x1="760.5" y1="2.18557e-08" x2="760.5" y2="1080" stroke="white" stroke-opacity="0.15"/>
<line x1="770.5" y1="2.18557e-08" x2="770.5" y2="1080" stroke="white" stroke-opacity="0.15"/>
<line x1="780.5" y1="2.18557e-08" x2="780.5" y2="1080" stroke="white" stroke-opacity="0.15"/>
<line x1="790.5" y1="2.18557e-08" x2="790.5" y2="1080" stroke="white" stroke-opacity="0.15"/>
<line x1="800.5" y1="2.18557e-08" x2="800.5" y2="1080" stroke="white" stroke-opacity="0.15"/>
<line x1="810.5" y1="2.18557e-08" x2="810.5" y2="1080" stroke="white" stroke-opacity="0.15"/>
<line x1="820.5" y1="2.18557e-08" x2="820.5" y2="1080" stroke="white" stroke-opacity="0.15"/>
<line x1="830.5" y1="2.18557e-08" x2="830.5" y2="1080" stroke="white" stroke-opacity="0.15"/>
<line x1="840.5" y1="2.18557e-08" x2="840.5" y2="1080" stroke="white" stroke-opacity="0.15"/>
<line x1="850.5" y1="2.18557e-08" x2="850.5" y2="1080" stroke="white" stroke-opacity="0.15"/>
<line x1="860.5" y1="2.18557e-08" x2="860.5" y2="1080" stroke="white" stroke-opacity="0.15"/>
<line x1="870.5" y1="2.18557e-08" x2="870.5" y2="1080" stroke="white" stroke-opacity="0.15"/>
<line x1="880.5" y1="2.18557e-08" x2="880.5" y2="1080" stroke="white" stroke-opacity="0.15"/>
<line x1="890.5" y1="2.18557e-08" x2="890.5" y2="1080" stroke="white" stroke-opacity="0.15"/>
<line x1="900.5" y1="2.18557e-08" x2="900.5" y2="1080" stroke="white" stroke-opacity="0.15"/>
<line x1="910.5" y1="2.18557e-08" x2="910.5" y2="1080" stroke="white" stroke-opacity="0.15"/>
<line x1="920.5" y1="2.18557e-08" x2="920.5" y2="1080" stroke="white" stroke-opacity="0.15"/>
<line x1="930.5" y1="2.18557e-08" x2="930.5" y2="1080" stroke="white" stroke-opacity="0.15"/>
<line x1="940.5" y1="2.18557e-08" x2="940.5" y2="1080" stroke="white" stroke-opacity="0.15"/>
<line x1="950.5" y1="2.18557e-08" x2="950.5" y2="1080" stroke="white" stroke-opacity="0.15"/>
<line x1="960.5" y1="2.18557e-08" x2="960.5" y2="1080" stroke="white" stroke-opacity="0.15"/>
<line x1="970.5" y1="2.18557e-08" x2="970.5" y2="1080" stroke="white" stroke-opacity="0.15"/>
<line x1="980.5" y1="2.18557e-08" x2="980.5" y2="1080" stroke="white" stroke-opacity="0.15"/>
<line x1="990.5" y1="2.18557e-08" x2="990.5" y2="1080" stroke="white" stroke-opacity="0.15"/>
<line x1="1000.5" y1="2.18557e-08" x2="1000.5" y2="1080" stroke="white" stroke-opacity="0.15"/>
<line x1="1010.5" y1="2.18557e-08" x2="1010.5" y2="1080" stroke="white" stroke-opacity="0.15"/>
<line x1="1020.5" y1="2.18557e-08" x2="1020.5" y2="1080" stroke="white" stroke-opacity="0.15"/>
<line x1="1030.5" y1="2.18557e-08" x2="1030.5" y2="1080" stroke="white" stroke-opacity="0.15"/>
<line x1="1040.5" y1="2.18557e-08" x2="1040.5" y2="1080" stroke="white" stroke-opacity="0.15"/>
<line x1="1050.5" y1="2.18557e-08" x2="1050.5" y2="1080" stroke="white" stroke-opacity="0.15"/>
<line x1="1060.5" y1="2.18557e-08" x2="1060.5" y2="1080" stroke="white" stroke-opacity="0.15"/>
<line x1="1070.5" y1="2.18557e-08" x2="1070.5" y2="1080" stroke="white" stroke-opacity="0.15"/>
<line x1="1080.5" y1="2.18557e-08" x2="1080.5" y2="1080" stroke="white" stroke-opacity="0.15"/>
<line x1="1090.5" y1="2.18557e-08" x2="1090.5" y2="1080" stroke="white" stroke-opacity="0.15"/>
<line x1="1100.5" y1="2.18557e-08" x2="1100.5" y2="1080" stroke="white" stroke-opacity="0.15"/>
<line x1="1110.5" y1="2.18557e-08" x2="1110.5" y2="1080" stroke="white" stroke-opacity="0.15"/>
<line x1="1120.5" y1="2.18557e-08" x2="1120.5" y2="1080" stroke="white" stroke-opacity="0.15"/>
<line x1="1130.5" y1="2.18557e-08" x2="1130.5" y2="1080" stroke="white" stroke-opacity="0.15"/>
<line x1="1140.5" y1="2.18557e-08" x2="1140.5" y2="1080" stroke="white" stroke-opacity="0.15"/>
<line x1="1150.5" y1="2.18557e-08" x2="1150.5" y2="1080" stroke="white" stroke-opacity="0.15"/>
<line x1="1160.5" y1="2.18557e-08" x2="1160.5" y2="1080" stroke="white" stroke-opacity="0.15"/>
<line x1="1170.5" y1="2.18557e-08" x2="1170.5" y2="1080" stroke="white" stroke-opacity="0.15"/>
<line x1="1180.5" y1="2.18557e-08" x2="1180.5" y2="1080" stroke="white" stroke-opacity="0.15"/>
<line x1="1190.5" y1="2.18557e-08" x2="1190.5" y2="1080" stroke="white" stroke-opacity="0.15"/>
<line x1="1200.5" y1="2.18557e-08" x2="1200.5" y2="1080" stroke="white" stroke-opacity="0.15"/>
<line x1="1210.5" y1="2.18557e-08" x2="1210.5" y2="1080" stroke="white" stroke-opacity="0.15"/>
<line x1="1220.5" y1="2.18557e-08" x2="1220.5" y2="1080" stroke="white" stroke-opacity="0.15"/>
<line x1="1230.5" y1="2.18557e-08" x2="1230.5" y2="1080" stroke="white" stroke-opacity="0.15"/>
<line x1="1240.5" y1="2.18557e-08" x2="1240.5" y2="1080" stroke="white" stroke-opacity="0.15"/>
<line x1="1250.5" y1="2.18557e-08" x2="1250.5" y2="1080" stroke="white" stroke-opacity="0.15"/>
<line x1="1260.5" y1="2.18557e-08" x2="1260.5" y2="1080" stroke="white" stroke-opacity="0.15"/>
<line x1="1270.5" y1="2.18557e-08" x2="1270.5" y2="1080" stroke="white" stroke-opacity="0.15"/>
<line x1="1280.5" y1="2.18557e-08" x2="1280.5" y2="1080" stroke="white" stroke-opacity="0.15"/>
<line x1="1290.5" y1="2.18557e-08" x2="1290.5" y2="1080" stroke="white" stroke-opacity="0.15"/>
<line x1="1300.5" y1="2.18557e-08" x2="1300.5" y2="1080" stroke="white" stroke-opacity="0.15"/>
<line x1="1310.5" y1="2.18557e-08" x2="1310.5" y2="1080" stroke="white" stroke-opacity="0.15"/>
<line x1="1320.5" y1="2.18557e-08" x2="1320.5" y2="1080" stroke="white" stroke-opacity="0.15"/>
<line x1="1330.5" y1="2.18557e-08" x2="1330.5" y2="1080" stroke="white" stroke-opacity="0.15"/>
<line x1="1340.5" y1="2.18557e-08" x2="1340.5" y2="1080" stroke="white" stroke-opacity="0.15"/>
<line x1="1350.5" y1="2.18557e-08" x2="1350.5" y2="1080" stroke="white" stroke-opacity="0.15"/>
<line x1="1360.5" y1="2.18557e-08" x2="1360.5" y2="1080" stroke="white" stroke-opacity="0.15"/>
<line x1="1370.5" y1="2.18557e-08" x2="1370.5" y2="1080" stroke="white" stroke-opacity="0.15"/>
<line x1="1380.5" y1="2.18557e-08" x2="1380.5" y2="1080" stroke="white" stroke-opacity="0.15"/>
<line x1="1390.5" y1="2.18557e-08" x2="1390.5" y2="1080" stroke="white" stroke-opacity="0.15"/>
<line x1="1400.5" y1="2.18557e-08" x2="1400.5" y2="1080" stroke="white" stroke-opacity="0.15"/>
<line x1="1410.5" y1="2.18557e-08" x2="1410.5" y2="1080" stroke="white" stroke-opacity="0.15"/>
<line x1="1420.5" y1="2.18557e-08" x2="1420.5" y2="1080" stroke="white" stroke-opacity="0.15"/>
<line x1="1430.5" y1="2.18557e-08" x2="1430.5" y2="1080" stroke="white" stroke-opacity="0.15"/>
<line x1="1440.5" y1="2.18557e-08" x2="1440.5" y2="1080" stroke="white" stroke-opacity="0.15"/>
<line x1="1450.5" y1="2.18557e-08" x2="1450.5" y2="1080" stroke="white" stroke-opacity="0.15"/>
<line x1="1460.5" y1="2.18557e-08" x2="1460.5" y2="1080" stroke="white" stroke-opacity="0.15"/>
<line x1="1470.5" y1="2.18557e-08" x2="1470.5" y2="1080" stroke="white" stroke-opacity="0.15"/>
<line x1="1480.5" y1="2.18557e-08" x2="1480.5" y2="1080" stroke="white" stroke-opacity="0.15"/>
<line x1="1490.5" y1="2.18557e-08" x2="1490.5" y2="1080" stroke="white" stroke-opacity="0.15"/>
<line x1="1500.5" y1="2.18557e-08" x2="1500.5" y2="1080" stroke="white" stroke-opacity="0.15"/>
<line x1="1510.5" y1="2.18557e-08" x2="1510.5" y2="1080" stroke="white" stroke-opacity="0.15"/>
<line x1="1520.5" y1="2.18557e-08" x2="1520.5" y2="1080" stroke="white" stroke-opacity="0.15"/>
<line x1="1530.5" y1="2.18557e-08" x2="1530.5" y2="1080" stroke="white" stroke-opacity="0.15"/>
<line x1="1540.5" y1="2.18557e-08" x2="1540.5" y2="1080" stroke="white" stroke-opacity="0.15"/>
<line x1="1550.5" y1="2.18557e-08" x2="1550.5" y2="1080" stroke="white" stroke-opacity="0.15"/>
<line x1="1560.5" y1="2.18557e-08" x2="1560.5" y2="1080" stroke="white" stroke-opacity="0.15"/>
<line x1="1570.5" y1="2.18557e-08" x2="1570.5" y2="1080" stroke="white" stroke-opacity="0.15"/>
<line x1="1580.5" y1="2.18557e-08" x2="1580.5" y2="1080" stroke="white" stroke-opacity="0.15"/>
<line x1="1590.5" y1="2.18557e-08" x2="1590.5" y2="1080" stroke="white" stroke-opacity="0.15"/>
<line x1="1600.5" y1="2.18557e-08" x2="1600.5" y2="1080" stroke="white" stroke-opacity="0.15"/>
<line x1="1610.5" y1="2.18557e-08" x2="1610.5" y2="1080" stroke="white" stroke-opacity="0.15"/>
<line x1="1620.5" y1="2.18557e-08" x2="1620.5" y2="1080" stroke="white" stroke-opacity="0.15"/>
<line x1="1630.5" y1="2.18557e-08" x2="1630.5" y2="1080" stroke="white" stroke-opacity="0.15"/>
<line x1="1640.5" y1="2.18557e-08" x2="1640.5" y2="1080" stroke="white" stroke-opacity="0.15"/>
<line x1="1650.5" y1="2.18557e-08" x2="1650.5" y2="1080" stroke="white" stroke-opacity="0.15"/>
<line x1="1660.5" y1="2.18557e-08" x2="1660.5" y2="1080" stroke="white" stroke-opacity="0.15"/>
<line x1="1670.5" y1="2.18557e-08" x2="1670.5" y2="1080" stroke="white" stroke-opacity="0.15"/>
<line x1="1680.5" y1="2.18557e-08" x2="1680.5" y2="1080" stroke="white" stroke-opacity="0.15"/>
<line x1="1690.5" y1="2.18557e-08" x2="1690.5" y2="1080" stroke="white" stroke-opacity="0.15"/>
<line x1="1700.5" y1="2.18557e-08" x2="1700.5" y2="1080" stroke="white" stroke-opacity="0.15"/>
<line x1="1710.5" y1="2.18557e-08" x2="1710.5" y2="1080" stroke="white" stroke-opacity="0.15"/>
<line x1="1720.5" y1="2.18557e-08" x2="1720.5" y2="1080" stroke="white" stroke-opacity="0.15"/>
<line x1="1730.5" y1="2.18557e-08" x2="1730.5" y2="1080" stroke="white" stroke-opacity="0.15"/>
<line x1="1740.5" y1="2.18557e-08" x2="1740.5" y2="1080" stroke="white" stroke-opacity="0.15"/>
<line x1="1750.5" y1="2.18557e-08" x2="1750.5" y2="1080" stroke="white" stroke-opacity="0.15"/>
<line x1="1760.5" y1="2.18557e-08" x2="1760.5" y2="1080" stroke="white" stroke-opacity="0.15"/>
<line x1="1770.5" y1="2.18557e-08" x2="1770.5" y2="1080" stroke="white" stroke-opacity="0.15"/>
<line x1="1780.5" y1="2.18557e-08" x2="1780.5" y2="1080" stroke="white" stroke-opacity="0.15"/>
<line x1="1790.5" y1="2.18557e-08" x2="1790.5" y2="1080" stroke="white" stroke-opacity="0.15"/>
<line x1="1800.5" y1="2.18557e-08" x2="1800.5" y2="1080" stroke="white" stroke-opacity="0.15"/>
<line x1="1810.5" y1="2.18557e-08" x2="1810.5" y2="1080" stroke="white" stroke-opacity="0.15"/>
<line x1="1820.5" y1="2.18557e-08" x2="1820.5" y2="1080" stroke="white" stroke-opacity="0.15"/>
<line x1="1830.5" y1="2.18557e-08" x2="1830.5" y2="1080" stroke="white" stroke-opacity="0.15"/>
<line x1="1840.5" y1="2.18557e-08" x2="1840.5" y2="1080" stroke="white" stroke-opacity="0.15"/>
<line x1="1850.5" y1="2.18557e-08" x2="1850.5" y2="1080" stroke="white" stroke-opacity="0.15"/>
<line x1="1860.5" y1="2.18557e-08" x2="1860.5" y2="1080" stroke="white" stroke-opacity="0.15"/>
<line x1="1870.5" y1="2.18557e-08" x2="1870.5" y2="1080" stroke="white" stroke-opacity="0.15"/>
<line x1="1880.5" y1="2.18557e-08" x2="1880.5" y2="1080" stroke="white" stroke-opacity="0.15"/>
<line x1="1890.5" y1="2.18557e-08" x2="1890.5" y2="1080" stroke="white" stroke-opacity="0.15"/>
<line x1="1900.5" y1="2.18557e-08" x2="1900.5" y2="1080" stroke="white" stroke-opacity="0.15"/>
<line x1="1910.5" y1="2.18557e-08" x2="1910.5" y2="1080" stroke="white" stroke-opacity="0.15"/>
<line y1="9.5" x2="1920" y2="9.5" stroke="white" stroke-opacity="0.15"/>
<line y1="19.5" x2="1920" y2="19.5" stroke="white" stroke-opacity="0.15"/>
<line y1="29.5" x2="1920" y2="29.5" stroke="white" stroke-opacity="0.15"/>
<line y1="39.5" x2="1920" y2="39.5" stroke="white" stroke-opacity="0.15"/>
<line y1="49.5" x2="1920" y2="49.5" stroke="white" stroke-opacity="0.15"/>
<line y1="59.5" x2="1920" y2="59.5" stroke="white" stroke-opacity="0.15"/>
<line y1="69.5" x2="1920" y2="69.5" stroke="white" stroke-opacity="0.15"/>
<line y1="79.5" x2="1920" y2="79.5" stroke="white" stroke-opacity="0.15"/>
<line y1="89.5" x2="1920" y2="89.5" stroke="white" stroke-opacity="0.15"/>
<line y1="99.5" x2="1920" y2="99.5" stroke="white" stroke-opacity="0.15"/>
<line y1="109.5" x2="1920" y2="109.5" stroke="white" stroke-opacity="0.15"/>
<line y1="119.5" x2="1920" y2="119.5" stroke="white" stroke-opacity="0.15"/>
<line y1="129.5" x2="1920" y2="129.5" stroke="white" stroke-opacity="0.15"/>
<line y1="139.5" x2="1920" y2="139.5" stroke="white" stroke-opacity="0.15"/>
<line y1="149.5" x2="1920" y2="149.5" stroke="white" stroke-opacity="0.15"/>
<line y1="159.5" x2="1920" y2="159.5" stroke="white" stroke-opacity="0.15"/>
<line y1="169.5" x2="1920" y2="169.5" stroke="white" stroke-opacity="0.15"/>
<line y1="179.5" x2="1920" y2="179.5" stroke="white" stroke-opacity="0.15"/>
<line y1="189.5" x2="1920" y2="189.5" stroke="white" stroke-opacity="0.15"/>
<line y1="199.5" x2="1920" y2="199.5" stroke="white" stroke-opacity="0.15"/>
<line y1="209.5" x2="1920" y2="209.5" stroke="white" stroke-opacity="0.15"/>
<line y1="219.5" x2="1920" y2="219.5" stroke="white" stroke-opacity="0.15"/>
<line y1="229.5" x2="1920" y2="229.5" stroke="white" stroke-opacity="0.15"/>
<line y1="239.5" x2="1920" y2="239.5" stroke="white" stroke-opacity="0.15"/>
<line y1="249.5" x2="1920" y2="249.5" stroke="white" stroke-opacity="0.15"/>
<line y1="259.5" x2="1920" y2="259.5" stroke="white" stroke-opacity="0.15"/>
<line y1="269.5" x2="1920" y2="269.5" stroke="white" stroke-opacity="0.15"/>
<line y1="279.5" x2="1920" y2="279.5" stroke="white" stroke-opacity="0.15"/>
<line y1="289.5" x2="1920" y2="289.5" stroke="white" stroke-opacity="0.15"/>
<line y1="299.5" x2="1920" y2="299.5" stroke="white" stroke-opacity="0.15"/>
<line y1="309.5" x2="1920" y2="309.5" stroke="white" stroke-opacity="0.15"/>
<line y1="319.5" x2="1920" y2="319.5" stroke="white" stroke-opacity="0.15"/>
<line y1="329.5" x2="1920" y2="329.5" stroke="white" stroke-opacity="0.15"/>
<line y1="339.5" x2="1920" y2="339.5" stroke="white" stroke-opacity="0.15"/>
<line y1="349.5" x2="1920" y2="349.5" stroke="white" stroke-opacity="0.15"/>
<line y1="359.5" x2="1920" y2="359.5" stroke="white" stroke-opacity="0.15"/>
<line y1="369.5" x2="1920" y2="369.5" stroke="white" stroke-opacity="0.15"/>
<line y1="379.5" x2="1920" y2="379.5" stroke="white" stroke-opacity="0.15"/>
<line y1="389.5" x2="1920" y2="389.5" stroke="white" stroke-opacity="0.15"/>
<line y1="399.5" x2="1920" y2="399.5" stroke="white" stroke-opacity="0.15"/>
<line y1="409.5" x2="1920" y2="409.5" stroke="white" stroke-opacity="0.15"/>
<line y1="419.5" x2="1920" y2="419.5" stroke="white" stroke-opacity="0.15"/>
<line y1="429.5" x2="1920" y2="429.5" stroke="white" stroke-opacity="0.15"/>
<line y1="439.5" x2="1920" y2="439.5" stroke="white" stroke-opacity="0.15"/>
<line y1="449.5" x2="1920" y2="449.5" stroke="white" stroke-opacity="0.15"/>
<line y1="459.5" x2="1920" y2="459.5" stroke="white" stroke-opacity="0.15"/>
<line y1="469.5" x2="1920" y2="469.5" stroke="white" stroke-opacity="0.15"/>
<line y1="479.5" x2="1920" y2="479.5" stroke="white" stroke-opacity="0.15"/>
<line y1="489.5" x2="1920" y2="489.5" stroke="white" stroke-opacity="0.15"/>
<line y1="499.5" x2="1920" y2="499.5" stroke="white" stroke-opacity="0.15"/>
<line y1="509.5" x2="1920" y2="509.5" stroke="white" stroke-opacity="0.15"/>
<line y1="519.5" x2="1920" y2="519.5" stroke="white" stroke-opacity="0.15"/>
<line y1="529.5" x2="1920" y2="529.5" stroke="white" stroke-opacity="0.15"/>
<line y1="539.5" x2="1920" y2="539.5" stroke="white" stroke-opacity="0.15"/>
<line y1="549.5" x2="1920" y2="549.5" stroke="white" stroke-opacity="0.15"/>
<line y1="559.5" x2="1920" y2="559.5" stroke="white" stroke-opacity="0.15"/>
<line y1="569.5" x2="1920" y2="569.5" stroke="white" stroke-opacity="0.15"/>
<line y1="579.5" x2="1920" y2="579.5" stroke="white" stroke-opacity="0.15"/>
<line y1="589.5" x2="1920" y2="589.5" stroke="white" stroke-opacity="0.15"/>
<line y1="599.5" x2="1920" y2="599.5" stroke="white" stroke-opacity="0.15"/>
<line y1="609.5" x2="1920" y2="609.5" stroke="white" stroke-opacity="0.15"/>
<line y1="619.5" x2="1920" y2="619.5" stroke="white" stroke-opacity="0.15"/>
<line y1="629.5" x2="1920" y2="629.5" stroke="white" stroke-opacity="0.15"/>
<line y1="639.5" x2="1920" y2="639.5" stroke="white" stroke-opacity="0.15"/>
<line y1="649.5" x2="1920" y2="649.5" stroke="white" stroke-opacity="0.15"/>
<line y1="659.5" x2="1920" y2="659.5" stroke="white" stroke-opacity="0.15"/>
<line y1="669.5" x2="1920" y2="669.5" stroke="white" stroke-opacity="0.15"/>
<line y1="679.5" x2="1920" y2="679.5" stroke="white" stroke-opacity="0.15"/>
<line y1="689.5" x2="1920" y2="689.5" stroke="white" stroke-opacity="0.15"/>
<line y1="699.5" x2="1920" y2="699.5" stroke="white" stroke-opacity="0.15"/>
<line y1="709.5" x2="1920" y2="709.5" stroke="white" stroke-opacity="0.15"/>
<line y1="719.5" x2="1920" y2="719.5" stroke="white" stroke-opacity="0.15"/>
<line y1="729.5" x2="1920" y2="729.5" stroke="white" stroke-opacity="0.15"/>
<line y1="739.5" x2="1920" y2="739.5" stroke="white" stroke-opacity="0.15"/>
<line y1="749.5" x2="1920" y2="749.5" stroke="white" stroke-opacity="0.15"/>
<line y1="759.5" x2="1920" y2="759.5" stroke="white" stroke-opacity="0.15"/>
<line y1="769.5" x2="1920" y2="769.5" stroke="white" stroke-opacity="0.15"/>
<line y1="779.5" x2="1920" y2="779.5" stroke="white" stroke-opacity="0.15"/>
<line y1="789.5" x2="1920" y2="789.5" stroke="white" stroke-opacity="0.15"/>
<line y1="799.5" x2="1920" y2="799.5" stroke="white" stroke-opacity="0.15"/>
<line y1="809.5" x2="1920" y2="809.5" stroke="white" stroke-opacity="0.15"/>
<line y1="819.5" x2="1920" y2="819.5" stroke="white" stroke-opacity="0.15"/>
<line y1="829.5" x2="1920" y2="829.5" stroke="white" stroke-opacity="0.15"/>
<line y1="839.5" x2="1920" y2="839.5" stroke="white" stroke-opacity="0.15"/>
<line y1="849.5" x2="1920" y2="849.5" stroke="white" stroke-opacity="0.15"/>
<line y1="859.5" x2="1920" y2="859.5" stroke="white" stroke-opacity="0.15"/>
<line y1="869.5" x2="1920" y2="869.5" stroke="white" stroke-opacity="0.15"/>
<line y1="879.5" x2="1920" y2="879.5" stroke="white" stroke-opacity="0.15"/>
<line y1="889.5" x2="1920" y2="889.5" stroke="white" stroke-opacity="0.15"/>
<line y1="899.5" x2="1920" y2="899.5" stroke="white" stroke-opacity="0.15"/>
<line y1="909.5" x2="1920" y2="909.5" stroke="white" stroke-opacity="0.15"/>
<line y1="919.5" x2="1920" y2="919.5" stroke="white" stroke-opacity="0.15"/>
<line y1="929.5" x2="1920" y2="929.5" stroke="white" stroke-opacity="0.15"/>
<line y1="939.5" x2="1920" y2="939.5" stroke="white" stroke-opacity="0.15"/>
<line y1="949.5" x2="1920" y2="949.5" stroke="white" stroke-opacity="0.15"/>
<line y1="959.5" x2="1920" y2="959.5" stroke="white" stroke-opacity="0.15"/>
<line y1="969.5" x2="1920" y2="969.5" stroke="white" stroke-opacity="0.15"/>
<line y1="979.5" x2="1920" y2="979.5" stroke="white" stroke-opacity="0.15"/>
<line y1="989.5" x2="1920" y2="989.5" stroke="white" stroke-opacity="0.15"/>
<line y1="999.5" x2="1920" y2="999.5" stroke="white" stroke-opacity="0.15"/>
<line y1="1009.5" x2="1920" y2="1009.5" stroke="white" stroke-opacity="0.15"/>
<line y1="1019.5" x2="1920" y2="1019.5" stroke="white" stroke-opacity="0.15"/>
<line y1="1029.5" x2="1920" y2="1029.5" stroke="white" stroke-opacity="0.15"/>
<line y1="1039.5" x2="1920" y2="1039.5" stroke="white" stroke-opacity="0.15"/>
<line y1="1049.5" x2="1920" y2="1049.5" stroke="white" stroke-opacity="0.15"/>
<line y1="1059.5" x2="1920" y2="1059.5" stroke="white" stroke-opacity="0.15"/>
<line y1="1069.5" x2="1920" y2="1069.5" stroke="white" stroke-opacity="0.15"/>
<line y1="1079.5" x2="1920" y2="1079.5" stroke="white" stroke-opacity="0.15"/>
<path d="M170.188 173.04L170.189 174.009L174.531 174.016L174.541 179.451L175.312 179.452L175.311 174.017L179.678 174.024L179.677 173.055L175.31 173.048L175.304 167.65L174.525 167.649L174.53 173.047L170.188 173.04Z" fill="white" fill-opacity="0.5"/>
<path d="M366.581 173.04L366.582 174.009L370.924 174.016L370.934 179.451L371.705 179.452L371.704 174.017L376.071 174.024L376.07 173.055L371.703 173.048L371.697 167.65L370.918 167.649L370.923 173.047L366.581 173.04Z" fill="white" fill-opacity="0.5"/>
<path d="M562.974 173.04L562.975 174.009L567.317 174.016L567.327 179.451L568.097 179.452L568.096 174.017L572.464 174.024L572.463 173.055L568.095 173.048L568.09 167.65L567.31 167.649L567.316 173.047L562.974 173.04Z" fill="white" fill-opacity="0.5"/>
<path d="M759.368 173.04L759.369 174.009L763.711 174.016L763.721 179.451L764.491 179.452L764.49 174.017L768.858 174.024L768.857 173.055L764.489 173.048L764.484 167.65L763.704 167.649L763.71 173.047L759.368 173.04Z" fill="white" fill-opacity="0.5"/>
<path d="M955.761 173.04L955.762 174.009L960.104 174.016L960.114 179.451L960.884 179.452L960.883 174.017L965.251 174.024L965.25 173.055L960.882 173.048L960.877 167.65L960.098 167.649L960.103 173.047L955.761 173.04Z" fill="white" fill-opacity="0.5"/>
<path d="M1152.15 173.04L1152.15 174.009L1156.5 174.016L1156.51 179.451L1157.28 179.452L1157.28 174.017L1161.64 174.024L1161.64 173.055L1157.27 173.048L1157.27 167.65L1156.49 167.649L1156.5 173.047L1152.15 173.04Z" fill="white" fill-opacity="0.5"/>
<path d="M1348.55 173.04L1348.55 174.009L1352.89 174.016L1352.9 179.451L1353.67 179.452L1353.67 174.017L1358.04 174.024L1358.04 173.055L1353.67 173.048L1353.66 167.65L1352.88 167.649L1352.89 173.047L1348.55 173.04Z" fill="white" fill-opacity="0.5"/>
<path d="M1544.94 173.04L1544.94 174.009L1549.28 174.016L1549.29 179.451L1550.06 179.452L1550.06 174.017L1554.43 174.024L1554.43 173.055L1550.06 173.048L1550.06 167.65L1549.28 167.649L1549.28 173.047L1544.94 173.04Z" fill="white" fill-opacity="0.5"/>
<path d="M1741.33 173.04L1741.33 174.009L1745.68 174.016L1745.69 179.451L1746.46 179.452L1746.46 174.017L1750.82 174.024L1750.82 173.055L1746.46 173.048L1746.45 167.65L1745.67 167.649L1745.68 173.047L1741.33 173.04Z" fill="white" fill-opacity="0.5"/>
<path d="M170.188 417.19L170.189 418.159L174.531 418.165L174.541 423.6L175.312 423.602L175.311 418.166L179.678 418.173L179.677 417.204L175.31 417.198L175.304 411.8L174.525 411.799L174.53 417.196L170.188 417.19Z" fill="white" fill-opacity="0.5"/>
<path d="M366.581 417.19L366.582 418.159L370.924 418.165L370.934 423.6L371.705 423.602L371.704 418.166L376.071 418.173L376.07 417.204L371.703 417.198L371.697 411.8L370.918 411.799L370.923 417.196L366.581 417.19Z" fill="white" fill-opacity="0.5"/>
<path d="M562.974 417.19L562.975 418.159L567.317 418.165L567.327 423.6L568.097 423.602L568.096 418.166L572.464 418.173L572.463 417.204L568.095 417.198L568.09 411.8L567.31 411.799L567.316 417.196L562.974 417.19Z" fill="white" fill-opacity="0.5"/>
<path d="M759.368 417.19L759.369 418.159L763.711 418.165L763.721 423.6L764.491 423.602L764.49 418.166L768.858 418.173L768.857 417.204L764.489 417.198L764.484 411.8L763.704 411.799L763.71 417.196L759.368 417.19Z" fill="white" fill-opacity="0.5"/>
<path d="M955.761 417.19L955.762 418.159L960.104 418.165L960.114 423.6L960.884 423.602L960.883 418.166L965.251 418.173L965.25 417.204L960.882 417.198L960.877 411.8L960.098 411.799L960.103 417.196L955.761 417.19Z" fill="white" fill-opacity="0.5"/>
<path d="M1152.15 417.19L1152.15 418.159L1156.5 418.165L1156.51 423.6L1157.28 423.602L1157.28 418.166L1161.64 418.173L1161.64 417.204L1157.27 417.198L1157.27 411.8L1156.49 411.799L1156.5 417.196L1152.15 417.19Z" fill="white" fill-opacity="0.5"/>
<path d="M1348.55 417.19L1348.55 418.159L1352.89 418.165L1352.9 423.6L1353.67 423.602L1353.67 418.166L1358.04 418.173L1358.04 417.204L1353.67 417.198L1353.66 411.8L1352.88 411.799L1352.89 417.196L1348.55 417.19Z" fill="white" fill-opacity="0.5"/>
<path d="M1544.94 417.19L1544.94 418.159L1549.28 418.165L1549.29 423.6L1550.06 423.602L1550.06 418.166L1554.43 418.173L1554.43 417.204L1550.06 417.198L1550.06 411.8L1549.28 411.799L1549.28 417.196L1544.94 417.19Z" fill="white" fill-opacity="0.5"/>
<path d="M1741.33 417.19L1741.33 418.159L1745.68 418.165L1745.69 423.6L1746.46 423.602L1746.46 418.166L1750.82 418.173L1750.82 417.204L1746.46 417.198L1746.45 411.8L1745.67 411.799L1745.68 417.196L1741.33 417.19Z" fill="white" fill-opacity="0.5"/>
<path d="M170.188 661.34L170.189 662.309L174.531 662.316L174.541 667.751L175.312 667.752L175.311 662.317L179.678 662.324L179.677 661.355L175.31 661.348L175.304 655.95L174.525 655.949L174.53 661.347L170.188 661.34Z" fill="white" fill-opacity="0.5"/>
<path d="M366.581 661.34L366.582 662.309L370.924 662.316L370.934 667.751L371.705 667.752L371.704 662.317L376.071 662.324L376.07 661.355L371.703 661.348L371.697 655.95L370.918 655.949L370.923 661.347L366.581 661.34Z" fill="white" fill-opacity="0.5"/>
<path d="M562.974 661.34L562.975 662.309L567.317 662.316L567.327 667.751L568.097 667.752L568.096 662.317L572.464 662.324L572.463 661.355L568.095 661.348L568.09 655.95L567.31 655.949L567.316 661.347L562.974 661.34Z" fill="white" fill-opacity="0.5"/>
<path d="M759.368 661.34L759.369 662.309L763.711 662.316L763.721 667.751L764.491 667.752L764.49 662.317L768.858 662.324L768.857 661.355L764.489 661.348L764.484 655.95L763.704 655.949L763.71 661.347L759.368 661.34Z" fill="white" fill-opacity="0.5"/>
<path d="M955.761 661.34L955.762 662.309L960.104 662.316L960.114 667.751L960.884 667.752L960.883 662.317L965.251 662.324L965.25 661.355L960.882 661.348L960.877 655.95L960.098 655.949L960.103 661.347L955.761 661.34Z" fill="white" fill-opacity="0.5"/>
<path d="M1152.15 661.34L1152.15 662.309L1156.5 662.316L1156.51 667.751L1157.28 667.752L1157.28 662.317L1161.64 662.324L1161.64 661.355L1157.27 661.348L1157.27 655.95L1156.49 655.949L1156.5 661.347L1152.15 661.34Z" fill="white" fill-opacity="0.5"/>
<path d="M1348.55 661.34L1348.55 662.309L1352.89 662.316L1352.9 667.751L1353.67 667.752L1353.67 662.317L1358.04 662.324L1358.04 661.355L1353.67 661.348L1353.66 655.95L1352.88 655.949L1352.89 661.347L1348.55 661.34Z" fill="white" fill-opacity="0.5"/>
<path d="M1544.94 661.34L1544.94 662.309L1549.28 662.316L1549.29 667.751L1550.06 667.752L1550.06 662.317L1554.43 662.324L1554.43 661.355L1550.06 661.348L1550.06 655.95L1549.28 655.949L1549.28 661.347L1544.94 661.34Z" fill="white" fill-opacity="0.5"/>
<path d="M1741.33 661.34L1741.33 662.309L1745.68 662.316L1745.69 667.751L1746.46 667.752L1746.46 662.317L1750.82 662.324L1750.82 661.355L1746.46 661.348L1746.45 655.95L1745.67 655.949L1745.68 661.347L1741.33 661.34Z" fill="white" fill-opacity="0.5"/>
<path d="M170.188 905.487L170.189 906.455L174.531 906.462L174.541 911.897L175.312 911.899L175.311 906.463L179.678 906.47L179.677 905.501L175.31 905.495L175.304 900.097L174.525 900.095L174.53 905.493L170.188 905.487Z" fill="white" fill-opacity="0.5"/>
<path d="M366.581 905.487L366.582 906.455L370.924 906.462L370.934 911.897L371.705 911.899L371.704 906.463L376.071 906.47L376.07 905.501L371.703 905.495L371.697 900.097L370.918 900.095L370.923 905.493L366.581 905.487Z" fill="white" fill-opacity="0.5"/>
<path d="M562.974 905.487L562.975 906.455L567.317 906.462L567.327 911.897L568.097 911.899L568.096 906.463L572.464 906.47L572.463 905.501L568.095 905.495L568.09 900.097L567.31 900.095L567.316 905.493L562.974 905.487Z" fill="white" fill-opacity="0.5"/>
<path d="M759.368 905.487L759.369 906.455L763.711 906.462L763.721 911.897L764.491 911.899L764.49 906.463L768.858 906.47L768.857 905.501L764.489 905.495L764.484 900.097L763.704 900.095L763.71 905.493L759.368 905.487Z" fill="white" fill-opacity="0.5"/>
<path d="M955.761 905.487L955.762 906.455L960.104 906.462L960.114 911.897L960.884 911.899L960.883 906.463L965.251 906.47L965.25 905.501L960.882 905.495L960.877 900.097L960.098 900.095L960.103 905.493L955.761 905.487Z" fill="white" fill-opacity="0.5"/>
<path d="M1152.15 905.487L1152.15 906.455L1156.5 906.462L1156.51 911.897L1157.28 911.899L1157.28 906.463L1161.64 906.47L1161.64 905.501L1157.27 905.495L1157.27 900.097L1156.49 900.095L1156.5 905.493L1152.15 905.487Z" fill="white" fill-opacity="0.5"/>
<path d="M1348.55 905.487L1348.55 906.455L1352.89 906.462L1352.9 911.897L1353.67 911.899L1353.67 906.463L1358.04 906.47L1358.04 905.501L1353.67 905.495L1353.66 900.097L1352.88 900.095L1352.89 905.493L1348.55 905.487Z" fill="white" fill-opacity="0.5"/>
<path d="M1544.94 905.487L1544.94 906.455L1549.28 906.462L1549.29 911.897L1550.06 911.899L1550.06 906.463L1554.43 906.47L1554.43 905.501L1550.06 905.495L1550.06 900.097L1549.28 900.095L1549.28 905.493L1544.94 905.487Z" fill="white" fill-opacity="0.5"/>
<path d="M1741.33 905.487L1741.33 906.455L1745.68 906.462L1745.69 911.897L1746.46 911.899L1746.46 906.463L1750.82 906.47L1750.82 905.501L1746.46 905.495L1746.45 900.097L1745.67 900.095L1745.68 905.493L1741.33 905.487Z" fill="white" fill-opacity="0.5"/>
</svg>
