<svg xmlns="http://www.w3.org/2000/svg" width="1920" height="1080" fill="none" viewBox="0 0 1920 1080"><g clip-path="url(#clip0_1125_2371)" opacity=".4"><path stroke="#fff" stroke-opacity=".15" d="M10.5 0V1080"/><path stroke="#fff" stroke-opacity=".15" d="M20.5 0V1080"/><path stroke="#fff" stroke-opacity=".15" d="M30.5 0V1080"/><path stroke="#fff" stroke-opacity=".15" d="M40.5 0V1080"/><path stroke="#fff" stroke-opacity=".15" d="M50.5 0V1080"/><path stroke="#fff" stroke-opacity=".15" d="M60.5 0V1080"/><path stroke="#fff" stroke-opacity=".15" d="M70.5 0V1080"/><path stroke="#fff" stroke-opacity=".15" d="M80.5 0V1080"/><path stroke="#fff" stroke-opacity=".15" d="M90.5 0V1080"/><path stroke="#fff" stroke-opacity=".15" d="M100.5 0V1080"/><path stroke="#fff" stroke-opacity=".15" d="M110.5 0V1080"/><path stroke="#fff" stroke-opacity=".15" d="M120.5 0V1080"/><path stroke="#fff" stroke-opacity=".15" d="M130.5 0V1080"/><path stroke="#fff" stroke-opacity=".15" d="M140.5 0V1080"/><path stroke="#fff" stroke-opacity=".15" d="M150.5 0V1080"/><path stroke="#fff" stroke-opacity=".15" d="M160.5 0V1080"/><path stroke="#fff" stroke-opacity=".15" d="M170.5 0V1080"/><path stroke="#fff" stroke-opacity=".15" d="M180.5 0V1080"/><path stroke="#fff" stroke-opacity=".15" d="M190.5 0V1080"/><path stroke="#fff" stroke-opacity=".15" d="M200.5 0V1080"/><path stroke="#fff" stroke-opacity=".15" d="M210.5 0V1080"/><path stroke="#fff" stroke-opacity=".15" d="M220.5 0V1080"/><path stroke="#fff" stroke-opacity=".15" d="M230.5 0V1080"/><path stroke="#fff" stroke-opacity=".15" d="M240.5 0V1080"/><path stroke="#fff" stroke-opacity=".15" d="M250.5 0V1080"/><path stroke="#fff" stroke-opacity=".15" d="M260.5 0V1080"/><path stroke="#fff" stroke-opacity=".15" d="M270.5 0V1080"/><path stroke="#fff" stroke-opacity=".15" d="M280.5 0V1080"/><path stroke="#fff" stroke-opacity=".15" d="M290.5 0V1080"/><path stroke="#fff" stroke-opacity=".15" d="M300.5 0V1080"/><path stroke="#fff" stroke-opacity=".15" d="M310.5 0V1080"/><path stroke="#fff" stroke-opacity=".15" d="M320.5 0V1080"/><path stroke="#fff" stroke-opacity=".15" d="M330.5 0V1080"/><path stroke="#fff" stroke-opacity=".15" d="M340.5 0V1080"/><path stroke="#fff" stroke-opacity=".15" d="M350.5 0V1080"/><path stroke="#fff" stroke-opacity=".15" d="M360.5 0V1080"/><path stroke="#fff" stroke-opacity=".15" d="M370.5 0V1080"/><path stroke="#fff" stroke-opacity=".15" d="M380.5 0V1080"/><path stroke="#fff" stroke-opacity=".15" d="M390.5 0V1080"/><path stroke="#fff" stroke-opacity=".15" d="M400.5 0V1080"/><path stroke="#fff" stroke-opacity=".15" d="M410.5 0V1080"/><path stroke="#fff" stroke-opacity=".15" d="M420.5 0V1080"/><path stroke="#fff" stroke-opacity=".15" d="M430.5 0V1080"/><path stroke="#fff" stroke-opacity=".15" d="M440.5 0V1080"/><path stroke="#fff" stroke-opacity=".15" d="M450.5 0V1080"/><path stroke="#fff" stroke-opacity=".15" d="M460.5 0V1080"/><path stroke="#fff" stroke-opacity=".15" d="M470.5 0V1080"/><path stroke="#fff" stroke-opacity=".15" d="M480.5 0V1080"/><path stroke="#fff" stroke-opacity=".15" d="M490.5 0V1080"/><path stroke="#fff" stroke-opacity=".15" d="M500.5 0V1080"/><path stroke="#fff" stroke-opacity=".15" d="M510.5 0V1080"/><path stroke="#fff" stroke-opacity=".15" d="M520.5 0V1080"/><path stroke="#fff" stroke-opacity=".15" d="M530.5 0V1080"/><path stroke="#fff" stroke-opacity=".15" d="M540.5 0V1080"/><path stroke="#fff" stroke-opacity=".15" d="M550.5 0V1080"/><path stroke="#fff" stroke-opacity=".15" d="M560.5 0V1080"/><path stroke="#fff" stroke-opacity=".15" d="M570.5 0V1080"/><path stroke="#fff" stroke-opacity=".15" d="M580.5 0V1080"/><path stroke="#fff" stroke-opacity=".15" d="M590.5 0V1080"/><path stroke="#fff" stroke-opacity=".15" d="M600.5 0V1080"/><path stroke="#fff" stroke-opacity=".15" d="M610.5 0V1080"/><path stroke="#fff" stroke-opacity=".15" d="M620.5 0V1080"/><path stroke="#fff" stroke-opacity=".15" d="M630.5 0V1080"/><path stroke="#fff" stroke-opacity=".15" d="M640.5 0V1080"/><path stroke="#fff" stroke-opacity=".15" d="M650.5 0V1080"/><path stroke="#fff" stroke-opacity=".15" d="M660.5 0V1080"/><path stroke="#fff" stroke-opacity=".15" d="M670.5 0V1080"/><path stroke="#fff" stroke-opacity=".15" d="M680.5 0V1080"/><path stroke="#fff" stroke-opacity=".15" d="M690.5 0V1080"/><path stroke="#fff" stroke-opacity=".15" d="M700.5 0V1080"/><path stroke="#fff" stroke-opacity=".15" d="M710.5 0V1080"/><path stroke="#fff" stroke-opacity=".15" d="M720.5 0V1080"/><path stroke="#fff" stroke-opacity=".15" d="M730.5 0V1080"/><path stroke="#fff" stroke-opacity=".15" d="M740.5 0V1080"/><path stroke="#fff" stroke-opacity=".15" d="M750.5 0V1080"/><path stroke="#fff" stroke-opacity=".15" d="M760.5 0V1080"/><path stroke="#fff" stroke-opacity=".15" d="M770.5 0V1080"/><path stroke="#fff" stroke-opacity=".15" d="M780.5 0V1080"/><path stroke="#fff" stroke-opacity=".15" d="M790.5 0V1080"/><path stroke="#fff" stroke-opacity=".15" d="M800.5 0V1080"/><path stroke="#fff" stroke-opacity=".15" d="M810.5 0V1080"/><path stroke="#fff" stroke-opacity=".15" d="M820.5 0V1080"/><path stroke="#fff" stroke-opacity=".15" d="M830.5 0V1080"/><path stroke="#fff" stroke-opacity=".15" d="M840.5 0V1080"/><path stroke="#fff" stroke-opacity=".15" d="M850.5 0V1080"/><path stroke="#fff" stroke-opacity=".15" d="M860.5 0V1080"/><path stroke="#fff" stroke-opacity=".15" d="M870.5 0V1080"/><path stroke="#fff" stroke-opacity=".15" d="M880.5 0V1080"/><path stroke="#fff" stroke-opacity=".15" d="M890.5 0V1080"/><path stroke="#fff" stroke-opacity=".15" d="M900.5 0V1080"/><path stroke="#fff" stroke-opacity=".15" d="M910.5 0V1080"/><path stroke="#fff" stroke-opacity=".15" d="M920.5 0V1080"/><path stroke="#fff" stroke-opacity=".15" d="M930.5 0V1080"/><path stroke="#fff" stroke-opacity=".15" d="M940.5 0V1080"/><path stroke="#fff" stroke-opacity=".15" d="M950.5 0V1080"/><path stroke="#fff" stroke-opacity=".15" d="M960.5 0V1080"/><path stroke="#fff" stroke-opacity=".15" d="M970.5 0V1080"/><path stroke="#fff" stroke-opacity=".15" d="M980.5 0V1080"/><path stroke="#fff" stroke-opacity=".15" d="M990.5 0V1080"/><path stroke="#fff" stroke-opacity=".15" d="M1000.5 0V1080"/><path stroke="#fff" stroke-opacity=".15" d="M1010.5 0V1080"/><path stroke="#fff" stroke-opacity=".15" d="M1020.5 0V1080"/><path stroke="#fff" stroke-opacity=".15" d="M1030.5 0V1080"/><path stroke="#fff" stroke-opacity=".15" d="M1040.5 0V1080"/><path stroke="#fff" stroke-opacity=".15" d="M1050.5 0V1080"/><path stroke="#fff" stroke-opacity=".15" d="M1060.5 0V1080"/><path stroke="#fff" stroke-opacity=".15" d="M1070.5 0V1080"/><path stroke="#fff" stroke-opacity=".15" d="M1080.5 0V1080"/><path stroke="#fff" stroke-opacity=".15" d="M1090.5 0V1080"/><path stroke="#fff" stroke-opacity=".15" d="M1100.5 0V1080"/><path stroke="#fff" stroke-opacity=".15" d="M1110.5 0V1080"/><path stroke="#fff" stroke-opacity=".15" d="M1120.5 0V1080"/><path stroke="#fff" stroke-opacity=".15" d="M1130.5 0V1080"/><path stroke="#fff" stroke-opacity=".15" d="M1140.5 0V1080"/><path stroke="#fff" stroke-opacity=".15" d="M1150.5 0V1080"/><path stroke="#fff" stroke-opacity=".15" d="M1160.5 0V1080"/><path stroke="#fff" stroke-opacity=".15" d="M1170.5 0V1080"/><path stroke="#fff" stroke-opacity=".15" d="M1180.5 0V1080"/><path stroke="#fff" stroke-opacity=".15" d="M1190.5 0V1080"/><path stroke="#fff" stroke-opacity=".15" d="M1200.5 0V1080"/><path stroke="#fff" stroke-opacity=".15" d="M1210.5 0V1080"/><path stroke="#fff" stroke-opacity=".15" d="M1220.5 0V1080"/><path stroke="#fff" stroke-opacity=".15" d="M1230.5 0V1080"/><path stroke="#fff" stroke-opacity=".15" d="M1240.5 0V1080"/><path stroke="#fff" stroke-opacity=".15" d="M1250.5 0V1080"/><path stroke="#fff" stroke-opacity=".15" d="M1260.5 0V1080"/><path stroke="#fff" stroke-opacity=".15" d="M1270.5 0V1080"/><path stroke="#fff" stroke-opacity=".15" d="M1280.5 0V1080"/><path stroke="#fff" stroke-opacity=".15" d="M1290.5 0V1080"/><path stroke="#fff" stroke-opacity=".15" d="M1300.5 0V1080"/><path stroke="#fff" stroke-opacity=".15" d="M1310.5 0V1080"/><path stroke="#fff" stroke-opacity=".15" d="M1320.5 0V1080"/><path stroke="#fff" stroke-opacity=".15" d="M1330.5 0V1080"/><path stroke="#fff" stroke-opacity=".15" d="M1340.5 0V1080"/><path stroke="#fff" stroke-opacity=".15" d="M1350.5 0V1080"/><path stroke="#fff" stroke-opacity=".15" d="M1360.5 0V1080"/><path stroke="#fff" stroke-opacity=".15" d="M1370.5 0V1080"/><path stroke="#fff" stroke-opacity=".15" d="M1380.5 0V1080"/><path stroke="#fff" stroke-opacity=".15" d="M1390.5 0V1080"/><path stroke="#fff" stroke-opacity=".15" d="M1400.5 0V1080"/><path stroke="#fff" stroke-opacity=".15" d="M1410.5 0V1080"/><path stroke="#fff" stroke-opacity=".15" d="M1420.5 0V1080"/><path stroke="#fff" stroke-opacity=".15" d="M1430.5 0V1080"/><path stroke="#fff" stroke-opacity=".15" d="M1440.5 0V1080"/><path stroke="#fff" stroke-opacity=".15" d="M1450.5 0V1080"/><path stroke="#fff" stroke-opacity=".15" d="M1460.5 0V1080"/><path stroke="#fff" stroke-opacity=".15" d="M1470.5 0V1080"/><path stroke="#fff" stroke-opacity=".15" d="M1480.5 0V1080"/><path stroke="#fff" stroke-opacity=".15" d="M1490.5 0V1080"/><path stroke="#fff" stroke-opacity=".15" d="M1500.5 0V1080"/><path stroke="#fff" stroke-opacity=".15" d="M1510.5 0V1080"/><path stroke="#fff" stroke-opacity=".15" d="M1520.5 0V1080"/><path stroke="#fff" stroke-opacity=".15" d="M1530.5 0V1080"/><path stroke="#fff" stroke-opacity=".15" d="M1540.5 0V1080"/><path stroke="#fff" stroke-opacity=".15" d="M1550.5 0V1080"/><path stroke="#fff" stroke-opacity=".15" d="M1560.5 0V1080"/><path stroke="#fff" stroke-opacity=".15" d="M1570.5 0V1080"/><path stroke="#fff" stroke-opacity=".15" d="M1580.5 0V1080"/><path stroke="#fff" stroke-opacity=".15" d="M1590.5 0V1080"/><path stroke="#fff" stroke-opacity=".15" d="M1600.5 0V1080"/><path stroke="#fff" stroke-opacity=".15" d="M1610.5 0V1080"/><path stroke="#fff" stroke-opacity=".15" d="M1620.5 0V1080"/><path stroke="#fff" stroke-opacity=".15" d="M1630.5 0V1080"/><path stroke="#fff" stroke-opacity=".15" d="M1640.5 0V1080"/><path stroke="#fff" stroke-opacity=".15" d="M1650.5 0V1080"/><path stroke="#fff" stroke-opacity=".15" d="M1660.5 0V1080"/><path stroke="#fff" stroke-opacity=".15" d="M1670.5 0V1080"/><path stroke="#fff" stroke-opacity=".15" d="M1680.5 0V1080"/><path stroke="#fff" stroke-opacity=".15" d="M1690.5 0V1080"/><path stroke="#fff" stroke-opacity=".15" d="M1700.5 0V1080"/><path stroke="#fff" stroke-opacity=".15" d="M1710.5 0V1080"/><path stroke="#fff" stroke-opacity=".15" d="M1720.5 0V1080"/><path stroke="#fff" stroke-opacity=".15" d="M1730.5 0V1080"/><path stroke="#fff" stroke-opacity=".15" d="M1740.5 0V1080"/><path stroke="#fff" stroke-opacity=".15" d="M1750.5 0V1080"/><path stroke="#fff" stroke-opacity=".15" d="M1760.5 0V1080"/><path stroke="#fff" stroke-opacity=".15" d="M1770.5 0V1080"/><path stroke="#fff" stroke-opacity=".15" d="M1780.5 0V1080"/><path stroke="#fff" stroke-opacity=".15" d="M1790.5 0V1080"/><path stroke="#fff" stroke-opacity=".15" d="M1800.5 0V1080"/><path stroke="#fff" stroke-opacity=".15" d="M1810.5 0V1080"/><path stroke="#fff" stroke-opacity=".15" d="M1820.5 0V1080"/><path stroke="#fff" stroke-opacity=".15" d="M1830.5 0V1080"/><path stroke="#fff" stroke-opacity=".15" d="M1840.5 0V1080"/><path stroke="#fff" stroke-opacity=".15" d="M1850.5 0V1080"/><path stroke="#fff" stroke-opacity=".15" d="M1860.5 0V1080"/><path stroke="#fff" stroke-opacity=".15" d="M1870.5 0V1080"/><path stroke="#fff" stroke-opacity=".15" d="M1880.5 0V1080"/><path stroke="#fff" stroke-opacity=".15" d="M1890.5 0V1080"/><path stroke="#fff" stroke-opacity=".15" d="M1900.5 0V1080"/><path stroke="#fff" stroke-opacity=".15" d="M1910.5 0V1080"/><path stroke="#fff" stroke-opacity=".15" d="M0 9.5H1920"/><path stroke="#fff" stroke-opacity=".15" d="M0 19.5H1920"/><path stroke="#fff" stroke-opacity=".15" d="M0 29.5H1920"/><path stroke="#fff" stroke-opacity=".15" d="M0 39.5H1920"/><path stroke="#fff" stroke-opacity=".15" d="M0 49.5H1920"/><path stroke="#fff" stroke-opacity=".15" d="M0 59.5H1920"/><path stroke="#fff" stroke-opacity=".15" d="M0 69.5H1920"/><path stroke="#fff" stroke-opacity=".15" d="M0 79.5H1920"/><path stroke="#fff" stroke-opacity=".15" d="M0 89.5H1920"/><path stroke="#fff" stroke-opacity=".15" d="M0 99.5H1920"/><path stroke="#fff" stroke-opacity=".15" d="M0 109.5H1920"/><path stroke="#fff" stroke-opacity=".15" d="M0 119.5H1920"/><path stroke="#fff" stroke-opacity=".15" d="M0 129.5H1920"/><path stroke="#fff" stroke-opacity=".15" d="M0 139.5H1920"/><path stroke="#fff" stroke-opacity=".15" d="M0 149.5H1920"/><path stroke="#fff" stroke-opacity=".15" d="M0 159.5H1920"/><path stroke="#fff" stroke-opacity=".15" d="M0 169.5H1920"/><path stroke="#fff" stroke-opacity=".15" d="M0 179.5H1920"/><path stroke="#fff" stroke-opacity=".15" d="M0 189.5H1920"/><path stroke="#fff" stroke-opacity=".15" d="M0 199.5H1920"/><path stroke="#fff" stroke-opacity=".15" d="M0 209.5H1920"/><path stroke="#fff" stroke-opacity=".15" d="M0 219.5H1920"/><path stroke="#fff" stroke-opacity=".15" d="M0 229.5H1920"/><path stroke="#fff" stroke-opacity=".15" d="M0 239.5H1920"/><path stroke="#fff" stroke-opacity=".15" d="M0 249.5H1920"/><path stroke="#fff" stroke-opacity=".15" d="M0 259.5H1920"/><path stroke="#fff" stroke-opacity=".15" d="M0 269.5H1920"/><path stroke="#fff" stroke-opacity=".15" d="M0 279.5H1920"/><path stroke="#fff" stroke-opacity=".15" d="M0 289.5H1920"/><path stroke="#fff" stroke-opacity=".15" d="M0 299.5H1920"/><path stroke="#fff" stroke-opacity=".15" d="M0 309.5H1920"/><path stroke="#fff" stroke-opacity=".15" d="M0 319.5H1920"/><path stroke="#fff" stroke-opacity=".15" d="M0 329.5H1920"/><path stroke="#fff" stroke-opacity=".15" d="M0 339.5H1920"/><path stroke="#fff" stroke-opacity=".15" d="M0 349.5H1920"/><path stroke="#fff" stroke-opacity=".15" d="M0 359.5H1920"/><path stroke="#fff" stroke-opacity=".15" d="M0 369.5H1920"/><path stroke="#fff" stroke-opacity=".15" d="M0 379.5H1920"/><path stroke="#fff" stroke-opacity=".15" d="M0 389.5H1920"/><path stroke="#fff" stroke-opacity=".15" d="M0 399.5H1920"/><path stroke="#fff" stroke-opacity=".15" d="M0 409.5H1920"/><path stroke="#fff" stroke-opacity=".15" d="M0 419.5H1920"/><path stroke="#fff" stroke-opacity=".15" d="M0 429.5H1920"/><path stroke="#fff" stroke-opacity=".15" d="M0 439.5H1920"/><path stroke="#fff" stroke-opacity=".15" d="M0 449.5H1920"/><path stroke="#fff" stroke-opacity=".15" d="M0 459.5H1920"/><path stroke="#fff" stroke-opacity=".15" d="M0 469.5H1920"/><path stroke="#fff" stroke-opacity=".15" d="M0 479.5H1920"/><path stroke="#fff" stroke-opacity=".15" d="M0 489.5H1920"/><path stroke="#fff" stroke-opacity=".15" d="M0 499.5H1920"/><path stroke="#fff" stroke-opacity=".15" d="M0 509.5H1920"/><path stroke="#fff" stroke-opacity=".15" d="M0 519.5H1920"/><path stroke="#fff" stroke-opacity=".15" d="M0 529.5H1920"/><path stroke="#fff" stroke-opacity=".15" d="M0 539.5H1920"/><path stroke="#fff" stroke-opacity=".15" d="M0 549.5H1920"/><path stroke="#fff" stroke-opacity=".15" d="M0 559.5H1920"/><path stroke="#fff" stroke-opacity=".15" d="M0 569.5H1920"/><path stroke="#fff" stroke-opacity=".15" d="M0 579.5H1920"/><path stroke="#fff" stroke-opacity=".15" d="M0 589.5H1920"/><path stroke="#fff" stroke-opacity=".15" d="M0 599.5H1920"/><path stroke="#fff" stroke-opacity=".15" d="M0 609.5H1920"/><path stroke="#fff" stroke-opacity=".15" d="M0 619.5H1920"/><path stroke="#fff" stroke-opacity=".15" d="M0 629.5H1920"/><path stroke="#fff" stroke-opacity=".15" d="M0 639.5H1920"/><path stroke="#fff" stroke-opacity=".15" d="M0 649.5H1920"/><path stroke="#fff" stroke-opacity=".15" d="M0 659.5H1920"/><path stroke="#fff" stroke-opacity=".15" d="M0 669.5H1920"/><path stroke="#fff" stroke-opacity=".15" d="M0 679.5H1920"/><path stroke="#fff" stroke-opacity=".15" d="M0 689.5H1920"/><path stroke="#fff" stroke-opacity=".15" d="M0 699.5H1920"/><path stroke="#fff" stroke-opacity=".15" d="M0 709.5H1920"/><path stroke="#fff" stroke-opacity=".15" d="M0 719.5H1920"/><path stroke="#fff" stroke-opacity=".15" d="M0 729.5H1920"/><path stroke="#fff" stroke-opacity=".15" d="M0 739.5H1920"/><path stroke="#fff" stroke-opacity=".15" d="M0 749.5H1920"/><path stroke="#fff" stroke-opacity=".15" d="M0 759.5H1920"/><path stroke="#fff" stroke-opacity=".15" d="M0 769.5H1920"/><path stroke="#fff" stroke-opacity=".15" d="M0 779.5H1920"/><path stroke="#fff" stroke-opacity=".15" d="M0 789.5H1920"/><path stroke="#fff" stroke-opacity=".15" d="M0 799.5H1920"/><path stroke="#fff" stroke-opacity=".15" d="M0 809.5H1920"/><path stroke="#fff" stroke-opacity=".15" d="M0 819.5H1920"/><path stroke="#fff" stroke-opacity=".15" d="M0 829.5H1920"/><path stroke="#fff" stroke-opacity=".15" d="M0 839.5H1920"/><path stroke="#fff" stroke-opacity=".15" d="M0 849.5H1920"/><path stroke="#fff" stroke-opacity=".15" d="M0 859.5H1920"/><path stroke="#fff" stroke-opacity=".15" d="M0 869.5H1920"/><path stroke="#fff" stroke-opacity=".15" d="M0 879.5H1920"/><path stroke="#fff" stroke-opacity=".15" d="M0 889.5H1920"/><path stroke="#fff" stroke-opacity=".15" d="M0 899.5H1920"/><path stroke="#fff" stroke-opacity=".15" d="M0 909.5H1920"/><path stroke="#fff" stroke-opacity=".15" d="M0 919.5H1920"/><path stroke="#fff" stroke-opacity=".15" d="M0 929.5H1920"/><path stroke="#fff" stroke-opacity=".15" d="M0 939.5H1920"/><path stroke="#fff" stroke-opacity=".15" d="M0 949.5H1920"/><path stroke="#fff" stroke-opacity=".15" d="M0 959.5H1920"/><path stroke="#fff" stroke-opacity=".15" d="M0 969.5H1920"/><path stroke="#fff" stroke-opacity=".15" d="M0 979.5H1920"/><path stroke="#fff" stroke-opacity=".15" d="M0 989.5H1920"/><path stroke="#fff" stroke-opacity=".15" d="M0 999.5H1920"/><path stroke="#fff" stroke-opacity=".15" d="M0 1009.5H1920"/><path stroke="#fff" stroke-opacity=".15" d="M0 1019.5H1920"/><path stroke="#fff" stroke-opacity=".15" d="M0 1029.5H1920"/><path stroke="#fff" stroke-opacity=".15" d="M0 1039.5H1920"/><path stroke="#fff" stroke-opacity=".15" d="M0 1049.5H1920"/><path stroke="#fff" stroke-opacity=".15" d="M0 1059.5H1920"/><path stroke="#fff" stroke-opacity=".15" d="M0 1069.5H1920"/></g><defs><clipPath id="clip0_1125_2371"><rect width="1920" height="1080" fill="#fff"/></clipPath></defs></svg>