<svg width="77" height="40" viewBox="0 0 77 40" fill="none" xmlns="http://www.w3.org/2000/svg">
<path d="M13.5325 11.2942C12.2455 11.2952 10.7812 12.1364 9.13973 13.8179C8.00332 14.9644 7.11904 16.4416 6.48689 18.2497C5.90528 19.956 5.61387 21.6874 5.61265 23.4442C5.61131 25.3791 6.02664 26.9064 6.85865 28.0261C7.53935 28.9931 8.35918 29.4762 9.31815 29.4756C9.97428 29.4751 10.5044 29.1692 10.9086 28.5579L12.422 29.6643C11.6394 30.0977 10.7182 30.3148 9.65825 30.3155C7.74032 30.3168 5.92394 29.4398 4.20911 27.6842C2.36818 25.827 1.44855 23.689 1.45023 21.2703C1.45277 17.6041 2.85565 14.306 5.65887 11.3762L5.65892 11.2998L0.0943938 11.3037L0.0953996 9.85247L13.5335 9.84303L13.5325 11.2942Z" fill="#E0D2BE"/>
<path d="M26.1652 26.4849L26.1757 11.2854L14.3275 11.2937C14.3272 11.7265 15.084 12.1206 16.5979 12.476C18.7173 12.9837 20.105 13.4028 20.7609 13.7333C22.2746 14.4451 23.031 15.4503 23.0301 16.7487C23.029 18.3527 22.2584 19.6771 20.7182 20.7221C22.8374 21.739 24.6404 23.6599 26.1274 26.485L26.1652 26.4849ZM15.5312 22.2151C16.3138 21.8327 17.2478 21.4883 18.3331 21.182C19.7214 20.6973 20.4158 20.1749 20.4162 19.6148C20.4167 18.8765 19.7231 18.2532 18.3355 17.745C17.074 17.3385 15.7999 16.932 14.5131 16.5256C13.1255 15.9664 12.432 15.254 12.4326 14.3884C12.433 13.8028 12.8501 12.7714 13.6839 11.2941L11.7913 11.2955L11.7923 9.84425L29.1672 9.83205L29.1662 11.2833L27.6142 11.2844L27.6005 31.0667L27.0331 30.4561C26.7317 28.394 25.345 26.5873 22.8729 25.036C21.0819 23.9425 19.2276 23.2437 17.3099 22.9395C17.1079 23.016 16.9312 23.1307 16.7797 23.2836C16.4261 23.6657 16.2491 24.1496 16.2487 24.7352C16.2483 25.3462 16.475 25.9189 16.9289 26.4532C17.408 27.0385 18.0386 27.4072 18.8208 27.5594L15.4501 30.0441C14.1134 28.8739 13.4456 27.4613 13.4468 25.8064C13.4476 24.6353 13.8647 23.6548 14.698 22.8649C14.9505 22.6102 15.2283 22.3936 15.5312 22.2151Z" fill="#E0D2BE"/>
<path d="M33.5573 11.2802L32.4216 11.281L32.4085 30.2231L32.2192 30.2233C32.0426 30.2234 31.7904 30.0454 31.4625 29.6891C31.1347 29.3329 30.9709 28.9766 30.9712 28.6202L30.9832 11.282L29.0526 11.2833L29.0536 9.83213L31.4006 9.83048C31.4512 9.62677 31.4766 9.46126 31.4766 9.33396C31.477 8.82476 31.1744 8.41762 30.569 8.11252C29.9888 7.78195 29.2066 7.61701 28.2224 7.6177C27.8439 7.61797 27.1498 7.66938 26.1403 7.77192C25.1308 7.84901 24.4116 7.88771 23.9826 7.88801C22.4936 7.88906 21.0935 7.29173 19.782 6.09604C18.4454 4.90036 17.3487 3.24624 16.4922 1.13367L17.136 0.713131C17.6397 2.18945 18.2951 3.19466 19.1023 3.72875C19.8338 4.23743 20.944 4.49125 22.4329 4.4902C22.9124 4.48987 23.455 4.4513 24.0607 4.37449C24.6412 4.27224 25.045 4.22104 25.2721 4.22088C27.1901 4.21953 28.7796 4.71488 30.0407 5.70693C31.3271 6.69897 32.0958 8.07326 32.3469 9.82982L33.5583 9.82896L33.5573 11.2802Z" fill="#E0D2BE"/>
<path d="M54.9447 11.2652L53.2413 11.2664L53.2282 30.2085L53.0389 30.2087C52.8622 30.2088 52.61 30.0307 52.2822 29.6745C51.9544 29.3183 51.7906 28.962 51.7908 28.6056L51.7954 22.0369C51.4426 21.2988 50.9634 20.93 50.3577 20.9304C49.9035 20.9307 48.2372 21.9503 45.3589 23.9891C42.4806 26.0025 40.461 27.0095 39.3001 27.0104C38.3664 27.011 36.6895 25.2045 34.2693 21.5909L34.8753 21.1704C35.3543 21.9084 35.6946 22.3665 35.8964 22.5445C36.2242 22.9007 36.59 23.0787 36.9938 23.0784C37.7004 23.0779 39.3792 22.122 42.0303 20.2106C42.1569 19.5995 41.6022 18.9634 40.3661 18.3023C39.1552 17.7431 37.9442 17.1711 36.7333 16.5863C35.4215 15.8489 34.7659 15.0856 34.7665 14.2963C34.7669 13.7362 35.2723 12.7302 36.2827 11.2783L33.4058 11.2803L33.4068 9.82907L54.9457 9.81394L54.9447 11.2652ZM51.7962 20.853L51.8028 11.2674L36.9263 11.2778C36.8754 11.7616 37.4303 12.2577 38.5908 12.766C40.6091 13.6303 41.7317 14.1259 41.9588 14.2531C43.1696 14.9651 43.7747 15.8176 43.774 16.8105C43.7738 17.0906 43.445 18.0456 42.7878 19.6755C45.3379 17.866 47.0041 16.961 47.7864 16.9605C49.0987 16.9595 50.4353 18.2571 51.7962 20.853Z" fill="#E0D2BE"/>
<path d="M59.922 39.293C57.2487 36.8253 55.2436 35.1718 53.9067 34.3325C53.931 35.6055 53.6149 36.6241 52.9582 37.3884C52.2763 38.1781 51.4937 38.5733 50.6104 38.5739C49.6515 38.5746 48.8568 38.2315 48.2264 37.5445C47.5959 36.883 47.2811 36.0303 47.2818 34.9864C47.2825 33.9171 47.586 33.064 48.1921 32.4271C48.7982 31.7901 49.4924 31.4714 50.2747 31.4709C51.2084 31.4702 52.0157 31.7879 52.6967 32.4239C52.7725 32.1947 52.8106 31.9274 52.8108 31.6218C52.8112 30.9599 52.5975 29.8653 52.1696 28.338C52.3714 28.4142 52.5984 28.6177 52.8505 28.9485C53.6825 30.0682 54.0979 31.4809 54.0967 33.1867C55.1057 33.8734 56.9468 35.5143 59.62 38.1093L59.922 39.293ZM52.5823 33.6079C52.0778 33.2772 51.3965 33.1122 50.5385 33.1128C48.9991 33.1139 48.2292 33.5091 48.2286 34.2983C48.2282 34.9348 48.6948 35.2528 49.6285 35.2521C50.3352 35.2516 51.004 35.0856 51.6351 34.7542C52.241 34.4228 52.5568 34.0407 52.5823 33.6079Z" fill="#E0D2BE"/>
<path d="M69.2051 26.4547L69.2156 11.2551L57.3674 11.2635C57.3671 11.6963 58.1239 12.0904 59.6378 12.4457C61.7572 12.9535 63.1449 13.3726 63.8008 13.7031C65.3145 14.4149 66.0709 15.42 66.07 16.7185C66.0689 18.3225 65.2983 19.6469 63.7581 20.6919C65.8773 21.7088 67.6803 23.6297 69.1673 26.4547L69.2051 26.4547ZM58.5711 22.1849C59.3537 21.8025 60.2877 21.4581 61.373 21.1518C62.7613 20.6671 63.4557 20.1447 63.4561 19.5846C63.4566 18.8462 62.763 18.2229 61.3754 17.7147C60.1139 17.3082 58.8398 16.9018 57.553 16.4953C56.1654 15.9362 55.4719 15.2238 55.4725 14.3582C55.4729 13.7726 55.89 12.7412 56.7239 11.2639L54.8312 11.2652L54.8322 9.81402L72.2071 9.80182L72.2061 11.253L70.6541 11.2541L70.6404 31.0365L70.073 30.4258C69.7716 28.3638 68.3849 26.5571 65.9128 25.0058C64.1218 23.9123 62.2675 23.2134 60.3498 22.9093C60.1478 22.9858 59.9711 23.1005 59.8196 23.2533C59.466 23.6355 59.289 24.1193 59.2886 24.7049C59.2882 25.316 59.5149 25.8887 59.9688 26.423C60.4479 27.0082 61.0785 27.377 61.8607 27.5292L58.49 30.0139C57.1533 28.8437 56.4855 27.4311 56.4867 25.7762C56.4875 24.6051 56.9046 23.6246 57.7379 22.8347C57.9904 22.5799 58.2682 22.3633 58.5711 22.1849Z" fill="#E0D2BE"/>
<path d="M64.4496 6.14104C65.4085 6.19129 66.1782 6.21621 66.7586 6.2158C68.0709 6.21488 69.08 6.68518 69.786 7.6267C70.4163 8.44097 70.7185 9.40823 70.6924 10.5285L69.7082 10.5292C69.7335 10.5037 69.7464 10.0963 69.7469 9.30708C69.7477 8.16138 68.663 7.58929 66.4927 7.59082C66.2656 7.59098 65.7987 7.60404 65.0921 7.62999C64.3602 7.65597 63.8681 7.68177 63.6157 7.70741C62.9595 7.80971 62.4926 7.86096 62.215 7.86115C60.9785 7.86202 59.9187 7.58271 59.0359 7.02321C58.1278 6.43827 57.6741 5.68752 57.6747 4.77097C57.6755 3.57435 58.3071 2.64462 59.5693 1.98178C60.9326 1.24248 62.9391 0.871905 65.5889 0.870044C68.6172 0.867917 71.014 1.70641 72.7794 3.38552C74.469 5.01377 75.3634 7.15177 75.4626 9.79953L76.6739 9.79868L76.6729 11.2499L75.4615 11.2507L75.4484 30.1929L75.2591 30.193C75.0825 30.1932 74.8303 30.0151 74.5024 29.6589C74.1746 29.3027 74.0108 28.9464 74.0111 28.5899L74.0231 11.2518L72.0925 11.2531L72.0935 9.8019L74.0241 9.80054C73.8761 4.88688 71.2659 2.43184 66.1934 2.4354C63.3165 2.43742 61.8776 3.12585 61.8767 4.50069C61.8762 5.13718 62.1157 5.58256 62.595 5.83683C62.8725 5.98939 63.4907 6.0908 64.4496 6.14104Z" fill="#E0D2BE"/>
</svg>
