<svg width="1260" height="1080" viewBox="0 0 1260 1080" fill="none" xmlns="http://www.w3.org/2000/svg">
<g clip-path="url(#clip0_1470_449)">
<rect width="1260" height="1080" fill="white"/>
<rect width="465" height="1080" fill="#E6E1DB"/>
<path d="M21.32 1016.3C25.22 1016.3 26.88 1013.02 26.88 1009.1C26.88 1005.18 25.22 1001.88 21.32 1001.88C17.42 1001.88 15.76 1005.18 15.76 1009.1C15.76 1013.02 17.42 1016.3 21.32 1016.3ZM21.32 1014.32C18.88 1014.32 18.06 1011.98 18.06 1009.1C18.06 1006.22 18.88 1003.86 21.32 1003.86C23.76 1003.86 24.56 1006.22 24.56 1009.1C24.56 1011.98 23.76 1014.32 21.32 1014.32ZM30.6372 1009.84C32.9572 1009.84 33.9972 1008.02 33.9972 1005.86C33.9972 1003.72 32.9572 1001.88 30.6372 1001.88C28.3572 1001.88 27.2772 1003.72 27.2772 1005.86C27.2772 1008.02 28.3572 1009.84 30.6372 1009.84ZM39.5572 1002.18H37.9572L30.6972 1016H32.2972L39.5572 1002.18ZM30.6372 1008.32C29.5372 1008.32 29.0572 1007.38 29.0572 1005.86C29.0572 1004.34 29.5372 1003.42 30.6372 1003.42C31.7372 1003.42 32.2172 1004.34 32.2172 1005.86C32.2172 1007.38 31.7372 1008.32 30.6372 1008.32ZM39.6172 1016.3C41.9372 1016.3 42.9772 1014.46 42.9772 1012.32C42.9772 1010.16 41.9372 1008.34 39.6172 1008.34C37.3372 1008.34 36.2572 1010.16 36.2572 1012.32C36.2572 1014.46 37.3372 1016.3 39.6172 1016.3ZM39.6172 1014.76C38.5372 1014.76 38.0372 1013.84 38.0372 1012.32C38.0372 1010.8 38.5372 1009.86 39.6172 1009.86C40.7172 1009.86 41.1972 1010.8 41.1972 1012.32C41.1972 1013.84 40.7172 1014.76 39.6172 1014.76ZM54.8041 1007.08C54.8041 1005.18 55.5841 1003.86 57.6441 1003.86C59.4241 1003.86 59.9641 1005 59.9641 1006.14C59.9641 1008.1 58.3441 1008.76 55.8041 1010.44C53.6841 1011.78 52.2241 1013.56 52.2241 1016H62.1441V1014.04H55.2441V1014C56.3841 1011.18 62.2841 1010.44 62.2841 1006.04C62.2841 1003.4 60.2641 1001.88 57.7041 1001.88C54.1641 1001.88 52.5641 1004.1 52.5641 1007.08H54.8041ZM66.5395 1009.84C68.8595 1009.84 69.8995 1008.02 69.8995 1005.86C69.8995 1003.72 68.8595 1001.88 66.5395 1001.88C64.2595 1001.88 63.1795 1003.72 63.1795 1005.86C63.1795 1008.02 64.2595 1009.84 66.5395 1009.84ZM75.4595 1002.18H73.8595L66.5995 1016H68.1995L75.4595 1002.18ZM66.5395 1008.32C65.4395 1008.32 64.9595 1007.38 64.9595 1005.86C64.9595 1004.34 65.4395 1003.42 66.5395 1003.42C67.6395 1003.42 68.1195 1004.34 68.1195 1005.86C68.1195 1007.38 67.6395 1008.32 66.5395 1008.32ZM75.5195 1016.3C77.8395 1016.3 78.8795 1014.46 78.8795 1012.32C78.8795 1010.16 77.8395 1008.34 75.5195 1008.34C73.2395 1008.34 72.1595 1010.16 72.1595 1012.32C72.1595 1014.46 73.2395 1016.3 75.5195 1016.3ZM75.5195 1014.76C74.4395 1014.76 73.9395 1013.84 73.9395 1012.32C73.9395 1010.8 74.4395 1009.86 75.5195 1009.86C76.6195 1009.86 77.0995 1010.8 77.0995 1012.32C77.0995 1013.84 76.6195 1014.76 75.5195 1014.76ZM93.8864 1006.68C92.4464 1006.68 91.4264 1007.14 90.7064 1007.88V1007.84L91.4464 1004.14H97.6664V1002.18H89.7064L88.2064 1009.72H90.5464C91.2064 1008.9 92.1864 1008.52 93.2664 1008.52C94.9464 1008.52 96.0464 1009.4 96.0464 1011.28C96.0464 1013.28 94.8464 1014.32 93.1464 1014.32C91.2264 1014.32 90.4064 1013.16 90.2664 1011.92H87.9664C88.0464 1014.3 89.8864 1016.3 93.2664 1016.3C96.1464 1016.3 98.3664 1014.38 98.3664 1011.3C98.3664 1008.6 96.5464 1006.68 93.8864 1006.68ZM101.739 1009.84C104.059 1009.84 105.099 1008.02 105.099 1005.86C105.099 1003.72 104.059 1001.88 101.739 1001.88C99.4587 1001.88 98.3787 1003.72 98.3787 1005.86C98.3787 1008.02 99.4587 1009.84 101.739 1009.84ZM110.659 1002.18H109.059L101.799 1016H103.399L110.659 1002.18ZM101.739 1008.32C100.639 1008.32 100.159 1007.38 100.159 1005.86C100.159 1004.34 100.639 1003.42 101.739 1003.42C102.839 1003.42 103.319 1004.34 103.319 1005.86C103.319 1007.38 102.839 1008.32 101.739 1008.32ZM110.719 1016.3C113.039 1016.3 114.079 1014.46 114.079 1012.32C114.079 1010.16 113.039 1008.34 110.719 1008.34C108.439 1008.34 107.359 1010.16 107.359 1012.32C107.359 1014.46 108.439 1016.3 110.719 1016.3ZM110.719 1014.76C109.639 1014.76 109.139 1013.84 109.139 1012.32C109.139 1010.8 109.639 1009.86 110.719 1009.86C111.819 1009.86 112.299 1010.8 112.299 1012.32C112.299 1013.84 111.819 1014.76 110.719 1014.76ZM126.746 1002.18C126.606 1003.88 125.886 1005.12 123.386 1005.12V1006.78C124.546 1006.78 125.466 1006.78 126.286 1005.98V1016H128.606V1002.18H126.746ZM135.59 1016.3C139.49 1016.3 141.15 1013.02 141.15 1009.1C141.15 1005.18 139.49 1001.88 135.59 1001.88C131.69 1001.88 130.03 1005.18 130.03 1009.1C130.03 1013.02 131.69 1016.3 135.59 1016.3ZM135.59 1014.32C133.15 1014.32 132.33 1011.98 132.33 1009.1C132.33 1006.22 133.15 1003.86 135.59 1003.86C138.03 1003.86 138.83 1006.22 138.83 1009.1C138.83 1011.98 138.03 1014.32 135.59 1014.32ZM144.908 1009.84C147.228 1009.84 148.268 1008.02 148.268 1005.86C148.268 1003.72 147.228 1001.88 144.908 1001.88C142.628 1001.88 141.548 1003.72 141.548 1005.86C141.548 1008.02 142.628 1009.84 144.908 1009.84ZM153.828 1002.18H152.228L144.968 1016H146.568L153.828 1002.18ZM144.908 1008.32C143.808 1008.32 143.328 1007.38 143.328 1005.86C143.328 1004.34 143.808 1003.42 144.908 1003.42C146.008 1003.42 146.488 1004.34 146.488 1005.86C146.488 1007.38 146.008 1008.32 144.908 1008.32ZM153.888 1016.3C156.208 1016.3 157.248 1014.46 157.248 1012.32C157.248 1010.16 156.208 1008.34 153.888 1008.34C151.608 1008.34 150.528 1010.16 150.528 1012.32C150.528 1014.46 151.608 1016.3 153.888 1016.3ZM153.888 1014.76C152.808 1014.76 152.308 1013.84 152.308 1012.32C152.308 1010.8 152.808 1009.86 153.888 1009.86C154.988 1009.86 155.468 1010.8 155.468 1012.32C155.468 1013.84 154.988 1014.76 153.888 1014.76ZM18.14 1029.08C18.14 1027.18 18.92 1025.86 20.98 1025.86C22.76 1025.86 23.3 1027 23.3 1028.14C23.3 1030.1 21.68 1030.76 19.14 1032.44C17.02 1033.78 15.56 1035.56 15.56 1038H25.48V1036.04H18.58V1036C19.72 1033.18 25.62 1032.44 25.62 1028.04C25.62 1025.4 23.6 1023.88 21.04 1023.88C17.5 1023.88 15.9 1026.1 15.9 1029.08H18.14ZM28.4491 1028.36C28.4491 1027 29.1491 1025.86 31.3291 1025.86C32.9691 1025.86 33.6891 1026.74 33.6891 1027.88C33.6891 1029.3 32.7291 1029.9 31.2891 1029.9H30.1291V1031.74H31.3691C32.7891 1031.74 34.1691 1032.16 34.1691 1034.06C34.1691 1035.52 33.3691 1036.32 31.2891 1036.32C28.9291 1036.32 28.0691 1035.12 28.0691 1033.26H25.8291C25.8291 1036.44 27.8091 1038.3 31.4491 1038.3C34.4491 1038.3 36.4691 1036.84 36.4691 1034.12C36.4691 1032.48 35.8091 1031.24 33.9291 1030.7V1030.66C35.2491 1030.1 36.0091 1029.18 36.0091 1027.7C36.0091 1025.26 33.8491 1023.88 31.4091 1023.88C27.9491 1023.88 26.1891 1025.78 26.1891 1028.36H28.4491ZM42.5716 1038.3C46.4716 1038.3 48.1316 1035.02 48.1316 1031.1C48.1316 1027.18 46.4716 1023.88 42.5716 1023.88C38.6716 1023.88 37.0116 1027.18 37.0116 1031.1C37.0116 1035.02 38.6716 1038.3 42.5716 1038.3ZM42.5716 1036.32C40.1316 1036.32 39.3116 1033.98 39.3116 1031.1C39.3116 1028.22 40.1316 1025.86 42.5716 1025.86C45.0116 1025.86 45.8116 1028.22 45.8116 1031.1C45.8116 1033.98 45.0116 1036.32 42.5716 1036.32ZM49.8395 1038.14C49.8395 1038.9 49.3595 1039.52 48.6195 1039.66V1040.8C50.3595 1040.52 51.0795 1038.86 51.0795 1037.4C51.0795 1036.28 50.6195 1035.56 49.7195 1035.56C48.9995 1035.56 48.4195 1036.04 48.4195 1036.9C48.4195 1037.84 49.0595 1038.28 49.8395 1038.14ZM57.2259 1029.08C57.2259 1027.18 58.0059 1025.86 60.0659 1025.86C61.8459 1025.86 62.3859 1027 62.3859 1028.14C62.3859 1030.1 60.7659 1030.76 58.2259 1032.44C56.1059 1033.78 54.6459 1035.56 54.6459 1038H64.5659V1036.04H57.6659V1036C58.8059 1033.18 64.7059 1032.44 64.7059 1028.04C64.7059 1025.4 62.6859 1023.88 60.1259 1023.88C56.5859 1023.88 54.9859 1026.1 54.9859 1029.08H57.2259ZM67.7736 1029.08C67.7736 1027.18 68.5536 1025.86 70.6136 1025.86C72.3936 1025.86 72.9336 1027 72.9336 1028.14C72.9336 1030.1 71.3136 1030.76 68.7736 1032.44C66.6536 1033.78 65.1936 1035.56 65.1936 1038H75.1136V1036.04H68.2136V1036C69.3536 1033.18 75.2536 1032.44 75.2536 1028.04C75.2536 1025.4 73.2336 1023.88 70.6736 1023.88C67.1336 1023.88 65.5336 1026.1 65.5336 1029.08H67.7736ZM81.4427 1028.68C80.0027 1028.68 78.9827 1029.14 78.2627 1029.88V1029.84L79.0027 1026.14H85.2227V1024.18H77.2627L75.7627 1031.72H78.1027C78.7627 1030.9 79.7427 1030.52 80.8227 1030.52C82.5027 1030.52 83.6027 1031.4 83.6027 1033.28C83.6027 1035.28 82.4027 1036.32 80.7027 1036.32C78.7827 1036.32 77.9627 1035.16 77.8227 1033.92H75.5227C75.6027 1036.3 77.4427 1038.3 80.8227 1038.3C83.7027 1038.3 85.9227 1036.38 85.9227 1033.3C85.9227 1030.6 84.1027 1028.68 81.4427 1028.68ZM87.9294 1038.14C87.9294 1038.9 87.4494 1039.52 86.7094 1039.66V1040.8C88.4494 1040.52 89.1694 1038.86 89.1694 1037.4C89.1694 1036.28 88.7094 1035.56 87.8094 1035.56C87.0894 1035.56 86.5094 1036.04 86.5094 1036.9C86.5094 1037.84 87.1494 1038.28 87.9294 1038.14ZM95.3158 1029.08C95.3158 1027.18 96.0958 1025.86 98.1558 1025.86C99.9358 1025.86 100.476 1027 100.476 1028.14C100.476 1030.1 98.8558 1030.76 96.3158 1032.44C94.1958 1033.78 92.7358 1035.56 92.7358 1038H102.656V1036.04H95.7558V1036C96.8958 1033.18 102.796 1032.44 102.796 1028.04C102.796 1025.4 100.776 1023.88 98.2158 1023.88C94.6758 1023.88 93.0758 1026.1 93.0758 1029.08H95.3158ZM106.703 1024.18C106.563 1025.88 105.843 1027.12 103.343 1027.12V1028.78C104.503 1028.78 105.423 1028.78 106.243 1027.98V1038H108.563V1024.18H106.703ZM118.048 1031.52V1031.56C118.008 1034.08 117.428 1036.4 114.928 1036.4C113.468 1036.4 112.748 1035.56 112.608 1034.5H110.288C110.568 1036.58 112.308 1038.3 114.908 1038.3C118.388 1038.3 120.368 1035.76 120.368 1031.04C120.368 1026.9 118.948 1023.88 114.908 1023.88C111.808 1023.88 109.908 1026 109.908 1028.72C109.908 1031.44 111.768 1033.32 114.488 1033.32C116.088 1033.32 117.368 1032.64 118.048 1031.52ZM114.988 1025.78C116.828 1025.78 117.928 1026.92 117.928 1028.56C117.928 1030.26 116.708 1031.42 114.868 1031.42C113.288 1031.42 112.168 1030.36 112.168 1028.6C112.168 1026.92 113.208 1025.78 114.988 1025.78ZM25.82 1051.62L26.16 1049.9H24.28L25.04 1046.18H23.3L22.56 1049.9H20.36L21.12 1046.18H19.4L18.64 1049.9H16.66L16.32 1051.62H18.3L17.72 1054.52H15.9L15.58 1056.24H17.36L16.6 1060H18.32L19.08 1056.24H21.28L20.52 1060H22.24L23 1056.24H25.1L25.42 1054.52H23.36L23.94 1051.62H25.82ZM21.62 1054.52H19.44L20.02 1051.62H22.2L21.62 1054.52ZM29.5187 1051.6V1047.72H37.4787V1045.7H27.1387V1060H37.6787V1057.98H29.5187V1053.64H36.4988V1051.6H29.5187ZM40.6792 1052.66V1052.62C40.7192 1050.1 41.2992 1047.78 43.7992 1047.78C45.2592 1047.78 45.9792 1048.62 46.1192 1049.68H48.4392C48.1592 1047.6 46.4192 1045.88 43.8192 1045.88C40.3392 1045.88 38.3592 1048.42 38.3592 1053.14C38.3592 1057.28 39.7792 1060.3 43.8192 1060.3C46.9192 1060.3 48.8192 1058.18 48.8192 1055.46C48.8192 1052.74 46.9592 1050.86 44.2392 1050.86C42.6392 1050.86 41.3592 1051.54 40.6792 1052.66ZM43.7392 1058.4C41.8992 1058.4 40.7992 1057.26 40.7992 1055.62C40.7992 1053.92 42.0192 1052.76 43.8592 1052.76C45.4392 1052.76 46.5592 1053.82 46.5592 1055.58C46.5592 1057.26 45.5192 1058.4 43.7392 1058.4ZM52.2742 1051.6V1047.72H60.2342V1045.7H49.8942V1060H60.4342V1057.98H52.2742V1053.64H59.2542V1051.6H52.2742ZM64.3347 1046.18C64.1947 1047.88 63.4747 1049.12 60.9747 1049.12V1050.78C62.1347 1050.78 63.0547 1050.78 63.8747 1049.98V1060H66.1947V1046.18H64.3347ZM68.0794 1060H73.6994C77.6594 1060 79.9994 1057.46 79.9994 1052.86C79.9994 1048.26 77.5794 1045.7 73.6394 1045.7H68.0794V1060ZM70.4594 1047.72H73.5194C76.7194 1047.72 77.6194 1050.12 77.6194 1052.86C77.6194 1055.6 76.7194 1057.98 73.5194 1057.98H70.4594V1047.72ZM91.8875 1049.3C91.8875 1047 90.1875 1045.7 87.2475 1045.7H81.1075V1060H87.5875C90.5475 1060 92.4475 1058.58 92.4475 1055.82C92.4475 1053.68 91.1675 1052.58 89.6675 1052.32V1052.28C90.8475 1051.88 91.8875 1051.06 91.8875 1049.3ZM83.4875 1051.62V1047.72H87.3075C88.7275 1047.72 89.5075 1048.42 89.5075 1049.68C89.5075 1050.94 88.8675 1051.62 87.1675 1051.62H83.4875ZM83.4875 1053.4H87.6675C89.1675 1053.4 90.0675 1054.22 90.0675 1055.68C90.0675 1057.02 89.4475 1057.98 87.4075 1057.98H83.4875V1053.4Z" fill="#131313"/>
<path d="M385.563 37.52V27.7H383.203V37.52C383.203 39.12 382.883 40.26 381.103 40.26C379.303 40.26 379.023 39.12 379.023 37.52V36.86H376.763V37.52C376.763 39.98 377.723 42.3 381.163 42.3C384.603 42.3 385.563 39.98 385.563 37.52ZM389.417 33.6V29.72H397.377V27.7H387.037V42H397.577V39.98H389.417V35.64H396.397V33.6H389.417ZM401.098 33.6V29.72H409.058V27.7H398.718V42H409.258V39.98H401.098V35.64H408.078V33.6H401.098ZM421.178 31.3C421.178 29 419.478 27.7 416.538 27.7H410.398V42H416.878C419.838 42 421.738 40.58 421.738 37.82C421.738 35.68 420.458 34.58 418.958 34.32V34.28C420.138 33.88 421.178 33.06 421.178 31.3ZM412.778 33.62V29.72H416.598C418.018 29.72 418.798 30.42 418.798 31.68C418.798 32.94 418.158 33.62 416.458 33.62H412.778ZM412.778 35.4H416.958C418.458 35.4 419.358 36.22 419.358 37.68C419.358 39.02 418.738 39.98 416.698 39.98H412.778V35.4ZM429.145 42.3C433.445 42.3 436.165 39.14 436.165 34.84C436.165 30.54 433.445 27.4 429.145 27.4C424.825 27.4 422.125 30.54 422.125 34.84C422.125 39.14 424.825 42.3 429.145 42.3ZM429.145 40.26C425.865 40.26 424.485 37.74 424.485 34.84C424.485 31.96 425.865 29.44 429.145 29.44C432.425 29.44 433.785 31.96 433.785 34.84C433.785 37.74 432.425 40.26 429.145 40.26ZM437.255 42H439.635V31.3H439.675L446.135 42H448.775V27.7H446.395V38.44H446.355L439.915 27.7H437.255V42Z" fill="#131313"/>
<rect x="465" width="795" height="705" fill="#131313"/>
<path d="M1146.23 42.3C1150.53 42.3 1153.25 39.14 1153.25 34.84C1153.25 30.54 1150.53 27.4 1146.23 27.4C1141.91 27.4 1139.21 30.54 1139.21 34.84C1139.21 39.14 1141.91 42.3 1146.23 42.3ZM1146.23 40.26C1142.95 40.26 1141.57 37.74 1141.57 34.84C1141.57 31.96 1142.95 29.44 1146.23 29.44C1149.51 29.44 1150.87 31.96 1150.87 34.84C1150.87 37.74 1149.51 40.26 1146.23 40.26ZM1154.34 42H1156.72V31.3H1156.76L1163.22 42H1165.86V27.7H1163.48V38.44H1163.44L1157 27.7H1154.34V42ZM1167.51 42H1173.13C1177.09 42 1179.43 39.46 1179.43 34.86C1179.43 30.26 1177.01 27.7 1173.07 27.7H1167.51V42ZM1169.89 29.72H1172.95C1176.15 29.72 1177.05 32.12 1177.05 34.86C1177.05 37.6 1176.15 39.98 1172.95 39.98H1169.89V29.72ZM1180.53 27.7V42H1182.91V35.66H1189.67V42H1192.05V27.7H1189.67V33.62H1182.91V27.7H1180.53ZM1200.28 42.3C1204.58 42.3 1207.3 39.14 1207.3 34.84C1207.3 30.54 1204.58 27.4 1200.28 27.4C1195.96 27.4 1193.26 30.54 1193.26 34.84C1193.26 39.14 1195.96 42.3 1200.28 42.3ZM1200.28 40.26C1197 40.26 1195.62 37.74 1195.62 34.84C1195.62 31.96 1197 29.44 1200.28 29.44C1203.56 29.44 1204.92 31.96 1204.92 34.84C1204.92 37.74 1203.56 40.26 1200.28 40.26ZM1208.39 27.7V42H1210.77V37.78L1212.97 35.42L1217.65 42H1220.43L1214.53 33.76L1220.09 27.7H1217.25L1210.77 34.76V27.7H1208.39ZM1229.19 38.62L1230.35 42H1232.77L1227.53 27.7H1225.03L1219.77 42H1222.19L1223.35 38.62H1229.19ZM1224.01 36.64L1226.27 29.88H1226.31L1228.55 36.64H1224.01ZM1233.33 42H1235.71V36.48H1239.21C1242.65 36.48 1241.31 41.4 1241.97 42H1244.47V41.86C1243.71 41.62 1244.91 36.02 1241.61 35.4V35.36C1243.25 34.96 1244.27 33.8 1244.27 31.8C1244.27 29.2 1242.37 27.7 1239.43 27.7H1233.33V42ZM1235.71 29.72H1238.93C1240.39 29.72 1241.91 30.02 1241.91 32.08C1241.91 34.16 1240.39 34.44 1238.93 34.44H1235.71V29.72Z" fill="#E6E1DB"/>
<path d="M486.32 641.3C490.22 641.3 491.88 638.02 491.88 634.1C491.88 630.18 490.22 626.88 486.32 626.88C482.42 626.88 480.76 630.18 480.76 634.1C480.76 638.02 482.42 641.3 486.32 641.3ZM486.32 639.32C483.88 639.32 483.06 636.98 483.06 634.1C483.06 631.22 483.88 628.86 486.32 628.86C488.76 628.86 489.56 631.22 489.56 634.1C489.56 636.98 488.76 639.32 486.32 639.32ZM495.637 634.84C497.957 634.84 498.997 633.02 498.997 630.86C498.997 628.72 497.957 626.88 495.637 626.88C493.357 626.88 492.277 628.72 492.277 630.86C492.277 633.02 493.357 634.84 495.637 634.84ZM504.557 627.18H502.957L495.697 641H497.297L504.557 627.18ZM495.637 633.32C494.537 633.32 494.057 632.38 494.057 630.86C494.057 629.34 494.537 628.42 495.637 628.42C496.737 628.42 497.217 629.34 497.217 630.86C497.217 632.38 496.737 633.32 495.637 633.32ZM504.617 641.3C506.937 641.3 507.977 639.46 507.977 637.32C507.977 635.16 506.937 633.34 504.617 633.34C502.337 633.34 501.257 635.16 501.257 637.32C501.257 639.46 502.337 641.3 504.617 641.3ZM504.617 639.76C503.537 639.76 503.037 638.84 503.037 637.32C503.037 635.8 503.537 634.86 504.617 634.86C505.717 634.86 506.197 635.8 506.197 637.32C506.197 638.84 505.717 639.76 504.617 639.76ZM522.984 641.3C526.884 641.3 528.544 638.02 528.544 634.1C528.544 630.18 526.884 626.88 522.984 626.88C519.084 626.88 517.424 630.18 517.424 634.1C517.424 638.02 519.084 641.3 522.984 641.3ZM522.984 639.32C520.544 639.32 519.724 636.98 519.724 634.1C519.724 631.22 520.544 628.86 522.984 628.86C525.424 628.86 526.224 631.22 526.224 634.1C526.224 636.98 525.424 639.32 522.984 639.32ZM532.301 634.84C534.621 634.84 535.661 633.02 535.661 630.86C535.661 628.72 534.621 626.88 532.301 626.88C530.021 626.88 528.941 628.72 528.941 630.86C528.941 633.02 530.021 634.84 532.301 634.84ZM541.221 627.18H539.621L532.361 641H533.961L541.221 627.18ZM532.301 633.32C531.201 633.32 530.721 632.38 530.721 630.86C530.721 629.34 531.201 628.42 532.301 628.42C533.401 628.42 533.881 629.34 533.881 630.86C533.881 632.38 533.401 633.32 532.301 633.32ZM541.281 641.3C543.601 641.3 544.641 639.46 544.641 637.32C544.641 635.16 543.601 633.34 541.281 633.34C539.001 633.34 537.921 635.16 537.921 637.32C537.921 639.46 539.001 641.3 541.281 641.3ZM541.281 639.76C540.201 639.76 539.701 638.84 539.701 637.32C539.701 635.8 540.201 634.86 541.281 634.86C542.381 634.86 542.861 635.8 542.861 637.32C542.861 638.84 542.381 639.76 541.281 639.76ZM559.648 641.3C563.548 641.3 565.208 638.02 565.208 634.1C565.208 630.18 563.548 626.88 559.648 626.88C555.748 626.88 554.088 630.18 554.088 634.1C554.088 638.02 555.748 641.3 559.648 641.3ZM559.648 639.32C557.208 639.32 556.388 636.98 556.388 634.1C556.388 631.22 557.208 628.86 559.648 628.86C562.088 628.86 562.888 631.22 562.888 634.1C562.888 636.98 562.088 639.32 559.648 639.32ZM568.965 634.84C571.285 634.84 572.325 633.02 572.325 630.86C572.325 628.72 571.285 626.88 568.965 626.88C566.685 626.88 565.605 628.72 565.605 630.86C565.605 633.02 566.685 634.84 568.965 634.84ZM577.885 627.18H576.285L569.025 641H570.625L577.885 627.18ZM568.965 633.32C567.865 633.32 567.385 632.38 567.385 630.86C567.385 629.34 567.865 628.42 568.965 628.42C570.065 628.42 570.545 629.34 570.545 630.86C570.545 632.38 570.065 633.32 568.965 633.32ZM577.945 641.3C580.265 641.3 581.305 639.46 581.305 637.32C581.305 635.16 580.265 633.34 577.945 633.34C575.665 633.34 574.585 635.16 574.585 637.32C574.585 639.46 575.665 641.3 577.945 641.3ZM577.945 639.76C576.865 639.76 576.365 638.84 576.365 637.32C576.365 635.8 576.865 634.86 577.945 634.86C579.045 634.86 579.525 635.8 579.525 637.32C579.525 638.84 579.045 639.76 577.945 639.76ZM598.812 634.52V634.56C598.772 637.08 598.192 639.4 595.692 639.4C594.232 639.4 593.512 638.56 593.372 637.5H591.052C591.332 639.58 593.072 641.3 595.672 641.3C599.152 641.3 601.132 638.76 601.132 634.04C601.132 629.9 599.712 626.88 595.672 626.88C592.572 626.88 590.672 629 590.672 631.72C590.672 634.44 592.532 636.32 595.252 636.32C596.852 636.32 598.132 635.64 598.812 634.52ZM595.752 628.78C597.592 628.78 598.692 629.92 598.692 631.56C598.692 633.26 597.472 634.42 595.632 634.42C594.052 634.42 592.932 633.36 592.932 631.6C592.932 629.92 593.972 628.78 595.752 628.78ZM603.969 631.36C603.969 630 604.669 628.86 606.849 628.86C608.489 628.86 609.209 629.74 609.209 630.88C609.209 632.3 608.249 632.9 606.809 632.9H605.649V634.74H606.889C608.309 634.74 609.689 635.16 609.689 637.06C609.689 638.52 608.889 639.32 606.809 639.32C604.449 639.32 603.589 638.12 603.589 636.26H601.349C601.349 639.44 603.329 641.3 606.969 641.3C609.969 641.3 611.989 639.84 611.989 637.12C611.989 635.48 611.329 634.24 609.449 633.7V633.66C610.769 633.1 611.529 632.18 611.529 630.7C611.529 628.26 609.369 626.88 606.929 626.88C603.469 626.88 601.709 628.78 601.709 631.36H603.969ZM615.65 634.84C617.97 634.84 619.01 633.02 619.01 630.86C619.01 628.72 617.97 626.88 615.65 626.88C613.37 626.88 612.29 628.72 612.29 630.86C612.29 633.02 613.37 634.84 615.65 634.84ZM624.57 627.18H622.97L615.71 641H617.31L624.57 627.18ZM615.65 633.32C614.55 633.32 614.07 632.38 614.07 630.86C614.07 629.34 614.55 628.42 615.65 628.42C616.75 628.42 617.23 629.34 617.23 630.86C617.23 632.38 616.75 633.32 615.65 633.32ZM624.63 641.3C626.95 641.3 627.99 639.46 627.99 637.32C627.99 635.16 626.95 633.34 624.63 633.34C622.35 633.34 621.27 635.16 621.27 637.32C621.27 639.46 622.35 641.3 624.63 641.3ZM624.63 639.76C623.55 639.76 623.05 638.84 623.05 637.32C623.05 635.8 623.55 634.86 624.63 634.86C625.73 634.86 626.21 635.8 626.21 637.32C626.21 638.84 625.73 639.76 624.63 639.76ZM483.98 649.18C483.84 650.88 483.12 652.12 480.62 652.12V653.78C481.78 653.78 482.7 653.78 483.52 652.98V663H485.84V649.18H483.98ZM495.325 656.52V656.56C495.285 659.08 494.705 661.4 492.205 661.4C490.745 661.4 490.025 660.56 489.885 659.5H487.565C487.845 661.58 489.585 663.3 492.185 663.3C495.665 663.3 497.645 660.76 497.645 656.04C497.645 651.9 496.225 648.88 492.185 648.88C489.085 648.88 487.185 651 487.185 653.72C487.185 656.44 489.045 658.32 491.765 658.32C493.365 658.32 494.645 657.64 495.325 656.52ZM492.265 650.78C494.105 650.78 495.205 651.92 495.205 653.56C495.205 655.26 493.985 656.42 492.145 656.42C490.565 656.42 489.445 655.36 489.445 653.6C489.445 651.92 490.485 650.78 492.265 650.78ZM499.448 663.14C499.448 663.9 498.968 664.52 498.228 664.66V665.8C499.968 665.52 500.688 663.86 500.688 662.4C500.688 661.28 500.228 660.56 499.328 660.56C498.608 660.56 498.028 661.04 498.028 661.9C498.028 662.84 498.668 663.28 499.448 663.14ZM507.675 649.18C507.535 650.88 506.815 652.12 504.315 652.12V653.78C505.475 653.78 506.395 653.78 507.215 652.98V663H509.535V649.18H507.675ZM519.019 656.52V656.56C518.979 659.08 518.399 661.4 515.899 661.4C514.439 661.4 513.719 660.56 513.579 659.5H511.259C511.539 661.58 513.279 663.3 515.879 663.3C519.359 663.3 521.339 660.76 521.339 656.04C521.339 651.9 519.919 648.88 515.879 648.88C512.779 648.88 510.879 651 510.879 653.72C510.879 656.44 512.739 658.32 515.459 658.32C517.059 658.32 518.339 657.64 519.019 656.52ZM515.959 650.78C517.799 650.78 518.899 651.92 518.899 653.56C518.899 655.26 517.679 656.42 515.839 656.42C514.259 656.42 513.139 655.36 513.139 653.6C513.139 651.92 514.179 650.78 515.959 650.78ZM523.143 663.14C523.143 663.9 522.663 664.52 521.923 664.66V665.8C523.663 665.52 524.383 663.86 524.383 662.4C524.383 661.28 523.923 660.56 523.023 660.56C522.303 660.56 521.723 661.04 521.723 661.9C521.723 662.84 522.363 663.28 523.143 663.14ZM531.369 649.18C531.229 650.88 530.509 652.12 528.009 652.12V653.78C529.169 653.78 530.089 653.78 530.909 652.98V663H533.229V649.18H531.369ZM542.714 656.52V656.56C542.674 659.08 542.094 661.4 539.594 661.4C538.134 661.4 537.414 660.56 537.274 659.5H534.954C535.234 661.58 536.974 663.3 539.574 663.3C543.054 663.3 545.034 660.76 545.034 656.04C545.034 651.9 543.614 648.88 539.574 648.88C536.474 648.88 534.574 651 534.574 653.72C534.574 656.44 536.434 658.32 539.154 658.32C540.754 658.32 542.034 657.64 542.714 656.52ZM539.654 650.78C541.494 650.78 542.594 651.92 542.594 653.56C542.594 655.26 541.374 656.42 539.534 656.42C537.954 656.42 536.834 655.36 536.834 653.6C536.834 651.92 537.874 650.78 539.654 650.78ZM490.82 676.62L491.16 674.9H489.28L490.04 671.18H488.3L487.56 674.9H485.36L486.12 671.18H484.4L483.64 674.9H481.66L481.32 676.62H483.3L482.72 679.52H480.9L480.58 681.24H482.36L481.6 685H483.32L484.08 681.24H486.28L485.52 685H487.24L488 681.24H490.1L490.42 679.52H488.36L488.94 676.62H490.82ZM486.62 679.52H484.44L485.02 676.62H487.2L486.62 679.52ZM494.957 671.18C494.817 672.88 494.097 674.12 491.597 674.12V675.78C492.757 675.78 493.677 675.78 494.497 674.98V685H496.817V671.18H494.957ZM500.442 675.36C500.442 674 501.142 672.86 503.322 672.86C504.962 672.86 505.682 673.74 505.682 674.88C505.682 676.3 504.722 676.9 503.282 676.9H502.122V678.74H503.362C504.782 678.74 506.162 679.16 506.162 681.06C506.162 682.52 505.362 683.32 503.282 683.32C500.922 683.32 500.062 682.12 500.062 680.26H497.822C497.822 683.44 499.802 685.3 503.442 685.3C506.442 685.3 508.462 683.84 508.462 681.12C508.462 679.48 507.802 678.24 505.922 677.7V677.66C507.242 677.1 508.002 676.18 508.002 674.7C508.002 672.26 505.842 670.88 503.402 670.88C499.942 670.88 498.182 672.78 498.182 675.36H500.442ZM512.225 671.18C512.085 672.88 511.365 674.12 508.865 674.12V675.78C510.025 675.78 510.945 675.78 511.765 674.98V685H514.085V671.18H512.225ZM517.709 675.36C517.709 674 518.409 672.86 520.589 672.86C522.229 672.86 522.949 673.74 522.949 674.88C522.949 676.3 521.989 676.9 520.549 676.9H519.389V678.74H520.629C522.049 678.74 523.429 679.16 523.429 681.06C523.429 682.52 522.629 683.32 520.549 683.32C518.189 683.32 517.329 682.12 517.329 680.26H515.089C515.089 683.44 517.069 685.3 520.709 685.3C523.709 685.3 525.729 683.84 525.729 681.12C525.729 679.48 525.069 678.24 523.189 677.7V677.66C524.509 677.1 525.269 676.18 525.269 674.7C525.269 672.26 523.109 670.88 520.669 670.88C517.209 670.88 515.449 672.78 515.449 675.36H517.709ZM529.492 671.18C529.352 672.88 528.632 674.12 526.132 674.12V675.78C527.292 675.78 528.212 675.78 529.032 674.98V685H531.352V671.18H529.492ZM534.976 675.36C534.976 674 535.676 672.86 537.856 672.86C539.496 672.86 540.216 673.74 540.216 674.88C540.216 676.3 539.256 676.9 537.816 676.9H536.656V678.74H537.896C539.316 678.74 540.696 679.16 540.696 681.06C540.696 682.52 539.896 683.32 537.816 683.32C535.456 683.32 534.596 682.12 534.596 680.26H532.356C532.356 683.44 534.336 685.3 537.976 685.3C540.976 685.3 542.996 683.84 542.996 681.12C542.996 679.48 542.336 678.24 540.456 677.7V677.66C541.776 677.1 542.536 676.18 542.536 674.7C542.536 672.26 540.376 670.88 537.936 670.88C534.476 670.88 532.716 672.78 532.716 675.36H534.976Z" fill="#E6E1DB"/>
<rect x="1061.75" y="705" width="198.75" height="375" fill="#FDBF12"/>
<rect x="664" y="705" width="198.75" height="375" fill="#FFAFCC"/>
<rect x="863" y="705" width="198.75" height="375" fill="#82BBFF"/>
<rect x="465" y="705" width="198.75" height="375" fill="#EF847E"/>
<path d="M536.614 1041.7V1056H538.994V1041.7H536.614ZM550.714 1046.62H553.094C552.754 1043.7 550.554 1041.4 546.934 1041.4C542.814 1041.4 540.214 1044.54 540.214 1048.84C540.214 1053.16 542.814 1056.3 546.934 1056.3C550.574 1056.3 552.774 1054 553.094 1050.78H550.714C550.554 1052.52 549.534 1054.26 546.874 1054.26C543.794 1054.26 542.574 1051.68 542.574 1048.84C542.574 1046.02 543.794 1043.44 546.874 1043.44C549.514 1043.44 550.454 1045.18 550.714 1046.62ZM554.056 1041.7V1056H556.436V1049.66H563.196V1056H565.576V1041.7H563.196V1047.62H556.436V1041.7H554.056ZM567.221 1041.7V1056H569.601V1049.66H576.361V1056H578.741V1041.7H576.361V1047.62H569.601V1041.7H567.221ZM582.766 1047.6V1043.72H590.726V1041.7H580.386V1056H590.926V1053.98H582.766V1049.64H589.746V1047.6H582.766Z" fill="#131313"/>
<path d="M718.274 1045.3C718.274 1043 716.574 1041.7 713.634 1041.7H707.494V1056H713.974C716.934 1056 718.834 1054.58 718.834 1051.82C718.834 1049.68 717.554 1048.58 716.054 1048.32V1048.28C717.234 1047.88 718.274 1047.06 718.274 1045.3ZM709.874 1047.62V1043.72H713.694C715.114 1043.72 715.894 1044.42 715.894 1045.68C715.894 1046.94 715.254 1047.62 713.554 1047.62H709.874ZM709.874 1049.4H714.054C715.554 1049.4 716.454 1050.22 716.454 1051.68C716.454 1053.02 715.834 1053.98 713.794 1053.98H709.874V1049.4ZM719.761 1041.7V1056H722.141V1049.66H728.901V1056H731.281V1041.7H728.901V1047.62H722.141V1041.7H719.761ZM741.187 1052.62L742.347 1056H744.767L739.527 1041.7H737.027L731.767 1056H734.187L735.347 1052.62H741.187ZM736.007 1050.64L738.267 1043.88H738.307L740.547 1050.64H736.007ZM745.329 1041.7V1056H754.849V1053.98H747.709V1041.7H745.329ZM761.38 1056.3C765.68 1056.3 768.4 1053.14 768.4 1048.84C768.4 1044.54 765.68 1041.4 761.38 1041.4C757.06 1041.4 754.36 1044.54 754.36 1048.84C754.36 1053.14 757.06 1056.3 761.38 1056.3ZM761.38 1054.26C758.1 1054.26 756.72 1051.74 756.72 1048.84C756.72 1045.96 758.1 1043.44 761.38 1043.44C764.66 1043.44 766.02 1045.96 766.02 1048.84C766.02 1051.74 764.66 1054.26 761.38 1054.26ZM780.27 1045.3C780.27 1043 778.57 1041.7 775.63 1041.7H769.49V1056H775.97C778.93 1056 780.83 1054.58 780.83 1051.82C780.83 1049.68 779.55 1048.58 778.05 1048.32V1048.28C779.23 1047.88 780.27 1047.06 780.27 1045.3ZM771.87 1047.62V1043.72H775.69C777.11 1043.72 777.89 1044.42 777.89 1045.68C777.89 1046.94 777.25 1047.62 775.55 1047.62H771.87ZM771.87 1049.4H776.05C777.55 1049.4 778.45 1050.22 778.45 1051.68C778.45 1053.02 777.83 1053.98 775.79 1053.98H771.87V1049.4ZM790.077 1052.62L791.237 1056H793.657L788.417 1041.7H785.917L780.657 1056H783.077L784.237 1052.62H790.077ZM784.897 1050.64L787.157 1043.88H787.197L789.437 1050.64H784.897ZM799.404 1047.48C797.404 1046.98 796.064 1046.7 796.064 1045.14C796.064 1044.08 797.084 1043.44 798.784 1043.44C800.764 1043.44 801.804 1044.32 802.024 1045.98H804.404C804.204 1043.04 801.924 1041.4 798.784 1041.4C795.664 1041.4 793.704 1042.82 793.704 1045.36C793.704 1048.08 796.124 1048.94 798.364 1049.5C801.184 1050.2 802.404 1050.52 802.404 1052.22C802.404 1053.32 801.584 1054.26 799.464 1054.26C796.904 1054.26 795.664 1053.06 795.544 1051.24H793.164C793.304 1054.48 795.964 1056.3 799.464 1056.3C803.064 1056.3 804.784 1054.4 804.784 1052.12C804.784 1048.92 802.464 1048.26 799.404 1047.48ZM814.004 1052.62L815.164 1056H817.584L812.344 1041.7H809.844L804.584 1056H807.004L808.164 1052.62H814.004ZM808.824 1050.64L811.084 1043.88H811.124L813.364 1050.64H808.824Z" fill="#131313"/>
<path d="M935.912 1047.48C933.912 1046.98 932.572 1046.7 932.572 1045.14C932.572 1044.08 933.592 1043.44 935.292 1043.44C937.272 1043.44 938.312 1044.32 938.532 1045.98H940.912C940.712 1043.04 938.432 1041.4 935.292 1041.4C932.172 1041.4 930.212 1042.82 930.212 1045.36C930.212 1048.08 932.632 1048.94 934.872 1049.5C937.692 1050.2 938.912 1050.52 938.912 1052.22C938.912 1053.32 938.092 1054.26 935.972 1054.26C933.412 1054.26 932.172 1053.06 932.052 1051.24H929.672C929.812 1054.48 932.472 1056.3 935.972 1056.3C939.572 1056.3 941.292 1054.4 941.292 1052.12C941.292 1048.92 938.972 1048.26 935.912 1047.48ZM948.828 1056.3C953.128 1056.3 955.848 1053.14 955.848 1048.84C955.848 1044.54 953.128 1041.4 948.828 1041.4C944.508 1041.4 941.808 1044.54 941.808 1048.84C941.808 1053.14 944.508 1056.3 948.828 1056.3ZM948.828 1054.26C945.548 1054.26 944.168 1051.74 944.168 1048.84C944.168 1045.96 945.548 1043.44 948.828 1043.44C952.108 1043.44 953.468 1045.96 953.468 1048.84C953.468 1051.74 952.108 1054.26 948.828 1054.26ZM959.319 1047.88V1043.72H966.939V1041.7H956.939V1056H959.319V1049.92H965.499V1047.88H959.319ZM973.947 1056.3C978.247 1056.3 980.967 1053.14 980.967 1048.84C980.967 1044.54 978.247 1041.4 973.947 1041.4C969.627 1041.4 966.927 1044.54 966.927 1048.84C966.927 1053.14 969.627 1056.3 973.947 1056.3ZM973.947 1054.26C970.667 1054.26 969.287 1051.74 969.287 1048.84C969.287 1045.96 970.667 1043.44 973.947 1043.44C977.227 1043.44 978.587 1045.96 978.587 1048.84C978.587 1051.74 977.227 1054.26 973.947 1054.26ZM982.057 1056H984.437V1050.48H987.937C991.377 1050.48 990.037 1055.4 990.697 1056H993.197V1055.86C992.437 1055.62 993.637 1050.02 990.337 1049.4V1049.36C991.977 1048.96 992.997 1047.8 992.997 1045.8C992.997 1043.2 991.097 1041.7 988.157 1041.7H982.057V1056ZM984.437 1043.72H987.657C989.117 1043.72 990.637 1044.02 990.637 1046.08C990.637 1048.16 989.117 1048.44 987.657 1048.44H984.437V1043.72Z" fill="#131313"/>
<path d="M1125.61 1056H1127.99V1050.28H1131.69C1134.43 1050.28 1136.41 1048.98 1136.41 1045.98C1136.41 1042.98 1134.43 1041.7 1131.69 1041.7H1125.61V1056ZM1127.99 1043.72H1131.59C1133.19 1043.72 1134.03 1044.42 1134.03 1045.98C1134.03 1047.56 1133.19 1048.24 1131.59 1048.24H1127.99V1043.72ZM1137.19 1056H1139.57V1050.48H1143.07C1146.51 1050.48 1145.17 1055.4 1145.83 1056H1148.33V1055.86C1147.57 1055.62 1148.77 1050.02 1145.47 1049.4V1049.36C1147.11 1048.96 1148.13 1047.8 1148.13 1045.8C1148.13 1043.2 1146.23 1041.7 1143.29 1041.7H1137.19V1056ZM1139.57 1043.72H1142.79C1144.25 1043.72 1145.77 1044.02 1145.77 1046.08C1145.77 1048.16 1144.25 1048.44 1142.79 1048.44H1139.57V1043.72ZM1149.32 1041.7V1056H1151.7V1041.7H1149.32ZM1156.67 1056H1159.05V1043.72H1163.61V1041.7H1152.09V1043.72H1156.67V1056ZM1164.44 1041.7V1056H1166.82V1049.66H1173.58V1056H1175.96V1041.7H1173.58V1047.62H1166.82V1041.7H1164.44ZM1177.64 1041.7V1056H1180.02V1041.7H1177.64ZM1192.46 1045.3C1192.46 1043 1190.76 1041.7 1187.82 1041.7H1181.68V1056H1188.16C1191.12 1056 1193.02 1054.58 1193.02 1051.82C1193.02 1049.68 1191.74 1048.58 1190.24 1048.32V1048.28C1191.42 1047.88 1192.46 1047.06 1192.46 1045.3ZM1184.06 1047.62V1043.72H1187.88C1189.3 1043.72 1190.08 1044.42 1190.08 1045.68C1190.08 1046.94 1189.44 1047.62 1187.74 1047.62H1184.06ZM1184.06 1049.4H1188.24C1189.74 1049.4 1190.64 1050.22 1190.64 1051.68C1190.64 1053.02 1190.02 1053.98 1187.98 1053.98H1184.06V1049.4ZM1193.99 1041.7V1056H1196.37V1041.7H1193.99Z" fill="#131313"/>
</g>
<defs>
<clipPath id="clip0_1470_449">
<rect width="1260" height="1080" fill="white"/>
</clipPath>
</defs>
</svg>
