<svg xmlns="http://www.w3.org/2000/svg" fill="none" width="2160" height="2160" viewBox="0 0 2160 2160"><path d="M0 0h2160v2160H0z" fill="#221D17"/><g clip-path="url(#a)"><path d="M450 540h1260v1080H450z" fill="#fff"/><path d="M450 540h465v1080H450z" fill="#E6E1DB"/><path d="M471.32 1556.3c3.9 0 5.56-3.28 5.56-7.2 0-3.92-1.66-7.22-5.56-7.22-3.9 0-5.56 3.3-5.56 7.22s1.66 7.2 5.56 7.2Zm0-1.98c-2.44 0-3.26-2.34-3.26-5.22s.82-5.24 3.26-5.24 3.24 2.36 3.24 5.24c0 2.88-.8 5.22-3.24 5.22Zm9.317-4.48c2.32 0 3.36-1.82 3.36-3.98 0-2.14-1.04-3.98-3.36-3.98-2.28 0-3.36 1.84-3.36 3.98 0 2.16 1.08 3.98 3.36 3.98Zm8.92-7.66h-1.6l-7.26 13.82h1.6l7.26-13.82Zm-8.92 6.14c-1.1 0-1.58-.94-1.58-2.46s.48-2.44 1.58-2.44 1.58.92 1.58 2.44-.48 2.46-1.58 2.46Zm8.98 7.98c2.32 0 3.36-1.84 3.36-3.98 0-2.16-1.04-3.98-3.36-3.98-2.28 0-3.36 1.82-3.36 3.98 0 2.14 1.08 3.98 3.36 3.98Zm0-1.54c-1.08 0-1.58-.92-1.58-2.44s.5-2.46 1.58-2.46c1.1 0 1.58.94 1.58 2.46s-.48 2.44-1.58 2.44Zm15.187-7.68c0-1.9.78-3.22 2.84-3.22 1.78 0 2.32 1.14 2.32 2.28 0 1.96-1.62 2.62-4.16 4.3-2.12 1.34-3.58 3.12-3.58 5.56h9.92v-1.96h-6.9v-.04c1.14-2.82 7.04-3.56 7.04-7.96 0-2.64-2.02-4.16-4.58-4.16-3.54 0-5.14 2.22-5.14 5.2h2.24Zm11.736 2.76c2.32 0 3.36-1.82 3.36-3.98 0-2.14-1.04-3.98-3.36-3.98-2.28 0-3.36 1.84-3.36 3.98 0 2.16 1.08 3.98 3.36 3.98Zm8.92-7.66h-1.6L516.6 1556h1.6l7.26-13.82Zm-8.92 6.14c-1.1 0-1.58-.94-1.58-2.46s.48-2.44 1.58-2.44 1.58.92 1.58 2.44-.48 2.46-1.58 2.46Zm8.98 7.98c2.32 0 3.36-1.84 3.36-3.98 0-2.16-1.04-3.98-3.36-3.98-2.28 0-3.36 1.82-3.36 3.98 0 2.14 1.08 3.98 3.36 3.98Zm0-1.54c-1.08 0-1.58-.92-1.58-2.44s.5-2.46 1.58-2.46c1.1 0 1.58.94 1.58 2.46s-.48 2.44-1.58 2.44Zm18.366-8.08c-1.44 0-2.46.46-3.18 1.2v-.04l.74-3.7h6.22v-1.96h-7.96l-1.5 7.54h2.34c.66-.82 1.64-1.2 2.72-1.2 1.68 0 2.78.88 2.78 2.76 0 2-1.2 3.04-2.9 3.04-1.92 0-2.74-1.16-2.88-2.4h-2.3c.08 2.38 1.92 4.38 5.3 4.38 2.88 0 5.1-1.92 5.1-5 0-2.7-1.82-4.62-4.48-4.62Zm7.853 3.16c2.32 0 3.36-1.82 3.36-3.98 0-2.14-1.04-3.98-3.36-3.98-2.28 0-3.36 1.84-3.36 3.98 0 2.16 1.08 3.98 3.36 3.98Zm8.92-7.66h-1.6l-7.26 13.82h1.6l7.26-13.82Zm-8.92 6.14c-1.1 0-1.58-.94-1.58-2.46s.48-2.44 1.58-2.44 1.58.92 1.58 2.44-.48 2.46-1.58 2.46Zm8.98 7.98c2.32 0 3.36-1.84 3.36-3.98 0-2.16-1.04-3.98-3.36-3.98-2.28 0-3.36 1.82-3.36 3.98 0 2.14 1.08 3.98 3.36 3.98Zm0-1.54c-1.08 0-1.58-.92-1.58-2.44s.5-2.46 1.58-2.46c1.1 0 1.58.94 1.58 2.46s-.48 2.44-1.58 2.44Zm16.027-12.58c-.14 1.7-.86 2.94-3.36 2.94v1.66c1.16 0 2.08 0 2.9-.8V1556h2.32v-13.82h-1.86Zm8.844 14.12c3.9 0 5.56-3.28 5.56-7.2 0-3.92-1.66-7.22-5.56-7.22-3.9 0-5.56 3.3-5.56 7.22s1.66 7.2 5.56 7.2Zm0-1.98c-2.44 0-3.26-2.34-3.26-5.22s.82-5.24 3.26-5.24 3.24 2.36 3.24 5.24c0 2.88-.8 5.22-3.24 5.22Zm9.318-4.48c2.32 0 3.36-1.82 3.36-3.98 0-2.14-1.04-3.98-3.36-3.98-2.28 0-3.36 1.84-3.36 3.98 0 2.16 1.08 3.98 3.36 3.98Zm8.92-7.66h-1.6l-7.26 13.82h1.6l7.26-13.82Zm-8.92 6.14c-1.1 0-1.58-.94-1.58-2.46s.48-2.44 1.58-2.44 1.58.92 1.58 2.44-.48 2.46-1.58 2.46Zm8.98 7.98c2.32 0 3.36-1.84 3.36-3.98 0-2.16-1.04-3.98-3.36-3.98-2.28 0-3.36 1.82-3.36 3.98 0 2.14 1.08 3.98 3.36 3.98Zm0-1.54c-1.08 0-1.58-.92-1.58-2.44s.5-2.46 1.58-2.46c1.1 0 1.58.94 1.58 2.46s-.48 2.44-1.58 2.44Zm-135.748 14.32c0-1.9.78-3.22 2.84-3.22 1.78 0 2.32 1.14 2.32 2.28 0 1.96-1.62 2.62-4.16 4.3-2.12 1.34-3.58 3.12-3.58 5.56h9.92v-1.96h-6.9v-.04c1.14-2.82 7.04-3.56 7.04-7.96 0-2.64-2.02-4.16-4.58-4.16-3.54 0-5.14 2.22-5.14 5.2h2.24Zm10.309-.72c0-1.36.7-2.5 2.88-2.5 1.64 0 2.36.88 2.36 2.02 0 1.42-.96 2.02-2.4 2.02h-1.16v1.84h1.24c1.42 0 2.8.42 2.8 2.32 0 1.46-.8 2.26-2.88 2.26-2.36 0-3.22-1.2-3.22-3.06h-2.24c0 3.18 1.98 5.04 5.62 5.04 3 0 5.02-1.46 5.02-4.18 0-1.64-.66-2.88-2.54-3.42v-.04c1.32-.56 2.08-1.48 2.08-2.96 0-2.44-2.16-3.82-4.6-3.82-3.46 0-5.22 1.9-5.22 4.48h2.26Zm14.123 9.94c3.9 0 5.56-3.28 5.56-7.2 0-3.92-1.66-7.22-5.56-7.22-3.9 0-5.56 3.3-5.56 7.22s1.66 7.2 5.56 7.2Zm0-1.98c-2.44 0-3.26-2.34-3.26-5.22s.82-5.24 3.26-5.24 3.24 2.36 3.24 5.24c0 2.88-.8 5.22-3.24 5.22Zm7.268 1.82c0 .76-.48 1.38-1.22 1.52v1.14c1.74-.28 2.46-1.94 2.46-3.4 0-1.12-.46-1.84-1.36-1.84-.72 0-1.3.48-1.3 1.34 0 .94.64 1.38 1.42 1.24Zm7.386-9.06c0-1.9.78-3.22 2.84-3.22 1.78 0 2.32 1.14 2.32 2.28 0 1.96-1.62 2.62-4.16 4.3-2.12 1.34-3.58 3.12-3.58 5.56h9.92v-1.96h-6.9v-.04c1.14-2.82 7.04-3.56 7.04-7.96 0-2.64-2.02-4.16-4.58-4.16-3.54 0-5.14 2.22-5.14 5.2h2.24Zm10.548 0c0-1.9.78-3.22 2.84-3.22 1.78 0 2.32 1.14 2.32 2.28 0 1.96-1.62 2.62-4.16 4.3-2.12 1.34-3.58 3.12-3.58 5.56h9.92v-1.96h-6.9v-.04c1.14-2.82 7.04-3.56 7.04-7.96 0-2.64-2.02-4.16-4.58-4.16-3.54 0-5.14 2.22-5.14 5.2h2.24Zm13.669-.4c-1.44 0-2.46.46-3.18 1.2v-.04l.74-3.7h6.22v-1.96h-7.96l-1.5 7.54h2.34c.66-.82 1.64-1.2 2.72-1.2 1.68 0 2.78.88 2.78 2.76 0 2-1.2 3.04-2.9 3.04-1.92 0-2.74-1.16-2.88-2.4h-2.3c.08 2.38 1.92 4.38 5.3 4.38 2.88 0 5.1-1.92 5.1-5 0-2.7-1.82-4.62-4.48-4.62Zm6.486 9.46c0 .76-.48 1.38-1.22 1.52v1.14c1.74-.28 2.46-1.94 2.46-3.4 0-1.12-.46-1.84-1.36-1.84-.72 0-1.3.48-1.3 1.34 0 .94.64 1.38 1.42 1.24Zm7.387-9.06c0-1.9.78-3.22 2.84-3.22 1.78 0 2.32 1.14 2.32 2.28 0 1.96-1.62 2.62-4.16 4.3-2.12 1.34-3.58 3.12-3.58 5.56h9.92v-1.96h-6.9v-.04c1.14-2.82 7.04-3.56 7.04-7.96 0-2.64-2.02-4.16-4.58-4.16-3.54 0-5.14 2.22-5.14 5.2h2.24Zm11.387-4.9c-.14 1.7-.86 2.94-3.36 2.94v1.66c1.16 0 2.08 0 2.9-.8V1578h2.32v-13.82h-1.86Zm11.345 7.34v.04c-.04 2.52-.62 4.84-3.12 4.84-1.46 0-2.18-.84-2.32-1.9h-2.32c.28 2.08 2.02 3.8 4.62 3.8 3.48 0 5.46-2.54 5.46-7.26 0-4.14-1.42-7.16-5.46-7.16-3.1 0-5 2.12-5 4.84 0 2.72 1.86 4.6 4.58 4.6 1.6 0 2.88-.68 3.56-1.8Zm-3.06-5.74c1.84 0 2.94 1.14 2.94 2.78 0 1.7-1.22 2.86-3.06 2.86-1.58 0-2.7-1.06-2.7-2.82 0-1.68 1.04-2.82 2.82-2.82Zm-89.168 25.84.34-1.72h-1.88l.76-3.72h-1.74l-.74 3.72h-2.2l.76-3.72h-1.72l-.76 3.72h-1.98l-.34 1.72h1.98l-.58 2.9h-1.82l-.32 1.72h1.78l-.76 3.76h1.72l.76-3.76h2.2l-.76 3.76h1.72l.76-3.76h2.1l.32-1.72h-2.06l.58-2.9h1.88Zm-4.2 2.9h-2.18l.58-2.9h2.18l-.58 2.9Zm7.899-2.92v-3.88h7.96v-2.02h-10.34v14.3h10.54v-2.02h-8.16v-4.34h6.98v-2.04h-6.98Zm11.16 1.06v-.04c.04-2.52.62-4.84 3.12-4.84 1.46 0 2.18.84 2.32 1.9h2.32c-.28-2.08-2.02-3.8-4.62-3.8-3.48 0-5.46 2.54-5.46 7.26 0 4.14 1.42 7.16 5.46 7.16 3.1 0 5-2.12 5-4.84 0-2.72-1.86-4.6-4.58-4.6-1.6 0-2.88.68-3.56 1.8Zm3.06 5.74c-1.84 0-2.94-1.14-2.94-2.78 0-1.7 1.22-2.86 3.06-2.86 1.58 0 2.7 1.06 2.7 2.82 0 1.68-1.04 2.82-2.82 2.82Zm8.535-6.8v-3.88h7.96v-2.02h-10.34v14.3h10.54v-2.02h-8.16v-4.34h6.98v-2.04h-6.98Zm12.061-5.42c-.14 1.7-.86 2.94-3.36 2.94v1.66c1.16 0 2.08 0 2.9-.8V1600h2.32v-13.82h-1.86Zm3.744 13.82h5.62c3.96 0 6.3-2.54 6.3-7.14s-2.42-7.16-6.36-7.16h-5.56v14.3Zm2.38-12.28h3.06c3.2 0 4.1 2.4 4.1 5.14 0 2.74-.9 5.12-4.1 5.12h-3.06v-10.26Zm21.428 1.58c0-2.3-1.7-3.6-4.64-3.6h-6.14v14.3h6.48c2.96 0 4.86-1.42 4.86-4.18 0-2.14-1.28-3.24-2.78-3.5v-.04c1.18-.4 2.22-1.22 2.22-2.98Zm-8.4 2.32v-3.9h3.82c1.42 0 2.2.7 2.2 1.96s-.64 1.94-2.34 1.94h-3.68Zm0 1.78h4.18c1.5 0 2.4.82 2.4 2.28 0 1.34-.62 2.3-2.66 2.3h-3.92v-4.58ZM835.563 577.52v-9.82h-2.36v9.82c0 1.6-.32 2.74-2.1 2.74-1.8 0-2.08-1.14-2.08-2.74v-.66h-2.26v.66c0 2.46.96 4.78 4.4 4.78 3.44 0 4.4-2.32 4.4-4.78Zm3.854-3.92v-3.88h7.96v-2.02h-10.34V582h10.54v-2.02h-8.16v-4.34h6.98v-2.04h-6.98Zm11.681 0v-3.88h7.96v-2.02h-10.34V582h10.54v-2.02h-8.16v-4.34h6.98v-2.04h-6.98Zm20.08-2.3c0-2.3-1.7-3.6-4.64-3.6h-6.14V582h6.48c2.96 0 4.86-1.42 4.86-4.18 0-2.14-1.28-3.24-2.78-3.5v-.04c1.18-.4 2.22-1.22 2.22-2.98Zm-8.4 2.32v-3.9h3.82c1.42 0 2.2.7 2.2 1.96s-.64 1.94-2.34 1.94h-3.68Zm0 1.78h4.18c1.5 0 2.4.82 2.4 2.28 0 1.34-.62 2.3-2.66 2.3h-3.92v-4.58Zm16.367 6.9c4.3 0 7.02-3.16 7.02-7.46s-2.72-7.44-7.02-7.44c-4.32 0-7.02 3.14-7.02 7.44 0 4.3 2.7 7.46 7.02 7.46Zm0-2.04c-3.28 0-4.66-2.52-4.66-5.42 0-2.88 1.38-5.4 4.66-5.4 3.28 0 4.64 2.52 4.64 5.4 0 2.9-1.36 5.42-4.64 5.42Zm8.11 1.74h2.38v-10.7h.04l6.46 10.7h2.64v-14.3h-2.38v10.74h-.04l-6.44-10.74h-2.66V582ZM915 540h795v705H915z" fill="#131313"/><path d="M1596.23 582.3c4.3 0 7.02-3.16 7.02-7.46s-2.72-7.44-7.02-7.44c-4.32 0-7.02 3.14-7.02 7.44 0 4.3 2.7 7.46 7.02 7.46Zm0-2.04c-3.28 0-4.66-2.52-4.66-5.42 0-2.88 1.38-5.4 4.66-5.4 3.28 0 4.64 2.52 4.64 5.4 0 2.9-1.36 5.42-4.64 5.42Zm8.11 1.74h2.38v-10.7h.04l6.46 10.7h2.64v-14.3h-2.38v10.74h-.04L1607 567.7h-2.66V582Zm13.17 0h5.62c3.96 0 6.3-2.54 6.3-7.14s-2.42-7.16-6.36-7.16h-5.56V582Zm2.38-12.28h3.06c3.2 0 4.1 2.4 4.1 5.14 0 2.74-.9 5.12-4.1 5.12h-3.06v-10.26Zm10.64-2.02V582h2.38v-6.34h6.76V582h2.38v-14.3h-2.38v5.92h-6.76v-5.92h-2.38Zm19.75 14.6c4.3 0 7.02-3.16 7.02-7.46s-2.72-7.44-7.02-7.44c-4.32 0-7.02 3.14-7.02 7.44 0 4.3 2.7 7.46 7.02 7.46Zm0-2.04c-3.28 0-4.66-2.52-4.66-5.42 0-2.88 1.38-5.4 4.66-5.4 3.28 0 4.64 2.52 4.64 5.4 0 2.9-1.36 5.42-4.64 5.42Zm8.11-12.56V582h2.38v-4.22l2.2-2.36 4.68 6.58h2.78l-5.9-8.24 5.56-6.06h-2.84l-6.48 7.06v-7.06h-2.38Zm20.8 10.92 1.16 3.38h2.42l-5.24-14.3h-2.5l-5.26 14.3h2.42l1.16-3.38h5.84Zm-5.18-1.98 2.26-6.76h.04l2.24 6.76h-4.54Zm9.32 5.36h2.38v-5.52h3.5c3.44 0 2.1 4.92 2.76 5.52h2.5v-.14c-.76-.24.44-5.84-2.86-6.46v-.04c1.64-.4 2.66-1.56 2.66-3.56 0-2.6-1.9-4.1-4.84-4.1h-6.1V582Zm2.38-12.28h3.22c1.46 0 2.98.3 2.98 2.36 0 2.08-1.52 2.36-2.98 2.36h-3.22v-4.72ZM936.32 1181.3c3.9 0 5.56-3.28 5.56-7.2 0-3.92-1.66-7.22-5.56-7.22-3.9 0-5.56 3.3-5.56 7.22s1.66 7.2 5.56 7.2Zm0-1.98c-2.44 0-3.26-2.34-3.26-5.22s.82-5.24 3.26-5.24 3.24 2.36 3.24 5.24c0 2.88-.8 5.22-3.24 5.22Zm9.317-4.48c2.32 0 3.36-1.82 3.36-3.98 0-2.14-1.04-3.98-3.36-3.98-2.28 0-3.36 1.84-3.36 3.98 0 2.16 1.08 3.98 3.36 3.98Zm8.92-7.66h-1.6l-7.26 13.82h1.6l7.26-13.82Zm-8.92 6.14c-1.1 0-1.58-.94-1.58-2.46s.48-2.44 1.58-2.44 1.58.92 1.58 2.44-.48 2.46-1.58 2.46Zm8.98 7.98c2.32 0 3.36-1.84 3.36-3.98 0-2.16-1.04-3.98-3.36-3.98-2.28 0-3.36 1.82-3.36 3.98 0 2.14 1.08 3.98 3.36 3.98Zm0-1.54c-1.08 0-1.58-.92-1.58-2.44s.5-2.46 1.58-2.46c1.1 0 1.58.94 1.58 2.46s-.48 2.44-1.58 2.44Zm18.367 1.54c3.9 0 5.56-3.28 5.56-7.2 0-3.92-1.66-7.22-5.56-7.22-3.9 0-5.56 3.3-5.56 7.22s1.66 7.2 5.56 7.2Zm0-1.98c-2.44 0-3.26-2.34-3.26-5.22s.82-5.24 3.26-5.24 3.24 2.36 3.24 5.24c0 2.88-.8 5.22-3.24 5.22Zm9.317-4.48c2.32 0 3.36-1.82 3.36-3.98 0-2.14-1.04-3.98-3.36-3.98-2.28 0-3.36 1.84-3.36 3.98 0 2.16 1.08 3.98 3.36 3.98Zm8.92-7.66h-1.6l-7.26 13.82h1.6l7.26-13.82Zm-8.92 6.14c-1.1 0-1.58-.94-1.58-2.46s.48-2.44 1.58-2.44 1.58.92 1.58 2.44-.48 2.46-1.58 2.46Zm8.98 7.98c2.32 0 3.36-1.84 3.36-3.98 0-2.16-1.04-3.98-3.36-3.98-2.28 0-3.36 1.82-3.36 3.98 0 2.14 1.08 3.98 3.36 3.98Zm0-1.54c-1.08 0-1.58-.92-1.58-2.44s.5-2.46 1.58-2.46c1.1 0 1.58.94 1.58 2.46s-.48 2.44-1.58 2.44Zm18.369 1.54c3.9 0 5.56-3.28 5.56-7.2 0-3.92-1.66-7.22-5.56-7.22-3.9 0-5.56 3.3-5.56 7.22s1.66 7.2 5.56 7.2Zm0-1.98c-2.44 0-3.26-2.34-3.26-5.22s.82-5.24 3.26-5.24 3.24 2.36 3.24 5.24c0 2.88-.8 5.22-3.24 5.22Zm9.32-4.48c2.32 0 3.36-1.82 3.36-3.98 0-2.14-1.04-3.98-3.36-3.98-2.28 0-3.36 1.84-3.36 3.98 0 2.16 1.08 3.98 3.36 3.98Zm8.92-7.66h-1.6l-7.26 13.82h1.6l7.26-13.82Zm-8.92 6.14c-1.1 0-1.58-.94-1.58-2.46s.48-2.44 1.58-2.44 1.58.92 1.58 2.44-.48 2.46-1.58 2.46Zm8.98 7.98c2.32 0 3.36-1.84 3.36-3.98 0-2.16-1.04-3.98-3.36-3.98-2.28 0-3.36 1.82-3.36 3.98 0 2.14 1.08 3.98 3.36 3.98Zm0-1.54c-1.08 0-1.58-.92-1.58-2.44s.5-2.46 1.58-2.46c1.1 0 1.58.94 1.58 2.46s-.48 2.44-1.58 2.44Zm20.86-5.24v.04c-.04 2.52-.62 4.84-3.12 4.84-1.46 0-2.18-.84-2.32-1.9h-2.32c.28 2.08 2.02 3.8 4.62 3.8 3.48 0 5.46-2.54 5.46-7.26 0-4.14-1.42-7.16-5.46-7.16-3.1 0-5 2.12-5 4.84 0 2.72 1.86 4.6 4.58 4.6 1.6 0 2.88-.68 3.56-1.8Zm-3.06-5.74c1.84 0 2.94 1.14 2.94 2.78 0 1.7-1.22 2.86-3.06 2.86-1.58 0-2.7-1.06-2.7-2.82 0-1.68 1.04-2.82 2.82-2.82Zm8.22 2.58c0-1.36.7-2.5 2.88-2.5 1.64 0 2.36.88 2.36 2.02 0 1.42-.96 2.02-2.4 2.02h-1.16v1.84h1.24c1.42 0 2.8.42 2.8 2.32 0 1.46-.8 2.26-2.88 2.26-2.36 0-3.22-1.2-3.22-3.06h-2.24c0 3.18 1.98 5.04 5.62 5.04 3 0 5.02-1.46 5.02-4.18 0-1.64-.66-2.88-2.54-3.42v-.04c1.32-.56 2.08-1.48 2.08-2.96 0-2.44-2.16-3.82-4.6-3.82-3.46 0-5.22 1.9-5.22 4.48h2.26Zm11.68 3.48c2.32 0 3.36-1.82 3.36-3.98 0-2.14-1.04-3.98-3.36-3.98-2.28 0-3.36 1.84-3.36 3.98 0 2.16 1.08 3.98 3.36 3.98Zm8.92-7.66h-1.6l-7.26 13.82h1.6l7.26-13.82Zm-8.92 6.14c-1.1 0-1.58-.94-1.58-2.46s.48-2.44 1.58-2.44 1.58.92 1.58 2.44-.48 2.46-1.58 2.46Zm8.98 7.98c2.32 0 3.36-1.84 3.36-3.98 0-2.16-1.04-3.98-3.36-3.98-2.28 0-3.36 1.82-3.36 3.98 0 2.14 1.08 3.98 3.36 3.98Zm0-1.54c-1.08 0-1.58-.92-1.58-2.44s.5-2.46 1.58-2.46c1.1 0 1.58.94 1.58 2.46s-.48 2.44-1.58 2.44Zm-140.65 9.42c-.14 1.7-.86 2.94-3.36 2.94v1.66c1.16 0 2.08 0 2.9-.8V1203h2.32v-13.82h-1.86Zm11.345 7.34v.04c-.04 2.52-.62 4.84-3.12 4.84-1.46 0-2.18-.84-2.32-1.9h-2.32c.28 2.08 2.02 3.8 4.62 3.8 3.48 0 5.46-2.54 5.46-7.26 0-4.14-1.42-7.16-5.46-7.16-3.1 0-5 2.12-5 4.84 0 2.72 1.86 4.6 4.58 4.6 1.6 0 2.88-.68 3.56-1.8Zm-3.06-5.74c1.84 0 2.94 1.14 2.94 2.78 0 1.7-1.22 2.86-3.06 2.86-1.58 0-2.7-1.06-2.7-2.82 0-1.68 1.04-2.82 2.82-2.82Zm7.183 12.36c0 .76-.48 1.38-1.22 1.52v1.14c1.74-.28 2.46-1.94 2.46-3.4 0-1.12-.46-1.84-1.36-1.84-.72 0-1.3.48-1.3 1.34 0 .94.64 1.38 1.42 1.24Zm8.227-13.96c-.14 1.7-.86 2.94-3.36 2.94v1.66c1.16 0 2.08 0 2.9-.8V1203h2.32v-13.82h-1.86Zm11.344 7.34v.04c-.04 2.52-.62 4.84-3.12 4.84-1.46 0-2.18-.84-2.32-1.9h-2.32c.28 2.08 2.02 3.8 4.62 3.8 3.48 0 5.46-2.54 5.46-7.26 0-4.14-1.42-7.16-5.46-7.16-3.1 0-5 2.12-5 4.84 0 2.72 1.86 4.6 4.58 4.6 1.6 0 2.88-.68 3.56-1.8Zm-3.06-5.74c1.84 0 2.94 1.14 2.94 2.78 0 1.7-1.22 2.86-3.06 2.86-1.58 0-2.7-1.06-2.7-2.82 0-1.68 1.04-2.82 2.82-2.82Zm7.184 12.36c0 .76-.48 1.38-1.22 1.52v1.14c1.74-.28 2.46-1.94 2.46-3.4 0-1.12-.46-1.84-1.36-1.84-.72 0-1.3.48-1.3 1.34 0 .94.64 1.38 1.42 1.24Zm8.226-13.96c-.14 1.7-.86 2.94-3.36 2.94v1.66c1.16 0 2.08 0 2.9-.8V1203h2.32v-13.82h-1.86Zm11.345 7.34v.04c-.04 2.52-.62 4.84-3.12 4.84-1.46 0-2.18-.84-2.32-1.9h-2.32c.28 2.08 2.02 3.8 4.62 3.8 3.48 0 5.46-2.54 5.46-7.26 0-4.14-1.42-7.16-5.46-7.16-3.1 0-5 2.12-5 4.84 0 2.72 1.86 4.6 4.58 4.6 1.6 0 2.88-.68 3.56-1.8Zm-3.06-5.74c1.84 0 2.94 1.14 2.94 2.78 0 1.7-1.22 2.86-3.06 2.86-1.58 0-2.7-1.06-2.7-2.82 0-1.68 1.04-2.82 2.82-2.82Zm-48.834 25.84.34-1.72h-1.88l.76-3.72h-1.74l-.74 3.72h-2.2l.76-3.72h-1.72l-.76 3.72h-1.98l-.34 1.72h1.98l-.58 2.9h-1.82l-.32 1.72h1.78l-.76 3.76h1.72l.76-3.76h2.2l-.76 3.76h1.72l.76-3.76h2.1l.32-1.72h-2.06l.58-2.9h1.88Zm-4.2 2.9h-2.18l.58-2.9h2.18l-.58 2.9Zm8.337-8.34c-.14 1.7-.86 2.94-3.36 2.94v1.66c1.16 0 2.08 0 2.9-.8V1225h2.32v-13.82h-1.86Zm5.485 4.18c0-1.36.7-2.5 2.88-2.5 1.64 0 2.36.88 2.36 2.02 0 1.42-.96 2.02-2.4 2.02h-1.16v1.84h1.24c1.42 0 2.8.42 2.8 2.32 0 1.46-.8 2.26-2.88 2.26-2.36 0-3.22-1.2-3.22-3.06h-2.24c0 3.18 1.98 5.04 5.62 5.04 3 0 5.02-1.46 5.02-4.18 0-1.64-.66-2.88-2.54-3.42v-.04c1.32-.56 2.08-1.48 2.08-2.96 0-2.44-2.16-3.82-4.6-3.82-3.46 0-5.22 1.9-5.22 4.48h2.26Zm11.783-4.18c-.14 1.7-.86 2.94-3.36 2.94v1.66c1.16 0 2.08 0 2.9-.8V1225h2.32v-13.82h-1.86Zm5.484 4.18c0-1.36.7-2.5 2.88-2.5 1.64 0 2.36.88 2.36 2.02 0 1.42-.96 2.02-2.4 2.02h-1.16v1.84h1.24c1.42 0 2.8.42 2.8 2.32 0 1.46-.8 2.26-2.88 2.26-2.36 0-3.22-1.2-3.22-3.06h-2.24c0 3.18 1.98 5.04 5.62 5.04 3 0 5.02-1.46 5.02-4.18 0-1.64-.66-2.88-2.54-3.42v-.04c1.32-.56 2.08-1.48 2.08-2.96 0-2.44-2.16-3.82-4.6-3.82-3.46 0-5.22 1.9-5.22 4.48h2.26Zm11.783-4.18c-.14 1.7-.86 2.94-3.36 2.94v1.66c1.16 0 2.08 0 2.9-.8V1225h2.32v-13.82h-1.86Zm5.484 4.18c0-1.36.7-2.5 2.88-2.5 1.64 0 2.36.88 2.36 2.02 0 1.42-.96 2.02-2.4 2.02h-1.16v1.84h1.24c1.42 0 2.8.42 2.8 2.32 0 1.46-.8 2.26-2.88 2.26-2.36 0-3.22-1.2-3.22-3.06h-2.24c0 3.18 1.98 5.04 5.62 5.04 3 0 5.02-1.46 5.02-4.18 0-1.64-.66-2.88-2.54-3.42v-.04c1.32-.56 2.08-1.48 2.08-2.96 0-2.44-2.16-3.82-4.6-3.82-3.46 0-5.22 1.9-5.22 4.48h2.26Z" fill="#E6E1DB"/><path d="M1511.75 1245h198.75v375h-198.75z" fill="#FDBF12"/><path d="M1114 1245h198.75v375H1114z" fill="#FFAFCC"/><path d="M1313 1245h198.75v375H1313z" fill="#82BBFF"/><path d="M915 1245h198.75v375H915z" fill="#EF847E"/><path d="M986.614 1581.7v14.3h2.38v-14.3h-2.38Zm14.096 4.92h2.38c-.34-2.92-2.54-5.22-6.156-5.22-4.12 0-6.72 3.14-6.72 7.44 0 4.32 2.6 7.46 6.72 7.46 3.636 0 5.836-2.3 6.156-5.52h-2.38c-.16 1.74-1.176 3.48-3.836 3.48-3.08 0-4.3-2.58-4.3-5.42 0-2.82 1.22-5.4 4.3-5.4 2.64 0 3.576 1.74 3.836 3.18Zm3.35-4.92v14.3h2.38v-6.34h6.76v6.34h2.38v-14.3h-2.38v5.92h-6.76v-5.92h-2.38Zm13.16 0v14.3h2.38v-6.34h6.76v6.34h2.38v-14.3h-2.38v5.92h-6.76v-5.92h-2.38Zm15.55 5.9v-3.88h7.96v-2.02h-10.34v14.3h10.54v-2.02h-8.16v-4.34h6.98v-2.04h-6.98Zm135.5-2.3c0-2.3-1.7-3.6-4.64-3.6h-6.14v14.3h6.48c2.96 0 4.86-1.42 4.86-4.18 0-2.14-1.28-3.24-2.78-3.5v-.04c1.18-.4 2.22-1.22 2.22-2.98Zm-8.4 2.32v-3.9h3.82c1.42 0 2.2.7 2.2 1.96s-.64 1.94-2.34 1.94h-3.68Zm0 1.78h4.18c1.5 0 2.4.82 2.4 2.28 0 1.34-.62 2.3-2.66 2.3h-3.92v-4.58Zm9.89-7.7v14.3h2.38v-6.34h6.76v6.34h2.38v-14.3h-2.38v5.92h-6.76v-5.92h-2.38Zm21.43 10.92 1.16 3.38h2.42l-5.24-14.3h-2.5l-5.26 14.3h2.42l1.16-3.38h5.84Zm-5.18-1.98 2.26-6.76h.04l2.24 6.76h-4.54Zm9.32-8.94v14.3h9.52v-2.02h-7.14v-12.28h-2.38Zm16.05 14.6c4.3 0 7.02-3.16 7.02-7.46s-2.72-7.44-7.02-7.44c-4.32 0-7.02 3.14-7.02 7.44 0 4.3 2.7 7.46 7.02 7.46Zm0-2.04c-3.28 0-4.66-2.52-4.66-5.42 0-2.88 1.38-5.4 4.66-5.4 3.28 0 4.64 2.52 4.64 5.4 0 2.9-1.36 5.42-4.64 5.42Zm18.89-8.96c0-2.3-1.7-3.6-4.64-3.6h-6.14v14.3h6.48c2.96 0 4.86-1.42 4.86-4.18 0-2.14-1.28-3.24-2.78-3.5v-.04c1.18-.4 2.22-1.22 2.22-2.98Zm-8.4 2.32v-3.9h3.82c1.42 0 2.2.7 2.2 1.96s-.64 1.94-2.34 1.94h-3.68Zm0 1.78h4.18c1.5 0 2.4.82 2.4 2.28 0 1.34-.62 2.3-2.66 2.3h-3.92v-4.58Zm18.21 3.22 1.16 3.38h2.42l-5.24-14.3h-2.5l-5.26 14.3h2.42l1.16-3.38h5.84Zm-5.18-1.98 2.26-6.76h.04l2.24 6.76h-4.54Zm14.5-3.16c-2-.5-3.34-.78-3.34-2.34 0-1.06 1.02-1.7 2.72-1.7 1.98 0 3.02.88 3.24 2.54h2.38c-.2-2.94-2.48-4.58-5.62-4.58-3.12 0-5.08 1.42-5.08 3.96 0 2.72 2.42 3.58 4.66 4.14 2.82.7 4.04 1.02 4.04 2.72 0 1.1-.82 2.04-2.94 2.04-2.56 0-3.8-1.2-3.92-3.02h-2.38c.14 3.24 2.8 5.06 6.3 5.06 3.6 0 5.32-1.9 5.32-4.18 0-3.2-2.32-3.86-5.38-4.64Zm14.6 5.14 1.16 3.38h2.42l-5.24-14.3h-2.5l-5.26 14.3h2.42l1.16-3.38h5.84Zm-5.18-1.98 2.26-6.76h.04l2.24 6.76h-4.54Zm127.09-3.16c-2-.5-3.34-.78-3.34-2.34 0-1.06 1.02-1.7 2.72-1.7 1.98 0 3.02.88 3.24 2.54h2.38c-.2-2.94-2.48-4.58-5.62-4.58-3.12 0-5.08 1.42-5.08 3.96 0 2.72 2.42 3.58 4.66 4.14 2.82.7 4.04 1.02 4.04 2.72 0 1.1-.82 2.04-2.94 2.04-2.56 0-3.8-1.2-3.92-3.02h-2.38c.14 3.24 2.8 5.06 6.3 5.06 3.6 0 5.32-1.9 5.32-4.18 0-3.2-2.32-3.86-5.38-4.64Zm12.92 8.82c4.3 0 7.02-3.16 7.02-7.46s-2.72-7.44-7.02-7.44c-4.32 0-7.02 3.14-7.02 7.44 0 4.3 2.7 7.46 7.02 7.46Zm0-2.04c-3.28 0-4.66-2.52-4.66-5.42 0-2.88 1.38-5.4 4.66-5.4 3.28 0 4.64 2.52 4.64 5.4 0 2.9-1.36 5.42-4.64 5.42Zm10.49-6.38v-4.16h7.62v-2.02h-10v14.3h2.38v-6.08h6.18v-2.04h-6.18Zm14.63 8.42c4.3 0 7.02-3.16 7.02-7.46s-2.72-7.44-7.02-7.44c-4.32 0-7.02 3.14-7.02 7.44 0 4.3 2.7 7.46 7.02 7.46Zm0-2.04c-3.28 0-4.66-2.52-4.66-5.42 0-2.88 1.38-5.4 4.66-5.4 3.28 0 4.64 2.52 4.64 5.4 0 2.9-1.36 5.42-4.64 5.42Zm8.11 1.74h2.38v-5.52h3.5c3.44 0 2.1 4.92 2.76 5.52h2.5v-.14c-.76-.24.44-5.84-2.86-6.46v-.04c1.64-.4 2.66-1.56 2.66-3.56 0-2.6-1.9-4.1-4.84-4.1h-6.1v14.3Zm2.38-12.28h3.22c1.46 0 2.98.3 2.98 2.36 0 2.08-1.52 2.36-2.98 2.36h-3.22v-4.72Zm141.17 12.28h2.38v-5.72h3.7c2.74 0 4.72-1.3 4.72-4.3s-1.98-4.28-4.72-4.28h-6.08v14.3Zm2.38-12.28h3.6c1.6 0 2.44.7 2.44 2.26 0 1.58-.84 2.26-2.44 2.26h-3.6v-4.52Zm9.2 12.28h2.38v-5.52h3.5c3.44 0 2.1 4.92 2.76 5.52h2.5v-.14c-.76-.24.44-5.84-2.86-6.46v-.04c1.64-.4 2.66-1.56 2.66-3.56 0-2.6-1.9-4.1-4.84-4.1h-6.1v14.3Zm2.38-12.28h3.22c1.46 0 2.98.3 2.98 2.36 0 2.08-1.52 2.36-2.98 2.36h-3.22v-4.72Zm9.75-2.02v14.3h2.38v-14.3h-2.38Zm7.35 14.3h2.38v-12.28h4.56v-2.02h-11.52v2.02h4.58V1596Zm7.77-14.3v14.3h2.38v-6.34h6.76v6.34h2.38v-14.3h-2.38v5.92h-6.76v-5.92h-2.38Zm13.2 0v14.3h2.38v-14.3h-2.38Zm14.82 3.6c0-2.3-1.7-3.6-4.64-3.6h-6.14v14.3h6.48c2.96 0 4.86-1.42 4.86-4.18 0-2.14-1.28-3.24-2.78-3.5v-.04c1.18-.4 2.22-1.22 2.22-2.98Zm-8.4 2.32v-3.9h3.82c1.42 0 2.2.7 2.2 1.96s-.64 1.94-2.34 1.94h-3.68Zm0 1.78h4.18c1.5 0 2.4.82 2.4 2.28 0 1.34-.62 2.3-2.66 2.3h-3.92v-4.58Zm9.93-7.7v14.3h2.38v-14.3h-2.38Z" fill="#131313"/></g><defs><clipPath id="a"><path d="M0 0h1260v1080H0z" fill="#fff" transform="translate(450 540)"/></clipPath></defs></svg>