<svg xmlns="http://www.w3.org/2000/svg" width="21" height="21" fill="none" viewBox="0 0 21 21"><path fill="#FECDB3" d="M0.66115 20.0425L2.31936 13.854L6.84966 18.3843L0.66115 20.0425Z"/><path fill="#131313" d="M0.66115 20.0425L1.17577 18.1219L2.58172 19.5279L0.66115 20.0425Z"/><path fill="#DFDFDF" d="M13.8292 2.36483L12.5665 3.62752L17.0761 8.13713L18.3388 6.87444L13.8292 2.36483Z"/><path fill="#FAAF3B" d="M2.3748 13.9996C2.32499 13.9498 2.32499 13.869 2.3748 13.8192L12.5665 3.62752C12.6163 3.57771 12.6971 3.57771 12.7469 3.62752L13.8067 4.68728L3.43456 15.0594L2.3748 13.9996Z"/><path fill="#FAAF3B" d="M17.0761 7.95674C17.1259 8.00656 17.1259 8.08732 17.0761 8.13713L6.88441 18.3288C6.8346 18.3787 6.75384 18.3787 6.70403 18.3288L5.62172 17.2465L15.9938 6.87444L17.0761 7.95674Z"/><path fill="#F6A23A" d="M3.36691 14.9917L13.739 4.61963L15.9938 6.87444L5.62172 17.2465L3.36691 14.9917Z"/><path fill="#D22F2F" d="M18.3388 6.87444L20.4132 4.80002C20.5129 4.7004 20.5129 4.53887 20.4132 4.43925L16.2644 0.290408C16.1648 0.190784 16.0033 0.190784 15.9036 0.290407L13.8292 2.36483L18.3388 6.87444Z"/></svg>