<svg width="750" height="450" viewBox="0 0 750 450" fill="none" xmlns="http://www.w3.org/2000/svg">
<rect width="750" height="450" fill="#252525"/>
<path d="M314.005 220.275V231H320.98V229.8H315.355V220.275H314.005ZM325.882 231.21C329.032 231.21 331.132 228.855 331.132 225.63C331.132 222.405 329.032 220.065 325.882 220.065C322.732 220.065 320.632 222.405 320.632 225.63C320.632 228.855 322.732 231.21 325.882 231.21ZM325.882 230.01C323.182 230.01 321.982 227.94 321.982 225.63C321.982 223.32 323.182 221.265 325.882 221.265C328.582 221.265 329.782 223.32 329.782 225.63C329.782 227.94 328.582 230.01 325.882 230.01ZM337.824 228.315L338.769 231H340.164L336.219 220.275H334.719L330.759 231H332.154L333.099 228.315H337.824ZM333.549 227.115L335.454 221.52H335.484L337.389 227.115H333.549ZM340.726 231H344.611C347.566 231 349.381 229.095 349.381 225.645C349.381 222.195 347.566 220.275 344.611 220.275H340.726V231ZM342.076 221.475H344.611C347.341 221.475 348.031 223.545 348.031 225.645C348.031 227.745 347.341 229.8 344.611 229.8H342.076V221.475ZM350.409 220.275V231H351.759V220.275H350.409ZM353.193 231H354.543V222.195H354.573L359.928 231H361.578V220.275H360.228V229.11H360.198L354.843 220.275H353.193V231ZM370.806 223.515H372.156C371.781 221.475 370.356 220.065 367.641 220.065C364.671 220.065 362.661 222.405 362.661 225.63C362.661 228.87 364.371 231.21 367.491 231.21C369.141 231.21 370.146 230.61 370.956 229.485H370.986L371.436 231H372.336V225.42H367.491V226.62H370.986C370.986 228.63 369.411 230.01 367.491 230.01C364.791 230.01 364.011 227.655 364.011 225.63C364.011 223.62 365.091 221.265 367.641 221.265C369.261 221.265 370.491 221.985 370.806 223.515ZM378.405 231H379.755V226.515H382.665C384.63 226.515 386.145 225.645 386.145 223.395C386.145 221.145 384.63 220.275 382.665 220.275H378.405V231ZM379.755 221.475H382.815C384.15 221.475 384.795 222.09 384.795 223.395C384.795 224.7 384.15 225.315 382.815 225.315H379.755V221.475ZM386.843 231H388.193V226.665H391.268C393.983 226.665 392.963 230.55 393.428 231H394.883V230.91C394.328 230.73 395.198 226.515 392.813 226.05V226.02C393.998 225.72 394.733 224.865 394.733 223.32C394.733 221.415 393.308 220.275 391.193 220.275H386.843V231ZM388.193 221.475H390.878C391.988 221.475 393.383 221.61 393.383 223.47C393.383 225.33 391.988 225.465 390.878 225.465H388.193V221.475ZM397.085 224.85V221.475H403.31V220.275H395.735V231H403.49V229.8H397.085V226.05H402.59V224.85H397.085ZM403.611 220.275L407.361 231H408.846L412.596 220.275H411.171L408.111 229.65H408.096L405.036 220.275H403.611ZM413.183 220.275V231H414.533V220.275H413.183ZM417.316 224.85V221.475H423.541V220.275H415.966V231H423.721V229.8H417.316V226.05H422.821V224.85H417.316ZM423.902 220.275L426.557 231H428.057L430.532 221.805H430.562L433.037 231H434.537L437.192 220.275H435.767L433.727 229.065H433.697L431.297 220.275H429.797L427.397 229.065H427.367L425.327 220.275H423.902Z" fill="#E2E2E2"/>
</svg>
