<svg width="1260" height="1080" viewBox="0 0 1260 1080" fill="none" xmlns="http://www.w3.org/2000/svg">
<g clip-path="url(#clip0_1436_406)">
<rect width="1260" height="1080" fill="white"/>
<rect width="465" height="1080" fill="#F6EBDE"/>
<path d="M21.32 1016.3C25.22 1016.3 26.88 1013.02 26.88 1009.1C26.88 1005.18 25.22 1001.88 21.32 1001.88C17.42 1001.88 15.76 1005.18 15.76 1009.1C15.76 1013.02 17.42 1016.3 21.32 1016.3ZM21.32 1014.32C18.88 1014.32 18.06 1011.98 18.06 1009.1C18.06 1006.22 18.88 1003.86 21.32 1003.86C23.76 1003.86 24.56 1006.22 24.56 1009.1C24.56 1011.98 23.76 1014.32 21.32 1014.32ZM30.6372 1009.84C32.9572 1009.84 33.9972 1008.02 33.9972 1005.86C33.9972 1003.72 32.9572 1001.88 30.6372 1001.88C28.3572 1001.88 27.2772 1003.72 27.2772 1005.86C27.2772 1008.02 28.3572 1009.84 30.6372 1009.84ZM39.5572 1002.18H37.9572L30.6972 1016H32.2972L39.5572 1002.18ZM30.6372 1008.32C29.5372 1008.32 29.0572 1007.38 29.0572 1005.86C29.0572 1004.34 29.5372 1003.42 30.6372 1003.42C31.7372 1003.42 32.2172 1004.34 32.2172 1005.86C32.2172 1007.38 31.7372 1008.32 30.6372 1008.32ZM39.6172 1016.3C41.9372 1016.3 42.9772 1014.46 42.9772 1012.32C42.9772 1010.16 41.9372 1008.34 39.6172 1008.34C37.3372 1008.34 36.2572 1010.16 36.2572 1012.32C36.2572 1014.46 37.3372 1016.3 39.6172 1016.3ZM39.6172 1014.76C38.5372 1014.76 38.0372 1013.84 38.0372 1012.32C38.0372 1010.8 38.5372 1009.86 39.6172 1009.86C40.7172 1009.86 41.1972 1010.8 41.1972 1012.32C41.1972 1013.84 40.7172 1014.76 39.6172 1014.76ZM61.0041 1016V1012.86H62.9441V1010.9H61.0041V1002.18H58.6841L52.1441 1010.7V1012.86H58.6841V1016H61.0041ZM58.6841 1005.06V1010.9H54.2041L58.6841 1005.06ZM65.7973 1009.84C68.1173 1009.84 69.1573 1008.02 69.1573 1005.86C69.1573 1003.72 68.1173 1001.88 65.7973 1001.88C63.5173 1001.88 62.4373 1003.72 62.4373 1005.86C62.4373 1008.02 63.5173 1009.84 65.7973 1009.84ZM74.7173 1002.18H73.1173L65.8573 1016H67.4573L74.7173 1002.18ZM65.7973 1008.32C64.6973 1008.32 64.2173 1007.38 64.2173 1005.86C64.2173 1004.34 64.6973 1003.42 65.7973 1003.42C66.8973 1003.42 67.3773 1004.34 67.3773 1005.86C67.3773 1007.38 66.8973 1008.32 65.7973 1008.32ZM74.7773 1016.3C77.0973 1016.3 78.1373 1014.46 78.1373 1012.32C78.1373 1010.16 77.0973 1008.34 74.7773 1008.34C72.4973 1008.34 71.4173 1010.16 71.4173 1012.32C71.4173 1014.46 72.4973 1016.3 74.7773 1016.3ZM74.7773 1014.76C73.6973 1014.76 73.1973 1013.84 73.1973 1012.32C73.1973 1010.8 73.6973 1009.86 74.7773 1009.86C75.8773 1009.86 76.3573 1010.8 76.3573 1012.32C76.3573 1013.84 75.8773 1014.76 74.7773 1014.76ZM95.6442 1009.52V1009.56C95.6042 1012.08 95.0242 1014.4 92.5242 1014.4C91.0642 1014.4 90.3442 1013.56 90.2042 1012.5H87.8842C88.1642 1014.58 89.9042 1016.3 92.5042 1016.3C95.9842 1016.3 97.9642 1013.76 97.9642 1009.04C97.9642 1004.9 96.5442 1001.88 92.5042 1001.88C89.4042 1001.88 87.5042 1004 87.5042 1006.72C87.5042 1009.44 89.3642 1011.32 92.0842 1011.32C93.6842 1011.32 94.9642 1010.64 95.6442 1009.52ZM92.5842 1003.78C94.4242 1003.78 95.5242 1004.92 95.5242 1006.56C95.5242 1008.26 94.3042 1009.42 92.4642 1009.42C90.8842 1009.42 89.7642 1008.36 89.7642 1006.6C89.7642 1004.92 90.8042 1003.78 92.5842 1003.78ZM101.661 1009.84C103.981 1009.84 105.021 1008.02 105.021 1005.86C105.021 1003.72 103.981 1001.88 101.661 1001.88C99.3806 1001.88 98.3006 1003.72 98.3006 1005.86C98.3006 1008.02 99.3806 1009.84 101.661 1009.84ZM110.581 1002.18H108.981L101.721 1016H103.321L110.581 1002.18ZM101.661 1008.32C100.561 1008.32 100.081 1007.38 100.081 1005.86C100.081 1004.34 100.561 1003.42 101.661 1003.42C102.761 1003.42 103.241 1004.34 103.241 1005.86C103.241 1007.38 102.761 1008.32 101.661 1008.32ZM110.641 1016.3C112.961 1016.3 114.001 1014.46 114.001 1012.32C114.001 1010.16 112.961 1008.34 110.641 1008.34C108.361 1008.34 107.281 1010.16 107.281 1012.32C107.281 1014.46 108.361 1016.3 110.641 1016.3ZM110.641 1014.76C109.561 1014.76 109.061 1013.84 109.061 1012.32C109.061 1010.8 109.561 1009.86 110.641 1009.86C111.741 1009.86 112.221 1010.8 112.221 1012.32C112.221 1013.84 111.741 1014.76 110.641 1014.76ZM132.028 1016V1012.86H133.968V1010.9H132.028V1002.18H129.708L123.168 1010.7V1012.86H129.708V1016H132.028ZM129.708 1005.06V1010.9H125.228L129.708 1005.06ZM136.821 1009.84C139.141 1009.84 140.181 1008.02 140.181 1005.86C140.181 1003.72 139.141 1001.88 136.821 1001.88C134.541 1001.88 133.461 1003.72 133.461 1005.86C133.461 1008.02 134.541 1009.84 136.821 1009.84ZM145.741 1002.18H144.141L136.881 1016H138.481L145.741 1002.18ZM136.821 1008.32C135.721 1008.32 135.241 1007.38 135.241 1005.86C135.241 1004.34 135.721 1003.42 136.821 1003.42C137.921 1003.42 138.401 1004.34 138.401 1005.86C138.401 1007.38 137.921 1008.32 136.821 1008.32ZM145.801 1016.3C148.121 1016.3 149.161 1014.46 149.161 1012.32C149.161 1010.16 148.121 1008.34 145.801 1008.34C143.521 1008.34 142.441 1010.16 142.441 1012.32C142.441 1014.46 143.521 1016.3 145.801 1016.3ZM145.801 1014.76C144.721 1014.76 144.221 1013.84 144.221 1012.32C144.221 1010.8 144.721 1009.86 145.801 1009.86C146.901 1009.86 147.381 1010.8 147.381 1012.32C147.381 1013.84 146.901 1014.76 145.801 1014.76ZM18.14 1029.08C18.14 1027.18 18.92 1025.86 20.98 1025.86C22.76 1025.86 23.3 1027 23.3 1028.14C23.3 1030.1 21.68 1030.76 19.14 1032.44C17.02 1033.78 15.56 1035.56 15.56 1038H25.48V1036.04H18.58V1036C19.72 1033.18 25.62 1032.44 25.62 1028.04C25.62 1025.4 23.6 1023.88 21.04 1023.88C17.5 1023.88 15.9 1026.1 15.9 1029.08H18.14ZM34.3408 1038V1034.86H36.2808V1032.9H34.3408V1024.18H32.0208L25.4808 1032.7V1034.86H32.0208V1038H34.3408ZM32.0208 1027.06V1032.9H27.5408L32.0208 1027.06ZM38.9605 1030.66V1030.62C39.0005 1028.1 39.5805 1025.78 42.0805 1025.78C43.5405 1025.78 44.2605 1026.62 44.4005 1027.68H46.7205C46.4405 1025.6 44.7005 1023.88 42.1005 1023.88C38.6205 1023.88 36.6405 1026.42 36.6405 1031.14C36.6405 1035.28 38.0605 1038.3 42.1005 1038.3C45.2005 1038.3 47.1005 1036.18 47.1005 1033.46C47.1005 1030.74 45.2405 1028.86 42.5205 1028.86C40.9205 1028.86 39.6405 1029.54 38.9605 1030.66ZM42.0205 1036.4C40.1805 1036.4 39.0805 1035.26 39.0805 1033.62C39.0805 1031.92 40.3005 1030.76 42.1405 1030.76C43.7205 1030.76 44.8405 1031.82 44.8405 1033.58C44.8405 1035.26 43.8005 1036.4 42.0205 1036.4ZM49.0192 1038.14C49.0192 1038.9 48.5392 1039.52 47.7992 1039.66V1040.8C49.5392 1040.52 50.2592 1038.86 50.2592 1037.4C50.2592 1036.28 49.7992 1035.56 48.8992 1035.56C48.1792 1035.56 47.5992 1036.04 47.5992 1036.9C47.5992 1037.84 48.2392 1038.28 49.0192 1038.14ZM56.4056 1029.08C56.4056 1027.18 57.1856 1025.86 59.2456 1025.86C61.0256 1025.86 61.5656 1027 61.5656 1028.14C61.5656 1030.1 59.9456 1030.76 57.4056 1032.44C55.2856 1033.78 53.8256 1035.56 53.8256 1038H63.7456V1036.04H56.8456V1036C57.9856 1033.18 63.8856 1032.44 63.8856 1028.04C63.8856 1025.4 61.8656 1023.88 59.3056 1023.88C55.7656 1023.88 54.1656 1026.1 54.1656 1029.08H56.4056ZM66.7147 1028.36C66.7147 1027 67.4147 1025.86 69.5947 1025.86C71.2347 1025.86 71.9547 1026.74 71.9547 1027.88C71.9547 1029.3 70.9947 1029.9 69.5547 1029.9H68.3947V1031.74H69.6347C71.0547 1031.74 72.4347 1032.16 72.4347 1034.06C72.4347 1035.52 71.6347 1036.32 69.5547 1036.32C67.1947 1036.32 66.3347 1035.12 66.3347 1033.26H64.0947C64.0947 1036.44 66.0747 1038.3 69.7147 1038.3C72.7147 1038.3 74.7347 1036.84 74.7347 1034.12C74.7347 1032.48 74.0747 1031.24 72.1947 1030.7V1030.66C73.5147 1030.1 74.2747 1029.18 74.2747 1027.7C74.2747 1025.26 72.1147 1023.88 69.6747 1023.88C66.2147 1023.88 64.4547 1025.78 64.4547 1028.36H66.7147ZM80.8372 1028.68C79.3972 1028.68 78.3772 1029.14 77.6572 1029.88V1029.84L78.3972 1026.14H84.6172V1024.18H76.6572L75.1572 1031.72H77.4972C78.1572 1030.9 79.1372 1030.52 80.2172 1030.52C81.8972 1030.52 82.9972 1031.4 82.9972 1033.28C82.9972 1035.28 81.7972 1036.32 80.0972 1036.32C78.1772 1036.32 77.3572 1035.16 77.2172 1033.92H74.9172C74.9972 1036.3 76.8372 1038.3 80.2172 1038.3C83.0972 1038.3 85.3172 1036.38 85.3172 1033.3C85.3172 1030.6 83.4972 1028.68 80.8372 1028.68ZM87.3239 1038.14C87.3239 1038.9 86.8439 1039.52 86.1039 1039.66V1040.8C87.8439 1040.52 88.5639 1038.86 88.5639 1037.4C88.5639 1036.28 88.1039 1035.56 87.2039 1035.56C86.4839 1035.56 85.9039 1036.04 85.9039 1036.9C85.9039 1037.84 86.5439 1038.28 87.3239 1038.14ZM94.7103 1029.08C94.7103 1027.18 95.4903 1025.86 97.5503 1025.86C99.3303 1025.86 99.8703 1027 99.8703 1028.14C99.8703 1030.1 98.2503 1030.76 95.7103 1032.44C93.5903 1033.78 92.1303 1035.56 92.1303 1038H102.05V1036.04H95.1503V1036C96.2903 1033.18 102.19 1032.44 102.19 1028.04C102.19 1025.4 100.17 1023.88 97.6103 1023.88C94.0703 1023.88 92.4703 1026.1 92.4703 1029.08H94.7103ZM105.258 1029.08C105.258 1027.18 106.038 1025.86 108.098 1025.86C109.878 1025.86 110.418 1027 110.418 1028.14C110.418 1030.1 108.798 1030.76 106.258 1032.44C104.138 1033.78 102.678 1035.56 102.678 1038H112.598V1036.04H105.698V1036C106.838 1033.18 112.738 1032.44 112.738 1028.04C112.738 1025.4 110.718 1023.88 108.158 1023.88C104.618 1023.88 103.018 1026.1 103.018 1029.08H105.258ZM115.806 1029.08C115.806 1027.18 116.586 1025.86 118.646 1025.86C120.426 1025.86 120.966 1027 120.966 1028.14C120.966 1030.1 119.346 1030.76 116.806 1032.44C114.686 1033.78 113.226 1035.56 113.226 1038H123.146V1036.04H116.246V1036C117.386 1033.18 123.286 1032.44 123.286 1028.04C123.286 1025.4 121.266 1023.88 118.706 1023.88C115.166 1023.88 113.566 1026.1 113.566 1029.08H115.806ZM25.82 1051.62L26.16 1049.9H24.28L25.04 1046.18H23.3L22.56 1049.9H20.36L21.12 1046.18H19.4L18.64 1049.9H16.66L16.32 1051.62H18.3L17.72 1054.52H15.9L15.58 1056.24H17.36L16.6 1060H18.32L19.08 1056.24H21.28L20.52 1060H22.24L23 1056.24H25.1L25.42 1054.52H23.36L23.94 1051.62H25.82ZM21.62 1054.52H19.44L20.02 1051.62H22.2L21.62 1054.52ZM29.5187 1051.88V1047.72H37.1388V1045.7H27.1387V1060H29.5187V1053.92H35.6988V1051.88H29.5187ZM39.9175 1052.66V1052.62C39.9575 1050.1 40.5375 1047.78 43.0375 1047.78C44.4975 1047.78 45.2175 1048.62 45.3575 1049.68H47.6775C47.3975 1047.6 45.6575 1045.88 43.0575 1045.88C39.5775 1045.88 37.5975 1048.42 37.5975 1053.14C37.5975 1057.28 39.0175 1060.3 43.0575 1060.3C46.1575 1060.3 48.0575 1058.18 48.0575 1055.46C48.0575 1052.74 46.1975 1050.86 43.4775 1050.86C41.8775 1050.86 40.5975 1051.54 39.9175 1052.66ZM42.9775 1058.4C41.1375 1058.4 40.0375 1057.26 40.0375 1055.62C40.0375 1053.92 41.2575 1052.76 43.0975 1052.76C44.6775 1052.76 45.7975 1053.82 45.7975 1055.58C45.7975 1057.26 44.7575 1058.4 42.9775 1058.4ZM51.5125 1051.6V1047.72H59.4725V1045.7H49.1325V1060H59.6725V1057.98H51.5125V1053.64H58.4925V1051.6H51.5125ZM71.593 1049.3C71.593 1047 69.893 1045.7 66.953 1045.7H60.813V1060H67.293C70.253 1060 72.153 1058.58 72.153 1055.82C72.153 1053.68 70.873 1052.58 69.373 1052.32V1052.28C70.553 1051.88 71.593 1051.06 71.593 1049.3ZM63.193 1051.62V1047.72H67.013C68.433 1047.72 69.213 1048.42 69.213 1049.68C69.213 1050.94 68.573 1051.62 66.873 1051.62H63.193ZM63.193 1053.4H67.373C68.873 1053.4 69.773 1054.22 69.773 1055.68C69.773 1057.02 69.153 1057.98 67.113 1057.98H63.193V1053.4ZM73.0794 1060H78.6994C82.6594 1060 84.9994 1057.46 84.9994 1052.86C84.9994 1048.26 82.5794 1045.7 78.6394 1045.7H73.0794V1060ZM75.4594 1047.72H78.5194C81.7194 1047.72 82.6194 1050.12 82.6194 1052.86C82.6194 1055.6 81.7194 1057.98 78.5194 1057.98H75.4594V1047.72ZM88.4875 1051.6V1047.72H96.4475V1045.7H86.1075V1060H96.6475V1057.98H88.4875V1053.64H95.4675V1051.6H88.4875Z" fill="#1E1E26"/>
<path d="M405.485 33.48C403.485 32.98 402.145 32.7 402.145 31.14C402.145 30.08 403.165 29.44 404.865 29.44C406.845 29.44 407.885 30.32 408.105 31.98H410.485C410.285 29.04 408.005 27.4 404.865 27.4C401.745 27.4 399.785 28.82 399.785 31.36C399.785 34.08 402.205 34.94 404.445 35.5C407.265 36.2 408.485 36.52 408.485 38.22C408.485 39.32 407.665 40.26 405.545 40.26C402.985 40.26 401.745 39.06 401.625 37.24H399.245C399.385 40.48 402.045 42.3 405.545 42.3C409.145 42.3 410.865 40.4 410.865 38.12C410.865 34.92 408.545 34.26 405.485 33.48ZM420.085 38.62L421.245 42H423.665L418.425 27.7H415.925L410.665 42H413.085L414.245 38.62H420.085ZM414.905 36.64L417.165 29.88H417.205L419.445 36.64H414.905ZM424.227 42H426.607V31.3H426.647L433.107 42H435.747V27.7H433.367V38.44H433.327L426.887 27.7H424.227V42ZM437.392 42H443.012C446.972 42 449.312 39.46 449.312 34.86C449.312 30.26 446.892 27.7 442.952 27.7H437.392V42ZM439.772 29.72H442.832C446.032 29.72 446.932 32.12 446.932 34.86C446.932 37.6 446.032 39.98 442.832 39.98H439.772V29.72Z" fill="#1E1E26"/>
<rect x="465" width="795" height="705" fill="#212B32"/>
<path d="M1155.82 27.7L1160.7 42H1163.28L1168.16 27.7H1165.64L1162 39.4H1161.98L1158.34 27.7H1155.82ZM1174.47 42.3C1178.77 42.3 1181.49 39.14 1181.49 34.84C1181.49 30.54 1178.77 27.4 1174.47 27.4C1170.15 27.4 1167.45 30.54 1167.45 34.84C1167.45 39.14 1170.15 42.3 1174.47 42.3ZM1174.47 40.26C1171.19 40.26 1169.81 37.74 1169.81 34.84C1169.81 31.96 1171.19 29.44 1174.47 29.44C1177.75 29.44 1179.11 31.96 1179.11 34.84C1179.11 37.74 1177.75 40.26 1174.47 40.26ZM1182.58 27.7V42H1192.1V39.98H1184.96V27.7H1182.58ZM1202.12 32.62H1204.5C1204.16 29.7 1201.96 27.4 1198.34 27.4C1194.22 27.4 1191.62 30.54 1191.62 34.84C1191.62 39.16 1194.22 42.3 1198.34 42.3C1201.98 42.3 1204.18 40 1204.5 36.78H1202.12C1201.96 38.52 1200.94 40.26 1198.28 40.26C1195.2 40.26 1193.98 37.68 1193.98 34.84C1193.98 32.02 1195.2 29.44 1198.28 29.44C1200.92 29.44 1201.86 31.18 1202.12 32.62ZM1213.43 38.62L1214.59 42H1217.01L1211.77 27.7H1209.27L1204.01 42H1206.43L1207.59 38.62H1213.43ZM1208.25 36.64L1210.51 29.88H1210.55L1212.79 36.64H1208.25ZM1217.57 42H1219.95V31.3H1219.99L1226.45 42H1229.09V27.7H1226.71V38.44H1226.67L1220.23 27.7H1217.57V42ZM1237.31 42.3C1241.61 42.3 1244.33 39.14 1244.33 34.84C1244.33 30.54 1241.61 27.4 1237.31 27.4C1232.99 27.4 1230.29 30.54 1230.29 34.84C1230.29 39.14 1232.99 42.3 1237.31 42.3ZM1237.31 40.26C1234.03 40.26 1232.65 37.74 1232.65 34.84C1232.65 31.96 1234.03 29.44 1237.31 29.44C1240.59 29.44 1241.95 31.96 1241.95 34.84C1241.95 37.74 1240.59 40.26 1237.31 40.26Z" fill="#F6EBDE"/>
<path d="M480.42 627.18V629.14H487.66V629.18C485.2 631.36 482.48 636.44 482.48 641H484.92C484.92 636.6 487.04 631.56 490.18 628.94V627.18H480.42ZM493.879 634.84C496.199 634.84 497.239 633.02 497.239 630.86C497.239 628.72 496.199 626.88 493.879 626.88C491.599 626.88 490.519 628.72 490.519 630.86C490.519 633.02 491.599 634.84 493.879 634.84ZM502.799 627.18H501.199L493.939 641H495.539L502.799 627.18ZM493.879 633.32C492.779 633.32 492.299 632.38 492.299 630.86C492.299 629.34 492.779 628.42 493.879 628.42C494.979 628.42 495.459 629.34 495.459 630.86C495.459 632.38 494.979 633.32 493.879 633.32ZM502.859 641.3C505.179 641.3 506.219 639.46 506.219 637.32C506.219 635.16 505.179 633.34 502.859 633.34C500.579 633.34 499.499 635.16 499.499 637.32C499.499 639.46 500.579 641.3 502.859 641.3ZM502.859 639.76C501.779 639.76 501.279 638.84 501.279 637.32C501.279 635.8 501.779 634.86 502.859 634.86C503.959 634.86 504.439 635.8 504.439 637.32C504.439 638.84 503.959 639.76 502.859 639.76ZM517.866 631.36C517.866 630 518.566 628.86 520.746 628.86C522.386 628.86 523.106 629.74 523.106 630.88C523.106 632.3 522.146 632.9 520.706 632.9H519.546V634.74H520.786C522.206 634.74 523.586 635.16 523.586 637.06C523.586 638.52 522.786 639.32 520.706 639.32C518.346 639.32 517.486 638.12 517.486 636.26H515.246C515.246 639.44 517.226 641.3 520.866 641.3C523.866 641.3 525.886 639.84 525.886 637.12C525.886 635.48 525.226 634.24 523.346 633.7V633.66C524.666 633.1 525.426 632.18 525.426 630.7C525.426 628.26 523.266 626.88 520.826 626.88C517.366 626.88 515.606 628.78 515.606 631.36H517.866ZM529.547 634.84C531.867 634.84 532.907 633.02 532.907 630.86C532.907 628.72 531.867 626.88 529.547 626.88C527.267 626.88 526.187 628.72 526.187 630.86C526.187 633.02 527.267 634.84 529.547 634.84ZM538.467 627.18H536.867L529.607 641H531.207L538.467 627.18ZM529.547 633.32C528.447 633.32 527.967 632.38 527.967 630.86C527.967 629.34 528.447 628.42 529.547 628.42C530.647 628.42 531.127 629.34 531.127 630.86C531.127 632.38 530.647 633.32 529.547 633.32ZM538.527 641.3C540.847 641.3 541.887 639.46 541.887 637.32C541.887 635.16 540.847 633.34 538.527 633.34C536.247 633.34 535.167 635.16 535.167 637.32C535.167 639.46 536.247 641.3 538.527 641.3ZM538.527 639.76C537.447 639.76 536.947 638.84 536.947 637.32C536.947 635.8 537.447 634.86 538.527 634.86C539.627 634.86 540.107 635.8 540.107 637.32C540.107 638.84 539.627 639.76 538.527 639.76ZM556.894 641.3C560.794 641.3 562.454 638.02 562.454 634.1C562.454 630.18 560.794 626.88 556.894 626.88C552.994 626.88 551.334 630.18 551.334 634.1C551.334 638.02 552.994 641.3 556.894 641.3ZM556.894 639.32C554.454 639.32 553.634 636.98 553.634 634.1C553.634 631.22 554.454 628.86 556.894 628.86C559.334 628.86 560.134 631.22 560.134 634.1C560.134 636.98 559.334 639.32 556.894 639.32ZM566.211 634.84C568.531 634.84 569.571 633.02 569.571 630.86C569.571 628.72 568.531 626.88 566.211 626.88C563.931 626.88 562.851 628.72 562.851 630.86C562.851 633.02 563.931 634.84 566.211 634.84ZM575.131 627.18H573.531L566.271 641H567.871L575.131 627.18ZM566.211 633.32C565.111 633.32 564.631 632.38 564.631 630.86C564.631 629.34 565.111 628.42 566.211 628.42C567.311 628.42 567.791 629.34 567.791 630.86C567.791 632.38 567.311 633.32 566.211 633.32ZM575.191 641.3C577.511 641.3 578.551 639.46 578.551 637.32C578.551 635.16 577.511 633.34 575.191 633.34C572.911 633.34 571.831 635.16 571.831 637.32C571.831 639.46 572.911 641.3 575.191 641.3ZM575.191 639.76C574.111 639.76 573.611 638.84 573.611 637.32C573.611 635.8 574.111 634.86 575.191 634.86C576.291 634.86 576.771 635.8 576.771 637.32C576.771 638.84 576.291 639.76 575.191 639.76ZM587.818 637.1C587.818 639.9 590.138 641.3 593.158 641.3C596.178 641.3 598.518 639.9 598.518 637.1C598.518 635.2 597.238 634.22 595.938 633.64V633.6C596.898 633.08 597.838 632.22 597.838 630.66C597.838 628.28 595.858 626.88 593.158 626.88C590.458 626.88 588.478 628.28 588.478 630.66C588.478 632.22 589.398 633.08 590.378 633.6V633.64C589.058 634.22 587.818 635.2 587.818 637.1ZM593.158 632.78C591.618 632.78 590.658 632.1 590.658 630.76C590.658 629.44 591.618 628.72 593.158 628.72C594.698 628.72 595.658 629.44 595.658 630.76C595.658 632.1 594.698 632.78 593.158 632.78ZM593.158 639.4C591.298 639.4 590.118 638.48 590.118 636.96C590.118 635.46 591.298 634.54 593.158 634.54C595.038 634.54 596.198 635.46 596.198 636.96C596.198 638.48 595.038 639.4 593.158 639.4ZM604.438 641.3C608.338 641.3 609.998 638.02 609.998 634.1C609.998 630.18 608.338 626.88 604.438 626.88C600.538 626.88 598.878 630.18 598.878 634.1C598.878 638.02 600.538 641.3 604.438 641.3ZM604.438 639.32C601.998 639.32 601.178 636.98 601.178 634.1C601.178 631.22 601.998 628.86 604.438 628.86C606.878 628.86 607.678 631.22 607.678 634.1C607.678 636.98 606.878 639.32 604.438 639.32ZM613.755 634.84C616.075 634.84 617.115 633.02 617.115 630.86C617.115 628.72 616.075 626.88 613.755 626.88C611.475 626.88 610.395 628.72 610.395 630.86C610.395 633.02 611.475 634.84 613.755 634.84ZM622.675 627.18H621.075L613.815 641H615.415L622.675 627.18ZM613.755 633.32C612.655 633.32 612.175 632.38 612.175 630.86C612.175 629.34 612.655 628.42 613.755 628.42C614.855 628.42 615.335 629.34 615.335 630.86C615.335 632.38 614.855 633.32 613.755 633.32ZM622.735 641.3C625.055 641.3 626.095 639.46 626.095 637.32C626.095 635.16 625.055 633.34 622.735 633.34C620.455 633.34 619.375 635.16 619.375 637.32C619.375 639.46 620.455 641.3 622.735 641.3ZM622.735 639.76C621.655 639.76 621.155 638.84 621.155 637.32C621.155 635.8 621.655 634.86 622.735 634.86C623.835 634.86 624.315 635.8 624.315 637.32C624.315 638.84 623.835 639.76 622.735 639.76ZM482.96 653.36C482.96 652 483.66 650.86 485.84 650.86C487.48 650.86 488.2 651.74 488.2 652.88C488.2 654.3 487.24 654.9 485.8 654.9H484.64V656.74H485.88C487.3 656.74 488.68 657.16 488.68 659.06C488.68 660.52 487.88 661.32 485.8 661.32C483.44 661.32 482.58 660.12 482.58 658.26H480.34C480.34 661.44 482.32 663.3 485.96 663.3C488.96 663.3 490.98 661.84 490.98 659.12C490.98 657.48 490.32 656.24 488.44 655.7V655.66C489.76 655.1 490.52 654.18 490.52 652.7C490.52 650.26 488.36 648.88 485.92 648.88C482.46 648.88 480.7 650.78 480.7 653.36H482.96ZM493.722 653.36C493.722 652 494.423 650.86 496.603 650.86C498.243 650.86 498.963 651.74 498.963 652.88C498.963 654.3 498.003 654.9 496.563 654.9H495.402V656.74H496.642C498.062 656.74 499.443 657.16 499.443 659.06C499.443 660.52 498.643 661.32 496.563 661.32C494.202 661.32 493.342 660.12 493.342 658.26H491.102C491.102 661.44 493.082 663.3 496.722 663.3C499.723 663.3 501.743 661.84 501.743 659.12C501.743 657.48 501.083 656.24 499.203 655.7V655.66C500.523 655.1 501.283 654.18 501.283 652.7C501.283 650.26 499.123 648.88 496.682 648.88C493.222 648.88 491.462 650.78 491.462 653.36H493.722ZM503.745 663.14C503.745 663.9 503.265 664.52 502.525 664.66V665.8C504.265 665.52 504.985 663.86 504.985 662.4C504.985 661.28 504.525 660.56 503.625 660.56C502.905 660.56 502.325 661.04 502.325 661.9C502.325 662.84 502.965 663.28 503.745 663.14ZM517.331 663V659.86H519.271V657.9H517.331V649.18H515.011L508.471 657.7V659.86H515.011V663H517.331ZM515.011 652.06V657.9H510.531L515.011 652.06ZM521.831 653.36C521.831 652 522.531 650.86 524.711 650.86C526.351 650.86 527.071 651.74 527.071 652.88C527.071 654.3 526.111 654.9 524.671 654.9H523.511V656.74H524.751C526.171 656.74 527.551 657.16 527.551 659.06C527.551 660.52 526.751 661.32 524.671 661.32C522.311 661.32 521.451 660.12 521.451 658.26H519.211C519.211 661.44 521.191 663.3 524.831 663.3C527.831 663.3 529.851 661.84 529.851 659.12C529.851 657.48 529.191 656.24 527.311 655.7V655.66C528.631 655.1 529.391 654.18 529.391 652.7C529.391 650.26 527.231 648.88 524.791 648.88C521.331 648.88 519.571 650.78 519.571 653.36H521.831ZM531.854 663.14C531.854 663.9 531.374 664.52 530.634 664.66V665.8C532.374 665.52 533.094 663.86 533.094 662.4C533.094 661.28 532.634 660.56 531.734 660.56C531.014 660.56 530.434 661.04 530.434 661.9C530.434 662.84 531.074 663.28 531.854 663.14ZM542.42 653.68C540.98 653.68 539.96 654.14 539.24 654.88V654.84L539.98 651.14H546.2V649.18H538.24L536.74 656.72H539.08C539.74 655.9 540.72 655.52 541.8 655.52C543.48 655.52 544.58 656.4 544.58 658.28C544.58 660.28 543.38 661.32 541.68 661.32C539.76 661.32 538.94 660.16 538.8 658.92H536.5C536.58 661.3 538.42 663.3 541.8 663.3C544.68 663.3 546.9 661.38 546.9 658.3C546.9 655.6 545.08 653.68 542.42 653.68ZM553.007 663.3C556.907 663.3 558.567 660.02 558.567 656.1C558.567 652.18 556.907 648.88 553.007 648.88C549.107 648.88 547.447 652.18 547.447 656.1C547.447 660.02 549.107 663.3 553.007 663.3ZM553.007 661.32C550.567 661.32 549.747 658.98 549.747 656.1C549.747 653.22 550.567 650.86 553.007 650.86C555.447 650.86 556.247 653.22 556.247 656.1C556.247 658.98 555.447 661.32 553.007 661.32ZM490.82 676.62L491.16 674.9H489.28L490.04 671.18H488.3L487.56 674.9H485.36L486.12 671.18H484.4L483.64 674.9H481.66L481.32 676.62H483.3L482.72 679.52H480.9L480.58 681.24H482.36L481.6 685H483.32L484.08 681.24H486.28L485.52 685H487.24L488 681.24H490.1L490.42 679.52H488.36L488.94 676.62H490.82ZM486.62 679.52H484.44L485.02 676.62H487.2L486.62 679.52ZM494.059 676.08C494.059 674.18 494.839 672.86 496.899 672.86C498.679 672.86 499.219 674 499.219 675.14C499.219 677.1 497.599 677.76 495.059 679.44C492.939 680.78 491.479 682.56 491.479 685H501.399V683.04H494.499V683C495.639 680.18 501.539 679.44 501.539 675.04C501.539 672.4 499.519 670.88 496.959 670.88C493.419 670.88 491.819 673.1 491.819 676.08H494.059ZM505.446 671.18C505.306 672.88 504.586 674.12 502.086 674.12V675.78C503.246 675.78 504.166 675.78 504.986 674.98V685H507.306V671.18H505.446ZM511.111 676.08C511.111 674.18 511.891 672.86 513.951 672.86C515.731 672.86 516.271 674 516.271 675.14C516.271 677.1 514.651 677.76 512.111 679.44C509.991 680.78 508.531 682.56 508.531 685H518.451V683.04H511.551V683C512.691 680.18 518.591 679.44 518.591 675.04C518.591 672.4 516.571 670.88 514.011 670.88C510.471 670.88 508.871 673.1 508.871 676.08H511.111ZM530.46 674.3C530.46 672 528.76 670.7 525.82 670.7H519.68V685H526.16C529.12 685 531.02 683.58 531.02 680.82C531.02 678.68 529.74 677.58 528.24 677.32V677.28C529.42 676.88 530.46 676.06 530.46 674.3ZM522.06 676.62V672.72H525.88C527.3 672.72 528.08 673.42 528.08 674.68C528.08 675.94 527.44 676.62 525.74 676.62H522.06ZM522.06 678.4H526.24C527.74 678.4 528.64 679.22 528.64 680.68C528.64 682.02 528.02 682.98 525.98 682.98H522.06V678.4ZM533.687 675.36C533.687 674 534.387 672.86 536.567 672.86C538.207 672.86 538.927 673.74 538.927 674.88C538.927 676.3 537.967 676.9 536.527 676.9H535.367V678.74H536.607C538.027 678.74 539.407 679.16 539.407 681.06C539.407 682.52 538.607 683.32 536.527 683.32C534.167 683.32 533.307 682.12 533.307 680.26H531.067C531.067 683.44 533.047 685.3 536.687 685.3C539.687 685.3 541.707 683.84 541.707 681.12C541.707 679.48 541.047 678.24 539.167 677.7V677.66C540.487 677.1 541.247 676.18 541.247 674.7C541.247 672.26 539.087 670.88 536.647 670.88C533.187 670.88 531.427 672.78 531.427 675.36H533.687ZM544.629 676.08C544.629 674.18 545.409 672.86 547.469 672.86C549.249 672.86 549.789 674 549.789 675.14C549.789 677.1 548.169 677.76 545.629 679.44C543.509 680.78 542.049 682.56 542.049 685H551.969V683.04H545.069V683C546.209 680.18 552.109 679.44 552.109 675.04C552.109 672.4 550.089 670.88 547.529 670.88C543.989 670.88 542.389 673.1 542.389 676.08H544.629Z" fill="#F6EBDE"/>
<rect x="465" y="705" width="475" height="375" fill="#FFF7ED"/>
<path d="M841.547 743H843.927V732.3H843.967L850.427 743H853.067V728.7H850.687V739.44H850.647L844.207 728.7H841.547V743ZM857.092 734.6V730.72H865.052V728.7H854.712V743H865.252V740.98H857.092V736.64H864.072V734.6H857.092ZM877.473 738.12V728.7H875.113V738.12C875.113 740.28 874.033 741.26 871.833 741.26C869.653 741.26 868.573 740.28 868.573 738.12V728.7H866.193V738.12C866.193 741.24 867.853 743.3 871.833 743.3C875.813 743.3 877.473 741.24 877.473 738.12ZM882.692 743H885.072V730.72H889.632V728.7H878.112V730.72H882.692V743ZM890.457 743H892.837V737.48H896.337C899.777 737.48 898.437 742.4 899.097 743H901.597V742.86C900.837 742.62 902.037 737.02 898.737 736.4V736.36C900.377 735.96 901.397 734.8 901.397 732.8C901.397 730.2 899.497 728.7 896.557 728.7H890.457V743ZM892.837 730.72H896.057C897.517 730.72 899.037 731.02 899.037 733.08C899.037 735.16 897.517 735.44 896.057 735.44H892.837V730.72ZM910.926 739.62L912.086 743H914.506L909.266 728.7H906.766L901.506 743H903.926L905.086 739.62H910.926ZM905.746 737.64L908.006 730.88H908.046L910.286 737.64H905.746ZM915.068 728.7V743H924.588V740.98H917.448V728.7H915.068Z" fill="#1E1E26"/>
<path d="M486.32 1016.3C490.22 1016.3 491.88 1013.02 491.88 1009.1C491.88 1005.18 490.22 1001.88 486.32 1001.88C482.42 1001.88 480.76 1005.18 480.76 1009.1C480.76 1013.02 482.42 1016.3 486.32 1016.3ZM486.32 1014.32C483.88 1014.32 483.06 1011.98 483.06 1009.1C483.06 1006.22 483.88 1003.86 486.32 1003.86C488.76 1003.86 489.56 1006.22 489.56 1009.1C489.56 1011.98 488.76 1014.32 486.32 1014.32ZM495.637 1009.84C497.957 1009.84 498.997 1008.02 498.997 1005.86C498.997 1003.72 497.957 1001.88 495.637 1001.88C493.357 1001.88 492.277 1003.72 492.277 1005.86C492.277 1008.02 493.357 1009.84 495.637 1009.84ZM504.557 1002.18H502.957L495.697 1016H497.297L504.557 1002.18ZM495.637 1008.32C494.537 1008.32 494.057 1007.38 494.057 1005.86C494.057 1004.34 494.537 1003.42 495.637 1003.42C496.737 1003.42 497.217 1004.34 497.217 1005.86C497.217 1007.38 496.737 1008.32 495.637 1008.32ZM504.617 1016.3C506.937 1016.3 507.977 1014.46 507.977 1012.32C507.977 1010.16 506.937 1008.34 504.617 1008.34C502.337 1008.34 501.257 1010.16 501.257 1012.32C501.257 1014.46 502.337 1016.3 504.617 1016.3ZM504.617 1014.76C503.537 1014.76 503.037 1013.84 503.037 1012.32C503.037 1010.8 503.537 1009.86 504.617 1009.86C505.717 1009.86 506.197 1010.8 506.197 1012.32C506.197 1013.84 505.717 1014.76 504.617 1014.76ZM519.624 1006.36C519.624 1005 520.324 1003.86 522.504 1003.86C524.144 1003.86 524.864 1004.74 524.864 1005.88C524.864 1007.3 523.904 1007.9 522.464 1007.9H521.304V1009.74H522.544C523.964 1009.74 525.344 1010.16 525.344 1012.06C525.344 1013.52 524.544 1014.32 522.464 1014.32C520.104 1014.32 519.244 1013.12 519.244 1011.26H517.004C517.004 1014.44 518.984 1016.3 522.624 1016.3C525.624 1016.3 527.644 1014.84 527.644 1012.12C527.644 1010.48 526.984 1009.24 525.104 1008.7V1008.66C526.424 1008.1 527.184 1007.18 527.184 1005.7C527.184 1003.26 525.024 1001.88 522.584 1001.88C519.124 1001.88 517.364 1003.78 517.364 1006.36H519.624ZM531.305 1009.84C533.625 1009.84 534.665 1008.02 534.665 1005.86C534.665 1003.72 533.625 1001.88 531.305 1001.88C529.025 1001.88 527.945 1003.72 527.945 1005.86C527.945 1008.02 529.025 1009.84 531.305 1009.84ZM540.225 1002.18H538.625L531.365 1016H532.965L540.225 1002.18ZM531.305 1008.32C530.205 1008.32 529.725 1007.38 529.725 1005.86C529.725 1004.34 530.205 1003.42 531.305 1003.42C532.405 1003.42 532.885 1004.34 532.885 1005.86C532.885 1007.38 532.405 1008.32 531.305 1008.32ZM540.285 1016.3C542.605 1016.3 543.645 1014.46 543.645 1012.32C543.645 1010.16 542.605 1008.34 540.285 1008.34C538.005 1008.34 536.925 1010.16 536.925 1012.32C536.925 1014.46 538.005 1016.3 540.285 1016.3ZM540.285 1014.76C539.205 1014.76 538.705 1013.84 538.705 1012.32C538.705 1010.8 539.205 1009.86 540.285 1009.86C541.385 1009.86 541.865 1010.8 541.865 1012.32C541.865 1013.84 541.385 1014.76 540.285 1014.76ZM552.752 1002.18V1004.14H559.992V1004.18C557.532 1006.36 554.812 1011.44 554.812 1016H557.252C557.252 1011.6 559.372 1006.56 562.512 1003.94V1002.18H552.752ZM566.211 1009.84C568.531 1009.84 569.571 1008.02 569.571 1005.86C569.571 1003.72 568.531 1001.88 566.211 1001.88C563.931 1001.88 562.851 1003.72 562.851 1005.86C562.851 1008.02 563.931 1009.84 566.211 1009.84ZM575.131 1002.18H573.531L566.271 1016H567.871L575.131 1002.18ZM566.211 1008.32C565.111 1008.32 564.631 1007.38 564.631 1005.86C564.631 1004.34 565.111 1003.42 566.211 1003.42C567.311 1003.42 567.791 1004.34 567.791 1005.86C567.791 1007.38 567.311 1008.32 566.211 1008.32ZM575.191 1016.3C577.511 1016.3 578.551 1014.46 578.551 1012.32C578.551 1010.16 577.511 1008.34 575.191 1008.34C572.911 1008.34 571.831 1010.16 571.831 1012.32C571.831 1014.46 572.911 1016.3 575.191 1016.3ZM575.191 1014.76C574.111 1014.76 573.611 1013.84 573.611 1012.32C573.611 1010.8 574.111 1009.86 575.191 1009.86C576.291 1009.86 576.771 1010.8 576.771 1012.32C576.771 1013.84 576.291 1014.76 575.191 1014.76ZM593.558 1016.3C597.458 1016.3 599.118 1013.02 599.118 1009.1C599.118 1005.18 597.458 1001.88 593.558 1001.88C589.658 1001.88 587.998 1005.18 587.998 1009.1C587.998 1013.02 589.658 1016.3 593.558 1016.3ZM593.558 1014.32C591.118 1014.32 590.298 1011.98 590.298 1009.1C590.298 1006.22 591.118 1003.86 593.558 1003.86C595.998 1003.86 596.798 1006.22 596.798 1009.1C596.798 1011.98 595.998 1014.32 593.558 1014.32ZM602.875 1009.84C605.195 1009.84 606.235 1008.02 606.235 1005.86C606.235 1003.72 605.195 1001.88 602.875 1001.88C600.595 1001.88 599.515 1003.72 599.515 1005.86C599.515 1008.02 600.595 1009.84 602.875 1009.84ZM611.795 1002.18H610.195L602.935 1016H604.535L611.795 1002.18ZM602.875 1008.32C601.775 1008.32 601.295 1007.38 601.295 1005.86C601.295 1004.34 601.775 1003.42 602.875 1003.42C603.975 1003.42 604.455 1004.34 604.455 1005.86C604.455 1007.38 603.975 1008.32 602.875 1008.32ZM611.855 1016.3C614.175 1016.3 615.215 1014.46 615.215 1012.32C615.215 1010.16 614.175 1008.34 611.855 1008.34C609.575 1008.34 608.495 1010.16 608.495 1012.32C608.495 1014.46 609.575 1016.3 611.855 1016.3ZM611.855 1014.76C610.775 1014.76 610.275 1013.84 610.275 1012.32C610.275 1010.8 610.775 1009.86 611.855 1009.86C612.955 1009.86 613.435 1010.8 613.435 1012.32C613.435 1013.84 612.955 1014.76 611.855 1014.76ZM483.14 1029.08C483.14 1027.18 483.92 1025.86 485.98 1025.86C487.76 1025.86 488.3 1027 488.3 1028.14C488.3 1030.1 486.68 1030.76 484.14 1032.44C482.02 1033.78 480.56 1035.56 480.56 1038H490.48V1036.04H483.58V1036C484.72 1033.18 490.62 1032.44 490.62 1028.04C490.62 1025.4 488.6 1023.88 486.04 1023.88C482.5 1023.88 480.9 1026.1 480.9 1029.08H483.14ZM496.809 1028.68C495.369 1028.68 494.349 1029.14 493.629 1029.88V1029.84L494.369 1026.14H500.589V1024.18H492.629L491.129 1031.72H493.469C494.129 1030.9 495.109 1030.52 496.189 1030.52C497.869 1030.52 498.969 1031.4 498.969 1033.28C498.969 1035.28 497.769 1036.32 496.069 1036.32C494.149 1036.32 493.329 1035.16 493.189 1033.92H490.889C490.969 1036.3 492.809 1038.3 496.189 1038.3C499.069 1038.3 501.289 1036.38 501.289 1033.3C501.289 1030.6 499.469 1028.68 496.809 1028.68ZM507.396 1028.68C505.956 1028.68 504.936 1029.14 504.216 1029.88V1029.84L504.956 1026.14H511.176V1024.18H503.216L501.716 1031.72H504.056C504.716 1030.9 505.696 1030.52 506.776 1030.52C508.456 1030.52 509.556 1031.4 509.556 1033.28C509.556 1035.28 508.356 1036.32 506.656 1036.32C504.736 1036.32 503.916 1035.16 503.776 1033.92H501.476C501.556 1036.3 503.396 1038.3 506.776 1038.3C509.656 1038.3 511.876 1036.38 511.876 1033.3C511.876 1030.6 510.056 1028.68 507.396 1028.68ZM513.883 1038.14C513.883 1038.9 513.403 1039.52 512.663 1039.66V1040.8C514.403 1040.52 515.123 1038.86 515.123 1037.4C515.123 1036.28 514.663 1035.56 513.763 1035.56C513.043 1035.56 512.463 1036.04 512.463 1036.9C512.463 1037.84 513.103 1038.28 513.883 1038.14ZM521.269 1029.08C521.269 1027.18 522.049 1025.86 524.109 1025.86C525.889 1025.86 526.429 1027 526.429 1028.14C526.429 1030.1 524.809 1030.76 522.269 1032.44C520.149 1033.78 518.689 1035.56 518.689 1038H528.609V1036.04H521.709V1036C522.849 1033.18 528.749 1032.44 528.749 1028.04C528.749 1025.4 526.729 1023.88 524.169 1023.88C520.629 1023.88 519.029 1026.1 519.029 1029.08H521.269ZM537.47 1038V1034.86H539.41V1032.9H537.47V1024.18H535.15L528.61 1032.7V1034.86H535.15V1038H537.47ZM535.15 1027.06V1032.9H530.67L535.15 1027.06ZM539.175 1024.18V1026.14H546.415V1026.18C543.955 1028.36 541.235 1033.44 541.235 1038H543.675C543.675 1033.6 545.795 1028.56 548.935 1025.94V1024.18H539.175ZM549.375 1038.14C549.375 1038.9 548.895 1039.52 548.155 1039.66V1040.8C549.895 1040.52 550.615 1038.86 550.615 1037.4C550.615 1036.28 550.155 1035.56 549.255 1035.56C548.535 1035.56 547.955 1036.04 547.955 1036.9C547.955 1037.84 548.595 1038.28 549.375 1038.14ZM556.761 1029.08C556.761 1027.18 557.541 1025.86 559.601 1025.86C561.381 1025.86 561.921 1027 561.921 1028.14C561.921 1030.1 560.301 1030.76 557.761 1032.44C555.641 1033.78 554.181 1035.56 554.181 1038H564.101V1036.04H557.201V1036C558.341 1033.18 564.241 1032.44 564.241 1028.04C564.241 1025.4 562.221 1023.88 559.661 1023.88C556.121 1023.88 554.521 1026.1 554.521 1029.08H556.761ZM567.07 1028.36C567.07 1027 567.77 1025.86 569.95 1025.86C571.59 1025.86 572.31 1026.74 572.31 1027.88C572.31 1029.3 571.35 1029.9 569.91 1029.9H568.75V1031.74H569.99C571.41 1031.74 572.79 1032.16 572.79 1034.06C572.79 1035.52 571.99 1036.32 569.91 1036.32C567.55 1036.32 566.69 1035.12 566.69 1033.26H564.45C564.45 1036.44 566.43 1038.3 570.07 1038.3C573.07 1038.3 575.09 1036.84 575.09 1034.12C575.09 1032.48 574.43 1031.24 572.55 1030.7V1030.66C573.87 1030.1 574.63 1029.18 574.63 1027.7C574.63 1025.26 572.47 1023.88 570.03 1023.88C566.57 1023.88 564.81 1025.78 564.81 1028.36H567.07ZM575 1024.18V1026.14H582.24V1026.18C579.78 1028.36 577.06 1033.44 577.06 1038H579.5C579.5 1033.6 581.62 1028.56 584.76 1025.94V1024.18H575ZM490.82 1051.62L491.16 1049.9H489.28L490.04 1046.18H488.3L487.56 1049.9H485.36L486.12 1046.18H484.4L483.64 1049.9H481.66L481.32 1051.62H483.3L482.72 1054.52H480.9L480.58 1056.24H482.36L481.6 1060H483.32L484.08 1056.24H486.28L485.52 1060H487.24L488 1056.24H490.1L490.42 1054.52H488.36L488.94 1051.62H490.82ZM486.62 1054.52H484.44L485.02 1051.62H487.2L486.62 1054.52ZM494.519 1051.88V1047.72H502.139V1045.7H492.139V1060H494.519V1053.92H500.699V1051.88H494.519ZM505.437 1051.88V1047.72H513.058V1045.7H503.057V1060H505.437V1053.92H511.618V1051.88H505.437ZM516.356 1051.88V1047.72H523.976V1045.7H513.976V1060H516.356V1053.92H522.536V1051.88H516.356ZM524.095 1046.18V1048.14H531.335V1048.18C528.875 1050.36 526.155 1055.44 526.155 1060H528.595C528.595 1055.6 530.715 1050.56 533.855 1047.94V1046.18H524.095ZM536.944 1051.6V1047.72H544.904V1045.7H534.564V1060H545.104V1057.98H536.944V1053.64H543.924V1051.6H536.944ZM546.244 1060H551.864C555.824 1060 558.164 1057.46 558.164 1052.86C558.164 1048.26 555.744 1045.7 551.804 1045.7H546.244V1060ZM548.624 1047.72H551.684C554.884 1047.72 555.784 1050.12 555.784 1052.86C555.784 1055.6 554.884 1057.98 551.684 1057.98H548.624V1047.72Z" fill="#1E1E26"/>
<rect x="940" y="705" width="320" height="375" fill="white"/>
<path d="M1186.76 728.7L1190.32 743H1192.84L1195.76 731.8H1195.8L1198.74 743H1201.24L1204.82 728.7H1202.38L1199.94 739.78H1199.9L1197 728.7H1194.56L1191.68 739.78H1191.64L1189.2 728.7H1186.76ZM1205.42 728.7V743H1207.8V736.66H1214.56V743H1216.94V728.7H1214.56V734.62H1207.8V728.7H1205.42ZM1218.62 728.7V743H1221V728.7H1218.62ZM1225.98 743H1228.36V730.72H1232.92V728.7H1221.4V730.72H1225.98V743ZM1236.12 734.6V730.72H1244.08V728.7H1233.74V743H1244.28V740.98H1236.12V736.64H1243.1V734.6H1236.12Z" fill="#1E1E26"/>
<path d="M961.32 1016.3C965.22 1016.3 966.88 1013.02 966.88 1009.1C966.88 1005.18 965.22 1001.88 961.32 1001.88C957.42 1001.88 955.76 1005.18 955.76 1009.1C955.76 1013.02 957.42 1016.3 961.32 1016.3ZM961.32 1014.32C958.88 1014.32 958.06 1011.98 958.06 1009.1C958.06 1006.22 958.88 1003.86 961.32 1003.86C963.76 1003.86 964.56 1006.22 964.56 1009.1C964.56 1011.98 963.76 1014.32 961.32 1014.32ZM970.637 1009.84C972.957 1009.84 973.997 1008.02 973.997 1005.86C973.997 1003.72 972.957 1001.88 970.637 1001.88C968.357 1001.88 967.277 1003.72 967.277 1005.86C967.277 1008.02 968.357 1009.84 970.637 1009.84ZM979.557 1002.18H977.957L970.697 1016H972.297L979.557 1002.18ZM970.637 1008.32C969.537 1008.32 969.057 1007.38 969.057 1005.86C969.057 1004.34 969.537 1003.42 970.637 1003.42C971.737 1003.42 972.217 1004.34 972.217 1005.86C972.217 1007.38 971.737 1008.32 970.637 1008.32ZM979.617 1016.3C981.937 1016.3 982.977 1014.46 982.977 1012.32C982.977 1010.16 981.937 1008.34 979.617 1008.34C977.337 1008.34 976.257 1010.16 976.257 1012.32C976.257 1014.46 977.337 1016.3 979.617 1016.3ZM979.617 1014.76C978.537 1014.76 978.037 1013.84 978.037 1012.32C978.037 1010.8 978.537 1009.86 979.617 1009.86C980.717 1009.86 981.197 1010.8 981.197 1012.32C981.197 1013.84 980.717 1014.76 979.617 1014.76ZM997.984 1016.3C1001.88 1016.3 1003.54 1013.02 1003.54 1009.1C1003.54 1005.18 1001.88 1001.88 997.984 1001.88C994.084 1001.88 992.424 1005.18 992.424 1009.1C992.424 1013.02 994.084 1016.3 997.984 1016.3ZM997.984 1014.32C995.544 1014.32 994.724 1011.98 994.724 1009.1C994.724 1006.22 995.544 1003.86 997.984 1003.86C1000.42 1003.86 1001.22 1006.22 1001.22 1009.1C1001.22 1011.98 1000.42 1014.32 997.984 1014.32ZM1007.3 1009.84C1009.62 1009.84 1010.66 1008.02 1010.66 1005.86C1010.66 1003.72 1009.62 1001.88 1007.3 1001.88C1005.02 1001.88 1003.94 1003.72 1003.94 1005.86C1003.94 1008.02 1005.02 1009.84 1007.3 1009.84ZM1016.22 1002.18H1014.62L1007.36 1016H1008.96L1016.22 1002.18ZM1007.3 1008.32C1006.2 1008.32 1005.72 1007.38 1005.72 1005.86C1005.72 1004.34 1006.2 1003.42 1007.3 1003.42C1008.4 1003.42 1008.88 1004.34 1008.88 1005.86C1008.88 1007.38 1008.4 1008.32 1007.3 1008.32ZM1016.28 1016.3C1018.6 1016.3 1019.64 1014.46 1019.64 1012.32C1019.64 1010.16 1018.6 1008.34 1016.28 1008.34C1014 1008.34 1012.92 1010.16 1012.92 1012.32C1012.92 1014.46 1014 1016.3 1016.28 1016.3ZM1016.28 1014.76C1015.2 1014.76 1014.7 1013.84 1014.7 1012.32C1014.7 1010.8 1015.2 1009.86 1016.28 1009.86C1017.38 1009.86 1017.86 1010.8 1017.86 1012.32C1017.86 1013.84 1017.38 1014.76 1016.28 1014.76ZM1034.65 1016.3C1038.55 1016.3 1040.21 1013.02 1040.21 1009.1C1040.21 1005.18 1038.55 1001.88 1034.65 1001.88C1030.75 1001.88 1029.09 1005.18 1029.09 1009.1C1029.09 1013.02 1030.75 1016.3 1034.65 1016.3ZM1034.65 1014.32C1032.21 1014.32 1031.39 1011.98 1031.39 1009.1C1031.39 1006.22 1032.21 1003.86 1034.65 1003.86C1037.09 1003.86 1037.89 1006.22 1037.89 1009.1C1037.89 1011.98 1037.09 1014.32 1034.65 1014.32ZM1043.97 1009.84C1046.29 1009.84 1047.33 1008.02 1047.33 1005.86C1047.33 1003.72 1046.29 1001.88 1043.97 1001.88C1041.69 1001.88 1040.61 1003.72 1040.61 1005.86C1040.61 1008.02 1041.69 1009.84 1043.97 1009.84ZM1052.89 1002.18H1051.29L1044.03 1016H1045.63L1052.89 1002.18ZM1043.97 1008.32C1042.87 1008.32 1042.39 1007.38 1042.39 1005.86C1042.39 1004.34 1042.87 1003.42 1043.97 1003.42C1045.07 1003.42 1045.55 1004.34 1045.55 1005.86C1045.55 1007.38 1045.07 1008.32 1043.97 1008.32ZM1052.95 1016.3C1055.27 1016.3 1056.31 1014.46 1056.31 1012.32C1056.31 1010.16 1055.27 1008.34 1052.95 1008.34C1050.67 1008.34 1049.59 1010.16 1049.59 1012.32C1049.59 1014.46 1050.67 1016.3 1052.95 1016.3ZM1052.95 1014.76C1051.87 1014.76 1051.37 1013.84 1051.37 1012.32C1051.37 1010.8 1051.87 1009.86 1052.95 1009.86C1054.05 1009.86 1054.53 1010.8 1054.53 1012.32C1054.53 1013.84 1054.05 1014.76 1052.95 1014.76ZM1071.31 1016.3C1075.21 1016.3 1076.87 1013.02 1076.87 1009.1C1076.87 1005.18 1075.21 1001.88 1071.31 1001.88C1067.41 1001.88 1065.75 1005.18 1065.75 1009.1C1065.75 1013.02 1067.41 1016.3 1071.31 1016.3ZM1071.31 1014.32C1068.87 1014.32 1068.05 1011.98 1068.05 1009.1C1068.05 1006.22 1068.87 1003.86 1071.31 1003.86C1073.75 1003.86 1074.55 1006.22 1074.55 1009.1C1074.55 1011.98 1073.75 1014.32 1071.31 1014.32ZM1080.63 1009.84C1082.95 1009.84 1083.99 1008.02 1083.99 1005.86C1083.99 1003.72 1082.95 1001.88 1080.63 1001.88C1078.35 1001.88 1077.27 1003.72 1077.27 1005.86C1077.27 1008.02 1078.35 1009.84 1080.63 1009.84ZM1089.55 1002.18H1087.95L1080.69 1016H1082.29L1089.55 1002.18ZM1080.63 1008.32C1079.53 1008.32 1079.05 1007.38 1079.05 1005.86C1079.05 1004.34 1079.53 1003.42 1080.63 1003.42C1081.73 1003.42 1082.21 1004.34 1082.21 1005.86C1082.21 1007.38 1081.73 1008.32 1080.63 1008.32ZM1089.61 1016.3C1091.93 1016.3 1092.97 1014.46 1092.97 1012.32C1092.97 1010.16 1091.93 1008.34 1089.61 1008.34C1087.33 1008.34 1086.25 1010.16 1086.25 1012.32C1086.25 1014.46 1087.33 1016.3 1089.61 1016.3ZM1089.61 1014.76C1088.53 1014.76 1088.03 1013.84 1088.03 1012.32C1088.03 1010.8 1088.53 1009.86 1089.61 1009.86C1090.71 1009.86 1091.19 1010.8 1091.19 1012.32C1091.19 1013.84 1090.71 1014.76 1089.61 1014.76ZM958.14 1029.08C958.14 1027.18 958.92 1025.86 960.98 1025.86C962.76 1025.86 963.3 1027 963.3 1028.14C963.3 1030.1 961.68 1030.76 959.14 1032.44C957.02 1033.78 955.56 1035.56 955.56 1038H965.48V1036.04H958.58V1036C959.72 1033.18 965.62 1032.44 965.62 1028.04C965.62 1025.4 963.6 1023.88 961.04 1023.88C957.5 1023.88 955.9 1026.1 955.9 1029.08H958.14ZM971.809 1028.68C970.369 1028.68 969.349 1029.14 968.629 1029.88V1029.84L969.369 1026.14H975.589V1024.18H967.629L966.129 1031.72H968.469C969.129 1030.9 970.109 1030.52 971.189 1030.52C972.869 1030.52 973.969 1031.4 973.969 1033.28C973.969 1035.28 972.769 1036.32 971.069 1036.32C969.149 1036.32 968.329 1035.16 968.189 1033.92H965.889C965.969 1036.3 967.809 1038.3 971.189 1038.3C974.069 1038.3 976.289 1036.38 976.289 1033.3C976.289 1030.6 974.469 1028.68 971.809 1028.68ZM982.396 1028.68C980.956 1028.68 979.936 1029.14 979.216 1029.88V1029.84L979.956 1026.14H986.176V1024.18H978.216L976.716 1031.72H979.056C979.716 1030.9 980.696 1030.52 981.776 1030.52C983.456 1030.52 984.556 1031.4 984.556 1033.28C984.556 1035.28 983.356 1036.32 981.656 1036.32C979.736 1036.32 978.916 1035.16 978.776 1033.92H976.476C976.556 1036.3 978.396 1038.3 981.776 1038.3C984.656 1038.3 986.876 1036.38 986.876 1033.3C986.876 1030.6 985.056 1028.68 982.396 1028.68ZM988.883 1038.14C988.883 1038.9 988.403 1039.52 987.663 1039.66V1040.8C989.403 1040.52 990.123 1038.86 990.123 1037.4C990.123 1036.28 989.663 1035.56 988.763 1035.56C988.043 1035.56 987.463 1036.04 987.463 1036.9C987.463 1037.84 988.103 1038.28 988.883 1038.14ZM996.269 1029.08C996.269 1027.18 997.049 1025.86 999.109 1025.86C1000.89 1025.86 1001.43 1027 1001.43 1028.14C1001.43 1030.1 999.809 1030.76 997.269 1032.44C995.149 1033.78 993.689 1035.56 993.689 1038H1003.61V1036.04H996.709V1036C997.849 1033.18 1003.75 1032.44 1003.75 1028.04C1003.75 1025.4 1001.73 1023.88 999.169 1023.88C995.629 1023.88 994.029 1026.1 994.029 1029.08H996.269ZM1009.94 1028.68C1008.5 1028.68 1007.48 1029.14 1006.76 1029.88V1029.84L1007.5 1026.14H1013.72V1024.18H1005.76L1004.26 1031.72H1006.6C1007.26 1030.9 1008.24 1030.52 1009.32 1030.52C1011 1030.52 1012.1 1031.4 1012.1 1033.28C1012.1 1035.28 1010.9 1036.32 1009.2 1036.32C1007.28 1036.32 1006.46 1035.16 1006.32 1033.92H1004.02C1004.1 1036.3 1005.94 1038.3 1009.32 1038.3C1012.2 1038.3 1014.42 1036.38 1014.42 1033.3C1014.42 1030.6 1012.6 1028.68 1009.94 1028.68ZM1020.52 1028.68C1019.08 1028.68 1018.06 1029.14 1017.34 1029.88V1029.84L1018.08 1026.14H1024.3V1024.18H1016.34L1014.84 1031.72H1017.18C1017.84 1030.9 1018.82 1030.52 1019.9 1030.52C1021.58 1030.52 1022.68 1031.4 1022.68 1033.28C1022.68 1035.28 1021.48 1036.32 1019.78 1036.32C1017.86 1036.32 1017.04 1035.16 1016.9 1033.92H1014.6C1014.68 1036.3 1016.52 1038.3 1019.9 1038.3C1022.78 1038.3 1025 1036.38 1025 1033.3C1025 1030.6 1023.18 1028.68 1020.52 1028.68ZM1027.01 1038.14C1027.01 1038.9 1026.53 1039.52 1025.79 1039.66V1040.8C1027.53 1040.52 1028.25 1038.86 1028.25 1037.4C1028.25 1036.28 1027.79 1035.56 1026.89 1035.56C1026.17 1035.56 1025.59 1036.04 1025.59 1036.9C1025.59 1037.84 1026.23 1038.28 1027.01 1038.14ZM1034.4 1029.08C1034.4 1027.18 1035.18 1025.86 1037.24 1025.86C1039.02 1025.86 1039.56 1027 1039.56 1028.14C1039.56 1030.1 1037.94 1030.76 1035.4 1032.44C1033.28 1033.78 1031.82 1035.56 1031.82 1038H1041.74V1036.04H1034.84V1036C1035.98 1033.18 1041.88 1032.44 1041.88 1028.04C1041.88 1025.4 1039.86 1023.88 1037.3 1023.88C1033.76 1023.88 1032.16 1026.1 1032.16 1029.08H1034.4ZM1048.07 1028.68C1046.63 1028.68 1045.61 1029.14 1044.89 1029.88V1029.84L1045.63 1026.14H1051.85V1024.18H1043.89L1042.39 1031.72H1044.73C1045.39 1030.9 1046.37 1030.52 1047.45 1030.52C1049.13 1030.52 1050.23 1031.4 1050.23 1033.28C1050.23 1035.28 1049.03 1036.32 1047.33 1036.32C1045.41 1036.32 1044.59 1035.16 1044.45 1033.92H1042.15C1042.23 1036.3 1044.07 1038.3 1047.45 1038.3C1050.33 1038.3 1052.55 1036.38 1052.55 1033.3C1052.55 1030.6 1050.73 1028.68 1048.07 1028.68ZM1058.65 1028.68C1057.21 1028.68 1056.19 1029.14 1055.47 1029.88V1029.84L1056.21 1026.14H1062.43V1024.18H1054.47L1052.97 1031.72H1055.31C1055.97 1030.9 1056.95 1030.52 1058.03 1030.52C1059.71 1030.52 1060.81 1031.4 1060.81 1033.28C1060.81 1035.28 1059.61 1036.32 1057.91 1036.32C1055.99 1036.32 1055.17 1035.16 1055.03 1033.92H1052.73C1052.81 1036.3 1054.65 1038.3 1058.03 1038.3C1060.91 1038.3 1063.13 1036.38 1063.13 1033.3C1063.13 1030.6 1061.31 1028.68 1058.65 1028.68ZM965.82 1051.62L966.16 1049.9H964.28L965.04 1046.18H963.3L962.56 1049.9H960.36L961.12 1046.18H959.4L958.64 1049.9H956.66L956.32 1051.62H958.3L957.72 1054.52H955.9L955.58 1056.24H957.36L956.6 1060H958.32L959.08 1056.24H961.28L960.52 1060H962.24L963 1056.24H965.1L965.42 1054.52H963.36L963.94 1051.62H965.82ZM961.62 1054.52H959.44L960.02 1051.62H962.2L961.62 1054.52ZM969.519 1051.88V1047.72H977.139V1045.7H967.139V1060H969.519V1053.92H975.699V1051.88H969.519ZM980.437 1051.88V1047.72H988.058V1045.7H978.057V1060H980.437V1053.92H986.618V1051.88H980.437ZM991.356 1051.88V1047.72H998.976V1045.7H988.976V1060H991.356V1053.92H997.536V1051.88H991.356Z" fill="#1E1E26"/>
</g>
<defs>
<clipPath id="clip0_1436_406">
<rect width="1260" height="1080" fill="white"/>
</clipPath>
</defs>
</svg>
