<svg width="397" height="256" viewBox="0 0 397 256" fill="none" xmlns="http://www.w3.org/2000/svg">
<rect width="397" height="256" rx="10" fill="#F3EADB"/>
<path d="M237.024 196.492C235.708 197.828 234.413 198.969 233.138 199.915C231.864 200.861 230.6 201.631 229.346 202.228C228.092 202.824 226.858 203.255 225.646 203.523C224.433 203.79 223.24 203.923 222.069 203.923C219.992 203.923 217.968 203.492 215.994 202.628C214.041 201.765 212.294 200.521 210.752 198.897C209.231 197.273 208.008 195.29 207.083 192.946C206.158 190.582 205.695 187.91 205.695 184.929C205.695 181.64 206.199 178.659 207.206 175.987C208.214 173.315 209.601 171.033 211.369 169.142C213.137 167.23 215.213 165.76 217.598 164.732C219.982 163.704 222.552 163.201 225.306 163.221C226.416 163.221 227.516 163.304 228.606 163.468C229.695 163.632 230.733 163.859 231.72 164.146C232.707 164.414 233.601 164.732 234.403 165.102C235.225 165.472 235.903 165.873 236.438 166.305C236.52 166.366 236.51 166.551 236.407 166.86C236.325 167.168 236.191 167.538 236.006 167.97C235.821 168.402 235.595 168.874 235.328 169.388C235.081 169.882 234.824 170.365 234.557 170.838C234.29 171.29 234.033 171.701 233.786 172.071C233.56 172.441 233.365 172.708 233.2 172.873L231.196 172.441C230.147 170.632 228.945 169.327 227.588 168.525C226.252 167.703 224.782 167.292 223.179 167.292C222.48 167.292 221.75 167.405 220.989 167.631C220.249 167.857 219.52 168.227 218.8 168.741C218.081 169.255 217.392 169.933 216.734 170.776C216.097 171.598 215.532 172.616 215.038 173.829C214.566 175.041 214.185 176.47 213.897 178.115C213.63 179.759 213.497 181.65 213.497 183.788C213.497 186.419 213.836 188.681 214.514 190.572C215.213 192.463 216.107 194.025 217.197 195.259C218.307 196.472 219.54 197.376 220.897 197.972C222.274 198.548 223.641 198.836 224.998 198.836C225.553 198.836 226.201 198.774 226.941 198.651C227.701 198.527 228.523 198.301 229.407 197.972C230.312 197.623 231.268 197.171 232.275 196.616C233.282 196.04 234.331 195.3 235.42 194.395C235.523 194.478 235.657 194.622 235.821 194.827C235.986 195.033 236.14 195.249 236.284 195.475C236.448 195.701 236.592 195.917 236.715 196.122C236.859 196.307 236.962 196.431 237.024 196.492Z" fill="black"/>
<path d="M264.284 197.14C262.948 198.661 261.715 199.874 260.584 200.778C259.453 201.662 258.374 202.341 257.346 202.813C256.339 203.286 255.363 203.584 254.417 203.708C253.471 203.852 252.516 203.923 251.549 203.923C249.884 203.923 248.281 203.595 246.739 202.937C245.197 202.258 243.83 201.292 242.638 200.038C241.466 198.784 240.521 197.253 239.801 195.444C239.102 193.635 238.753 191.589 238.753 189.308C238.753 187.088 239.164 185.011 239.986 183.079C240.809 181.147 241.949 179.471 243.409 178.053C244.889 176.614 246.647 175.483 248.682 174.661C250.717 173.818 252.957 173.397 255.404 173.397C256.082 173.397 256.843 173.459 257.686 173.582C258.549 173.685 259.392 173.849 260.214 174.075C261.036 174.281 261.787 174.538 262.465 174.846C263.164 175.134 263.688 175.463 264.038 175.833C264.058 175.997 264.027 176.285 263.945 176.696C263.883 177.107 263.781 177.58 263.637 178.115C263.513 178.649 263.359 179.214 263.174 179.811C262.989 180.407 262.804 180.972 262.619 181.506C262.434 182.041 262.249 182.524 262.064 182.956C261.879 183.387 261.725 183.696 261.602 183.881L259.536 183.572C258.857 181.558 258.025 180.006 257.038 178.916C256.051 177.806 254.736 177.251 253.091 177.251C252.187 177.251 251.313 177.457 250.47 177.868C249.648 178.279 248.918 178.937 248.281 179.841C247.644 180.725 247.13 181.866 246.739 183.264C246.349 184.662 246.153 186.358 246.153 188.352C246.153 189.996 246.359 191.466 246.77 192.761C247.202 194.036 247.777 195.115 248.497 195.999C249.237 196.883 250.1 197.561 251.087 198.034C252.074 198.507 253.122 198.743 254.232 198.743C254.808 198.743 255.363 198.712 255.897 198.651C256.432 198.568 257.017 198.404 257.655 198.157C258.292 197.911 259.001 197.551 259.782 197.078C260.584 196.605 261.53 195.968 262.619 195.166L264.284 197.14Z" fill="black"/>
<path d="M134.736 165.812C134.448 165.812 134.15 165.823 133.842 165.843C133.554 165.843 133.256 165.853 132.948 165.874V180.644H133.996C136.34 180.644 138.231 180.418 139.67 179.966C141.129 179.493 142.26 178.897 143.062 178.177C143.863 177.458 144.408 176.646 144.696 175.741C144.984 174.837 145.128 173.942 145.128 173.059C145.128 172.031 144.953 171.075 144.603 170.191C144.275 169.307 143.709 168.546 142.907 167.909C142.106 167.251 141.037 166.737 139.701 166.367C138.385 165.997 136.73 165.812 134.736 165.812ZM138.036 182.957C137.049 182.957 136.134 183.008 135.291 183.111C134.469 183.193 133.688 183.296 132.948 183.419V199.792C132.948 199.957 133.04 200.111 133.225 200.255C133.575 200.378 133.976 200.481 134.428 200.563C134.88 200.625 135.343 200.676 135.815 200.717C136.288 200.759 136.761 200.789 137.234 200.81C137.707 200.831 138.149 200.841 138.56 200.841C140.04 200.841 141.376 200.656 142.568 200.286C143.761 199.895 144.778 199.361 145.621 198.682C146.484 198.004 147.142 197.192 147.594 196.246C148.047 195.28 148.273 194.222 148.273 193.07C148.273 191.94 148.067 190.778 147.656 189.586C147.266 188.394 146.649 187.304 145.806 186.318C144.984 185.331 143.925 184.529 142.63 183.912C141.355 183.275 139.824 182.957 138.036 182.957ZM153.33 192.022C153.33 193.769 152.98 195.352 152.281 196.771C151.603 198.168 150.637 199.361 149.383 200.347C148.149 201.334 146.669 202.095 144.943 202.629C143.216 203.164 141.314 203.431 139.238 203.431C138.786 203.431 138.241 203.421 137.604 203.4C136.987 203.4 136.319 203.39 135.6 203.369C134.88 203.349 134.14 203.328 133.379 203.308C132.619 203.287 131.879 203.256 131.159 203.215C129.453 203.153 127.665 203.081 125.794 202.999H123.543V201.673C124.941 201.386 126.03 201.077 126.812 200.748C127.613 200.399 128.014 200.08 128.014 199.792V166.306C127.233 166.408 126.462 166.522 125.702 166.645C124.962 166.748 124.242 166.861 123.543 166.984L123.266 165.072C124.067 164.846 124.992 164.63 126.041 164.425C127.11 164.199 128.23 164.003 129.402 163.839C130.574 163.654 131.766 163.51 132.979 163.407C134.191 163.284 135.353 163.222 136.463 163.222C138.519 163.222 140.379 163.417 142.044 163.808C143.709 164.178 145.117 164.723 146.269 165.442C147.44 166.162 148.334 167.035 148.951 168.063C149.588 169.091 149.907 170.253 149.907 171.548C149.907 173.768 149.383 175.679 148.334 177.283C147.286 178.866 145.857 180.007 144.048 180.706C145.364 180.952 146.587 181.415 147.718 182.093C148.848 182.772 149.825 183.614 150.647 184.622C151.49 185.608 152.148 186.739 152.621 188.013C153.093 189.267 153.33 190.604 153.33 192.022Z" fill="black"/>
<path d="M183.489 187.828C183.489 189.021 183.335 190.244 183.026 191.498C182.718 192.752 182.266 193.975 181.67 195.167C181.073 196.359 180.344 197.49 179.48 198.559C178.617 199.628 177.63 200.563 176.52 201.365C175.431 202.146 174.228 202.763 172.912 203.215C171.597 203.688 170.178 203.924 168.657 203.924C168.267 203.924 167.722 203.832 167.023 203.647C166.345 203.482 165.553 203.236 164.649 202.907C163.765 202.578 162.799 202.177 161.75 201.704C160.702 201.211 159.623 200.656 158.512 200.039V163.037C158.512 162.092 158.461 161.362 158.358 160.848C158.255 160.334 158.06 159.954 157.772 159.707C157.485 159.44 157.073 159.265 156.539 159.183C156.025 159.101 155.347 159.008 154.504 158.905V157.672C155.861 157.343 157.156 157.014 158.389 156.685C159.623 156.336 160.825 155.842 161.997 155.205L162.305 155.513C162.428 155.637 162.552 155.75 162.675 155.853C162.819 155.976 162.973 156.11 163.138 156.253V180.582C164.166 179.349 165.183 178.28 166.19 177.375C167.218 176.471 168.195 175.731 169.12 175.155C170.065 174.559 170.939 174.117 171.741 173.829C172.542 173.542 173.241 173.398 173.837 173.398C175.235 173.398 176.52 173.727 177.692 174.384C178.884 175.042 179.902 175.998 180.744 177.252C181.608 178.485 182.276 179.996 182.749 181.785C183.242 183.573 183.489 185.588 183.489 187.828ZM179.326 190.419C179.326 188.363 179.11 186.544 178.679 184.961C178.267 183.357 177.702 182.011 176.983 180.921C176.284 179.832 175.472 178.999 174.547 178.424C173.622 177.848 172.666 177.56 171.679 177.56C171.309 177.56 170.816 177.673 170.199 177.9C169.603 178.105 168.924 178.465 168.164 178.979C167.403 179.472 166.591 180.151 165.728 181.014C164.864 181.857 164.001 182.915 163.138 184.19V196.74C163.96 197.356 164.793 197.87 165.635 198.282C166.499 198.693 167.311 199.022 168.071 199.268C168.852 199.494 169.551 199.659 170.168 199.762C170.805 199.864 171.309 199.916 171.679 199.916C172.933 199.916 174.033 199.649 174.978 199.114C175.924 198.559 176.715 197.84 177.353 196.956C178.01 196.051 178.504 195.034 178.833 193.903C179.162 192.772 179.326 191.611 179.326 190.419Z" fill="black"/>
<path d="M63.3729 186.502L57.9459 170.652L52.6732 186.502H63.3729ZM51.7481 189.277L48.3254 199.576C48.1199 200.213 48.3974 200.675 49.158 200.963C49.9186 201.251 51.1417 201.487 52.8273 201.672V202.998H40V201.672C41.3979 201.426 42.5079 201.169 43.3302 200.902C44.1524 200.634 44.6664 200.192 44.8719 199.576L56.3425 164.855C56.8153 164.342 57.4012 163.879 58.1001 163.468C58.799 163.036 59.4157 162.676 59.9502 162.389L72.9009 199.576C73.0037 199.863 73.1476 200.12 73.3326 200.347C73.5176 200.573 73.7643 200.768 74.0726 200.932C74.381 201.097 74.7716 201.241 75.2444 201.364C75.7172 201.487 76.2825 201.59 76.9403 201.672V202.998H63.9279V201.672C65.5313 201.57 66.6414 201.364 67.2581 201.056C67.8748 200.747 68.0701 200.254 67.844 199.576L64.3288 189.277H51.7481Z" fill="black"/>
<path d="M85.9466 199.915C87.18 199.915 88.4853 199.606 89.8626 198.99C91.2605 198.353 92.7405 197.356 94.3028 195.999V188.013C92.5761 188.3 91.1474 188.578 90.0168 188.845C88.9067 189.112 87.9919 189.39 87.2725 189.678C86.553 189.945 85.9774 190.233 85.5457 190.541C85.114 190.849 84.7337 191.178 84.4048 191.528C83.8703 192.083 83.4386 192.72 83.1097 193.439C82.7808 194.138 82.6164 194.971 82.6164 195.937C82.6164 196.759 82.7397 197.427 82.9864 197.941C83.2331 198.455 83.5312 198.866 83.8806 199.175C84.2301 199.463 84.5898 199.658 84.9598 199.761C85.3504 199.863 85.6793 199.915 85.9466 199.915ZM103.646 200.47C101.899 201.683 100.449 202.556 99.2981 203.091C98.1675 203.646 97.3144 203.923 96.7388 203.923C96.0604 203.923 95.4951 203.451 95.0429 202.505C94.5906 201.559 94.3439 200.254 94.3028 198.589C93.3778 199.514 92.4527 200.316 91.5277 200.994C90.6026 201.672 89.6981 202.227 88.8142 202.659C87.9303 203.091 87.0875 203.409 86.2857 203.615C85.5046 203.821 84.7851 203.923 84.1273 203.923C83.3873 203.923 82.6267 203.8 81.8455 203.553C81.0644 203.307 80.3552 202.916 79.7179 202.382C79.1012 201.847 78.5873 201.158 78.1761 200.316C77.765 199.473 77.5594 198.455 77.5594 197.263C77.5594 195.701 77.8267 194.395 78.3612 193.347C78.9162 192.299 79.574 191.394 80.3346 190.633C80.828 190.14 81.383 189.678 81.9997 189.246C82.6369 188.794 83.4695 188.362 84.4973 187.951C85.5457 187.54 86.851 187.149 88.4134 186.779C89.9757 186.409 91.9388 186.049 94.3028 185.7V181.352C94.3028 180.653 94.2206 180.006 94.0562 179.41C93.8917 178.793 93.6142 178.269 93.2236 177.837C92.833 177.385 92.2986 177.046 91.6202 176.819C90.9624 176.573 90.1298 176.46 89.1226 176.48C88.4647 176.501 87.8172 176.614 87.18 176.819C86.5427 177.025 85.9877 177.313 85.5149 177.683C85.0421 178.053 84.672 178.495 84.4048 179.009C84.1376 179.502 84.0348 180.057 84.0965 180.674C84.117 180.859 83.9012 181.075 83.4489 181.321C83.0172 181.547 82.493 181.753 81.8763 181.938C81.2802 182.123 80.6841 182.267 80.0879 182.37C79.5123 182.473 79.1012 182.493 78.8545 182.431L78.4228 181.229C78.8956 180.201 79.6151 179.214 80.5813 178.269C81.5474 177.323 82.6472 176.491 83.8806 175.771C85.1346 175.052 86.4502 174.476 87.8275 174.044C89.2253 173.613 90.5718 173.397 91.8669 173.397C94.1281 173.397 95.8651 173.993 97.078 175.185C98.3114 176.357 98.9281 178.001 98.9281 180.119V197.51C98.9281 198.373 99.0411 198.99 99.2673 199.36C99.4934 199.73 99.7915 199.915 100.161 199.915C100.449 199.915 100.819 199.863 101.272 199.761C101.724 199.658 102.361 199.432 103.183 199.082L103.646 200.47Z" fill="black"/>
<path d="M320.65 182.155C320.65 184.724 320.383 187.027 319.849 189.062C319.335 191.076 318.625 192.865 317.721 194.427C316.816 195.969 315.758 197.285 314.545 198.374C313.332 199.443 312.037 200.327 310.66 201.026C309.282 201.704 307.854 202.208 306.374 202.537C304.914 202.845 303.485 202.999 302.088 202.999H284.327V200.748C285.724 200.461 286.773 200.152 287.472 199.823C288.191 199.474 288.551 199.155 288.551 198.867V167.323L284.327 167.909L283.926 165.072C284.933 164.826 286.125 164.589 287.503 164.363C288.9 164.137 290.36 163.942 291.881 163.777C293.423 163.592 294.965 163.459 296.506 163.376C298.048 163.274 299.487 163.222 300.823 163.222C303.969 163.222 306.774 163.654 309.241 164.517C311.708 165.36 313.784 166.593 315.47 168.217C317.156 169.841 318.44 171.825 319.324 174.169C320.208 176.512 320.65 179.174 320.65 182.155ZM298.603 166.491C298.233 166.491 297.853 166.501 297.462 166.522C297.072 166.522 296.671 166.532 296.26 166.552V197.85C296.26 197.994 296.28 198.138 296.321 198.282C296.383 198.508 296.496 198.713 296.661 198.898C296.825 199.063 297.082 199.207 297.431 199.33C297.781 199.453 298.233 199.546 298.788 199.607C299.364 199.669 300.083 199.7 300.947 199.7C301.728 199.7 302.55 199.566 303.413 199.299C304.297 199.032 305.161 198.61 306.004 198.035C306.867 197.459 307.679 196.74 308.44 195.876C309.221 194.992 309.899 193.944 310.475 192.731C311.05 191.518 311.513 190.141 311.862 188.599C312.212 187.037 312.386 185.29 312.386 183.357C312.386 180.623 312.088 178.208 311.492 176.111C310.896 174.014 310.012 172.257 308.84 170.838C307.689 169.399 306.25 168.32 304.524 167.601C302.817 166.861 300.844 166.491 298.603 166.491Z" fill="black"/>
<path d="M355.866 199.484C354.921 200.121 353.965 200.707 352.999 201.242C352.032 201.776 351.128 202.249 350.285 202.66C349.463 203.051 348.733 203.359 348.096 203.585C347.459 203.811 346.996 203.924 346.708 203.924C345.228 203.924 344.283 202.126 343.871 198.528C342.926 199.494 342.052 200.317 341.25 200.995C340.469 201.673 339.698 202.228 338.938 202.66C338.177 203.092 337.396 203.41 336.594 203.616C335.793 203.822 334.919 203.924 333.973 203.924C332.596 203.924 331.229 203.595 329.872 202.938C328.536 202.259 327.334 201.293 326.265 200.039C325.196 198.785 324.332 197.254 323.675 195.445C323.017 193.636 322.688 191.59 322.688 189.309C322.688 187.253 323.048 185.269 323.767 183.357C324.507 181.425 325.535 179.729 326.851 178.27C328.187 176.79 329.77 175.608 331.599 174.724C333.449 173.84 335.474 173.398 337.674 173.398C338.64 173.398 339.596 173.511 340.541 173.737C341.507 173.963 342.546 174.456 343.656 175.217V164.641C343.656 163.51 343.635 162.616 343.594 161.958C343.573 161.28 343.429 160.766 343.162 160.416C342.916 160.046 342.504 159.799 341.929 159.676C341.353 159.532 340.521 159.419 339.431 159.337V157.209C341.692 156.983 343.728 156.685 345.536 156.315C347.366 155.925 348.815 155.555 349.884 155.205L351.056 156.346V193.78C351.056 194.499 351.066 195.106 351.087 195.599C351.128 196.092 351.169 196.493 351.21 196.801C351.272 197.11 351.344 197.346 351.426 197.511C351.529 197.675 351.642 197.798 351.765 197.881C351.888 197.942 352.022 197.994 352.166 198.035C352.31 198.055 352.495 198.055 352.721 198.035C352.968 197.994 353.266 197.911 353.615 197.788C353.985 197.665 354.448 197.48 355.003 197.233L355.866 199.484ZM343.656 194.705V181.23C342.916 180.038 341.99 179.112 340.88 178.455C339.791 177.797 338.558 177.468 337.18 177.468C336.152 177.468 335.207 177.663 334.343 178.054C333.48 178.444 332.73 179.061 332.092 179.904C331.476 180.726 330.982 181.775 330.612 183.049C330.263 184.324 330.088 185.855 330.088 187.643C330.088 189.288 330.294 190.758 330.705 192.053C331.116 193.327 331.65 194.417 332.308 195.321C332.966 196.205 333.716 196.884 334.559 197.356C335.402 197.829 336.245 198.066 337.088 198.066C338.218 198.066 339.287 197.788 340.295 197.233C341.322 196.658 342.443 195.815 343.656 194.705Z" fill="black"/>
<path d="M41.2305 43.5008H42.4455V52.8458H47.1705V54.0008H41.2305V43.5008Z" fill="black"/>
<path d="M48.1566 46.3508H49.3266V54.0008H48.1566V46.3508ZM48.0816 43.3808H49.4166V44.8658H48.0816V43.3808Z" fill="black"/>
<path d="M53.9261 57.3758C52.7761 57.3758 51.8861 57.1508 51.2561 56.7008C50.6361 56.2508 50.3261 55.6658 50.3261 54.9458C50.3261 54.5858 50.4111 54.2708 50.5811 54.0008C50.7611 53.7408 51.0061 53.5508 51.3161 53.4308C51.0861 53.2808 50.9161 53.0908 50.8061 52.8608C50.6961 52.6208 50.6411 52.3608 50.6411 52.0808C50.6411 51.7408 50.7261 51.4308 50.8961 51.1508C51.0661 50.8708 51.3161 50.6658 51.6461 50.5358C51.2861 50.0858 51.1061 49.5358 51.1061 48.8858C51.1061 48.0758 51.3711 47.4258 51.9011 46.9358C52.4411 46.4458 53.1411 46.2008 54.0011 46.2008C54.6911 46.2008 55.2861 46.3658 55.7861 46.6958C56.1361 46.6458 56.4111 46.4908 56.6111 46.2308C56.8111 45.9708 56.9211 45.6408 56.9411 45.2408H58.1261C58.0461 46.3908 57.5111 47.1358 56.5211 47.4758C56.7811 47.8558 56.9111 48.3208 56.9111 48.8708C56.9111 49.6908 56.6411 50.3458 56.1011 50.8358C55.5611 51.3258 54.8611 51.5708 54.0011 51.5708C53.4011 51.5708 52.8611 51.4358 52.3811 51.1658C52.1711 51.2358 52.0061 51.3558 51.8861 51.5258C51.7661 51.6858 51.7061 51.8708 51.7061 52.0808C51.7061 52.3508 51.7861 52.5658 51.9461 52.7258C52.1061 52.8758 52.3361 52.9508 52.6361 52.9508H55.5161C56.2761 52.9508 56.8511 53.1108 57.2411 53.4308C57.6411 53.7408 57.8411 54.1958 57.8411 54.7958C57.8411 55.5858 57.4911 56.2108 56.7911 56.6708C56.1011 57.1408 55.1661 57.3758 53.9861 57.3758H53.9261ZM51.4811 54.9158C51.4811 55.3758 51.6961 55.7208 52.1261 55.9508C52.5561 56.1908 53.1861 56.3108 54.0161 56.3108H54.0611C54.9011 56.3108 55.5511 56.1858 56.0111 55.9358C56.4711 55.6958 56.7011 55.3458 56.7011 54.8858C56.7011 54.5858 56.6061 54.3658 56.4161 54.2258C56.2261 54.0858 55.9311 54.0158 55.5311 54.0158H52.4561C52.1461 54.0158 51.9061 54.0908 51.7361 54.2408C51.5661 54.4008 51.4811 54.6258 51.4811 54.9158ZM52.2611 48.8858C52.2611 49.3858 52.4111 49.7858 52.7111 50.0858C53.0211 50.3858 53.4511 50.5358 54.0011 50.5358C54.5511 50.5358 54.9811 50.3858 55.2911 50.0858C55.6011 49.7858 55.7561 49.3858 55.7561 48.8858C55.7561 48.3858 55.6011 47.9858 55.2911 47.6858C54.9811 47.3858 54.5511 47.2358 54.0011 47.2358C53.4511 47.2358 53.0211 47.3858 52.7111 47.6858C52.4111 47.9858 52.2611 48.3858 52.2611 48.8858Z" fill="black"/>
<path d="M58.5432 43.0508H59.7132V47.4308C59.9732 47.0408 60.3182 46.7408 60.7482 46.5308C61.1882 46.3208 61.6932 46.2158 62.2632 46.2158C63.0932 46.2158 63.7482 46.4558 64.2282 46.9358C64.7082 47.4158 64.9482 48.1008 64.9482 48.9908V54.0008H63.7932V49.1558C63.7932 48.5858 63.6332 48.1408 63.3132 47.8208C63.0032 47.5008 62.5682 47.3408 62.0082 47.3408C61.3482 47.3408 60.7982 47.5508 60.3582 47.9708C59.9282 48.3908 59.7132 48.9308 59.7132 49.5908V54.0008H58.5432V43.0508Z" fill="black"/>
<path d="M69.4089 54.0008C68.6889 54.0008 68.1189 53.7858 67.6989 53.3558C67.2889 52.9158 67.0839 52.2908 67.0839 51.4808V47.4158H65.4639V46.3508H67.0839V44.3558H68.2389V46.3508H68.5839C69.1739 46.3508 69.7889 46.2908 70.4289 46.1708L70.5939 47.2058C69.9639 47.3458 69.2789 47.4158 68.5389 47.4158H68.2389V51.4508C68.2389 52.4208 68.6839 52.9058 69.5739 52.9058H70.5789V54.0008H69.4089Z" fill="black"/>
<path d="M328.707 43.5008H333.102C333.752 43.5008 334.302 43.6358 334.752 43.9058C335.212 44.1658 335.552 44.5058 335.772 44.9258C336.002 45.3358 336.117 45.7758 336.117 46.2458C336.117 46.7458 335.997 47.2008 335.757 47.6108C335.517 48.0208 335.177 48.3158 334.737 48.4958C335.387 48.6258 335.887 48.9208 336.237 49.3808C336.587 49.8408 336.762 50.3658 336.762 50.9558C336.762 51.4758 336.627 51.9708 336.357 52.4408C336.097 52.9008 335.702 53.2758 335.172 53.5658C334.652 53.8558 334.022 54.0008 333.282 54.0008H328.707V43.5008ZM333.297 52.1258C333.747 52.1258 334.097 51.9908 334.347 51.7208C334.607 51.4408 334.737 51.1158 334.737 50.7458C334.737 50.3858 334.612 50.0808 334.362 49.8308C334.112 49.5708 333.757 49.4408 333.297 49.4408H330.627V52.1258H333.297ZM332.817 47.7158C333.217 47.7158 333.532 47.5958 333.762 47.3558C334.002 47.1058 334.122 46.8208 334.122 46.5008C334.122 46.1908 334.012 45.9258 333.792 45.7058C333.582 45.4858 333.282 45.3758 332.892 45.3758H330.627V47.7158H332.817Z" fill="black"/>
<path d="M341.001 54.0908C340.211 54.0908 339.521 53.9208 338.931 53.5808C338.351 53.2308 337.906 52.7458 337.596 52.1258C337.286 51.5058 337.131 50.7858 337.131 49.9658C337.131 49.1458 337.286 48.4258 337.596 47.8058C337.906 47.1858 338.351 46.7058 338.931 46.3658C339.521 46.0258 340.211 45.8558 341.001 45.8558C341.791 45.8558 342.476 46.0258 343.056 46.3658C343.646 46.7058 344.096 47.1858 344.406 47.8058C344.716 48.4258 344.871 49.1458 344.871 49.9658C344.871 50.7858 344.716 51.5058 344.406 52.1258C344.096 52.7458 343.646 53.2308 343.056 53.5808C342.476 53.9208 341.791 54.0908 341.001 54.0908ZM339.066 49.9658C339.066 51.4858 339.711 52.2458 341.001 52.2458C342.291 52.2458 342.936 51.4858 342.936 49.9658C342.936 48.4558 342.291 47.7008 341.001 47.7008C339.711 47.7008 339.066 48.4558 339.066 49.9658Z" fill="black"/>
<path d="M345.624 43.0508H347.514V54.0008H345.624V43.0508Z" fill="black"/>
<path d="M351.835 54.0908C350.715 54.0908 349.84 53.7158 349.21 52.9658C348.58 52.2158 348.265 51.2108 348.265 49.9508C348.265 48.7108 348.58 47.7208 349.21 46.9808C349.84 46.2308 350.715 45.8558 351.835 45.8558C352.845 45.8558 353.635 46.1658 354.205 46.7858V43.0508H356.095V54.0008H354.25V52.8608C353.99 53.2608 353.67 53.5658 353.29 53.7758C352.91 53.9858 352.425 54.0908 351.835 54.0908ZM350.2 49.9208C350.2 50.6208 350.365 51.1758 350.695 51.5858C351.035 51.9958 351.53 52.2008 352.18 52.2008C352.8 52.2008 353.29 51.9958 353.65 51.5858C354.02 51.1758 354.205 50.6208 354.205 49.9208C354.205 49.2208 354.02 48.6708 353.65 48.2708C353.29 47.8708 352.8 47.6708 352.18 47.6708C351.53 47.6708 351.035 47.8708 350.695 48.2708C350.365 48.6708 350.2 49.2208 350.2 49.9208Z" fill="black"/>
<path d="M91 48.5H307" stroke="black"/>
<path d="M45.6233 136.164C44.5933 136.164 43.6983 135.939 42.9383 135.489C42.1883 135.029 41.6133 134.394 41.2133 133.584C40.8133 132.764 40.6133 131.819 40.6133 130.749C40.6133 129.679 40.8133 128.739 41.2133 127.929C41.6133 127.109 42.1883 126.474 42.9383 126.024C43.6983 125.564 44.5933 125.334 45.6233 125.334C46.6533 125.334 47.5433 125.564 48.2933 126.024C49.0533 126.474 49.6333 127.109 50.0333 127.929C50.4333 128.739 50.6333 129.679 50.6333 130.749C50.6333 131.819 50.4333 132.764 50.0333 133.584C49.6333 134.394 49.0533 135.029 48.2933 135.489C47.5433 135.939 46.6533 136.164 45.6233 136.164ZM42.2483 130.749C42.2483 131.949 42.5433 132.894 43.1333 133.584C43.7233 134.264 44.5533 134.604 45.6233 134.604C46.7033 134.604 47.5333 134.264 48.1133 133.584C48.7033 132.894 48.9983 131.949 48.9983 130.749C48.9983 129.549 48.7033 128.609 48.1133 127.929C47.5333 127.239 46.7033 126.894 45.6233 126.894C44.5533 126.894 43.7233 127.239 43.1333 127.929C42.5433 128.609 42.2483 129.549 42.2483 130.749Z" fill="black"/>
<path d="M51.7883 125.499H56.0033C56.7633 125.499 57.4083 125.639 57.9383 125.919C58.4683 126.199 58.8633 126.579 59.1233 127.059C59.3933 127.539 59.5283 128.079 59.5283 128.679C59.5283 129.279 59.3933 129.834 59.1233 130.344C58.8533 130.854 58.4483 131.264 57.9083 131.574C57.3683 131.874 56.7183 132.024 55.9583 132.024H53.3783V135.999H51.7883V125.499ZM55.9733 130.509C56.5933 130.509 57.0633 130.344 57.3833 130.014C57.7133 129.674 57.8783 129.249 57.8783 128.739C57.8783 128.229 57.7183 127.814 57.3983 127.494C57.0783 127.174 56.6133 127.014 56.0033 127.014H53.3783V130.509H55.9733Z" fill="black"/>
<path d="M60.3875 125.499H64.1525C65.4325 125.499 66.4625 125.414 67.2425 125.244L67.4825 126.759C66.9825 126.869 66.4725 126.939 65.9525 126.969C65.4425 126.999 64.8425 127.014 64.1525 127.014H61.9775V129.984H66.4925V131.499H61.9775V134.484H67.3775V135.999H60.3875V125.499Z" fill="black"/>
<path d="M68.4887 125.499H70.3937L75.6887 133.674V125.499H77.2637V135.999H75.3737L70.0787 127.884V135.999H68.4887V125.499Z" fill="black"/>
<path d="M85.6361 136.164C84.9061 136.164 84.2311 136.024 83.6111 135.744C83.0011 135.464 82.5111 135.064 82.1411 134.544C81.7811 134.014 81.6011 133.409 81.6011 132.729C81.6011 132.539 81.6161 132.349 81.6461 132.159H83.2811C83.2511 132.319 83.2361 132.484 83.2361 132.654C83.2361 133.274 83.4661 133.764 83.9261 134.124C84.3861 134.484 84.9761 134.664 85.6961 134.664C86.2861 134.664 86.7811 134.539 87.1811 134.289C87.5811 134.039 87.7811 133.664 87.7811 133.164C87.7811 132.724 87.6311 132.389 87.3311 132.159C87.0411 131.919 86.6261 131.734 86.0861 131.604L84.9311 131.334C84.4111 131.214 83.9461 131.064 83.5361 130.884C83.1361 130.694 82.7911 130.404 82.5011 130.014C82.2111 129.614 82.0661 129.089 82.0661 128.439C82.0661 127.769 82.2211 127.204 82.5311 126.744C82.8511 126.274 83.2711 125.924 83.7911 125.694C84.3111 125.454 84.8711 125.334 85.4711 125.334C86.2411 125.334 86.9311 125.519 87.5411 125.889C88.1511 126.249 88.5811 126.764 88.8311 127.434L87.3911 128.154C87.2511 127.734 86.9911 127.409 86.6111 127.179C86.2411 126.949 85.8361 126.834 85.3961 126.834C84.9061 126.834 84.5011 126.969 84.1811 127.239C83.8611 127.499 83.7011 127.854 83.7011 128.304C83.7011 128.784 83.8711 129.139 84.2111 129.369C84.5611 129.589 85.0461 129.779 85.6661 129.939L86.7011 130.179C87.5311 130.379 88.1911 130.679 88.6811 131.079C89.1711 131.479 89.4161 132.119 89.4161 132.999C89.4161 133.679 89.2361 134.259 88.8761 134.739C88.5261 135.219 88.0611 135.579 87.4811 135.819C86.9111 136.049 86.2961 136.164 85.6361 136.164Z" fill="black"/>
<path d="M93.3344 125.499H95.3594L99.3794 135.999H97.6544L96.6494 133.284H92.0444L91.0244 135.999H89.2994L93.3344 125.499ZM96.0944 131.754L94.3394 127.104L92.5994 131.754H96.0944Z" fill="black"/>
<path d="M100.176 125.499H102.081L107.376 133.674V125.499H108.951V135.999H107.061L101.766 127.884V135.999H100.176V125.499Z" fill="black"/>
<path d="M114.085 136.164C113.355 136.164 112.68 136.024 112.06 135.744C111.45 135.464 110.96 135.064 110.59 134.544C110.23 134.014 110.05 133.409 110.05 132.729C110.05 132.539 110.065 132.349 110.095 132.159H111.73C111.7 132.319 111.685 132.484 111.685 132.654C111.685 133.274 111.915 133.764 112.375 134.124C112.835 134.484 113.425 134.664 114.145 134.664C114.735 134.664 115.23 134.539 115.63 134.289C116.03 134.039 116.23 133.664 116.23 133.164C116.23 132.724 116.08 132.389 115.78 132.159C115.49 131.919 115.075 131.734 114.535 131.604L113.38 131.334C112.86 131.214 112.395 131.064 111.985 130.884C111.585 130.694 111.24 130.404 110.95 130.014C110.66 129.614 110.515 129.089 110.515 128.439C110.515 127.769 110.67 127.204 110.98 126.744C111.3 126.274 111.72 125.924 112.24 125.694C112.76 125.454 113.32 125.334 113.92 125.334C114.69 125.334 115.38 125.519 115.99 125.889C116.6 126.249 117.03 126.764 117.28 127.434L115.84 128.154C115.7 127.734 115.44 127.409 115.06 127.179C114.69 126.949 114.285 126.834 113.845 126.834C113.355 126.834 112.95 126.969 112.63 127.239C112.31 127.499 112.15 127.854 112.15 128.304C112.15 128.784 112.32 129.139 112.66 129.369C113.01 129.589 113.495 129.779 114.115 129.939L115.15 130.179C115.98 130.379 116.64 130.679 117.13 131.079C117.62 131.479 117.865 132.119 117.865 132.999C117.865 133.679 117.685 134.259 117.325 134.739C116.975 135.219 116.51 135.579 115.93 135.819C115.36 136.049 114.745 136.164 114.085 136.164Z" fill="black"/>
<path d="M197.739 132.22H195.309V130.72H197.739V128.275H199.269V130.72H201.699V132.22H199.269V134.665H197.739V132.22Z" fill="black"/>
<path d="M299.126 136.164C298.206 136.164 297.401 135.939 296.711 135.489C296.031 135.039 295.501 134.404 295.121 133.584C294.751 132.764 294.566 131.819 294.566 130.749C294.566 129.679 294.766 128.734 295.166 127.914C295.576 127.094 296.146 126.459 296.876 126.009C297.606 125.559 298.451 125.334 299.411 125.334C300.431 125.334 301.316 125.589 302.066 126.099C302.816 126.599 303.326 127.269 303.596 128.109L302.066 128.694C301.886 128.144 301.556 127.709 301.076 127.389C300.596 127.059 300.026 126.894 299.366 126.894C298.386 126.894 297.611 127.244 297.041 127.944C296.481 128.634 296.201 129.569 296.201 130.749C296.201 131.959 296.481 132.924 297.041 133.644C297.601 134.354 298.376 134.709 299.366 134.709C299.896 134.709 300.371 134.599 300.791 134.379C301.221 134.149 301.556 133.844 301.796 133.464C302.046 133.084 302.181 132.669 302.201 132.219H301.616C300.936 132.219 300.336 132.204 299.816 132.174C299.306 132.144 298.801 132.074 298.301 131.964L298.541 130.434C299.351 130.614 300.376 130.704 301.616 130.704H303.746V135.999H302.201V134.619C301.921 135.109 301.511 135.489 300.971 135.759C300.431 136.029 299.816 136.164 299.126 136.164Z" fill="black"/>
<path d="M305.331 125.499H309.096C310.376 125.499 311.406 125.414 312.186 125.244L312.426 126.759C311.926 126.869 311.416 126.939 310.896 126.969C310.386 126.999 309.786 127.014 309.096 127.014H306.921V129.984H311.436V131.499H306.921V134.484H312.321V135.999H305.331V125.499Z" fill="black"/>
<path d="M313.432 125.499H315.337L320.632 133.674V125.499H322.207V135.999H320.317L315.022 127.884V135.999H313.432V125.499Z" fill="black"/>
<path d="M326.367 127.014H322.872V125.499H328.287C329.577 125.499 330.612 125.414 331.392 125.244L331.647 126.759C331.147 126.869 330.637 126.939 330.117 126.969C329.597 126.999 328.987 127.014 328.287 127.014H327.957V135.999H326.367V127.014Z" fill="black"/>
<path d="M332.301 125.499H333.891V135.999H332.301V125.499Z" fill="black"/>
<path d="M339.483 136.164C338.203 136.164 337.203 135.804 336.483 135.084C335.773 134.364 335.418 133.344 335.418 132.024V125.499H337.008V132.024C337.008 132.874 337.218 133.519 337.638 133.959C338.058 134.389 338.673 134.604 339.483 134.604C340.293 134.604 340.908 134.389 341.328 133.959C341.748 133.519 341.958 132.874 341.958 132.024V125.499H343.548V132.024C343.548 133.344 343.188 134.364 342.468 135.084C341.758 135.804 340.763 136.164 339.483 136.164Z" fill="black"/>
<path d="M345.075 125.499H347.55L350.46 134.334L353.385 125.499H355.86V135.999H354.3V127.764L351.525 135.999H349.395L346.635 127.764V135.999H345.075V125.499Z" fill="black"/>
</svg>
