<svg width="1260" height="710" viewBox="0 0 1260 710" fill="none" xmlns="http://www.w3.org/2000/svg">
<g clip-path="url(#clip0_1436_327)">
<rect width="1260" height="710" fill="white"/>
<rect width="465" height="710" fill="#EE82F8"/>
<path d="M24.34 646V642.86H26.28V640.9H24.34V632.18H22.02L15.48 640.7V642.86H22.02V646H24.34ZM22.02 635.06V640.9H17.54L22.02 635.06ZM29.1333 639.84C31.4533 639.84 32.4933 638.02 32.4933 635.86C32.4933 633.72 31.4533 631.88 29.1333 631.88C26.8533 631.88 25.7733 633.72 25.7733 635.86C25.7733 638.02 26.8533 639.84 29.1333 639.84ZM38.0533 632.18H36.4533L29.1933 646H30.7933L38.0533 632.18ZM29.1333 638.32C28.0333 638.32 27.5533 637.38 27.5533 635.86C27.5533 634.34 28.0333 633.42 29.1333 633.42C30.2333 633.42 30.7133 634.34 30.7133 635.86C30.7133 637.38 30.2333 638.32 29.1333 638.32ZM38.1133 646.3C40.4333 646.3 41.4733 644.46 41.4733 642.32C41.4733 640.16 40.4333 638.34 38.1133 638.34C35.8333 638.34 34.7533 640.16 34.7533 642.32C34.7533 644.46 35.8333 646.3 38.1133 646.3ZM38.1133 644.76C37.0333 644.76 36.5333 643.84 36.5333 642.32C36.5333 640.8 37.0333 639.86 38.1133 639.86C39.2133 639.86 39.6933 640.8 39.6933 642.32C39.6933 643.84 39.2133 644.76 38.1133 644.76ZM59.5002 646V642.86H61.4402V640.9H59.5002V632.18H57.1802L50.6402 640.7V642.86H57.1802V646H59.5002ZM57.1802 635.06V640.9H52.7002L57.1802 635.06ZM64.1198 638.66V638.62C64.1598 636.1 64.7398 633.78 67.2398 633.78C68.6998 633.78 69.4198 634.62 69.5598 635.68H71.8798C71.5998 633.6 69.8598 631.88 67.2598 631.88C63.7798 631.88 61.7998 634.42 61.7998 639.14C61.7998 643.28 63.2198 646.3 67.2598 646.3C70.3598 646.3 72.2598 644.18 72.2598 641.46C72.2598 638.74 70.3998 636.86 67.6798 636.86C66.0798 636.86 64.7998 637.54 64.1198 638.66ZM67.1798 644.4C65.3398 644.4 64.2398 643.26 64.2398 641.62C64.2398 639.92 65.4598 638.76 67.2998 638.76C68.8798 638.76 69.9998 639.82 69.9998 641.58C69.9998 643.26 68.9598 644.4 67.1798 644.4ZM75.9348 639.84C78.2548 639.84 79.2948 638.02 79.2948 635.86C79.2948 633.72 78.2548 631.88 75.9348 631.88C73.6548 631.88 72.5748 633.72 72.5748 635.86C72.5748 638.02 73.6548 639.84 75.9348 639.84ZM84.8548 632.18H83.2548L75.9948 646H77.5948L84.8548 632.18ZM75.9348 638.32C74.8348 638.32 74.3548 637.38 74.3548 635.86C74.3548 634.34 74.8348 633.42 75.9348 633.42C77.0348 633.42 77.5148 634.34 77.5148 635.86C77.5148 637.38 77.0348 638.32 75.9348 638.32ZM84.9148 646.3C87.2348 646.3 88.2748 644.46 88.2748 642.32C88.2748 640.16 87.2348 638.34 84.9148 638.34C82.6348 638.34 81.5548 640.16 81.5548 642.32C81.5548 644.46 82.6348 646.3 84.9148 646.3ZM84.9148 644.76C83.8348 644.76 83.3348 643.84 83.3348 642.32C83.3348 640.8 83.8348 639.86 84.9148 639.86C86.0148 639.86 86.4948 640.8 86.4948 642.32C86.4948 643.84 86.0148 644.76 84.9148 644.76ZM103.282 646.3C107.182 646.3 108.842 643.02 108.842 639.1C108.842 635.18 107.182 631.88 103.282 631.88C99.3817 631.88 97.7217 635.18 97.7217 639.1C97.7217 643.02 99.3817 646.3 103.282 646.3ZM103.282 644.32C100.842 644.32 100.022 641.98 100.022 639.1C100.022 636.22 100.842 633.86 103.282 633.86C105.722 633.86 106.522 636.22 106.522 639.1C106.522 641.98 105.722 644.32 103.282 644.32ZM112.599 639.84C114.919 639.84 115.959 638.02 115.959 635.86C115.959 633.72 114.919 631.88 112.599 631.88C110.319 631.88 109.239 633.72 109.239 635.86C109.239 638.02 110.319 639.84 112.599 639.84ZM121.519 632.18H119.919L112.659 646H114.259L121.519 632.18ZM112.599 638.32C111.499 638.32 111.019 637.38 111.019 635.86C111.019 634.34 111.499 633.42 112.599 633.42C113.699 633.42 114.179 634.34 114.179 635.86C114.179 637.38 113.699 638.32 112.599 638.32ZM121.579 646.3C123.899 646.3 124.939 644.46 124.939 642.32C124.939 640.16 123.899 638.34 121.579 638.34C119.299 638.34 118.219 640.16 118.219 642.32C118.219 644.46 119.299 646.3 121.579 646.3ZM121.579 644.76C120.499 644.76 119.999 643.84 119.999 642.32C119.999 640.8 120.499 639.86 121.579 639.86C122.679 639.86 123.159 640.8 123.159 642.32C123.159 643.84 122.679 644.76 121.579 644.76ZM136.586 636.36C136.586 635 137.286 633.86 139.466 633.86C141.106 633.86 141.826 634.74 141.826 635.88C141.826 637.3 140.866 637.9 139.426 637.9H138.266V639.74H139.506C140.926 639.74 142.306 640.16 142.306 642.06C142.306 643.52 141.506 644.32 139.426 644.32C137.066 644.32 136.206 643.12 136.206 641.26H133.966C133.966 644.44 135.946 646.3 139.586 646.3C142.586 646.3 144.606 644.84 144.606 642.12C144.606 640.48 143.946 639.24 142.066 638.7V638.66C143.386 638.1 144.146 637.18 144.146 635.7C144.146 633.26 141.986 631.88 139.546 631.88C136.086 631.88 134.326 633.78 134.326 636.36H136.586ZM148.267 639.84C150.587 639.84 151.627 638.02 151.627 635.86C151.627 633.72 150.587 631.88 148.267 631.88C145.987 631.88 144.907 633.72 144.907 635.86C144.907 638.02 145.987 639.84 148.267 639.84ZM157.187 632.18H155.587L148.327 646H149.927L157.187 632.18ZM148.267 638.32C147.167 638.32 146.687 637.38 146.687 635.86C146.687 634.34 147.167 633.42 148.267 633.42C149.367 633.42 149.847 634.34 149.847 635.86C149.847 637.38 149.367 638.32 148.267 638.32ZM157.247 646.3C159.567 646.3 160.607 644.46 160.607 642.32C160.607 640.16 159.567 638.34 157.247 638.34C154.967 638.34 153.887 640.16 153.887 642.32C153.887 644.46 154.967 646.3 157.247 646.3ZM157.247 644.76C156.167 644.76 155.667 643.84 155.667 642.32C155.667 640.8 156.167 639.86 157.247 639.86C158.347 639.86 158.827 640.8 158.827 642.32C158.827 643.84 158.347 644.76 157.247 644.76ZM18.14 659.08C18.14 657.18 18.92 655.86 20.98 655.86C22.76 655.86 23.3 657 23.3 658.14C23.3 660.1 21.68 660.76 19.14 662.44C17.02 663.78 15.56 665.56 15.56 668H25.48V666.04H18.58V666C19.72 663.18 25.62 662.44 25.62 658.04C25.62 655.4 23.6 653.88 21.04 653.88C17.5 653.88 15.9 656.1 15.9 659.08H18.14ZM28.4491 658.36C28.4491 657 29.1491 655.86 31.3291 655.86C32.9691 655.86 33.6891 656.74 33.6891 657.88C33.6891 659.3 32.7291 659.9 31.2891 659.9H30.1291V661.74H31.3691C32.7891 661.74 34.1691 662.16 34.1691 664.06C34.1691 665.52 33.3691 666.32 31.2891 666.32C28.9291 666.32 28.0691 665.12 28.0691 663.26H25.8291C25.8291 666.44 27.8091 668.3 31.4491 668.3C34.4491 668.3 36.4691 666.84 36.4691 664.12C36.4691 662.48 35.8091 661.24 33.9291 660.7V660.66C35.2491 660.1 36.0091 659.18 36.0091 657.7C36.0091 655.26 33.8491 653.88 31.4091 653.88C27.9491 653.88 26.1891 655.78 26.1891 658.36H28.4491ZM36.8316 664.1C36.8316 666.9 39.1516 668.3 42.1716 668.3C45.1916 668.3 47.5316 666.9 47.5316 664.1C47.5316 662.2 46.2516 661.22 44.9516 660.64V660.6C45.9116 660.08 46.8516 659.22 46.8516 657.66C46.8516 655.28 44.8716 653.88 42.1716 653.88C39.4716 653.88 37.4916 655.28 37.4916 657.66C37.4916 659.22 38.4116 660.08 39.3916 660.6V660.64C38.0716 661.22 36.8316 662.2 36.8316 664.1ZM42.1716 659.78C40.6316 659.78 39.6716 659.1 39.6716 657.76C39.6716 656.44 40.6316 655.72 42.1716 655.72C43.7116 655.72 44.6716 656.44 44.6716 657.76C44.6716 659.1 43.7116 659.78 42.1716 659.78ZM42.1716 666.4C40.3116 666.4 39.1316 665.48 39.1316 663.96C39.1316 662.46 40.3116 661.54 42.1716 661.54C44.0516 661.54 45.2116 662.46 45.2116 663.96C45.2116 665.48 44.0516 666.4 42.1716 666.4ZM49.5075 668.14C49.5075 668.9 49.0275 669.52 48.2875 669.66V670.8C50.0275 670.52 50.7475 668.86 50.7475 667.4C50.7475 666.28 50.2875 665.56 49.3875 665.56C48.6675 665.56 48.0875 666.04 48.0875 666.9C48.0875 667.84 48.7275 668.28 49.5075 668.14ZM57.7339 654.18C57.5939 655.88 56.8739 657.12 54.3739 657.12V658.78C55.5339 658.78 56.4539 658.78 57.2739 657.98V668H59.5939V654.18H57.7339ZM63.2186 658.36C63.2186 657 63.9186 655.86 66.0986 655.86C67.7386 655.86 68.4586 656.74 68.4586 657.88C68.4586 659.3 67.4986 659.9 66.0586 659.9H64.8986V661.74H66.1386C67.5586 661.74 68.9386 662.16 68.9386 664.06C68.9386 665.52 68.1386 666.32 66.0586 666.32C63.6986 666.32 62.8386 665.12 62.8386 663.26H60.5986C60.5986 666.44 62.5786 668.3 66.2186 668.3C69.2186 668.3 71.2386 666.84 71.2386 664.12C71.2386 662.48 70.5786 661.24 68.6986 660.7V660.66C70.0186 660.1 70.7786 659.18 70.7786 657.7C70.7786 655.26 68.6186 653.88 66.1786 653.88C62.7186 653.88 60.9586 655.78 60.9586 658.36H63.2186ZM77.3411 668.3C81.2411 668.3 82.9011 665.02 82.9011 661.1C82.9011 657.18 81.2411 653.88 77.3411 653.88C73.4411 653.88 71.7811 657.18 71.7811 661.1C71.7811 665.02 73.4411 668.3 77.3411 668.3ZM77.3411 666.32C74.9011 666.32 74.0811 663.98 74.0811 661.1C74.0811 658.22 74.9011 655.86 77.3411 655.86C79.7811 655.86 80.5811 658.22 80.5811 661.1C80.5811 663.98 79.7811 666.32 77.3411 666.32ZM84.6091 668.14C84.6091 668.9 84.1291 669.52 83.3891 669.66V670.8C85.1291 670.52 85.8491 668.86 85.8491 667.4C85.8491 666.28 85.3891 665.56 84.4891 665.56C83.7691 665.56 83.1891 666.04 83.1891 666.9C83.1891 667.84 83.8291 668.28 84.6091 668.14ZM91.9955 659.08C91.9955 657.18 92.7755 655.86 94.8355 655.86C96.6155 655.86 97.1555 657 97.1555 658.14C97.1555 660.1 95.5355 660.76 92.9955 662.44C90.8755 663.78 89.4155 665.56 89.4155 668H99.3355V666.04H92.4355V666C93.5755 663.18 99.4755 662.44 99.4755 658.04C99.4755 655.4 97.4555 653.88 94.8955 653.88C91.3555 653.88 89.7555 656.1 89.7555 659.08H91.9955ZM108.196 668V664.86H110.136V662.9H108.196V654.18H105.876L99.3362 662.7V664.86H105.876V668H108.196ZM105.876 657.06V662.9H101.396L105.876 657.06ZM110.375 664.1C110.375 666.9 112.695 668.3 115.715 668.3C118.735 668.3 121.075 666.9 121.075 664.1C121.075 662.2 119.795 661.22 118.495 660.64V660.6C119.455 660.08 120.395 659.22 120.395 657.66C120.395 655.28 118.415 653.88 115.715 653.88C113.015 653.88 111.035 655.28 111.035 657.66C111.035 659.22 111.955 660.08 112.935 660.6V660.64C111.615 661.22 110.375 662.2 110.375 664.1ZM115.715 659.78C114.175 659.78 113.215 659.1 113.215 657.76C113.215 656.44 114.175 655.72 115.715 655.72C117.255 655.72 118.215 656.44 118.215 657.76C118.215 659.1 117.255 659.78 115.715 659.78ZM115.715 666.4C113.855 666.4 112.675 665.48 112.675 663.96C112.675 662.46 113.855 661.54 115.715 661.54C117.595 661.54 118.755 662.46 118.755 663.96C118.755 665.48 117.595 666.4 115.715 666.4ZM25.82 681.62L26.16 679.9H24.28L25.04 676.18H23.3L22.56 679.9H20.36L21.12 676.18H19.4L18.64 679.9H16.66L16.32 681.62H18.3L17.72 684.52H15.9L15.58 686.24H17.36L16.6 690H18.32L19.08 686.24H21.28L20.52 690H22.24L23 686.24H25.1L25.42 684.52H23.36L23.94 681.62H25.82ZM21.62 684.52H19.44L20.02 681.62H22.2L21.62 684.52ZM29.5187 681.6V677.72H37.4787V675.7H27.1387V690H37.6787V687.98H29.5187V683.64H36.4988V681.6H29.5187ZM41.1992 681.6V677.72H49.1592V675.7H38.8192V690H49.3592V687.98H41.1992V683.64H48.1792V681.6H41.1992ZM49.8597 686.1C49.8597 688.9 52.1797 690.3 55.1997 690.3C58.2197 690.3 60.5597 688.9 60.5597 686.1C60.5597 684.2 59.2797 683.22 57.9797 682.64V682.6C58.9397 682.08 59.8797 681.22 59.8797 679.66C59.8797 677.28 57.8997 675.88 55.1997 675.88C52.4997 675.88 50.5197 677.28 50.5197 679.66C50.5197 681.22 51.4397 682.08 52.4197 682.6V682.64C51.0997 683.22 49.8597 684.2 49.8597 686.1ZM55.1997 681.78C53.6597 681.78 52.6997 681.1 52.6997 679.76C52.6997 678.44 53.6597 677.72 55.1997 677.72C56.7397 677.72 57.6997 678.44 57.6997 679.76C57.6997 681.1 56.7397 681.78 55.1997 681.78ZM55.1997 688.4C53.3397 688.4 52.1597 687.48 52.1597 685.96C52.1597 684.46 53.3397 683.54 55.1997 683.54C57.0797 683.54 58.2397 684.46 58.2397 685.96C58.2397 687.48 57.0797 688.4 55.1997 688.4ZM63.397 681.08C63.397 679.18 64.177 677.86 66.237 677.86C68.017 677.86 68.557 679 68.557 680.14C68.557 682.1 66.937 682.76 64.397 684.44C62.277 685.78 60.817 687.56 60.817 690H70.737V688.04H63.837V688C64.977 685.18 70.877 684.44 70.877 680.04C70.877 677.4 68.857 675.88 66.297 675.88C62.757 675.88 61.157 678.1 61.157 681.08H63.397ZM74.3461 681.88V677.72H81.9661V675.7H71.9661V690H74.3461V683.92H80.5261V681.88H74.3461ZM82.2448 686.1C82.2448 688.9 84.5648 690.3 87.5848 690.3C90.6048 690.3 92.9448 688.9 92.9448 686.1C92.9448 684.2 91.6648 683.22 90.3648 682.64V682.6C91.3248 682.08 92.2648 681.22 92.2648 679.66C92.2648 677.28 90.2848 675.88 87.5848 675.88C84.8848 675.88 82.9048 677.28 82.9048 679.66C82.9048 681.22 83.8248 682.08 84.8048 682.6V682.64C83.4848 683.22 82.2448 684.2 82.2448 686.1ZM87.5848 681.78C86.0448 681.78 85.0848 681.1 85.0848 679.76C85.0848 678.44 86.0448 677.72 87.5848 677.72C89.1248 677.72 90.0848 678.44 90.0848 679.76C90.0848 681.1 89.1248 681.78 87.5848 681.78ZM87.5848 688.4C85.7248 688.4 84.5448 687.48 84.5448 685.96C84.5448 684.46 85.7248 683.54 87.5848 683.54C89.4648 683.54 90.6248 684.46 90.6248 685.96C90.6248 687.48 89.4648 688.4 87.5848 688.4Z" fill="#1E1E26"/>
<path d="M338.341 28.62H340.721C340.381 25.7 338.181 23.4 334.561 23.4C330.441 23.4 327.841 26.54 327.841 30.84C327.841 35.16 330.441 38.3 334.561 38.3C338.201 38.3 340.401 36 340.721 32.78H338.341C338.181 34.52 337.161 36.26 334.501 36.26C331.421 36.26 330.201 33.68 330.201 30.84C330.201 28.02 331.421 25.44 334.501 25.44C337.141 25.44 338.081 27.18 338.341 28.62ZM348.163 38.3C352.463 38.3 355.183 35.14 355.183 30.84C355.183 26.54 352.463 23.4 348.163 23.4C343.843 23.4 341.143 26.54 341.143 30.84C341.143 35.14 343.843 38.3 348.163 38.3ZM348.163 36.26C344.883 36.26 343.503 33.74 343.503 30.84C343.503 27.96 344.883 25.44 348.163 25.44C351.443 25.44 352.803 27.96 352.803 30.84C352.803 33.74 351.443 36.26 348.163 36.26ZM356.273 38H358.593V27.16H358.633L362.413 38H364.313L368.093 27.16H368.133V38H370.453V23.7H367.373L363.393 34.7H363.353L359.353 23.7H356.273V38ZM372.094 38H374.474V32.28H378.174C380.914 32.28 382.894 30.98 382.894 27.98C382.894 24.98 380.914 23.7 378.174 23.7H372.094V38ZM374.474 25.72H378.074C379.674 25.72 380.514 26.42 380.514 27.98C380.514 29.56 379.674 30.24 378.074 30.24H374.474V25.72ZM390.806 34.62L391.966 38H394.386L389.146 23.7H386.646L381.386 38H383.806L384.966 34.62H390.806ZM385.626 32.64L387.886 25.88H387.926L390.166 32.64H385.626ZM400.133 29.48C398.133 28.98 396.793 28.7 396.793 27.14C396.793 26.08 397.813 25.44 399.513 25.44C401.493 25.44 402.533 26.32 402.753 27.98H405.133C404.933 25.04 402.653 23.4 399.513 23.4C396.393 23.4 394.433 24.82 394.433 27.36C394.433 30.08 396.853 30.94 399.093 31.5C401.913 32.2 403.133 32.52 403.133 34.22C403.133 35.32 402.313 36.26 400.193 36.26C397.633 36.26 396.393 35.06 396.273 33.24H393.893C394.033 36.48 396.693 38.3 400.193 38.3C403.793 38.3 405.513 36.4 405.513 34.12C405.513 30.92 403.193 30.26 400.133 29.48ZM412.048 29.48C410.048 28.98 408.708 28.7 408.708 27.14C408.708 26.08 409.728 25.44 411.428 25.44C413.408 25.44 414.448 26.32 414.668 27.98H417.048C416.848 25.04 414.568 23.4 411.428 23.4C408.308 23.4 406.348 24.82 406.348 27.36C406.348 30.08 408.768 30.94 411.008 31.5C413.828 32.2 415.048 32.52 415.048 34.22C415.048 35.32 414.228 36.26 412.108 36.26C409.548 36.26 408.308 35.06 408.188 33.24H405.808C405.948 36.48 408.608 38.3 412.108 38.3C415.708 38.3 417.428 36.4 417.428 34.12C417.428 30.92 415.108 30.26 412.048 29.48ZM418.524 23.7V38H420.904V23.7H418.524ZM429.145 38.3C433.445 38.3 436.165 35.14 436.165 30.84C436.165 26.54 433.445 23.4 429.145 23.4C424.825 23.4 422.125 26.54 422.125 30.84C422.125 35.14 424.825 38.3 429.145 38.3ZM429.145 36.26C425.865 36.26 424.485 33.74 424.485 30.84C424.485 27.96 425.865 25.44 429.145 25.44C432.425 25.44 433.785 27.96 433.785 30.84C433.785 33.74 432.425 36.26 429.145 36.26ZM437.255 38H439.635V27.3H439.675L446.135 38H448.775V23.7H446.395V34.44H446.355L439.915 23.7H437.255V38Z" fill="#1E1E26"/>
<rect x="465" width="795" height="335" fill="#EE7146"/>
<path d="M1174.08 29.6V25.72H1182.04V23.7H1171.7V38H1182.24V35.98H1174.08V31.64H1181.06V29.6H1174.08ZM1183.38 38H1185.76V27.3H1185.8L1192.26 38H1194.9V23.7H1192.52V34.44H1192.48L1186.04 23.7H1183.38V38ZM1198.93 29.6V25.72H1206.89V23.7H1196.55V38H1207.09V35.98H1198.93V31.64H1205.91V29.6H1198.93ZM1208.23 38H1210.61V32.48H1214.11C1217.55 32.48 1216.21 37.4 1216.87 38H1219.37V37.86C1218.61 37.62 1219.81 32.02 1216.51 31.4V31.36C1218.15 30.96 1219.17 29.8 1219.17 27.8C1219.17 25.2 1217.27 23.7 1214.33 23.7H1208.23V38ZM1210.61 25.72H1213.83C1215.29 25.72 1216.81 26.02 1216.81 28.08C1216.81 30.16 1215.29 30.44 1213.83 30.44H1210.61V25.72ZM1230.28 28.16H1232.66C1232.22 25.42 1230.22 23.4 1226.5 23.4C1222.38 23.4 1219.78 26.54 1219.78 30.84C1219.78 35.16 1222.1 38.3 1226.24 38.3C1228.4 38.3 1229.74 37.48 1230.7 36.04H1230.74L1231.26 38H1232.9V30.5H1226.44V32.42H1230.48C1230.46 34.7 1228.66 36.26 1226.4 36.26C1223.14 36.26 1222.16 33.54 1222.16 30.84C1222.16 28.16 1223.42 25.44 1226.48 25.44C1228.6 25.44 1229.92 26.46 1230.28 28.16ZM1232.33 23.7L1237.41 32.32V38H1239.79V32.32L1244.87 23.7H1242.33L1238.61 30.34H1238.57L1234.87 23.7H1232.33Z" fill="#1E1E26"/>
<path d="M489.34 271V267.86H491.28V265.9H489.34V257.18H487.02L480.48 265.7V267.86H487.02V271H489.34ZM487.02 260.06V265.9H482.54L487.02 260.06ZM494.133 264.84C496.453 264.84 497.493 263.02 497.493 260.86C497.493 258.72 496.453 256.88 494.133 256.88C491.853 256.88 490.773 258.72 490.773 260.86C490.773 263.02 491.853 264.84 494.133 264.84ZM503.053 257.18H501.453L494.193 271H495.793L503.053 257.18ZM494.133 263.32C493.033 263.32 492.553 262.38 492.553 260.86C492.553 259.34 493.033 258.42 494.133 258.42C495.233 258.42 495.713 259.34 495.713 260.86C495.713 262.38 495.233 263.32 494.133 263.32ZM503.113 271.3C505.433 271.3 506.473 269.46 506.473 267.32C506.473 265.16 505.433 263.34 503.113 263.34C500.833 263.34 499.753 265.16 499.753 267.32C499.753 269.46 500.833 271.3 503.113 271.3ZM503.113 269.76C502.033 269.76 501.533 268.84 501.533 267.32C501.533 265.8 502.033 264.86 503.113 264.86C504.213 264.86 504.693 265.8 504.693 267.32C504.693 268.84 504.213 269.76 503.113 269.76ZM524.5 271V267.86H526.44V265.9H524.5V257.18H522.18L515.64 265.7V267.86H522.18V271H524.5ZM522.18 260.06V265.9H517.7L522.18 260.06ZM529.12 263.66V263.62C529.16 261.1 529.74 258.78 532.24 258.78C533.7 258.78 534.42 259.62 534.56 260.68H536.88C536.6 258.6 534.86 256.88 532.26 256.88C528.78 256.88 526.8 259.42 526.8 264.14C526.8 268.28 528.22 271.3 532.26 271.3C535.36 271.3 537.26 269.18 537.26 266.46C537.26 263.74 535.4 261.86 532.68 261.86C531.08 261.86 529.8 262.54 529.12 263.66ZM532.18 269.4C530.34 269.4 529.24 268.26 529.24 266.62C529.24 264.92 530.46 263.76 532.3 263.76C533.88 263.76 535 264.82 535 266.58C535 268.26 533.96 269.4 532.18 269.4ZM540.935 264.84C543.255 264.84 544.295 263.02 544.295 260.86C544.295 258.72 543.255 256.88 540.935 256.88C538.655 256.88 537.575 258.72 537.575 260.86C537.575 263.02 538.655 264.84 540.935 264.84ZM549.855 257.18H548.255L540.995 271H542.595L549.855 257.18ZM540.935 263.32C539.835 263.32 539.355 262.38 539.355 260.86C539.355 259.34 539.835 258.42 540.935 258.42C542.035 258.42 542.515 259.34 542.515 260.86C542.515 262.38 542.035 263.32 540.935 263.32ZM549.915 271.3C552.235 271.3 553.275 269.46 553.275 267.32C553.275 265.16 552.235 263.34 549.915 263.34C547.635 263.34 546.555 265.16 546.555 267.32C546.555 269.46 547.635 271.3 549.915 271.3ZM549.915 269.76C548.835 269.76 548.335 268.84 548.335 267.32C548.335 265.8 548.835 264.86 549.915 264.86C551.015 264.86 551.495 265.8 551.495 267.32C551.495 268.84 551.015 269.76 549.915 269.76ZM568.282 271.3C572.182 271.3 573.842 268.02 573.842 264.1C573.842 260.18 572.182 256.88 568.282 256.88C564.382 256.88 562.722 260.18 562.722 264.1C562.722 268.02 564.382 271.3 568.282 271.3ZM568.282 269.32C565.842 269.32 565.022 266.98 565.022 264.1C565.022 261.22 565.842 258.86 568.282 258.86C570.722 258.86 571.522 261.22 571.522 264.1C571.522 266.98 570.722 269.32 568.282 269.32ZM577.599 264.84C579.919 264.84 580.959 263.02 580.959 260.86C580.959 258.72 579.919 256.88 577.599 256.88C575.319 256.88 574.239 258.72 574.239 260.86C574.239 263.02 575.319 264.84 577.599 264.84ZM586.519 257.18H584.919L577.659 271H579.259L586.519 257.18ZM577.599 263.32C576.499 263.32 576.019 262.38 576.019 260.86C576.019 259.34 576.499 258.42 577.599 258.42C578.699 258.42 579.179 259.34 579.179 260.86C579.179 262.38 578.699 263.32 577.599 263.32ZM586.579 271.3C588.899 271.3 589.939 269.46 589.939 267.32C589.939 265.16 588.899 263.34 586.579 263.34C584.299 263.34 583.219 265.16 583.219 267.32C583.219 269.46 584.299 271.3 586.579 271.3ZM586.579 269.76C585.499 269.76 584.999 268.84 584.999 267.32C584.999 265.8 585.499 264.86 586.579 264.86C587.679 264.86 588.159 265.8 588.159 267.32C588.159 268.84 587.679 269.76 586.579 269.76ZM601.586 261.36C601.586 260 602.286 258.86 604.466 258.86C606.106 258.86 606.826 259.74 606.826 260.88C606.826 262.3 605.866 262.9 604.426 262.9H603.266V264.74H604.506C605.926 264.74 607.306 265.16 607.306 267.06C607.306 268.52 606.506 269.32 604.426 269.32C602.066 269.32 601.206 268.12 601.206 266.26H598.966C598.966 269.44 600.946 271.3 604.586 271.3C607.586 271.3 609.606 269.84 609.606 267.12C609.606 265.48 608.946 264.24 607.066 263.7V263.66C608.386 263.1 609.146 262.18 609.146 260.7C609.146 258.26 606.986 256.88 604.546 256.88C601.086 256.88 599.326 258.78 599.326 261.36H601.586ZM613.267 264.84C615.587 264.84 616.627 263.02 616.627 260.86C616.627 258.72 615.587 256.88 613.267 256.88C610.987 256.88 609.907 258.72 609.907 260.86C609.907 263.02 610.987 264.84 613.267 264.84ZM622.187 257.18H620.587L613.327 271H614.927L622.187 257.18ZM613.267 263.32C612.167 263.32 611.687 262.38 611.687 260.86C611.687 259.34 612.167 258.42 613.267 258.42C614.367 258.42 614.847 259.34 614.847 260.86C614.847 262.38 614.367 263.32 613.267 263.32ZM622.247 271.3C624.567 271.3 625.607 269.46 625.607 267.32C625.607 265.16 624.567 263.34 622.247 263.34C619.967 263.34 618.887 265.16 618.887 267.32C618.887 269.46 619.967 271.3 622.247 271.3ZM622.247 269.76C621.167 269.76 620.667 268.84 620.667 267.32C620.667 265.8 621.167 264.86 622.247 264.86C623.347 264.86 623.827 265.8 623.827 267.32C623.827 268.84 623.347 269.76 622.247 269.76ZM483.14 284.08C483.14 282.18 483.92 280.86 485.98 280.86C487.76 280.86 488.3 282 488.3 283.14C488.3 285.1 486.68 285.76 484.14 287.44C482.02 288.78 480.56 290.56 480.56 293H490.48V291.04H483.58V291C484.72 288.18 490.62 287.44 490.62 283.04C490.62 280.4 488.6 278.88 486.04 278.88C482.5 278.88 480.9 281.1 480.9 284.08H483.14ZM493.449 283.36C493.449 282 494.149 280.86 496.329 280.86C497.969 280.86 498.689 281.74 498.689 282.88C498.689 284.3 497.729 284.9 496.289 284.9H495.129V286.74H496.369C497.789 286.74 499.169 287.16 499.169 289.06C499.169 290.52 498.369 291.32 496.289 291.32C493.929 291.32 493.069 290.12 493.069 288.26H490.829C490.829 291.44 492.809 293.3 496.449 293.3C499.449 293.3 501.469 291.84 501.469 289.12C501.469 287.48 500.809 286.24 498.929 285.7V285.66C500.249 285.1 501.009 284.18 501.009 282.7C501.009 280.26 498.849 278.88 496.409 278.88C492.949 278.88 491.189 280.78 491.189 283.36H493.449ZM501.832 289.1C501.832 291.9 504.152 293.3 507.172 293.3C510.192 293.3 512.532 291.9 512.532 289.1C512.532 287.2 511.252 286.22 509.952 285.64V285.6C510.912 285.08 511.852 284.22 511.852 282.66C511.852 280.28 509.872 278.88 507.172 278.88C504.472 278.88 502.492 280.28 502.492 282.66C502.492 284.22 503.412 285.08 504.392 285.6V285.64C503.072 286.22 501.832 287.2 501.832 289.1ZM507.172 284.78C505.632 284.78 504.672 284.1 504.672 282.76C504.672 281.44 505.632 280.72 507.172 280.72C508.712 280.72 509.672 281.44 509.672 282.76C509.672 284.1 508.712 284.78 507.172 284.78ZM507.172 291.4C505.312 291.4 504.132 290.48 504.132 288.96C504.132 287.46 505.312 286.54 507.172 286.54C509.052 286.54 510.212 287.46 510.212 288.96C510.212 290.48 509.052 291.4 507.172 291.4ZM514.507 293.14C514.507 293.9 514.027 294.52 513.287 294.66V295.8C515.027 295.52 515.747 293.86 515.747 292.4C515.747 291.28 515.287 290.56 514.387 290.56C513.667 290.56 513.087 291.04 513.087 291.9C513.087 292.84 513.727 293.28 514.507 293.14ZM522.734 279.18C522.594 280.88 521.874 282.12 519.374 282.12V283.78C520.534 283.78 521.454 283.78 522.274 282.98V293H524.594V279.18H522.734ZM528.219 283.36C528.219 282 528.919 280.86 531.099 280.86C532.739 280.86 533.459 281.74 533.459 282.88C533.459 284.3 532.499 284.9 531.059 284.9H529.899V286.74H531.139C532.559 286.74 533.939 287.16 533.939 289.06C533.939 290.52 533.139 291.32 531.059 291.32C528.699 291.32 527.839 290.12 527.839 288.26H525.599C525.599 291.44 527.579 293.3 531.219 293.3C534.219 293.3 536.239 291.84 536.239 289.12C536.239 287.48 535.579 286.24 533.699 285.7V285.66C535.019 285.1 535.779 284.18 535.779 282.7C535.779 280.26 533.619 278.88 531.179 278.88C527.719 278.88 525.959 280.78 525.959 283.36H528.219ZM542.341 293.3C546.241 293.3 547.901 290.02 547.901 286.1C547.901 282.18 546.241 278.88 542.341 278.88C538.441 278.88 536.781 282.18 536.781 286.1C536.781 290.02 538.441 293.3 542.341 293.3ZM542.341 291.32C539.901 291.32 539.081 288.98 539.081 286.1C539.081 283.22 539.901 280.86 542.341 280.86C544.781 280.86 545.581 283.22 545.581 286.1C545.581 288.98 544.781 291.32 542.341 291.32ZM549.609 293.14C549.609 293.9 549.129 294.52 548.389 294.66V295.8C550.129 295.52 550.849 293.86 550.849 292.4C550.849 291.28 550.389 290.56 549.489 290.56C548.769 290.56 548.189 291.04 548.189 291.9C548.189 292.84 548.829 293.28 549.609 293.14ZM556.995 284.08C556.995 282.18 557.775 280.86 559.835 280.86C561.615 280.86 562.155 282 562.155 283.14C562.155 285.1 560.535 285.76 557.995 287.44C555.875 288.78 554.415 290.56 554.415 293H564.335V291.04H557.435V291C558.575 288.18 564.475 287.44 564.475 283.04C564.475 280.4 562.455 278.88 559.895 278.88C556.355 278.88 554.755 281.1 554.755 284.08H556.995ZM573.196 293V289.86H575.136V287.9H573.196V279.18H570.876L564.336 287.7V289.86H570.876V293H573.196ZM570.876 282.06V287.9H566.396L570.876 282.06ZM575.375 289.1C575.375 291.9 577.695 293.3 580.715 293.3C583.735 293.3 586.075 291.9 586.075 289.1C586.075 287.2 584.795 286.22 583.495 285.64V285.6C584.455 285.08 585.395 284.22 585.395 282.66C585.395 280.28 583.415 278.88 580.715 278.88C578.015 278.88 576.035 280.28 576.035 282.66C576.035 284.22 576.955 285.08 577.935 285.6V285.64C576.615 286.22 575.375 287.2 575.375 289.1ZM580.715 284.78C579.175 284.78 578.215 284.1 578.215 282.76C578.215 281.44 579.175 280.72 580.715 280.72C582.255 280.72 583.215 281.44 583.215 282.76C583.215 284.1 582.255 284.78 580.715 284.78ZM580.715 291.4C578.855 291.4 577.675 290.48 577.675 288.96C577.675 287.46 578.855 286.54 580.715 286.54C582.595 286.54 583.755 287.46 583.755 288.96C583.755 290.48 582.595 291.4 580.715 291.4ZM490.82 306.62L491.16 304.9H489.28L490.04 301.18H488.3L487.56 304.9H485.36L486.12 301.18H484.4L483.64 304.9H481.66L481.32 306.62H483.3L482.72 309.52H480.9L480.58 311.24H482.36L481.6 315H483.32L484.08 311.24H486.28L485.52 315H487.24L488 311.24H490.1L490.42 309.52H488.36L488.94 306.62H490.82ZM486.62 309.52H484.44L485.02 306.62H487.2L486.62 309.52ZM494.519 306.6V302.72H502.479V300.7H492.139V315H502.679V312.98H494.519V308.64H501.499V306.6H494.519ZM506.199 306.6V302.72H514.159V300.7H503.819V315H514.359V312.98H506.199V308.64H513.179V306.6H506.199ZM514.86 311.1C514.86 313.9 517.18 315.3 520.2 315.3C523.22 315.3 525.56 313.9 525.56 311.1C525.56 309.2 524.28 308.22 522.98 307.64V307.6C523.94 307.08 524.88 306.22 524.88 304.66C524.88 302.28 522.9 300.88 520.2 300.88C517.5 300.88 515.52 302.28 515.52 304.66C515.52 306.22 516.44 307.08 517.42 307.6V307.64C516.1 308.22 514.86 309.2 514.86 311.1ZM520.2 306.78C518.66 306.78 517.7 306.1 517.7 304.76C517.7 303.44 518.66 302.72 520.2 302.72C521.74 302.72 522.7 303.44 522.7 304.76C522.7 306.1 521.74 306.78 520.2 306.78ZM520.2 313.4C518.34 313.4 517.16 312.48 517.16 310.96C517.16 309.46 518.34 308.54 520.2 308.54C522.08 308.54 523.24 309.46 523.24 310.96C523.24 312.48 522.08 313.4 520.2 313.4ZM528.397 306.08C528.397 304.18 529.177 302.86 531.237 302.86C533.017 302.86 533.557 304 533.557 305.14C533.557 307.1 531.937 307.76 529.397 309.44C527.277 310.78 525.817 312.56 525.817 315H535.737V313.04H528.837V313C529.977 310.18 535.877 309.44 535.877 305.04C535.877 302.4 533.857 300.88 531.297 300.88C527.757 300.88 526.157 303.1 526.157 306.08H528.397ZM539.346 306.88V302.72H546.966V300.7H536.966V315H539.346V308.92H545.526V306.88H539.346ZM547.245 311.1C547.245 313.9 549.565 315.3 552.585 315.3C555.605 315.3 557.945 313.9 557.945 311.1C557.945 309.2 556.665 308.22 555.365 307.64V307.6C556.325 307.08 557.265 306.22 557.265 304.66C557.265 302.28 555.285 300.88 552.585 300.88C549.885 300.88 547.905 302.28 547.905 304.66C547.905 306.22 548.825 307.08 549.805 307.6V307.64C548.485 308.22 547.245 309.2 547.245 311.1ZM552.585 306.78C551.045 306.78 550.085 306.1 550.085 304.76C550.085 303.44 551.045 302.72 552.585 302.72C554.125 302.72 555.085 303.44 555.085 304.76C555.085 306.1 554.125 306.78 552.585 306.78ZM552.585 313.4C550.725 313.4 549.545 312.48 549.545 310.96C549.545 309.46 550.725 308.54 552.585 308.54C554.465 308.54 555.625 309.46 555.625 310.96C555.625 312.48 554.465 313.4 552.585 313.4Z" fill="#1E1E26"/>
<rect x="465" y="335" width="475" height="375" fill="#F9D54A"/>
<path d="M831.877 365.62L833.037 369H835.457L830.217 354.7H827.717L822.457 369H824.877L826.037 365.62H831.877ZM826.697 363.64L828.957 356.88H828.997L831.237 363.64H826.697ZM837.982 369H840.362V356.72H844.922V354.7H833.402V356.72H837.982V369ZM849.8 369H852.18V356.72H856.74V354.7H845.22V356.72H849.8V369ZM859.944 360.6V356.72H867.904V354.7H857.564V369H868.104V366.98H859.944V362.64H866.924V360.6H859.944ZM869.244 369H871.624V358.3H871.664L878.124 369H880.764V354.7H878.384V365.44H878.344L871.904 354.7H869.244V369ZM885.72 369H888.1V356.72H892.66V354.7H881.14V356.72H885.72V369ZM893.524 354.7V369H895.904V354.7H893.524ZM904.145 369.3C908.445 369.3 911.165 366.14 911.165 361.84C911.165 357.54 908.445 354.4 904.145 354.4C899.825 354.4 897.125 357.54 897.125 361.84C897.125 366.14 899.825 369.3 904.145 369.3ZM904.145 367.26C900.865 367.26 899.485 364.74 899.485 361.84C899.485 358.96 900.865 356.44 904.145 356.44C907.425 356.44 908.785 358.96 908.785 361.84C908.785 364.74 907.425 367.26 904.145 367.26ZM912.255 369H914.635V358.3H914.675L921.135 369H923.775V354.7H921.395V365.44H921.355L914.915 354.7H912.255V369Z" fill="#1E1E26"/>
<path d="M489.34 646V642.86H491.28V640.9H489.34V632.18H487.02L480.48 640.7V642.86H487.02V646H489.34ZM487.02 635.06V640.9H482.54L487.02 635.06ZM494.133 639.84C496.453 639.84 497.493 638.02 497.493 635.86C497.493 633.72 496.453 631.88 494.133 631.88C491.853 631.88 490.773 633.72 490.773 635.86C490.773 638.02 491.853 639.84 494.133 639.84ZM503.053 632.18H501.453L494.193 646H495.793L503.053 632.18ZM494.133 638.32C493.033 638.32 492.553 637.38 492.553 635.86C492.553 634.34 493.033 633.42 494.133 633.42C495.233 633.42 495.713 634.34 495.713 635.86C495.713 637.38 495.233 638.32 494.133 638.32ZM503.113 646.3C505.433 646.3 506.473 644.46 506.473 642.32C506.473 640.16 505.433 638.34 503.113 638.34C500.833 638.34 499.753 640.16 499.753 642.32C499.753 644.46 500.833 646.3 503.113 646.3ZM503.113 644.76C502.033 644.76 501.533 643.84 501.533 642.32C501.533 640.8 502.033 639.86 503.113 639.86C504.213 639.86 504.693 640.8 504.693 642.32C504.693 643.84 504.213 644.76 503.113 644.76ZM524.5 646V642.86H526.44V640.9H524.5V632.18H522.18L515.64 640.7V642.86H522.18V646H524.5ZM522.18 635.06V640.9H517.7L522.18 635.06ZM529.12 638.66V638.62C529.16 636.1 529.74 633.78 532.24 633.78C533.7 633.78 534.42 634.62 534.56 635.68H536.88C536.6 633.6 534.86 631.88 532.26 631.88C528.78 631.88 526.8 634.42 526.8 639.14C526.8 643.28 528.22 646.3 532.26 646.3C535.36 646.3 537.26 644.18 537.26 641.46C537.26 638.74 535.4 636.86 532.68 636.86C531.08 636.86 529.8 637.54 529.12 638.66ZM532.18 644.4C530.34 644.4 529.24 643.26 529.24 641.62C529.24 639.92 530.46 638.76 532.3 638.76C533.88 638.76 535 639.82 535 641.58C535 643.26 533.96 644.4 532.18 644.4ZM540.935 639.84C543.255 639.84 544.295 638.02 544.295 635.86C544.295 633.72 543.255 631.88 540.935 631.88C538.655 631.88 537.575 633.72 537.575 635.86C537.575 638.02 538.655 639.84 540.935 639.84ZM549.855 632.18H548.255L540.995 646H542.595L549.855 632.18ZM540.935 638.32C539.835 638.32 539.355 637.38 539.355 635.86C539.355 634.34 539.835 633.42 540.935 633.42C542.035 633.42 542.515 634.34 542.515 635.86C542.515 637.38 542.035 638.32 540.935 638.32ZM549.915 646.3C552.235 646.3 553.275 644.46 553.275 642.32C553.275 640.16 552.235 638.34 549.915 638.34C547.635 638.34 546.555 640.16 546.555 642.32C546.555 644.46 547.635 646.3 549.915 646.3ZM549.915 644.76C548.835 644.76 548.335 643.84 548.335 642.32C548.335 640.8 548.835 639.86 549.915 639.86C551.015 639.86 551.495 640.8 551.495 642.32C551.495 643.84 551.015 644.76 549.915 644.76ZM568.282 646.3C572.182 646.3 573.842 643.02 573.842 639.1C573.842 635.18 572.182 631.88 568.282 631.88C564.382 631.88 562.722 635.18 562.722 639.1C562.722 643.02 564.382 646.3 568.282 646.3ZM568.282 644.32C565.842 644.32 565.022 641.98 565.022 639.1C565.022 636.22 565.842 633.86 568.282 633.86C570.722 633.86 571.522 636.22 571.522 639.1C571.522 641.98 570.722 644.32 568.282 644.32ZM577.599 639.84C579.919 639.84 580.959 638.02 580.959 635.86C580.959 633.72 579.919 631.88 577.599 631.88C575.319 631.88 574.239 633.72 574.239 635.86C574.239 638.02 575.319 639.84 577.599 639.84ZM586.519 632.18H584.919L577.659 646H579.259L586.519 632.18ZM577.599 638.32C576.499 638.32 576.019 637.38 576.019 635.86C576.019 634.34 576.499 633.42 577.599 633.42C578.699 633.42 579.179 634.34 579.179 635.86C579.179 637.38 578.699 638.32 577.599 638.32ZM586.579 646.3C588.899 646.3 589.939 644.46 589.939 642.32C589.939 640.16 588.899 638.34 586.579 638.34C584.299 638.34 583.219 640.16 583.219 642.32C583.219 644.46 584.299 646.3 586.579 646.3ZM586.579 644.76C585.499 644.76 584.999 643.84 584.999 642.32C584.999 640.8 585.499 639.86 586.579 639.86C587.679 639.86 588.159 640.8 588.159 642.32C588.159 643.84 587.679 644.76 586.579 644.76ZM601.586 636.36C601.586 635 602.286 633.86 604.466 633.86C606.106 633.86 606.826 634.74 606.826 635.88C606.826 637.3 605.866 637.9 604.426 637.9H603.266V639.74H604.506C605.926 639.74 607.306 640.16 607.306 642.06C607.306 643.52 606.506 644.32 604.426 644.32C602.066 644.32 601.206 643.12 601.206 641.26H598.966C598.966 644.44 600.946 646.3 604.586 646.3C607.586 646.3 609.606 644.84 609.606 642.12C609.606 640.48 608.946 639.24 607.066 638.7V638.66C608.386 638.1 609.146 637.18 609.146 635.7C609.146 633.26 606.986 631.88 604.546 631.88C601.086 631.88 599.326 633.78 599.326 636.36H601.586ZM613.267 639.84C615.587 639.84 616.627 638.02 616.627 635.86C616.627 633.72 615.587 631.88 613.267 631.88C610.987 631.88 609.907 633.72 609.907 635.86C609.907 638.02 610.987 639.84 613.267 639.84ZM622.187 632.18H620.587L613.327 646H614.927L622.187 632.18ZM613.267 638.32C612.167 638.32 611.687 637.38 611.687 635.86C611.687 634.34 612.167 633.42 613.267 633.42C614.367 633.42 614.847 634.34 614.847 635.86C614.847 637.38 614.367 638.32 613.267 638.32ZM622.247 646.3C624.567 646.3 625.607 644.46 625.607 642.32C625.607 640.16 624.567 638.34 622.247 638.34C619.967 638.34 618.887 640.16 618.887 642.32C618.887 644.46 619.967 646.3 622.247 646.3ZM622.247 644.76C621.167 644.76 620.667 643.84 620.667 642.32C620.667 640.8 621.167 639.86 622.247 639.86C623.347 639.86 623.827 640.8 623.827 642.32C623.827 643.84 623.347 644.76 622.247 644.76ZM483.14 659.08C483.14 657.18 483.92 655.86 485.98 655.86C487.76 655.86 488.3 657 488.3 658.14C488.3 660.1 486.68 660.76 484.14 662.44C482.02 663.78 480.56 665.56 480.56 668H490.48V666.04H483.58V666C484.72 663.18 490.62 662.44 490.62 658.04C490.62 655.4 488.6 653.88 486.04 653.88C482.5 653.88 480.9 656.1 480.9 659.08H483.14ZM493.449 658.36C493.449 657 494.149 655.86 496.329 655.86C497.969 655.86 498.689 656.74 498.689 657.88C498.689 659.3 497.729 659.9 496.289 659.9H495.129V661.74H496.369C497.789 661.74 499.169 662.16 499.169 664.06C499.169 665.52 498.369 666.32 496.289 666.32C493.929 666.32 493.069 665.12 493.069 663.26H490.829C490.829 666.44 492.809 668.3 496.449 668.3C499.449 668.3 501.469 666.84 501.469 664.12C501.469 662.48 500.809 661.24 498.929 660.7V660.66C500.249 660.1 501.009 659.18 501.009 657.7C501.009 655.26 498.849 653.88 496.409 653.88C492.949 653.88 491.189 655.78 491.189 658.36H493.449ZM501.832 664.1C501.832 666.9 504.152 668.3 507.172 668.3C510.192 668.3 512.532 666.9 512.532 664.1C512.532 662.2 511.252 661.22 509.952 660.64V660.6C510.912 660.08 511.852 659.22 511.852 657.66C511.852 655.28 509.872 653.88 507.172 653.88C504.472 653.88 502.492 655.28 502.492 657.66C502.492 659.22 503.412 660.08 504.392 660.6V660.64C503.072 661.22 501.832 662.2 501.832 664.1ZM507.172 659.78C505.632 659.78 504.672 659.1 504.672 657.76C504.672 656.44 505.632 655.72 507.172 655.72C508.712 655.72 509.672 656.44 509.672 657.76C509.672 659.1 508.712 659.78 507.172 659.78ZM507.172 666.4C505.312 666.4 504.132 665.48 504.132 663.96C504.132 662.46 505.312 661.54 507.172 661.54C509.052 661.54 510.212 662.46 510.212 663.96C510.212 665.48 509.052 666.4 507.172 666.4ZM514.507 668.14C514.507 668.9 514.027 669.52 513.287 669.66V670.8C515.027 670.52 515.747 668.86 515.747 667.4C515.747 666.28 515.287 665.56 514.387 665.56C513.667 665.56 513.087 666.04 513.087 666.9C513.087 667.84 513.727 668.28 514.507 668.14ZM522.734 654.18C522.594 655.88 521.874 657.12 519.374 657.12V658.78C520.534 658.78 521.454 658.78 522.274 657.98V668H524.594V654.18H522.734ZM528.219 658.36C528.219 657 528.919 655.86 531.099 655.86C532.739 655.86 533.459 656.74 533.459 657.88C533.459 659.3 532.499 659.9 531.059 659.9H529.899V661.74H531.139C532.559 661.74 533.939 662.16 533.939 664.06C533.939 665.52 533.139 666.32 531.059 666.32C528.699 666.32 527.839 665.12 527.839 663.26H525.599C525.599 666.44 527.579 668.3 531.219 668.3C534.219 668.3 536.239 666.84 536.239 664.12C536.239 662.48 535.579 661.24 533.699 660.7V660.66C535.019 660.1 535.779 659.18 535.779 657.7C535.779 655.26 533.619 653.88 531.179 653.88C527.719 653.88 525.959 655.78 525.959 658.36H528.219ZM542.341 668.3C546.241 668.3 547.901 665.02 547.901 661.1C547.901 657.18 546.241 653.88 542.341 653.88C538.441 653.88 536.781 657.18 536.781 661.1C536.781 665.02 538.441 668.3 542.341 668.3ZM542.341 666.32C539.901 666.32 539.081 663.98 539.081 661.1C539.081 658.22 539.901 655.86 542.341 655.86C544.781 655.86 545.581 658.22 545.581 661.1C545.581 663.98 544.781 666.32 542.341 666.32ZM549.609 668.14C549.609 668.9 549.129 669.52 548.389 669.66V670.8C550.129 670.52 550.849 668.86 550.849 667.4C550.849 666.28 550.389 665.56 549.489 665.56C548.769 665.56 548.189 666.04 548.189 666.9C548.189 667.84 548.829 668.28 549.609 668.14ZM556.995 659.08C556.995 657.18 557.775 655.86 559.835 655.86C561.615 655.86 562.155 657 562.155 658.14C562.155 660.1 560.535 660.76 557.995 662.44C555.875 663.78 554.415 665.56 554.415 668H564.335V666.04H557.435V666C558.575 663.18 564.475 662.44 564.475 658.04C564.475 655.4 562.455 653.88 559.895 653.88C556.355 653.88 554.755 656.1 554.755 659.08H556.995ZM573.196 668V664.86H575.136V662.9H573.196V654.18H570.876L564.336 662.7V664.86H570.876V668H573.196ZM570.876 657.06V662.9H566.396L570.876 657.06ZM575.375 664.1C575.375 666.9 577.695 668.3 580.715 668.3C583.735 668.3 586.075 666.9 586.075 664.1C586.075 662.2 584.795 661.22 583.495 660.64V660.6C584.455 660.08 585.395 659.22 585.395 657.66C585.395 655.28 583.415 653.88 580.715 653.88C578.015 653.88 576.035 655.28 576.035 657.66C576.035 659.22 576.955 660.08 577.935 660.6V660.64C576.615 661.22 575.375 662.2 575.375 664.1ZM580.715 659.78C579.175 659.78 578.215 659.1 578.215 657.76C578.215 656.44 579.175 655.72 580.715 655.72C582.255 655.72 583.215 656.44 583.215 657.76C583.215 659.1 582.255 659.78 580.715 659.78ZM580.715 666.4C578.855 666.4 577.675 665.48 577.675 663.96C577.675 662.46 578.855 661.54 580.715 661.54C582.595 661.54 583.755 662.46 583.755 663.96C583.755 665.48 582.595 666.4 580.715 666.4ZM490.82 681.62L491.16 679.9H489.28L490.04 676.18H488.3L487.56 679.9H485.36L486.12 676.18H484.4L483.64 679.9H481.66L481.32 681.62H483.3L482.72 684.52H480.9L480.58 686.24H482.36L481.6 690H483.32L484.08 686.24H486.28L485.52 690H487.24L488 686.24H490.1L490.42 684.52H488.36L488.94 681.62H490.82ZM486.62 684.52H484.44L485.02 681.62H487.2L486.62 684.52ZM494.519 681.6V677.72H502.479V675.7H492.139V690H502.679V687.98H494.519V683.64H501.499V681.6H494.519ZM506.199 681.6V677.72H514.159V675.7H503.819V690H514.359V687.98H506.199V683.64H513.179V681.6H506.199ZM514.86 686.1C514.86 688.9 517.18 690.3 520.2 690.3C523.22 690.3 525.56 688.9 525.56 686.1C525.56 684.2 524.28 683.22 522.98 682.64V682.6C523.94 682.08 524.88 681.22 524.88 679.66C524.88 677.28 522.9 675.88 520.2 675.88C517.5 675.88 515.52 677.28 515.52 679.66C515.52 681.22 516.44 682.08 517.42 682.6V682.64C516.1 683.22 514.86 684.2 514.86 686.1ZM520.2 681.78C518.66 681.78 517.7 681.1 517.7 679.76C517.7 678.44 518.66 677.72 520.2 677.72C521.74 677.72 522.7 678.44 522.7 679.76C522.7 681.1 521.74 681.78 520.2 681.78ZM520.2 688.4C518.34 688.4 517.16 687.48 517.16 685.96C517.16 684.46 518.34 683.54 520.2 683.54C522.08 683.54 523.24 684.46 523.24 685.96C523.24 687.48 522.08 688.4 520.2 688.4ZM528.397 681.08C528.397 679.18 529.177 677.86 531.237 677.86C533.017 677.86 533.557 679 533.557 680.14C533.557 682.1 531.937 682.76 529.397 684.44C527.277 685.78 525.817 687.56 525.817 690H535.737V688.04H528.837V688C529.977 685.18 535.877 684.44 535.877 680.04C535.877 677.4 533.857 675.88 531.297 675.88C527.757 675.88 526.157 678.1 526.157 681.08H528.397ZM539.346 681.88V677.72H546.966V675.7H536.966V690H539.346V683.92H545.526V681.88H539.346ZM547.245 686.1C547.245 688.9 549.565 690.3 552.585 690.3C555.605 690.3 557.945 688.9 557.945 686.1C557.945 684.2 556.665 683.22 555.365 682.64V682.6C556.325 682.08 557.265 681.22 557.265 679.66C557.265 677.28 555.285 675.88 552.585 675.88C549.885 675.88 547.905 677.28 547.905 679.66C547.905 681.22 548.825 682.08 549.805 682.6V682.64C548.485 683.22 547.245 684.2 547.245 686.1ZM552.585 681.78C551.045 681.78 550.085 681.1 550.085 679.76C550.085 678.44 551.045 677.72 552.585 677.72C554.125 677.72 555.085 678.44 555.085 679.76C555.085 681.1 554.125 681.78 552.585 681.78ZM552.585 688.4C550.725 688.4 549.545 687.48 549.545 685.96C549.545 684.46 550.725 683.54 552.585 683.54C554.465 683.54 555.625 684.46 555.625 685.96C555.625 687.48 554.465 688.4 552.585 688.4Z" fill="#1E1E26"/>
<rect x="940" y="335" width="320" height="190" fill="#69B1F9"/>
<path d="M1170.14 354.7V369H1172.52V362.66H1179.28V369H1181.66V354.7H1179.28V360.62H1172.52V354.7H1170.14ZM1189.88 369.3C1194.18 369.3 1196.9 366.14 1196.9 361.84C1196.9 357.54 1194.18 354.4 1189.88 354.4C1185.56 354.4 1182.86 357.54 1182.86 361.84C1182.86 366.14 1185.56 369.3 1189.88 369.3ZM1189.88 367.26C1186.6 367.26 1185.22 364.74 1185.22 361.84C1185.22 358.96 1186.6 356.44 1189.88 356.44C1193.16 356.44 1194.52 358.96 1194.52 361.84C1194.52 364.74 1193.16 367.26 1189.88 367.26ZM1197.99 369H1200.37V358.3H1200.41L1206.87 369H1209.51V354.7H1207.13V365.44H1207.09L1200.65 354.7H1197.99V369ZM1213.54 360.6V356.72H1221.5V354.7H1211.16V369H1221.7V366.98H1213.54V362.64H1220.52V360.6H1213.54ZM1228.1 360.48C1226.1 359.98 1224.76 359.7 1224.76 358.14C1224.76 357.08 1225.78 356.44 1227.48 356.44C1229.46 356.44 1230.5 357.32 1230.72 358.98H1233.1C1232.9 356.04 1230.62 354.4 1227.48 354.4C1224.36 354.4 1222.4 355.82 1222.4 358.36C1222.4 361.08 1224.82 361.94 1227.06 362.5C1229.88 363.2 1231.1 363.52 1231.1 365.22C1231.1 366.32 1230.28 367.26 1228.16 367.26C1225.6 367.26 1224.36 366.06 1224.24 364.24H1221.86C1222 367.48 1224.66 369.3 1228.16 369.3C1231.76 369.3 1233.48 367.4 1233.48 365.12C1233.48 361.92 1231.16 361.26 1228.1 360.48ZM1237.66 369H1240.04V356.72H1244.6V354.7H1233.08V356.72H1237.66V369Z" fill="#1E1E26"/>
<path d="M964.34 461V457.86H966.28V455.9H964.34V447.18H962.02L955.48 455.7V457.86H962.02V461H964.34ZM962.02 450.06V455.9H957.54L962.02 450.06ZM969.133 454.84C971.453 454.84 972.493 453.02 972.493 450.86C972.493 448.72 971.453 446.88 969.133 446.88C966.853 446.88 965.773 448.72 965.773 450.86C965.773 453.02 966.853 454.84 969.133 454.84ZM978.053 447.18H976.453L969.193 461H970.793L978.053 447.18ZM969.133 453.32C968.033 453.32 967.553 452.38 967.553 450.86C967.553 449.34 968.033 448.42 969.133 448.42C970.233 448.42 970.713 449.34 970.713 450.86C970.713 452.38 970.233 453.32 969.133 453.32ZM978.113 461.3C980.433 461.3 981.473 459.46 981.473 457.32C981.473 455.16 980.433 453.34 978.113 453.34C975.833 453.34 974.753 455.16 974.753 457.32C974.753 459.46 975.833 461.3 978.113 461.3ZM978.113 459.76C977.033 459.76 976.533 458.84 976.533 457.32C976.533 455.8 977.033 454.86 978.113 454.86C979.213 454.86 979.693 455.8 979.693 457.32C979.693 458.84 979.213 459.76 978.113 459.76ZM999.5 461V457.86H1001.44V455.9H999.5V447.18H997.18L990.64 455.7V457.86H997.18V461H999.5ZM997.18 450.06V455.9H992.7L997.18 450.06ZM1004.12 453.66V453.62C1004.16 451.1 1004.74 448.78 1007.24 448.78C1008.7 448.78 1009.42 449.62 1009.56 450.68H1011.88C1011.6 448.6 1009.86 446.88 1007.26 446.88C1003.78 446.88 1001.8 449.42 1001.8 454.14C1001.8 458.28 1003.22 461.3 1007.26 461.3C1010.36 461.3 1012.26 459.18 1012.26 456.46C1012.26 453.74 1010.4 451.86 1007.68 451.86C1006.08 451.86 1004.8 452.54 1004.12 453.66ZM1007.18 459.4C1005.34 459.4 1004.24 458.26 1004.24 456.62C1004.24 454.92 1005.46 453.76 1007.3 453.76C1008.88 453.76 1010 454.82 1010 456.58C1010 458.26 1008.96 459.4 1007.18 459.4ZM1015.93 454.84C1018.25 454.84 1019.29 453.02 1019.29 450.86C1019.29 448.72 1018.25 446.88 1015.93 446.88C1013.65 446.88 1012.57 448.72 1012.57 450.86C1012.57 453.02 1013.65 454.84 1015.93 454.84ZM1024.85 447.18H1023.25L1015.99 461H1017.59L1024.85 447.18ZM1015.93 453.32C1014.83 453.32 1014.35 452.38 1014.35 450.86C1014.35 449.34 1014.83 448.42 1015.93 448.42C1017.03 448.42 1017.51 449.34 1017.51 450.86C1017.51 452.38 1017.03 453.32 1015.93 453.32ZM1024.91 461.3C1027.23 461.3 1028.27 459.46 1028.27 457.32C1028.27 455.16 1027.23 453.34 1024.91 453.34C1022.63 453.34 1021.55 455.16 1021.55 457.32C1021.55 459.46 1022.63 461.3 1024.91 461.3ZM1024.91 459.76C1023.83 459.76 1023.33 458.84 1023.33 457.32C1023.33 455.8 1023.83 454.86 1024.91 454.86C1026.01 454.86 1026.49 455.8 1026.49 457.32C1026.49 458.84 1026.01 459.76 1024.91 459.76ZM1043.28 461.3C1047.18 461.3 1048.84 458.02 1048.84 454.1C1048.84 450.18 1047.18 446.88 1043.28 446.88C1039.38 446.88 1037.72 450.18 1037.72 454.1C1037.72 458.02 1039.38 461.3 1043.28 461.3ZM1043.28 459.32C1040.84 459.32 1040.02 456.98 1040.02 454.1C1040.02 451.22 1040.84 448.86 1043.28 448.86C1045.72 448.86 1046.52 451.22 1046.52 454.1C1046.52 456.98 1045.72 459.32 1043.28 459.32ZM1052.6 454.84C1054.92 454.84 1055.96 453.02 1055.96 450.86C1055.96 448.72 1054.92 446.88 1052.6 446.88C1050.32 446.88 1049.24 448.72 1049.24 450.86C1049.24 453.02 1050.32 454.84 1052.6 454.84ZM1061.52 447.18H1059.92L1052.66 461H1054.26L1061.52 447.18ZM1052.6 453.32C1051.5 453.32 1051.02 452.38 1051.02 450.86C1051.02 449.34 1051.5 448.42 1052.6 448.42C1053.7 448.42 1054.18 449.34 1054.18 450.86C1054.18 452.38 1053.7 453.32 1052.6 453.32ZM1061.58 461.3C1063.9 461.3 1064.94 459.46 1064.94 457.32C1064.94 455.16 1063.9 453.34 1061.58 453.34C1059.3 453.34 1058.22 455.16 1058.22 457.32C1058.22 459.46 1059.3 461.3 1061.58 461.3ZM1061.58 459.76C1060.5 459.76 1060 458.84 1060 457.32C1060 455.8 1060.5 454.86 1061.58 454.86C1062.68 454.86 1063.16 455.8 1063.16 457.32C1063.16 458.84 1062.68 459.76 1061.58 459.76ZM1076.59 451.36C1076.59 450 1077.29 448.86 1079.47 448.86C1081.11 448.86 1081.83 449.74 1081.83 450.88C1081.83 452.3 1080.87 452.9 1079.43 452.9H1078.27V454.74H1079.51C1080.93 454.74 1082.31 455.16 1082.31 457.06C1082.31 458.52 1081.51 459.32 1079.43 459.32C1077.07 459.32 1076.21 458.12 1076.21 456.26H1073.97C1073.97 459.44 1075.95 461.3 1079.59 461.3C1082.59 461.3 1084.61 459.84 1084.61 457.12C1084.61 455.48 1083.95 454.24 1082.07 453.7V453.66C1083.39 453.1 1084.15 452.18 1084.15 450.7C1084.15 448.26 1081.99 446.88 1079.55 446.88C1076.09 446.88 1074.33 448.78 1074.33 451.36H1076.59ZM1088.27 454.84C1090.59 454.84 1091.63 453.02 1091.63 450.86C1091.63 448.72 1090.59 446.88 1088.27 446.88C1085.99 446.88 1084.91 448.72 1084.91 450.86C1084.91 453.02 1085.99 454.84 1088.27 454.84ZM1097.19 447.18H1095.59L1088.33 461H1089.93L1097.19 447.18ZM1088.27 453.32C1087.17 453.32 1086.69 452.38 1086.69 450.86C1086.69 449.34 1087.17 448.42 1088.27 448.42C1089.37 448.42 1089.85 449.34 1089.85 450.86C1089.85 452.38 1089.37 453.32 1088.27 453.32ZM1097.25 461.3C1099.57 461.3 1100.61 459.46 1100.61 457.32C1100.61 455.16 1099.57 453.34 1097.25 453.34C1094.97 453.34 1093.89 455.16 1093.89 457.32C1093.89 459.46 1094.97 461.3 1097.25 461.3ZM1097.25 459.76C1096.17 459.76 1095.67 458.84 1095.67 457.32C1095.67 455.8 1096.17 454.86 1097.25 454.86C1098.35 454.86 1098.83 455.8 1098.83 457.32C1098.83 458.84 1098.35 459.76 1097.25 459.76ZM958.14 474.08C958.14 472.18 958.92 470.86 960.98 470.86C962.76 470.86 963.3 472 963.3 473.14C963.3 475.1 961.68 475.76 959.14 477.44C957.02 478.78 955.56 480.56 955.56 483H965.48V481.04H958.58V481C959.72 478.18 965.62 477.44 965.62 473.04C965.62 470.4 963.6 468.88 961.04 468.88C957.5 468.88 955.9 471.1 955.9 474.08H958.14ZM968.449 473.36C968.449 472 969.149 470.86 971.329 470.86C972.969 470.86 973.689 471.74 973.689 472.88C973.689 474.3 972.729 474.9 971.289 474.9H970.129V476.74H971.369C972.789 476.74 974.169 477.16 974.169 479.06C974.169 480.52 973.369 481.32 971.289 481.32C968.929 481.32 968.069 480.12 968.069 478.26H965.829C965.829 481.44 967.809 483.3 971.449 483.3C974.449 483.3 976.469 481.84 976.469 479.12C976.469 477.48 975.809 476.24 973.929 475.7V475.66C975.249 475.1 976.009 474.18 976.009 472.7C976.009 470.26 973.849 468.88 971.409 468.88C967.949 468.88 966.189 470.78 966.189 473.36H968.449ZM976.832 479.1C976.832 481.9 979.152 483.3 982.172 483.3C985.192 483.3 987.532 481.9 987.532 479.1C987.532 477.2 986.252 476.22 984.952 475.64V475.6C985.912 475.08 986.852 474.22 986.852 472.66C986.852 470.28 984.872 468.88 982.172 468.88C979.472 468.88 977.492 470.28 977.492 472.66C977.492 474.22 978.412 475.08 979.392 475.6V475.64C978.072 476.22 976.832 477.2 976.832 479.1ZM982.172 474.78C980.632 474.78 979.672 474.1 979.672 472.76C979.672 471.44 980.632 470.72 982.172 470.72C983.712 470.72 984.672 471.44 984.672 472.76C984.672 474.1 983.712 474.78 982.172 474.78ZM982.172 481.4C980.312 481.4 979.132 480.48 979.132 478.96C979.132 477.46 980.312 476.54 982.172 476.54C984.052 476.54 985.212 477.46 985.212 478.96C985.212 480.48 984.052 481.4 982.172 481.4ZM989.507 483.14C989.507 483.9 989.027 484.52 988.287 484.66V485.8C990.027 485.52 990.747 483.86 990.747 482.4C990.747 481.28 990.287 480.56 989.387 480.56C988.667 480.56 988.087 481.04 988.087 481.9C988.087 482.84 988.727 483.28 989.507 483.14ZM997.734 469.18C997.594 470.88 996.874 472.12 994.374 472.12V473.78C995.534 473.78 996.454 473.78 997.274 472.98V483H999.594V469.18H997.734ZM1003.22 473.36C1003.22 472 1003.92 470.86 1006.1 470.86C1007.74 470.86 1008.46 471.74 1008.46 472.88C1008.46 474.3 1007.5 474.9 1006.06 474.9H1004.9V476.74H1006.14C1007.56 476.74 1008.94 477.16 1008.94 479.06C1008.94 480.52 1008.14 481.32 1006.06 481.32C1003.7 481.32 1002.84 480.12 1002.84 478.26H1000.6C1000.6 481.44 1002.58 483.3 1006.22 483.3C1009.22 483.3 1011.24 481.84 1011.24 479.12C1011.24 477.48 1010.58 476.24 1008.7 475.7V475.66C1010.02 475.1 1010.78 474.18 1010.78 472.7C1010.78 470.26 1008.62 468.88 1006.18 468.88C1002.72 468.88 1000.96 470.78 1000.96 473.36H1003.22ZM1017.34 483.3C1021.24 483.3 1022.9 480.02 1022.9 476.1C1022.9 472.18 1021.24 468.88 1017.34 468.88C1013.44 468.88 1011.78 472.18 1011.78 476.1C1011.78 480.02 1013.44 483.3 1017.34 483.3ZM1017.34 481.32C1014.9 481.32 1014.08 478.98 1014.08 476.1C1014.08 473.22 1014.9 470.86 1017.34 470.86C1019.78 470.86 1020.58 473.22 1020.58 476.1C1020.58 478.98 1019.78 481.32 1017.34 481.32ZM1024.61 483.14C1024.61 483.9 1024.13 484.52 1023.39 484.66V485.8C1025.13 485.52 1025.85 483.86 1025.85 482.4C1025.85 481.28 1025.39 480.56 1024.49 480.56C1023.77 480.56 1023.19 481.04 1023.19 481.9C1023.19 482.84 1023.83 483.28 1024.61 483.14ZM1032 474.08C1032 472.18 1032.78 470.86 1034.84 470.86C1036.62 470.86 1037.16 472 1037.16 473.14C1037.16 475.1 1035.54 475.76 1033 477.44C1030.88 478.78 1029.42 480.56 1029.42 483H1039.34V481.04H1032.44V481C1033.58 478.18 1039.48 477.44 1039.48 473.04C1039.48 470.4 1037.46 468.88 1034.9 468.88C1031.36 468.88 1029.76 471.1 1029.76 474.08H1032ZM1048.2 483V479.86H1050.14V477.9H1048.2V469.18H1045.88L1039.34 477.7V479.86H1045.88V483H1048.2ZM1045.88 472.06V477.9H1041.4L1045.88 472.06ZM1050.37 479.1C1050.37 481.9 1052.69 483.3 1055.71 483.3C1058.73 483.3 1061.07 481.9 1061.07 479.1C1061.07 477.2 1059.79 476.22 1058.49 475.64V475.6C1059.45 475.08 1060.39 474.22 1060.39 472.66C1060.39 470.28 1058.41 468.88 1055.71 468.88C1053.01 468.88 1051.03 470.28 1051.03 472.66C1051.03 474.22 1051.95 475.08 1052.93 475.6V475.64C1051.61 476.22 1050.37 477.2 1050.37 479.1ZM1055.71 474.78C1054.17 474.78 1053.21 474.1 1053.21 472.76C1053.21 471.44 1054.17 470.72 1055.71 470.72C1057.25 470.72 1058.21 471.44 1058.21 472.76C1058.21 474.1 1057.25 474.78 1055.71 474.78ZM1055.71 481.4C1053.85 481.4 1052.67 480.48 1052.67 478.96C1052.67 477.46 1053.85 476.54 1055.71 476.54C1057.59 476.54 1058.75 477.46 1058.75 478.96C1058.75 480.48 1057.59 481.4 1055.71 481.4ZM965.82 496.62L966.16 494.9H964.28L965.04 491.18H963.3L962.56 494.9H960.36L961.12 491.18H959.4L958.64 494.9H956.66L956.32 496.62H958.3L957.72 499.52H955.9L955.58 501.24H957.36L956.6 505H958.32L959.08 501.24H961.28L960.52 505H962.24L963 501.24H965.1L965.42 499.52H963.36L963.94 496.62H965.82ZM961.62 499.52H959.44L960.02 496.62H962.2L961.62 499.52ZM969.519 496.6V492.72H977.479V490.7H967.139V505H977.679V502.98H969.519V498.64H976.499V496.6H969.519ZM981.199 496.6V492.72H989.159V490.7H978.819V505H989.359V502.98H981.199V498.64H988.179V496.6H981.199ZM989.86 501.1C989.86 503.9 992.18 505.3 995.2 505.3C998.22 505.3 1000.56 503.9 1000.56 501.1C1000.56 499.2 999.28 498.22 997.98 497.64V497.6C998.94 497.08 999.88 496.22 999.88 494.66C999.88 492.28 997.9 490.88 995.2 490.88C992.5 490.88 990.52 492.28 990.52 494.66C990.52 496.22 991.44 497.08 992.42 497.6V497.64C991.1 498.22 989.86 499.2 989.86 501.1ZM995.2 496.78C993.66 496.78 992.7 496.1 992.7 494.76C992.7 493.44 993.66 492.72 995.2 492.72C996.74 492.72 997.7 493.44 997.7 494.76C997.7 496.1 996.74 496.78 995.2 496.78ZM995.2 503.4C993.34 503.4 992.16 502.48 992.16 500.96C992.16 499.46 993.34 498.54 995.2 498.54C997.08 498.54 998.24 499.46 998.24 500.96C998.24 502.48 997.08 503.4 995.2 503.4ZM1003.4 496.08C1003.4 494.18 1004.18 492.86 1006.24 492.86C1008.02 492.86 1008.56 494 1008.56 495.14C1008.56 497.1 1006.94 497.76 1004.4 499.44C1002.28 500.78 1000.82 502.56 1000.82 505H1010.74V503.04H1003.84V503C1004.98 500.18 1010.88 499.44 1010.88 495.04C1010.88 492.4 1008.86 490.88 1006.3 490.88C1002.76 490.88 1001.16 493.1 1001.16 496.08H1003.4ZM1014.35 496.88V492.72H1021.97V490.7H1011.97V505H1014.35V498.92H1020.53V496.88H1014.35ZM1022.24 501.1C1022.24 503.9 1024.56 505.3 1027.58 505.3C1030.6 505.3 1032.94 503.9 1032.94 501.1C1032.94 499.2 1031.66 498.22 1030.36 497.64V497.6C1031.32 497.08 1032.26 496.22 1032.26 494.66C1032.26 492.28 1030.28 490.88 1027.58 490.88C1024.88 490.88 1022.9 492.28 1022.9 494.66C1022.9 496.22 1023.82 497.08 1024.8 497.6V497.64C1023.48 498.22 1022.24 499.2 1022.24 501.1ZM1027.58 496.78C1026.04 496.78 1025.08 496.1 1025.08 494.76C1025.08 493.44 1026.04 492.72 1027.58 492.72C1029.12 492.72 1030.08 493.44 1030.08 494.76C1030.08 496.1 1029.12 496.78 1027.58 496.78ZM1027.58 503.4C1025.72 503.4 1024.54 502.48 1024.54 500.96C1024.54 499.46 1025.72 498.54 1027.58 498.54C1029.46 498.54 1030.62 499.46 1030.62 500.96C1030.62 502.48 1029.46 503.4 1027.58 503.4Z" fill="#1E1E26"/>
<rect x="940" y="525" width="320" height="185" fill="#8CCD3E"/>
<path d="M1162.48 559.3C1166.78 559.3 1169.5 556.14 1169.5 551.84C1169.5 547.54 1166.78 544.4 1162.48 544.4C1158.16 544.4 1155.46 547.54 1155.46 551.84C1155.46 556.14 1158.16 559.3 1162.48 559.3ZM1162.48 557.26C1159.2 557.26 1157.82 554.74 1157.82 551.84C1157.82 548.96 1159.2 546.44 1162.48 546.44C1165.76 546.44 1167.12 548.96 1167.12 551.84C1167.12 554.74 1165.76 557.26 1162.48 557.26ZM1170.59 559H1172.97V553.28H1176.67C1179.41 553.28 1181.39 551.98 1181.39 548.98C1181.39 545.98 1179.41 544.7 1176.67 544.7H1170.59V559ZM1172.97 546.72H1176.57C1178.17 546.72 1179.01 547.42 1179.01 548.98C1179.01 550.56 1178.17 551.24 1176.57 551.24H1172.97V546.72ZM1185.93 559H1188.31V546.72H1192.87V544.7H1181.35V546.72H1185.93V559ZM1193.74 544.7V559H1196.12V544.7H1193.74ZM1197.78 559H1200.1V548.16H1200.14L1203.92 559H1205.82L1209.6 548.16H1209.64V559H1211.96V544.7H1208.88L1204.9 555.7H1204.86L1200.86 544.7H1197.78V559ZM1213.64 544.7V559H1216.02V544.7H1213.64ZM1223.16 550.48C1221.16 549.98 1219.82 549.7 1219.82 548.14C1219.82 547.08 1220.84 546.44 1222.54 546.44C1224.52 546.44 1225.56 547.32 1225.78 548.98H1228.16C1227.96 546.04 1225.68 544.4 1222.54 544.4C1219.42 544.4 1217.46 545.82 1217.46 548.36C1217.46 551.08 1219.88 551.94 1222.12 552.5C1224.94 553.2 1226.16 553.52 1226.16 555.22C1226.16 556.32 1225.34 557.26 1223.22 557.26C1220.66 557.26 1219.42 556.06 1219.3 554.24H1216.92C1217.06 557.48 1219.72 559.3 1223.22 559.3C1226.82 559.3 1228.54 557.4 1228.54 555.12C1228.54 551.92 1226.22 551.26 1223.16 550.48ZM1229.6 559H1231.92V548.16H1231.96L1235.74 559H1237.64L1241.42 548.16H1241.46V559H1243.78V544.7H1240.7L1236.72 555.7H1236.68L1232.68 544.7H1229.6V559Z" fill="#1E1E26"/>
<path d="M964.34 646V642.86H966.28V640.9H964.34V632.18H962.02L955.48 640.7V642.86H962.02V646H964.34ZM962.02 635.06V640.9H957.54L962.02 635.06ZM969.133 639.84C971.453 639.84 972.493 638.02 972.493 635.86C972.493 633.72 971.453 631.88 969.133 631.88C966.853 631.88 965.773 633.72 965.773 635.86C965.773 638.02 966.853 639.84 969.133 639.84ZM978.053 632.18H976.453L969.193 646H970.793L978.053 632.18ZM969.133 638.32C968.033 638.32 967.553 637.38 967.553 635.86C967.553 634.34 968.033 633.42 969.133 633.42C970.233 633.42 970.713 634.34 970.713 635.86C970.713 637.38 970.233 638.32 969.133 638.32ZM978.113 646.3C980.433 646.3 981.473 644.46 981.473 642.32C981.473 640.16 980.433 638.34 978.113 638.34C975.833 638.34 974.753 640.16 974.753 642.32C974.753 644.46 975.833 646.3 978.113 646.3ZM978.113 644.76C977.033 644.76 976.533 643.84 976.533 642.32C976.533 640.8 977.033 639.86 978.113 639.86C979.213 639.86 979.693 640.8 979.693 642.32C979.693 643.84 979.213 644.76 978.113 644.76ZM999.5 646V642.86H1001.44V640.9H999.5V632.18H997.18L990.64 640.7V642.86H997.18V646H999.5ZM997.18 635.06V640.9H992.7L997.18 635.06ZM1004.12 638.66V638.62C1004.16 636.1 1004.74 633.78 1007.24 633.78C1008.7 633.78 1009.42 634.62 1009.56 635.68H1011.88C1011.6 633.6 1009.86 631.88 1007.26 631.88C1003.78 631.88 1001.8 634.42 1001.8 639.14C1001.8 643.28 1003.22 646.3 1007.26 646.3C1010.36 646.3 1012.26 644.18 1012.26 641.46C1012.26 638.74 1010.4 636.86 1007.68 636.86C1006.08 636.86 1004.8 637.54 1004.12 638.66ZM1007.18 644.4C1005.34 644.4 1004.24 643.26 1004.24 641.62C1004.24 639.92 1005.46 638.76 1007.3 638.76C1008.88 638.76 1010 639.82 1010 641.58C1010 643.26 1008.96 644.4 1007.18 644.4ZM1015.93 639.84C1018.25 639.84 1019.29 638.02 1019.29 635.86C1019.29 633.72 1018.25 631.88 1015.93 631.88C1013.65 631.88 1012.57 633.72 1012.57 635.86C1012.57 638.02 1013.65 639.84 1015.93 639.84ZM1024.85 632.18H1023.25L1015.99 646H1017.59L1024.85 632.18ZM1015.93 638.32C1014.83 638.32 1014.35 637.38 1014.35 635.86C1014.35 634.34 1014.83 633.42 1015.93 633.42C1017.03 633.42 1017.51 634.34 1017.51 635.86C1017.51 637.38 1017.03 638.32 1015.93 638.32ZM1024.91 646.3C1027.23 646.3 1028.27 644.46 1028.27 642.32C1028.27 640.16 1027.23 638.34 1024.91 638.34C1022.63 638.34 1021.55 640.16 1021.55 642.32C1021.55 644.46 1022.63 646.3 1024.91 646.3ZM1024.91 644.76C1023.83 644.76 1023.33 643.84 1023.33 642.32C1023.33 640.8 1023.83 639.86 1024.91 639.86C1026.01 639.86 1026.49 640.8 1026.49 642.32C1026.49 643.84 1026.01 644.76 1024.91 644.76ZM1043.28 646.3C1047.18 646.3 1048.84 643.02 1048.84 639.1C1048.84 635.18 1047.18 631.88 1043.28 631.88C1039.38 631.88 1037.72 635.18 1037.72 639.1C1037.72 643.02 1039.38 646.3 1043.28 646.3ZM1043.28 644.32C1040.84 644.32 1040.02 641.98 1040.02 639.1C1040.02 636.22 1040.84 633.86 1043.28 633.86C1045.72 633.86 1046.52 636.22 1046.52 639.1C1046.52 641.98 1045.72 644.32 1043.28 644.32ZM1052.6 639.84C1054.92 639.84 1055.96 638.02 1055.96 635.86C1055.96 633.72 1054.92 631.88 1052.6 631.88C1050.32 631.88 1049.24 633.72 1049.24 635.86C1049.24 638.02 1050.32 639.84 1052.6 639.84ZM1061.52 632.18H1059.92L1052.66 646H1054.26L1061.52 632.18ZM1052.6 638.32C1051.5 638.32 1051.02 637.38 1051.02 635.86C1051.02 634.34 1051.5 633.42 1052.6 633.42C1053.7 633.42 1054.18 634.34 1054.18 635.86C1054.18 637.38 1053.7 638.32 1052.6 638.32ZM1061.58 646.3C1063.9 646.3 1064.94 644.46 1064.94 642.32C1064.94 640.16 1063.9 638.34 1061.58 638.34C1059.3 638.34 1058.22 640.16 1058.22 642.32C1058.22 644.46 1059.3 646.3 1061.58 646.3ZM1061.58 644.76C1060.5 644.76 1060 643.84 1060 642.32C1060 640.8 1060.5 639.86 1061.58 639.86C1062.68 639.86 1063.16 640.8 1063.16 642.32C1063.16 643.84 1062.68 644.76 1061.58 644.76ZM1076.59 636.36C1076.59 635 1077.29 633.86 1079.47 633.86C1081.11 633.86 1081.83 634.74 1081.83 635.88C1081.83 637.3 1080.87 637.9 1079.43 637.9H1078.27V639.74H1079.51C1080.93 639.74 1082.31 640.16 1082.31 642.06C1082.31 643.52 1081.51 644.32 1079.43 644.32C1077.07 644.32 1076.21 643.12 1076.21 641.26H1073.97C1073.97 644.44 1075.95 646.3 1079.59 646.3C1082.59 646.3 1084.61 644.84 1084.61 642.12C1084.61 640.48 1083.95 639.24 1082.07 638.7V638.66C1083.39 638.1 1084.15 637.18 1084.15 635.7C1084.15 633.26 1081.99 631.88 1079.55 631.88C1076.09 631.88 1074.33 633.78 1074.33 636.36H1076.59ZM1088.27 639.84C1090.59 639.84 1091.63 638.02 1091.63 635.86C1091.63 633.72 1090.59 631.88 1088.27 631.88C1085.99 631.88 1084.91 633.72 1084.91 635.86C1084.91 638.02 1085.99 639.84 1088.27 639.84ZM1097.19 632.18H1095.59L1088.33 646H1089.93L1097.19 632.18ZM1088.27 638.32C1087.17 638.32 1086.69 637.38 1086.69 635.86C1086.69 634.34 1087.17 633.42 1088.27 633.42C1089.37 633.42 1089.85 634.34 1089.85 635.86C1089.85 637.38 1089.37 638.32 1088.27 638.32ZM1097.25 646.3C1099.57 646.3 1100.61 644.46 1100.61 642.32C1100.61 640.16 1099.57 638.34 1097.25 638.34C1094.97 638.34 1093.89 640.16 1093.89 642.32C1093.89 644.46 1094.97 646.3 1097.25 646.3ZM1097.25 644.76C1096.17 644.76 1095.67 643.84 1095.67 642.32C1095.67 640.8 1096.17 639.86 1097.25 639.86C1098.35 639.86 1098.83 640.8 1098.83 642.32C1098.83 643.84 1098.35 644.76 1097.25 644.76ZM958.14 659.08C958.14 657.18 958.92 655.86 960.98 655.86C962.76 655.86 963.3 657 963.3 658.14C963.3 660.1 961.68 660.76 959.14 662.44C957.02 663.78 955.56 665.56 955.56 668H965.48V666.04H958.58V666C959.72 663.18 965.62 662.44 965.62 658.04C965.62 655.4 963.6 653.88 961.04 653.88C957.5 653.88 955.9 656.1 955.9 659.08H958.14ZM968.449 658.36C968.449 657 969.149 655.86 971.329 655.86C972.969 655.86 973.689 656.74 973.689 657.88C973.689 659.3 972.729 659.9 971.289 659.9H970.129V661.74H971.369C972.789 661.74 974.169 662.16 974.169 664.06C974.169 665.52 973.369 666.32 971.289 666.32C968.929 666.32 968.069 665.12 968.069 663.26H965.829C965.829 666.44 967.809 668.3 971.449 668.3C974.449 668.3 976.469 666.84 976.469 664.12C976.469 662.48 975.809 661.24 973.929 660.7V660.66C975.249 660.1 976.009 659.18 976.009 657.7C976.009 655.26 973.849 653.88 971.409 653.88C967.949 653.88 966.189 655.78 966.189 658.36H968.449ZM976.832 664.1C976.832 666.9 979.152 668.3 982.172 668.3C985.192 668.3 987.532 666.9 987.532 664.1C987.532 662.2 986.252 661.22 984.952 660.64V660.6C985.912 660.08 986.852 659.22 986.852 657.66C986.852 655.28 984.872 653.88 982.172 653.88C979.472 653.88 977.492 655.28 977.492 657.66C977.492 659.22 978.412 660.08 979.392 660.6V660.64C978.072 661.22 976.832 662.2 976.832 664.1ZM982.172 659.78C980.632 659.78 979.672 659.1 979.672 657.76C979.672 656.44 980.632 655.72 982.172 655.72C983.712 655.72 984.672 656.44 984.672 657.76C984.672 659.1 983.712 659.78 982.172 659.78ZM982.172 666.4C980.312 666.4 979.132 665.48 979.132 663.96C979.132 662.46 980.312 661.54 982.172 661.54C984.052 661.54 985.212 662.46 985.212 663.96C985.212 665.48 984.052 666.4 982.172 666.4ZM989.507 668.14C989.507 668.9 989.027 669.52 988.287 669.66V670.8C990.027 670.52 990.747 668.86 990.747 667.4C990.747 666.28 990.287 665.56 989.387 665.56C988.667 665.56 988.087 666.04 988.087 666.9C988.087 667.84 988.727 668.28 989.507 668.14ZM997.734 654.18C997.594 655.88 996.874 657.12 994.374 657.12V658.78C995.534 658.78 996.454 658.78 997.274 657.98V668H999.594V654.18H997.734ZM1003.22 658.36C1003.22 657 1003.92 655.86 1006.1 655.86C1007.74 655.86 1008.46 656.74 1008.46 657.88C1008.46 659.3 1007.5 659.9 1006.06 659.9H1004.9V661.74H1006.14C1007.56 661.74 1008.94 662.16 1008.94 664.06C1008.94 665.52 1008.14 666.32 1006.06 666.32C1003.7 666.32 1002.84 665.12 1002.84 663.26H1000.6C1000.6 666.44 1002.58 668.3 1006.22 668.3C1009.22 668.3 1011.24 666.84 1011.24 664.12C1011.24 662.48 1010.58 661.24 1008.7 660.7V660.66C1010.02 660.1 1010.78 659.18 1010.78 657.7C1010.78 655.26 1008.62 653.88 1006.18 653.88C1002.72 653.88 1000.96 655.78 1000.96 658.36H1003.22ZM1017.34 668.3C1021.24 668.3 1022.9 665.02 1022.9 661.1C1022.9 657.18 1021.24 653.88 1017.34 653.88C1013.44 653.88 1011.78 657.18 1011.78 661.1C1011.78 665.02 1013.44 668.3 1017.34 668.3ZM1017.34 666.32C1014.9 666.32 1014.08 663.98 1014.08 661.1C1014.08 658.22 1014.9 655.86 1017.34 655.86C1019.78 655.86 1020.58 658.22 1020.58 661.1C1020.58 663.98 1019.78 666.32 1017.34 666.32ZM1024.61 668.14C1024.61 668.9 1024.13 669.52 1023.39 669.66V670.8C1025.13 670.52 1025.85 668.86 1025.85 667.4C1025.85 666.28 1025.39 665.56 1024.49 665.56C1023.77 665.56 1023.19 666.04 1023.19 666.9C1023.19 667.84 1023.83 668.28 1024.61 668.14ZM1032 659.08C1032 657.18 1032.78 655.86 1034.84 655.86C1036.62 655.86 1037.16 657 1037.16 658.14C1037.16 660.1 1035.54 660.76 1033 662.44C1030.88 663.78 1029.42 665.56 1029.42 668H1039.34V666.04H1032.44V666C1033.58 663.18 1039.48 662.44 1039.48 658.04C1039.48 655.4 1037.46 653.88 1034.9 653.88C1031.36 653.88 1029.76 656.1 1029.76 659.08H1032ZM1048.2 668V664.86H1050.14V662.9H1048.2V654.18H1045.88L1039.34 662.7V664.86H1045.88V668H1048.2ZM1045.88 657.06V662.9H1041.4L1045.88 657.06ZM1050.37 664.1C1050.37 666.9 1052.69 668.3 1055.71 668.3C1058.73 668.3 1061.07 666.9 1061.07 664.1C1061.07 662.2 1059.79 661.22 1058.49 660.64V660.6C1059.45 660.08 1060.39 659.22 1060.39 657.66C1060.39 655.28 1058.41 653.88 1055.71 653.88C1053.01 653.88 1051.03 655.28 1051.03 657.66C1051.03 659.22 1051.95 660.08 1052.93 660.6V660.64C1051.61 661.22 1050.37 662.2 1050.37 664.1ZM1055.71 659.78C1054.17 659.78 1053.21 659.1 1053.21 657.76C1053.21 656.44 1054.17 655.72 1055.71 655.72C1057.25 655.72 1058.21 656.44 1058.21 657.76C1058.21 659.1 1057.25 659.78 1055.71 659.78ZM1055.71 666.4C1053.85 666.4 1052.67 665.48 1052.67 663.96C1052.67 662.46 1053.85 661.54 1055.71 661.54C1057.59 661.54 1058.75 662.46 1058.75 663.96C1058.75 665.48 1057.59 666.4 1055.71 666.4ZM965.82 681.62L966.16 679.9H964.28L965.04 676.18H963.3L962.56 679.9H960.36L961.12 676.18H959.4L958.64 679.9H956.66L956.32 681.62H958.3L957.72 684.52H955.9L955.58 686.24H957.36L956.6 690H958.32L959.08 686.24H961.28L960.52 690H962.24L963 686.24H965.1L965.42 684.52H963.36L963.94 681.62H965.82ZM961.62 684.52H959.44L960.02 681.62H962.2L961.62 684.52ZM969.519 681.6V677.72H977.479V675.7H967.139V690H977.679V687.98H969.519V683.64H976.499V681.6H969.519ZM981.199 681.6V677.72H989.159V675.7H978.819V690H989.359V687.98H981.199V683.64H988.179V681.6H981.199ZM989.86 686.1C989.86 688.9 992.18 690.3 995.2 690.3C998.22 690.3 1000.56 688.9 1000.56 686.1C1000.56 684.2 999.28 683.22 997.98 682.64V682.6C998.94 682.08 999.88 681.22 999.88 679.66C999.88 677.28 997.9 675.88 995.2 675.88C992.5 675.88 990.52 677.28 990.52 679.66C990.52 681.22 991.44 682.08 992.42 682.6V682.64C991.1 683.22 989.86 684.2 989.86 686.1ZM995.2 681.78C993.66 681.78 992.7 681.1 992.7 679.76C992.7 678.44 993.66 677.72 995.2 677.72C996.74 677.72 997.7 678.44 997.7 679.76C997.7 681.1 996.74 681.78 995.2 681.78ZM995.2 688.4C993.34 688.4 992.16 687.48 992.16 685.96C992.16 684.46 993.34 683.54 995.2 683.54C997.08 683.54 998.24 684.46 998.24 685.96C998.24 687.48 997.08 688.4 995.2 688.4ZM1003.4 681.08C1003.4 679.18 1004.18 677.86 1006.24 677.86C1008.02 677.86 1008.56 679 1008.56 680.14C1008.56 682.1 1006.94 682.76 1004.4 684.44C1002.28 685.78 1000.82 687.56 1000.82 690H1010.74V688.04H1003.84V688C1004.98 685.18 1010.88 684.44 1010.88 680.04C1010.88 677.4 1008.86 675.88 1006.3 675.88C1002.76 675.88 1001.16 678.1 1001.16 681.08H1003.4ZM1014.35 681.88V677.72H1021.97V675.7H1011.97V690H1014.35V683.92H1020.53V681.88H1014.35ZM1022.24 686.1C1022.24 688.9 1024.56 690.3 1027.58 690.3C1030.6 690.3 1032.94 688.9 1032.94 686.1C1032.94 684.2 1031.66 683.22 1030.36 682.64V682.6C1031.32 682.08 1032.26 681.22 1032.26 679.66C1032.26 677.28 1030.28 675.88 1027.58 675.88C1024.88 675.88 1022.9 677.28 1022.9 679.66C1022.9 681.22 1023.82 682.08 1024.8 682.6V682.64C1023.48 683.22 1022.24 684.2 1022.24 686.1ZM1027.58 681.78C1026.04 681.78 1025.08 681.1 1025.08 679.76C1025.08 678.44 1026.04 677.72 1027.58 677.72C1029.12 677.72 1030.08 678.44 1030.08 679.76C1030.08 681.1 1029.12 681.78 1027.58 681.78ZM1027.58 688.4C1025.72 688.4 1024.54 687.48 1024.54 685.96C1024.54 684.46 1025.72 683.54 1027.58 683.54C1029.46 683.54 1030.62 684.46 1030.62 685.96C1030.62 687.48 1029.46 688.4 1027.58 688.4Z" fill="#1E1E26"/>
</g>
<defs>
<clipPath id="clip0_1436_327">
<rect width="1260" height="710" fill="white"/>
</clipPath>
</defs>
</svg>
