<svg width="1260" height="1080" viewBox="0 0 1260 1080" fill="none" xmlns="http://www.w3.org/2000/svg">
<g clip-path="url(#clip0_201_35)">
<rect width="1260" height="1080" fill="white"/>
<rect width="465" height="1080" fill="#EC6A52"/>
<path d="M21.32 1016.3C25.22 1016.3 26.88 1013.02 26.88 1009.1C26.88 1005.18 25.22 1001.88 21.32 1001.88C17.42 1001.88 15.76 1005.18 15.76 1009.1C15.76 1013.02 17.42 1016.3 21.32 1016.3ZM21.32 1014.32C18.88 1014.32 18.06 1011.98 18.06 1009.1C18.06 1006.22 18.88 1003.86 21.32 1003.86C23.76 1003.86 24.56 1006.22 24.56 1009.1C24.56 1011.98 23.76 1014.32 21.32 1014.32ZM30.6372 1009.84C32.9572 1009.84 33.9972 1008.02 33.9972 1005.86C33.9972 1003.72 32.9572 1001.88 30.6372 1001.88C28.3572 1001.88 27.2772 1003.72 27.2772 1005.86C27.2772 1008.02 28.3572 1009.84 30.6372 1009.84ZM39.5572 1002.18H37.9572L30.6972 1016H32.2972L39.5572 1002.18ZM30.6372 1008.32C29.5372 1008.32 29.0572 1007.38 29.0572 1005.86C29.0572 1004.34 29.5372 1003.42 30.6372 1003.42C31.7372 1003.42 32.2172 1004.34 32.2172 1005.86C32.2172 1007.38 31.7372 1008.32 30.6372 1008.32ZM39.6172 1016.3C41.9372 1016.3 42.9772 1014.46 42.9772 1012.32C42.9772 1010.16 41.9372 1008.34 39.6172 1008.34C37.3372 1008.34 36.2572 1010.16 36.2572 1012.32C36.2572 1014.46 37.3372 1016.3 39.6172 1016.3ZM39.6172 1014.76C38.5372 1014.76 38.0372 1013.84 38.0372 1012.32C38.0372 1010.8 38.5372 1009.86 39.6172 1009.86C40.7172 1009.86 41.1972 1010.8 41.1972 1012.32C41.1972 1013.84 40.7172 1014.76 39.6172 1014.76ZM57.9841 1006.68C56.5441 1006.68 55.5241 1007.14 54.8041 1007.88V1007.84L55.5441 1004.14H61.7641V1002.18H53.8041L52.3041 1009.72H54.6441C55.3041 1008.9 56.2841 1008.52 57.3641 1008.52C59.0441 1008.52 60.1441 1009.4 60.1441 1011.28C60.1441 1013.28 58.9441 1014.32 57.2441 1014.32C55.3241 1014.32 54.5041 1013.16 54.3641 1011.92H52.0641C52.1441 1014.3 53.9841 1016.3 57.3641 1016.3C60.2441 1016.3 62.4641 1014.38 62.4641 1011.3C62.4641 1008.6 60.6441 1006.68 57.9841 1006.68ZM68.5708 1006.68C67.1308 1006.68 66.1108 1007.14 65.3908 1007.88V1007.84L66.1308 1004.14H72.3508V1002.18H64.3908L62.8908 1009.72H65.2308C65.8908 1008.9 66.8708 1008.52 67.9508 1008.52C69.6308 1008.52 70.7308 1009.4 70.7308 1011.28C70.7308 1013.28 69.5308 1014.32 67.8308 1014.32C65.9108 1014.32 65.0908 1013.16 64.9508 1011.92H62.6508C62.7308 1014.3 64.5708 1016.3 67.9508 1016.3C70.8308 1016.3 73.0508 1014.38 73.0508 1011.3C73.0508 1008.6 71.2308 1006.68 68.5708 1006.68ZM76.4231 1009.84C78.7431 1009.84 79.7831 1008.02 79.7831 1005.86C79.7831 1003.72 78.7431 1001.88 76.4231 1001.88C74.1431 1001.88 73.0631 1003.72 73.0631 1005.86C73.0631 1008.02 74.1431 1009.84 76.4231 1009.84ZM85.3431 1002.18H83.7431L76.4831 1016H78.0831L85.3431 1002.18ZM76.4231 1008.32C75.3231 1008.32 74.8431 1007.38 74.8431 1005.86C74.8431 1004.34 75.3231 1003.42 76.4231 1003.42C77.5231 1003.42 78.0031 1004.34 78.0031 1005.86C78.0031 1007.38 77.5231 1008.32 76.4231 1008.32ZM85.4031 1016.3C87.7231 1016.3 88.7631 1014.46 88.7631 1012.32C88.7631 1010.16 87.7231 1008.34 85.4031 1008.34C83.1231 1008.34 82.0431 1010.16 82.0431 1012.32C82.0431 1014.46 83.1231 1016.3 85.4031 1016.3ZM85.4031 1014.76C84.3231 1014.76 83.8231 1013.84 83.8231 1012.32C83.8231 1010.8 84.3231 1009.86 85.4031 1009.86C86.5031 1009.86 86.9831 1010.8 86.9831 1012.32C86.9831 1013.84 86.5031 1014.76 85.4031 1014.76ZM100.53 1008.66V1008.62C100.57 1006.1 101.15 1003.78 103.65 1003.78C105.11 1003.78 105.83 1004.62 105.97 1005.68H108.29C108.01 1003.6 106.27 1001.88 103.67 1001.88C100.19 1001.88 98.21 1004.42 98.21 1009.14C98.21 1013.28 99.63 1016.3 103.67 1016.3C106.77 1016.3 108.67 1014.18 108.67 1011.46C108.67 1008.74 106.81 1006.86 104.09 1006.86C102.49 1006.86 101.21 1007.54 100.53 1008.66ZM103.59 1014.4C101.75 1014.4 100.65 1013.26 100.65 1011.62C100.65 1009.92 101.87 1008.76 103.71 1008.76C105.29 1008.76 106.41 1009.82 106.41 1011.58C106.41 1013.26 105.37 1014.4 103.59 1014.4ZM114.845 1006.68C113.405 1006.68 112.385 1007.14 111.665 1007.88V1007.84L112.405 1004.14H118.625V1002.18H110.665L109.165 1009.72H111.505C112.165 1008.9 113.145 1008.52 114.225 1008.52C115.905 1008.52 117.005 1009.4 117.005 1011.28C117.005 1013.28 115.805 1014.32 114.105 1014.32C112.185 1014.32 111.365 1013.16 111.225 1011.92H108.925C109.005 1014.3 110.845 1016.3 114.225 1016.3C117.105 1016.3 119.325 1014.38 119.325 1011.3C119.325 1008.6 117.505 1006.68 114.845 1006.68ZM122.697 1009.84C125.017 1009.84 126.057 1008.02 126.057 1005.86C126.057 1003.72 125.017 1001.88 122.697 1001.88C120.417 1001.88 119.337 1003.72 119.337 1005.86C119.337 1008.02 120.417 1009.84 122.697 1009.84ZM131.617 1002.18H130.017L122.757 1016H124.357L131.617 1002.18ZM122.697 1008.32C121.597 1008.32 121.117 1007.38 121.117 1005.86C121.117 1004.34 121.597 1003.42 122.697 1003.42C123.797 1003.42 124.277 1004.34 124.277 1005.86C124.277 1007.38 123.797 1008.32 122.697 1008.32ZM131.677 1016.3C133.997 1016.3 135.037 1014.46 135.037 1012.32C135.037 1010.16 133.997 1008.34 131.677 1008.34C129.397 1008.34 128.317 1010.16 128.317 1012.32C128.317 1014.46 129.397 1016.3 131.677 1016.3ZM131.677 1014.76C130.597 1014.76 130.097 1013.84 130.097 1012.32C130.097 1010.8 130.597 1009.86 131.677 1009.86C132.777 1009.86 133.257 1010.8 133.257 1012.32C133.257 1013.84 132.777 1014.76 131.677 1014.76ZM144.144 1002.18V1004.14H151.384V1004.18C148.924 1006.36 146.204 1011.44 146.204 1016H148.644C148.644 1011.6 150.764 1006.56 153.904 1003.94V1002.18H144.144ZM157.604 1009.84C159.924 1009.84 160.964 1008.02 160.964 1005.86C160.964 1003.72 159.924 1001.88 157.604 1001.88C155.324 1001.88 154.244 1003.72 154.244 1005.86C154.244 1008.02 155.324 1009.84 157.604 1009.84ZM166.524 1002.18H164.924L157.664 1016H159.264L166.524 1002.18ZM157.604 1008.32C156.504 1008.32 156.024 1007.38 156.024 1005.86C156.024 1004.34 156.504 1003.42 157.604 1003.42C158.704 1003.42 159.184 1004.34 159.184 1005.86C159.184 1007.38 158.704 1008.32 157.604 1008.32ZM166.584 1016.3C168.904 1016.3 169.944 1014.46 169.944 1012.32C169.944 1010.16 168.904 1008.34 166.584 1008.34C164.304 1008.34 163.224 1010.16 163.224 1012.32C163.224 1014.46 164.304 1016.3 166.584 1016.3ZM166.584 1014.76C165.504 1014.76 165.004 1013.84 165.004 1012.32C165.004 1010.8 165.504 1009.86 166.584 1009.86C167.684 1009.86 168.164 1010.8 168.164 1012.32C168.164 1013.84 167.684 1014.76 166.584 1014.76ZM18.14 1029.08C18.14 1027.18 18.92 1025.86 20.98 1025.86C22.76 1025.86 23.3 1027 23.3 1028.14C23.3 1030.1 21.68 1030.76 19.14 1032.44C17.02 1033.78 15.56 1035.56 15.56 1038H25.48V1036.04H18.58V1036C19.72 1033.18 25.62 1032.44 25.62 1028.04C25.62 1025.4 23.6 1023.88 21.04 1023.88C17.5 1023.88 15.9 1026.1 15.9 1029.08H18.14ZM28.4491 1028.36C28.4491 1027 29.1491 1025.86 31.3291 1025.86C32.9691 1025.86 33.6891 1026.74 33.6891 1027.88C33.6891 1029.3 32.7291 1029.9 31.2891 1029.9H30.1291V1031.74H31.3691C32.7891 1031.74 34.1691 1032.16 34.1691 1034.06C34.1691 1035.52 33.3691 1036.32 31.2891 1036.32C28.9291 1036.32 28.0691 1035.12 28.0691 1033.26H25.8291C25.8291 1036.44 27.8091 1038.3 31.4491 1038.3C34.4491 1038.3 36.4691 1036.84 36.4691 1034.12C36.4691 1032.48 35.8091 1031.24 33.9291 1030.7V1030.66C35.2491 1030.1 36.0091 1029.18 36.0091 1027.7C36.0091 1025.26 33.8491 1023.88 31.4091 1023.88C27.9491 1023.88 26.1891 1025.78 26.1891 1028.36H28.4491ZM39.3316 1030.66V1030.62C39.3716 1028.1 39.9516 1025.78 42.4516 1025.78C43.9116 1025.78 44.6316 1026.62 44.7716 1027.68H47.0916C46.8116 1025.6 45.0716 1023.88 42.4716 1023.88C38.9916 1023.88 37.0116 1026.42 37.0116 1031.14C37.0116 1035.28 38.4316 1038.3 42.4716 1038.3C45.5716 1038.3 47.4716 1036.18 47.4716 1033.46C47.4716 1030.74 45.6116 1028.86 42.8916 1028.86C41.2916 1028.86 40.0116 1029.54 39.3316 1030.66ZM42.3916 1036.4C40.5516 1036.4 39.4516 1035.26 39.4516 1033.62C39.4516 1031.92 40.6716 1030.76 42.5116 1030.76C44.0916 1030.76 45.2116 1031.82 45.2116 1033.58C45.2116 1035.26 44.1716 1036.4 42.3916 1036.4ZM49.3903 1038.14C49.3903 1038.9 48.9103 1039.52 48.1703 1039.66V1040.8C49.9103 1040.52 50.6303 1038.86 50.6303 1037.4C50.6303 1036.28 50.1703 1035.56 49.2703 1035.56C48.5503 1035.56 47.9703 1036.04 47.9703 1036.9C47.9703 1037.84 48.6103 1038.28 49.3903 1038.14ZM57.6167 1024.18C57.4767 1025.88 56.7567 1027.12 54.2567 1027.12V1028.78C55.4167 1028.78 56.3367 1028.78 57.1567 1027.98V1038H59.4767V1024.18H57.6167ZM66.4614 1038.3C70.3614 1038.3 72.0214 1035.02 72.0214 1031.1C72.0214 1027.18 70.3614 1023.88 66.4614 1023.88C62.5614 1023.88 60.9014 1027.18 60.9014 1031.1C60.9014 1035.02 62.5614 1038.3 66.4614 1038.3ZM66.4614 1036.32C64.0214 1036.32 63.2014 1033.98 63.2014 1031.1C63.2014 1028.22 64.0214 1025.86 66.4614 1025.86C68.9014 1025.86 69.7014 1028.22 69.7014 1031.1C69.7014 1033.98 68.9014 1036.32 66.4614 1036.32ZM75.0386 1030.66V1030.62C75.0786 1028.1 75.6586 1025.78 78.1586 1025.78C79.6186 1025.78 80.3386 1026.62 80.4786 1027.68H82.7986C82.5186 1025.6 80.7786 1023.88 78.1786 1023.88C74.6986 1023.88 72.7186 1026.42 72.7186 1031.14C72.7186 1035.28 74.1386 1038.3 78.1786 1038.3C81.2786 1038.3 83.1786 1036.18 83.1786 1033.46C83.1786 1030.74 81.3186 1028.86 78.5986 1028.86C76.9986 1028.86 75.7186 1029.54 75.0386 1030.66ZM78.0986 1036.4C76.2586 1036.4 75.1586 1035.26 75.1586 1033.62C75.1586 1031.92 76.3786 1030.76 78.2186 1030.76C79.7986 1030.76 80.9186 1031.82 80.9186 1033.58C80.9186 1035.26 79.8786 1036.4 78.0986 1036.4ZM85.0973 1038.14C85.0973 1038.9 84.6173 1039.52 83.8773 1039.66V1040.8C85.6173 1040.52 86.3373 1038.86 86.3373 1037.4C86.3373 1036.28 85.8773 1035.56 84.9773 1035.56C84.2573 1035.56 83.6773 1036.04 83.6773 1036.9C83.6773 1037.84 84.3173 1038.28 85.0973 1038.14ZM89.9238 1034.1C89.9238 1036.9 92.2438 1038.3 95.2638 1038.3C98.2838 1038.3 100.624 1036.9 100.624 1034.1C100.624 1032.2 99.3438 1031.22 98.0438 1030.64V1030.6C99.0038 1030.08 99.9438 1029.22 99.9438 1027.66C99.9438 1025.28 97.9638 1023.88 95.2638 1023.88C92.5638 1023.88 90.5838 1025.28 90.5838 1027.66C90.5838 1029.22 91.5038 1030.08 92.4838 1030.6V1030.64C91.1638 1031.22 89.9238 1032.2 89.9238 1034.1ZM95.2638 1029.78C93.7238 1029.78 92.7638 1029.1 92.7638 1027.76C92.7638 1026.44 93.7238 1025.72 95.2638 1025.72C96.8038 1025.72 97.7638 1026.44 97.7638 1027.76C97.7638 1029.1 96.8038 1029.78 95.2638 1029.78ZM95.2638 1036.4C93.4038 1036.4 92.2238 1035.48 92.2238 1033.96C92.2238 1032.46 93.4038 1031.54 95.2638 1031.54C97.1438 1031.54 98.3038 1032.46 98.3038 1033.96C98.3038 1035.48 97.1438 1036.4 95.2638 1036.4ZM103.461 1029.08C103.461 1027.18 104.241 1025.86 106.301 1025.86C108.081 1025.86 108.621 1027 108.621 1028.14C108.621 1030.1 107.001 1030.76 104.461 1032.44C102.341 1033.78 100.881 1035.56 100.881 1038H110.801V1036.04H103.901V1036C105.041 1033.18 110.941 1032.44 110.941 1028.04C110.941 1025.4 108.921 1023.88 106.361 1023.88C102.821 1023.88 101.221 1026.1 101.221 1029.08H103.461ZM25.82 1051.62L26.16 1049.9H24.28L25.04 1046.18H23.3L22.56 1049.9H20.36L21.12 1046.18H19.4L18.64 1049.9H16.66L16.32 1051.62H18.3L17.72 1054.52H15.9L15.58 1056.24H17.36L16.6 1060H18.32L19.08 1056.24H21.28L20.52 1060H22.24L23 1056.24H25.1L25.42 1054.52H23.36L23.94 1051.62H25.82ZM21.62 1054.52H19.44L20.02 1051.62H22.2L21.62 1054.52ZM29.5187 1051.6V1047.72H37.4787V1045.7H27.1387V1060H37.6787V1057.98H29.5187V1053.64H36.4988V1051.6H29.5187ZM48.4862 1050.62H50.8663C50.5262 1047.7 48.3262 1045.4 44.7062 1045.4C40.5862 1045.4 37.9862 1048.54 37.9862 1052.84C37.9862 1057.16 40.5862 1060.3 44.7062 1060.3C48.3463 1060.3 50.5463 1058 50.8663 1054.78H48.4862C48.3262 1056.52 47.3062 1058.26 44.6462 1058.26C41.5662 1058.26 40.3462 1055.68 40.3462 1052.84C40.3462 1050.02 41.5662 1047.44 44.6462 1047.44C47.2862 1047.44 48.2262 1049.18 48.4862 1050.62ZM53.6878 1052.66V1052.62C53.7278 1050.1 54.3078 1047.78 56.8078 1047.78C58.2678 1047.78 58.9878 1048.62 59.1278 1049.68H61.4478C61.1678 1047.6 59.4278 1045.88 56.8278 1045.88C53.3478 1045.88 51.3678 1048.42 51.3678 1053.14C51.3678 1057.28 52.7878 1060.3 56.8278 1060.3C59.9278 1060.3 61.8278 1058.18 61.8278 1055.46C61.8278 1052.74 59.9678 1050.86 57.2478 1050.86C55.6478 1050.86 54.3678 1051.54 53.6878 1052.66ZM56.7478 1058.4C54.9078 1058.4 53.8078 1057.26 53.8078 1055.62C53.8078 1053.92 55.0278 1052.76 56.8678 1052.76C58.4478 1052.76 59.5678 1053.82 59.5678 1055.58C59.5678 1057.26 58.5278 1058.4 56.7478 1058.4ZM71.2228 1056.62L72.3828 1060H74.8028L69.5628 1045.7H67.0628L61.8028 1060H64.2228L65.3828 1056.62H71.2228ZM66.0428 1054.64L68.3028 1047.88H68.3428L70.5828 1054.64H66.0428ZM80.4645 1050.68C79.0245 1050.68 78.0045 1051.14 77.2845 1051.88V1051.84L78.0245 1048.14H84.2445V1046.18H76.2845L74.7845 1053.72H77.1245C77.7845 1052.9 78.7645 1052.52 79.8445 1052.52C81.5245 1052.52 82.6245 1053.4 82.6245 1055.28C82.6245 1057.28 81.4245 1058.32 79.7245 1058.32C77.8045 1058.32 76.9845 1057.16 76.8445 1055.92H74.5445C74.6245 1058.3 76.4645 1060.3 79.8445 1060.3C82.7245 1060.3 84.9445 1058.38 84.9445 1055.3C84.9445 1052.6 83.1245 1050.68 80.4645 1050.68ZM87.8127 1051.08C87.8127 1049.18 88.5927 1047.86 90.6527 1047.86C92.4327 1047.86 92.9727 1049 92.9727 1050.14C92.9727 1052.1 91.3527 1052.76 88.8127 1054.44C86.6927 1055.78 85.2327 1057.56 85.2327 1060H95.1527V1058.04H88.2527V1058C89.3927 1055.18 95.2927 1054.44 95.2927 1050.04C95.2927 1047.4 93.2727 1045.88 90.7127 1045.88C87.1727 1045.88 85.5727 1048.1 85.5727 1051.08H87.8127Z" fill="#131313"/>
<path d="M361.462 27.7L366.342 42H368.922L373.802 27.7H371.282L367.642 39.4H367.622L363.982 27.7H361.462ZM381.195 38.62L382.355 42H384.775L379.535 27.7H377.035L371.775 42H374.195L375.355 38.62H381.195ZM376.015 36.64L378.275 29.88H378.315L380.555 36.64H376.015ZM385.337 27.7V42H394.857V39.98H387.717V27.7H385.337ZM398.07 33.6V29.72H406.03V27.7H395.69V42H406.23V39.98H398.07V35.64H405.05V33.6H398.07ZM407.37 42H409.75V31.3H409.79L416.25 42H418.89V27.7H416.51V38.44H416.47L410.03 27.7H407.37V42ZM430.593 32.62H432.973C432.633 29.7 430.433 27.4 426.813 27.4C422.693 27.4 420.093 30.54 420.093 34.84C420.093 39.16 422.693 42.3 426.813 42.3C430.453 42.3 432.653 40 432.973 36.78H430.593C430.433 38.52 429.413 40.26 426.753 40.26C423.673 40.26 422.453 37.68 422.453 34.84C422.453 32.02 423.673 29.44 426.753 29.44C429.393 29.44 430.333 31.18 430.593 32.62ZM433.974 27.7V42H436.354V27.7H433.974ZM446.278 38.62L447.438 42H449.858L444.618 27.7H442.118L436.858 42H439.278L440.438 38.62H446.278ZM441.098 36.64L443.358 29.88H443.398L445.638 36.64H441.098Z" fill="#131313"/>
<rect x="465" width="795" height="705" fill="#1E1E26"/>
<path d="M1125.79 33.48C1123.79 32.98 1122.45 32.7 1122.45 31.14C1122.45 30.08 1123.47 29.44 1125.17 29.44C1127.15 29.44 1128.19 30.32 1128.41 31.98H1130.79C1130.59 29.04 1128.31 27.4 1125.17 27.4C1122.05 27.4 1120.09 28.82 1120.09 31.36C1120.09 34.08 1122.51 34.94 1124.75 35.5C1127.57 36.2 1128.79 36.52 1128.79 38.22C1128.79 39.32 1127.97 40.26 1125.85 40.26C1123.29 40.26 1122.05 39.06 1121.93 37.24H1119.55C1119.69 40.48 1122.35 42.3 1125.85 42.3C1129.45 42.3 1131.17 40.4 1131.17 38.12C1131.17 34.92 1128.85 34.26 1125.79 33.48ZM1132.23 27.7V42H1134.61V35.66H1141.37V42H1143.75V27.7H1141.37V33.62H1134.61V27.7H1132.23ZM1153.65 38.62L1154.81 42H1157.23L1151.99 27.7H1149.49L1144.23 42H1146.65L1147.81 38.62H1153.65ZM1148.47 36.64L1150.73 29.88H1150.77L1153.01 36.64H1148.47ZM1157.8 42H1160.18V36.48H1163.68C1167.12 36.48 1165.78 41.4 1166.44 42H1168.94V41.86C1168.18 41.62 1169.38 36.02 1166.08 35.4V35.36C1167.72 34.96 1168.74 33.8 1168.74 31.8C1168.74 29.2 1166.84 27.7 1163.9 27.7H1157.8V42ZM1160.18 29.72H1163.4C1164.86 29.72 1166.38 30.02 1166.38 32.08C1166.38 34.16 1164.86 34.44 1163.4 34.44H1160.18V29.72ZM1169.89 27.7V42H1172.27V37.78L1174.47 35.42L1179.15 42H1181.93L1176.03 33.76L1181.59 27.7H1178.75L1172.27 34.76V27.7H1169.89ZM1196.1 31.3C1196.1 29 1194.4 27.7 1191.46 27.7H1185.32V42H1191.8C1194.76 42 1196.66 40.58 1196.66 37.82C1196.66 35.68 1195.38 34.58 1193.88 34.32V34.28C1195.06 33.88 1196.1 33.06 1196.1 31.3ZM1187.7 33.62V29.72H1191.52C1192.94 29.72 1193.72 30.42 1193.72 31.68C1193.72 32.94 1193.08 33.62 1191.38 33.62H1187.7ZM1187.7 35.4H1191.88C1193.38 35.4 1194.28 36.22 1194.28 37.68C1194.28 39.02 1193.66 39.98 1191.62 39.98H1187.7V35.4ZM1197.58 27.7V42H1207.1V39.98H1199.96V27.7H1197.58ZM1216.32 38.62L1217.48 42H1219.9L1214.66 27.7H1212.16L1206.9 42H1209.32L1210.48 38.62H1216.32ZM1211.14 36.64L1213.4 29.88H1213.44L1215.68 36.64H1211.14ZM1229.66 32.62H1232.04C1231.7 29.7 1229.5 27.4 1225.88 27.4C1221.76 27.4 1219.16 30.54 1219.16 34.84C1219.16 39.16 1221.76 42.3 1225.88 42.3C1229.52 42.3 1231.72 40 1232.04 36.78H1229.66C1229.5 38.52 1228.48 40.26 1225.82 40.26C1222.74 40.26 1221.52 37.68 1221.52 34.84C1221.52 32.02 1222.74 29.44 1225.82 29.44C1228.46 29.44 1229.4 31.18 1229.66 32.62ZM1233 27.7V42H1235.38V37.78L1237.58 35.42L1242.26 42H1245.04L1239.14 33.76L1244.7 27.7H1241.86L1235.38 34.76V27.7H1233Z" fill="#ECECEC"/>
<path d="M483.14 632.08C483.14 630.18 483.92 628.86 485.98 628.86C487.76 628.86 488.3 630 488.3 631.14C488.3 633.1 486.68 633.76 484.14 635.44C482.02 636.78 480.56 638.56 480.56 641H490.48V639.04H483.58V639C484.72 636.18 490.62 635.44 490.62 631.04C490.62 628.4 488.6 626.88 486.04 626.88C482.5 626.88 480.9 629.1 480.9 632.08H483.14ZM494.528 627.18C494.388 628.88 493.668 630.12 491.168 630.12V631.78C492.328 631.78 493.248 631.78 494.068 630.98V641H496.388V627.18H494.528ZM500.872 634.84C503.192 634.84 504.232 633.02 504.232 630.86C504.232 628.72 503.192 626.88 500.872 626.88C498.592 626.88 497.512 628.72 497.512 630.86C497.512 633.02 498.592 634.84 500.872 634.84ZM509.792 627.18H508.192L500.932 641H502.532L509.792 627.18ZM500.872 633.32C499.772 633.32 499.292 632.38 499.292 630.86C499.292 629.34 499.772 628.42 500.872 628.42C501.972 628.42 502.452 629.34 502.452 630.86C502.452 632.38 501.972 633.32 500.872 633.32ZM509.852 641.3C512.172 641.3 513.212 639.46 513.212 637.32C513.212 635.16 512.172 633.34 509.852 633.34C507.572 633.34 506.492 635.16 506.492 637.32C506.492 639.46 507.572 641.3 509.852 641.3ZM509.852 639.76C508.772 639.76 508.272 638.84 508.272 637.32C508.272 635.8 508.772 634.86 509.852 634.86C510.952 634.86 511.432 635.8 511.432 637.32C511.432 638.84 510.952 639.76 509.852 639.76ZM525.039 632.08C525.039 630.18 525.819 628.86 527.879 628.86C529.659 628.86 530.199 630 530.199 631.14C530.199 633.1 528.579 633.76 526.039 635.44C523.919 636.78 522.459 638.56 522.459 641H532.379V639.04H525.479V639C526.619 636.18 532.519 635.44 532.519 631.04C532.519 628.4 530.499 626.88 527.939 626.88C524.399 626.88 522.799 629.1 522.799 632.08H525.039ZM536.427 627.18C536.287 628.88 535.567 630.12 533.067 630.12V631.78C534.227 631.78 535.147 631.78 535.967 630.98V641H538.287V627.18H536.427ZM542.772 634.84C545.092 634.84 546.132 633.02 546.132 630.86C546.132 628.72 545.092 626.88 542.772 626.88C540.492 626.88 539.412 628.72 539.412 630.86C539.412 633.02 540.492 634.84 542.772 634.84ZM551.692 627.18H550.092L542.832 641H544.432L551.692 627.18ZM542.772 633.32C541.672 633.32 541.192 632.38 541.192 630.86C541.192 629.34 541.672 628.42 542.772 628.42C543.872 628.42 544.352 629.34 544.352 630.86C544.352 632.38 543.872 633.32 542.772 633.32ZM551.752 641.3C554.072 641.3 555.112 639.46 555.112 637.32C555.112 635.16 554.072 633.34 551.752 633.34C549.472 633.34 548.392 635.16 548.392 637.32C548.392 639.46 549.472 641.3 551.752 641.3ZM551.752 639.76C550.672 639.76 550.172 638.84 550.172 637.32C550.172 635.8 550.672 634.86 551.752 634.86C552.852 634.86 553.332 635.8 553.332 637.32C553.332 638.84 552.852 639.76 551.752 639.76ZM570.118 641.3C574.018 641.3 575.678 638.02 575.678 634.1C575.678 630.18 574.018 626.88 570.118 626.88C566.218 626.88 564.558 630.18 564.558 634.1C564.558 638.02 566.218 641.3 570.118 641.3ZM570.118 639.32C567.678 639.32 566.858 636.98 566.858 634.1C566.858 631.22 567.678 628.86 570.118 628.86C572.558 628.86 573.358 631.22 573.358 634.1C573.358 636.98 572.558 639.32 570.118 639.32ZM579.436 634.84C581.756 634.84 582.796 633.02 582.796 630.86C582.796 628.72 581.756 626.88 579.436 626.88C577.156 626.88 576.076 628.72 576.076 630.86C576.076 633.02 577.156 634.84 579.436 634.84ZM588.356 627.18H586.756L579.496 641H581.096L588.356 627.18ZM579.436 633.32C578.336 633.32 577.856 632.38 577.856 630.86C577.856 629.34 578.336 628.42 579.436 628.42C580.536 628.42 581.016 629.34 581.016 630.86C581.016 632.38 580.536 633.32 579.436 633.32ZM588.416 641.3C590.736 641.3 591.776 639.46 591.776 637.32C591.776 635.16 590.736 633.34 588.416 633.34C586.136 633.34 585.056 635.16 585.056 637.32C585.056 639.46 586.136 641.3 588.416 641.3ZM588.416 639.76C587.336 639.76 586.836 638.84 586.836 637.32C586.836 635.8 587.336 634.86 588.416 634.86C589.516 634.86 589.996 635.8 589.996 637.32C589.996 638.84 589.516 639.76 588.416 639.76ZM601.043 637.1C601.043 639.9 603.363 641.3 606.383 641.3C609.403 641.3 611.743 639.9 611.743 637.1C611.743 635.2 610.463 634.22 609.163 633.64V633.6C610.123 633.08 611.063 632.22 611.063 630.66C611.063 628.28 609.083 626.88 606.383 626.88C603.683 626.88 601.703 628.28 601.703 630.66C601.703 632.22 602.623 633.08 603.603 633.6V633.64C602.283 634.22 601.043 635.2 601.043 637.1ZM606.383 632.78C604.843 632.78 603.883 632.1 603.883 630.76C603.883 629.44 604.843 628.72 606.383 628.72C607.923 628.72 608.883 629.44 608.883 630.76C608.883 632.1 607.923 632.78 606.383 632.78ZM606.383 639.4C604.523 639.4 603.343 638.48 603.343 636.96C603.343 635.46 604.523 634.54 606.383 634.54C608.263 634.54 609.423 635.46 609.423 636.96C609.423 638.48 608.263 639.4 606.383 639.4ZM617.818 631.68C616.378 631.68 615.358 632.14 614.638 632.88V632.84L615.378 629.14H621.598V627.18H613.638L612.138 634.72H614.478C615.138 633.9 616.118 633.52 617.198 633.52C618.878 633.52 619.978 634.4 619.978 636.28C619.978 638.28 618.778 639.32 617.078 639.32C615.158 639.32 614.338 638.16 614.198 636.92H611.898C611.978 639.3 613.818 641.3 617.198 641.3C620.078 641.3 622.298 639.38 622.298 636.3C622.298 633.6 620.478 631.68 617.818 631.68ZM625.671 634.84C627.991 634.84 629.031 633.02 629.031 630.86C629.031 628.72 627.991 626.88 625.671 626.88C623.391 626.88 622.311 628.72 622.311 630.86C622.311 633.02 623.391 634.84 625.671 634.84ZM634.591 627.18H632.991L625.731 641H627.331L634.591 627.18ZM625.671 633.32C624.571 633.32 624.091 632.38 624.091 630.86C624.091 629.34 624.571 628.42 625.671 628.42C626.771 628.42 627.251 629.34 627.251 630.86C627.251 632.38 626.771 633.32 625.671 633.32ZM634.651 641.3C636.971 641.3 638.011 639.46 638.011 637.32C638.011 635.16 636.971 633.34 634.651 633.34C632.371 633.34 631.291 635.16 631.291 637.32C631.291 639.46 632.371 641.3 634.651 641.3ZM634.651 639.76C633.571 639.76 633.071 638.84 633.071 637.32C633.071 635.8 633.571 634.86 634.651 634.86C635.751 634.86 636.231 635.8 636.231 637.32C636.231 638.84 635.751 639.76 634.651 639.76ZM482.96 653.36C482.96 652 483.66 650.86 485.84 650.86C487.48 650.86 488.2 651.74 488.2 652.88C488.2 654.3 487.24 654.9 485.8 654.9H484.64V656.74H485.88C487.3 656.74 488.68 657.16 488.68 659.06C488.68 660.52 487.88 661.32 485.8 661.32C483.44 661.32 482.58 660.12 482.58 658.26H480.34C480.34 661.44 482.32 663.3 485.96 663.3C488.96 663.3 490.98 661.84 490.98 659.12C490.98 657.48 490.32 656.24 488.44 655.7V655.66C489.76 655.1 490.52 654.18 490.52 652.7C490.52 650.26 488.36 648.88 485.92 648.88C482.46 648.88 480.7 650.78 480.7 653.36H482.96ZM497.083 663.3C500.983 663.3 502.643 660.02 502.643 656.1C502.643 652.18 500.983 648.88 497.083 648.88C493.182 648.88 491.522 652.18 491.522 656.1C491.522 660.02 493.182 663.3 497.083 663.3ZM497.083 661.32C494.642 661.32 493.823 658.98 493.823 656.1C493.823 653.22 494.642 650.86 497.083 650.86C499.523 650.86 500.323 653.22 500.323 656.1C500.323 658.98 499.523 661.32 497.083 661.32ZM504.35 663.14C504.35 663.9 503.87 664.52 503.13 664.66V665.8C504.87 665.52 505.59 663.86 505.59 662.4C505.59 661.28 505.13 660.56 504.23 660.56C503.51 660.56 502.93 661.04 502.93 661.9C502.93 662.84 503.57 663.28 504.35 663.14ZM511.557 653.36C511.557 652 512.257 650.86 514.437 650.86C516.077 650.86 516.797 651.74 516.797 652.88C516.797 654.3 515.837 654.9 514.397 654.9H513.237V656.74H514.477C515.897 656.74 517.277 657.16 517.277 659.06C517.277 660.52 516.477 661.32 514.397 661.32C512.037 661.32 511.177 660.12 511.177 658.26H508.937C508.937 661.44 510.917 663.3 514.557 663.3C517.557 663.3 519.577 661.84 519.577 659.12C519.577 657.48 518.917 656.24 517.037 655.7V655.66C518.357 655.1 519.117 654.18 519.117 652.7C519.117 650.26 516.957 648.88 514.517 648.88C511.057 648.88 509.297 650.78 509.297 653.36H511.557ZM525.679 663.3C529.579 663.3 531.239 660.02 531.239 656.1C531.239 652.18 529.579 648.88 525.679 648.88C521.779 648.88 520.119 652.18 520.119 656.1C520.119 660.02 521.779 663.3 525.679 663.3ZM525.679 661.32C523.239 661.32 522.419 658.98 522.419 656.1C522.419 653.22 523.239 650.86 525.679 650.86C528.119 650.86 528.919 653.22 528.919 656.1C528.919 658.98 528.119 661.32 525.679 661.32ZM532.947 663.14C532.947 663.9 532.467 664.52 531.727 664.66V665.8C533.467 665.52 534.187 663.86 534.187 662.4C534.187 661.28 533.727 660.56 532.827 660.56C532.107 660.56 531.527 661.04 531.527 661.9C531.527 662.84 532.167 663.28 532.947 663.14ZM540.154 653.36C540.154 652 540.854 650.86 543.034 650.86C544.674 650.86 545.394 651.74 545.394 652.88C545.394 654.3 544.434 654.9 542.994 654.9H541.834V656.74H543.074C544.494 656.74 545.874 657.16 545.874 659.06C545.874 660.52 545.074 661.32 542.994 661.32C540.634 661.32 539.774 660.12 539.774 658.26H537.534C537.534 661.44 539.514 663.3 543.154 663.3C546.154 663.3 548.174 661.84 548.174 659.12C548.174 657.48 547.514 656.24 545.634 655.7V655.66C546.954 655.1 547.714 654.18 547.714 652.7C547.714 650.26 545.554 648.88 543.114 648.88C539.654 648.88 537.894 650.78 537.894 653.36H540.154ZM548.536 659.1C548.536 661.9 550.856 663.3 553.876 663.3C556.896 663.3 559.236 661.9 559.236 659.1C559.236 657.2 557.956 656.22 556.656 655.64V655.6C557.616 655.08 558.556 654.22 558.556 652.66C558.556 650.28 556.576 648.88 553.876 648.88C551.176 648.88 549.196 650.28 549.196 652.66C549.196 654.22 550.116 655.08 551.096 655.6V655.64C549.776 656.22 548.536 657.2 548.536 659.1ZM553.876 654.78C552.336 654.78 551.376 654.1 551.376 652.76C551.376 651.44 552.336 650.72 553.876 650.72C555.416 650.72 556.376 651.44 556.376 652.76C556.376 654.1 555.416 654.78 553.876 654.78ZM553.876 661.4C552.016 661.4 550.836 660.48 550.836 658.96C550.836 657.46 552.016 656.54 553.876 656.54C555.756 656.54 556.916 657.46 556.916 658.96C556.916 660.48 555.756 661.4 553.876 661.4ZM490.82 676.62L491.16 674.9H489.28L490.04 671.18H488.3L487.56 674.9H485.36L486.12 671.18H484.4L483.64 674.9H481.66L481.32 676.62H483.3L482.72 679.52H480.9L480.58 681.24H482.36L481.6 685H483.32L484.08 681.24H486.28L485.52 685H487.24L488 681.24H490.1L490.42 679.52H488.36L488.94 676.62H490.82ZM486.62 679.52H484.44L485.02 676.62H487.2L486.62 679.52ZM494.957 671.18C494.817 672.88 494.097 674.12 491.597 674.12V675.78C492.757 675.78 493.677 675.78 494.497 674.98V685H496.817V671.18H494.957ZM501.082 676.6V672.72H509.042V670.7H498.702V685H509.242V682.98H501.082V678.64H508.062V676.6H501.082ZM513.143 671.18C513.003 672.88 512.283 674.12 509.783 674.12V675.78C510.943 675.78 511.863 675.78 512.683 674.98V685H515.003V671.18H513.143ZM519.267 676.6V672.72H527.227V670.7H516.887V685H527.427V682.98H519.267V678.64H526.247V676.6H519.267ZM530.488 676.08C530.488 674.18 531.268 672.86 533.328 672.86C535.108 672.86 535.648 674 535.648 675.14C535.648 677.1 534.028 677.76 531.488 679.44C529.368 680.78 527.908 682.56 527.908 685H537.828V683.04H530.928V683C532.068 680.18 537.968 679.44 537.968 675.04C537.968 672.4 535.948 670.88 533.388 670.88C529.848 670.88 528.248 673.1 528.248 676.08H530.488ZM540.917 677.66V677.62C540.957 675.1 541.537 672.78 544.037 672.78C545.497 672.78 546.217 673.62 546.357 674.68H548.677C548.397 672.6 546.657 670.88 544.057 670.88C540.577 670.88 538.597 673.42 538.597 678.14C538.597 682.28 540.017 685.3 544.057 685.3C547.157 685.3 549.057 683.18 549.057 680.46C549.057 677.74 547.197 675.86 544.477 675.86C542.877 675.86 541.597 676.54 540.917 677.66ZM543.977 683.4C542.137 683.4 541.037 682.26 541.037 680.62C541.037 678.92 542.257 677.76 544.097 677.76C545.677 677.76 546.797 678.82 546.797 680.58C546.797 682.26 545.757 683.4 543.977 683.4Z" fill="#ECECEC"/>
<rect x="465" y="705" width="475" height="375" fill="#ECECEC"/>
<path d="M836.235 743H838.555V732.16H838.595L842.375 743H844.275L848.055 732.16H848.095V743H850.415V728.7H847.335L843.355 739.7H843.315L839.315 728.7H836.235V743ZM854.436 734.6V730.72H862.396V728.7H852.056V743H862.596V740.98H854.436V736.64H861.416V734.6H854.436ZM863.736 743H866.116V737.48H869.616C873.056 737.48 871.716 742.4 872.376 743H874.876V742.86C874.116 742.62 875.316 737.02 872.016 736.4V736.36C873.656 735.96 874.676 734.8 874.676 732.8C874.676 730.2 872.776 728.7 869.836 728.7H863.736V743ZM866.116 730.72H869.336C870.796 730.72 872.316 731.02 872.316 733.08C872.316 735.16 870.796 735.44 869.336 735.44H866.116V730.72ZM885.787 733.62H888.167C887.827 730.7 885.627 728.4 882.007 728.4C877.887 728.4 875.287 731.54 875.287 735.84C875.287 740.16 877.887 743.3 882.007 743.3C885.647 743.3 887.847 741 888.167 737.78H885.787C885.627 739.52 884.607 741.26 881.947 741.26C878.867 741.26 877.647 738.68 877.647 735.84C877.647 733.02 878.867 730.44 881.947 730.44C884.587 730.44 885.527 732.18 885.787 733.62ZM900.209 738.12V728.7H897.849V738.12C897.849 740.28 896.769 741.26 894.569 741.26C892.389 741.26 891.309 740.28 891.309 738.12V728.7H888.929V738.12C888.929 741.24 890.589 743.3 894.569 743.3C898.549 743.3 900.209 741.24 900.209 738.12ZM901.668 743H904.048V737.48H907.548C910.988 737.48 909.648 742.4 910.308 743H912.808V742.86C912.048 742.62 913.248 737.02 909.948 736.4V736.36C911.588 735.96 912.608 734.8 912.608 732.8C912.608 730.2 910.708 728.7 907.768 728.7H901.668V743ZM904.048 730.72H907.268C908.728 730.72 910.248 731.02 910.248 733.08C910.248 735.16 908.728 735.44 907.268 735.44H904.048V730.72ZM912.328 728.7L917.408 737.32V743H919.788V737.32L924.868 728.7H922.328L918.608 735.34H918.568L914.868 728.7H912.328Z" fill="#131313"/>
<path d="M486.32 1016.3C490.22 1016.3 491.88 1013.02 491.88 1009.1C491.88 1005.18 490.22 1001.88 486.32 1001.88C482.42 1001.88 480.76 1005.18 480.76 1009.1C480.76 1013.02 482.42 1016.3 486.32 1016.3ZM486.32 1014.32C483.88 1014.32 483.06 1011.98 483.06 1009.1C483.06 1006.22 483.88 1003.86 486.32 1003.86C488.76 1003.86 489.56 1006.22 489.56 1009.1C489.56 1011.98 488.76 1014.32 486.32 1014.32ZM495.637 1009.84C497.957 1009.84 498.997 1008.02 498.997 1005.86C498.997 1003.72 497.957 1001.88 495.637 1001.88C493.357 1001.88 492.277 1003.72 492.277 1005.86C492.277 1008.02 493.357 1009.84 495.637 1009.84ZM504.557 1002.18H502.957L495.697 1016H497.297L504.557 1002.18ZM495.637 1008.32C494.537 1008.32 494.057 1007.38 494.057 1005.86C494.057 1004.34 494.537 1003.42 495.637 1003.42C496.737 1003.42 497.217 1004.34 497.217 1005.86C497.217 1007.38 496.737 1008.32 495.637 1008.32ZM504.617 1016.3C506.937 1016.3 507.977 1014.46 507.977 1012.32C507.977 1010.16 506.937 1008.34 504.617 1008.34C502.337 1008.34 501.257 1010.16 501.257 1012.32C501.257 1014.46 502.337 1016.3 504.617 1016.3ZM504.617 1014.76C503.537 1014.76 503.037 1013.84 503.037 1012.32C503.037 1010.8 503.537 1009.86 504.617 1009.86C505.717 1009.86 506.197 1010.8 506.197 1012.32C506.197 1013.84 505.717 1014.76 504.617 1014.76ZM522.984 1016.3C526.884 1016.3 528.544 1013.02 528.544 1009.1C528.544 1005.18 526.884 1001.88 522.984 1001.88C519.084 1001.88 517.424 1005.18 517.424 1009.1C517.424 1013.02 519.084 1016.3 522.984 1016.3ZM522.984 1014.32C520.544 1014.32 519.724 1011.98 519.724 1009.1C519.724 1006.22 520.544 1003.86 522.984 1003.86C525.424 1003.86 526.224 1006.22 526.224 1009.1C526.224 1011.98 525.424 1014.32 522.984 1014.32ZM532.301 1009.84C534.621 1009.84 535.661 1008.02 535.661 1005.86C535.661 1003.72 534.621 1001.88 532.301 1001.88C530.021 1001.88 528.941 1003.72 528.941 1005.86C528.941 1008.02 530.021 1009.84 532.301 1009.84ZM541.221 1002.18H539.621L532.361 1016H533.961L541.221 1002.18ZM532.301 1008.32C531.201 1008.32 530.721 1007.38 530.721 1005.86C530.721 1004.34 531.201 1003.42 532.301 1003.42C533.401 1003.42 533.881 1004.34 533.881 1005.86C533.881 1007.38 533.401 1008.32 532.301 1008.32ZM541.281 1016.3C543.601 1016.3 544.641 1014.46 544.641 1012.32C544.641 1010.16 543.601 1008.34 541.281 1008.34C539.001 1008.34 537.921 1010.16 537.921 1012.32C537.921 1014.46 539.001 1016.3 541.281 1016.3ZM541.281 1014.76C540.201 1014.76 539.701 1013.84 539.701 1012.32C539.701 1010.8 540.201 1009.86 541.281 1009.86C542.381 1009.86 542.861 1010.8 542.861 1012.32C542.861 1013.84 542.381 1014.76 541.281 1014.76ZM559.648 1016.3C563.548 1016.3 565.208 1013.02 565.208 1009.1C565.208 1005.18 563.548 1001.88 559.648 1001.88C555.748 1001.88 554.088 1005.18 554.088 1009.1C554.088 1013.02 555.748 1016.3 559.648 1016.3ZM559.648 1014.32C557.208 1014.32 556.388 1011.98 556.388 1009.1C556.388 1006.22 557.208 1003.86 559.648 1003.86C562.088 1003.86 562.888 1006.22 562.888 1009.1C562.888 1011.98 562.088 1014.32 559.648 1014.32ZM568.965 1009.84C571.285 1009.84 572.325 1008.02 572.325 1005.86C572.325 1003.72 571.285 1001.88 568.965 1001.88C566.685 1001.88 565.605 1003.72 565.605 1005.86C565.605 1008.02 566.685 1009.84 568.965 1009.84ZM577.885 1002.18H576.285L569.025 1016H570.625L577.885 1002.18ZM568.965 1008.32C567.865 1008.32 567.385 1007.38 567.385 1005.86C567.385 1004.34 567.865 1003.42 568.965 1003.42C570.065 1003.42 570.545 1004.34 570.545 1005.86C570.545 1007.38 570.065 1008.32 568.965 1008.32ZM577.945 1016.3C580.265 1016.3 581.305 1014.46 581.305 1012.32C581.305 1010.16 580.265 1008.34 577.945 1008.34C575.665 1008.34 574.585 1010.16 574.585 1012.32C574.585 1014.46 575.665 1016.3 577.945 1016.3ZM577.945 1014.76C576.865 1014.76 576.365 1013.84 576.365 1012.32C576.365 1010.8 576.865 1009.86 577.945 1009.86C579.045 1009.86 579.525 1010.8 579.525 1012.32C579.525 1013.84 579.045 1014.76 577.945 1014.76ZM590.412 1002.18V1004.14H597.652V1004.18C595.192 1006.36 592.472 1011.44 592.472 1016H594.912C594.912 1011.6 597.032 1006.56 600.172 1003.94V1002.18H590.412ZM603.872 1009.84C606.192 1009.84 607.232 1008.02 607.232 1005.86C607.232 1003.72 606.192 1001.88 603.872 1001.88C601.592 1001.88 600.512 1003.72 600.512 1005.86C600.512 1008.02 601.592 1009.84 603.872 1009.84ZM612.792 1002.18H611.192L603.932 1016H605.532L612.792 1002.18ZM603.872 1008.32C602.772 1008.32 602.292 1007.38 602.292 1005.86C602.292 1004.34 602.772 1003.42 603.872 1003.42C604.972 1003.42 605.452 1004.34 605.452 1005.86C605.452 1007.38 604.972 1008.32 603.872 1008.32ZM612.852 1016.3C615.172 1016.3 616.212 1014.46 616.212 1012.32C616.212 1010.16 615.172 1008.34 612.852 1008.34C610.572 1008.34 609.492 1010.16 609.492 1012.32C609.492 1014.46 610.572 1016.3 612.852 1016.3ZM612.852 1014.76C611.772 1014.76 611.272 1013.84 611.272 1012.32C611.272 1010.8 611.772 1009.86 612.852 1009.86C613.952 1009.86 614.432 1010.8 614.432 1012.32C614.432 1013.84 613.952 1014.76 612.852 1014.76ZM483.14 1029.08C483.14 1027.18 483.92 1025.86 485.98 1025.86C487.76 1025.86 488.3 1027 488.3 1028.14C488.3 1030.1 486.68 1030.76 484.14 1032.44C482.02 1033.78 480.56 1035.56 480.56 1038H490.48V1036.04H483.58V1036C484.72 1033.18 490.62 1032.44 490.62 1028.04C490.62 1025.4 488.6 1023.88 486.04 1023.88C482.5 1023.88 480.9 1026.1 480.9 1029.08H483.14ZM493.449 1028.36C493.449 1027 494.149 1025.86 496.329 1025.86C497.969 1025.86 498.689 1026.74 498.689 1027.88C498.689 1029.3 497.729 1029.9 496.289 1029.9H495.129V1031.74H496.369C497.789 1031.74 499.169 1032.16 499.169 1034.06C499.169 1035.52 498.369 1036.32 496.289 1036.32C493.929 1036.32 493.069 1035.12 493.069 1033.26H490.829C490.829 1036.44 492.809 1038.3 496.449 1038.3C499.449 1038.3 501.469 1036.84 501.469 1034.12C501.469 1032.48 500.809 1031.24 498.929 1030.7V1030.66C500.249 1030.1 501.009 1029.18 501.009 1027.7C501.009 1025.26 498.849 1023.88 496.409 1023.88C492.949 1023.88 491.189 1025.78 491.189 1028.36H493.449ZM504.332 1030.66V1030.62C504.372 1028.1 504.952 1025.78 507.452 1025.78C508.912 1025.78 509.632 1026.62 509.772 1027.68H512.092C511.812 1025.6 510.072 1023.88 507.472 1023.88C503.992 1023.88 502.012 1026.42 502.012 1031.14C502.012 1035.28 503.432 1038.3 507.472 1038.3C510.572 1038.3 512.472 1036.18 512.472 1033.46C512.472 1030.74 510.612 1028.86 507.892 1028.86C506.292 1028.86 505.012 1029.54 504.332 1030.66ZM507.392 1036.4C505.552 1036.4 504.452 1035.26 504.452 1033.62C504.452 1031.92 505.672 1030.76 507.512 1030.76C509.092 1030.76 510.212 1031.82 510.212 1033.58C510.212 1035.26 509.172 1036.4 507.392 1036.4ZM514.39 1038.14C514.39 1038.9 513.91 1039.52 513.17 1039.66V1040.8C514.91 1040.52 515.63 1038.86 515.63 1037.4C515.63 1036.28 515.17 1035.56 514.27 1035.56C513.55 1035.56 512.97 1036.04 512.97 1036.9C512.97 1037.84 513.61 1038.28 514.39 1038.14ZM521.777 1029.08C521.777 1027.18 522.557 1025.86 524.617 1025.86C526.397 1025.86 526.937 1027 526.937 1028.14C526.937 1030.1 525.317 1030.76 522.777 1032.44C520.657 1033.78 519.197 1035.56 519.197 1038H529.117V1036.04H522.217V1036C523.357 1033.18 529.257 1032.44 529.257 1028.04C529.257 1025.4 527.237 1023.88 524.677 1023.88C521.137 1023.88 519.537 1026.1 519.537 1029.08H521.777ZM532.086 1028.36C532.086 1027 532.786 1025.86 534.966 1025.86C536.606 1025.86 537.326 1026.74 537.326 1027.88C537.326 1029.3 536.366 1029.9 534.926 1029.9H533.766V1031.74H535.006C536.426 1031.74 537.806 1032.16 537.806 1034.06C537.806 1035.52 537.006 1036.32 534.926 1036.32C532.566 1036.32 531.706 1035.12 531.706 1033.26H529.466C529.466 1036.44 531.446 1038.3 535.086 1038.3C538.086 1038.3 540.106 1036.84 540.106 1034.12C540.106 1032.48 539.446 1031.24 537.566 1030.7V1030.66C538.886 1030.1 539.646 1029.18 539.646 1027.7C539.646 1025.26 537.486 1023.88 535.046 1023.88C531.586 1023.88 529.826 1025.78 529.826 1028.36H532.086ZM542.968 1030.66V1030.62C543.008 1028.1 543.588 1025.78 546.088 1025.78C547.548 1025.78 548.268 1026.62 548.408 1027.68H550.728C550.448 1025.6 548.708 1023.88 546.108 1023.88C542.628 1023.88 540.648 1026.42 540.648 1031.14C540.648 1035.28 542.068 1038.3 546.108 1038.3C549.208 1038.3 551.108 1036.18 551.108 1033.46C551.108 1030.74 549.248 1028.86 546.528 1028.86C544.928 1028.86 543.648 1029.54 542.968 1030.66ZM546.028 1036.4C544.188 1036.4 543.088 1035.26 543.088 1033.62C543.088 1031.92 544.308 1030.76 546.148 1030.76C547.728 1030.76 548.848 1031.82 548.848 1033.58C548.848 1035.26 547.808 1036.4 546.028 1036.4ZM553.027 1038.14C553.027 1038.9 552.547 1039.52 551.807 1039.66V1040.8C553.547 1040.52 554.267 1038.86 554.267 1037.4C554.267 1036.28 553.807 1035.56 552.907 1035.56C552.187 1035.56 551.607 1036.04 551.607 1036.9C551.607 1037.84 552.247 1038.28 553.027 1038.14ZM560.413 1029.08C560.413 1027.18 561.193 1025.86 563.253 1025.86C565.033 1025.86 565.573 1027 565.573 1028.14C565.573 1030.1 563.953 1030.76 561.413 1032.44C559.293 1033.78 557.833 1035.56 557.833 1038H567.753V1036.04H560.853V1036C561.993 1033.18 567.893 1032.44 567.893 1028.04C567.893 1025.4 565.873 1023.88 563.313 1023.88C559.773 1023.88 558.173 1026.1 558.173 1029.08H560.413ZM570.722 1028.36C570.722 1027 571.422 1025.86 573.602 1025.86C575.242 1025.86 575.962 1026.74 575.962 1027.88C575.962 1029.3 575.002 1029.9 573.562 1029.9H572.402V1031.74H573.642C575.062 1031.74 576.442 1032.16 576.442 1034.06C576.442 1035.52 575.642 1036.32 573.562 1036.32C571.202 1036.32 570.342 1035.12 570.342 1033.26H568.102C568.102 1036.44 570.082 1038.3 573.722 1038.3C576.722 1038.3 578.742 1036.84 578.742 1034.12C578.742 1032.48 578.082 1031.24 576.202 1030.7V1030.66C577.522 1030.1 578.282 1029.18 578.282 1027.7C578.282 1025.26 576.122 1023.88 573.682 1023.88C570.222 1023.88 568.462 1025.78 568.462 1028.36H570.722ZM581.605 1030.66V1030.62C581.645 1028.1 582.225 1025.78 584.725 1025.78C586.185 1025.78 586.905 1026.62 587.045 1027.68H589.365C589.085 1025.6 587.345 1023.88 584.745 1023.88C581.265 1023.88 579.285 1026.42 579.285 1031.14C579.285 1035.28 580.705 1038.3 584.745 1038.3C587.845 1038.3 589.745 1036.18 589.745 1033.46C589.745 1030.74 587.885 1028.86 585.165 1028.86C583.565 1028.86 582.285 1029.54 581.605 1030.66ZM584.665 1036.4C582.825 1036.4 581.725 1035.26 581.725 1033.62C581.725 1031.92 582.945 1030.76 584.785 1030.76C586.365 1030.76 587.485 1031.82 587.485 1033.58C587.485 1035.26 586.445 1036.4 584.665 1036.4ZM490.82 1051.62L491.16 1049.9H489.28L490.04 1046.18H488.3L487.56 1049.9H485.36L486.12 1046.18H484.4L483.64 1049.9H481.66L481.32 1051.62H483.3L482.72 1054.52H480.9L480.58 1056.24H482.36L481.6 1060H483.32L484.08 1056.24H486.28L485.52 1060H487.24L488 1056.24H490.1L490.42 1054.52H488.36L488.94 1051.62H490.82ZM486.62 1054.52H484.44L485.02 1051.62H487.2L486.62 1054.52ZM494.519 1051.6V1047.72H502.479V1045.7H492.139V1060H502.679V1057.98H494.519V1053.64H501.499V1051.6H494.519ZM513.486 1050.62H515.866C515.526 1047.7 513.326 1045.4 509.706 1045.4C505.586 1045.4 502.986 1048.54 502.986 1052.84C502.986 1057.16 505.586 1060.3 509.706 1060.3C513.346 1060.3 515.546 1058 515.866 1054.78H513.486C513.326 1056.52 512.306 1058.26 509.646 1058.26C506.566 1058.26 505.346 1055.68 505.346 1052.84C505.346 1050.02 506.566 1047.44 509.646 1047.44C512.286 1047.44 513.226 1049.18 513.486 1050.62ZM519.208 1051.6V1047.72H527.168V1045.7H516.828V1060H527.368V1057.98H519.208V1053.64H526.188V1051.6H519.208ZM538.175 1050.62H540.555C540.215 1047.7 538.015 1045.4 534.395 1045.4C530.275 1045.4 527.675 1048.54 527.675 1052.84C527.675 1057.16 530.275 1060.3 534.395 1060.3C538.035 1060.3 540.235 1058 540.555 1054.78H538.175C538.015 1056.52 536.995 1058.26 534.335 1058.26C531.255 1058.26 530.035 1055.68 530.035 1052.84C530.035 1050.02 531.255 1047.44 534.335 1047.44C536.975 1047.44 537.915 1049.18 538.175 1050.62ZM543.897 1051.6V1047.72H551.857V1045.7H541.517V1060H552.057V1057.98H543.897V1053.64H550.877V1051.6H543.897ZM562.864 1050.62H565.244C564.904 1047.7 562.704 1045.4 559.084 1045.4C554.964 1045.4 552.364 1048.54 552.364 1052.84C552.364 1057.16 554.964 1060.3 559.084 1060.3C562.724 1060.3 564.924 1058 565.244 1054.78H562.864C562.704 1056.52 561.684 1058.26 559.024 1058.26C555.944 1058.26 554.724 1055.68 554.724 1052.84C554.724 1050.02 555.944 1047.44 559.024 1047.44C561.664 1047.44 562.604 1049.18 562.864 1050.62Z" fill="#131313"/>
<rect x="940" y="705" width="320" height="375" fill="#131313"/>
<path d="M1192.17 732.3C1192.17 730 1190.47 728.7 1187.53 728.7H1181.39V743H1187.87C1190.83 743 1192.73 741.58 1192.73 738.82C1192.73 736.68 1191.45 735.58 1189.95 735.32V735.28C1191.13 734.88 1192.17 734.06 1192.17 732.3ZM1183.77 734.62V730.72H1187.59C1189.01 730.72 1189.79 731.42 1189.79 732.68C1189.79 733.94 1189.15 734.62 1187.45 734.62H1183.77ZM1183.77 736.4H1187.95C1189.45 736.4 1190.35 737.22 1190.35 738.68C1190.35 740.02 1189.73 740.98 1187.69 740.98H1183.77V736.4ZM1193.7 728.7V743H1196.08V728.7H1193.7ZM1203.22 734.48C1201.22 733.98 1199.88 733.7 1199.88 732.14C1199.88 731.08 1200.9 730.44 1202.6 730.44C1204.58 730.44 1205.62 731.32 1205.84 732.98H1208.22C1208.02 730.04 1205.74 728.4 1202.6 728.4C1199.48 728.4 1197.52 729.82 1197.52 732.36C1197.52 735.08 1199.94 735.94 1202.18 736.5C1205 737.2 1206.22 737.52 1206.22 739.22C1206.22 740.32 1205.4 741.26 1203.28 741.26C1200.72 741.26 1199.48 740.06 1199.36 738.24H1196.98C1197.12 741.48 1199.78 743.3 1203.28 743.3C1206.88 743.3 1208.6 741.4 1208.6 739.12C1208.6 735.92 1206.28 735.26 1203.22 734.48ZM1219.62 733.62H1222C1221.66 730.7 1219.46 728.4 1215.84 728.4C1211.72 728.4 1209.12 731.54 1209.12 735.84C1209.12 740.16 1211.72 743.3 1215.84 743.3C1219.48 743.3 1221.68 741 1222 737.78H1219.62C1219.46 739.52 1218.44 741.26 1215.78 741.26C1212.7 741.26 1211.48 738.68 1211.48 735.84C1211.48 733.02 1212.7 730.44 1215.78 730.44C1218.42 730.44 1219.36 732.18 1219.62 733.62ZM1230.93 739.62L1232.09 743H1234.51L1229.27 728.7H1226.77L1221.51 743H1223.93L1225.09 739.62H1230.93ZM1225.75 737.64L1228.01 730.88H1228.05L1230.29 737.64H1225.75ZM1232.33 728.7L1237.41 737.32V743H1239.79V737.32L1244.87 728.7H1242.33L1238.61 735.34H1238.57L1234.87 728.7H1232.33Z" fill="#ECECEC"/>
<path d="M955.42 1002.18V1004.14H962.66V1004.18C960.2 1006.36 957.48 1011.44 957.48 1016H959.92C959.92 1011.6 962.04 1006.56 965.18 1003.94V1002.18H955.42ZM972.7 1016V1012.86H974.64V1010.9H972.7V1002.18H970.38L963.84 1010.7V1012.86H970.38V1016H972.7ZM970.38 1005.06V1010.9H965.9L970.38 1005.06ZM977.493 1009.84C979.813 1009.84 980.853 1008.02 980.853 1005.86C980.853 1003.72 979.813 1001.88 977.493 1001.88C975.213 1001.88 974.133 1003.72 974.133 1005.86C974.133 1008.02 975.213 1009.84 977.493 1009.84ZM986.413 1002.18H984.813L977.553 1016H979.153L986.413 1002.18ZM977.493 1008.32C976.393 1008.32 975.913 1007.38 975.913 1005.86C975.913 1004.34 976.393 1003.42 977.493 1003.42C978.593 1003.42 979.073 1004.34 979.073 1005.86C979.073 1007.38 978.593 1008.32 977.493 1008.32ZM986.473 1016.3C988.793 1016.3 989.833 1014.46 989.833 1012.32C989.833 1010.16 988.793 1008.34 986.473 1008.34C984.193 1008.34 983.113 1010.16 983.113 1012.32C983.113 1014.46 984.193 1016.3 986.473 1016.3ZM986.473 1014.76C985.393 1014.76 984.893 1013.84 984.893 1012.32C984.893 1010.8 985.393 1009.86 986.473 1009.86C987.573 1009.86 988.053 1010.8 988.053 1012.32C988.053 1013.84 987.573 1014.76 986.473 1014.76ZM1004.84 1006.68C1003.4 1006.68 1002.38 1007.14 1001.66 1007.88V1007.84L1002.4 1004.14H1008.62V1002.18H1000.66L999.16 1009.72H1001.5C1002.16 1008.9 1003.14 1008.52 1004.22 1008.52C1005.9 1008.52 1007 1009.4 1007 1011.28C1007 1013.28 1005.8 1014.32 1004.1 1014.32C1002.18 1014.32 1001.36 1013.16 1001.22 1011.92H998.92C999 1014.3 1000.84 1016.3 1004.22 1016.3C1007.1 1016.3 1009.32 1014.38 1009.32 1011.3C1009.32 1008.6 1007.5 1006.68 1004.84 1006.68ZM1009.69 1012.1C1009.69 1014.9 1012.01 1016.3 1015.03 1016.3C1018.05 1016.3 1020.39 1014.9 1020.39 1012.1C1020.39 1010.2 1019.11 1009.22 1017.81 1008.64V1008.6C1018.77 1008.08 1019.71 1007.22 1019.71 1005.66C1019.71 1003.28 1017.73 1001.88 1015.03 1001.88C1012.33 1001.88 1010.35 1003.28 1010.35 1005.66C1010.35 1007.22 1011.27 1008.08 1012.25 1008.6V1008.64C1010.93 1009.22 1009.69 1010.2 1009.69 1012.1ZM1015.03 1007.78C1013.49 1007.78 1012.53 1007.1 1012.53 1005.76C1012.53 1004.44 1013.49 1003.72 1015.03 1003.72C1016.57 1003.72 1017.53 1004.44 1017.53 1005.76C1017.53 1007.1 1016.57 1007.78 1015.03 1007.78ZM1015.03 1014.4C1013.17 1014.4 1011.99 1013.48 1011.99 1011.96C1011.99 1010.46 1013.17 1009.54 1015.03 1009.54C1016.91 1009.54 1018.07 1010.46 1018.07 1011.96C1018.07 1013.48 1016.91 1014.4 1015.03 1014.4ZM1023.96 1009.84C1026.28 1009.84 1027.32 1008.02 1027.32 1005.86C1027.32 1003.72 1026.28 1001.88 1023.96 1001.88C1021.68 1001.88 1020.6 1003.72 1020.6 1005.86C1020.6 1008.02 1021.68 1009.84 1023.96 1009.84ZM1032.88 1002.18H1031.28L1024.02 1016H1025.62L1032.88 1002.18ZM1023.96 1008.32C1022.86 1008.32 1022.38 1007.38 1022.38 1005.86C1022.38 1004.34 1022.86 1003.42 1023.96 1003.42C1025.06 1003.42 1025.54 1004.34 1025.54 1005.86C1025.54 1007.38 1025.06 1008.32 1023.96 1008.32ZM1032.94 1016.3C1035.26 1016.3 1036.3 1014.46 1036.3 1012.32C1036.3 1010.16 1035.26 1008.34 1032.94 1008.34C1030.66 1008.34 1029.58 1010.16 1029.58 1012.32C1029.58 1014.46 1030.66 1016.3 1032.94 1016.3ZM1032.94 1014.76C1031.86 1014.76 1031.36 1013.84 1031.36 1012.32C1031.36 1010.8 1031.86 1009.86 1032.94 1009.86C1034.04 1009.86 1034.52 1010.8 1034.52 1012.32C1034.52 1013.84 1034.04 1014.76 1032.94 1014.76ZM1051.31 1016.3C1055.21 1016.3 1056.87 1013.02 1056.87 1009.1C1056.87 1005.18 1055.21 1001.88 1051.31 1001.88C1047.41 1001.88 1045.75 1005.18 1045.75 1009.1C1045.75 1013.02 1047.41 1016.3 1051.31 1016.3ZM1051.31 1014.32C1048.87 1014.32 1048.05 1011.98 1048.05 1009.1C1048.05 1006.22 1048.87 1003.86 1051.31 1003.86C1053.75 1003.86 1054.55 1006.22 1054.55 1009.1C1054.55 1011.98 1053.75 1014.32 1051.31 1014.32ZM1060.63 1009.84C1062.95 1009.84 1063.99 1008.02 1063.99 1005.86C1063.99 1003.72 1062.95 1001.88 1060.63 1001.88C1058.35 1001.88 1057.27 1003.72 1057.27 1005.86C1057.27 1008.02 1058.35 1009.84 1060.63 1009.84ZM1069.55 1002.18H1067.95L1060.69 1016H1062.29L1069.55 1002.18ZM1060.63 1008.32C1059.53 1008.32 1059.05 1007.38 1059.05 1005.86C1059.05 1004.34 1059.53 1003.42 1060.63 1003.42C1061.73 1003.42 1062.21 1004.34 1062.21 1005.86C1062.21 1007.38 1061.73 1008.32 1060.63 1008.32ZM1069.61 1016.3C1071.93 1016.3 1072.97 1014.46 1072.97 1012.32C1072.97 1010.16 1071.93 1008.34 1069.61 1008.34C1067.33 1008.34 1066.25 1010.16 1066.25 1012.32C1066.25 1014.46 1067.33 1016.3 1069.61 1016.3ZM1069.61 1014.76C1068.53 1014.76 1068.03 1013.84 1068.03 1012.32C1068.03 1010.8 1068.53 1009.86 1069.61 1009.86C1070.71 1009.86 1071.19 1010.8 1071.19 1012.32C1071.19 1013.84 1070.71 1014.76 1069.61 1014.76ZM1084.73 1008.66V1008.62C1084.77 1006.1 1085.35 1003.78 1087.85 1003.78C1089.31 1003.78 1090.03 1004.62 1090.17 1005.68H1092.49C1092.21 1003.6 1090.47 1001.88 1087.87 1001.88C1084.39 1001.88 1082.41 1004.42 1082.41 1009.14C1082.41 1013.28 1083.83 1016.3 1087.87 1016.3C1090.97 1016.3 1092.87 1014.18 1092.87 1011.46C1092.87 1008.74 1091.01 1006.86 1088.29 1006.86C1086.69 1006.86 1085.41 1007.54 1084.73 1008.66ZM1087.79 1014.4C1085.95 1014.4 1084.85 1013.26 1084.85 1011.62C1084.85 1009.92 1086.07 1008.76 1087.91 1008.76C1089.49 1008.76 1090.61 1009.82 1090.61 1011.58C1090.61 1013.26 1089.57 1014.4 1087.79 1014.4ZM1095.67 1007.08C1095.67 1005.18 1096.45 1003.86 1098.51 1003.86C1100.29 1003.86 1100.83 1005 1100.83 1006.14C1100.83 1008.1 1099.21 1008.76 1096.67 1010.44C1094.55 1011.78 1093.09 1013.56 1093.09 1016H1103.01V1014.04H1096.11V1014C1097.25 1011.18 1103.15 1010.44 1103.15 1006.04C1103.15 1003.4 1101.13 1001.88 1098.57 1001.88C1095.03 1001.88 1093.43 1004.1 1093.43 1007.08H1095.67ZM1107.41 1009.84C1109.73 1009.84 1110.77 1008.02 1110.77 1005.86C1110.77 1003.72 1109.73 1001.88 1107.41 1001.88C1105.13 1001.88 1104.05 1003.72 1104.05 1005.86C1104.05 1008.02 1105.13 1009.84 1107.41 1009.84ZM1116.33 1002.18H1114.73L1107.47 1016H1109.07L1116.33 1002.18ZM1107.41 1008.32C1106.31 1008.32 1105.83 1007.38 1105.83 1005.86C1105.83 1004.34 1106.31 1003.42 1107.41 1003.42C1108.51 1003.42 1108.99 1004.34 1108.99 1005.86C1108.99 1007.38 1108.51 1008.32 1107.41 1008.32ZM1116.39 1016.3C1118.71 1016.3 1119.75 1014.46 1119.75 1012.32C1119.75 1010.16 1118.71 1008.34 1116.39 1008.34C1114.11 1008.34 1113.03 1010.16 1113.03 1012.32C1113.03 1014.46 1114.11 1016.3 1116.39 1016.3ZM1116.39 1014.76C1115.31 1014.76 1114.81 1013.84 1114.81 1012.32C1114.81 1010.8 1115.31 1009.86 1116.39 1009.86C1117.49 1009.86 1117.97 1010.8 1117.97 1012.32C1117.97 1013.84 1117.49 1014.76 1116.39 1014.76ZM958.14 1029.08C958.14 1027.18 958.92 1025.86 960.98 1025.86C962.76 1025.86 963.3 1027 963.3 1028.14C963.3 1030.1 961.68 1030.76 959.14 1032.44C957.02 1033.78 955.56 1035.56 955.56 1038H965.48V1036.04H958.58V1036C959.72 1033.18 965.62 1032.44 965.62 1028.04C965.62 1025.4 963.6 1023.88 961.04 1023.88C957.5 1023.88 955.9 1026.1 955.9 1029.08H958.14ZM971.809 1028.68C970.369 1028.68 969.349 1029.14 968.629 1029.88V1029.84L969.369 1026.14H975.589V1024.18H967.629L966.129 1031.72H968.469C969.129 1030.9 970.109 1030.52 971.189 1030.52C972.869 1030.52 973.969 1031.4 973.969 1033.28C973.969 1035.28 972.769 1036.32 971.069 1036.32C969.149 1036.32 968.329 1035.16 968.189 1033.92H965.889C965.969 1036.3 967.809 1038.3 971.189 1038.3C974.069 1038.3 976.289 1036.38 976.289 1033.3C976.289 1030.6 974.469 1028.68 971.809 1028.68ZM978.296 1038.14C978.296 1038.9 977.816 1039.52 977.076 1039.66V1040.8C978.816 1040.52 979.536 1038.86 979.536 1037.4C979.536 1036.28 979.076 1035.56 978.176 1035.56C977.456 1035.56 976.876 1036.04 976.876 1036.9C976.876 1037.84 977.516 1038.28 978.296 1038.14ZM991.882 1038V1034.86H993.822V1032.9H991.882V1024.18H989.562L983.022 1032.7V1034.86H989.562V1038H991.882ZM989.562 1027.06V1032.9H985.082L989.562 1027.06ZM996.835 1024.18C996.695 1025.88 995.975 1027.12 993.475 1027.12V1028.78C994.635 1028.78 995.555 1028.78 996.375 1027.98V1038H998.695V1024.18H996.835ZM1001.58 1038.14C1001.58 1038.9 1001.1 1039.52 1000.36 1039.66V1040.8C1002.1 1040.52 1002.82 1038.86 1002.82 1037.4C1002.82 1036.28 1002.36 1035.56 1001.46 1035.56C1000.74 1035.56 1000.16 1036.04 1000.16 1036.9C1000.16 1037.84 1000.8 1038.28 1001.58 1038.14ZM1014.65 1031.52V1031.56C1014.61 1034.08 1014.03 1036.4 1011.53 1036.4C1010.07 1036.4 1009.35 1035.56 1009.21 1034.5H1006.89C1007.17 1036.58 1008.91 1038.3 1011.51 1038.3C1014.99 1038.3 1016.97 1035.76 1016.97 1031.04C1016.97 1026.9 1015.55 1023.88 1011.51 1023.88C1008.41 1023.88 1006.51 1026 1006.51 1028.72C1006.51 1031.44 1008.37 1033.32 1011.09 1033.32C1012.69 1033.32 1013.97 1032.64 1014.65 1031.52ZM1011.59 1025.78C1013.43 1025.78 1014.53 1026.92 1014.53 1028.56C1014.53 1030.26 1013.31 1031.42 1011.47 1031.42C1009.89 1031.42 1008.77 1030.36 1008.77 1028.6C1008.77 1026.92 1009.81 1025.78 1011.59 1025.78ZM1016.97 1024.18V1026.14H1024.21V1026.18C1021.75 1028.36 1019.03 1033.44 1019.03 1038H1021.47C1021.47 1033.6 1023.59 1028.56 1026.73 1025.94V1024.18H1016.97ZM965.82 1051.62L966.16 1049.9H964.28L965.04 1046.18H963.3L962.56 1049.9H960.36L961.12 1046.18H959.4L958.64 1049.9H956.66L956.32 1051.62H958.3L957.72 1054.52H955.9L955.58 1056.24H957.36L956.6 1060H958.32L959.08 1056.24H961.28L960.52 1060H962.24L963 1056.24H965.1L965.42 1054.52H963.36L963.94 1051.62H965.82ZM961.62 1054.52H959.44L960.02 1051.62H962.2L961.62 1054.52ZM969.957 1046.18C969.817 1047.88 969.097 1049.12 966.597 1049.12V1050.78C967.757 1050.78 968.677 1050.78 969.497 1049.98V1060H971.817V1046.18H969.957ZM981.302 1053.52V1053.56C981.262 1056.08 980.682 1058.4 978.182 1058.4C976.722 1058.4 976.002 1057.56 975.862 1056.5H973.542C973.822 1058.58 975.562 1060.3 978.162 1060.3C981.642 1060.3 983.622 1057.76 983.622 1053.04C983.622 1048.9 982.202 1045.88 978.162 1045.88C975.062 1045.88 973.162 1048 973.162 1050.72C973.162 1053.44 975.022 1055.32 977.742 1055.32C979.342 1055.32 980.622 1054.64 981.302 1053.52ZM978.242 1047.78C980.082 1047.78 981.182 1048.92 981.182 1050.56C981.182 1052.26 979.962 1053.42 978.122 1053.42C976.542 1053.42 975.422 1052.36 975.422 1050.6C975.422 1048.92 976.462 1047.78 978.242 1047.78ZM986.443 1051.08C986.443 1049.18 987.223 1047.86 989.283 1047.86C991.063 1047.86 991.603 1049 991.603 1050.14C991.603 1052.1 989.983 1052.76 987.443 1054.44C985.323 1055.78 983.863 1057.56 983.863 1060H993.783V1058.04H986.883V1058C988.023 1055.18 993.923 1054.44 993.923 1050.04C993.923 1047.4 991.903 1045.88 989.343 1045.88C985.803 1045.88 984.203 1048.1 984.203 1051.08H986.443ZM1002.67 1053.52V1053.56C1002.63 1056.08 1002.05 1058.4 999.551 1058.4C998.091 1058.4 997.371 1057.56 997.231 1056.5H994.911C995.191 1058.58 996.931 1060.3 999.531 1060.3C1003.01 1060.3 1004.99 1057.76 1004.99 1053.04C1004.99 1048.9 1003.57 1045.88 999.531 1045.88C996.431 1045.88 994.531 1048 994.531 1050.72C994.531 1053.44 996.391 1055.32 999.111 1055.32C1000.71 1055.32 1001.99 1054.64 1002.67 1053.52ZM999.611 1047.78C1001.45 1047.78 1002.55 1048.92 1002.55 1050.56C1002.55 1052.26 1001.33 1053.42 999.491 1053.42C997.911 1053.42 996.791 1052.36 996.791 1050.6C996.791 1048.92 997.831 1047.78 999.611 1047.78ZM1007.95 1052.66V1052.62C1007.99 1050.1 1008.57 1047.78 1011.07 1047.78C1012.53 1047.78 1013.25 1048.62 1013.39 1049.68H1015.71C1015.43 1047.6 1013.69 1045.88 1011.09 1045.88C1007.61 1045.88 1005.63 1048.42 1005.63 1053.14C1005.63 1057.28 1007.05 1060.3 1011.09 1060.3C1014.19 1060.3 1016.09 1058.18 1016.09 1055.46C1016.09 1052.74 1014.23 1050.86 1011.51 1050.86C1009.91 1050.86 1008.63 1051.54 1007.95 1052.66ZM1011.01 1058.4C1009.17 1058.4 1008.07 1057.26 1008.07 1055.62C1008.07 1053.92 1009.29 1052.76 1011.13 1052.76C1012.71 1052.76 1013.83 1053.82 1013.83 1055.58C1013.83 1057.26 1012.79 1058.4 1011.01 1058.4ZM1019.92 1046.18C1019.78 1047.88 1019.06 1049.12 1016.56 1049.12V1050.78C1017.72 1050.78 1018.64 1050.78 1019.46 1049.98V1060H1021.78V1046.18H1019.92Z" fill="#ECECEC"/>
</g>
<defs>
<clipPath id="clip0_201_35">
<rect width="1260" height="1080" fill="white"/>
</clipPath>
</defs>
</svg>
